
<svg width="270px" height="265px" viewBox="0 0 270 265" version="1.1" xmlns="http://www.w3.org/2000/svg" xmlns:xlink="http://www.w3.org/1999/xlink">
    <!-- Generator: Sketch 49.3 (51167) - http://www.bohemiancoding.com/sketch -->
    <desc>Created with Sketch.</desc>
    <defs>
        <rect id="path-1" x="0" y="0" width="210" height="210" rx="47.25"></rect>
        <filter x="-26.2%" y="-16.7%" width="152.4%" height="152.4%" filterUnits="objectBoundingBox" id="filter-2">
            <feOffset dx="0" dy="20" in="SourceAlpha" result="shadowOffsetOuter1"></feOffset>
            <feGaussianBlur stdDeviation="15" in="shadowOffsetOuter1" result="shadowBlurOuter1"></feGaussianBlur>
            <feColorMatrix values="0 0 0 0 0   0 0 0 0 0   0 0 0 0 0  0 0 0 0.100911458 0" type="matrix" in="shadowBlurOuter1"></feColorMatrix>
        </filter>
    </defs>
    <g id="Page-1" stroke="none" stroke-width="1" fill="none" fill-rule="evenodd">
        <g id="Artboard-6" transform="translate(-15.000000, -35.000000)">
            <g id="Group" transform="translate(45.000000, 45.000000)">
                <g id="App-Icon">
                    <use fill="black" fill-opacity="1" filter="url(#filter-2)" xlink:href="#path-1"></use>
                    <use fill="#FFFFFF" fill-rule="evenodd" xlink:href="#path-1"></use>
                </g>
                <g id="logo_short" transform="translate(32.000000, 71.000000)" fill="#FF756D" fill-rule="nonzero">
                    <path d="M0,51.75 L69.1768521,51.75 L69.1768521,69 L0,69 L0,51.75 Z M0,43.125 L69.1768521,43.125 L69.1768521,25.875 L0,25.875 L0,43.125 Z M129.705247,0.001078125 L95.089257,0.001078125 L95.089257,0.0016171875 C85.55066,0.016171875 77.822067,7.73285156 77.822067,17.2505391 L146.99946,17.2505391 C146.99946,7.7236875 139.256815,0.001078125 129.705247,0.001078125 Z M95.0897974,68.9983828 L95.0897974,68.9989219 L129.705787,68.9989219 C139.257355,68.9989219 147,61.2757734 147,51.7494609 L77.8226074,51.7494609 C77.8226074,61.2671484 85.55066,68.9832891 95.0897974,68.9983828 Z M129.705247,25.875 L77.8209861,25.875 C77.8209861,35.4018516 85.563631,43.1244609 95.1151991,43.1244609 L146.99946,43.1244609 C146.99946,33.5981484 139.256815,25.875 129.705247,25.875 Z M0,17.25 L69.1768521,17.25 L69.1768521,0 L0,0 L0,17.25 Z" id="Shape"></path>
                </g>
            </g>
        </g>
    </g>
</svg>