<svg width="35.409px" height="36px" viewBox="0 0 35.409 36">
<path d="M35.409,24.647c0,0,0.008,3.752-0.393,5.378c-0.402,1.626-1.14,2.76-1.957,3.592
	c-0.821,0.834-1.909,1.593-3.568,1.989c-1.658,0.396-5.256,0.389-5.256,0.389L11.163,36c0,0-3.691,0.008-5.29-0.4
	c-1.6-0.408-2.715-1.158-3.533-1.989c-0.821-0.835-1.567-1.94-1.957-3.627C-0.007,28.299,0,24.641,0,24.641V11.353
	c0,0-0.009-3.752,0.393-5.378c0.402-1.627,1.14-2.761,1.957-3.592C3.172,1.549,4.26,0.79,5.918,0.394
	c1.659-0.395,5.257-0.389,5.257-0.389L24.246,0c0,0,3.691-0.008,5.29,0.4c1.6,0.409,2.715,1.159,3.533,1.99
	c0.821,0.835,1.568,1.94,1.957,3.627c0.389,1.685,0.382,5.343,0.382,5.343V24.647z M11.948,14.445c1.599,0,2.894-1.313,2.894-2.933
	c0-1.619-1.296-2.933-2.894-2.933c-1.599,0-2.894,1.313-2.894,2.933C9.054,13.131,10.35,14.445,11.948,14.445z M23.525,14.445
	c1.599,0,2.894-1.313,2.894-2.933c0-1.619-1.296-2.933-2.894-2.933c-1.599,0-2.894,1.313-2.894,2.933
	C20.631,13.131,21.927,14.445,23.525,14.445z M23.525,26.177c1.599,0,2.894-1.313,2.894-2.933s-1.296-2.933-2.894-2.933
	c-1.599,0-2.894,1.313-2.894,2.933S21.927,26.177,23.525,26.177z M11.948,26.177c1.599,0,2.894-1.313,2.894-2.933
	s-1.296-2.933-2.894-2.933c-1.599,0-2.894,1.313-2.894,2.933S10.35,26.177,11.948,26.177z"/>
</svg>