
<svg width="124px" height="16px" viewBox="0 0 124 16" version="1.1" xmlns="http://www.w3.org/2000/svg" xmlns:xlink="http://www.w3.org/1999/xlink">
	<path d="M112.499629,16 L119.499855,16 L119.499855,12 L112.499629,12 L112.499629,16 Z M112.499629,10 L119.499855,10 L119.499855,6 L112.499629,6 L112.499629,10 Z M107.999484,4 L124,4 L124,0 L107.999484,0 L107.999484,4 Z M58.9999032,16 L65.0000968,16 L65.0000968,12 L58.9999032,12 L58.9999032,16 Z M64.0000645,4 L70.0002581,4 L70.0002581,0 L64.0000645,0 L64.0000645,4 Z M53.9997419,4 L59.9999355,4 L59.9999355,0 L53.9997419,0 L53.9997419,4 Z M66.0061292,10 C68.2132004,9.996 70.0002581,8.207 70.0002581,6 L54.000742,6 C54.000742,8.209 55.7907997,10 57.999871,10 L66.0061292,10 Z M17.9995806,10 L34.0000968,10 L34.0000968,6 L17.9995806,6 L17.9995806,10 Z M27.9999032,16 L34.0000968,16 L34.0000968,12 L27.9999032,12 L27.9999032,16 Z M17.9995806,16 L23.9997742,16 L23.9997742,12 L17.9995806,12 L17.9995806,16 Z M89.9999032,4 L106.000419,4 L106.000419,0 L89.9999032,0 L89.9999032,4 Z M89.9999032,10 L106.000419,10 L106.000419,6 L89.9999032,6 L89.9999032,10 Z M89.9999032,16 L106.000419,16 L106.000419,12 L89.9999032,12 L89.9999032,16 Z M0,4 L15.9995161,4 L15.9995161,0 L0,0 L0,4 Z M72.0003226,6 C72.0003226,8.209 73.7903803,10 76.0004516,10 L87.9998387,10 C87.9998387,7.791 86.209781,6 84.0007097,6 L72.0003226,6 Z M84.0007097,16 C86.209781,16 87.9998387,14.209 87.9998387,12 L72.0003226,12 C72.0003226,14.207 73.7873802,15.996 75.9934514,16 L84.0007097,16 Z M75.9934514,0 C73.7873802,0.004 72.0003226,1.793 72.0003226,4 L87.9998387,4 C87.9998387,1.791 86.209781,0 84.0007097,0 L75.9934514,0 Z M36.0001613,6 C36.0001613,8.209 37.7912191,10 40.0002903,10 L52.0006774,10 C52.0006774,7.791 50.2096197,6 48.0005484,6 L36.0001613,6 Z M48.0005484,16 C50.2096197,16 52.0006774,14.209 52.0006774,12 L36.0001613,12 C36.0001613,14.207 37.7872189,15.996 39.9942901,16 L48.0005484,16 Z M21.9937095,0 C19.7876383,0.004 18.0005807,1.793 18.0005807,4 L34.0000968,4 C34.0000968,1.791 32.209039,0 29.9999677,0 L21.9937095,0 Z M39.9942901,0 C37.7872189,0.004 36.0001613,1.793 36.0001613,4 L52.0006774,4 C52.0006774,1.791 50.2096197,0 48.0005484,0 L39.9942901,0 Z M0,10 L15.9995161,10 L15.9995161,6 L0,6 L0,10 Z M0,16 L15.9995161,16 L15.9995161,12 L0,12 L0,16 Z"></path>
</svg>