
<svg width="196px" height="146px" viewBox="0 0 196 146" version="1.1" xmlns="http://www.w3.org/2000/svg" xmlns:xlink="http://www.w3.org/1999/xlink">
    <!-- Generator: Sketch 49.3 (51167) - http://www.bohemiancoding.com/sketch -->
    <desc>Created with Sketch.</desc>
    <defs></defs>
    <g id="Page-1" stroke="none" stroke-width="1" fill="none" fill-rule="evenodd">
        <g id="Artboard-4" transform="translate(-24.000000, -22.000000)">
            <g id="Page-1" transform="translate(24.000000, 22.000000)">
                <polygon id="Fill-1" fill="#FEFEFE" points="140.2109 113.2287 195.2939 85.2377 119.5389 45.5617 63.1069 74.0027"></polygon>
                <polygon id="Stroke-2" stroke="#231F20" points="140.2109 113.2287 195.2939 85.2377 119.5389 45.5617 63.1069 74.0027"></polygon>
                <polygon id="Fill-4" fill="#FEFEFE" points="140.2109 104.2287 195.2939 76.2377 119.5389 36.5617 63.1069 65.0027"></polygon>
                <polygon id="Stroke-5" stroke="#231F20" points="140.2109 104.2287 195.2939 76.2377 119.5389 36.5617 63.1069 65.0027"></polygon>
                <polygon id="Fill-7" fill="#FEFEFE" points="140.2109 95.2287 195.2939 67.2377 119.5389 27.5617 63.1069 56.0027"></polygon>
                <polygon id="Stroke-8" stroke="#231F20" points="140.2109 95.2287 195.2939 67.2377 119.5389 27.5617 63.1069 56.0027"></polygon>
                <polygon id="Fill-10" fill="#FEFEFE" points="140.2109 86.2287 195.2939 58.2377 119.5389 18.5617 63.1069 47.0027"></polygon>
                <polygon id="Stroke-11" stroke="#231F20" points="140.2109 86.2287 195.2939 58.2377 119.5389 18.5617 63.1069 47.0027"></polygon>
                <polygon id="Fill-13" fill="#FEFEFE" points="140.2109 77.2287 195.2939 49.2377 119.5389 9.5617 63.1069 38.0027"></polygon>
                <polygon id="Stroke-14" stroke="#231F20" points="140.2109 77.2287 195.2939 49.2377 119.5389 9.5617 63.1069 38.0027"></polygon>
                <polygon id="Fill-16" fill="#FEFEFE" points="140.2109 68.2287 195.2939 40.2377 119.5389 0.5617 63.1069 29.0027"></polygon>
                <polygon id="Stroke-17" stroke="#231F20" points="140.2109 68.2287 195.2939 40.2377 119.5389 0.5617 63.1069 29.0027"></polygon>
                <polygon id="Fill-19" fill="#FEFEFE" points="0.107 105.3358 77.211 144.5628 132.294 116.5708 56.539 76.8958"></polygon>
                <polygon id="Stroke-20" stroke="#231F20" points="77.2109 144.5621 132.2939 116.5711 56.5389 76.8951 0.1069 105.3361"></polygon>
                <polygon id="Fill-22" fill="#FEFEFE" points="77.2109 135.5621 132.2939 107.5711 56.5389 67.8951 0.1069 96.3361"></polygon>
                <polygon id="Stroke-23" stroke="#231F20" points="77.2109 135.5621 132.2939 107.5711 56.5389 67.8951 0.1069 96.3361"></polygon>
                <polygon id="Fill-25" fill="#FEFEFE" points="77.2109 126.5621 132.2939 98.5711 56.5389 58.8951 0.1069 87.3361"></polygon>
                <polygon id="Stroke-26" stroke="#231F20" points="77.2109 126.5621 132.2939 98.5711 56.5389 58.8951 0.1069 87.3361"></polygon>
                <polygon id="Fill-28" fill="#FEFEFE" points="77.2109 117.5621 132.2939 89.5711 56.5389 49.8951 0.1069 78.3361"></polygon>
                <polygon id="Stroke-29" stroke="#231F20" points="77.2109 117.5621 132.2939 89.5711 56.5389 49.8951 0.1069 78.3361"></polygon>
            </g>
        </g>
    </g>
</svg>