
<svg width="244px" height="161px" viewBox="0 0 244 161" version="1.1" xmlns="http://www.w3.org/2000/svg" xmlns:xlink="http://www.w3.org/1999/xlink">
    <!-- Generator: Sketch 49.3 (51167) - http://www.bohemiancoding.com/sketch -->
    <desc>Created with Sketch.</desc>
    <defs></defs>
    <g id="Page-1" stroke="none" stroke-width="1" fill="none" fill-rule="evenodd">
        <g id="Artboard-3" transform="translate(0.000000, -11.000000)">
            <g id="Group-10" transform="translate(0.000000, 10.000000)">
                <g id="Page-1" opacity="0.300000012" transform="translate(1.000000, 2.000000)" stroke="#384B59" stroke-width="3">
                    <path d="M15.0104,2.9895 C18.3294,6.3085 18.3294,11.6905 15.0104,15.0105 C11.6914,18.3295 6.3094,18.3295 2.9894,15.0105 C-0.3296,11.6905 -0.3296,6.3085 2.9894,2.9895 C6.3094,-0.3295 11.6914,-0.3295 15.0104,2.9895 Z" id="Stroke-1"></path>
                    <path d="M15.0104,15.0104 L23.4954,23.4954" id="Stroke-3"></path>
                </g>
                <path d="M1,36 L244,36" id="Stroke-1" stroke="#384B59" stroke-width="3" opacity="0.300000012"></path>
                <g id="Page-1" transform="translate(13.500000, 68.500000) rotate(-315.000000) translate(-13.500000, -68.500000) translate(7.000000, 56.000000)" stroke="#FF756D" stroke-width="3">
                    <path d="M0,22 L13,22" id="Stroke-1"></path>
                    <path d="M11.5,23 L11.5,0" id="Stroke-3"></path>
                </g>
                <text id="Raise-fence-to-10ft" font-family="Hind-Medium, Hind" font-size="20" font-weight="400" line-spacing="26.6599998" letter-spacing="0.111111112" fill="#384B59">
                    <tspan x="37" y="81">Raise fence to 10ft</tspan>
                </text>
                <text id="Raise-fe" font-family="Hind-Medium, Hind" font-size="20" font-weight="400" line-spacing="26.6599998" letter-spacing="0.111111112" fill="#384B59">
                    <tspan x="37" y="21">Raise fe</tspan>
                </text>
                <path d="M102,24 L102,1" id="Stroke-3" stroke="#FF756D" stroke-width="3"></path>
                <g id="Page-1" opacity="0.300000012" transform="translate(0.000000, 96.000000)" stroke="#384B59" stroke-width="3">
                    <g transform="translate(13.500000, 13.500000) rotate(-315.000000) translate(-13.500000, -13.500000) translate(7.000000, 1.000000)">
                        <path d="M0,22 L13,22" id="Stroke-1"></path>
                        <path d="M11.5,23 L11.5,0" id="Stroke-3"></path>
                    </g>
                    <g transform="translate(37.000000, 13.000000)">
                        <path d="M12.5188,7.38533 C18.7778,7.38533 19.5608,0.50033 25.5848,0.50033" id="Stroke-1"></path>
                        <path d="M38.6518,7.38533 C32.3928,7.38533 31.6098,0.50033 25.5858,0.50033" id="Stroke-3"></path>
                        <path d="M13.0665,7.38533 C6.8075,7.38533 6.0245,0.50033 0.0005,0.50033" id="Stroke-5"></path>
                        <path d="M38.6518,7.38533 C44.9108,7.38533 45.6938,0.50033 51.7178,0.50033" id="Stroke-7"></path>
                        <path d="M64.7847,7.38533 C58.5257,7.38533 57.7427,0.50033 51.7187,0.50033" id="Stroke-9"></path>
                        <path d="M64.7847,7.38533 C71.0437,7.38533 71.8267,0.50033 77.8507,0.50033" id="Stroke-11"></path>
                        <path d="M90.9177,7.38533 C84.6587,7.38533 83.8757,0.50033 77.8517,0.50033" id="Stroke-13"></path>
                        <path d="M90.9177,7.38533 C97.1767,7.38533 97.9597,0.50033 103.9837,0.50033" id="Stroke-15"></path>
                        <path d="M117.0507,7.38533 C110.7917,7.38533 110.0087,0.50033 103.9847,0.50033" id="Stroke-17"></path>
                        <path d="M117.0507,7.38533 C123.3097,7.38533 124.0927,0.50033 130.1167,0.50033" id="Stroke-19"></path>
                        <path d="M143.1836,7.38533 C136.9246,7.38533 136.1416,0.50033 130.1176,0.50033" id="Stroke-21"></path>
                    </g>
                </g>
                <g id="Page-1" opacity="0.300000012" transform="translate(0.000000, 136.000000)" stroke="#384B59" stroke-width="3">
                    <g transform="translate(13.500000, 13.500000) rotate(-315.000000) translate(-13.500000, -13.500000) translate(7.000000, 1.000000)">
                        <path d="M0,22 L13,22" id="Stroke-1"></path>
                        <path d="M11.5,23 L11.5,0" id="Stroke-3"></path>
                    </g>
                    <g transform="translate(37.000000, 13.000000)">
                        <path d="M12.5188,7.38533 C18.7778,7.38533 19.5608,0.50033 25.5848,0.50033" id="Stroke-1"></path>
                        <path d="M38.6518,7.38533 C32.3928,7.38533 31.6098,0.50033 25.5858,0.50033" id="Stroke-3"></path>
                        <path d="M13.0665,7.38533 C6.8075,7.38533 6.0245,0.50033 0.0005,0.50033" id="Stroke-5"></path>
                        <path d="M38.6518,7.38533 C44.9108,7.38533 45.6938,0.50033 51.7178,0.50033" id="Stroke-7"></path>
                        <path d="M64.7847,7.38533 C58.5257,7.38533 57.7427,0.50033 51.7187,0.50033" id="Stroke-9"></path>
                        <path d="M64.7847,7.38533 C71.0437,7.38533 71.8267,0.50033 77.8507,0.50033" id="Stroke-11"></path>
                        <path d="M90.9177,7.38533 C84.6587,7.38533 83.8757,0.50033 77.8517,0.50033" id="Stroke-13"></path>
                        <path d="M90.9177,7.38533 C97.1767,7.38533 97.9597,0.50033 103.9837,0.50033" id="Stroke-15"></path>
                        <path d="M117.0507,7.38533 C110.7917,7.38533 110.0087,0.50033 103.9847,0.50033" id="Stroke-17"></path>
                        <path d="M117.0507,7.38533 C123.3097,7.38533 124.0927,0.50033 130.1167,0.50033" id="Stroke-19"></path>
                        <path d="M143.1836,7.38533 C136.9246,7.38533 136.1416,0.50033 130.1176,0.50033" id="Stroke-21"></path>
                    </g>
                </g>
            </g>
        </g>
    </g>
</svg>