<?xml version="1.0" encoding="utf-8"?>
<!-- Generator: Adobe Illustrator 19.2.1, SVG Export Plug-In . SVG Version: 6.00 Build 0)  -->
<svg version="1.1" id="Layer_1" xmlns="http://www.w3.org/2000/svg" xmlns:xlink="http://www.w3.org/1999/xlink" x="0px" y="0px"
	 viewBox="0 0 1920 2300" style="enable-background:new 0 0 1920 2300;" xml:space="preserve">
<style type="text/css">
	.st0{fill:#53206F;}
	.st1{fill:#39164F;}
	.st2{fill:none;stroke:#A640DE;stroke-width:0.3895;stroke-miterlimit:10;}
	.st3{fill:#A640DE;}
</style>
<rect class="st0" width="1920" height="2300"/>
<g>
	<g id="XMLID_135_">
		<rect id="XMLID_143_" x="456.9" y="1216.6" class="st1" width="188.4" height="14.8"/>
		<rect id="XMLID_142_" x="456.9" y="1195.4" class="st1" width="188.4" height="14.8"/>
		<rect id="XMLID_141_" x="456.9" y="1089.7" class="st1" width="188.4" height="14.8"/>
		<rect id="XMLID_140_" x="456.9" y="1068.6" class="st1" width="188.4" height="14.8"/>
		<rect id="XMLID_139_" x="556.7" y="1153.1" class="st1" width="88.6" height="14.8"/>
		<rect id="XMLID_138_" x="456.9" y="1153.1" class="st1" width="88.6" height="14.8"/>
		<rect id="XMLID_137_" x="556.7" y="1174.3" class="st1" width="88.6" height="14.8"/>
		<rect id="XMLID_136_" x="456.9" y="1174.3" class="st1" width="88.6" height="14.8"/>
	</g>
	<g id="XMLID_120_">
		<rect id="XMLID_128_" x="737.9" y="1132" class="st1" width="188.4" height="14.8"/>
		<rect id="XMLID_127_" x="737.9" y="1110.9" class="st1" width="188.4" height="14.8"/>
		<rect id="XMLID_126_" x="737.9" y="1216.6" class="st1" width="188.4" height="14.8"/>
		<rect id="XMLID_125_" x="737.9" y="1195.4" class="st1" width="188.4" height="14.8"/>
		<rect id="XMLID_124_" x="737.9" y="1089.7" class="st1" width="188.4" height="14.8"/>
		<rect id="XMLID_123_" x="737.9" y="1068.6" class="st1" width="188.4" height="14.8"/>
		<rect id="XMLID_122_" x="737.9" y="1153.1" class="st1" width="188.4" height="14.8"/>
		<rect id="XMLID_121_" x="737.9" y="1174.3" class="st1" width="188.4" height="14.8"/>
	</g>
	<g id="XMLID_108_">
		<rect id="XMLID_119_" x="1004.4" y="1216.6" class="st1" width="188.4" height="14.8"/>
		<rect id="XMLID_118_" x="1004.4" y="1195.4" class="st1" width="188.4" height="14.8"/>
		<rect id="XMLID_115_" x="1004.4" y="1089.7" class="st1" width="188.4" height="14.8"/>
		<rect id="XMLID_114_" x="1004.4" y="1068.6" class="st1" width="188.4" height="14.8"/>
		<rect id="XMLID_113_" x="1104.2" y="1153.1" class="st1" width="88.6" height="14.8"/>
		<rect id="XMLID_112_" x="1004.4" y="1153.1" class="st1" width="88.6" height="14.8"/>
		<rect id="XMLID_111_" x="1104.2" y="1174.3" class="st1" width="88.6" height="14.8"/>
		<rect id="XMLID_109_" x="1004.4" y="1174.3" class="st1" width="88.6" height="14.8"/>
	</g>
	<g id="XMLID_93_">
		<rect id="XMLID_101_" x="1285.4" y="1216.6" class="st1" width="188.4" height="14.8"/>
		<rect id="XMLID_100_" x="1285.4" y="1195.4" class="st1" width="188.4" height="14.8"/>
		<rect id="XMLID_99_" x="1285.4" y="1089.7" class="st1" width="188.4" height="14.8"/>
		<rect id="XMLID_98_" x="1285.4" y="1068.6" class="st1" width="188.4" height="14.8"/>
		<rect id="XMLID_97_" x="1385.2" y="1153.1" class="st1" width="88.6" height="14.8"/>
		<rect id="XMLID_96_" x="1285.4" y="1153.1" class="st1" width="88.6" height="14.8"/>
		<rect id="XMLID_95_" x="1385.2" y="1174.3" class="st1" width="88.6" height="14.8"/>
		<rect id="XMLID_94_" x="1285.4" y="1174.3" class="st1" width="88.6" height="14.8"/>
	</g>
	<g id="XMLID_59_">
		<g>
			<line class="st2" x1="139.6" y1="1153.1" x2="422.1" y2="1153.1"/>
			<g>
				<polygon class="st3" points="424.9,1153.1 421,1154.7 421.9,1153.1 421,1151.6 				"/>
			</g>
		</g>
	</g>
	<g id="XMLID_47_">
		<g>
			<line class="st2" x1="669.7" y1="1153.1" x2="711.7" y2="1153.1"/>
			<g>
				<polygon class="st3" points="714.4,1153.1 710.6,1154.7 711.5,1153.1 710.6,1151.6 				"/>
			</g>
		</g>
	</g>
	<g id="XMLID_33_">
		<g>
			<line class="st2" x1="1502.6" y1="1153.1" x2="1777.6" y2="1153.1"/>
			<g>
				<polygon class="st3" points="1780.4,1153.1 1776.5,1154.7 1777.4,1153.1 1776.5,1151.6 				"/>
			</g>
		</g>
	</g>
	<g id="XMLID_12_">
		<g>
			<line class="st2" x1="1217.6" y1="1153.1" x2="1259.6" y2="1153.1"/>
			<g>
				<polygon class="st3" points="1262.4,1153.1 1258.5,1154.7 1259.4,1153.1 1258.5,1151.6 				"/>
			</g>
		</g>
	</g>
	<g id="XMLID_4_">
		<g>
			<line class="st2" x1="943.8" y1="1153.1" x2="985.8" y2="1153.1"/>
			<g>
				<polygon class="st3" points="988.5,1153.1 984.6,1154.7 985.5,1153.1 984.6,1151.6 				"/>
			</g>
		</g>
	</g>
</g>
</svg>
