<?xml version="1.0" encoding="UTF-8" standalone="no"?>
<svg width="419px" height="315px" viewBox="0 0 419 315" version="1.1" xmlns="http://www.w3.org/2000/svg" xmlns:xlink="http://www.w3.org/1999/xlink" xmlns:sketch="http://www.bohemiancoding.com/sketch/ns">
    <!-- Generator: Sketch 3.5.2 (25235) - http://www.bohemiancoding.com/sketch -->
    <title>hero-pip-install-blockstack</title>
    <desc>Created with Sketch.</desc>
    <defs>
        <filter x="-50%" y="-50%" width="200%" height="200%" filterUnits="objectBoundingBox" id="filter-1">
            <feOffset dx="0" dy="2" in="SourceAlpha" result="shadowOffsetOuter1"></feOffset>
            <feGaussianBlur stdDeviation="6" in="shadowOffsetOuter1" result="shadowBlurOuter1"></feGaussianBlur>
            <feColorMatrix values="0 0 0 0 0   0 0 0 0 0   0 0 0 0 0  0 0 0 0.175 0" in="shadowBlurOuter1" type="matrix" result="shadowMatrixOuter1"></feColorMatrix>
            <feMerge>
                <feMergeNode in="shadowMatrixOuter1"></feMergeNode>
                <feMergeNode in="SourceGraphic"></feMergeNode>
            </feMerge>
        </filter>
        <linearGradient x1="50%" y1="0%" x2="50%" y2="100%" id="linearGradient-2">
            <stop stop-color="#F6F2F4" offset="1.624756%"></stop>
            <stop stop-color="#E6E4E6" offset="2.187899%"></stop>
            <stop stop-color="#D3D1D3" offset="100%"></stop>
            <stop stop-color="#D3D1D3" offset="100%"></stop>
        </linearGradient>
    </defs>
    <g id="Page-1" stroke="none" stroke-width="1" fill="none" fill-rule="evenodd" sketch:type="MSPage">
        <g id="campaign" sketch:type="MSArtboardGroup" transform="translate(-551.000000, -168.000000)">
            <g id="blockstack-decentralized-dns-blockchain-apps" sketch:type="MSLayerGroup">
                <g id="hero-pip-install-blockstack" transform="translate(551.000000, 168.000000)" sketch:type="MSShapeGroup">
                    <path d="M414,206.9 L413.7,206.9 L413.5,206.9 L406.2,180.2 C406.7,180 407.2,179.6 407.7,179.2 C408.4,178.4 408.8,177.3 408.7,176.2 C408.6,174 406.8,172.3 404.6,172.3 L404.6,172.3 L404,168.1 L398,128.7 C399.8,128.2 401,126.4 400.9,124.5 C400.8,122.3 399,120.6 396.8,120.6 L396.5,120.6 C396.2,120.6 396,120.7 395.7,120.7 L390,107.1 L383.1,90.6 C384.4,89.8 385.2,88.4 385.1,86.8 C385,84.6 383.2,82.9 381,82.9 L380.7,82.9 C378.4,83 376.7,85 376.8,87.3 C376.9,88.6 377.5,89.6 378.5,90.3 L352.6,138 C352.4,137.9 352.1,137.8 351.9,137.8 L352.9,102.6 L353.3,89.5 C354.3,89.4 355.2,88.9 355.8,88.2 C356.5,87.4 356.9,86.3 356.8,85.2 C356.7,83 354.9,81.3 352.7,81.3 L352.7,81.3 L346.3,45.5 C348,44.9 349.2,43.2 349.1,41.3 C349,39.1 347.2,37.4 345,37.4 L344.7,37.4 C343.4,37.5 342.4,38.1 341.7,39.1 L280,5.6 C280.2,5.1 280.3,4.5 280.3,3.9 C280.2,1.7 278.4,0 276.2,0 L275.9,0 C273.7,0.1 271.9,2.1 272,4.3 L239.3,10.6 L206.3,16.9 C205.7,15.3 204.2,14.1 202.4,14.1 L202.1,14.1 C199.8,14.2 198.1,16.2 198.2,18.5 C198.2,19.2 198.5,19.8 198.8,20.4 L185.3,31.5 L170.7,43.5 C170,42.8 169,42.4 167.9,42.4 L167.6,42.4 C166.2,42.5 165,43.3 164.3,44.4 L126.4,28.7 C126.5,28.3 126.6,27.9 126.5,27.4 C126.4,25.2 124.6,23.5 122.4,23.5 L122.1,23.5 C119.8,23.6 118.1,25.6 118.2,27.9 L118.2,28.1 L63.8,41.7 C63.2,40.2 61.7,39.1 60,39.1 L59.7,39.1 C57.4,39.2 55.7,41.2 55.8,43.5 C55.9,44.7 56.4,45.7 57.3,46.4 L34.9,82 C34.3,81.7 33.7,81.5 33,81.5 L32.7,81.5 C31.6,81.6 30.6,82.1 29.9,82.9 C29.2,83.7 28.8,84.8 28.9,85.9 C29,88 30.8,89.7 32.9,89.8 L33.2,98.6 L34.1,124 C32.1,124.4 30.6,126.2 30.7,128.3 C30.7,128.8 30.9,129.2 31,129.7 L9.7,142.7 C9.1,141.6 8,141 6.7,141 L6.4,141 C4.1,141.1 2.4,143.1 2.5,145.4 C2.6,147.3 4.1,148.9 5.9,149.2 L4.6,192.8 C2.4,193 0.8,194.9 0.9,197.1 C1,199.3 2.8,201 5,201 L5.3,201 C6.1,201 6.8,200.7 7.4,200.3 L42.6,238.2 C42,239 41.6,240 41.7,241 C41.8,243 43.3,244.5 45.2,244.8 L45.2,268 C44.2,268.1 43.3,268.6 42.7,269.3 C42,270.1 41.6,271.2 41.7,272.3 C41.8,274.5 43.6,276.2 45.8,276.2 L46.1,276.2 C47,276.1 47.8,275.8 48.4,275.3 L73.8,299.5 C73.3,300.2 73,301.2 73,302.1 C73.1,304.3 74.9,306 77.1,306 L77.4,306 C78.5,305.9 79.5,305.4 80.2,304.6 C80.9,303.8 81.3,302.7 81.2,301.6 C81.2,301.3 81.1,301 81.1,300.8 L120.6,283.7 C121.3,284.9 122.6,285.7 124.1,285.7 L124.4,285.7 C125.5,285.6 126.5,285.1 127.2,284.3 L127.3,284.2 L132.1,287.1 L143.9,294.2 C143.7,294.8 143.5,295.4 143.6,296 C143.7,298.2 145.5,299.9 147.7,299.9 L148,299.9 C149.1,299.8 150.1,299.3 150.8,298.5 C151.5,297.7 151.9,296.6 151.8,295.5 C151.8,295.1 151.7,294.7 151.5,294.3 L181.9,277.8 C182.7,278.8 183.9,279.5 185.2,279.5 L185.5,279.5 C186.6,279.4 187.6,278.9 188.3,278.2 L231.7,308.1 C231.4,308.7 231.2,309.4 231.3,310.2 C231.4,312.4 233.2,314.1 235.4,314.1 L235.7,314.1 C236.8,314 237.8,313.5 238.5,312.7 C239.1,312 239.4,311.2 239.5,310.3 L297.2,306.2 C297.6,308.1 299.3,309.4 301.2,309.4 L301.5,309.4 C302.6,309.3 303.6,308.8 304.3,308 C304.8,307.4 305.1,306.8 305.2,306 L331.8,307.2 L331.8,307.4 C331.9,309.6 333.7,311.3 335.9,311.3 L336.2,311.3 C337.3,311.2 338.3,310.7 339,309.9 C339.7,309.1 340.1,308 340,306.9 C339.9,305.7 339.3,304.7 338.5,304 L377.5,252.5 C378.1,252.8 378.8,253 379.5,253 L379.8,253 C380.9,252.9 381.9,252.4 382.6,251.6 C383.3,250.8 383.7,249.7 383.6,248.6 C383.5,247.7 383.2,246.9 382.7,246.3 L411.2,215.2 L411.6,214.8 C412.3,215.3 413.1,215.6 414,215.6 L414.3,215.6 C416.6,215.5 418.3,213.5 418.2,211.2 C418,208.6 416.2,206.9 414,206.9 L414,206.9 Z M412.4,207.2 C410.8,207.9 409.8,209.4 409.9,211.2 L409.9,211.4 L393.7,216.2 L375.4,221.6 C375.2,221.1 374.9,220.7 374.5,220.3 L393.8,192.7 L402.7,179.9 C403.3,180.2 403.9,180.4 404.5,180.4 L404.8,180.4 L405,180.4 L412.4,207.2 L412.4,207.2 Z M379.5,244.4 L379.2,244.4 C379.1,244.4 378.9,244.4 378.8,244.5 L373.4,227.2 C373.9,227 374.3,226.6 374.7,226.2 C375.4,225.4 375.8,224.3 375.7,223.2 C375.7,223.1 375.7,223 375.6,222.9 L392.7,217.8 L410.1,212.7 C410.2,213 410.4,213.3 410.6,213.6 L381.7,245.1 C381.2,244.7 380.4,244.4 379.5,244.4 L379.5,244.4 Z M375.7,247.1 L338.2,239.4 L338.2,238.9 C338.2,238.6 338.1,238.4 338.1,238.1 L368.2,225.6 C368.9,226.8 370.2,227.6 371.7,227.6 L372,227.6 C372.1,227.6 372.3,227.6 372.4,227.5 L377.8,244.8 C376.8,245.3 376,246.1 375.7,247.1 L375.7,247.1 Z M334.3,303 L307,257.9 C307.2,257.8 307.3,257.6 307.5,257.5 C308.2,256.7 308.6,255.6 308.5,254.5 C308.5,254.1 308.4,253.7 308.3,253.4 L330.9,241.5 C331.6,242.4 332.6,243 333.7,243.2 L335.1,302.8 C334.7,302.8 334.5,302.9 334.3,303 L334.3,303 Z M300.9,300.8 C299.6,300.9 298.4,301.6 297.8,302.7 L273.1,291.5 L253.5,282.6 C253.6,282.1 253.7,281.7 253.7,281.2 C253.7,280.9 253.6,280.5 253.5,280.2 L297.8,258.7 L301,257.1 C301.6,258 302.5,258.6 303.6,258.8 L300.9,300.8 L300.9,300.8 Z M232.4,306.8 L189,277 C189.1,276.7 189.2,276.5 189.3,276.2 L245.4,281.7 C245.4,281.7 245.4,281.7 245.4,281.8 C245.5,283.1 246.2,284.2 247.2,284.9 L236.7,305.8 C236.3,305.7 235.9,305.6 235.4,305.6 L235.1,305.6 C234,305.6 233.1,306.1 232.4,306.8 L232.4,306.8 Z M183.8,271.3 L162.5,232.8 C163,232.4 163.4,232 163.7,231.4 L209.6,245.3 L223.4,249.5 C223.4,249.8 223.3,250.1 223.4,250.4 C223.4,250.9 223.5,251.3 223.7,251.7 L188.4,272.6 C187.6,271.7 186.5,271.1 185.2,271.1 L184.9,271.1 C184.6,271 184.2,271.2 183.8,271.3 L183.8,271.3 Z M124.8,277.3 L124.8,235.3 C125.8,235.2 126.6,234.7 127.3,234 C127.9,233.3 128.2,232.5 128.3,231.7 L140.4,231.2 L156.3,230.5 C156.5,231.3 157,232 157.6,232.5 L126,277.7 C125.6,277.5 125.2,277.4 124.8,277.3 L124.8,277.3 Z M121.1,278.7 C120.8,279.1 120.5,279.5 120.3,280 L101.3,275.8 L99.9,275.5 L99.9,275 C99.8,273.9 99.3,272.9 98.6,272.2 L100.2,269.6 L122.4,235.1 C122.8,235.3 123.1,235.4 123.5,235.4 L123.5,277.4 C122.6,277.5 121.7,277.9 121.1,278.7 L121.1,278.7 Z M50,271.7 C49.8,269.8 48.4,268.2 46.5,268 L46.5,244.8 C47.4,244.7 48.3,244.2 48.9,243.5 L92.2,273.3 C92,273.6 91.9,274 91.8,274.3 L50,271.7 L50,271.7 Z M9,195.6 C8.5,194.1 7.3,193 5.8,192.8 L7.1,149.2 C8,149.1 8.9,148.7 9.5,148 L59.4,185.4 C59.1,186 58.9,186.7 58.9,187.4 L9,195.6 L9,195.6 Z M35.3,123.8 L34.4,99.7 L34,89.6 C34.4,89.5 34.8,89.3 35.1,89.1 L58.6,120.5 C57.9,121.3 57.6,122.3 57.6,123.3 L49,124.8 L38.7,126.6 C38.3,125.1 36.9,124 35.3,123.8 L35.3,123.8 Z M37.1,85.1 L60.7,78.4 L84.4,71.6 C84.7,72.3 85.2,72.9 85.8,73.3 L62.8,119.2 C62.5,119.1 62.1,119.1 61.8,119.1 L61.5,119.1 C60.8,119.1 60.1,119.4 59.6,119.7 L36.1,88.3 C36.8,87.5 37.2,86.4 37.1,85.3 L37.1,85.1 L37.1,85.1 Z M120.5,31.2 C121.1,31.6 121.8,31.8 122.6,31.8 L122.9,31.8 C123.1,31.8 123.3,31.7 123.4,31.7 L147.3,99.2 C146.7,99.5 146.3,99.9 145.9,100.4 L92,71.3 C92.2,70.8 92.3,70.2 92.2,69.6 C92.1,68.6 91.7,67.8 91.1,67.1 L120.5,31.2 L120.5,31.2 Z M171.4,48.8 L204.9,65.5 C204.7,66 204.7,66.5 204.7,67.1 C204.7,67.5 204.8,67.8 204.9,68.1 L177.7,81.7 C177,80.6 175.7,79.9 174.3,79.9 L174.2,79.9 L169.3,50.3 C170.2,50.1 170.9,49.5 171.4,48.8 L171.4,48.8 Z M205,21.5 L249.4,65.9 C249,66.4 248.8,67 248.6,67.6 L212.9,66.3 C212.7,64.2 211,62.7 208.9,62.6 L208.3,58.1 L203.7,22.2 C204.1,22.1 204.6,21.8 205,21.5 L205,21.5 Z M276.1,8.2 L285.9,76.9 C284.8,77.2 284,78 283.4,78.9 L256.6,69.1 C256.7,68.7 256.7,68.4 256.7,68 C256.6,66.5 255.7,65.3 254.5,64.6 L255.2,62.7 L275.2,8.1 C275.6,8.2 275.8,8.2 276.1,8.2 L276.1,8.2 Z M345.1,45.8 L345.2,45.8 L351.6,81.6 C350.9,81.8 350.2,82.2 349.7,82.8 C349.2,83.3 348.9,84 348.8,84.6 L291.2,80.5 C291.2,80 291,79.5 290.8,79 L295.2,76 L342,44.5 C342.8,45.3 343.9,45.8 345.1,45.8 L345.1,45.8 Z M396.8,128.9 L396.8,128.9 L403.4,172.5 C402.6,172.7 402,173.2 401.5,173.7 L355.1,143.7 C355.4,143.1 355.5,142.4 355.5,141.7 C355.5,141.5 355.4,141.3 355.4,141.1 L371.3,135.1 L393.2,126.8 C393.9,128 395.2,128.9 396.8,128.9 L396.8,128.9 Z M371.8,225.8 L371.7,225.8 C370.5,225.8 369.5,224.9 369.4,223.6 C369.3,222.3 370.3,221.2 371.6,221.1 L371.7,221.1 C372.9,221.1 373.9,222 374,223.3 C374.1,224.6 373.1,225.7 371.8,225.8 L371.8,225.8 Z M335.7,235.3 L346.2,194.3 L347.7,188.4 L348.1,188.4 L348.4,188.4 C348.9,188.4 349.3,188.2 349.7,188.1 L369,220.3 C368,221.1 367.4,222.4 367.5,223.7 C367.5,224 367.6,224.2 367.6,224.5 L337.6,237 C337.2,236.2 336.5,235.6 335.7,235.3 L335.7,235.3 Z M330.2,240.5 L307.6,252.4 C306.9,251.5 305.9,250.9 304.7,250.7 L303.4,216.5 C304.1,216.4 304.8,216 305.4,215.5 L330.5,236.9 C330.1,237.6 329.8,238.4 329.9,239.3 C330,239.8 330.1,240.1 330.2,240.5 L330.2,240.5 Z M300.2,255 C300.2,255.3 300.3,255.7 300.4,256 L297.7,257.3 L252.8,279.1 C252.5,278.7 252.2,278.4 251.9,278.1 L273,240.2 L279.3,228.8 C279.8,229 280.2,229.1 280.8,229.1 L281.1,229.1 C281.7,229.1 282.4,228.9 282.9,228.5 L301.4,251.9 C300.6,252.7 300.1,253.8 300.2,255 L300.2,255 Z M247.2,281.5 C247.1,280.2 248.1,279.1 249.4,279 L249.5,279 C250.7,279 251.7,279.9 251.8,281.2 C251.9,282.5 250.9,283.6 249.6,283.7 L249.5,283.7 C248.3,283.7 247.3,282.8 247.2,281.5 L247.2,281.5 Z M189.1,273.6 L224.4,252.7 C225.2,253.6 226.3,254.2 227.6,254.2 L227.9,254.2 C228.5,254.2 229,254 229.5,253.8 L235.5,262.4 L246.7,278.4 C246.1,278.9 245.7,279.6 245.5,280.4 L189.4,274.9 C189.4,274.9 189.4,274.9 189.4,274.8 C189.4,274.4 189.2,274 189.1,273.6 L189.1,273.6 Z M160.3,225.3 L156.7,196.1 C157.5,195.9 158.2,195.5 158.7,194.9 C159.1,194.4 159.4,193.9 159.5,193.4 L176.2,195.9 L223.6,203.1 L223.6,203.4 C223.6,203.6 223.7,203.9 223.7,204.1 L164.1,227.7 C163.3,226.2 161.9,225.3 160.3,225.3 L160.3,225.3 Z M157.1,226.7 C156.5,227.4 156.1,228.4 156.1,229.3 L141,230 L128.3,230.6 C128.2,229.8 127.8,229.1 127.3,228.6 L140.8,211.8 L153.6,195.8 C154.2,196.2 154.9,196.4 155.6,196.4 L159.3,225.6 C158.3,225.6 157.7,226.1 157.1,226.7 L157.1,226.7 Z M124.3,233.6 L124.2,233.6 C123,233.6 122,232.7 121.9,231.4 C121.8,230.1 122.8,229 124.1,228.9 L124.2,228.9 C125.4,228.9 126.4,229.8 126.5,231.1 C126.6,232.4 125.6,233.5 124.3,233.6 L124.3,233.6 Z M96.5,271.1 L95.6,229.8 L95.2,210.3 C96,210.2 96.7,209.8 97.2,209.3 L120.7,229.1 C120.3,229.8 120,230.6 120.1,231.5 C120.2,232.6 120.7,233.6 121.5,234.3 L99.2,269 L97.6,271.5 C97.3,271.3 96.9,271.1 96.5,271.1 L96.5,271.1 Z M63.6,183.3 L62.9,155.6 L62.2,127.2 C62.8,127.1 63.3,127 63.8,126.7 L85.2,152.2 L99.2,168.9 C98.5,169.7 98.1,170.8 98.2,171.9 C98.2,172.1 98.3,172.4 98.3,172.6 L66.7,185.2 C66,184.3 64.9,183.5 63.6,183.3 L63.6,183.3 Z M59.5,123.3 C59.4,122 60.4,120.9 61.7,120.8 L61.8,120.8 C63,120.8 64,121.7 64.1,123 C64.2,124.3 63.2,125.4 61.9,125.5 L61.8,125.5 C60.6,125.5 59.6,124.6 59.5,123.3 L59.5,123.3 Z M88.1,74 L88.4,74 C88.9,74 89.3,73.9 89.7,73.7 L114.1,114.7 L115.3,116.8 C114.4,117.5 113.9,118.5 113.8,119.6 L106,120 L65.8,122.2 C65.6,121 64.9,120.1 63.9,119.5 L86.8,73.7 C87.3,74 87.7,74 88.1,74 L88.1,74 Z M91.2,72.6 C91.3,72.5 91.3,72.4 91.4,72.3 L117.3,86.2 L145.3,101.3 C145.1,101.8 145,102.4 145.1,103 C145.1,103.4 145.2,103.8 145.4,104.2 L122,117.2 L121.2,117.6 C120.4,116.6 119.2,116 117.9,116 L117.6,116 C117.1,116 116.7,116.2 116.3,116.3 L90.7,73.1 C90.9,73 91.1,72.8 91.2,72.6 L91.2,72.6 Z M174.2,81.7 L174.3,81.7 C175.5,81.7 176.5,82.6 176.6,83.9 C176.7,85.2 175.7,86.3 174.4,86.4 L174.3,86.4 C173.1,86.4 172.1,85.5 172,84.2 C171.9,82.9 172.9,81.8 174.2,81.7 L174.2,81.7 Z M212.8,67.5 L248.5,68.8 C248.6,69.9 249.2,70.9 250,71.6 L236.8,94.3 C236.3,94.1 235.8,94 235.3,94 L235,94 C234.3,94 233.6,94.3 233.1,94.6 L211.7,69.5 C212.4,69 212.7,68.3 212.8,67.5 L212.8,67.5 Z M256.3,70.3 L256.6,70.4 L283.1,80 C283,80.4 283,80.7 283,81.1 C283,81.3 283,81.4 283.1,81.6 L239.1,96.3 C238.8,95.8 238.4,95.3 238,94.9 L251.2,72.2 C251.7,72.4 252.2,72.5 252.7,72.5 L253,72.5 C254.4,72.4 255.6,71.5 256.3,70.3 L256.3,70.3 Z M287.4,85 C287.6,85 287.8,84.9 287.9,84.9 L304,130.5 C303.4,130.8 302.9,131.2 302.6,131.8 L239.4,99.5 C239.6,99 239.7,98.5 239.6,97.9 C239.6,97.7 239.6,97.6 239.5,97.4 L283.5,82.7 C284.2,84.1 285.6,85 287.2,85 C287.2,85 287.3,85 287.4,85 L287.4,85 Z M351.5,144.3 L351.4,144.3 C350.2,144.3 349.2,143.4 349.1,142.1 C349,140.8 350,139.7 351.3,139.6 L351.4,139.6 C352.6,139.6 353.6,140.5 353.7,141.8 C353.7,143.1 352.8,144.2 351.5,144.3 L351.5,144.3 Z M350.4,146 L349,165.5 L347.9,180.1 C347.2,180.1 346.6,180.4 346,180.7 L309,136.8 L309,136.8 C309.4,136.4 309.7,135.9 309.8,135.3 L347.2,141.7 L347.2,142.1 C347.3,144.1 348.7,145.6 350.4,146 L350.4,146 Z M350.5,184.1 C350.6,185.4 349.6,186.5 348.3,186.6 L348.2,186.6 C347,186.6 346,185.7 345.9,184.4 C345.8,183.1 346.8,182 348.1,181.9 L348.2,181.9 C349.4,182 350.4,182.9 350.5,184.1 L350.5,184.1 Z M302.9,214.8 L302.8,214.8 C301.6,214.8 300.6,213.9 300.5,212.6 C300.4,211.3 301.4,210.2 302.7,210.1 L302.8,210.1 C304,210.1 305,211 305.1,212.3 C305.2,213.6 304.2,214.7 302.9,214.8 L302.9,214.8 Z M249.5,277.3 L249.2,277.3 C248.6,277.3 248.1,277.5 247.6,277.7 L236.5,261.8 L230.3,253 L230.6,252.7 C231.3,251.9 231.7,250.8 231.6,249.7 C231.6,249.4 231.5,249.1 231.4,248.8 L277.3,227.2 C277.6,227.6 277.9,227.9 278.2,228.2 L271.4,240.5 L250.9,277.5 C250.5,277.4 250,277.3 249.5,277.3 L249.5,277.3 Z M155.7,194.4 L155.6,194.4 C154.4,194.4 153.4,193.5 153.3,192.2 C153.2,190.9 154.2,189.8 155.5,189.7 L155.6,189.7 C156.8,189.7 157.8,190.6 157.9,191.9 C157.9,193.2 156.9,194.3 155.7,194.4 L155.7,194.4 Z M126.3,227.7 C125.7,227.3 125,227.1 124.2,227.1 L123.9,227.1 C122.9,227.2 122.1,227.6 121.4,228.1 L97.9,208.3 C98.4,207.6 98.6,206.7 98.5,205.9 L98.5,205.8 L127,199.2 L151.7,193.5 C151.9,194 152.2,194.4 152.5,194.8 L126.3,227.7 L126.3,227.7 Z M64.9,125.9 C65.5,125.2 65.8,124.4 65.9,123.5 L107.2,121.2 L113.8,120.8 C114.1,122.1 114.9,123.2 116.1,123.7 L102.8,167.6 C102.6,167.6 102.4,167.5 102.2,167.5 L101.9,167.5 C101.2,167.5 100.6,167.8 100,168.1 L85.7,151.1 L64.6,126 C64.8,126 64.9,126 64.9,125.9 L64.9,125.9 Z M144.4,153.8 L144.5,153.8 C145.7,153.8 146.7,154.7 146.8,156 C146.9,157.3 145.9,158.4 144.6,158.5 L144.5,158.5 C143.3,158.5 142.3,157.6 142.2,156.3 C142.1,154.9 143.1,153.8 144.4,153.8 L144.4,153.8 Z M184.9,120.8 L185,120.8 C186.2,120.8 187.2,121.7 187.3,123 C187.4,124.3 186.4,125.4 185.1,125.5 L185,125.5 C183.8,125.5 182.8,124.6 182.7,123.3 C182.6,122 183.6,120.9 184.9,120.8 L184.9,120.8 Z M308.1,137.6 L345.1,181.5 C344.7,181.9 344.4,182.5 344.2,183.1 L287.3,174.8 L277,173.3 L277,173 C276.9,172 276.5,171.2 275.9,170.5 L293.3,149.7 L303.5,137.5 C304.1,137.9 304.9,138.1 305.7,138.1 L306,138.1 C306.9,138.2 307.5,138 308.1,137.6 L308.1,137.6 Z M228.2,246 L228.2,207.1 C229.2,207 230,206.5 230.7,205.8 C230.9,205.6 231,205.4 231.2,205.2 L273.3,222.5 L277,224 C276.9,224.4 276.8,224.8 276.9,225.3 C276.9,225.6 277,225.9 277.1,226.2 L231,247.8 C230.4,246.8 229.3,246.2 228.2,246 L228.2,246 Z M225.9,199.3 L217.8,186.5 L211.4,176.4 C212.1,175.8 212.7,174.9 212.8,173.9 L268.9,173.9 C269,174.3 269.1,174.7 269.2,175.1 L230.6,200.4 C229.8,199.5 228.7,199 227.5,199 L227.2,199 C226.8,199 226.3,199.1 225.9,199.3 L225.9,199.3 Z M155.5,188 L155.2,188 C155.1,188 155,188 154.8,188.1 L148.2,166.5 L146.2,159.8 C146.7,159.6 147.2,159.2 147.5,158.8 C147.8,158.5 148,158.1 148.2,157.7 L169.8,163.5 L204.6,172.8 L204.6,173.4 C204.6,173.6 204.7,173.8 204.7,174 L198,176.3 L159,190 C158.5,188.9 157.1,188 155.5,188 L155.5,188 Z M151.9,190.1 L150.2,189.5 L106.2,172.7 C106.3,172.3 106.3,171.9 106.3,171.5 C106.3,171.3 106.2,171.1 106.2,170.9 L140.9,158.1 C141.6,159.4 143,160.3 144.5,160.3 L144.8,160.3 C144.9,160.3 145,160.3 145.2,160.2 L153.8,188.4 C153,188.8 152.3,189.4 151.9,190.1 L151.9,190.1 Z M206.5,173.3 C206.4,172 207.4,170.9 208.7,170.8 L208.8,170.8 C210,170.8 211,171.7 211.1,173 C211.2,174.3 210.2,175.4 208.9,175.5 L208.8,175.5 C207.6,175.5 206.5,174.6 206.5,173.3 L206.5,173.3 Z M235.4,102.2 L235.7,102.2 C236.1,102.2 236.4,102.1 236.7,102 L257.4,143.4 L270.7,169.9 C269.8,170.5 269.1,171.5 269,172.7 L212.9,172.7 C212.7,171.3 211.9,170.2 210.8,169.6 L234.7,102.2 C234.9,102.2 235.1,102.2 235.4,102.2 L235.4,102.2 Z M275.3,173.2 C275.4,174.5 274.4,175.6 273.1,175.7 L273,175.7 C271.8,175.7 270.8,174.8 270.7,173.5 C270.6,172.2 271.6,171.1 272.9,171 L273,171 C274.2,171 275.2,171.9 275.3,173.2 L275.3,173.2 Z M277.3,222.9 L273.2,221.2 L231.5,204 C231.6,203.6 231.7,203.2 231.6,202.7 C231.6,202.2 231.4,201.7 231.2,201.2 L269.8,175.9 C270.6,176.8 271.7,177.3 272.9,177.3 L272.9,177.3 L274.1,185.4 L279.5,220.9 C278.6,221.4 277.8,222 277.3,222.9 L277.3,222.9 Z M302.8,136.9 L292.5,149.2 L275.1,169.9 C274.5,169.5 273.7,169.3 272.9,169.3 L272.6,169.3 C272.2,169.3 271.9,169.4 271.6,169.5 L237.6,101.6 C238,101.3 238.3,101 238.6,100.6 L301.8,132.9 C301.6,133.4 301.5,133.9 301.6,134.5 C301.8,135.4 302.2,136.2 302.8,136.9 L302.8,136.9 Z M237.7,98 C237.8,99.3 236.8,100.4 235.5,100.5 L235.4,100.5 C234.2,100.5 233.2,99.6 233.1,98.3 C233,97 234,95.9 235.3,95.8 L235.4,95.8 C236.6,95.8 237.6,96.7 237.7,98 L237.7,98 Z M233.5,101.8 L209.6,169.2 C209.3,169.1 209,169.1 208.8,169.1 L208.5,169.1 C208.2,169.1 207.8,169.2 207.5,169.3 L194.4,141.3 L187.5,126.5 C187.7,126.3 188,126.1 188.2,125.9 C188.9,125.1 189.3,124 189.2,122.9 C189.2,122.6 189.1,122.3 189,122 L232,100.5 C232.4,101 232.9,101.4 233.5,101.8 L233.5,101.8 Z M182.4,126.3 C183.1,126.9 184,127.3 185,127.3 L185.3,127.3 C185.7,127.3 186.1,127.2 186.4,127.1 L193.6,142.5 L206.5,169.9 C205.8,170.4 205.3,171 205,171.8 L170.6,162.6 L148.7,156.7 L148.7,156 C148.7,155.3 148.4,154.7 148.1,154.2 L182.4,126.3 L182.4,126.3 Z M140.4,156.3 C140.4,156.5 140.5,156.7 140.5,156.9 L105.8,169.7 C105.4,168.9 104.7,168.3 103.9,167.9 L117.2,124 C117.4,124 117.6,124.1 117.8,124.1 L118.1,124.1 C118.7,124.1 119.3,123.9 119.8,123.6 L141.6,153.1 C140.8,154 140.4,155.1 140.4,156.3 L140.4,156.3 Z M120.2,119.9 C120.3,121.2 119.3,122.3 118,122.4 L117.9,122.4 C116.7,122.4 115.7,121.5 115.6,120.2 C115.5,118.9 116.5,117.8 117.8,117.7 L117.9,117.7 C119.1,117.7 120.2,118.7 120.2,119.9 L120.2,119.9 Z M99.9,171.9 C99.8,170.6 100.8,169.5 102.1,169.4 L102.2,169.4 C103.4,169.4 104.4,170.3 104.5,171.6 C104.6,172.9 103.6,174 102.3,174.1 L102.2,174.1 C101,174.1 100,173.1 99.9,171.9 L99.9,171.9 Z M102.2,175.9 L102.5,175.9 C103.6,175.8 104.6,175.3 105.3,174.5 C105.5,174.3 105.7,174 105.8,173.8 L148.8,190.2 L151.5,191.2 C151.4,191.6 151.4,192 151.4,192.4 L151.4,192.5 L98.2,204.8 C97.8,203.7 96.9,202.9 95.8,202.4 L101.8,175.9 C102,175.8 102.1,175.9 102.2,175.9 L102.2,175.9 Z M159.5,191.3 L200,177 L205.2,175.2 C205.9,176.5 207.2,177.3 208.8,177.3 L209.1,177.3 C209.6,177.3 210,177.1 210.5,177 L216.6,186.6 L225,200 C224.4,200.5 224,201.2 223.7,201.9 L177.9,194.9 L159.7,192.1 L159.7,191.8 C159.6,191.7 159.6,191.5 159.5,191.3 L159.5,191.3 Z M225.3,203.2 C225.2,201.9 226.2,200.8 227.5,200.7 L227.6,200.7 C228.8,200.7 229.8,201.6 229.9,202.9 C230,204.2 229,205.3 227.7,205.4 L227.6,205.4 C226.4,205.4 225.3,204.5 225.3,203.2 L225.3,203.2 Z M227.4,247.8 L227.5,247.8 C228.7,247.8 229.7,248.7 229.8,250 C229.9,251.3 228.9,252.4 227.6,252.5 L227.5,252.5 C226.3,252.5 225.3,251.6 225.2,250.3 C225.2,248.9 226.2,247.8 227.4,247.8 L227.4,247.8 Z M278.5,225.2 C278.4,223.9 279.4,222.8 280.7,222.7 L280.8,222.7 C282,222.7 283,223.6 283.1,224.9 C283.2,226.2 282.2,227.3 280.9,227.4 L280.8,227.4 C279.6,227.3 278.6,226.4 278.5,225.2 L278.5,225.2 Z M280.8,220.9 L280.8,220.9 L275.6,187 L274.1,177.2 C274.4,177.1 274.6,177 274.9,176.9 L299.7,209.6 C298.9,210.4 298.4,211.5 298.5,212.7 C298.5,213.1 298.6,213.6 298.8,213.9 L283.9,222.4 C283.3,221.5 282.2,220.9 280.8,220.9 L280.8,220.9 Z M302.8,208.4 L302.5,208.4 C301.9,208.4 301.3,208.6 300.8,208.9 L276,176.2 C276.1,176.1 276.1,176.1 276.2,176 C276.6,175.5 276.9,175 277.1,174.4 L292.7,176.7 L344.2,184.2 L344.2,184.5 C344.2,185 344.4,185.5 344.5,185.9 L331.8,193.8 L306,209.8 C305.2,208.9 304,208.4 302.8,208.4 L302.8,208.4 Z M308.2,134 C308.3,135.3 307.3,136.4 306,136.5 L305.9,136.5 C304.7,136.5 303.7,135.6 303.6,134.3 C303.5,133 304.5,131.9 305.8,131.8 L305.9,131.8 C307.1,131.8 308.1,132.8 308.2,134 L308.2,134 Z M211,70.3 L232.4,95.4 C231.7,96.2 231.3,97.2 231.4,98.4 C231.4,98.8 231.5,99.1 231.6,99.4 L188.6,120.9 C188.3,120.4 187.9,120 187.4,119.7 L206.1,74.7 L207.7,70.7 C208,70.8 208.4,70.8 208.7,70.8 L209,70.8 C209.7,70.9 210.4,70.6 211,70.3 L211,70.3 Z M206.7,70.3 L204.4,75.8 L186.3,119.2 C185.9,119.1 185.5,119 185.1,119 L184.8,119 C184.8,119 184.8,119 184.7,119 L176,87.8 C177.5,87.1 178.6,85.6 178.5,83.8 C178.5,83.4 178.4,83.1 178.3,82.8 L205.5,69.2 C205.7,69.6 206.2,70 206.7,70.3 L206.7,70.3 Z M174.3,88.1 L174.6,88.1 L174.9,88.1 L183.6,119.3 C183,119.5 182.4,119.9 182,120.4 C182,120.5 181.9,120.5 181.9,120.6 L153.1,104.3 C153.3,103.8 153.4,103.2 153.4,102.6 C153.4,102 153.2,101.4 152.9,100.9 L162,94 L171.5,86.9 C172.2,87.7 173.2,88.1 174.3,88.1 L174.3,88.1 Z M152.5,105.3 L181.2,121.5 C181,122.1 180.9,122.7 180.9,123.3 C180.9,124 181.2,124.7 181.6,125.3 L147.3,153 C146.8,152.5 146.1,152.2 145.4,152 L147.8,124.5 L149.4,106.9 L149.4,106.9 C150.7,106.9 151.8,106.2 152.5,105.3 L152.5,105.3 Z M146.7,124.5 L144.3,152 L144.3,152 C143.7,152 143.1,152.2 142.6,152.5 L120.8,123 C121.6,122.2 122.1,121.1 122,119.8 C122,119.4 121.9,119 121.7,118.6 L145.9,105.3 C146.5,106.1 147.3,106.6 148.2,106.8 L146.7,124.5 L146.7,124.5 Z M67.1,186.4 L98.7,173.8 C99.2,174.6 99.9,175.2 100.8,175.6 L94.8,202.1 L94.5,202.1 L94.2,202.1 C93,202.2 92,202.8 91.3,203.6 L79.2,196.4 L66.9,189 C67.1,188.4 67.3,187.8 67.2,187.2 C67.2,186.9 67.1,186.7 67.1,186.4 L67.1,186.4 Z M92.1,206.4 C92,205.1 93,204 94.3,203.9 L94.4,203.9 C95.6,203.9 96.6,204.8 96.7,206.1 C96.8,207.4 95.8,208.5 94.5,208.6 L94.4,208.6 C93.2,208.5 92.2,207.6 92.1,206.4 L92.1,206.4 Z M164.3,228.7 L224,205.1 C224.6,206.2 225.7,206.9 227,207.1 L227,246 C225.6,246.2 224.4,247.1 223.9,248.3 L164.3,230.3 C164.4,229.9 164.4,229.5 164.4,229.1 C164.3,229 164.3,228.9 164.3,228.7 L164.3,228.7 Z M302.3,251.2 L283.8,227.8 L283.9,227.7 C284.6,226.9 285,225.8 284.9,224.7 C284.9,224.3 284.8,223.8 284.6,223.5 L299.5,215 C300.2,215.9 301.2,216.4 302.3,216.6 L303.6,250.8 C303.1,250.8 302.7,251 302.3,251.2 L302.3,251.2 Z M331.4,236 L306.3,214.6 C306.8,213.9 307,213 306.9,212.2 C306.9,211.7 306.7,211.2 306.6,210.8 L334.5,193.5 L345.1,186.9 C345.5,187.4 346,187.8 346.7,188.1 L346.3,189.6 L334.5,235 L334.1,235 L333.8,235 C332.9,235.1 332,235.4 331.4,236 L331.4,236 Z M371.7,219.3 L371.4,219.3 C370.9,219.3 370.5,219.5 370.1,219.6 L350.8,187.4 C351,187.3 351.1,187.1 351.3,186.9 C352,186.1 352.3,185.2 352.3,184.2 L375,181 L400.7,177.4 C400.9,178.1 401.3,178.8 401.8,179.3 L393.5,191.1 L373.6,219.6 C373,219.5 372.4,219.3 371.7,219.3 L371.7,219.3 Z M400.5,176.4 L374.7,180 L352.1,183.1 C351.7,181.7 350.5,180.5 349,180.2 L350,166.7 L351.5,146 C352.6,145.9 353.6,145.4 354.3,144.6 L354.3,144.6 L400.7,174.6 C400.6,175.3 400.5,175.8 400.5,176.4 L400.5,176.4 Z M350.9,137.9 C349.3,138.1 347.9,139.2 347.5,140.7 L310.1,134.2 L310.1,133.8 C310,132.9 309.7,132.2 309.2,131.5 L350.4,89 C350.9,89.4 351.5,89.6 352.2,89.7 L351.8,104 L350.9,137.9 L350.9,137.9 Z M308.3,130.8 C307.6,130.3 306.8,130 305.9,130 L305.6,130 C305.4,130 305.2,130.1 305.1,130.1 L289,84.5 C290.1,83.9 290.8,82.9 291.1,81.7 L348.7,85.8 C348.8,86.7 349.1,87.5 349.6,88.1 L308.3,130.8 L308.3,130.8 Z M289.4,80.7 C289.5,82 288.5,83.1 287.2,83.2 L287.1,83.2 C285.9,83.2 284.9,82.3 284.8,81 C284.7,79.7 285.7,78.6 287,78.5 L287.1,78.5 C288.3,78.6 289.3,79.5 289.4,80.7 L289.4,80.7 Z M255,68.2 C255.1,69.5 254.1,70.6 252.8,70.7 L252.7,70.7 C251.5,70.7 250.5,69.8 250.4,68.5 C250.3,67.2 251.3,66.1 252.6,66 L252.7,66 C253.9,66 254.9,67 255,68.2 L255,68.2 Z M208.6,64.5 L208.7,64.5 C209.9,64.5 210.9,65.4 211,66.7 C211.1,68 210.1,69.1 208.8,69.2 L208.7,69.2 C207.5,69.2 206.5,68.3 206.4,67 C206.4,65.7 207.4,64.5 208.6,64.5 L208.6,64.5 Z M168,50.5 L168,50.5 L173,80.1 C171.2,80.7 170,82.4 170.1,84.3 C170.1,84.9 170.3,85.5 170.6,86 L161.5,92.8 L152,99.9 C151.7,99.6 151.3,99.3 150.9,99.1 L167.1,50.4 C167.6,50.5 167.8,50.5 168,50.5 L168,50.5 Z M151.6,102.7 C151.7,104 150.7,105.1 149.4,105.2 L149.3,105.2 C148.1,105.2 147.1,104.3 147,103 C146.9,101.7 147.9,100.6 149.2,100.5 L149.3,100.5 C150.5,100.5 151.5,101.4 151.6,102.7 L151.6,102.7 Z M90.5,69.8 C90.6,71.1 89.6,72.2 88.3,72.3 L88.2,72.3 C87,72.3 86,71.4 85.9,70.1 C85.8,68.8 86.8,67.7 88.1,67.6 L88.2,67.6 C89.4,67.6 90.4,68.5 90.5,69.8 L90.5,69.8 Z M38,130.6 C38.7,129.8 39.1,128.8 39,127.7 L49.5,125.8 L57.9,124.3 C58.4,125.7 59.5,126.8 61,127.1 L61.7,154.8 L62.4,183.2 C62.2,183.2 62,183.3 61.9,183.3 L37.2,131.1 C37.5,131.1 37.7,130.9 38,130.6 L38,130.6 Z M60.8,187.6 C60.7,186.3 61.7,185.2 63,185.1 L63.1,185.1 C64.3,185.1 65.3,186 65.4,187.3 C65.5,188.6 64.5,189.7 63.2,189.8 L63.1,189.8 C61.9,189.7 60.8,188.8 60.8,187.6 L60.8,187.6 Z M63.1,191.5 L63.4,191.5 C64.5,191.4 65.5,190.9 66.2,190.1 L66.3,190 L78.4,197.2 L90.7,204.6 C90.5,205.2 90.3,205.8 90.4,206.4 C90.4,207 90.6,207.5 90.9,208 L49,237.8 C48.7,237.4 48.3,237.2 47.8,236.9 L62.5,191.4 C62.6,191.5 62.8,191.5 63.1,191.5 L63.1,191.5 Z M91.4,209 C92,209.7 92.9,210.1 93.9,210.2 L94.4,230.1 L95.3,271 C94.4,271.1 93.5,271.6 92.9,272.2 L49.5,242.4 C49.8,241.8 50,241.1 49.9,240.3 C49.9,239.7 49.7,239.2 49.4,238.7 L91.4,209 L91.4,209 Z M93.6,275.3 C93.5,274 94.5,272.9 95.8,272.8 L95.9,272.8 C97.1,272.8 98.1,273.7 98.2,275 C98.3,276.3 97.3,277.4 96,277.5 L95.9,277.5 C94.7,277.5 93.6,276.5 93.6,275.3 L93.6,275.3 Z M160.4,231.7 L160.3,231.7 C159.1,231.7 158.1,230.8 158,229.5 C157.9,228.2 158.9,227.1 160.2,227 L160.3,227 C161.5,227 162.5,227.9 162.6,229.2 C162.6,230.5 161.6,231.6 160.4,231.7 L160.4,231.7 Z M237.8,306.2 L248.3,285.3 C248.7,285.4 249.1,285.5 249.6,285.5 L249.9,285.5 C251,285.4 252,284.9 252.7,284.1 C252.8,283.9 253,283.8 253.1,283.6 L272,292.2 L297.4,303.7 C297.3,304 297.3,304.3 297.3,304.6 L239.6,308.7 C239.2,307.7 238.6,306.8 237.8,306.2 L237.8,306.2 Z M304.5,257.1 L304.4,257.1 C303.2,257.1 302.2,256.2 302.1,254.9 C302,253.6 303,252.5 304.3,252.4 L304.4,252.4 C305.6,252.4 306.6,253.3 306.7,254.6 C306.7,255.9 305.8,257 304.5,257.1 L304.5,257.1 Z M334.2,241.4 L334.1,241.4 C332.9,241.4 331.9,240.5 331.8,239.2 C331.7,237.9 332.7,236.8 334,236.7 L334.1,236.7 C335.3,236.7 336.3,237.6 336.4,238.9 C336.5,240.2 335.5,241.3 334.2,241.4 L334.2,241.4 Z M406.9,176.3 C407,177.6 406,178.7 404.7,178.8 L404.6,178.8 C403.4,178.8 402.4,177.9 402.3,176.6 C402.2,175.3 403.2,174.2 404.5,174.1 L404.6,174.1 C405.8,174.1 406.8,175.1 406.9,176.3 L406.9,176.3 Z M396.6,122.4 L396.7,122.4 C397.9,122.4 398.9,123.3 399,124.6 C399.1,125.9 398.1,127 396.8,127.1 L396.7,127.1 C395.5,127.1 394.5,126.2 394.4,124.9 C394.4,123.6 395.3,122.5 396.6,122.4 L396.6,122.4 Z M381,84.8 L381.1,84.8 C382.3,84.8 383.3,85.7 383.4,87 C383.5,88.3 382.5,89.4 381.2,89.5 L381.1,89.5 C379.9,89.5 378.9,88.6 378.8,87.3 C378.7,86 379.7,84.9 381,84.8 L381,84.8 Z M379.7,91 C380.1,91.2 380.6,91.3 381.1,91.3 L381.4,91.3 C381.7,91.3 381.9,91.2 382.2,91.2 L394.7,121.3 C394.3,121.5 394,121.8 393.7,122.1 C393,122.9 392.6,124 392.7,125.1 C392.7,125.3 392.8,125.5 392.8,125.7 L370.4,134.2 L355,140 C354.7,139.5 354.3,139 353.9,138.7 L379.7,91 L379.7,91 Z M355.1,85.4 C355.2,86.7 354.2,87.8 352.9,87.9 L352.8,87.9 C351.6,87.9 350.6,87 350.5,85.7 C350.4,84.4 351.4,83.3 352.7,83.2 L352.8,83.2 C354,83.3 355,84.2 355.1,85.4 L355.1,85.4 Z M344.9,39.4 L345,39.4 C346.2,39.4 347.2,40.3 347.3,41.6 C347.4,42.9 346.4,44 345.1,44.1 L345,44.1 C343.8,44.1 342.8,43.2 342.7,41.9 C342.7,40.6 343.6,39.5 344.9,39.4 L344.9,39.4 Z M341.2,40.3 C341,40.8 340.9,41.4 340.9,42 C340.9,42.6 341.1,43.1 341.3,43.5 L293.5,75.8 L290.1,78.1 C289.3,77.3 288.3,76.7 287.1,76.7 L277.3,8 C278.2,7.7 278.9,7.2 279.4,6.5 L341.2,40.3 L341.2,40.3 Z M276,1.8 L276.1,1.8 C277.3,1.8 278.3,2.7 278.4,4 C278.5,5.3 277.5,6.4 276.2,6.5 L276.1,6.5 C274.9,6.5 273.9,5.6 273.8,4.3 C273.7,3 274.7,1.9 276,1.8 L276,1.8 Z M272.3,5.5 C272.6,6.5 273.3,7.3 274.2,7.8 L254.8,60.7 L253.5,64.4 C253.2,64.3 252.9,64.3 252.7,64.3 L252.4,64.3 C251.6,64.4 250.8,64.7 250.2,65.1 L205.8,20.7 C206.4,20 206.7,19 206.6,18.1 L239.3,11.8 L272.3,5.5 L272.3,5.5 Z M202.4,15.9 L202.5,15.9 C203.7,15.9 204.7,16.8 204.8,18.1 C204.9,19.4 203.9,20.5 202.6,20.6 L202.5,20.6 C201.3,20.6 200.3,19.7 200.2,18.4 C200.1,17.1 201.1,16 202.4,15.9 L202.4,15.9 Z M186.3,32.3 L199.8,21.3 C200.5,22 201.5,22.4 202.5,22.4 L207.1,57.8 L207.8,62.9 C206.9,63.2 206.1,63.8 205.5,64.5 L172,47.7 C172.2,47.2 172.2,46.7 172.2,46.1 C172.2,45.4 171.9,44.8 171.6,44.2 L186.3,32.3 L186.3,32.3 Z M167.9,44.1 L168,44.1 C169.2,44.1 170.2,45 170.3,46.3 C170.4,47.6 169.4,48.7 168.1,48.8 L168,48.8 C166.8,48.8 165.8,47.9 165.7,46.6 C165.6,45.3 166.6,44.2 167.9,44.1 L167.9,44.1 Z M164.1,45.4 C164,45.8 163.9,46.2 164,46.7 C164.1,48.2 165,49.5 166.3,50.1 L166,50.9 L150,98.8 C149.8,98.8 149.5,98.7 149.3,98.7 L149,98.7 C148.8,98.7 148.6,98.8 148.5,98.8 L124.6,31.3 C125,31.1 125.4,30.8 125.8,30.4 C126,30.2 126.1,30 126.3,29.8 L164.1,45.4 L164.1,45.4 Z M122.5,25.3 L122.6,25.3 C123.8,25.3 124.8,26.2 124.9,27.5 C125,28.8 124,29.9 122.7,30 L122.6,30 C121.4,30 120.4,29.1 120.3,27.8 C120.2,26.5 121.2,25.4 122.5,25.3 L122.5,25.3 Z M118.8,29.2 C119,29.7 119.3,30.1 119.6,30.4 L90.3,66.4 C89.7,66 89,65.8 88.2,65.8 L87.9,65.8 C87,65.9 86.2,66.2 85.6,66.7 L83.4,64.6 L63.3,45.6 C63.8,44.8 64.1,43.9 64.1,43 L64.1,42.8 L118.8,29.2 L118.8,29.2 Z M59.8,41 L59.9,41 C61.1,41 62.1,41.9 62.2,43.2 C62.3,44.5 61.3,45.6 60,45.7 L59.9,45.7 C58.7,45.7 57.7,44.8 57.6,43.5 C57.6,42.2 58.5,41 59.8,41 L59.8,41 Z M60,47.4 L60.3,47.4 C61.2,47.3 61.9,47 62.6,46.5 L83.7,66.4 L84.9,67.5 C84.4,68.2 84.1,69.1 84.1,70.1 L84.1,70.4 L60.8,77 L36.8,83.9 C36.6,83.4 36.3,82.9 35.9,82.5 L58.3,47 C58.8,47.3 59.4,47.4 60,47.4 L60,47.4 Z M30.7,85.7 C30.6,84.4 31.6,83.3 32.9,83.2 L33,83.2 C34.2,83.2 35.2,84.1 35.3,85.4 C35.4,86.7 34.4,87.8 33.1,87.9 L33,87.9 C31.8,87.9 30.8,87 30.7,85.7 L30.7,85.7 Z M34.7,125.6 L34.8,125.6 C36,125.6 37,126.5 37.1,127.8 C37.2,129.1 36.2,130.2 34.9,130.3 L34.8,130.3 C33.6,130.3 32.6,129.4 32.5,128.1 C32.5,126.7 33.5,125.6 34.7,125.6 L34.7,125.6 Z M15.8,140.3 L31.8,130.5 C32.6,131.4 33.7,132 35,132 L35.3,132 C35.6,132 35.9,131.9 36.3,131.8 L60.8,184 C60.6,184.2 60.4,184.3 60.2,184.5 L10.3,147.1 C10.7,146.4 10.9,145.7 10.8,144.9 C10.8,144.4 10.6,144 10.5,143.5 L15.8,140.3 L15.8,140.3 Z M4.4,145.3 C4.3,144 5.3,142.9 6.6,142.8 L6.7,142.8 C7.9,142.8 8.9,143.7 9,145 C9.1,146.3 8.1,147.4 6.8,147.5 L6.7,147.5 C5.5,147.4 4.4,146.5 4.4,145.3 L4.4,145.3 Z M5.3,199.1 L5.2,199.1 C4,199.1 3,198.2 2.9,196.9 C2.8,195.6 3.8,194.5 5.1,194.4 L5.2,194.4 C6.4,194.4 7.4,195.3 7.5,196.6 C7.5,197.9 6.5,199 5.3,199.1 L5.3,199.1 Z M8.3,199.4 C8.9,198.6 9.2,197.7 9.2,196.7 L59.1,188.6 C59.4,189.7 60.2,190.6 61.2,191.1 L46.5,236.6 C46.3,236.6 46,236.5 45.8,236.5 L45.5,236.5 C44.7,236.5 44,236.8 43.4,237.2 L42.1,235.8 L8.3,199.4 L8.3,199.4 Z M43.5,240.8 C43.4,239.5 44.4,238.4 45.7,238.3 L45.8,238.3 C47,238.3 48,239.2 48.1,240.5 C48.2,241.8 47.2,242.9 45.9,243 L45.8,243 C44.6,243 43.6,242 43.5,240.8 L43.5,240.8 Z M46,274.3 L45.9,274.3 C44.7,274.3 43.7,273.4 43.6,272.1 C43.5,270.8 44.5,269.7 45.8,269.6 L45.9,269.6 C47.1,269.6 48.1,270.5 48.2,271.8 C48.3,273.1 47.3,274.2 46,274.3 L46,274.3 Z M49.2,274.4 C49.5,273.9 49.8,273.4 49.9,272.9 L91.8,275.5 C91.9,276.6 92.4,277.5 93.1,278.2 L83,292.5 L79,298.2 C78.4,297.9 77.8,297.7 77.1,297.7 L76.8,297.7 C76.4,297.7 76,297.8 75.6,298 L75.5,297.9 L75.5,298 C75.1,298.2 74.7,298.3 74.4,298.6 L57.1,282.2 L49.2,274.4 L49.2,274.4 Z M77.3,304.1 L77.2,304.1 C76,304.1 75,303.2 74.9,301.9 C74.8,300.6 75.8,299.5 77.1,299.4 L77.2,299.4 C78.4,299.4 79.4,300.3 79.5,301.6 C79.6,302.9 78.6,304 77.3,304.1 L77.3,304.1 Z M80.7,299.6 C80.5,299.3 80.3,299 80,298.8 L85.7,290.7 L94.1,278.8 C94.6,279.1 95.2,279.2 95.9,279.2 L96.2,279.2 C97.3,279.1 98.3,278.6 99,277.8 C99.3,277.4 99.6,277 99.8,276.5 L100.1,276.6 L120.2,281.1 L120.2,281.7 C120.2,282 120.3,282.3 120.3,282.5 L80.7,299.6 L80.7,299.6 Z M124.3,283.7 L124.2,283.7 C123,283.7 122,282.8 121.9,281.5 C121.8,280.2 122.8,279.1 124.1,279 L124.2,279 C125.4,279 126.4,279.9 126.5,281.2 C126.6,282.5 125.6,283.6 124.3,283.7 L124.3,283.7 Z M131.8,285.3 L128,283 C128.2,282.4 128.4,281.8 128.3,281.2 C128.2,280.1 127.7,279.1 127,278.4 L158.5,233.2 C158.6,233.3 158.8,233.3 158.9,233.3 L147.8,291.4 L147.6,291.4 L147.3,291.4 C146.1,291.5 145.1,292.1 144.4,292.9 L131.8,285.3 L131.8,285.3 Z M147.8,297.8 L147.7,297.8 C146.5,297.8 145.5,296.9 145.4,295.6 C145.3,294.3 146.3,293.2 147.6,293.1 L147.7,293.1 C148.9,293.1 149.9,294 150,295.3 C150.1,296.6 149.1,297.7 147.8,297.8 L147.8,297.8 Z M151,293 C150.5,292.3 149.8,291.8 149,291.6 L160.1,233.5 L160.2,233.5 L160.5,233.5 C160.9,233.5 161.2,233.4 161.5,233.3 L182.8,271.9 C182.6,272.1 182.4,272.3 182.2,272.5 C181.5,273.3 181.1,274.4 181.2,275.5 C181.2,275.9 181.3,276.3 181.5,276.7 L151,293 L151,293 Z M185.4,277.5 L185.3,277.5 C184.1,277.5 183.1,276.6 183,275.3 C182.9,274 183.9,272.9 185.2,272.8 L185.3,272.8 C186.5,272.8 187.5,273.7 187.6,275 C187.7,276.3 186.7,277.4 185.4,277.5 L185.4,277.5 Z M235.6,311.9 L235.5,311.9 C234.3,311.9 233.3,311 233.2,309.7 C233.1,308.4 234.1,307.3 235.4,307.2 L235.5,307.2 C236.7,307.2 237.7,308.1 237.8,309.4 C237.8,310.7 236.8,311.8 235.6,311.9 L235.6,311.9 Z M301.3,307.2 L301.2,307.2 C300,307.2 299,306.3 298.9,305 C298.8,303.7 299.8,302.6 301.1,302.5 L301.2,302.5 C302.4,302.5 303.4,303.4 303.5,304.7 C303.6,306 302.6,307.1 301.3,307.2 L301.3,307.2 Z M305.3,304.5 C305.1,302.7 303.8,301.2 302,300.9 L304.6,258.9 C305,258.9 305.5,258.7 305.9,258.6 L333.2,303.7 C333.1,303.8 332.9,303.9 332.8,304.1 C332.4,304.6 332.1,305.2 331.9,305.8 L305.3,304.5 L305.3,304.5 Z M336.1,309.1 L336,309.1 C334.8,309.1 333.8,308.2 333.7,306.9 C333.6,305.6 334.6,304.5 335.9,304.4 L336,304.4 C337.2,304.4 338.2,305.3 338.3,306.6 C338.4,307.9 337.4,309 336.1,309.1 L336.1,309.1 Z M336.2,302.7 L334.8,243.2 C335.7,243 336.6,242.6 337.2,241.9 C337.5,241.5 337.8,241.1 338,240.6 L375.5,248.4 L375.5,248.9 C375.6,249.9 376,250.8 376.7,251.5 L337.7,303.1 C337.1,302.8 336.7,302.7 336.2,302.7 L336.2,302.7 Z M379.7,250.8 L379.6,250.8 C378.4,250.8 377.4,249.9 377.3,248.6 C377.2,247.3 378.2,246.2 379.5,246.1 L379.6,246.1 C380.8,246.1 381.8,247 381.9,248.3 C381.9,249.6 381,250.7 379.7,250.8 L379.7,250.8 Z M414.1,213.3 L414,213.3 C412.8,213.3 411.8,212.4 411.7,211.1 C411.6,209.8 412.6,208.7 413.9,208.6 L414,208.6 C415.2,208.6 416.2,209.5 416.3,210.8 C416.4,212.2 415.4,213.3 414.1,213.3 L414.1,213.3 Z" id="Shape" opacity="0.18" fill="#FFFFFF"></path>
                    <path d="M399,269 L107,269 C104.8,269 103,267.2 103,265 L103,92 L403,92 L403,265 C403,267.2 401.2,269 399,269 L399,269 Z" id="Shape" fill="#151515" filter="url(#filter-1)"></path>
                    <path d="M403,91 L103,91 L103,73 C103,70.8 104.8,69 107,69 L399,69 C401.2,69 403,70.8 403,73 L403,91 L403,91 Z" id="Shape" fill="url(#linearGradient-2)"></path>
                    <g id="Group" transform="translate(223.000000, 75.000000)" fill="#000000">
                        <path d="M3.9,11.7 C3.2,11.7 2.6,11.5 2.2,11.1 C1.8,10.7 1.6,10.1 1.6,9.4 L1.6,4.9 L0.6,4.9 L0.6,3.9 L1.6,3.9 L1.6,2.5 L3,2.4 L3,3.9 L5,3.9 L5,4.9 L3,4.9 L3,9.2 C3,10.2 3.4,10.7 4.3,10.7 C4.5,10.7 4.7,10.7 5,10.6 L5,11.6 C4.6,11.6 4.2,11.7 3.9,11.7 L3.9,11.7 Z" id="Shape"></path>
                        <path d="M12.7,11.3 C11.8,11.6 11,11.7 10.3,11.7 C9.2,11.7 8.2,11.3 7.5,10.6 C6.8,9.9 6.4,8.9 6.4,7.7 C6.4,6.5 6.7,5.6 7.3,4.8 C7.9,4.1 8.7,3.7 9.7,3.7 C10.6,3.7 11.3,4 11.9,4.7 C12.4,5.4 12.7,6.3 12.7,7.5 L12.7,7.9 L7.9,7.9 C8.1,9.7 9,10.6 10.6,10.6 C11.2,10.6 11.9,10.4 12.7,10.1 L12.7,11.3 L12.7,11.3 Z M7.9,6.8 L11.3,6.8 C11.3,5.4 10.8,4.7 9.7,4.7 C8.6,4.7 8,5.4 7.9,6.8 L7.9,6.8 Z" id="Shape"></path>
                        <path d="M15.2,11.5 L15.2,3.8 L16.6,3.8 L16.6,5.2 C17.2,4.1 18,3.6 19,3.6 L19.4,3.6 L19.4,5 C19.2,4.9 18.9,4.9 18.8,4.9 C17.9,4.9 17.2,5.4 16.6,6.5 L16.6,11.6 L15.2,11.6 L15.2,11.5 Z" id="Shape"></path>
                        <path d="M21.2,11.5 L21.2,3.8 L22.6,3.8 L22.6,5.2 C23.3,4.1 24.2,3.6 25.2,3.6 C26.2,3.6 26.9,4.1 27.3,5.2 C28,4.1 28.8,3.6 29.9,3.6 C30.6,3.6 31.1,3.8 31.5,4.2 C31.9,4.6 32.1,5.2 32.1,5.9 L32.1,11.5 L30.7,11.5 L30.7,6.1 C30.7,5.2 30.4,4.8 29.7,4.8 C29,4.8 28.2,5.3 27.4,6.3 L27.4,11.5 L26,11.5 L26,6.1 C26,5.2 25.6,4.8 24.9,4.8 C24.2,4.8 23.4,5.3 22.6,6.3 L22.6,11.5 L21.2,11.5 L21.2,11.5 Z" id="Shape"></path>
                        <path d="M34.8,2.4 L34.8,1 L36.2,1 L36.2,2.4 L34.8,2.4 L34.8,2.4 Z M34.8,11.5 L34.8,3.8 L36.2,3.8 L36.2,11.5 L34.8,11.5 L34.8,11.5 Z" id="Shape"></path>
                        <path d="M39,11.5 L39,3.8 L40.4,3.8 L40.4,5.2 C41.1,4.1 42,3.6 43.1,3.6 C43.8,3.6 44.3,3.8 44.7,4.2 C45.1,4.6 45.3,5.2 45.3,5.9 L45.3,11.4 L43.9,11.4 L43.9,6.3 C43.9,5.7 43.8,5.3 43.6,5.1 C43.4,4.9 43.2,4.7 42.8,4.7 C41.9,4.7 41.1,5.3 40.4,6.4 L40.4,11.4 L39,11.4 L39,11.5 Z" id="Shape"></path>
                        <path d="M52,10.5 C51.2,11.3 50.4,11.7 49.6,11.7 C49,11.7 48.4,11.5 48,11.1 C47.6,10.7 47.4,10.2 47.4,9.6 C47.4,8.8 47.8,8.1 48.5,7.7 C49.2,7.2 50.2,7 51.5,7 L51.8,7 L51.8,6 C51.8,5.1 51.3,4.7 50.4,4.7 C49.7,4.7 48.9,4.9 48,5.4 L48,4.2 C48.9,3.8 49.8,3.6 50.6,3.6 C51.5,3.6 52.1,3.8 52.5,4.2 C52.9,4.6 53.1,5.2 53.1,6 L53.1,9.5 C53.1,10.3 53.3,10.7 53.8,10.7 L54.1,10.7 L54.2,11.5 C53.9,11.7 53.5,11.7 53.2,11.7 C52.6,11.7 52.2,11.3 52,10.5 L52,10.5 Z M51.8,9.8 L51.8,7.8 L51.3,7.8 C50.5,7.8 49.9,7.9 49.4,8.2 C48.9,8.5 48.7,8.9 48.7,9.3 C48.7,9.6 48.8,9.9 49.1,10.1 C49.3,10.3 49.6,10.4 50,10.4 C50.6,10.5 51.2,10.3 51.8,9.8 L51.8,9.8 Z" id="Shape"></path>
                        <path d="M56.1,11.5 L56.1,0.3 L57.5,0.3 L57.5,11.5 L56.1,11.5 L56.1,11.5 Z" id="Shape"></path>
                    </g>
                    <g id="Group" transform="translate(118.000000, 115.000000)" fill="#FFFFFF">
                        <path d="M6.2,5 C5.8,4.7 5.5,4.5 5.2,4.4 C4.9,4.3 4.5,4.2 4,4.2 C3.6,4.2 3.2,4.3 3,4.5 C2.8,4.7 2.6,4.9 2.6,5.2 C2.6,5.4 2.7,5.6 2.9,5.8 C3.1,6 3.4,6.1 3.8,6.2 C4.2,6.3 4.5,6.5 4.9,6.6 C5.3,6.7 5.7,6.9 6,7.1 C6.4,7.3 6.6,7.6 6.9,7.9 C7.1,8.2 7.2,8.6 7.2,9.1 C7.2,9.8 7,10.3 6.5,10.8 C6,11.3 5.4,11.6 4.5,11.7 L4.5,14 L3.3,14 L3.3,11.8 C2.8,11.7 2.2,11.6 1.7,11.4 C1.2,11.2 0.7,10.9 0.3,10.6 L1.1,9.4 C1.5,9.7 2,9.9 2.4,10.1 C2.9,10.3 3.4,10.4 3.9,10.4 C4.4,10.4 4.8,10.3 5,10.1 C5.2,9.9 5.4,9.7 5.4,9.4 C5.4,9.1 5.3,8.9 5.1,8.7 C4.9,8.5 4.6,8.4 4.2,8.2 C3.8,8 3.5,7.9 3.1,7.8 C2.7,7.7 2.3,7.5 2,7.2 C1.6,7 1.4,6.7 1.1,6.4 C0.9,6.1 0.8,5.7 0.8,5.2 C0.8,4.5 1,4 1.5,3.6 C2,3.2 2.6,2.9 3.3,2.8 L3.3,0.8 L4.5,0.8 L4.5,2.8 C5,2.9 5.5,3 5.9,3.2 C6.3,3.4 6.6,3.7 7,4 L6.2,5 L6.2,5 Z" id="Shape"></path>
                        <path d="M19.4,10.2 C19.8,10.5 20.3,10.7 20.8,10.9 C21.3,11.1 21.8,11.2 22.4,11.2 C23,11.2 23.4,11.1 23.7,10.9 C24,10.7 24.1,10.5 24.1,10.2 C24.1,9.9 23.9,9.7 23.6,9.5 C23.2,9.3 22.7,9.1 21.9,8.9 C21.5,8.8 21.2,8.7 20.8,8.6 C20.4,8.5 20.2,8.3 19.9,8.1 C19.6,7.9 19.4,7.7 19.3,7.5 C19.1,7.3 19.1,7 19.1,6.7 C19.1,6 19.4,5.5 20,5.1 C20.6,4.7 21.4,4.5 22.5,4.5 C23.1,4.5 23.7,4.6 24.3,4.8 C24.9,5 25.3,5.2 25.7,5.5 L24.9,6.6 C24.6,6.4 24.2,6.2 23.8,6 C23.4,5.8 23,5.8 22.6,5.8 C22,5.8 21.6,5.9 21.4,6 C21.2,6.2 21,6.4 21,6.6 C21,6.7 21.1,6.9 21.2,7 C21.3,7.1 21.5,7.2 21.6,7.3 C21.8,7.4 22,7.5 22.3,7.6 C22.6,7.7 22.8,7.8 23.2,7.8 C23.6,7.9 24,8 24.4,8.2 C24.8,8.3 25.1,8.5 25.3,8.7 C25.6,8.9 25.8,9.1 25.9,9.3 C26,9.5 26.1,9.8 26.1,10.1 C26.1,10.4 26,10.7 25.9,11 C25.7,11.3 25.5,11.5 25.2,11.7 C24.9,11.9 24.5,12.1 24.1,12.2 C23.7,12.3 23.1,12.4 22.6,12.4 C21.9,12.4 21.2,12.3 20.6,12.1 C19.9,11.9 19.4,11.6 18.9,11.3 L19.4,10.2 L19.4,10.2 Z" id="Shape"></path>
                        <path d="M34.7,12.3 L33.2,12.3 L33.1,11.1 L33,11.1 C32.6,11.5 32.2,11.9 31.8,12.1 C31.4,12.4 30.9,12.5 30.3,12.5 C29.4,12.5 28.8,12.2 28.4,11.7 C28,11.2 27.8,10.4 27.8,9.4 L27.8,4.7 L29.6,4.7 L29.6,9.2 C29.6,9.8 29.7,10.3 29.9,10.6 C30.1,10.9 30.5,11 31,11 C31.4,11 31.7,10.9 32,10.8 C32.3,10.6 32.6,10.3 32.9,9.9 L32.9,4.8 L34.7,4.8 L34.7,12.3 L34.7,12.3 Z" id="Shape"></path>
                        <path d="M36.7,8.5 C36.7,7.9 36.8,7.3 37,6.8 C37.2,6.3 37.4,5.9 37.8,5.5 C38.1,5.2 38.5,4.9 38.9,4.7 C39.3,4.5 39.7,4.4 40.2,4.4 C40.7,4.4 41,4.5 41.4,4.6 C41.7,4.8 42,5 42.4,5.3 L42.3,4 L42.3,1.2 L44.1,1.2 L44.1,12.1 L42.6,12.1 L42.5,11.2 L42.5,11.2 C42.2,11.5 41.9,11.8 41.5,12 C41.1,12.2 40.7,12.3 40.3,12.3 C39.8,12.3 39.4,12.2 39,12 C38.6,11.8 38.3,11.6 38,11.2 C37.7,10.9 37.5,10.4 37.3,10 C36.7,9.7 36.7,9.2 36.7,8.5 L36.7,8.5 Z M38.5,8.5 C38.5,9.3 38.7,10 39,10.4 C39.3,10.8 39.8,11 40.4,11 C41,11 41.6,10.7 42.1,10.1 L42.1,6.7 C41.8,6.4 41.6,6.3 41.3,6.2 C41,6.1 40.8,6 40.5,6 C40.2,6 40,6.1 39.7,6.2 C39.4,6.3 39.3,6.5 39.1,6.7 C38.9,6.9 38.8,7.2 38.7,7.5 C38.6,7.8 38.5,8.1 38.5,8.5 L38.5,8.5 Z" id="Shape"></path>
                        <path d="M45.8,8.5 C45.8,7.9 45.9,7.3 46.1,6.8 C46.3,6.3 46.6,5.9 46.9,5.5 C47.3,5.2 47.7,4.9 48.1,4.7 C48.6,4.5 49,4.4 49.5,4.4 C50,4.4 50.5,4.5 50.9,4.7 C51.4,4.9 51.8,5.1 52.1,5.5 C52.5,5.8 52.7,6.3 52.9,6.8 C53.1,7.3 53.2,7.9 53.2,8.5 C53.2,9.1 53.1,9.7 52.9,10.2 C52.7,10.7 52.4,11.1 52.1,11.5 C51.7,11.8 51.3,12.1 50.9,12.3 C50.4,12.5 50,12.6 49.5,12.6 C49,12.6 48.5,12.5 48.1,12.3 C47.6,12.1 47.2,11.9 46.9,11.5 C46.5,11.2 46.3,10.7 46.1,10.2 C45.9,9.7 45.8,9.2 45.8,8.5 L45.8,8.5 Z M47.7,8.5 C47.7,9.3 47.9,9.9 48.2,10.3 C48.6,10.8 49,11 49.7,11 C50.3,11 50.8,10.8 51.2,10.3 C51.6,9.8 51.7,9.2 51.7,8.5 C51.7,7.7 51.5,7.1 51.2,6.6 C50.8,6.1 50.4,5.9 49.7,5.9 C49.1,5.9 48.6,6.1 48.2,6.6 C47.8,7.1 47.7,7.8 47.7,8.5 L47.7,8.5 Z" id="Shape"></path>
                        <path d="M66.4,12.9 L66.4,15.3 L64.6,15.3 L64.6,4.7 L66.1,4.7 L66.2,5.6 L66.2,5.6 C66.5,5.3 66.9,5 67.3,4.8 C67.7,4.6 68.2,4.5 68.6,4.5 C69.1,4.5 69.5,4.6 69.9,4.8 C70.3,5 70.6,5.2 70.9,5.6 C71.2,5.9 71.4,6.3 71.5,6.8 C71.6,7.3 71.7,7.8 71.7,8.4 C71.7,9.1 71.6,9.6 71.4,10.1 C71.2,10.6 71,11 70.6,11.4 C70.3,11.7 69.9,12 69.5,12.2 C69.1,12.4 68.7,12.5 68.2,12.5 C67.8,12.5 67.5,12.4 67.1,12.3 C66.7,12.1 66.4,11.9 66.1,11.6 L66.4,12.9 L66.4,12.9 Z M66.4,10.3 C66.7,10.6 67,10.7 67.3,10.8 C67.6,10.9 67.9,11 68.1,11 C68.6,11 69.1,10.8 69.5,10.3 C69.9,9.9 70,9.2 70,8.3 C70,7.5 69.9,6.9 69.6,6.5 C69.3,6.1 68.9,5.9 68.3,5.9 C68,5.9 67.7,6 67.4,6.1 C67.1,6.2 66.8,6.5 66.5,6.8 L66.5,10.3 L66.4,10.3 Z" id="Shape"></path>
                        <path d="M73.7,4.7 L78.8,4.7 L78.8,12.3 L77,12.3 L77,6.1 L73.7,6.1 L73.7,4.7 L73.7,4.7 Z M77.8,3.4 C77.4,3.4 77.1,3.3 76.9,3.1 C76.7,2.9 76.5,2.6 76.5,2.2 C76.5,1.8 76.6,1.5 76.9,1.3 C77.2,1.1 77.4,1 77.8,1 C78.2,1 78.5,1.1 78.7,1.3 C78.9,1.5 79.1,1.8 79.1,2.2 C79.1,2.6 79,2.9 78.7,3.1 C78.5,3.3 78.2,3.4 77.8,3.4 L77.8,3.4 Z" id="Shape"></path>
                        <path d="M84.6,12.9 L84.6,15.3 L82.8,15.3 L82.8,4.7 L84.3,4.7 L84.4,5.6 L84.4,5.6 C84.7,5.3 85.1,5 85.5,4.8 C85.9,4.6 86.4,4.5 86.8,4.5 C87.3,4.5 87.7,4.6 88.1,4.8 C88.5,5 88.8,5.2 89.1,5.6 C89.4,5.9 89.6,6.3 89.7,6.8 C89.8,7.3 89.9,7.8 89.9,8.4 C89.9,9.1 89.8,9.6 89.6,10.1 C89.4,10.6 89.2,11 88.8,11.4 C88.5,11.7 88.1,12 87.7,12.2 C87.3,12.4 86.9,12.5 86.4,12.5 C86,12.5 85.7,12.4 85.3,12.3 C84.9,12.1 84.6,11.9 84.3,11.6 L84.6,12.9 L84.6,12.9 Z M84.6,10.3 C84.9,10.6 85.2,10.7 85.5,10.8 C85.8,10.9 86.1,11 86.3,11 C86.8,11 87.3,10.8 87.7,10.3 C88.1,9.9 88.2,9.2 88.2,8.3 C88.2,7.5 88.1,6.9 87.8,6.5 C87.5,6.1 87.1,5.9 86.5,5.9 C86.2,5.9 85.9,6 85.6,6.1 C85.3,6.2 85,6.5 84.7,6.8 L84.7,10.3 L84.6,10.3 Z" id="Shape"></path>
                        <path d="M101.2,4.7 L106.3,4.7 L106.3,12.3 L104.5,12.3 L104.5,6.1 L101.2,6.1 L101.2,4.7 L101.2,4.7 Z M105.2,3.4 C104.8,3.4 104.5,3.3 104.3,3.1 C104.1,2.9 103.9,2.6 103.9,2.2 C103.9,1.8 104,1.5 104.3,1.3 C104.6,1.1 104.8,1 105.2,1 C105.6,1 105.9,1.1 106.1,1.3 C106.3,1.5 106.5,1.8 106.5,2.2 C106.5,2.6 106.4,2.9 106.1,3.1 C105.9,3.3 105.6,3.4 105.2,3.4 L105.2,3.4 Z" id="Shape"></path>
                        <path d="M110.3,4.7 L111.8,4.7 L111.9,5.8 L112,5.8 C112.4,5.4 112.8,5.1 113.2,4.9 C113.6,4.6 114.2,4.5 114.7,4.5 C115.6,4.5 116.2,4.8 116.6,5.3 C117,5.8 117.2,6.6 117.2,7.6 L117.2,12.3 L115.4,12.3 L115.4,7.8 C115.4,7.2 115.3,6.7 115.1,6.4 C114.9,6.1 114.5,6 114,6 C113.6,6 113.3,6.1 113,6.3 C112.7,6.5 112.4,6.7 112,7.1 L112,12.3 L110.2,12.3 L110.2,4.7 L110.3,4.7 Z" id="Shape"></path>
                        <path d="M120,10.2 C120.4,10.5 120.9,10.7 121.4,10.9 C121.9,11.1 122.4,11.2 123,11.2 C123.6,11.2 124,11.1 124.3,10.9 C124.6,10.7 124.7,10.5 124.7,10.2 C124.7,9.9 124.5,9.7 124.2,9.5 C123.8,9.3 123.3,9.1 122.5,8.9 C122.1,8.8 121.8,8.7 121.4,8.6 C121,8.5 120.8,8.3 120.5,8.1 C120.2,7.9 120,7.7 119.9,7.5 C119.7,7.3 119.7,7 119.7,6.7 C119.7,6 120,5.5 120.6,5.1 C121.2,4.7 122,4.5 123.1,4.5 C123.7,4.5 124.3,4.6 124.9,4.8 C125.5,5 125.9,5.2 126.3,5.5 L125.5,6.6 C125.2,6.4 124.8,6.2 124.4,6 C124,5.8 123.6,5.8 123.2,5.8 C122.6,5.8 122.2,5.9 122,6 C121.8,6.2 121.6,6.4 121.6,6.6 C121.6,6.7 121.7,6.9 121.8,7 C121.9,7.1 122.1,7.2 122.2,7.3 C122.4,7.4 122.6,7.5 122.9,7.6 C123.2,7.7 123.4,7.8 123.8,7.8 C124.2,7.9 124.6,8 125,8.2 C125.4,8.3 125.7,8.5 125.9,8.7 C126.2,8.9 126.4,9.1 126.5,9.3 C126.6,9.5 126.7,9.8 126.7,10.1 C126.7,10.4 126.6,10.7 126.5,11 C126.3,11.3 126.1,11.5 125.8,11.7 C125.5,11.9 125.1,12.1 124.7,12.2 C124.3,12.3 123.7,12.4 123.2,12.4 C122.5,12.4 121.8,12.3 121.2,12.1 C120.5,11.9 120,11.6 119.5,11.3 L120,10.2 L120,10.2 Z" id="Shape"></path>
                        <path d="M130.2,6.1 L128.2,6.1 L128.2,4.8 L130.3,4.7 L130.5,2.6 L132,2.6 L132,4.7 L135.5,4.7 L135.5,6.1 L132,6.1 L132,9.2 C132,9.8 132.1,10.3 132.4,10.6 C132.7,10.9 133.1,11 133.8,11 C134.1,11 134.4,11 134.7,10.9 C135,10.8 135.2,10.8 135.5,10.7 L135.8,12 C135.5,12.1 135.1,12.2 134.7,12.3 C134.3,12.4 133.8,12.4 133.4,12.4 C132.8,12.4 132.3,12.3 131.9,12.2 C131.5,12 131.2,11.8 130.9,11.5 C130.7,11.2 130.5,10.9 130.4,10.5 C130.3,10.1 130.2,9.7 130.2,9.2 L130.2,6.1 L130.2,6.1 Z" id="Shape"></path>
                        <path d="M137.5,10.3 C137.5,9.9 137.6,9.5 137.8,9.2 C138,8.9 138.3,8.6 138.7,8.4 C139.1,8.2 139.7,8 140.3,7.8 C141,7.7 141.8,7.6 142.7,7.5 C142.7,7.1 142.5,6.7 142.2,6.4 C141.9,6.1 141.5,6 140.9,6 C140.5,6 140,6.1 139.6,6.2 C139.2,6.4 138.8,6.5 138.4,6.8 L137.7,5.6 C138.2,5.3 138.7,5.1 139.3,4.9 C139.9,4.7 140.5,4.6 141.2,4.6 C142.3,4.6 143.1,4.9 143.6,5.4 C144.2,6 144.4,6.8 144.4,7.8 L144.4,12.3 L142.9,12.3 L142.8,11.4 L142.8,11.4 C142.4,11.7 142,12 141.5,12.2 C141,12.4 140.5,12.5 140,12.5 C139.6,12.5 139.3,12.4 139,12.3 C138.7,12.2 138.4,12 138.2,11.8 C138,11.6 137.8,11.4 137.7,11.1 C137.6,10.8 137.5,10.6 137.5,10.3 L137.5,10.3 Z M139.3,10.1 C139.3,10.4 139.4,10.7 139.7,10.8 C140,11 140.3,11 140.7,11 C141.1,11 141.5,10.9 141.8,10.7 C142.1,10.5 142.5,10.3 142.9,10 L142.9,8.4 C142.2,8.5 141.6,8.5 141.2,8.6 C140.7,8.7 140.4,8.8 140.1,8.9 C139.8,9 139.6,9.2 139.5,9.4 C139.3,9.7 139.3,9.9 139.3,10.1 L139.3,10.1 Z" id="Shape"></path>
                        <path d="M146.7,1.4 L150.9,1.4 L150.9,9.7 C150.9,10.2 151,10.6 151.3,10.8 C151.6,11 151.9,11.1 152.3,11.1 C152.7,11.1 153.1,11 153.6,10.8 L154,12.1 C153.6,12.2 153.3,12.3 153,12.4 C152.7,12.5 152.3,12.5 151.9,12.5 C151,12.5 150.3,12.2 149.9,11.7 C149.4,11.2 149.2,10.5 149.2,9.5 L149.2,2.7 L146.8,2.7 L146.8,1.4 L146.7,1.4 Z" id="Shape"></path>
                        <path d="M155.8,1.4 L160,1.4 L160,9.7 C160,10.2 160.1,10.6 160.4,10.8 C160.7,11 161,11.1 161.4,11.1 C161.8,11.1 162.2,11 162.7,10.8 L163.1,12.1 C162.7,12.2 162.4,12.3 162.1,12.4 C161.8,12.5 161.4,12.5 161,12.5 C160.1,12.5 159.4,12.2 159,11.7 C158.5,11.2 158.3,10.5 158.3,9.5 L158.3,2.7 L155.9,2.7 L155.9,1.4 L155.8,1.4 Z" id="Shape"></path>
                        <path d="M174.3,1.4 L176.1,1.4 L176.1,4.2 L176,5.5 C176.3,5.2 176.7,4.9 177.1,4.8 C177.5,4.6 177.9,4.5 178.3,4.5 C178.8,4.5 179.2,4.6 179.6,4.8 C180,5 180.3,5.2 180.6,5.6 C180.9,5.9 181.1,6.3 181.2,6.8 C181.3,7.3 181.4,7.8 181.4,8.4 C181.4,9.1 181.3,9.6 181.1,10.1 C180.9,10.6 180.7,11 180.3,11.4 C180,11.8 179.6,12 179.2,12.2 C178.8,12.4 178.4,12.5 177.9,12.5 C177.5,12.5 177.2,12.4 176.8,12.2 C176.4,12 176,11.8 175.7,11.4 L175.7,11.4 L175.5,12.2 L174.1,12.2 L174.1,1.4 L174.3,1.4 Z M176.1,10.3 C176.4,10.6 176.7,10.7 177,10.8 C177.3,10.9 177.6,11 177.8,11 C178.3,11 178.8,10.8 179.1,10.3 C179.5,9.9 179.6,9.2 179.6,8.3 C179.6,7.5 179.5,6.9 179.2,6.5 C178.9,6.1 178.5,5.9 177.9,5.9 C177.6,5.9 177.3,6 177,6.1 C176.7,6.2 176.4,6.5 176.1,6.8 L176.1,10.3 L176.1,10.3 Z" id="Shape"></path>
                        <path d="M183.3,1.4 L187.5,1.4 L187.5,9.7 C187.5,10.2 187.6,10.6 187.9,10.8 C188.2,11 188.5,11.1 188.9,11.1 C189.3,11.1 189.7,11 190.2,10.8 L190.6,12.1 C190.2,12.2 189.9,12.3 189.6,12.4 C189.3,12.5 188.9,12.5 188.5,12.5 C187.6,12.5 186.9,12.2 186.5,11.7 C186,11.2 185.8,10.5 185.8,9.5 L185.8,2.7 L183.4,2.7 L183.4,1.4 L183.3,1.4 Z" id="Shape"></path>
                        <path d="M192.1,8.5 C192.1,7.9 192.2,7.3 192.4,6.8 C192.6,6.3 192.9,5.9 193.2,5.5 C193.6,5.2 194,4.9 194.4,4.7 C194.9,4.5 195.3,4.4 195.8,4.4 C196.3,4.4 196.8,4.5 197.2,4.7 C197.7,4.9 198.1,5.1 198.4,5.5 C198.8,5.8 199,6.3 199.2,6.8 C199.4,7.3 199.5,7.9 199.5,8.5 C199.5,9.1 199.4,9.7 199.2,10.2 C199,10.7 198.7,11.1 198.4,11.5 C198,11.8 197.6,12.1 197.2,12.3 C196.7,12.5 196.3,12.6 195.8,12.6 C195.3,12.6 194.8,12.5 194.4,12.3 C193.9,12.1 193.5,11.9 193.2,11.5 C192.8,11.2 192.6,10.7 192.4,10.2 C192.2,9.7 192.1,9.2 192.1,8.5 L192.1,8.5 Z M194,8.5 C194,9.3 194.2,9.9 194.5,10.3 C194.9,10.8 195.3,11 196,11 C196.6,11 197.1,10.8 197.5,10.3 C197.9,9.8 198,9.2 198,8.5 C198,7.7 197.8,7.1 197.5,6.6 C197.1,6.1 196.7,5.9 196,5.9 C195.4,5.9 194.9,6.1 194.5,6.6 C194.2,7.1 194,7.8 194,8.5 L194,8.5 Z" id="Shape"></path>
                        <path d="M201.6,8.5 C201.6,7.9 201.7,7.3 201.9,6.8 C202.1,6.3 202.4,5.9 202.8,5.5 C203.2,5.2 203.7,4.9 204.2,4.7 C204.7,4.5 205.3,4.4 205.9,4.4 C206.5,4.4 207.1,4.5 207.5,4.7 C208,4.9 208.4,5.2 208.7,5.5 L207.8,6.6 C207.5,6.4 207.2,6.2 206.9,6.1 C206.6,6 206.3,5.9 205.9,5.9 C205.1,5.9 204.5,6.1 204,6.6 C203.5,7.1 203.3,7.7 203.3,8.5 C203.3,8.9 203.4,9.2 203.5,9.5 C203.6,9.8 203.8,10.1 204,10.3 C204.2,10.5 204.5,10.7 204.8,10.8 C205.1,10.9 205.5,11 205.8,11 C206.2,11 206.6,10.9 207,10.8 C207.4,10.6 207.7,10.4 208,10.2 L208.7,11.3 C208.3,11.7 207.8,12 207.2,12.2 C206.7,12.4 206.1,12.5 205.6,12.5 C205,12.5 204.4,12.4 203.9,12.2 C203.4,12 202.9,11.8 202.6,11.4 C202.2,11.1 201.9,10.6 201.7,10.1 C201.5,9.6 201.6,9.2 201.6,8.5 L201.6,8.5 Z" id="Shape"></path>
                        <path d="M211,1.4 L212.8,1.4 L212.8,8.3 L212.9,8.3 L216.3,4.8 L218.3,4.8 L215.4,7.9 L218.7,12.4 L216.7,12.4 L214.3,9 L212.8,10.5 L212.8,12.5 L211,12.5 L211,1.4 L211,1.4 Z" id="Shape"></path>
                        <path d="M220.5,10.2 C220.9,10.5 221.4,10.7 221.9,10.9 C222.4,11.1 222.9,11.2 223.5,11.2 C224.1,11.2 224.5,11.1 224.8,10.9 C225.1,10.7 225.2,10.5 225.2,10.2 C225.2,9.9 225,9.7 224.7,9.5 C224.3,9.3 223.8,9.1 223,8.9 C222.6,8.8 222.3,8.7 221.9,8.6 C221.5,8.5 221.3,8.3 221,8.1 C220.7,7.9 220.5,7.7 220.4,7.5 C220.2,7.3 220.2,7 220.2,6.7 C220.2,6 220.5,5.5 221.1,5.1 C221.7,4.7 222.5,4.5 223.6,4.5 C224.2,4.5 224.8,4.6 225.4,4.8 C226,5 226.4,5.2 226.8,5.5 L226,6.6 C225.7,6.4 225.3,6.2 224.9,6 C224.5,5.8 224.1,5.8 223.7,5.8 C223.1,5.8 222.7,5.9 222.5,6 C222.3,6.2 222.1,6.4 222.1,6.6 C222.1,6.7 222.2,6.9 222.3,7 C222.4,7.1 222.6,7.2 222.7,7.3 C222.9,7.4 223.1,7.5 223.4,7.6 C223.7,7.7 223.9,7.8 224.3,7.8 C224.7,7.9 225.1,8 225.5,8.2 C225.9,8.3 226.2,8.5 226.4,8.7 C226.7,8.9 226.9,9.1 227,9.3 C227.1,9.5 227.2,9.8 227.2,10.1 C227.2,10.4 227.1,10.7 227,11 C226.8,11.3 226.6,11.5 226.3,11.7 C226,11.9 225.6,12.1 225.2,12.2 C224.8,12.3 224.2,12.4 223.7,12.4 C223,12.4 222.3,12.3 221.7,12.1 C221,11.9 220.5,11.6 220,11.3 L220.5,10.2 L220.5,10.2 Z" id="Shape"></path>
                        <path d="M230.8,6.1 L228.8,6.1 L228.8,4.8 L230.9,4.7 L231.1,2.6 L232.6,2.6 L232.6,4.7 L236.1,4.7 L236.1,6.1 L232.6,6.1 L232.6,9.2 C232.6,9.8 232.7,10.3 233,10.6 C233.3,10.9 233.7,11 234.4,11 C234.7,11 235,11 235.3,10.9 C235.6,10.8 235.8,10.8 236.1,10.7 L236.4,12 C236.1,12.1 235.7,12.2 235.3,12.3 C234.9,12.4 234.4,12.4 234,12.4 C233.4,12.4 232.9,12.3 232.5,12.2 C232.1,12 231.8,11.8 231.5,11.5 C231.3,11.2 231.1,10.9 231,10.5 C230.9,10.1 230.8,9.7 230.8,9.2 L230.8,6.1 L230.8,6.1 Z" id="Shape"></path>
                        <path d="M238.1,10.3 C238.1,9.9 238.2,9.5 238.4,9.2 C238.6,8.9 238.9,8.6 239.3,8.4 C239.7,8.2 240.3,8 240.9,7.8 C241.6,7.7 242.4,7.6 243.3,7.5 C243.3,7.1 243.1,6.7 242.8,6.4 C242.5,6.1 242.1,6 241.5,6 C241.1,6 240.6,6.1 240.2,6.2 C239.8,6.4 239.4,6.5 239,6.8 L238.3,5.6 C238.8,5.3 239.3,5.1 239.9,4.9 C240.5,4.7 241.1,4.6 241.8,4.6 C242.9,4.6 243.7,4.9 244.2,5.4 C244.8,6 245,6.8 245,7.8 L245,12.3 L243.5,12.3 L243.4,11.4 L243.4,11.4 C243,11.7 242.6,12 242.1,12.2 C241.6,12.4 241.1,12.5 240.6,12.5 C240.2,12.5 239.9,12.4 239.6,12.3 C239.3,12.2 239,12 238.8,11.8 C238.6,11.6 238.4,11.4 238.3,11.1 C238.2,10.8 238.1,10.6 238.1,10.3 L238.1,10.3 Z M239.9,10.1 C239.9,10.4 240,10.7 240.3,10.8 C240.6,11 240.9,11 241.3,11 C241.7,11 242.1,10.9 242.4,10.7 C242.7,10.5 243.1,10.3 243.5,10 L243.5,8.4 C242.8,8.5 242.2,8.5 241.8,8.6 C241.3,8.7 241,8.8 240.7,8.9 C240.4,9 240.2,9.2 240.1,9.4 C239.9,9.7 239.9,9.9 239.9,10.1 L239.9,10.1 Z" id="Shape"></path>
                        <path d="M247.3,8.5 C247.3,7.9 247.4,7.3 247.6,6.8 C247.8,6.3 248.1,5.9 248.5,5.5 C248.9,5.2 249.4,4.9 249.9,4.7 C250.4,4.5 251,4.4 251.6,4.4 C252.2,4.4 252.8,4.5 253.2,4.7 C253.7,4.9 254.1,5.2 254.4,5.5 L253.5,6.6 C253.2,6.4 252.9,6.2 252.6,6.1 C252.3,6 252,5.9 251.6,5.9 C250.8,5.9 250.2,6.1 249.7,6.6 C249.2,7.1 249,7.7 249,8.5 C249,8.9 249.1,9.2 249.2,9.5 C249.3,9.8 249.5,10.1 249.7,10.3 C249.9,10.5 250.2,10.7 250.5,10.8 C250.8,10.9 251.2,11 251.5,11 C251.9,11 252.3,10.9 252.7,10.8 C253.1,10.6 253.4,10.4 253.7,10.2 L254.4,11.3 C254,11.7 253.5,12 252.9,12.2 C252.4,12.4 251.8,12.5 251.3,12.5 C250.7,12.5 250.1,12.4 249.6,12.2 C249.1,12 248.6,11.8 248.3,11.4 C247.9,11.1 247.6,10.6 247.4,10.1 C247.2,9.6 247.3,9.2 247.3,8.5 L247.3,8.5 Z" id="Shape"></path>
                        <path d="M256.7,1.4 L258.5,1.4 L258.5,8.3 L258.6,8.3 L262,4.8 L264,4.8 L261.1,7.9 L264.4,12.4 L262.4,12.4 L260,9 L258.5,10.5 L258.5,12.5 L256.7,12.5 L256.7,1.4 L256.7,1.4 Z" id="Shape"></path>
                    </g>
                    <rect id="Rectangle-path" fill="#C5C3C5" x="103" y="91" width="300" height="1"></rect>
                </g>
            </g>
        </g>
    </g>
</svg>