<?xml version="1.0" encoding="utf-8"?>
<!-- Generator: Adobe Illustrator 19.2.1, SVG Export Plug-In . SVG Version: 6.00 Build 0)  -->
<svg version="1.1" id="Layer_1" xmlns="http://www.w3.org/2000/svg" xmlns:xlink="http://www.w3.org/1999/xlink" x="0px" y="0px"
	 viewBox="0 0 419 315" style="enable-background:new 0 0 419 315;" xml:space="preserve">
<style type="text/css">
	.st0{opacity:0.18;fill:#FFFFFF;}
	.st1{fill:#151515;}
	.st2{fill:url(#SVGID_1_);}
	.st3{fill:#FFFFFF;}
	.st4{fill:#C5C3C5;}
</style>
<path class="st0" d="M414,207.9c-0.1,0-0.2,0-0.3,0c-0.1,0-0.1,0-0.2,0l-7.3-26.7c0.5-0.2,1-0.6,1.5-1c0.7-0.8,1.1-1.9,1-3
	c-0.1-2.2-1.9-3.9-4.1-3.9c0,0,0,0,0,0l-0.6-4.2l-6-39.4c1.8-0.5,3-2.3,2.9-4.2c-0.1-2.2-1.9-3.9-4.1-3.9c-0.1,0-0.2,0-0.3,0
	c-0.3,0-0.5,0.1-0.8,0.1l-5.7-13.6l-6.9-16.5c1.3-0.8,2.1-2.2,2-3.8c-0.1-2.2-1.9-3.9-4.1-3.9c-0.1,0-0.2,0-0.3,0
	c-2.3,0.1-4,2.1-3.9,4.4c0.1,1.3,0.7,2.3,1.7,3l-25.9,47.7c-0.2-0.1-0.5-0.2-0.7-0.2l1-35.2l0.4-13.1c1-0.1,1.9-0.6,2.5-1.3
	c0.7-0.8,1.1-1.9,1-3c-0.1-2.2-1.9-3.9-4.1-3.9c0,0,0,0,0,0l-6.4-35.8c1.7-0.6,2.9-2.3,2.8-4.2c-0.1-2.2-1.9-3.9-4.1-3.9
	c-0.1,0-0.2,0-0.3,0c-1.3,0.1-2.3,0.7-3,1.7L280,6.6c0.2-0.5,0.3-1.1,0.3-1.7c-0.1-2.2-1.9-3.9-4.1-3.9c-0.1,0-0.2,0-0.3,0
	c-2.2,0.1-4,2.1-3.9,4.3l-32.7,6.3l-33,6.3c-0.6-1.6-2.1-2.8-3.9-2.8c-0.1,0-0.2,0-0.3,0c-2.3,0.1-4,2.1-3.9,4.4
	c0,0.7,0.3,1.3,0.6,1.9l-13.5,11.1l-14.6,12c-0.7-0.7-1.7-1.1-2.8-1.1c-0.1,0-0.2,0-0.3,0c-1.4,0.1-2.6,0.9-3.3,2l-37.9-15.7
	c0.1-0.4,0.2-0.8,0.1-1.3c-0.1-2.2-1.9-3.9-4.1-3.9c-0.1,0-0.2,0-0.3,0c-2.3,0.1-4,2.1-3.9,4.4c0,0.1,0,0.1,0,0.2L63.8,42.7
	c-0.6-1.5-2.1-2.6-3.8-2.6c-0.1,0-0.2,0-0.3,0c-2.3,0.1-4,2.1-3.9,4.4c0.1,1.2,0.6,2.2,1.5,2.9L34.9,83c-0.6-0.3-1.2-0.5-1.9-0.5
	c-0.1,0-0.2,0-0.3,0c-1.1,0.1-2.1,0.6-2.8,1.4c-0.7,0.8-1.1,1.9-1,3c0.1,2.1,1.9,3.8,4,3.9l0.3,8.8l0.9,25.4c-2,0.4-3.5,2.2-3.4,4.3
	c0,0.5,0.2,0.9,0.3,1.4l-21.3,13C9.1,142.6,8,142,6.7,142c-0.1,0-0.2,0-0.3,0c-2.3,0.1-4,2.1-3.9,4.4c0.1,1.9,1.6,3.5,3.4,3.8
	l-1.3,43.6c-2.2,0.2-3.8,2.1-3.7,4.3c0.1,2.2,1.9,3.9,4.1,3.9c0.1,0,0.2,0,0.3,0c0.8,0,1.5-0.3,2.1-0.7l35.2,37.9
	c-0.6,0.8-1,1.8-0.9,2.8c0.1,2,1.6,3.5,3.5,3.8v23.2c-1,0.1-1.9,0.6-2.5,1.3c-0.7,0.8-1.1,1.9-1,3c0.1,2.2,1.9,3.9,4.1,3.9
	c0.1,0,0.2,0,0.3,0c0.9-0.1,1.7-0.4,2.3-0.9l25.4,24.2c-0.5,0.7-0.8,1.7-0.8,2.6c0.1,2.2,1.9,3.9,4.1,3.9c0.1,0,0.2,0,0.3,0
	c1.1-0.1,2.1-0.6,2.8-1.4c0.7-0.8,1.1-1.9,1-3c0-0.3-0.1-0.6-0.1-0.8l39.5-17.1c0.7,1.2,2,2,3.5,2c0.1,0,0.2,0,0.3,0
	c1.1-0.1,2.1-0.6,2.8-1.4c0,0,0.1-0.1,0.1-0.1l4.8,2.9l11.8,7.1c-0.2,0.6-0.4,1.2-0.3,1.8c0.1,2.2,1.9,3.9,4.1,3.9
	c0.1,0,0.2,0,0.3,0c1.1-0.1,2.1-0.6,2.8-1.4c0.7-0.8,1.1-1.9,1-3c0-0.4-0.1-0.8-0.3-1.2l30.4-16.5c0.8,1,2,1.7,3.3,1.7
	c0.1,0,0.2,0,0.3,0c1.1-0.1,2.1-0.6,2.8-1.3l43.4,29.9c-0.3,0.6-0.5,1.3-0.4,2.1c0.1,2.2,1.9,3.9,4.1,3.9c0.1,0,0.2,0,0.3,0
	c1.1-0.1,2.1-0.6,2.8-1.4c0.6-0.7,0.9-1.5,1-2.4l57.7-4.1c0.4,1.9,2.1,3.2,4,3.2c0.1,0,0.2,0,0.3,0c1.1-0.1,2.1-0.6,2.8-1.4
	c0.5-0.6,0.8-1.2,0.9-2l26.6,1.2c0,0.1,0,0.1,0,0.2c0.1,2.2,1.9,3.9,4.1,3.9c0.1,0,0.2,0,0.3,0c1.1-0.1,2.1-0.6,2.8-1.4
	c0.7-0.8,1.1-1.9,1-3c-0.1-1.2-0.7-2.2-1.5-2.9l39-51.5c0.6,0.3,1.3,0.5,2,0.5c0.1,0,0.2,0,0.3,0c1.1-0.1,2.1-0.6,2.8-1.4
	c0.7-0.8,1.1-1.9,1-3c-0.1-0.9-0.4-1.7-0.9-2.3l28.5-31.1l0.4-0.4c0.7,0.5,1.5,0.8,2.4,0.8c0.1,0,0.2,0,0.3,0c2.3-0.1,4-2.1,3.9-4.4
	C418,209.6,416.2,207.9,414,207.9z M412.4,208.2c-1.6,0.7-2.6,2.2-2.5,4c0,0.1,0,0.2,0,0.2l-16.2,4.8l-18.3,5.4
	c-0.2-0.5-0.5-0.9-0.9-1.3l19.3-27.6l8.9-12.8c0.6,0.3,1.2,0.5,1.8,0.5c0.1,0,0.2,0,0.3,0c0.1,0,0.2,0,0.2,0L412.4,208.2z
	 M379.5,245.4c-0.1,0-0.2,0-0.3,0c-0.1,0-0.3,0-0.4,0.1l-5.4-17.3c0.5-0.2,0.9-0.6,1.3-1c0.7-0.8,1.1-1.9,1-3c0-0.1,0-0.2-0.1-0.3
	l17.1-5.1l17.4-5.1c0.1,0.3,0.3,0.6,0.5,0.9l-28.9,31.5C381.2,245.7,380.4,245.4,379.5,245.4z M375.7,248.1l-37.5-7.7
	c0-0.2,0-0.3,0-0.5c0-0.3-0.1-0.5-0.1-0.8l30.1-12.5c0.7,1.2,2,2,3.5,2c0.1,0,0.2,0,0.3,0c0.1,0,0.3,0,0.4-0.1l5.4,17.3
	C376.8,246.3,376,247.1,375.7,248.1z M334.3,304l-27.3-45.1c0.2-0.1,0.3-0.3,0.5-0.4c0.7-0.8,1.1-1.9,1-3c0-0.4-0.1-0.8-0.2-1.1
	l22.6-11.9c0.7,0.9,1.7,1.5,2.8,1.7l1.4,59.6C334.7,303.8,334.5,303.9,334.3,304z M300.9,301.8c-1.3,0.1-2.5,0.8-3.1,1.9l-24.7-11.2
	l-19.6-8.9c0.1-0.5,0.2-0.9,0.2-1.4c0-0.3-0.1-0.7-0.2-1l44.3-21.5l3.2-1.6c0.6,0.9,1.5,1.5,2.6,1.7L300.9,301.8z M232.4,307.8
	L189,278c0.1-0.3,0.2-0.5,0.3-0.8l56.1,5.5c0,0,0,0,0,0.1c0.1,1.3,0.8,2.4,1.8,3.1l-10.5,20.9c-0.4-0.1-0.8-0.2-1.3-0.2
	c-0.1,0-0.2,0-0.3,0C234,306.6,233.1,307.1,232.4,307.8z M183.8,272.3l-21.3-38.5c0.5-0.4,0.9-0.8,1.2-1.4l45.9,13.9l13.8,4.2
	c0,0.3-0.1,0.6,0,0.9c0,0.5,0.1,0.9,0.3,1.3l-35.3,20.9c-0.8-0.9-1.9-1.5-3.2-1.5c-0.1,0-0.2,0-0.3,0
	C184.6,272,184.2,272.2,183.8,272.3z M124.8,278.3v-42c1-0.1,1.8-0.6,2.5-1.3c0.6-0.7,0.9-1.5,1-2.3l12.1-0.5l15.9-0.7
	c0.2,0.8,0.7,1.5,1.3,2L126,278.7C125.6,278.5,125.2,278.4,124.8,278.3z M121.1,279.7c-0.3,0.4-0.6,0.8-0.8,1.3l-19-4.2l-1.4-0.3
	c0-0.2,0-0.4,0-0.5c-0.1-1.1-0.6-2.1-1.3-2.8l1.6-2.6l22.2-34.5c0.4,0.2,0.7,0.3,1.1,0.3v42C122.6,278.5,121.7,278.9,121.1,279.7z
	 M50,272.7c-0.2-1.9-1.6-3.5-3.5-3.7v-23.2c0.9-0.1,1.8-0.6,2.4-1.3l43.3,29.8c-0.2,0.3-0.3,0.7-0.4,1L50,272.7z M9,196.6
	c-0.5-1.5-1.7-2.6-3.2-2.8l1.3-43.6c0.9-0.1,1.8-0.5,2.4-1.2l49.9,37.4c-0.3,0.6-0.5,1.3-0.5,2L9,196.6z M35.3,124.8l-0.9-24.1
	l-0.4-10.1c0.4-0.1,0.8-0.3,1.1-0.5l23.5,31.4c-0.7,0.8-1,1.8-1,2.8l-8.6,1.5l-10.3,1.8C38.3,126.1,36.9,125,35.3,124.8z M37.1,86.1
	l23.6-6.7l23.7-6.8c0.3,0.7,0.8,1.3,1.4,1.7l-23,45.9c-0.3-0.1-0.7-0.1-1-0.1c-0.1,0-0.2,0-0.3,0c-0.7,0-1.4,0.3-1.9,0.6L36.1,89.3
	c0.7-0.8,1.1-1.9,1-3C37.1,86.3,37.1,86.2,37.1,86.1z M120.5,32.2c0.6,0.4,1.3,0.6,2.1,0.6c0.1,0,0.2,0,0.3,0c0.2,0,0.4-0.1,0.5-0.1
	l23.9,67.5c-0.6,0.3-1,0.7-1.4,1.2L92,72.3c0.2-0.5,0.3-1.1,0.2-1.7c-0.1-1-0.5-1.8-1.1-2.5L120.5,32.2z M171.4,49.8l33.5,16.7
	c-0.2,0.5-0.2,1-0.2,1.6c0,0.4,0.1,0.7,0.2,1l-27.2,13.6c-0.7-1.1-2-1.8-3.4-1.8c0,0-0.1,0-0.1,0l-4.9-29.6
	C170.2,51.1,170.9,50.5,171.4,49.8z M205,22.5l44.4,44.4c-0.4,0.5-0.6,1.1-0.8,1.7l-35.7-1.3c-0.2-2.1-1.9-3.6-4-3.7l-0.6-4.5
	l-4.6-35.9C204.1,23.1,204.6,22.8,205,22.5z M276.1,9.2l9.8,68.7c-1.1,0.3-1.9,1.1-2.5,2l-26.8-9.8c0.1-0.4,0.1-0.7,0.1-1.1
	c-0.1-1.5-1-2.7-2.2-3.4l0.7-1.9l20-54.6C275.6,9.2,275.8,9.2,276.1,9.2z M345.1,46.8c0,0,0.1,0,0.1,0l6.4,35.8
	c-0.7,0.2-1.4,0.6-1.9,1.2c-0.5,0.5-0.8,1.2-0.9,1.8l-57.6-4.1c0-0.5-0.2-1-0.4-1.5l4.4-3L342,45.5
	C342.8,46.3,343.9,46.8,345.1,46.8z M396.8,129.9C396.8,129.9,396.8,129.9,396.8,129.9l6.6,43.6c-0.8,0.2-1.4,0.7-1.9,1.2l-46.4-30
	c0.3-0.6,0.4-1.3,0.4-2c0-0.2-0.1-0.4-0.1-0.6l15.9-6l21.9-8.3C393.9,129,395.2,129.9,396.8,129.9z M371.8,226.8c0,0-0.1,0-0.1,0
	c-1.2,0-2.2-0.9-2.3-2.2c-0.1-1.3,0.9-2.4,2.2-2.5c0,0,0.1,0,0.1,0c1.2,0,2.2,0.9,2.3,2.2C374.1,225.6,373.1,226.7,371.8,226.8z
	 M335.7,236.3l10.5-41l1.5-5.9c0.1,0,0.3,0,0.4,0c0.1,0,0.2,0,0.3,0c0.5,0,0.9-0.2,1.3-0.3l19.3,32.2c-1,0.8-1.6,2.1-1.5,3.4
	c0,0.3,0.1,0.5,0.1,0.8L337.6,238C337.2,237.2,336.5,236.6,335.7,236.3z M330.2,241.5l-22.6,11.9c-0.7-0.9-1.7-1.5-2.9-1.7
	l-1.3-34.2c0.7-0.1,1.4-0.5,2-1l25.1,21.4c-0.4,0.7-0.7,1.5-0.6,2.4C330,240.8,330.1,241.1,330.2,241.5z M300.2,256
	c0,0.3,0.1,0.7,0.2,1l-2.7,1.3l-44.9,21.8c-0.3-0.4-0.6-0.7-0.9-1l21.1-37.9l6.3-11.4c0.5,0.2,0.9,0.3,1.5,0.3c0.1,0,0.2,0,0.3,0
	c0.6,0,1.3-0.2,1.8-0.6l18.5,23.4C300.6,253.7,300.1,254.8,300.2,256z M247.2,282.5c-0.1-1.3,0.9-2.4,2.2-2.5c0,0,0.1,0,0.1,0
	c1.2,0,2.2,0.9,2.3,2.2c0.1,1.3-0.9,2.4-2.2,2.5c0,0-0.1,0-0.1,0C248.3,284.7,247.3,283.8,247.2,282.5z M189.1,274.6l35.3-20.9
	c0.8,0.9,1.9,1.5,3.2,1.5c0.1,0,0.2,0,0.3,0c0.6,0,1.1-0.2,1.6-0.4l6,8.6l11.2,16c-0.6,0.5-1,1.2-1.2,2l-56.1-5.5c0,0,0,0,0-0.1
	C189.4,275.4,189.2,275,189.1,274.6z M160.3,226.3l-3.6-29.2c0.8-0.2,1.5-0.6,2-1.2c0.4-0.5,0.7-1,0.8-1.5l16.7,2.5l47.4,7.2
	c0,0.1,0,0.2,0,0.3c0,0.2,0.1,0.5,0.1,0.7l-59.6,23.6C163.3,227.2,161.9,226.3,160.3,226.3z M157.1,227.7c-0.6,0.7-1,1.7-1,2.6
	L141,231l-12.7,0.6c-0.1-0.8-0.5-1.5-1-2l13.5-16.8l12.8-16c0.6,0.4,1.3,0.6,2,0.6l3.7,29.2C158.3,226.6,157.7,227.1,157.1,227.7z
	 M124.3,234.6c0,0-0.1,0-0.1,0c-1.2,0-2.2-0.9-2.3-2.2c-0.1-1.3,0.9-2.4,2.2-2.5c0,0,0.1,0,0.1,0c1.2,0,2.2,0.9,2.3,2.2
	C126.6,233.4,125.6,234.5,124.3,234.6z M96.5,272.1l-0.9-41.3l-0.4-19.5c0.8-0.1,1.5-0.5,2-1l23.5,19.8c-0.4,0.7-0.7,1.5-0.6,2.4
	c0.1,1.1,0.6,2.1,1.4,2.8L99.2,270l-1.6,2.5C97.3,272.3,96.9,272.1,96.5,272.1z M63.6,184.3l-0.7-27.7l-0.7-28.4
	c0.6-0.1,1.1-0.2,1.6-0.5l21.4,25.5l14,16.7c-0.7,0.8-1.1,1.9-1,3c0,0.2,0.1,0.5,0.1,0.7l-31.6,12.6C66,185.3,64.9,184.5,63.6,184.3
	z M59.5,124.3c-0.1-1.3,0.9-2.4,2.2-2.5c0,0,0.1,0,0.1,0c1.2,0,2.2,0.9,2.3,2.2c0.1,1.3-0.9,2.4-2.2,2.5c0,0-0.1,0-0.1,0
	C60.6,126.5,59.6,125.6,59.5,124.3z M88.1,75c0.1,0,0.2,0,0.3,0c0.5,0,0.9-0.1,1.3-0.3l24.4,41l1.2,2.1c-0.9,0.7-1.4,1.7-1.5,2.8
	l-7.8,0.4l-40.2,2.2c-0.2-1.2-0.9-2.1-1.9-2.7l22.9-45.8C87.3,75,87.7,75,88.1,75z M91.2,73.6c0.1-0.1,0.1-0.2,0.2-0.3l25.9,13.9
	l28,15.1c-0.2,0.5-0.3,1.1-0.2,1.7c0,0.4,0.1,0.8,0.3,1.2L122,118.2l-0.8,0.4c-0.8-1-2-1.6-3.3-1.6c-0.1,0-0.2,0-0.3,0
	c-0.5,0-0.9,0.2-1.3,0.3L90.7,74.1C90.9,74,91.1,73.8,91.2,73.6z M174.2,82.7c0,0,0.1,0,0.1,0c1.2,0,2.2,0.9,2.3,2.2
	c0.1,1.3-0.9,2.4-2.2,2.5c0,0-0.1,0-0.1,0c-1.2,0-2.2-0.9-2.3-2.2C171.9,83.9,172.9,82.8,174.2,82.7z M212.8,68.5l35.7,1.3
	c0.1,1.1,0.7,2.1,1.5,2.8l-13.2,22.7c-0.5-0.2-1-0.3-1.5-0.3c-0.1,0-0.2,0-0.3,0c-0.7,0-1.4,0.3-1.9,0.6l-21.4-25.1
	C212.4,70,212.7,69.3,212.8,68.5z M256.3,71.3l0.3,0.1l26.5,9.6c-0.1,0.4-0.1,0.7-0.1,1.1c0,0.2,0,0.3,0.1,0.5l-44,14.7
	c-0.3-0.5-0.7-1-1.1-1.4l13.2-22.7c0.5,0.2,1,0.3,1.5,0.3c0.1,0,0.2,0,0.3,0C254.4,73.4,255.6,72.5,256.3,71.3z M287.4,86
	c0.2,0,0.4-0.1,0.5-0.1l16.1,45.6c-0.6,0.3-1.1,0.7-1.4,1.3l-63.2-32.3c0.2-0.5,0.3-1,0.2-1.6c0-0.2,0-0.3-0.1-0.5l44-14.7
	c0.7,1.4,2.1,2.3,3.7,2.3C287.2,86,287.3,86,287.4,86z M351.5,145.3c0,0-0.1,0-0.1,0c-1.2,0-2.2-0.9-2.3-2.2
	c-0.1-1.3,0.9-2.4,2.2-2.5c0,0,0.1,0,0.1,0c1.2,0,2.2,0.9,2.3,2.2C353.7,144.1,352.8,145.2,351.5,145.3z M350.4,147l-1.4,19.5
	l-1.1,14.6c-0.7,0-1.3,0.3-1.9,0.6l-37-43.9c0,0,0,0,0,0c0.4-0.4,0.7-0.9,0.8-1.5l37.4,6.4c0,0.1,0,0.2,0,0.4
	C347.3,145.1,348.7,146.6,350.4,147z M350.5,185.1c0.1,1.3-0.9,2.4-2.2,2.5c0,0-0.1,0-0.1,0c-1.2,0-2.2-0.9-2.3-2.2
	c-0.1-1.3,0.9-2.4,2.2-2.5c0,0,0.1,0,0.1,0C349.4,183,350.4,183.9,350.5,185.1z M302.9,215.8c0,0-0.1,0-0.1,0
	c-1.2,0-2.2-0.9-2.3-2.2c-0.1-1.3,0.9-2.4,2.2-2.5c0,0,0.1,0,0.1,0c1.2,0,2.2,0.9,2.3,2.2C305.2,214.6,304.2,215.7,302.9,215.8z
	 M249.5,278.3c-0.1,0-0.2,0-0.3,0c-0.6,0-1.1,0.2-1.6,0.4l-11.1-15.9l-6.2-8.8c0.1-0.1,0.2-0.2,0.3-0.3c0.7-0.8,1.1-1.9,1-3
	c0-0.3-0.1-0.6-0.2-0.9l45.9-21.6c0.3,0.4,0.6,0.7,0.9,1l-6.8,12.3l-20.5,37C250.5,278.4,250,278.3,249.5,278.3z M155.7,195.4
	c0,0-0.1,0-0.1,0c-1.2,0-2.2-0.9-2.3-2.2c-0.1-1.3,0.9-2.4,2.2-2.5c0,0,0.1,0,0.1,0c1.2,0,2.2,0.9,2.3,2.2
	C157.9,194.2,156.9,195.3,155.7,195.4z M126.3,228.7c-0.6-0.4-1.3-0.6-2.1-0.6c-0.1,0-0.2,0-0.3,0c-1,0.1-1.8,0.5-2.5,1l-23.5-19.8
	c0.5-0.7,0.7-1.6,0.6-2.4c0,0,0-0.1,0-0.1l28.5-6.6l24.7-5.7c0.2,0.5,0.5,0.9,0.8,1.3L126.3,228.7z M64.9,126.9
	c0.6-0.7,0.9-1.5,1-2.4l41.3-2.3l6.6-0.4c0.3,1.3,1.1,2.4,2.3,2.9l-13.3,43.9c-0.2,0-0.4-0.1-0.6-0.1c-0.1,0-0.2,0-0.3,0
	c-0.7,0-1.3,0.3-1.9,0.6l-14.3-17l-21.1-25.1C64.8,127,64.9,127,64.9,126.9z M144.4,154.8c0,0,0.1,0,0.1,0c1.2,0,2.2,0.9,2.3,2.2
	c0.1,1.3-0.9,2.4-2.2,2.5c0,0-0.1,0-0.1,0c-1.2,0-2.2-0.9-2.3-2.2C142.1,155.9,143.1,154.8,144.4,154.8z M184.9,121.8
	c0,0,0.1,0,0.1,0c1.2,0,2.2,0.9,2.3,2.2c0.1,1.3-0.9,2.4-2.2,2.5c0,0-0.1,0-0.1,0c-1.2,0-2.2-0.9-2.3-2.2
	C182.6,123,183.6,121.9,184.9,121.8z M308.1,138.6l37,43.9c-0.4,0.4-0.7,1-0.9,1.6l-56.9-8.3l-10.3-1.5c0-0.1,0-0.2,0-0.3
	c-0.1-1-0.5-1.8-1.1-2.5l17.4-20.8l10.2-12.2c0.6,0.4,1.4,0.6,2.2,0.6c0.1,0,0.2,0,0.3,0C306.9,139.2,307.5,139,308.1,138.6z
	 M228.2,247v-38.9c1-0.1,1.8-0.6,2.5-1.3c0.2-0.2,0.3-0.4,0.5-0.6l42.1,17.3l3.7,1.5c-0.1,0.4-0.2,0.8-0.1,1.3
	c0,0.3,0.1,0.6,0.2,0.9L231,248.8C230.4,247.8,229.3,247.2,228.2,247z M225.9,200.3l-8.1-12.8l-6.4-10.1c0.7-0.6,1.3-1.5,1.4-2.5
	h56.1c0.1,0.4,0.2,0.8,0.3,1.2l-38.6,25.3c-0.8-0.9-1.9-1.4-3.1-1.4c-0.1,0-0.2,0-0.3,0C226.8,200,226.3,200.1,225.9,200.3z
	 M155.5,189c-0.1,0-0.2,0-0.3,0c-0.1,0-0.2,0-0.4,0.1l-6.6-21.6l-2-6.7c0.5-0.2,1-0.6,1.3-1c0.3-0.3,0.5-0.7,0.7-1.1l21.6,5.8
	l34.8,9.3c0,0.2,0,0.4,0,0.6c0,0.2,0.1,0.4,0.1,0.6l-6.7,2.3l-39,13.7C158.5,189.9,157.1,189,155.5,189z M151.9,191.1l-1.7-0.6
	l-44-16.8c0.1-0.4,0.1-0.8,0.1-1.2c0-0.2-0.1-0.4-0.1-0.6l34.7-12.8c0.7,1.3,2.1,2.2,3.6,2.2c0.1,0,0.2,0,0.3,0c0.1,0,0.2,0,0.4-0.1
	l8.6,28.2C153,189.8,152.3,190.4,151.9,191.1z M206.5,174.3c-0.1-1.3,0.9-2.4,2.2-2.5c0,0,0.1,0,0.1,0c1.2,0,2.2,0.9,2.3,2.2
	c0.1,1.3-0.9,2.4-2.2,2.5c0,0-0.1,0-0.1,0C207.6,176.5,206.5,175.6,206.5,174.3z M235.4,103.2c0.1,0,0.2,0,0.3,0
	c0.4,0,0.7-0.1,1-0.2l20.7,41.4l13.3,26.5c-0.9,0.6-1.6,1.6-1.7,2.8h-56.1c-0.2-1.4-1-2.5-2.1-3.1l23.9-67.4
	C234.9,103.2,235.1,103.2,235.4,103.2z M275.3,174.2c0.1,1.3-0.9,2.4-2.2,2.5c0,0-0.1,0-0.1,0c-1.2,0-2.2-0.9-2.3-2.2
	c-0.1-1.3,0.9-2.4,2.2-2.5c0,0,0.1,0,0.1,0C274.2,172,275.2,172.9,275.3,174.2z M277.3,223.9l-4.1-1.7l-41.7-17.2
	c0.1-0.4,0.2-0.8,0.1-1.3c0-0.5-0.2-1-0.4-1.5l38.6-25.3c0.8,0.9,1.9,1.4,3.1,1.4c0,0,0,0,0,0l1.2,8.1l5.4,35.5
	C278.6,222.4,277.8,223,277.3,223.9z M302.8,137.9l-10.3,12.3l-17.4,20.7c-0.6-0.4-1.4-0.6-2.2-0.6c-0.1,0-0.2,0-0.3,0
	c-0.4,0-0.7,0.1-1,0.2l-34-67.9c0.4-0.3,0.7-0.6,1-1l63.2,32.3c-0.2,0.5-0.3,1-0.2,1.6C301.8,136.4,302.2,137.2,302.8,137.9z
	 M237.7,99c0.1,1.3-0.9,2.4-2.2,2.5c0,0-0.1,0-0.1,0c-1.2,0-2.2-0.9-2.3-2.2c-0.1-1.3,0.9-2.4,2.2-2.5c0,0,0.1,0,0.1,0
	C236.6,96.8,237.6,97.7,237.7,99z M233.5,102.8l-23.9,67.4c-0.3-0.1-0.6-0.1-0.8-0.1c-0.1,0-0.2,0-0.3,0c-0.3,0-0.7,0.1-1,0.2
	l-13.1-28l-6.9-14.8c0.2-0.2,0.5-0.4,0.7-0.6c0.7-0.8,1.1-1.9,1-3c0-0.3-0.1-0.6-0.2-0.9l43-21.5C232.4,102,232.9,102.4,233.5,102.8
	z M182.4,127.3c0.7,0.6,1.6,1,2.6,1c0.1,0,0.2,0,0.3,0c0.4,0,0.8-0.1,1.1-0.2l7.2,15.4l12.9,27.4c-0.7,0.5-1.2,1.1-1.5,1.9
	l-34.4-9.2l-21.9-5.9c0-0.2,0-0.5,0-0.7c0-0.7-0.3-1.3-0.6-1.8L182.4,127.3z M140.4,157.3c0,0.2,0.1,0.4,0.1,0.6l-34.7,12.8
	c-0.4-0.8-1.1-1.4-1.9-1.8l13.3-43.9c0.2,0,0.4,0.1,0.6,0.1c0.1,0,0.2,0,0.3,0c0.6,0,1.2-0.2,1.7-0.5l21.8,29.5
	C140.8,155,140.4,156.1,140.4,157.3z M120.2,120.9c0.1,1.3-0.9,2.4-2.2,2.5c0,0-0.1,0-0.1,0c-1.2,0-2.2-0.9-2.3-2.2
	c-0.1-1.3,0.9-2.4,2.2-2.5c0,0,0.1,0,0.1,0C119.1,118.7,120.2,119.7,120.2,120.9z M99.9,172.9c-0.1-1.3,0.9-2.4,2.2-2.5
	c0,0,0.1,0,0.1,0c1.2,0,2.2,0.9,2.3,2.2c0.1,1.3-0.9,2.4-2.2,2.5c0,0-0.1,0-0.1,0C101,175.1,100,174.1,99.9,172.9z M102.2,176.9
	c0.1,0,0.2,0,0.3,0c1.1-0.1,2.1-0.6,2.8-1.4c0.2-0.2,0.4-0.5,0.5-0.7l43,16.4l2.7,1c-0.1,0.4-0.1,0.8-0.1,1.2c0,0,0,0.1,0,0.1
	l-53.2,12.3c-0.4-1.1-1.3-1.9-2.4-2.4l6-26.5C102,176.8,102.1,176.9,102.2,176.9z M159.5,192.3L200,178l5.2-1.8
	c0.7,1.3,2,2.1,3.6,2.1c0.1,0,0.2,0,0.3,0c0.5,0,0.9-0.2,1.4-0.3l6.1,9.6l8.4,13.4c-0.6,0.5-1,1.2-1.3,1.9l-45.8-7l-18.2-2.8
	c0-0.1,0-0.2,0-0.3C159.6,192.7,159.6,192.5,159.5,192.3z M225.3,204.2c-0.1-1.3,0.9-2.4,2.2-2.5c0,0,0.1,0,0.1,0
	c1.2,0,2.2,0.9,2.3,2.2c0.1,1.3-0.9,2.4-2.2,2.5c0,0-0.1,0-0.1,0C226.4,206.4,225.3,205.5,225.3,204.2z M227.4,248.8
	c0,0,0.1,0,0.1,0c1.2,0,2.2,0.9,2.3,2.2c0.1,1.3-0.9,2.4-2.2,2.5c0,0-0.1,0-0.1,0c-1.2,0-2.2-0.9-2.3-2.2
	C225.2,249.9,226.2,248.8,227.4,248.8z M278.5,226.2c-0.1-1.3,0.9-2.4,2.2-2.5c0,0,0.1,0,0.1,0c1.2,0,2.2,0.9,2.3,2.2
	c0.1,1.3-0.9,2.4-2.2,2.5c0,0-0.1,0-0.1,0C279.6,228.3,278.6,227.4,278.5,226.2z M280.8,221.9C280.8,221.9,280.8,221.9,280.8,221.9
	l-5.2-33.9l-1.5-9.8c0.3-0.1,0.5-0.2,0.8-0.3l24.8,32.7c-0.8,0.8-1.3,1.9-1.2,3.1c0,0.4,0.1,0.9,0.3,1.2l-14.9,8.5
	C283.3,222.5,282.2,221.9,280.8,221.9z M302.8,209.4c-0.1,0-0.2,0-0.3,0c-0.6,0-1.2,0.2-1.7,0.5l-24.8-32.7c0.1-0.1,0.1-0.1,0.2-0.2
	c0.4-0.5,0.7-1,0.9-1.6l15.6,2.3l51.5,7.5c0,0.1,0,0.2,0,0.3c0,0.5,0.2,1,0.3,1.4l-12.7,7.9l-25.8,16
	C305.2,209.9,304,209.4,302.8,209.4z M308.2,135c0.1,1.3-0.9,2.4-2.2,2.5c0,0-0.1,0-0.1,0c-1.2,0-2.2-0.9-2.3-2.2
	c-0.1-1.3,0.9-2.4,2.2-2.5c0,0,0.1,0,0.1,0C307.1,132.8,308.1,133.8,308.2,135z M211,71.3l21.4,25.1c-0.7,0.8-1.1,1.8-1,3
	c0,0.4,0.1,0.7,0.2,1l-43,21.5c-0.3-0.5-0.7-0.9-1.2-1.2l18.7-45l1.6-4c0.3,0.1,0.7,0.1,1,0.1c0.1,0,0.2,0,0.3,0
	C209.7,71.9,210.4,71.6,211,71.3z M206.7,71.3l-2.3,5.5l-18.1,43.4c-0.4-0.1-0.8-0.2-1.2-0.2c-0.1,0-0.2,0-0.3,0c0,0,0,0-0.1,0
	L176,88.8c1.5-0.7,2.6-2.2,2.5-4c0-0.4-0.1-0.7-0.2-1l27.2-13.6C205.7,70.6,206.2,71,206.7,71.3z M174.3,89.1c0.1,0,0.2,0,0.3,0
	c0.1,0,0.2,0,0.3,0l8.7,31.2c-0.6,0.2-1.2,0.6-1.6,1.1c0,0.1-0.1,0.1-0.1,0.2l-28.8-16.3c0.2-0.5,0.3-1.1,0.3-1.7
	c0-0.6-0.2-1.2-0.5-1.7L162,95l9.5-7.1C172.2,88.7,173.2,89.1,174.3,89.1z M152.5,106.3l28.7,16.2c-0.2,0.6-0.3,1.2-0.3,1.8
	c0,0.7,0.3,1.4,0.7,2l-34.3,27.7c-0.5-0.5-1.2-0.8-1.9-1l2.4-27.5l1.6-17.6c0,0,0,0,0,0C150.7,107.9,151.8,107.2,152.5,106.3z
	 M146.7,125.5l-2.4,27.5c0,0,0,0,0,0c-0.6,0-1.2,0.2-1.7,0.5L120.8,124c0.8-0.8,1.3-1.9,1.2-3.2c0-0.4-0.1-0.8-0.3-1.2l24.2-13.3
	c0.6,0.8,1.4,1.3,2.3,1.5L146.7,125.5z M67.1,187.4l31.6-12.6c0.5,0.8,1.2,1.4,2.1,1.8l-6,26.5c-0.1,0-0.2,0-0.3,0
	c-0.1,0-0.2,0-0.3,0c-1.2,0.1-2.2,0.7-2.9,1.5l-12.1-7.2L66.9,190c0.2-0.6,0.4-1.2,0.3-1.8C67.2,187.9,67.1,187.7,67.1,187.4z
	 M92.1,207.4c-0.1-1.3,0.9-2.4,2.2-2.5c0,0,0.1,0,0.1,0c1.2,0,2.2,0.9,2.3,2.2c0.1,1.3-0.9,2.4-2.2,2.5c0,0-0.1,0-0.1,0
	C93.2,209.5,92.2,208.6,92.1,207.4z M164.3,229.7l59.7-23.6c0.6,1.1,1.7,1.8,3,2V247c-1.4,0.2-2.6,1.1-3.1,2.3l-59.6-18
	c0.1-0.4,0.1-0.8,0.1-1.2C164.3,230,164.3,229.9,164.3,229.7z M302.3,252.2l-18.5-23.4c0,0,0.1-0.1,0.1-0.1c0.7-0.8,1.1-1.9,1-3
	c0-0.4-0.1-0.9-0.3-1.2l14.9-8.5c0.7,0.9,1.7,1.4,2.8,1.6l1.3,34.2C303.1,251.8,302.7,252,302.3,252.2z M331.4,237l-25.1-21.4
	c0.5-0.7,0.7-1.6,0.6-2.4c0-0.5-0.2-1-0.3-1.4l27.9-17.3l10.6-6.6c0.4,0.5,0.9,0.9,1.6,1.2l-0.4,1.5L334.5,236c-0.1,0-0.3,0-0.4,0
	c-0.1,0-0.2,0-0.3,0C332.9,236.1,332,236.4,331.4,237z M371.7,220.3c-0.1,0-0.2,0-0.3,0c-0.5,0-0.9,0.2-1.3,0.3l-19.3-32.2
	c0.2-0.1,0.3-0.3,0.5-0.5c0.7-0.8,1-1.7,1-2.7l22.7-3.2l25.7-3.6c0.2,0.7,0.6,1.4,1.1,1.9l-8.3,11.8l-19.9,28.5
	C373,220.5,372.4,220.3,371.7,220.3z M400.5,177.4l-25.8,3.6l-22.6,3.1c-0.4-1.4-1.6-2.6-3.1-2.9l1-13.5l1.5-20.7
	c1.1-0.1,2.1-0.6,2.8-1.4c0,0,0,0,0,0l46.4,30C400.6,176.3,400.5,176.8,400.5,177.4z M350.9,138.9c-1.6,0.2-3,1.3-3.4,2.8l-37.4-6.5
	c0-0.1,0-0.2,0-0.4c-0.1-0.9-0.4-1.6-0.9-2.3L350.4,90c0.5,0.4,1.1,0.6,1.8,0.7l-0.4,14.3L350.9,138.9z M308.3,131.8
	c-0.7-0.5-1.5-0.8-2.4-0.8c-0.1,0-0.2,0-0.3,0c-0.2,0-0.4,0.1-0.5,0.1L289,85.5c1.1-0.6,1.8-1.6,2.1-2.8l57.6,4.1
	c0.1,0.9,0.4,1.7,0.9,2.3L308.3,131.8z M289.4,81.7c0.1,1.3-0.9,2.4-2.2,2.5c0,0-0.1,0-0.1,0c-1.2,0-2.2-0.9-2.3-2.2
	c-0.1-1.3,0.9-2.4,2.2-2.5c0,0,0.1,0,0.1,0C288.3,79.6,289.3,80.5,289.4,81.7z M255,69.2c0.1,1.3-0.9,2.4-2.2,2.5c0,0-0.1,0-0.1,0
	c-1.2,0-2.2-0.9-2.3-2.2c-0.1-1.3,0.9-2.4,2.2-2.5c0,0,0.1,0,0.1,0C253.9,67,254.9,68,255,69.2z M208.6,65.5c0,0,0.1,0,0.1,0
	c1.2,0,2.2,0.9,2.3,2.2c0.1,1.3-0.9,2.4-2.2,2.5c0,0-0.1,0-0.1,0c-1.2,0-2.2-0.9-2.3-2.2C206.4,66.7,207.4,65.5,208.6,65.5z
	 M168,51.5C168.1,51.5,168.1,51.5,168,51.5l5,29.6c-1.8,0.6-3,2.3-2.9,4.2c0,0.6,0.2,1.2,0.5,1.7l-9.1,6.8l-9.5,7.1
	c-0.3-0.3-0.7-0.6-1.1-0.8l16.2-48.7C167.6,51.5,167.8,51.5,168,51.5z M151.6,103.7c0.1,1.3-0.9,2.4-2.2,2.5c0,0-0.1,0-0.1,0
	c-1.2,0-2.2-0.9-2.3-2.2c-0.1-1.3,0.9-2.4,2.2-2.5c0,0,0.1,0,0.1,0C150.5,101.5,151.5,102.4,151.6,103.7z M90.5,70.8
	c0.1,1.3-0.9,2.4-2.2,2.5c0,0-0.1,0-0.1,0c-1.2,0-2.2-0.9-2.3-2.2c-0.1-1.3,0.9-2.4,2.2-2.5c0,0,0.1,0,0.1,0
	C89.4,68.6,90.4,69.5,90.5,70.8z M38,131.6c0.7-0.8,1.1-1.8,1-2.9l10.5-1.9l8.4-1.5c0.5,1.4,1.6,2.5,3.1,2.8l0.7,27.7l0.7,28.4
	c-0.2,0-0.4,0.1-0.5,0.1l-24.7-52.2C37.5,132.1,37.7,131.9,38,131.6z M60.8,188.6c-0.1-1.3,0.9-2.4,2.2-2.5c0,0,0.1,0,0.1,0
	c1.2,0,2.2,0.9,2.3,2.2c0.1,1.3-0.9,2.4-2.2,2.5c0,0-0.1,0-0.1,0C61.9,190.7,60.8,189.8,60.8,188.6z M63.1,192.5c0.1,0,0.2,0,0.3,0
	c1.1-0.1,2.1-0.6,2.8-1.4c0,0,0.1-0.1,0.1-0.1l12.1,7.2l12.3,7.4c-0.2,0.6-0.4,1.2-0.3,1.8c0,0.6,0.2,1.1,0.5,1.6l-41.9,29.8
	c-0.3-0.4-0.7-0.6-1.2-0.9l14.7-45.5C62.6,192.5,62.8,192.5,63.1,192.5z M91.4,210c0.6,0.7,1.5,1.1,2.5,1.2l0.5,19.9l0.9,40.9
	c-0.9,0.1-1.8,0.6-2.4,1.2l-43.4-29.8c0.3-0.6,0.5-1.3,0.4-2.1c0-0.6-0.2-1.1-0.5-1.6L91.4,210z M93.6,276.3
	c-0.1-1.3,0.9-2.4,2.2-2.5c0,0,0.1,0,0.1,0c1.2,0,2.2,0.9,2.3,2.2c0.1,1.3-0.9,2.4-2.2,2.5c0,0-0.1,0-0.1,0
	C94.7,278.5,93.6,277.5,93.6,276.3z M160.4,232.7c0,0-0.1,0-0.1,0c-1.2,0-2.2-0.9-2.3-2.2c-0.1-1.3,0.9-2.4,2.2-2.5c0,0,0.1,0,0.1,0
	c1.2,0,2.2,0.9,2.3,2.2C162.6,231.5,161.6,232.6,160.4,232.7z M237.8,307.2l10.5-20.9c0.4,0.1,0.8,0.2,1.3,0.2c0.1,0,0.2,0,0.3,0
	c1.1-0.1,2.1-0.6,2.8-1.4c0.1-0.2,0.3-0.3,0.4-0.5l18.9,8.6l25.4,11.5c-0.1,0.3-0.1,0.6-0.1,0.9l-57.7,4.1
	C239.2,308.7,238.6,307.8,237.8,307.2z M304.5,258.1c0,0-0.1,0-0.1,0c-1.2,0-2.2-0.9-2.3-2.2c-0.1-1.3,0.9-2.4,2.2-2.5
	c0,0,0.1,0,0.1,0c1.2,0,2.2,0.9,2.3,2.2C306.7,256.9,305.8,258,304.5,258.1z M334.2,242.4c0,0-0.1,0-0.1,0c-1.2,0-2.2-0.9-2.3-2.2
	c-0.1-1.3,0.9-2.4,2.2-2.5c0,0,0.1,0,0.1,0c1.2,0,2.2,0.9,2.3,2.2C336.5,241.2,335.5,242.3,334.2,242.4z M406.9,177.3
	c0.1,1.3-0.9,2.4-2.2,2.5c0,0-0.1,0-0.1,0c-1.2,0-2.2-0.9-2.3-2.2c-0.1-1.3,0.9-2.4,2.2-2.5c0,0,0.1,0,0.1,0
	C405.8,175.1,406.8,176.1,406.9,177.3z M396.6,123.4c0,0,0.1,0,0.1,0c1.2,0,2.2,0.9,2.3,2.2c0.1,1.3-0.9,2.4-2.2,2.5
	c0,0-0.1,0-0.1,0c-1.2,0-2.2-0.9-2.3-2.2C394.4,124.6,395.3,123.5,396.6,123.4z M381,85.8c0,0,0.1,0,0.1,0c1.2,0,2.2,0.9,2.3,2.2
	c0.1,1.3-0.9,2.4-2.2,2.5c0,0-0.1,0-0.1,0c-1.2,0-2.2-0.9-2.3-2.2C378.7,87,379.7,85.9,381,85.8z M379.7,92c0.4,0.2,0.9,0.3,1.4,0.3
	c0.1,0,0.2,0,0.3,0c0.3,0,0.5-0.1,0.8-0.1l12.5,30.1c-0.4,0.2-0.7,0.5-1,0.8c-0.7,0.8-1.1,1.9-1,3c0,0.2,0.1,0.4,0.1,0.6l-22.4,8.5
	l-15.4,5.8c-0.3-0.5-0.7-1-1.1-1.3L379.7,92z M355.1,86.4c0.1,1.3-0.9,2.4-2.2,2.5c0,0-0.1,0-0.1,0c-1.2,0-2.2-0.9-2.3-2.2
	c-0.1-1.3,0.9-2.4,2.2-2.5c0,0,0.1,0,0.1,0C354,84.3,355,85.2,355.1,86.4z M344.9,40.4c0,0,0.1,0,0.1,0c1.2,0,2.2,0.9,2.3,2.2
	c0.1,1.3-0.9,2.4-2.2,2.5c0,0-0.1,0-0.1,0c-1.2,0-2.2-0.9-2.3-2.2C342.7,41.6,343.6,40.5,344.9,40.4z M341.2,41.3
	c-0.2,0.5-0.3,1.1-0.3,1.7c0,0.6,0.2,1.1,0.4,1.5l-47.8,32.3l-3.4,2.3c-0.8-0.8-1.8-1.4-3-1.4l-9.8-68.7c0.9-0.3,1.6-0.8,2.1-1.5
	L341.2,41.3z M276,2.8c0,0,0.1,0,0.1,0c1.2,0,2.2,0.9,2.3,2.2c0.1,1.3-0.9,2.4-2.2,2.5c0,0-0.1,0-0.1,0c-1.2,0-2.2-0.9-2.3-2.2
	C273.7,4,274.7,2.9,276,2.8z M272.3,6.5c0.3,1,1,1.8,1.9,2.3l-19.4,52.9l-1.3,3.7c-0.3-0.1-0.6-0.1-0.8-0.1c-0.1,0-0.2,0-0.3,0
	c-0.8,0.1-1.6,0.4-2.2,0.8l-44.4-44.4c0.6-0.7,0.9-1.7,0.8-2.6l32.7-6.3L272.3,6.5z M202.4,16.9c0,0,0.1,0,0.1,0
	c1.2,0,2.2,0.9,2.3,2.2c0.1,1.3-0.9,2.4-2.2,2.5c0,0-0.1,0-0.1,0c-1.2,0-2.2-0.9-2.3-2.2C200.1,18.1,201.1,17,202.4,16.9z
	 M186.3,33.3l13.5-11c0.7,0.7,1.7,1.1,2.7,1.1l4.6,35.4l0.7,5.1c-0.9,0.3-1.7,0.9-2.3,1.6L172,48.7c0.2-0.5,0.2-1,0.2-1.6
	c0-0.7-0.3-1.3-0.6-1.9L186.3,33.3z M167.9,45.1c0,0,0.1,0,0.1,0c1.2,0,2.2,0.9,2.3,2.2c0.1,1.3-0.9,2.4-2.2,2.5c0,0-0.1,0-0.1,0
	c-1.2,0-2.2-0.9-2.3-2.2C165.6,46.3,166.6,45.2,167.9,45.1z M164.1,46.4c-0.1,0.4-0.2,0.8-0.1,1.3c0.1,1.5,1,2.8,2.3,3.4l-0.3,0.8
	l-16,47.9c-0.2,0-0.5-0.1-0.7-0.1c-0.1,0-0.2,0-0.3,0c-0.2,0-0.4,0.1-0.5,0.1l-23.9-67.5c0.4-0.2,0.8-0.5,1.2-0.9
	c0.2-0.2,0.3-0.4,0.5-0.6L164.1,46.4z M122.5,26.3c0,0,0.1,0,0.1,0c1.2,0,2.2,0.9,2.3,2.2c0.1,1.3-0.9,2.4-2.2,2.5c0,0-0.1,0-0.1,0
	c-1.2,0-2.2-0.9-2.3-2.2C120.2,27.5,121.2,26.4,122.5,26.3z M118.8,30.2c0.2,0.5,0.5,0.9,0.8,1.2l-29.3,36c-0.6-0.4-1.3-0.6-2.1-0.6
	c-0.1,0-0.2,0-0.3,0c-0.9,0.1-1.7,0.4-2.3,0.9l-2.2-2.1L63.3,46.6c0.5-0.8,0.8-1.7,0.8-2.6c0-0.1,0-0.1,0-0.2L118.8,30.2z M59.8,42
	c0,0,0.1,0,0.1,0c1.2,0,2.2,0.9,2.3,2.2c0.1,1.3-0.9,2.4-2.2,2.5c0,0-0.1,0-0.1,0c-1.2,0-2.2-0.9-2.3-2.2C57.6,43.2,58.5,42,59.8,42
	z M60,48.4c0.1,0,0.2,0,0.3,0c0.9-0.1,1.6-0.4,2.3-0.9l21.1,19.9l1.2,1.1c-0.5,0.7-0.8,1.6-0.8,2.6c0,0.1,0,0.2,0,0.3l-23.3,6.6
	l-24,6.9c-0.2-0.5-0.5-1-0.9-1.4L58.3,48C58.8,48.3,59.4,48.4,60,48.4z M30.7,86.7c-0.1-1.3,0.9-2.4,2.2-2.5c0,0,0.1,0,0.1,0
	c1.2,0,2.2,0.9,2.3,2.2c0.1,1.3-0.9,2.4-2.2,2.5c0,0-0.1,0-0.1,0C31.8,88.9,30.8,88,30.7,86.7z M34.7,126.6c0,0,0.1,0,0.1,0
	c1.2,0,2.2,0.9,2.3,2.2c0.1,1.3-0.9,2.4-2.2,2.5c0,0-0.1,0-0.1,0c-1.2,0-2.2-0.9-2.3-2.2C32.5,127.7,33.5,126.6,34.7,126.6z
	 M15.8,141.3l16-9.8c0.8,0.9,1.9,1.5,3.2,1.5c0.1,0,0.2,0,0.3,0c0.3,0,0.6-0.1,1-0.2L60.8,185c-0.2,0.2-0.4,0.3-0.6,0.5l-49.9-37.4
	c0.4-0.7,0.6-1.4,0.5-2.2c0-0.5-0.2-0.9-0.3-1.4L15.8,141.3z M4.4,146.3c-0.1-1.3,0.9-2.4,2.2-2.5c0,0,0.1,0,0.1,0
	c1.2,0,2.2,0.9,2.3,2.2c0.1,1.3-0.9,2.4-2.2,2.5c0,0-0.1,0-0.1,0C5.5,148.4,4.4,147.5,4.4,146.3z M5.3,200.1c0,0-0.1,0-0.1,0
	c-1.2,0-2.2-0.9-2.3-2.2c-0.1-1.3,0.9-2.4,2.2-2.5c0,0,0.1,0,0.1,0c1.2,0,2.2,0.9,2.3,2.2C7.5,198.9,6.5,200,5.3,200.1z M8.3,200.4
	c0.6-0.8,0.9-1.7,0.9-2.7l49.9-8.1c0.3,1.1,1.1,2,2.1,2.5l-14.7,45.5c-0.2,0-0.5-0.1-0.7-0.1c-0.1,0-0.2,0-0.3,0
	c-0.8,0-1.5,0.3-2.1,0.7l-1.3-1.4L8.3,200.4z M43.5,241.8c-0.1-1.3,0.9-2.4,2.2-2.5c0,0,0.1,0,0.1,0c1.2,0,2.2,0.9,2.3,2.2
	c0.1,1.3-0.9,2.4-2.2,2.5c0,0-0.1,0-0.1,0C44.6,244,43.6,243,43.5,241.8z M46,275.3c0,0-0.1,0-0.1,0c-1.2,0-2.2-0.9-2.3-2.2
	c-0.1-1.3,0.9-2.4,2.2-2.5c0,0,0.1,0,0.1,0c1.2,0,2.2,0.9,2.3,2.2C48.3,274.1,47.3,275.2,46,275.3z M49.2,275.4
	c0.3-0.5,0.6-1,0.7-1.5l41.9,2.6c0.1,1.1,0.6,2,1.3,2.7L83,293.5l-4,5.7c-0.6-0.3-1.2-0.5-1.9-0.5c-0.1,0-0.2,0-0.3,0
	c-0.4,0-0.8,0.1-1.2,0.3l-0.1-0.1l0,0.1c-0.4,0.2-0.8,0.3-1.1,0.6l-17.3-16.4L49.2,275.4z M77.3,305.1c0,0-0.1,0-0.1,0
	c-1.2,0-2.2-0.9-2.3-2.2c-0.1-1.3,0.9-2.4,2.2-2.5c0,0,0.1,0,0.1,0c1.2,0,2.2,0.9,2.3,2.2C79.6,303.9,78.6,305,77.3,305.1z
	 M80.7,300.6c-0.2-0.3-0.4-0.6-0.7-0.8l5.7-8.1l8.4-11.9c0.5,0.3,1.1,0.4,1.8,0.4c0.1,0,0.2,0,0.3,0c1.1-0.1,2.1-0.6,2.8-1.4
	c0.3-0.4,0.6-0.8,0.8-1.3l0.3,0.1l20.1,4.5c0,0.2,0,0.4,0,0.6c0,0.3,0.1,0.6,0.1,0.8L80.7,300.6z M124.3,284.7c0,0-0.1,0-0.1,0
	c-1.2,0-2.2-0.9-2.3-2.2c-0.1-1.3,0.9-2.4,2.2-2.5c0,0,0.1,0,0.1,0c1.2,0,2.2,0.9,2.3,2.2C126.6,283.5,125.6,284.6,124.3,284.7z
	 M131.8,286.3L128,284c0.2-0.6,0.4-1.2,0.3-1.8c-0.1-1.1-0.6-2.1-1.3-2.8l31.5-45.2c0.1,0.1,0.3,0.1,0.4,0.1l-11.1,58.1
	c-0.1,0-0.1,0-0.2,0c-0.1,0-0.2,0-0.3,0c-1.2,0.1-2.2,0.7-2.9,1.5L131.8,286.3z M147.8,298.8c0,0-0.1,0-0.1,0
	c-1.2,0-2.2-0.9-2.3-2.2c-0.1-1.3,0.9-2.4,2.2-2.5c0,0,0.1,0,0.1,0c1.2,0,2.2,0.9,2.3,2.2C150.1,297.6,149.1,298.7,147.8,298.8z
	 M151,294c-0.5-0.7-1.2-1.2-2-1.4l11.1-58.1c0,0,0.1,0,0.1,0c0.1,0,0.2,0,0.3,0c0.4,0,0.7-0.1,1-0.2l21.3,38.6
	c-0.2,0.2-0.4,0.4-0.6,0.6c-0.7,0.8-1.1,1.9-1,3c0,0.4,0.1,0.8,0.3,1.2L151,294z M185.4,278.5c0,0-0.1,0-0.1,0
	c-1.2,0-2.2-0.9-2.3-2.2c-0.1-1.3,0.9-2.4,2.2-2.5c0,0,0.1,0,0.1,0c1.2,0,2.2,0.9,2.3,2.2C187.7,277.3,186.7,278.4,185.4,278.5z
	 M235.6,312.9c0,0-0.1,0-0.1,0c-1.2,0-2.2-0.9-2.3-2.2c-0.1-1.3,0.9-2.4,2.2-2.5c0,0,0.1,0,0.1,0c1.2,0,2.2,0.9,2.3,2.2
	C237.8,311.7,236.8,312.8,235.6,312.9z M301.3,308.2c0,0-0.1,0-0.1,0c-1.2,0-2.2-0.9-2.3-2.2c-0.1-1.3,0.9-2.4,2.2-2.5
	c0,0,0.1,0,0.1,0c1.2,0,2.2,0.9,2.3,2.2C303.6,307,302.6,308.1,301.3,308.2z M305.3,305.5c-0.2-1.8-1.5-3.3-3.3-3.6l2.6-42
	c0.4,0,0.9-0.2,1.3-0.3l27.3,45.1c-0.1,0.1-0.3,0.2-0.4,0.4c-0.4,0.5-0.7,1.1-0.9,1.7L305.3,305.5z M336.1,310.1c0,0-0.1,0-0.1,0
	c-1.2,0-2.2-0.9-2.3-2.2c-0.1-1.3,0.9-2.4,2.2-2.5c0,0,0.1,0,0.1,0c1.2,0,2.2,0.9,2.3,2.2C338.4,308.9,337.4,310,336.1,310.1z
	 M336.2,303.7l-1.4-59.5c0.9-0.2,1.8-0.6,2.4-1.3c0.3-0.4,0.6-0.8,0.8-1.3l37.5,7.8c0,0.2,0,0.3,0,0.5c0.1,1,0.5,1.9,1.2,2.6
	l-39,51.6C337.1,303.8,336.7,303.7,336.2,303.7z M379.7,251.8c0,0-0.1,0-0.1,0c-1.2,0-2.2-0.9-2.3-2.2c-0.1-1.3,0.9-2.4,2.2-2.5
	c0,0,0.1,0,0.1,0c1.2,0,2.2,0.9,2.3,2.2C381.9,250.6,381,251.7,379.7,251.8z M414.1,214.3c0,0-0.1,0-0.1,0c-1.2,0-2.2-0.9-2.3-2.2
	c-0.1-1.3,0.9-2.4,2.2-2.5c0,0,0.1,0,0.1,0c1.2,0,2.2,0.9,2.3,2.2C416.4,213.2,415.4,214.3,414.1,214.3z"/>
<g>
	
		<image style="overflow:visible;opacity:0.35;" width="1500" height="988" xlink:href="402B79EC40CCED13.png"  transform="matrix(0.24 0 0 0.24 73 65)">
	</image>
	<g>
		<path class="st1" d="M399,270H107c-2.2,0-4-1.8-4-4V93h300v173C403,268.2,401.2,270,399,270z"/>
	</g>
</g>
<linearGradient id="SVGID_1_" gradientUnits="userSpaceOnUse" x1="253" y1="70" x2="253" y2="92">
	<stop  offset="1.624756e-02" style="stop-color:#F6F2F4"/>
	<stop  offset="2.187899e-02" style="stop-color:#E6E4E6"/>
	<stop  offset="1" style="stop-color:#D3D1D3"/>
	<stop  offset="1" style="stop-color:#D3D1D3"/>
</linearGradient>
<path class="st2" d="M403,92H103V74c0-2.2,1.8-4,4-4h292c2.2,0,4,1.8,4,4V92z"/>
<g>
	<path d="M226.9,87.7c-0.7,0-1.3-0.2-1.7-0.6c-0.4-0.4-0.6-1-0.6-1.7v-4.5h-1v-1h1v-1.4l1.4-0.1v1.5h2v1h-2v4.3c0,1,0.4,1.5,1.3,1.5
		c0.2,0,0.4,0,0.7-0.1v1C227.6,87.6,227.2,87.7,226.9,87.7z"/>
	<path d="M235.7,87.3c-0.9,0.3-1.7,0.4-2.4,0.4c-1.1,0-2.1-0.4-2.8-1.1s-1.1-1.7-1.1-2.9c0-1.2,0.3-2.1,0.9-2.9
		c0.6-0.7,1.4-1.1,2.4-1.1c0.9,0,1.6,0.3,2.2,1c0.5,0.7,0.8,1.6,0.8,2.8l0,0.4h-4.8c0.2,1.8,1.1,2.7,2.7,2.7c0.6,0,1.3-0.2,2.1-0.5
		V87.3z M230.9,82.8h3.4c0-1.4-0.5-2.1-1.6-2.1C231.6,80.7,231,81.4,230.9,82.8z"/>
	<path d="M238.2,87.5v-7.7h1.4v1.4c0.6-1.1,1.4-1.6,2.4-1.6c0.1,0,0.3,0,0.4,0V81c-0.2-0.1-0.5-0.1-0.6-0.1c-0.9,0-1.6,0.5-2.2,1.6
		v5.1H238.2z"/>
	<path d="M244.2,87.5v-7.7h1.4v1.4c0.7-1.1,1.6-1.6,2.6-1.6c1,0,1.7,0.5,2.1,1.6c0.7-1.1,1.5-1.6,2.6-1.6c0.7,0,1.2,0.2,1.6,0.6
		s0.6,1,0.6,1.7v5.6h-1.4v-5.4c0-0.9-0.3-1.3-1-1.3c-0.7,0-1.5,0.5-2.3,1.5v5.2h-1.4v-5.4c0-0.9-0.4-1.3-1.1-1.3
		c-0.7,0-1.5,0.5-2.3,1.5v5.2H244.2z"/>
	<path d="M257.8,78.4V77h1.4v1.4H257.8z M257.8,87.5v-7.7h1.4v7.7H257.8z"/>
	<path d="M262,87.5v-7.7h1.4v1.4c0.7-1.1,1.6-1.6,2.7-1.6c0.7,0,1.2,0.2,1.6,0.6s0.6,1,0.6,1.7v5.5h-1.4v-5.1c0-0.6-0.1-1-0.3-1.2
		c-0.2-0.2-0.4-0.4-0.8-0.4c-0.9,0-1.7,0.6-2.4,1.7v5H262z"/>
	<path d="M275,86.5c-0.8,0.8-1.6,1.2-2.4,1.2c-0.6,0-1.2-0.2-1.6-0.6s-0.6-0.9-0.6-1.5c0-0.8,0.4-1.5,1.1-1.9c0.7-0.5,1.7-0.7,3-0.7
		h0.3V82c0-0.9-0.5-1.3-1.4-1.3c-0.7,0-1.5,0.2-2.4,0.7v-1.2c0.9-0.4,1.8-0.6,2.6-0.6c0.9,0,1.5,0.2,1.9,0.6s0.6,1,0.6,1.8v3.5
		c0,0.8,0.2,1.2,0.7,1.2c0.1,0,0.2,0,0.3,0l0.1,0.8c-0.3,0.2-0.7,0.2-1,0.2C275.6,87.7,275.2,87.3,275,86.5z M274.8,85.8v-2l-0.5,0
		c-0.8,0-1.4,0.1-1.9,0.4c-0.5,0.3-0.7,0.7-0.7,1.1c0,0.3,0.1,0.6,0.4,0.8c0.2,0.2,0.5,0.3,0.9,0.3
		C273.6,86.5,274.2,86.3,274.8,85.8z"/>
	<path d="M279.1,87.5V76.3h1.4v11.2H279.1z"/>
</g>
<g>
	<path class="st3" d="M124.2,121c-0.4-0.3-0.7-0.5-1-0.6c-0.3-0.1-0.7-0.2-1.2-0.2c-0.4,0-0.8,0.1-1,0.3c-0.2,0.2-0.4,0.4-0.4,0.7
		c0,0.2,0.1,0.4,0.3,0.6s0.5,0.3,0.9,0.4c0.4,0.1,0.7,0.3,1.1,0.4s0.8,0.3,1.1,0.5c0.4,0.2,0.6,0.5,0.9,0.8c0.2,0.3,0.3,0.7,0.3,1.2
		c0,0.7-0.2,1.2-0.7,1.7c-0.5,0.5-1.1,0.8-2,0.9v2.3h-1.2v-2.2c-0.5-0.1-1.1-0.2-1.6-0.4c-0.5-0.2-1-0.5-1.4-0.8l0.8-1.2
		c0.4,0.3,0.9,0.5,1.3,0.7c0.5,0.2,1,0.3,1.5,0.3c0.5,0,0.9-0.1,1.1-0.3s0.4-0.4,0.4-0.7c0-0.3-0.1-0.5-0.3-0.7s-0.5-0.3-0.9-0.5
		s-0.7-0.3-1.1-0.4c-0.4-0.1-0.8-0.3-1.1-0.6c-0.4-0.2-0.6-0.5-0.9-0.8c-0.2-0.3-0.3-0.7-0.3-1.2c0-0.7,0.2-1.2,0.7-1.6
		c0.5-0.4,1.1-0.7,1.8-0.8v-2h1.2v2c0.5,0.1,1,0.2,1.4,0.4c0.4,0.2,0.7,0.5,1.1,0.8L124.2,121z"/>
	<path class="st3" d="M137.4,126.2c0.4,0.3,0.9,0.5,1.4,0.7c0.5,0.2,1,0.3,1.6,0.3c0.6,0,1-0.1,1.3-0.3c0.3-0.2,0.4-0.4,0.4-0.7
		c0-0.3-0.2-0.5-0.5-0.7c-0.4-0.2-0.9-0.4-1.7-0.6c-0.4-0.1-0.7-0.2-1.1-0.3s-0.6-0.3-0.9-0.5c-0.3-0.2-0.5-0.4-0.6-0.6
		c-0.2-0.2-0.2-0.5-0.2-0.8c0-0.7,0.3-1.2,0.9-1.6c0.6-0.4,1.4-0.6,2.5-0.6c0.6,0,1.2,0.1,1.8,0.3s1,0.4,1.4,0.7l-0.8,1.1
		c-0.3-0.2-0.7-0.4-1.1-0.6s-0.8-0.2-1.2-0.2c-0.6,0-1,0.1-1.2,0.2c-0.2,0.2-0.4,0.4-0.4,0.6c0,0.1,0.1,0.3,0.2,0.4
		c0.1,0.1,0.3,0.2,0.4,0.3c0.2,0.1,0.4,0.2,0.7,0.3c0.3,0.1,0.5,0.2,0.9,0.2c0.4,0.1,0.8,0.2,1.2,0.4c0.4,0.1,0.7,0.3,0.9,0.5
		c0.3,0.2,0.5,0.4,0.6,0.6c0.1,0.2,0.2,0.5,0.2,0.8c0,0.3-0.1,0.6-0.2,0.9c-0.2,0.3-0.4,0.5-0.7,0.7c-0.3,0.2-0.7,0.4-1.1,0.5
		c-0.4,0.1-1,0.2-1.5,0.2c-0.7,0-1.4-0.1-2-0.3c-0.7-0.2-1.2-0.5-1.7-0.8L137.4,126.2z"/>
	<path class="st3" d="M152.7,128.3h-1.5l-0.1-1.2H151c-0.4,0.4-0.8,0.8-1.2,1c-0.4,0.3-0.9,0.4-1.5,0.4c-0.9,0-1.5-0.3-1.9-0.8
		s-0.6-1.3-0.6-2.3v-4.7h1.8v4.5c0,0.6,0.1,1.1,0.3,1.4c0.2,0.3,0.6,0.4,1.1,0.4c0.4,0,0.7-0.1,1-0.2c0.3-0.2,0.6-0.5,0.9-0.9v-5.1
		h1.8V128.3z"/>
	<path class="st3" d="M154.7,124.5c0-0.6,0.1-1.2,0.3-1.7c0.2-0.5,0.4-0.9,0.8-1.3c0.3-0.3,0.7-0.6,1.1-0.8c0.4-0.2,0.8-0.3,1.3-0.3
		c0.5,0,0.8,0.1,1.2,0.2c0.3,0.2,0.6,0.4,1,0.7l-0.1-1.3v-2.8h1.8v10.9h-1.5l-0.1-0.9h0c-0.3,0.3-0.6,0.6-1,0.8s-0.8,0.3-1.2,0.3
		c-0.5,0-0.9-0.1-1.3-0.3c-0.4-0.2-0.7-0.4-1-0.8c-0.3-0.3-0.5-0.8-0.7-1.2C154.7,125.7,154.7,125.2,154.7,124.5z M156.5,124.5
		c0,0.8,0.2,1.5,0.5,1.9s0.8,0.6,1.4,0.6c0.6,0,1.2-0.3,1.7-0.9v-3.4c-0.3-0.3-0.5-0.4-0.8-0.5c-0.3-0.1-0.5-0.2-0.8-0.2
		c-0.3,0-0.5,0.1-0.8,0.2s-0.4,0.3-0.6,0.5s-0.3,0.5-0.4,0.8C156.6,123.8,156.5,124.1,156.5,124.5z"/>
	<path class="st3" d="M163.8,124.5c0-0.6,0.1-1.2,0.3-1.7c0.2-0.5,0.5-0.9,0.8-1.3c0.4-0.3,0.8-0.6,1.2-0.8c0.5-0.2,0.9-0.3,1.4-0.3
		s1,0.1,1.4,0.3c0.5,0.2,0.9,0.4,1.2,0.8c0.4,0.3,0.6,0.8,0.8,1.3c0.2,0.5,0.3,1.1,0.3,1.7s-0.1,1.2-0.3,1.7
		c-0.2,0.5-0.5,0.9-0.8,1.3c-0.4,0.3-0.8,0.6-1.2,0.8c-0.5,0.2-0.9,0.3-1.4,0.3s-1-0.1-1.4-0.3c-0.5-0.2-0.9-0.4-1.2-0.8
		c-0.4-0.3-0.6-0.8-0.8-1.3C163.9,125.7,163.8,125.2,163.8,124.5z M165.7,124.5c0,0.8,0.2,1.4,0.5,1.8c0.4,0.5,0.8,0.7,1.5,0.7
		c0.6,0,1.1-0.2,1.5-0.7c0.4-0.5,0.5-1.1,0.5-1.8c0-0.8-0.2-1.4-0.5-1.9c-0.4-0.5-0.8-0.7-1.5-0.7c-0.6,0-1.1,0.2-1.5,0.7
		C165.8,123.1,165.7,123.8,165.7,124.5z"/>
	<path class="st3" d="M184.4,128.9v2.4h-1.8v-10.6h1.5l0.1,0.9h0c0.3-0.3,0.7-0.6,1.1-0.8c0.4-0.2,0.9-0.3,1.3-0.3
		c0.5,0,0.9,0.1,1.3,0.3c0.4,0.2,0.7,0.4,1,0.8c0.3,0.3,0.5,0.7,0.6,1.2c0.1,0.5,0.2,1,0.2,1.6c0,0.7-0.1,1.2-0.3,1.7
		c-0.2,0.5-0.4,0.9-0.8,1.3c-0.3,0.3-0.7,0.6-1.1,0.8c-0.4,0.2-0.8,0.3-1.3,0.3c-0.4,0-0.7-0.1-1.1-0.2c-0.4-0.2-0.7-0.4-1-0.7
		L184.4,128.9z M184.4,126.3c0.3,0.3,0.6,0.4,0.9,0.5c0.3,0.1,0.6,0.2,0.8,0.2c0.5,0,1-0.2,1.4-0.7c0.4-0.4,0.5-1.1,0.5-2
		c0-0.8-0.1-1.4-0.4-1.8c-0.3-0.4-0.7-0.6-1.3-0.6c-0.3,0-0.6,0.1-0.9,0.2s-0.6,0.4-0.9,0.7V126.3z"/>
	<path class="st3" d="M191.7,120.7h5.1v7.6H195v-6.2h-3.3V120.7z M195.8,119.4c-0.4,0-0.7-0.1-0.9-0.3c-0.2-0.2-0.4-0.5-0.4-0.9
		c0-0.4,0.1-0.7,0.4-0.9s0.5-0.3,0.9-0.3c0.4,0,0.7,0.1,0.9,0.3s0.4,0.5,0.4,0.9c0,0.4-0.1,0.7-0.4,0.9
		C196.5,119.3,196.2,119.4,195.8,119.4z"/>
	<path class="st3" d="M202.6,128.9v2.4h-1.8v-10.6h1.5l0.1,0.9h0c0.3-0.3,0.7-0.6,1.1-0.8c0.4-0.2,0.9-0.3,1.3-0.3
		c0.5,0,0.9,0.1,1.3,0.3c0.4,0.2,0.7,0.4,1,0.8c0.3,0.3,0.5,0.7,0.6,1.2c0.1,0.5,0.2,1,0.2,1.6c0,0.7-0.1,1.2-0.3,1.7
		c-0.2,0.5-0.4,0.9-0.8,1.3c-0.3,0.3-0.7,0.6-1.1,0.8c-0.4,0.2-0.8,0.3-1.3,0.3c-0.4,0-0.7-0.1-1.1-0.2c-0.4-0.2-0.7-0.4-1-0.7
		L202.6,128.9z M202.6,126.3c0.3,0.3,0.6,0.4,0.9,0.5c0.3,0.1,0.6,0.2,0.8,0.2c0.5,0,1-0.2,1.4-0.7c0.4-0.4,0.5-1.1,0.5-2
		c0-0.8-0.1-1.4-0.4-1.8c-0.3-0.4-0.7-0.6-1.3-0.6c-0.3,0-0.6,0.1-0.9,0.2s-0.6,0.4-0.9,0.7V126.3z"/>
	<path class="st3" d="M219.2,120.7h5.1v7.6h-1.8v-6.2h-3.3V120.7z M223.2,119.4c-0.4,0-0.7-0.1-0.9-0.3c-0.2-0.2-0.4-0.5-0.4-0.9
		c0-0.4,0.1-0.7,0.4-0.9s0.5-0.3,0.9-0.3c0.4,0,0.7,0.1,0.9,0.3s0.4,0.5,0.4,0.9c0,0.4-0.1,0.7-0.4,0.9
		C223.9,119.3,223.6,119.4,223.2,119.4z"/>
	<path class="st3" d="M228.3,120.7h1.5l0.1,1.1h0.1c0.4-0.4,0.8-0.7,1.2-0.9c0.4-0.3,1-0.4,1.5-0.4c0.9,0,1.5,0.3,1.9,0.8
		s0.6,1.3,0.6,2.3v4.7h-1.8v-4.5c0-0.6-0.1-1.1-0.3-1.4c-0.2-0.3-0.6-0.4-1.1-0.4c-0.4,0-0.7,0.1-1,0.3c-0.3,0.2-0.6,0.4-1,0.8v5.2
		h-1.8V120.7z"/>
	<path class="st3" d="M238,126.2c0.4,0.3,0.9,0.5,1.4,0.7c0.5,0.2,1,0.3,1.6,0.3c0.6,0,1-0.1,1.3-0.3c0.3-0.2,0.4-0.4,0.4-0.7
		c0-0.3-0.2-0.5-0.5-0.7c-0.4-0.2-0.9-0.4-1.7-0.6c-0.4-0.1-0.7-0.2-1.1-0.3s-0.6-0.3-0.9-0.5c-0.3-0.2-0.5-0.4-0.6-0.6
		c-0.2-0.2-0.2-0.5-0.2-0.8c0-0.7,0.3-1.2,0.9-1.6c0.6-0.4,1.4-0.6,2.5-0.6c0.6,0,1.2,0.1,1.8,0.3s1,0.4,1.4,0.7l-0.8,1.1
		c-0.3-0.2-0.7-0.4-1.1-0.6s-0.8-0.2-1.2-0.2c-0.6,0-1,0.1-1.2,0.2c-0.2,0.2-0.4,0.4-0.4,0.6c0,0.1,0.1,0.3,0.2,0.4
		c0.1,0.1,0.3,0.2,0.4,0.3c0.2,0.1,0.4,0.2,0.7,0.3c0.3,0.1,0.5,0.2,0.9,0.2c0.4,0.1,0.8,0.2,1.2,0.4c0.4,0.1,0.7,0.3,0.9,0.5
		c0.3,0.2,0.5,0.4,0.6,0.6c0.1,0.2,0.2,0.5,0.2,0.8c0,0.3-0.1,0.6-0.2,0.9c-0.2,0.3-0.4,0.5-0.7,0.7c-0.3,0.2-0.7,0.4-1.1,0.5
		c-0.4,0.1-1,0.2-1.5,0.2c-0.7,0-1.4-0.1-2-0.3c-0.7-0.2-1.2-0.5-1.7-0.8L238,126.2z"/>
	<path class="st3" d="M248.2,122.1h-2v-1.3l2.1-0.1l0.2-2.1h1.5v2.1h3.5v1.4H250v3.1c0,0.6,0.1,1.1,0.4,1.4c0.3,0.3,0.7,0.4,1.4,0.4
		c0.3,0,0.6,0,0.9-0.1s0.5-0.1,0.8-0.2l0.3,1.3c-0.3,0.1-0.7,0.2-1.1,0.3c-0.4,0.1-0.9,0.1-1.3,0.1c-0.6,0-1.1-0.1-1.5-0.2
		c-0.4-0.2-0.7-0.4-1-0.7c-0.2-0.3-0.4-0.6-0.5-1c-0.1-0.4-0.2-0.8-0.2-1.3V122.1z"/>
	<path class="st3" d="M255.5,126.3c0-0.4,0.1-0.8,0.3-1.1c0.2-0.3,0.5-0.6,0.9-0.8c0.4-0.2,1-0.4,1.6-0.6c0.7-0.1,1.5-0.2,2.4-0.3
		c0-0.4-0.2-0.8-0.5-1.1c-0.3-0.3-0.7-0.4-1.3-0.4c-0.4,0-0.9,0.1-1.3,0.2c-0.4,0.2-0.8,0.3-1.2,0.6l-0.7-1.2c0.5-0.3,1-0.5,1.6-0.7
		c0.6-0.2,1.2-0.3,1.9-0.3c1.1,0,1.9,0.3,2.4,0.8c0.6,0.6,0.8,1.4,0.8,2.4v4.5h-1.5l-0.1-0.9h0c-0.4,0.3-0.8,0.6-1.3,0.8
		c-0.5,0.2-1,0.3-1.5,0.3c-0.4,0-0.7-0.1-1-0.2c-0.3-0.1-0.6-0.3-0.8-0.5s-0.4-0.4-0.5-0.7S255.5,126.6,255.5,126.3z M257.3,126.1
		c0,0.3,0.1,0.6,0.4,0.7c0.3,0.2,0.6,0.2,1,0.2c0.4,0,0.8-0.1,1.1-0.3s0.7-0.4,1.1-0.7v-1.6c-0.7,0.1-1.3,0.1-1.7,0.2
		c-0.5,0.1-0.8,0.2-1.1,0.3c-0.3,0.1-0.5,0.3-0.6,0.5C257.3,125.7,257.3,125.9,257.3,126.1z"/>
	<path class="st3" d="M264.7,117.4h4.2v8.3c0,0.5,0.1,0.9,0.4,1.1c0.3,0.2,0.6,0.3,1,0.3c0.4,0,0.8-0.1,1.3-0.3l0.4,1.3
		c-0.4,0.1-0.7,0.2-1,0.3s-0.7,0.1-1.1,0.1c-0.9,0-1.6-0.3-2-0.8c-0.5-0.5-0.7-1.2-0.7-2.2v-6.8h-2.4V117.4z"/>
	<path class="st3" d="M273.8,117.4h4.2v8.3c0,0.5,0.1,0.9,0.4,1.1c0.3,0.2,0.6,0.3,1,0.3c0.4,0,0.8-0.1,1.3-0.3l0.4,1.3
		c-0.4,0.1-0.7,0.2-1,0.3s-0.7,0.1-1.1,0.1c-0.9,0-1.6-0.3-2-0.8c-0.5-0.5-0.7-1.2-0.7-2.2v-6.8h-2.4V117.4z"/>
	<path class="st3" d="M292.3,117.4h1.8v2.8l-0.1,1.3c0.3-0.3,0.7-0.6,1.1-0.7c0.4-0.2,0.8-0.3,1.2-0.3c0.5,0,0.9,0.1,1.3,0.3
		c0.4,0.2,0.7,0.4,1,0.8c0.3,0.3,0.5,0.7,0.6,1.2c0.1,0.5,0.2,1,0.2,1.6c0,0.7-0.1,1.2-0.3,1.7c-0.2,0.5-0.4,0.9-0.8,1.3
		c-0.3,0.4-0.7,0.6-1.1,0.8c-0.4,0.2-0.8,0.3-1.3,0.3c-0.4,0-0.7-0.1-1.1-0.3c-0.4-0.2-0.8-0.4-1.1-0.8h0l-0.2,0.8h-1.4V117.4z
		 M294.1,126.3c0.3,0.3,0.6,0.4,0.9,0.5c0.3,0.1,0.6,0.2,0.8,0.2c0.5,0,1-0.2,1.3-0.7c0.4-0.4,0.5-1.1,0.5-2c0-0.8-0.1-1.4-0.4-1.8
		c-0.3-0.4-0.7-0.6-1.3-0.6c-0.3,0-0.6,0.1-0.9,0.2s-0.6,0.4-0.9,0.7V126.3z"/>
	<path class="st3" d="M301.3,117.4h4.2v8.3c0,0.5,0.1,0.9,0.4,1.1c0.3,0.2,0.6,0.3,1,0.3c0.4,0,0.8-0.1,1.3-0.3l0.4,1.3
		c-0.4,0.1-0.7,0.2-1,0.3s-0.7,0.1-1.1,0.1c-0.9,0-1.6-0.3-2-0.8c-0.5-0.5-0.7-1.2-0.7-2.2v-6.8h-2.4V117.4z"/>
	<path class="st3" d="M310.1,124.5c0-0.6,0.1-1.2,0.3-1.7c0.2-0.5,0.5-0.9,0.8-1.3c0.4-0.3,0.8-0.6,1.2-0.8c0.5-0.2,0.9-0.3,1.4-0.3
		s1,0.1,1.4,0.3c0.5,0.2,0.9,0.4,1.2,0.8c0.4,0.3,0.6,0.8,0.8,1.3c0.2,0.5,0.3,1.1,0.3,1.7s-0.1,1.2-0.3,1.7
		c-0.2,0.5-0.5,0.9-0.8,1.3c-0.4,0.3-0.8,0.6-1.2,0.8c-0.5,0.2-0.9,0.3-1.4,0.3s-1-0.1-1.4-0.3c-0.5-0.2-0.9-0.4-1.2-0.8
		c-0.4-0.3-0.6-0.8-0.8-1.3C310.2,125.7,310.1,125.2,310.1,124.5z M312,124.5c0,0.8,0.2,1.4,0.5,1.8c0.4,0.5,0.8,0.7,1.5,0.7
		c0.6,0,1.1-0.2,1.5-0.7c0.4-0.5,0.5-1.1,0.5-1.8c0-0.8-0.2-1.4-0.5-1.9c-0.4-0.5-0.8-0.7-1.5-0.7c-0.6,0-1.1,0.2-1.5,0.7
		C312.2,123.1,312,123.8,312,124.5z"/>
	<path class="st3" d="M319.6,124.5c0-0.6,0.1-1.2,0.3-1.7c0.2-0.5,0.5-0.9,0.9-1.3c0.4-0.3,0.9-0.6,1.4-0.8c0.5-0.2,1.1-0.3,1.7-0.3
		c0.6,0,1.2,0.1,1.6,0.3c0.5,0.2,0.9,0.5,1.2,0.8l-0.9,1.1c-0.3-0.2-0.6-0.4-0.9-0.5s-0.6-0.2-1-0.2c-0.8,0-1.4,0.2-1.9,0.7
		c-0.5,0.5-0.7,1.1-0.7,1.9c0,0.4,0.1,0.7,0.2,1c0.1,0.3,0.3,0.6,0.5,0.8c0.2,0.2,0.5,0.4,0.8,0.5s0.7,0.2,1,0.2
		c0.4,0,0.8-0.1,1.2-0.2c0.4-0.2,0.7-0.4,1-0.6l0.7,1.1c-0.4,0.4-0.9,0.7-1.5,0.9c-0.5,0.2-1.1,0.3-1.6,0.3c-0.6,0-1.2-0.1-1.7-0.3
		c-0.5-0.2-1-0.4-1.3-0.8c-0.4-0.3-0.7-0.8-0.9-1.3S319.6,125.2,319.6,124.5z"/>
	<path class="st3" d="M329,117.4h1.8v6.9h0.1l3.4-3.5h2l-2.9,3.1l3.3,4.5h-2l-2.4-3.4l-1.5,1.5v2H329V117.4z"/>
	<path class="st3" d="M338.5,126.2c0.4,0.3,0.9,0.5,1.4,0.7c0.5,0.2,1,0.3,1.6,0.3c0.6,0,1-0.1,1.3-0.3c0.3-0.2,0.4-0.4,0.4-0.7
		c0-0.3-0.2-0.5-0.5-0.7c-0.4-0.2-0.9-0.4-1.7-0.6c-0.4-0.1-0.7-0.2-1.1-0.3s-0.6-0.3-0.9-0.5c-0.3-0.2-0.5-0.4-0.6-0.6
		c-0.2-0.2-0.2-0.5-0.2-0.8c0-0.7,0.3-1.2,0.9-1.6c0.6-0.4,1.4-0.6,2.5-0.6c0.6,0,1.2,0.1,1.8,0.3s1,0.4,1.4,0.7l-0.8,1.1
		c-0.3-0.2-0.7-0.4-1.1-0.6s-0.8-0.2-1.2-0.2c-0.6,0-1,0.1-1.2,0.2c-0.2,0.2-0.4,0.4-0.4,0.6c0,0.1,0.1,0.3,0.2,0.4
		c0.1,0.1,0.3,0.2,0.4,0.3c0.2,0.1,0.4,0.2,0.7,0.3c0.3,0.1,0.5,0.2,0.9,0.2c0.4,0.1,0.8,0.2,1.2,0.4c0.4,0.1,0.7,0.3,0.9,0.5
		c0.3,0.2,0.5,0.4,0.6,0.6c0.1,0.2,0.2,0.5,0.2,0.8c0,0.3-0.1,0.6-0.2,0.9c-0.2,0.3-0.4,0.5-0.7,0.7c-0.3,0.2-0.7,0.4-1.1,0.5
		c-0.4,0.1-1,0.2-1.5,0.2c-0.7,0-1.4-0.1-2-0.3c-0.7-0.2-1.2-0.5-1.7-0.8L338.5,126.2z"/>
	<path class="st3" d="M348.8,122.1h-2v-1.3l2.1-0.1l0.2-2.1h1.5v2.1h3.5v1.4h-3.5v3.1c0,0.6,0.1,1.1,0.4,1.4
		c0.3,0.3,0.7,0.4,1.4,0.4c0.3,0,0.6,0,0.9-0.1s0.5-0.1,0.8-0.2l0.3,1.3c-0.3,0.1-0.7,0.2-1.1,0.3c-0.4,0.1-0.9,0.1-1.3,0.1
		c-0.6,0-1.1-0.1-1.5-0.2c-0.4-0.2-0.7-0.4-1-0.7c-0.2-0.3-0.4-0.6-0.5-1c-0.1-0.4-0.2-0.8-0.2-1.3V122.1z"/>
	<path class="st3" d="M356.1,126.3c0-0.4,0.1-0.8,0.3-1.1c0.2-0.3,0.5-0.6,0.9-0.8c0.4-0.2,1-0.4,1.6-0.6c0.7-0.1,1.5-0.2,2.4-0.3
		c0-0.4-0.2-0.8-0.5-1.1c-0.3-0.3-0.7-0.4-1.3-0.4c-0.4,0-0.9,0.1-1.3,0.2c-0.4,0.2-0.8,0.3-1.2,0.6l-0.7-1.2c0.5-0.3,1-0.5,1.6-0.7
		c0.6-0.2,1.2-0.3,1.9-0.3c1.1,0,1.9,0.3,2.4,0.8c0.6,0.6,0.8,1.4,0.8,2.4v4.5h-1.5l-0.1-0.9h0c-0.4,0.3-0.8,0.6-1.3,0.8
		c-0.5,0.2-1,0.3-1.5,0.3c-0.4,0-0.7-0.1-1-0.2c-0.3-0.1-0.6-0.3-0.8-0.5s-0.4-0.4-0.5-0.7S356.1,126.6,356.1,126.3z M357.9,126.1
		c0,0.3,0.1,0.6,0.4,0.7c0.3,0.2,0.6,0.2,1,0.2c0.4,0,0.8-0.1,1.1-0.3s0.7-0.4,1.1-0.7v-1.6c-0.7,0.1-1.3,0.1-1.7,0.2
		c-0.5,0.1-0.8,0.2-1.1,0.3c-0.3,0.1-0.5,0.3-0.6,0.5C357.9,125.7,357.9,125.9,357.9,126.1z"/>
	<path class="st3" d="M365.3,124.5c0-0.6,0.1-1.2,0.3-1.7c0.2-0.5,0.5-0.9,0.9-1.3c0.4-0.3,0.9-0.6,1.4-0.8c0.5-0.2,1.1-0.3,1.7-0.3
		c0.6,0,1.2,0.1,1.6,0.3c0.5,0.2,0.9,0.5,1.2,0.8l-0.9,1.1c-0.3-0.2-0.6-0.4-0.9-0.5s-0.6-0.2-1-0.2c-0.8,0-1.4,0.2-1.9,0.7
		c-0.5,0.5-0.7,1.1-0.7,1.9c0,0.4,0.1,0.7,0.2,1c0.1,0.3,0.3,0.6,0.5,0.8c0.2,0.2,0.5,0.4,0.8,0.5s0.7,0.2,1,0.2
		c0.4,0,0.8-0.1,1.2-0.2c0.4-0.2,0.7-0.4,1-0.6l0.7,1.1c-0.4,0.4-0.9,0.7-1.5,0.9c-0.5,0.2-1.1,0.3-1.6,0.3c-0.6,0-1.2-0.1-1.7-0.3
		c-0.5-0.2-1-0.4-1.3-0.8c-0.4-0.3-0.7-0.8-0.9-1.3S365.3,125.2,365.3,124.5z"/>
	<path class="st3" d="M374.7,117.4h1.8v6.9h0.1l3.4-3.5h2l-2.9,3.1l3.3,4.5h-2l-2.4-3.4l-1.5,1.5v2h-1.8V117.4z"/>
</g>
<rect x="103" y="92" class="st4" width="300" height="1"/>
</svg>
