<?xml version="1.0" encoding="UTF-8" standalone="no"?>
<svg width="393px" height="291px" viewBox="0 0 393 291" version="1.1" xmlns="http://www.w3.org/2000/svg" xmlns:xlink="http://www.w3.org/1999/xlink">
    <!-- Generator: Sketch 39.1 (31720) - http://www.bohemiancoding.com/sketch -->
    <title>silhouette</title>
    <desc>Created with Sketch.</desc>
    <defs>
        <filter x="-50%" y="-50%" width="200%" height="200%" filterUnits="objectBoundingBox" id="filter-1">
            <feOffset dx="0" dy="2" in="SourceAlpha" result="shadowOffsetOuter1"></feOffset>
            <feGaussianBlur stdDeviation="12" in="shadowOffsetOuter1" result="shadowBlurOuter1"></feGaussianBlur>
            <feColorMatrix values="0 0 0 0 0   0 0 0 0 0   0 0 0 0 0  0 0 0 0.65 0" type="matrix" in="shadowBlurOuter1" result="shadowMatrixOuter1"></feColorMatrix>
            <feMerge>
                <feMergeNode in="shadowMatrixOuter1"></feMergeNode>
                <feMergeNode in="SourceGraphic"></feMergeNode>
            </feMerge>
        </filter>
        <rect id="path-2" x="0" y="0" width="339" height="239" rx="6"></rect>
        <mask id="mask-3" maskContentUnits="userSpaceOnUse" maskUnits="objectBoundingBox" x="-3.75" y="-3.75" width="346.5" height="246.5">
            <rect x="-3.75" y="-3.75" width="346.5" height="246.5" fill="white"></rect>
            <use xlink:href="#path-2" fill="black"></use>
        </mask>
    </defs>
    <g id="website-(blockstack)" stroke="none" stroke-width="1" fill="none" fill-rule="evenodd">
        <g id="blockstack-v2-Home" transform="translate(-945.000000, -387.000000)">
            <g id="hero" transform="translate(335.000000, 183.000000)">
                <g id="hero-pip-install-blockstack" transform="translate(637.000000, 228.000000)">
                    <g id="silhouette" filter="url(#filter-1)">
                        <rect id="window-copy" fill="#151515" x="0" y="0" width="339" height="239" rx="6"></rect>
                        <use id="window" stroke="#FFFFFF" mask="url(#mask-3)" stroke-width="7.5" stroke-dasharray="12,7.5" opacity="0.304477612" xlink:href="#path-2"></use>
                        <g id="line" opacity="0.35" transform="translate(0.000000, 60.000000)" fill="#FFFFFF">
                            <rect id="Rectangle" x="0" y="0" width="10" height="4"></rect>
                            <rect id="Rectangle-Copy" x="16" y="0" width="10" height="4"></rect>
                            <rect id="Rectangle-Copy-2" x="33" y="0" width="10" height="4"></rect>
                            <rect id="Rectangle-Copy-3" x="49" y="0" width="10" height="4"></rect>
                            <rect id="Rectangle-Copy-4" x="66" y="0" width="10" height="4"></rect>
                            <rect id="Rectangle-Copy-5" x="82" y="0" width="10" height="4"></rect>
                            <rect id="Rectangle-Copy-6" x="99" y="0" width="10" height="4"></rect>
                            <rect id="Rectangle-Copy-7" x="115" y="0" width="10" height="4"></rect>
                            <rect id="Rectangle-Copy-8" x="132" y="0" width="10" height="4"></rect>
                            <rect id="Rectangle-Copy-9" x="148" y="0" width="10" height="4"></rect>
                            <rect id="Rectangle-Copy-10" x="165" y="0" width="10" height="4"></rect>
                            <rect id="Rectangle-Copy-11" x="181" y="0" width="10" height="4"></rect>
                            <rect id="Rectangle-Copy-12" x="197" y="0" width="10" height="4"></rect>
                            <rect id="Rectangle-Copy-13" x="214" y="0" width="10" height="4"></rect>
                            <rect id="Rectangle-Copy-14" x="230" y="0" width="10" height="4"></rect>
                            <rect id="Rectangle-Copy-15" x="247" y="0" width="10" height="4"></rect>
                            <rect id="Rectangle-Copy-16" x="263" y="0" width="10" height="4"></rect>
                            <rect id="Rectangle-Copy-17" x="280" y="0" width="10" height="4"></rect>
                            <rect id="Rectangle-Copy-18" x="296" y="0" width="10" height="4"></rect>
                            <rect id="Rectangle-Copy-19" x="313" y="0" width="10" height="4"></rect>
                            <rect id="Rectangle-Copy-20" x="329" y="0" width="10" height="4"></rect>
                        </g>
                        <text id="?" opacity="0.75" font-family="Raleway-SemiBold, Raleway" font-size="75" font-weight="500" fill="#FFFFFF">
                            <tspan x="155.275" y="160">?</tspan>
                        </text>
                    </g>
                </g>
            </g>
        </g>
    </g>
</svg>