<?xml version="1.0" encoding="UTF-8" standalone="no"?>
<svg width="500px" height="381px" viewBox="0 0 500 381" version="1.1" xmlns="http://www.w3.org/2000/svg" xmlns:xlink="http://www.w3.org/1999/xlink">
    <!-- Generator: Sketch 40.1 (33804) - http://www.bohemiancoding.com/sketch -->
    <title>silhouette</title>
    <desc>Created with Sketch.</desc>
    <defs>
        <filter x="-50%" y="-50%" width="200%" height="200%" filterUnits="objectBoundingBox" id="filter-1">
            <feOffset dx="0" dy="2" in="SourceAlpha" result="shadowOffsetOuter1"></feOffset>
            <feGaussianBlur stdDeviation="12" in="shadowOffsetOuter1" result="shadowBlurOuter1"></feGaussianBlur>
            <feColorMatrix values="0 0 0 0 0   0 0 0 0 0   0 0 0 0 0  0 0 0 0.65 0" type="matrix" in="shadowBlurOuter1" result="shadowMatrixOuter1"></feColorMatrix>
            <feMerge>
                <feMergeNode in="shadowMatrixOuter1"></feMergeNode>
                <feMergeNode in="SourceGraphic"></feMergeNode>
            </feMerge>
        </filter>
        <linearGradient x1="50%" y1="1.624756%" x2="50%" y2="100%" id="linearGradient-2">
            <stop stop-color="#F6F2F4" offset="0%"></stop>
            <stop stop-color="#E6E4E6" offset="2.187899%"></stop>
            <stop stop-color="#D3D1D3" offset="100%"></stop>
            <stop stop-color="#D3D1D3" offset="100%"></stop>
        </linearGradient>
        <circle id="path-3" cx="4.31120944" cy="3.56694561" r="3.5"></circle>
        <mask id="mask-4" maskContentUnits="userSpaceOnUse" maskUnits="objectBoundingBox" x="-1.6" y="-1.6" width="10.2" height="10.2">
            <rect x="-0.78879056" y="-1.53305439" width="10.2" height="10.2" fill="white"></rect>
            <use xlink:href="#path-3" fill="black"></use>
        </mask>
        <circle id="path-5" cx="19.3112094" cy="3.56694561" r="3.5"></circle>
        <mask id="mask-6" maskContentUnits="userSpaceOnUse" maskUnits="objectBoundingBox" x="-1.6" y="-1.6" width="10.2" height="10.2">
            <rect x="14.2112094" y="-1.53305439" width="10.2" height="10.2" fill="white"></rect>
            <use xlink:href="#path-5" fill="black"></use>
        </mask>
        <circle id="path-7" cx="34.3112094" cy="3.56694561" r="3.5"></circle>
        <mask id="mask-8" maskContentUnits="userSpaceOnUse" maskUnits="objectBoundingBox" x="-1.6" y="-1.6" width="10.2" height="10.2">
            <rect x="29.2112094" y="-1.53305439" width="10.2" height="10.2" fill="white"></rect>
            <use xlink:href="#path-7" fill="black"></use>
        </mask>
    </defs>
    <g id="website-(blockstack)" stroke="none" stroke-width="1" fill="none" fill-rule="evenodd">
        <g id="bskorg-v3-home" transform="translate(-546.000000, -261.000000)">
            <g id="hero" transform="translate(0.000000, 78.000000)">
                <g id="hero-pip-install-blockstack" transform="translate(562.000000, 198.000000)">
                    <g id="silhouette" filter="url(#filter-1)">
                        <path d="M455.059332,227.912767 L454.728864,227.912767 L454.508552,227.912767 L446.467164,198.501114 C447.017944,198.280802 447.568724,197.840178 448.119504,197.399554 C448.890596,196.518306 449.33122,195.30659 449.221064,194.094874 C449.110908,191.671442 447.1281,189.79879 444.704668,189.79879 L444.704668,189.79879 L444.043732,185.172238 L437.434372,141.770774 C439.41718,141.219994 440.739052,139.237186 440.628896,137.144222 C440.51874,134.72079 438.535932,132.848138 436.1125,132.848138 L435.782032,132.848138 C435.451564,132.848138 435.231252,132.958294 434.900784,132.958294 L428.621892,117.977077 L421.021128,99.8013372 C422.453156,98.9200891 423.334404,97.3779051 423.224248,95.6154091 C423.114092,93.1919771 421.131284,91.3193251 418.707852,91.3193251 L418.377384,91.3193251 C415.843796,91.4294811 413.971144,93.6326011 414.0813,96.1661891 C414.191456,97.5982171 414.852392,98.6997771 415.953952,99.4708691 L387.423548,152.015282 C387.203236,151.905126 386.872768,151.79497 386.652456,151.79497 L387.754016,113.020057 L388.19464,98.5896211 C389.2962,98.4794651 390.287604,97.9286851 390.94854,97.1575931 C391.719632,96.2763451 392.160256,95.0646291 392.0501,93.8529131 C391.939944,91.4294811 389.957136,89.556829 387.533704,89.556829 L387.533704,89.556829 L380.48372,50.1209806 C382.356372,49.4600446 383.678244,47.5873926 383.568088,45.4944285 C383.457932,43.0709965 381.475124,41.1983445 379.051691,41.1983445 L378.721223,41.1983445 C377.289195,41.3085005 376.187635,41.9694365 375.416543,43.0709965 L307.450291,6.16873607 C307.670603,5.61795606 307.780759,4.95702006 307.780759,4.29608405 C307.670603,1.87265202 305.687795,0 303.264363,0 L302.933895,0 C300.510463,0.110156001 298.527655,2.31327603 298.637811,4.73670805 L262.616798,11.6765361 L226.265318,18.6163642 C225.604382,16.8538682 223.952042,15.5319962 221.969234,15.5319962 L221.638766,15.5319962 C219.105178,15.6421522 217.232526,17.8452722 217.342682,20.3788602 C217.342682,21.1499522 217.67315,21.8108883 218.003618,22.4718243 L203.132557,34.6991404 L187.049781,47.9178606 C186.278689,47.1467685 185.177129,46.7061445 183.965413,46.7061445 L183.634945,46.7061445 C182.092761,46.8163005 180.770889,47.6975486 179.999797,48.9092646 L138.250673,31.6147724 C138.360829,31.1741484 138.470985,30.7335244 138.360829,30.1827443 C138.250673,27.7593123 136.267865,25.8866603 133.844433,25.8866603 L133.513965,25.8866603 C130.980377,25.9968163 129.107725,28.1999363 129.217881,30.7335244 L129.217881,30.9538364 L69.2930159,45.9350525 C68.6320799,44.2827125 66.9797399,43.0709965 65.1070879,43.0709965 L64.7766199,43.0709965 C62.2430318,43.1811525 60.3703798,45.3842725 60.4805358,47.9178606 C60.5906918,49.2397326 61.1414718,50.3412926 62.1328758,51.1123846 L37.4579315,90.327921 C36.7969955,89.997453 36.1360595,89.777141 35.3649675,89.777141 L35.0344995,89.777141 C33.8227835,89.887297 32.7212235,90.438077 31.9501315,91.3193251 C31.1790395,92.2005731 30.7384155,93.4122891 30.8485715,94.6240051 C30.9587275,96.9372811 32.9415355,98.8099331 35.2548115,98.9200891 L35.5852795,108.613817 L36.5766835,136.593442 C34.3735635,137.034066 32.7212235,139.016874 32.8313795,141.33015 C32.8313795,141.88093 33.0516915,142.321554 33.1618475,142.872334 L9.69861921,157.192614 C9.03768321,155.980898 7.82596719,155.319962 6.39393918,155.319962 L6.06347117,155.319962 C3.52988314,155.430118 1.65723112,157.633238 1.76738712,160.166826 C1.87754312,162.25979 3.52988314,164.022286 5.51269117,164.352754 L4.08066315,212.38077 C1.65723112,212.601082 -0.1052649,214.694046 0.00489110152,217.117479 C0.115047103,219.540911 2.09785513,221.413563 4.52128715,221.413563 L4.85175516,221.413563 C5.73300317,221.413563 6.50409518,221.083095 7.16503118,220.642471 L45.9399436,262.391595 C45.2790076,263.272843 44.8383836,264.374403 44.9485396,265.475963 C45.0586956,267.679083 46.7110356,269.331423 48.8039997,269.661891 L48.8039997,295.218083 C47.7024397,295.328239 46.7110356,295.879019 46.0500996,296.650111 C45.2790076,297.531359 44.8383836,298.743075 44.9485396,299.954791 C45.0586956,302.378223 47.0415036,304.250876 49.4649357,304.250876 L49.7954037,304.250876 C50.7868077,304.14072 51.6680557,303.810252 52.3289917,303.259472 L80.308616,329.917224 C79.757836,330.688316 79.427368,331.789876 79.427368,332.78128 C79.537524,335.204712 81.520332,337.077364 83.9437641,337.077364 L84.2742321,337.077364 C85.4859481,336.967208 86.5875081,336.416428 87.3586001,335.53518 C88.1296921,334.653932 88.5703161,333.442216 88.4601601,332.2305 C88.4601601,331.900032 88.3500041,331.569564 88.3500041,331.349252 L131.861625,312.512576 C132.632717,313.834448 134.064745,314.715696 135.717085,314.715696 L136.047553,314.715696 C137.259269,314.60554 138.360829,314.05476 139.131921,313.173512 L139.242077,313.063356 L144.529565,316.25788 L157.527973,324.078956 C157.307661,324.739892 157.087349,325.400828 157.197505,326.061764 C157.307661,328.485196 159.290469,330.357848 161.713901,330.357848 L162.044369,330.357848 C163.256085,330.247692 164.357645,329.696912 165.128737,328.815664 C165.899829,327.934416 166.340453,326.7227 166.230297,325.510984 C166.230297,325.07036 166.120141,324.629736 165.899829,324.189112 L199.387253,306.013372 C200.268501,307.114932 201.590373,307.886024 203.022401,307.886024 L203.352869,307.886024 C204.564585,307.775868 205.666145,307.225088 206.437237,306.453996 L254.244942,339.39064 C253.914474,340.051576 253.694162,340.822668 253.804318,341.703916 C253.914474,344.127348 255.897282,346 258.320714,346 L258.651182,346 C259.862898,345.889844 260.964458,345.339064 261.73555,344.457816 C262.396486,343.686724 262.726954,342.805476 262.83711,341.814072 L326.397123,337.297676 C326.837747,339.39064 328.710399,340.822668 330.803363,340.822668 L331.133831,340.822668 C332.345547,340.712512 333.447107,340.161732 334.218199,339.280484 C334.768979,338.619548 335.099447,337.958612 335.209603,337.077364 L364.511099,338.399236 L364.511099,338.619548 C364.621255,341.04298 366.604063,342.915632 369.027495,342.915632 L369.357963,342.915632 C370.569679,342.805476 371.671239,342.254696 372.442331,341.373448 C373.213423,340.4922 373.654047,339.280484 373.543891,338.068768 C373.433735,336.746896 372.772799,335.645336 371.891551,334.874244 L414.852392,278.143903 C415.513328,278.474371 416.28442,278.694683 417.055512,278.694683 L417.38598,278.694683 C418.597696,278.584527 419.699256,278.033747 420.470348,277.152499 C421.24144,276.271251 421.682064,275.059535 421.571908,273.847819 C421.461752,272.856415 421.131284,271.975167 420.580504,271.314231 L451.974964,237.055715 L452.415588,236.615091 C453.18668,237.165871 454.067928,237.496339 455.059332,237.496339 L455.3898,237.496339 C457.923388,237.386183 459.79604,235.183063 459.685884,232.649475 C459.465572,229.785419 457.482764,227.912767 455.059332,227.912767 L455.059332,227.912767 Z M453.296836,228.243235 C451.53434,229.014327 450.43278,230.666667 450.542936,232.649475 L450.542936,232.869787 L432.697664,238.157275 L412.539116,244.105699 C412.318804,243.554919 411.988336,243.114295 411.547712,242.673671 L432.80782,212.270614 L442.611704,198.170646 C443.27264,198.501114 443.933576,198.721426 444.594512,198.721426 L444.92498,198.721426 L445.145292,198.721426 L453.296836,228.243235 L453.296836,228.243235 Z M417.055512,269.221267 L416.725044,269.221267 C416.614888,269.221267 416.394576,269.221267 416.28442,269.331423 L410.335996,250.274435 C410.886776,250.054123 411.3274,249.613499 411.768024,249.172875 C412.539116,248.291627 412.97974,247.079911 412.869584,245.868195 C412.869584,245.758039 412.869584,245.647883 412.759428,245.537727 L431.596104,239.919771 L450.763248,234.301815 C450.873404,234.632283 451.093716,234.962751 451.314028,235.293219 L419.478944,269.992359 C418.928164,269.551735 418.046916,269.221267 417.055512,269.221267 L417.055512,269.221267 Z M412.869584,272.195479 L371.561083,263.713467 L371.561083,263.162687 C371.561083,262.832219 371.450927,262.611907 371.450927,262.281439 L404.607884,248.511939 C405.378976,249.833811 406.811004,250.715059 408.463344,250.715059 L408.793812,250.715059 C408.903968,250.715059 409.12428,250.715059 409.234436,250.604903 L415.18286,269.661891 C414.0813,270.212671 413.200052,271.093919 412.869584,272.195479 L412.869584,272.195479 Z M367.264999,333.772684 L337.192411,284.092327 C337.412723,283.982171 337.522879,283.761859 337.743191,283.651703 C338.514283,282.770455 338.954907,281.558739 338.844751,280.347023 C338.844751,279.906399 338.734595,279.465775 338.624439,279.135307 L363.519695,266.026743 C364.290787,267.018147 365.392347,267.679083 366.604063,267.899395 L368.146247,333.552372 C367.705623,333.552372 367.485311,333.662528 367.264999,333.772684 L367.264999,333.772684 Z M330.472895,331.349252 C329.040867,331.459408 327.718995,332.2305 327.058059,333.442216 L299.849527,321.104744 L278.25895,311.30086 C278.369106,310.75008 278.479262,310.309456 278.479262,309.758676 C278.479262,309.428208 278.369106,308.987584 278.25895,308.657116 L327.058059,284.973575 L330.583051,283.211079 C331.243987,284.202483 332.235391,284.863419 333.447107,285.083731 L330.472895,331.349252 L330.472895,331.349252 Z M255.016034,337.958612 L207.208329,305.132124 C207.318485,304.801656 207.428641,304.581344 207.538798,304.250876 L269.336314,310.309456 C269.336314,310.309456 269.336314,310.309456 269.336314,310.419612 C269.44647,311.85164 270.217562,313.063356 271.319122,313.834448 L259.752742,336.857052 C259.312118,336.746896 258.871494,336.63674 258.320714,336.63674 L257.990246,336.63674 C256.77853,336.63674 255.787126,337.18752 255.016034,337.958612 L255.016034,337.958612 Z M201.480217,298.853231 L178.016989,256.443171 C178.567769,256.002547 179.008393,255.561923 179.338861,254.900987 L229.900466,270.212671 L245.101994,274.839223 C245.101994,275.169691 244.991838,275.500159 245.101994,275.830627 C245.101994,276.381407 245.21215,276.822031 245.432462,277.262655 L206.547393,300.285259 C205.666145,299.293855 204.454429,298.632919 203.022401,298.632919 L202.691933,298.632919 C202.361465,298.522763 201.920841,298.743075 201.480217,298.853231 L201.480217,298.853231 Z M136.488177,305.462592 L136.488177,259.197071 C137.589737,259.086915 138.470985,258.536135 139.242077,257.765043 C139.903013,256.993951 140.233481,256.112703 140.343637,255.231455 L153.672513,254.680675 L171.187317,253.909583 C171.407629,254.790831 171.958409,255.561923 172.619345,256.112703 L137.810049,305.903216 C137.369425,305.682904 136.928801,305.572748 136.488177,305.462592 L136.488177,305.462592 Z M132.412405,307.004776 C132.081937,307.4454 131.751469,307.886024 131.531157,308.436804 L110.601516,303.810252 L109.059332,303.479784 L109.059332,302.929004 C108.949176,301.717287 108.398396,300.615727 107.627304,299.844635 L109.3898,296.980579 L133.844433,258.976759 C134.285057,259.197071 134.615525,259.307227 135.056149,259.307227 L135.056149,305.572748 C134.064745,305.682904 133.073341,306.123528 132.412405,307.004776 L132.412405,307.004776 Z M54.0914877,299.293855 C53.8711757,297.200891 52.3289917,295.438395 50.2360277,295.218083 L50.2360277,269.661891 C51.2274317,269.551735 52.2188357,269.000955 52.8797717,268.229863 L100.57732,301.056351 C100.357008,301.386819 100.246852,301.827443 100.136696,302.157911 L54.0914877,299.293855 L54.0914877,299.293855 Z M8.9275272,215.465138 C8.3767472,213.812798 7.05487518,212.601082 5.40253516,212.38077 L6.83456318,164.352754 C7.82596719,164.242598 8.8173712,163.801974 9.47830721,163.030882 L64.4461518,204.229226 C64.1156838,204.890162 63.8953718,205.661254 63.8953718,206.432346 L8.9275272,215.465138 L8.9275272,215.465138 Z M37.8985555,136.37313 L36.9071515,109.825533 L36.4665275,98.6997771 C36.9071515,98.5896211 37.3477755,98.3693091 37.6782435,98.1489971 L63.5649038,132.737982 C62.7938118,133.61923 62.4633438,134.72079 62.4633438,135.82235 L52.9899277,137.47469 L41.6438596,139.457498 C41.2032356,137.805158 39.6610516,136.593442 37.8985555,136.37313 L37.8985555,136.37313 Z M39.8813636,93.7427571 L65.8781799,86.362305 L91.9851522,78.8716969 C92.3156202,79.6427889 92.8664002,80.3037249 93.5273362,80.7443489 L68.1914559,131.305954 C67.8609879,131.195798 67.4203639,131.195798 67.0898959,131.195798 L66.7594279,131.195798 C65.9883359,131.195798 65.2172439,131.526266 64.6664638,131.856734 L38.7798035,97.2677491 C39.5508956,96.3865011 39.9915196,95.1747851 39.8813636,93.9630691 L39.8813636,93.7427571 L39.8813636,93.7427571 Z M131.751469,34.3686724 C132.412405,34.8092964 133.183497,35.0296084 134.064745,35.0296084 L134.395213,35.0296084 C134.615525,35.0296084 134.835837,34.9194524 134.945993,34.9194524 L161.273277,109.274753 C160.612341,109.605221 160.171717,110.045845 159.731093,110.596625 L100.357008,78.5412289 C100.57732,77.9904489 100.687476,77.3295129 100.57732,76.6685769 C100.467164,75.5670169 100.02654,74.6857689 99.3656043,73.9146769 L131.751469,34.3686724 L131.751469,34.3686724 Z M187.820873,53.7561286 L224.723134,72.1521808 C224.502822,72.7029608 224.502822,73.2537408 224.502822,73.9146769 C224.502822,74.3553009 224.612978,74.6857689 224.723134,75.0162369 L194.760701,89.997453 C193.989609,88.785737 192.557581,88.014645 191.015397,88.014645 L190.905241,88.014645 L185.507597,55.4084686 C186.499001,55.1881566 187.270093,54.5272206 187.820873,53.7561286 L187.820873,53.7561286 Z M224.83329,23.6835403 L273.742554,72.5928048 C273.30193,73.1435848 273.081618,73.8045209 272.861306,74.4654569 L233.535614,73.0334288 C233.315302,70.7201528 231.44265,69.0678128 229.129374,68.9576568 L228.468438,64.0006367 L223.401262,24.4546323 C223.841886,24.3444763 224.392666,24.0140083 224.83329,23.6835403 L224.83329,23.6835403 Z M303.154207,9.0327921 L313.949495,84.709965 C312.737779,85.040433 311.856531,85.921681 311.195595,86.913085 L281.673786,76.1177969 C281.783942,75.6771729 281.783942,75.3467049 281.783942,74.9060809 C281.673786,73.2537408 280.682382,71.9318688 279.36051,71.1607768 L280.131602,69.0678128 L302.162803,8.9226361 C302.603427,9.0327921 302.823739,9.0327921 303.154207,9.0327921 L303.154207,9.0327921 Z M379.161847,50.4514486 L379.272003,50.4514486 L386.321988,89.887297 C385.550896,90.107609 384.779804,90.548233 384.229024,91.2091691 C383.678244,91.7599491 383.347776,92.5310411 383.23762,93.1919771 L319.787763,88.675581 C319.787763,88.124801 319.567451,87.574021 319.347139,87.023241 L324.194003,83.718561 L375.747011,49.0194206 C376.628259,49.9006686 377.839975,50.4514486 379.161847,50.4514486 L379.161847,50.4514486 Z M436.1125,141.991086 L436.1125,141.991086 L443.382796,190.019102 C442.501548,190.239414 441.840612,190.790194 441.289832,191.340974 L390.177448,158.294174 C390.507916,157.633238 390.618072,156.862146 390.618072,156.091054 C390.618072,155.870742 390.507916,155.65043 390.507916,155.430118 L408.02272,148.820758 L432.146884,139.67781 C432.917976,140.999682 434.350004,141.991086 436.1125,141.991086 L436.1125,141.991086 Z M408.5735,248.732251 L408.463344,248.732251 C407.141472,248.732251 406.039912,247.740847 405.929756,246.308819 C405.8196,244.876791 406.92116,243.665075 408.353188,243.554919 L408.463344,243.554919 C409.785216,243.554919 410.886776,244.546323 410.996932,245.978351 C411.107088,247.410379 410.005528,248.622095 408.5735,248.732251 L408.5735,248.732251 Z M368.807183,259.197071 L380.373563,214.03311 L382.025904,207.533906 L382.466528,207.533906 L382.796996,207.533906 C383.347776,207.533906 383.7884,207.313594 384.229024,207.203438 L405.489132,242.673671 C404.387572,243.554919 403.726636,244.986947 403.836792,246.418975 C403.836792,246.749443 403.946948,246.969755 403.946948,247.300223 L370.900147,261.069723 C370.459523,260.188475 369.688431,259.527539 368.807183,259.197071 L368.807183,259.197071 Z M362.748603,264.925183 L337.853347,278.033747 C337.082255,277.042343 335.980695,276.381407 334.658823,276.161095 L333.226795,238.487743 C333.997887,238.377587 334.768979,237.936963 335.429915,237.386183 L363.079071,260.959567 C362.638447,261.730659 362.307979,262.611907 362.418135,263.603311 C362.528291,264.154091 362.638447,264.484559 362.748603,264.925183 L362.748603,264.925183 Z M329.701803,280.897803 C329.701803,281.228271 329.811959,281.668895 329.922115,281.999363 L326.947903,283.431391 L277.487858,307.4454 C277.15739,307.004776 276.826922,306.674308 276.496454,306.34384 L299.739371,264.594715 L306.679199,252.036931 C307.229979,252.257243 307.670603,252.367399 308.331539,252.367399 L308.662007,252.367399 C309.322943,252.367399 310.094035,252.147087 310.644815,251.706463 L331.023675,277.482967 C330.142427,278.364215 329.591647,279.575931 329.701803,280.897803 L329.701803,280.897803 Z M271.319122,310.089144 C271.208966,308.657116 272.310526,307.4454 273.742554,307.335244 L273.85271,307.335244 C275.174582,307.335244 276.276142,308.326648 276.386298,309.758676 C276.496454,311.190704 275.394894,312.40242 273.962866,312.512576 L273.85271,312.512576 C272.530838,312.512576 271.429278,311.521172 271.319122,310.089144 L271.319122,310.089144 Z M207.318485,301.386819 L246.203554,278.364215 C247.084802,279.355619 248.296518,280.016555 249.728546,280.016555 L250.059014,280.016555 C250.71995,280.016555 251.27073,279.796243 251.82151,279.575931 L258.43087,289.049347 L270.768342,306.674308 C270.107406,307.225088 269.666782,307.99618 269.44647,308.877428 L207.648954,302.818848 C207.648954,302.818848 207.648954,302.818848 207.648954,302.708691 C207.648954,302.268067 207.428641,301.827443 207.318485,301.386819 L207.318485,301.386819 Z M175.593557,248.181471 L171.627941,216.015918 C172.509189,215.795606 173.280281,215.354982 173.831061,214.694046 C174.271685,214.143266 174.602153,213.592486 174.712309,213.041706 L193.108361,215.795606 L245.322306,223.726839 L245.322306,224.057307 C245.322306,224.277619 245.432462,224.608087 245.432462,224.828399 L179.779485,250.825215 C178.898237,249.172875 177.356053,248.181471 175.593557,248.181471 L175.593557,248.181471 Z M172.068565,249.723655 C171.407629,250.494747 170.967005,251.596307 170.967005,252.587711 L154.333449,253.358803 L140.343637,254.019739 C140.233481,253.138491 139.792857,252.367399 139.242077,251.816619 L154.113137,233.310411 L168.213105,215.68545 C168.874041,216.126074 169.645133,216.346387 170.416225,216.346387 L174.491997,248.511939 C173.390437,248.511939 172.729501,249.062719 172.068565,249.723655 L172.068565,249.723655 Z M135.937397,257.324419 L135.827241,257.324419 C134.505369,257.324419 133.403809,256.333015 133.293653,254.900987 C133.183497,253.468959 134.285057,252.257243 135.717085,252.147087 L135.827241,252.147087 C137.149113,252.147087 138.250673,253.138491 138.360829,254.570519 C138.470985,256.002547 137.369425,257.214263 135.937397,257.324419 L135.937397,257.324419 Z M105.314028,298.632919 L104.322624,253.138491 L103.882,231.658071 C104.763248,231.547915 105.53434,231.107291 106.08512,230.556511 L131.971781,252.367399 C131.531157,253.138491 131.200689,254.019739 131.310845,255.011143 C131.421001,256.222859 131.971781,257.324419 132.853029,258.095511 L108.28824,296.319643 L106.525744,299.073543 C106.195276,298.853231 105.754652,298.632919 105.314028,298.632919 L105.314028,298.632919 Z M69.0727039,201.91595 L68.3016119,171.402738 L67.5305199,140.118434 C68.1914559,140.008278 68.7422359,139.898122 69.2930159,139.567654 L92.8664002,167.657434 L108.28824,186.053486 C107.517148,186.934734 107.076524,188.14645 107.18668,189.358166 C107.18668,189.578478 107.296836,189.908946 107.296836,190.129258 L72.4875399,204.008914 C71.7164479,203.01751 70.5047319,202.136262 69.0727039,201.91595 L69.0727039,201.91595 Z M64.5563078,135.82235 C64.4461518,134.390322 65.5477119,133.178606 66.9797399,133.06845 L67.0898959,133.06845 C68.4117679,133.06845 69.5133279,134.059854 69.6234839,135.491882 C69.7336399,136.92391 68.6320799,138.135626 67.2000519,138.245782 L67.0898959,138.245782 C65.7680239,138.245782 64.6664638,137.254378 64.5563078,135.82235 L64.5563078,135.82235 Z M96.0609242,81.5154409 L96.3913922,81.5154409 C96.9421722,81.5154409 97.3827962,81.4052849 97.8234202,81.1849729 L124.701485,126.348933 L126.023357,128.662209 C125.031953,129.433301 124.481173,130.534862 124.371017,131.746578 L115.778848,132.187202 L71.4961359,134.610634 C71.2758239,133.288762 70.5047319,132.297358 69.4031719,131.636422 L94.6288962,81.1849729 C95.1796762,81.5154409 95.6203002,81.5154409 96.0609242,81.5154409 L96.0609242,81.5154409 Z M99.4757603,79.9732569 C99.5859163,79.8631009 99.5859163,79.7529449 99.6960723,79.6427889 L128.226477,94.9544731 L159.070157,111.588029 C158.849845,112.138809 158.739689,112.799745 158.849845,113.460681 C158.849845,113.901305 158.960001,114.341929 159.180313,114.782553 L133.403809,129.102833 L132.522561,129.543457 C131.641313,128.441897 130.319441,127.780961 128.887413,127.780961 L128.556945,127.780961 C128.006165,127.780961 127.565541,128.001273 127.124917,128.111429 L98.9249802,80.5240369 C99.1452922,80.4138809 99.3656043,80.1935689 99.4757603,79.9732569 L99.4757603,79.9732569 Z M190.905241,89.997453 L191.015397,89.997453 C192.337269,89.997453 193.438829,90.9888571 193.548985,92.4208851 C193.659141,93.8529131 192.557581,95.0646291 191.125553,95.1747851 L191.015397,95.1747851 C189.693525,95.1747851 188.591965,94.1833811 188.481809,92.7513531 C188.371653,91.3193251 189.473213,90.107609 190.905241,89.997453 L190.905241,89.997453 Z M233.425458,74.3553009 L272.75115,75.7873289 C272.861306,76.9990449 273.522242,78.1006049 274.40349,78.8716969 L259.862898,103.877109 C259.312118,103.656797 258.761338,103.546641 258.210558,103.546641 L257.88009,103.546641 C257.108998,103.546641 256.337906,103.877109 255.787126,104.207577 L232.213742,76.5584209 C232.984834,76.0076409 233.315302,75.2365489 233.425458,74.3553009 L233.425458,74.3553009 Z M281.343318,77.4396689 L281.673786,77.5498249 L310.865127,88.124801 C310.754971,88.565425 310.754971,88.895893 310.754971,89.336517 C310.754971,89.556829 310.754971,89.666985 310.865127,89.887297 L262.396486,106.080229 C262.066018,105.529449 261.625394,104.978669 261.18477,104.538045 L275.725362,79.5326329 C276.276142,79.7529449 276.826922,79.8631009 277.377702,79.8631009 L277.70817,79.8631009 C279.250354,79.7529449 280.572226,78.7615409 281.343318,77.4396689 L281.343318,77.4396689 Z M315.601835,93.6326011 C315.822147,93.6326011 316.042459,93.5224451 316.152615,93.5224451 L333.887731,143.753582 C333.226795,144.08405 332.676015,144.524674 332.345547,145.18561 L262.726954,109.605221 C262.947266,109.054441 263.057422,108.503661 262.947266,107.842725 C262.947266,107.622413 262.947266,107.512257 262.83711,107.291945 L311.305751,91.0990131 C312.076843,92.6411971 313.619027,93.6326011 315.381523,93.6326011 C315.381523,93.6326011 315.491679,93.6326011 315.601835,93.6326011 L315.601835,93.6326011 Z M386.211832,158.95511 L386.101676,158.95511 C384.779804,158.95511 383.678244,157.963706 383.568088,156.531678 C383.457932,155.09965 384.559492,153.887934 385.99152,153.777778 L386.101676,153.777778 C387.423548,153.777778 388.525108,154.769182 388.635264,156.20121 C388.635264,157.633238 387.64386,158.844954 386.211832,158.95511 L386.211832,158.95511 Z M385.000116,160.827762 L383.457932,182.308182 L382.246216,198.390958 C381.475124,198.390958 380.814188,198.721426 380.153251,199.051894 L339.395531,150.69341 L339.395531,150.69341 C339.836155,150.252786 340.166623,149.702006 340.276779,149.04107 L381.475124,156.091054 L381.475124,156.531678 C381.58528,158.734798 383.127464,160.387138 385.000116,160.827762 L385.000116,160.827762 Z M385.110272,202.797198 C385.220428,204.229226 384.118868,205.440942 382.68684,205.551098 L382.576684,205.551098 C381.254812,205.551098 380.153251,204.559694 380.043095,203.127666 C379.932939,201.695638 381.0345,200.483922 382.466528,200.373766 L382.576684,200.373766 C383.898556,200.483922 385.000116,201.475326 385.110272,202.797198 L385.110272,202.797198 Z M332.676015,236.615091 L332.565859,236.615091 C331.243987,236.615091 330.142427,235.623687 330.032271,234.191659 C329.922115,232.759631 331.023675,231.547915 332.455703,231.437759 L332.565859,231.437759 C333.887731,231.437759 334.989291,232.429163 335.099447,233.861191 C335.209603,235.293219 334.108043,236.504935 332.676015,236.615091 L332.676015,236.615091 Z M273.85271,305.462592 L273.522242,305.462592 C272.861306,305.462592 272.310526,305.682904 271.759746,305.903216 L259.53243,288.388411 L252.702758,278.694683 C252.812914,278.584527 252.92307,278.474371 253.033226,278.364215 C253.804318,277.482967 254.244942,276.271251 254.134786,275.059535 C254.134786,274.729067 254.02463,274.398599 253.914474,274.068131 L304.476079,250.274435 C304.806547,250.715059 305.137015,251.045527 305.467483,251.375995 L297.976875,264.925183 L275.394894,305.682904 C274.95427,305.572748 274.40349,305.462592 273.85271,305.462592 L273.85271,305.462592 Z M170.526381,214.143266 L170.416225,214.143266 C169.094353,214.143266 167.992793,213.151862 167.882637,211.719834 C167.772481,210.287806 168.874041,209.07609 170.306069,208.965934 L170.416225,208.965934 C171.738097,208.965934 172.839657,209.957338 172.949813,211.389366 C172.949813,212.821394 171.848253,214.03311 170.526381,214.143266 L170.526381,214.143266 Z M138.140517,250.825215 C137.479581,250.384591 136.708489,250.164279 135.827241,250.164279 L135.496773,250.164279 C134.395213,250.274435 133.513965,250.715059 132.742873,251.265839 L106.856212,229.454951 C107.406992,228.683859 107.627304,227.692455 107.517148,226.811207 L107.517148,226.701051 L138.911609,219.430755 L166.120141,213.151862 C166.340453,213.702642 166.670921,214.143266 167.001389,214.58389 L138.140517,250.825215 L138.140517,250.825215 Z M70.5047319,138.686406 C71.1656679,137.915314 71.4961359,137.034066 71.6062919,136.042662 L117.10072,133.509074 L124.371017,133.06845 C124.701485,134.500478 125.582733,135.712194 126.904605,136.262974 L112.253856,184.621458 C112.033544,184.621458 111.813232,184.511302 111.59292,184.511302 L111.262452,184.511302 C110.49136,184.511302 109.830424,184.84177 109.169488,185.172238 L93.4171802,166.445718 L70.1742639,138.796562 C70.3945759,138.796562 70.5047319,138.796562 70.5047319,138.686406 L70.5047319,138.686406 Z M158.078753,169.41993 L158.188909,169.41993 C159.510781,169.41993 160.612341,170.411334 160.722497,171.843362 C160.832653,173.27539 159.731093,174.487106 158.299065,174.597262 L158.188909,174.597262 C156.867037,174.597262 155.765477,173.605858 155.655321,172.17383 C155.545165,170.631646 156.646725,169.41993 158.078753,169.41993 L158.078753,169.41993 Z M202.691933,133.06845 L202.802089,133.06845 C204.123961,133.06845 205.225521,134.059854 205.335677,135.491882 C205.445833,136.92391 204.344273,138.135626 202.912245,138.245782 L202.802089,138.245782 C201.480217,138.245782 200.378657,137.254378 200.268501,135.82235 C200.158345,134.390322 201.259905,133.178606 202.691933,133.06845 L202.691933,133.06845 Z M338.404127,151.574658 L379.161847,199.933142 C378.721223,200.373766 378.390755,201.034702 378.170443,201.695638 L315.491679,192.55269 L304.145611,190.90035 L304.145611,190.569882 C304.035455,189.468322 303.594831,188.587074 302.933895,187.815982 L322.101039,164.903534 L333.336951,151.464502 C333.997887,151.905126 334.879135,152.125438 335.760383,152.125438 L336.090851,152.125438 C337.082255,152.235594 337.743191,152.015282 338.404127,151.574658 L338.404127,151.574658 Z M250.389482,270.983763 L250.389482,228.133079 C251.491042,228.022923 252.37229,227.472143 253.143382,226.701051 C253.363694,226.480739 253.47385,226.260427 253.694162,226.040115 L300.069839,245.097103 L304.145611,246.749443 C304.035455,247.190067 303.925299,247.630691 304.035455,248.181471 C304.035455,248.511939 304.145611,248.842407 304.255767,249.172875 L253.47385,272.966571 C252.812914,271.865011 251.601198,271.204075 250.389482,270.983763 L250.389482,270.983763 Z M247.855894,219.540911 L238.933258,205.440942 L231.883274,194.315186 C232.654366,193.65425 233.315302,192.662846 233.425458,191.561286 L295.222975,191.561286 C295.333131,192.00191 295.443287,192.442534 295.553443,192.883158 L253.033226,220.752627 C252.151978,219.761223 250.940262,219.210443 249.61839,219.210443 L249.287922,219.210443 C248.847298,219.210443 248.296518,219.320599 247.855894,219.540911 L247.855894,219.540911 Z M170.306069,207.093282 L169.975601,207.093282 C169.865445,207.093282 169.755289,207.093282 169.534977,207.203438 L162.264681,183.409742 L160.061561,176.02929 C160.612341,175.808978 161.163121,175.368354 161.493589,174.92773 C161.824057,174.597262 162.044369,174.156638 162.264681,173.716014 L186.058377,180.105062 L224.392666,190.34957 L224.392666,191.010506 C224.392666,191.230818 224.502822,191.45113 224.502822,191.671442 L217.12237,194.20503 L174.161529,209.296402 C173.610749,208.084686 172.068565,207.093282 170.306069,207.093282 L170.306069,207.093282 Z M166.340453,209.406558 L164.467801,208.745622 L115.99916,190.239414 C116.109316,189.79879 116.109316,189.358166 116.109316,188.917542 C116.109316,188.69723 115.99916,188.476918 115.99916,188.256606 L154.223293,174.156638 C154.994385,175.588666 156.536569,176.58007 158.188909,176.58007 L158.519377,176.58007 C158.629533,176.58007 158.739689,176.58007 158.960001,176.469914 L168.433417,207.533906 C167.552169,207.97453 166.781077,208.635466 166.340453,209.406558 L166.340453,209.406558 Z M226.48563,190.90035 C226.375474,189.468322 227.477034,188.256606 228.909062,188.14645 L229.019218,188.14645 C230.34109,188.14645 231.44265,189.137854 231.552806,190.569882 C231.662962,192.00191 230.561402,193.213626 229.129374,193.323782 L229.019218,193.323782 C227.697346,193.323782 226.48563,192.332378 226.48563,190.90035 L226.48563,190.90035 Z M258.320714,112.579433 L258.651182,112.579433 C259.091806,112.579433 259.422274,112.469277 259.752742,112.359121 L282.555034,157.963706 L297.205783,187.155046 C296.214379,187.815982 295.443287,188.917542 295.333131,190.239414 L233.535614,190.239414 C233.315302,188.69723 232.434054,187.485514 231.222338,186.824578 L257.549622,112.579433 C257.769934,112.579433 257.990246,112.579433 258.320714,112.579433 L258.320714,112.579433 Z M302.272959,190.790194 C302.383115,192.222222 301.281555,193.433938 299.849527,193.544094 L299.739371,193.544094 C298.417499,193.544094 297.315939,192.55269 297.205783,191.120662 C297.095627,189.688634 298.197187,188.476918 299.629215,188.366762 L299.739371,188.366762 C301.061243,188.366762 302.162803,189.358166 302.272959,190.790194 L302.272959,190.790194 Z M304.476079,245.537727 L299.959683,243.665075 L254.02463,224.718243 C254.134786,224.277619 254.244942,223.836995 254.134786,223.286215 C254.134786,222.735435 253.914474,222.184655 253.694162,221.633875 L296.214379,193.764406 C297.095627,194.75581 298.307343,195.30659 299.629215,195.30659 L299.629215,195.30659 L300.951087,204.229226 L306.899511,243.334607 C305.908107,243.885387 305.026859,244.546323 304.476079,245.537727 L304.476079,245.537727 Z M332.565859,150.803566 L321.219791,164.352754 L302.052647,187.155046 C301.391711,186.714422 300.510463,186.49411 299.629215,186.49411 L299.298747,186.49411 C298.858123,186.49411 298.527655,186.604266 298.197187,186.714422 L260.744146,111.918497 C261.18477,111.588029 261.515238,111.257561 261.845706,110.816937 L331.464299,146.397326 C331.243987,146.948106 331.133831,147.498886 331.243987,148.159822 C331.464299,149.151226 331.904923,150.032474 332.565859,150.803566 L332.565859,150.803566 Z M260.854302,107.952881 C260.964458,109.384909 259.862898,110.596625 258.43087,110.706781 L258.320714,110.706781 C256.998842,110.706781 255.897282,109.715377 255.787126,108.283349 C255.67697,106.851321 256.77853,105.639605 258.210558,105.529449 L258.320714,105.529449 C259.642586,105.529449 260.744146,106.520853 260.854302,107.952881 L260.854302,107.952881 Z M256.22775,112.138809 L229.900466,186.383954 C229.569998,186.273798 229.23953,186.273798 229.019218,186.273798 L228.68875,186.273798 C228.358282,186.273798 227.917658,186.383954 227.58719,186.49411 L213.156754,155.65043 L205.555989,139.347342 C205.776301,139.12703 206.106769,138.906718 206.327081,138.686406 C207.098173,137.805158 207.538798,136.593442 207.428641,135.381726 C207.428641,135.051258 207.318485,134.72079 207.208329,134.390322 L254.57541,110.706781 C255.016034,111.257561 255.566814,111.698185 256.22775,112.138809 L256.22775,112.138809 Z M199.938033,139.12703 C200.709125,139.787966 201.700529,140.22859 202.802089,140.22859 L203.132557,140.22859 C203.573181,140.22859 204.013805,140.118434 204.344273,140.008278 L212.275506,156.972302 L226.48563,187.155046 C225.714538,187.705826 225.163758,188.366762 224.83329,189.24801 L186.939625,179.113658 L162.815461,172.614454 L162.815461,171.843362 C162.815461,171.07227 162.484993,170.411334 162.154525,169.860554 L199.938033,139.12703 L199.938033,139.12703 Z M153.672513,172.17383 C153.672513,172.394142 153.782669,172.614454 153.782669,172.834766 L115.558536,186.934734 C115.117912,186.053486 114.34682,185.39255 113.465572,184.951926 L128.116321,136.593442 C128.336633,136.593442 128.556945,136.703598 128.777257,136.703598 L129.107725,136.703598 C129.768661,136.703598 130.429597,136.483286 130.980377,136.152818 L154.994385,168.648838 C154.113137,169.640242 153.672513,170.851958 153.672513,172.17383 L153.672513,172.17383 Z M131.421001,132.077046 C131.531157,133.509074 130.429597,134.72079 128.997569,134.830946 L128.887413,134.830946 C127.565541,134.830946 126.463981,133.839542 126.353825,132.407514 C126.243669,130.975486 127.345229,129.76377 128.777257,129.653613 L128.887413,129.653613 C130.209285,129.653613 131.421001,130.755174 131.421001,132.077046 L131.421001,132.077046 Z M109.059332,189.358166 C108.949176,187.926138 110.050736,186.714422 111.482764,186.604266 L111.59292,186.604266 C112.914792,186.604266 114.016352,187.59567 114.126508,189.027698 C114.236664,190.459726 113.135104,191.671442 111.703076,191.781598 L111.59292,191.781598 C110.271048,191.781598 109.169488,190.680038 109.059332,189.358166 L109.059332,189.358166 Z M111.59292,193.764406 L111.923388,193.764406 C113.135104,193.65425 114.236664,193.10347 115.007756,192.222222 C115.228068,192.00191 115.44838,191.671442 115.558536,191.45113 L162.925617,209.516714 L165.899829,210.618274 C165.789673,211.058898 165.789673,211.499522 165.789673,211.940146 L165.789673,212.050302 L107.18668,225.599491 C106.746056,224.387775 105.754652,223.506527 104.542936,222.955747 L111.152296,193.764406 C111.372608,193.65425 111.482764,193.764406 111.59292,193.764406 L111.59292,193.764406 Z M174.712309,210.72843 L219.32549,194.976122 L225.053602,192.993314 C225.824694,194.425342 227.256722,195.30659 229.019218,195.30659 L229.349686,195.30659 C229.900466,195.30659 230.34109,195.086278 230.89187,194.976122 L237.611386,205.551098 L246.86449,220.312003 C246.203554,220.862783 245.76293,221.633875 245.432462,222.404967 L194.981013,214.694046 L174.932621,211.609678 L174.932621,211.27921 C174.822465,211.169054 174.822465,210.948742 174.712309,210.72843 L174.712309,210.72843 Z M247.194958,223.836995 C247.084802,222.404967 248.186362,221.193251 249.61839,221.083095 L249.728546,221.083095 C251.050418,221.083095 252.151978,222.074499 252.262134,223.506527 C252.37229,224.938555 251.27073,226.150271 249.838702,226.260427 L249.728546,226.260427 C248.406674,226.260427 247.194958,225.269023 247.194958,223.836995 L247.194958,223.836995 Z M249.508234,272.966571 L249.61839,272.966571 C250.940262,272.966571 252.041822,273.957975 252.151978,275.390003 C252.262134,276.822031 251.160574,278.033747 249.728546,278.143903 L249.61839,278.143903 C248.296518,278.143903 247.194958,277.152499 247.084802,275.720471 C247.084802,274.178287 248.186362,272.966571 249.508234,272.966571 L249.508234,272.966571 Z M305.797951,248.071315 C305.687795,246.639287 306.789355,245.427571 308.221383,245.317415 L308.331539,245.317415 C309.653411,245.317415 310.754971,246.308819 310.865127,247.740847 C310.975283,249.172875 309.873723,250.384591 308.441695,250.494747 L308.331539,250.494747 C307.009667,250.384591 305.908107,249.393187 305.797951,248.071315 L305.797951,248.071315 Z M308.331539,243.334607 L308.331539,243.334607 L302.603427,205.991722 L300.951087,195.196434 C301.281555,195.086278 301.501867,194.976122 301.832335,194.865966 L329.151023,230.886979 C328.269775,231.768227 327.718995,232.979943 327.829151,234.301815 C327.829151,234.742439 327.939307,235.293219 328.159619,235.623687 L311.746375,244.986947 C311.085439,243.995543 309.873723,243.334607 308.331539,243.334607 L308.331539,243.334607 Z M332.565859,229.565107 L332.235391,229.565107 C331.574455,229.565107 330.913519,229.785419 330.362739,230.115887 L303.044051,194.094874 C303.154207,193.984718 303.154207,193.984718 303.264363,193.874562 C303.704987,193.323782 304.035455,192.773002 304.255767,192.112066 L321.440103,194.645654 L378.170443,202.907354 L378.170443,203.237822 C378.170443,203.788602 378.390755,204.339382 378.500911,204.780006 L364.511099,213.48233 L336.090851,231.107291 C335.209603,230.115887 333.887731,229.565107 332.565859,229.565107 L332.565859,229.565107 Z M338.514283,147.609042 C338.624439,149.04107 337.522879,150.252786 336.090851,150.362942 L335.980695,150.362942 C334.658823,150.362942 333.557263,149.371538 333.447107,147.93951 C333.336951,146.507482 334.438511,145.295766 335.870539,145.18561 L335.980695,145.18561 C337.302567,145.18561 338.404127,146.28717 338.514283,147.609042 L338.514283,147.609042 Z M231.44265,77.4396689 L255.016034,105.088825 C254.244942,105.970073 253.804318,107.071633 253.914474,108.393505 C253.914474,108.834129 254.02463,109.164597 254.134786,109.495065 L206.767705,133.178606 C206.437237,132.627826 205.996613,132.187202 205.445833,131.856734 L226.045006,82.286533 L227.807502,77.8802929 C228.13797,77.9904489 228.578594,77.9904489 228.909062,77.9904489 L229.23953,77.9904489 C230.010622,78.1006049 230.781714,77.7701369 231.44265,77.4396689 L231.44265,77.4396689 Z M226.705942,77.4396689 L224.172354,83.498249 L204.234117,131.305954 C203.793493,131.195798 203.352869,131.085642 202.912245,131.085642 L202.581777,131.085642 C202.581777,131.085642 202.581777,131.085642 202.471621,131.085642 L192.888049,96.7169691 C194.540389,95.9458771 195.752105,94.2935371 195.641949,92.3107291 C195.641949,91.8701051 195.531793,91.5396371 195.421637,91.2091691 L225.38407,76.2279529 C225.604382,76.6685769 226.155162,77.1092009 226.705942,77.4396689 L226.705942,77.4396689 Z M191.015397,97.0474371 L191.345865,97.0474371 L191.676333,97.0474371 L201.259905,131.41611 C200.598969,131.636422 199.938033,132.077046 199.497409,132.627826 C199.497409,132.737982 199.387253,132.737982 199.387253,132.848138 L167.662325,114.892709 C167.882637,114.341929 167.992793,113.680993 167.992793,113.020057 C167.992793,112.359121 167.772481,111.698185 167.442013,111.147405 L177.466209,103.546641 L187.931029,95.7255651 C188.702121,96.6068131 189.803681,97.0474371 191.015397,97.0474371 L191.015397,97.0474371 Z M167.001389,115.994269 L198.616161,133.839542 C198.395849,134.500478 198.285693,135.161414 198.285693,135.82235 C198.285693,136.593442 198.616161,137.364534 199.056785,138.02547 L161.273277,168.538682 C160.722497,167.987902 159.951405,167.657434 159.180313,167.437122 L161.824057,137.144222 L163.586553,117.756765 L163.586553,117.756765 C165.018581,117.756765 166.230297,116.985673 167.001389,115.994269 L167.001389,115.994269 Z M160.612341,137.144222 L157.968597,167.437122 L157.968597,167.437122 C157.307661,167.437122 156.646725,167.657434 156.095945,167.987902 L132.081937,135.491882 C132.963185,134.610634 133.513965,133.398918 133.403809,131.96689 C133.403809,131.526266 133.293653,131.085642 133.073341,130.645018 L159.731093,115.994269 C160.392029,116.875517 161.273277,117.426297 162.264681,117.646609 L160.612341,137.144222 L160.612341,137.144222 Z M72.9281639,205.330786 L107.73746,191.45113 C108.28824,192.332378 109.059332,192.993314 110.050736,193.433938 L103.441376,222.625279 L103.110908,222.625279 L102.78044,222.625279 C101.458568,222.735435 100.357008,223.396371 99.5859163,224.277619 L86.2570401,216.346387 L72.7078519,208.194842 C72.9281639,207.533906 73.1484759,206.87297 73.0383199,206.212034 C73.0383199,205.881566 72.9281639,205.661254 72.9281639,205.330786 L72.9281639,205.330786 Z M100.467164,227.361987 C100.357008,225.929959 101.458568,224.718243 102.890596,224.608087 L103.000752,224.608087 C104.322624,224.608087 105.424184,225.599491 105.53434,227.031519 C105.644496,228.463547 104.542936,229.675263 103.110908,229.785419 L103.000752,229.785419 C101.67888,229.675263 100.57732,228.683859 100.467164,227.361987 L100.467164,227.361987 Z M179.999797,251.926775 L245.76293,225.929959 C246.423866,227.141675 247.635582,227.912767 249.06761,228.133079 L249.06761,270.983763 C247.525426,271.204075 246.203554,272.195479 245.652774,273.517351 L179.999797,253.689271 C180.109953,253.248647 180.109953,252.808023 180.109953,252.367399 C179.999797,252.257243 179.999797,252.147087 179.999797,251.926775 L179.999797,251.926775 Z M332.015079,276.711875 L311.636219,250.935371 L311.746375,250.825215 C312.517467,249.943967 312.958091,248.732251 312.847935,247.520535 C312.847935,247.079911 312.737779,246.529131 312.517467,246.198663 L328.930711,236.835403 C329.701803,237.826807 330.803363,238.377587 332.015079,238.597899 L333.447107,276.271251 C332.896327,276.271251 332.455703,276.491563 332.015079,276.711875 L332.015079,276.711875 Z M364.070475,259.968163 L336.421319,236.394779 C336.972099,235.623687 337.192411,234.632283 337.082255,233.751035 C337.082255,233.200255 336.861943,232.649475 336.751787,232.208851 L367.485311,213.151862 L379.161847,205.881566 C379.602471,206.432346 380.153251,206.87297 380.924344,207.203438 L380.48372,208.855778 L367.485311,258.866603 L367.044687,258.866603 L366.714219,258.866603 C365.722815,258.976759 364.731411,259.307227 364.070475,259.968163 L364.070475,259.968163 Z M408.463344,241.572111 L408.132876,241.572111 C407.582096,241.572111 407.141472,241.792423 406.700848,241.902579 L385.44074,206.432346 C385.661052,206.32219 385.771208,206.101878 385.99152,205.881566 C386.762612,205.000318 387.09308,204.008914 387.09308,202.907354 L412.098492,199.382362 L440.408584,195.416746 C440.628896,196.187838 441.06952,196.95893 441.6203,197.50971 L432.477352,210.508118 L410.556308,241.902579 C409.895372,241.792423 409.234436,241.572111 408.463344,241.572111 L408.463344,241.572111 Z M440.188272,194.315186 L411.768024,198.280802 L386.872768,201.695638 C386.432144,200.153454 385.110272,198.831582 383.457932,198.501114 L384.559492,183.630054 L386.211832,160.827762 C387.423548,160.717606 388.525108,160.166826 389.2962,159.285578 L389.2962,159.285578 L440.408584,192.332378 C440.298428,193.10347 440.188272,193.65425 440.188272,194.315186 L440.188272,194.315186 Z M385.550896,151.905126 C383.7884,152.125438 382.246216,153.337154 381.805592,154.989494 L340.607247,147.829354 L340.607247,147.38873 C340.497091,146.397326 340.166623,145.626234 339.615843,144.855142 L385.000116,98.0388411 C385.550896,98.4794651 386.211832,98.6997771 386.982924,98.8099331 L386.5423,114.562241 L385.550896,151.905126 L385.550896,151.905126 Z M338.624439,144.08405 C337.853347,143.53327 336.972099,143.202802 335.980695,143.202802 L335.650227,143.202802 C335.429915,143.202802 335.209603,143.312958 335.099447,143.312958 L317.364331,93.0818211 C318.576047,92.4208851 319.347139,91.3193251 319.677607,89.997453 L383.127464,94.5138491 C383.23762,95.5052531 383.568088,96.3865011 384.118868,97.0474371 L338.624439,144.08405 L338.624439,144.08405 Z M317.804955,88.895893 C317.915111,90.327921 316.813551,91.5396371 315.381523,91.6497931 L315.271367,91.6497931 C313.949495,91.6497931 312.847935,90.658389 312.737779,89.226361 C312.627623,87.794333 313.729183,86.582617 315.161211,86.472461 L315.271367,86.472461 C316.593239,86.582617 317.694799,87.574021 317.804955,88.895893 L317.804955,88.895893 Z M279.91129,75.1263929 C280.021446,76.5584209 278.919886,77.7701369 277.487858,77.8802929 L277.377702,77.8802929 C276.05583,77.8802929 274.95427,76.8888889 274.844114,75.4568609 C274.733958,74.0248329 275.835518,72.8131168 277.267546,72.7029608 L277.377702,72.7029608 C278.699574,72.7029608 279.801134,73.8045209 279.91129,75.1263929 L279.91129,75.1263929 Z M228.798906,71.0506208 L228.909062,71.0506208 C230.230934,71.0506208 231.332494,72.0420248 231.44265,73.4740528 C231.552806,74.9060809 230.451246,76.1177969 229.019218,76.2279529 L228.909062,76.2279529 C227.58719,76.2279529 226.48563,75.2365489 226.375474,73.8045209 C226.375474,72.3724928 227.477034,71.0506208 228.798906,71.0506208 L228.798906,71.0506208 Z M184.075569,55.6287806 L184.075569,55.6287806 L189.583369,88.234957 C187.600561,88.895893 186.278689,90.768545 186.388845,92.8615091 C186.388845,93.5224451 186.609157,94.1833811 186.939625,94.7341611 L176.915429,102.224769 L166.450609,110.045845 C166.120141,109.715377 165.679517,109.384909 165.238893,109.164597 L183.084165,55.5186246 C183.634945,55.6287806 183.855257,55.6287806 184.075569,55.6287806 L184.075569,55.6287806 Z M166.009985,113.130213 C166.120141,114.562241 165.018581,115.773957 163.586553,115.884113 L163.476397,115.884113 C162.154525,115.884113 161.052965,114.892709 160.942809,113.460681 C160.832653,112.028653 161.934213,110.816937 163.366241,110.706781 L163.476397,110.706781 C164.798269,110.706781 165.899829,111.698185 166.009985,113.130213 L166.009985,113.130213 Z M98.7046682,76.8888889 C98.8148242,78.3209169 97.7132642,79.5326329 96.2812362,79.6427889 L96.1710802,79.6427889 C94.8492082,79.6427889 93.7476482,78.6513849 93.6374922,77.2193569 C93.5273362,75.7873289 94.6288962,74.5756129 96.0609242,74.4654569 L96.1710802,74.4654569 C97.4929522,74.4654569 98.5945122,75.4568609 98.7046682,76.8888889 L98.7046682,76.8888889 Z M40.8727676,143.863738 C41.6438596,142.98249 42.0844836,141.88093 41.9743276,140.669214 L53.5407077,138.57625 L62.7938118,136.92391 C63.3445918,138.466094 64.5563078,139.67781 66.2086479,140.008278 L66.9797399,170.52149 L67.7508319,201.805794 C67.5305199,201.805794 67.3102079,201.91595 67.2000519,201.91595 L39.9915196,144.414518 C40.3219876,144.414518 40.5422996,144.194206 40.8727676,143.863738 L40.8727676,143.863738 Z M65.9883359,206.652658 C65.8781799,205.22063 66.9797399,204.008914 68.4117679,203.898758 L68.5219239,203.898758 C69.8437959,203.898758 70.9453559,204.890162 71.0555119,206.32219 C71.1656679,207.754218 70.0641079,208.965934 68.6320799,209.07609 L68.5219239,209.07609 C67.2000519,208.965934 65.9883359,207.97453 65.9883359,206.652658 L65.9883359,206.652658 Z M68.5219239,210.948742 L68.8523919,210.948742 C70.0641079,210.838586 71.1656679,210.287806 71.9367599,209.406558 L72.0469159,209.296402 L85.3757921,217.227635 L98.9249802,225.379179 C98.7046682,226.040115 98.4843562,226.701051 98.5945122,227.361987 C98.5945122,228.022923 98.8148242,228.573703 99.1452922,229.124483 L52.9899277,261.950971 C52.6594597,261.510347 52.2188357,261.290035 51.6680557,260.959567 L67.8609879,210.838586 C67.9711439,210.948742 68.1914559,210.948742 68.5219239,210.948742 L68.5219239,210.948742 Z M99.6960723,230.226043 C100.357008,230.997135 101.348412,231.437759 102.449972,231.547915 L103.000752,253.468959 L103.992156,298.522763 C103.000752,298.632919 102.009348,299.183699 101.348412,299.844635 L53.5407077,267.018147 C53.8711757,266.357211 54.0914877,265.586119 53.9813317,264.704871 C53.9813317,264.043935 53.7610197,263.493155 53.4305517,262.942375 L99.6960723,230.226043 L99.6960723,230.226043 Z M102.119504,303.259472 C102.009348,301.827443 103.110908,300.615727 104.542936,300.505571 L104.653092,300.505571 C105.974964,300.505571 107.076524,301.496975 107.18668,302.929004 C107.296836,304.361032 106.195276,305.572748 104.763248,305.682904 L104.653092,305.682904 C103.33122,305.682904 102.119504,304.581344 102.119504,303.259472 L102.119504,303.259472 Z M175.703713,255.231455 L175.593557,255.231455 C174.271685,255.231455 173.170125,254.240051 173.059969,252.808023 C172.949813,251.375995 174.051373,250.164279 175.483401,250.054123 L175.593557,250.054123 C176.915429,250.054123 178.016989,251.045527 178.127145,252.477555 C178.127145,253.909583 177.025585,255.121299 175.703713,255.231455 L175.703713,255.231455 Z M260.964458,337.297676 L272.530838,314.275072 C272.971462,314.385228 273.412086,314.495384 273.962866,314.495384 L274.293334,314.495384 C275.50505,314.385228 276.60661,313.834448 277.377702,312.9532 C277.487858,312.732888 277.70817,312.622732 277.818326,312.40242 L298.637811,321.875836 L326.617435,334.543776 C326.507279,334.874244 326.507279,335.204712 326.507279,335.53518 L262.947266,340.051576 C262.506642,338.950016 261.845706,337.958612 260.964458,337.297676 L260.964458,337.297676 Z M334.438511,283.211079 L334.328355,283.211079 C333.006483,283.211079 331.904923,282.219675 331.794767,280.787647 C331.684611,279.355619 332.786171,278.143903 334.218199,278.033747 L334.328355,278.033747 C335.650227,278.033747 336.751787,279.025151 336.861943,280.457179 C336.861943,281.889207 335.870539,283.100923 334.438511,283.211079 L334.438511,283.211079 Z M367.154843,265.916587 L367.044687,265.916587 C365.722815,265.916587 364.621255,264.925183 364.511099,263.493155 C364.400943,262.061127 365.502503,260.849411 366.934531,260.739255 L367.044687,260.739255 C368.366559,260.739255 369.468119,261.730659 369.578275,263.162687 C369.688431,264.594715 368.586871,265.806431 367.154843,265.916587 L367.154843,265.916587 Z M447.238256,194.20503 C447.348412,195.637058 446.246852,196.848774 444.814824,196.95893 L444.704668,196.95893 C443.382796,196.95893 442.281236,195.967526 442.17108,194.535498 C442.060924,193.10347 443.162484,191.891754 444.594512,191.781598 L444.704668,191.781598 C446.02654,191.781598 447.1281,192.883158 447.238256,194.20503 L447.238256,194.20503 Z M435.892188,134.830946 L436.002344,134.830946 C437.324216,134.830946 438.425776,135.82235 438.535932,137.254378 C438.646088,138.686406 437.544528,139.898122 436.1125,140.008278 L436.002344,140.008278 C434.680472,140.008278 433.578912,139.016874 433.468756,137.584846 C433.468756,136.152818 434.46016,134.941102 435.892188,134.830946 L435.892188,134.830946 Z M418.707852,93.4122891 L418.818008,93.4122891 C420.13988,93.4122891 421.24144,94.4036931 421.351596,95.8357211 C421.461752,97.2677491 420.360192,98.4794651 418.928164,98.5896211 L418.818008,98.5896211 C417.496136,98.5896211 416.394576,97.5982171 416.28442,96.1661891 C416.174264,94.7341611 417.275824,93.5224451 418.707852,93.4122891 L418.707852,93.4122891 Z M417.275824,100.241961 C417.716448,100.462273 418.267228,100.572429 418.818008,100.572429 L419.148476,100.572429 C419.478944,100.572429 419.699256,100.462273 420.029724,100.462273 L433.799224,133.61923 C433.3586,133.839542 433.028132,134.17001 432.697664,134.500478 C431.926572,135.381726 431.485948,136.593442 431.596104,137.805158 C431.596104,138.02547 431.70626,138.245782 431.70626,138.466094 L407.031316,147.829354 L390.067292,154.218402 C389.736824,153.667622 389.2962,153.116842 388.855576,152.786374 L417.275824,100.241961 L417.275824,100.241961 Z M390.177448,94.0732251 C390.287604,95.5052531 389.186044,96.7169691 387.754016,96.8271251 L387.64386,96.8271251 C386.321988,96.8271251 385.220428,95.8357211 385.110272,94.4036931 C385.000116,92.9716651 386.101676,91.7599491 387.533704,91.6497931 L387.64386,91.6497931 C388.965732,91.7599491 390.067292,92.7513531 390.177448,94.0732251 L390.177448,94.0732251 Z M378.941535,43.4014645 L379.051691,43.4014645 C380.373563,43.4014645 381.475124,44.3928685 381.58528,45.8248965 C381.695436,47.2569245 380.593876,48.4686406 379.161847,48.5787966 L379.051691,48.5787966 C377.729819,48.5787966 376.628259,47.5873926 376.518103,46.1553645 C376.518103,44.7233365 377.509507,43.5116205 378.941535,43.4014645 L378.941535,43.4014645 Z M374.865763,44.3928685 C374.645451,44.9436485 374.535295,45.6045845 374.535295,46.2655205 C374.535295,46.9264565 374.755607,47.4772365 374.975919,47.9178606 L322.321351,83.498249 L318.576047,86.031837 C317.694799,85.150589 316.593239,84.489653 315.271367,84.489653 L304.476079,8.8124801 C305.467483,8.4820121 306.238575,7.93123209 306.789355,7.16014008 L374.865763,44.3928685 L374.865763,44.3928685 Z M303.044051,1.98280802 L303.154207,1.98280802 C304.476079,1.98280802 305.577639,2.97421203 305.687795,4.40624005 C305.797951,5.83826807 304.696391,7.04998408 303.264363,7.16014008 L303.154207,7.16014008 C301.832335,7.16014008 300.730775,6.16873607 300.620619,4.73670805 C300.510463,3.30468004 301.612023,2.09296402 303.044051,1.98280802 L303.044051,1.98280802 Z M298.968279,6.05858007 C299.298747,7.16014008 300.069839,8.04138809 301.061243,8.5921681 L279.690978,66.8646928 L278.25895,70.9404648 C277.928482,70.8303088 277.598014,70.8303088 277.377702,70.8303088 L277.047234,70.8303088 C276.165986,70.9404648 275.284738,71.2709328 274.623802,71.7115568 L225.714538,22.8022923 C226.375474,22.0312003 226.705942,20.9296402 226.595786,19.9382362 L262.616798,12.9984082 L298.968279,6.05858007 L298.968279,6.05858007 Z M221.969234,17.5148042 L222.07939,17.5148042 C223.401262,17.5148042 224.502822,18.5062082 224.612978,19.9382362 C224.723134,21.3702642 223.621574,22.5819803 222.189546,22.6921363 L222.07939,22.6921363 C220.757518,22.6921363 219.655958,21.7007323 219.545802,20.2687042 C219.435646,18.8366762 220.537206,17.6249602 221.969234,17.5148042 L221.969234,17.5148042 Z M204.234117,35.5803884 L219.105178,23.4632283 C219.87627,24.2343203 220.97783,24.6749443 222.07939,24.6749443 L227.146566,63.6701687 L227.917658,69.2881248 C226.926254,69.6185928 226.045006,70.2795288 225.38407,71.0506208 L188.481809,52.5444126 C188.702121,51.9936326 188.702121,51.4428526 188.702121,50.7819166 C188.702121,50.0108246 188.371653,49.3498886 188.041185,48.6889526 L204.234117,35.5803884 L204.234117,35.5803884 Z M183.965413,48.5787966 L184.075569,48.5787966 C185.397441,48.5787966 186.499001,49.5702006 186.609157,51.0022286 C186.719313,52.4342566 185.617753,53.6459726 184.185725,53.7561286 L184.075569,53.7561286 C182.753697,53.7561286 181.652137,52.7647246 181.541981,51.3326966 C181.431825,49.9006686 182.533385,48.6889526 183.965413,48.5787966 L183.965413,48.5787966 Z M179.779485,50.0108246 C179.669329,50.4514486 179.559173,50.8920726 179.669329,51.4428526 C179.779485,53.0951926 180.770889,54.5272206 182.202917,55.1881566 L181.872449,56.0694046 L164.247489,108.834129 C164.027177,108.834129 163.696709,108.723973 163.476397,108.723973 L163.145929,108.723973 C162.925617,108.723973 162.705305,108.834129 162.595149,108.834129 L136.267865,34.4788284 C136.708489,34.2585164 137.149113,33.9280484 137.589737,33.4874244 C137.810049,33.2671124 137.920205,33.0468004 138.140517,32.8264884 L179.779485,50.0108246 L179.779485,50.0108246 Z M133.954589,27.8694683 L134.064745,27.8694683 C135.386617,27.8694683 136.488177,28.8608723 136.598333,30.2929004 C136.708489,31.7249284 135.606929,32.9366444 134.174901,33.0468004 L134.064745,33.0468004 C132.742873,33.0468004 131.641313,32.0553964 131.531157,30.6233684 C131.421001,29.1913403 132.522561,27.9796243 133.954589,27.8694683 L133.954589,27.8694683 Z M129.878817,32.1655524 C130.099129,32.7163324 130.429597,33.1569564 130.760065,33.4874244 L98.4843562,73.1435848 C97.8234202,72.7029608 97.0523282,72.4826488 96.1710802,72.4826488 L95.8406122,72.4826488 C94.8492082,72.5928048 93.9679602,72.9232728 93.3070242,73.4740528 L90.8835922,71.1607768 L68.7422359,50.2311366 C69.2930159,49.3498886 69.6234839,48.3584846 69.6234839,47.3670805 L69.6234839,47.1467685 L129.878817,32.1655524 L129.878817,32.1655524 Z M64.8867759,45.1639605 L64.9969319,45.1639605 C66.3188039,45.1639605 67.4203639,46.1553645 67.5305199,47.5873926 C67.6406759,49.0194206 66.5391159,50.2311366 65.1070879,50.3412926 L64.9969319,50.3412926 C63.6750598,50.3412926 62.5734998,49.3498886 62.4633438,47.9178606 C62.4633438,46.4858325 63.4547478,45.1639605 64.8867759,45.1639605 L64.8867759,45.1639605 Z M65.1070879,52.2139446 L65.4375559,52.2139446 C66.4289599,52.1037886 67.2000519,51.7733206 67.9711439,51.2225406 L91.2140602,73.1435848 L92.5359322,74.3553009 C91.9851522,75.1263929 91.6546842,76.1177969 91.6546842,77.2193569 L91.6546842,77.5498249 L65.9883359,84.820121 L39.5508956,92.4208851 C39.3305836,91.8701051 39.0001156,91.3193251 38.5594915,90.8787011 L63.2344358,51.7733206 C63.7852158,52.1037886 64.4461518,52.2139446 65.1070879,52.2139446 L65.1070879,52.2139446 Z M32.8313795,94.4036931 C32.7212235,92.9716651 33.8227835,91.7599491 35.2548115,91.6497931 L35.3649675,91.6497931 C36.6868395,91.6497931 37.7883995,92.6411971 37.8985555,94.0732251 C38.0087115,95.5052531 36.9071515,96.7169691 35.4751235,96.8271251 L35.3649675,96.8271251 C34.0430955,96.8271251 32.9415355,95.8357211 32.8313795,94.4036931 L32.8313795,94.4036931 Z M37.2376195,138.355938 L37.3477755,138.355938 C38.6696475,138.355938 39.7712076,139.347342 39.8813636,140.77937 C39.9915196,142.211398 38.8899596,143.423114 37.4579315,143.53327 L37.3477755,143.53327 C36.0259035,143.53327 34.9243435,142.541866 34.8141875,141.109838 C34.8141875,139.567654 35.9157475,138.355938 37.2376195,138.355938 L37.2376195,138.355938 Z M16.4181353,154.54887 L34.0430955,143.753582 C34.9243435,144.744986 36.1360595,145.405922 37.5680875,145.405922 L37.8985555,145.405922 C38.2290235,145.405922 38.5594915,145.295766 39.0001156,145.18561 L65.9883359,202.687042 C65.7680239,202.907354 65.5477119,203.01751 65.3273999,203.237822 L10.3595552,162.039478 C10.8001792,161.268386 11.0204912,160.497294 10.9103352,159.616046 C10.9103352,159.065266 10.6900232,158.624642 10.5798672,158.073862 L16.4181353,154.54887 L16.4181353,154.54887 Z M3.86035115,160.05667 C3.75019514,158.624642 4.85175516,157.412926 6.28378317,157.30277 L6.39393918,157.30277 C7.71581119,157.30277 8.8173712,158.294174 8.9275272,159.726202 C9.03768321,161.15823 7.93612319,162.369946 6.50409518,162.480102 L6.39393918,162.480102 C5.07206716,162.369946 3.86035115,161.378542 3.86035115,160.05667 L3.86035115,160.05667 Z M4.85175516,219.320599 L4.74159916,219.320599 C3.41972714,219.320599 2.31816713,218.329195 2.20801113,216.897167 C2.09785513,215.465138 3.19941514,214.253422 4.63144316,214.143266 L4.74159916,214.143266 C6.06347117,214.143266 7.16503118,215.13467 7.27518719,216.566699 C7.27518719,217.998727 6.17362717,219.210443 4.85175516,219.320599 L4.85175516,219.320599 Z M8.1564352,219.651067 C8.8173712,218.769819 9.14783921,217.778415 9.14783921,216.676855 L64.1156838,207.754218 C64.4461518,208.965934 65.3273999,209.957338 66.4289599,210.508118 L50.2360277,260.629099 C50.0157157,260.629099 49.6852477,260.518943 49.4649357,260.518943 L49.1344677,260.518943 C48.2532197,260.518943 47.4821277,260.849411 46.8211916,261.290035 L45.3891636,259.747851 L8.1564352,219.651067 L8.1564352,219.651067 Z M46.9313476,265.255651 C46.8211916,263.823623 47.9227517,262.611907 49.3547797,262.501751 L49.4649357,262.501751 C50.7868077,262.501751 51.8883677,263.493155 51.9985237,264.925183 C52.1086797,266.357211 51.0071197,267.568927 49.5750917,267.679083 L49.4649357,267.679083 C48.1430637,267.679083 47.0415036,266.577523 46.9313476,265.255651 L46.9313476,265.255651 Z M49.6852477,302.157911 L49.5750917,302.157911 C48.2532197,302.157911 47.1516596,301.166507 47.0415036,299.734479 C46.9313476,298.302451 48.0329077,297.090735 49.4649357,296.980579 L49.5750917,296.980579 C50.8969637,296.980579 51.9985237,297.971983 52.1086797,299.404011 C52.2188357,300.836039 51.1172757,302.047755 49.6852477,302.157911 L49.6852477,302.157911 Z M53.2102397,302.268067 C53.5407077,301.717287 53.8711757,301.166507 53.9813317,300.615727 L100.136696,303.479784 C100.246852,304.6915 100.797632,305.682904 101.568724,306.453996 L90.4429681,322.206304 L86.0367281,328.485196 C85.3757921,328.154728 84.7148561,327.934416 83.9437641,327.934416 L83.6132961,327.934416 C83.1726721,327.934416 82.7320481,328.044572 82.2914241,328.264884 L82.1812681,328.154728 L82.1812681,328.264884 C81.740644,328.485196 81.30002,328.595352 80.969552,328.92582 L61.9125638,310.860236 L53.2102397,302.268067 L53.2102397,302.268067 Z M84.1640761,334.9844 L84.0539201,334.9844 C82.7320481,334.9844 81.630488,333.992996 81.520332,332.560968 C81.410176,331.12894 82.5117361,329.917224 83.9437641,329.807068 L84.0539201,329.807068 C85.3757921,329.807068 86.4773521,330.798472 86.5875081,332.2305 C86.6976641,333.662528 85.5961041,334.874244 84.1640761,334.9844 L84.1640761,334.9844 Z M87.9093801,330.02738 C87.6890681,329.696912 87.4687561,329.366444 87.1382881,329.146132 L93.4171802,320.223496 L102.670284,307.114932 C103.221064,307.4454 103.882,307.555556 104.653092,307.555556 L104.98356,307.555556 C106.195276,307.4454 107.296836,306.89462 108.067928,306.013372 C108.398396,305.572748 108.728864,305.132124 108.949176,304.581344 L109.279644,304.6915 L131.421001,309.64852 L131.421001,310.309456 C131.421001,310.639924 131.531157,310.970392 131.531157,311.190704 L87.9093801,330.02738 L87.9093801,330.02738 Z M135.937397,312.512576 L135.827241,312.512576 C134.505369,312.512576 133.403809,311.521172 133.293653,310.089144 C133.183497,308.657116 134.285057,307.4454 135.717085,307.335244 L135.827241,307.335244 C137.149113,307.335244 138.250673,308.326648 138.360829,309.758676 C138.470985,311.190704 137.369425,312.40242 135.937397,312.512576 L135.937397,312.512576 Z M144.199097,314.275072 L140.013169,311.741484 C140.233481,311.080548 140.453793,310.419612 140.343637,309.758676 C140.233481,308.54696 139.682701,307.4454 138.911609,306.674308 L173.610749,256.883795 C173.720905,256.993951 173.941217,256.993951 174.051373,256.993951 L161.824057,320.994588 L161.603745,320.994588 L161.273277,320.994588 C159.951405,321.104744 158.849845,321.76568 158.078753,322.646928 L144.199097,314.275072 L144.199097,314.275072 Z M161.824057,328.044572 L161.713901,328.044572 C160.392029,328.044572 159.290469,327.053168 159.180313,325.62114 C159.070157,324.189112 160.171717,322.977396 161.603745,322.86724 L161.713901,322.86724 C163.035773,322.86724 164.137333,323.858644 164.247489,325.290672 C164.357645,326.7227 163.256085,327.934416 161.824057,328.044572 L161.824057,328.044572 Z M165.349049,322.757084 C164.798269,321.985992 164.027177,321.435212 163.145929,321.2149 L175.373245,257.214263 L175.483401,257.214263 L175.813869,257.214263 C176.254493,257.214263 176.584961,257.104107 176.915429,256.993951 L200.378657,299.514167 C200.158345,299.734479 199.938033,299.954791 199.717721,300.175103 C198.946629,301.056351 198.506005,302.268067 198.616161,303.479784 C198.616161,303.920408 198.726317,304.361032 198.946629,304.801656 L165.349049,322.757084 L165.349049,322.757084 Z M203.242713,305.682904 L203.132557,305.682904 C201.810685,305.682904 200.709125,304.6915 200.598969,303.259472 C200.488813,301.827443 201.590373,300.615727 203.022401,300.505571 L203.132557,300.505571 C204.454429,300.505571 205.555989,301.496975 205.666145,302.929004 C205.776301,304.361032 204.674741,305.572748 203.242713,305.682904 L203.242713,305.682904 Z M258.541026,343.576568 L258.43087,343.576568 C257.108998,343.576568 256.007438,342.585164 255.897282,341.153136 C255.787126,339.721108 256.888686,338.509392 258.320714,338.399236 L258.43087,338.399236 C259.752742,338.399236 260.854302,339.39064 260.964458,340.822668 C260.964458,342.254696 259.862898,343.466412 258.541026,343.576568 L258.541026,343.576568 Z M330.913519,338.399236 L330.803363,338.399236 C329.481491,338.399236 328.379931,337.407832 328.269775,335.975804 C328.159619,334.543776 329.261179,333.33206 330.693207,333.221904 L330.803363,333.221904 C332.125235,333.221904 333.226795,334.213308 333.336951,335.645336 C333.447107,337.077364 332.345547,338.28908 330.913519,338.399236 L330.913519,338.399236 Z M335.319759,335.425024 C335.099447,333.442216 333.667419,331.789876 331.684611,331.459408 L334.548667,285.193887 C334.989291,285.193887 335.540071,284.973575 335.980695,284.863419 L366.053283,334.543776 C365.943127,334.653932 365.722815,334.764088 365.612659,334.9844 C365.172035,335.53518 364.841567,336.196116 364.621255,336.857052 L335.319759,335.425024 L335.319759,335.425024 Z M369.247807,340.4922 L369.137651,340.4922 C367.815779,340.4922 366.714219,339.500796 366.604063,338.068768 C366.493907,336.63674 367.595467,335.425024 369.027495,335.314868 L369.137651,335.314868 C370.459523,335.314868 371.561083,336.306272 371.671239,337.7383 C371.781395,339.170328 370.679835,340.382044 369.247807,340.4922 L369.247807,340.4922 Z M369.357963,333.442216 L367.815779,267.899395 C368.807183,267.679083 369.798587,267.238459 370.459523,266.467367 C370.789991,266.026743 371.120459,265.586119 371.340771,265.035339 L412.649272,273.627507 L412.649272,274.178287 C412.759428,275.279847 413.200052,276.271251 413.971144,277.042343 L371.010303,333.88284 C370.349367,333.552372 369.908743,333.442216 369.357963,333.442216 L369.357963,333.442216 Z M417.275824,276.271251 L417.165668,276.271251 C415.843796,276.271251 414.742236,275.279847 414.63208,273.847819 C414.521924,272.415791 415.623484,271.204075 417.055512,271.093919 L417.165668,271.093919 C418.48754,271.093919 419.5891,272.085323 419.699256,273.517351 C419.699256,274.949379 418.707852,276.161095 417.275824,276.271251 L417.275824,276.271251 Z M455.169488,234.962751 L455.059332,234.962751 C453.73746,234.962751 452.6359,233.971347 452.525744,232.539319 C452.415588,231.107291 453.517148,229.895575 454.949176,229.785419 L455.059332,229.785419 C456.381204,229.785419 457.482764,230.776823 457.59292,232.208851 C457.703076,233.751035 456.601516,234.962751 455.169488,234.962751 L455.169488,234.962751 Z" id="Shape" fill="#FFFFFF" opacity="0.15"></path>
                        <rect id="window" fill="#151515" x="90" y="19" width="370" height="261" rx="6"></rect>
                        <path d="M460,70 L90,70 L90,23 C90,20.9531915 91.9646018,19 94,19 L456,19 C458.035398,19 460,20.9531915 460,23 L460,70 Z" id="Shape" fill="url(#linearGradient-2)"></path>
                        <rect id="line" fill="#C5C3C5" x="90" y="70" width="370" height="1"></rect>
                        <rect id="input" fill="#C7C7C7" x="210" y="35" width="218" height="20" rx="10"></rect>
                        <g id="nav-page" transform="translate(162.000000, 42.000000)" stroke-width="2" stroke="#C7C7C7">
                            <polyline id="icon-next-copy" points="25.2448378 0.0669456067 29.2448378 4.06694561 25.2448378 7.06694561"></polyline>
                            <polyline id="icon-previous-copy" transform="translate(2.244838, 3.566946) scale(-1, 1) translate(-2.244838, -3.566946) " points="0.244837758 0.0669456067 4.24483776 4.06694561 0.244837758 7.06694561"></polyline>
                        </g>
                        <g id="controls" transform="translate(103.000000, 42.000000)">
                            <g id="Oval">
                                <use fill="#C7C7C7" fill-rule="evenodd" xlink:href="#path-3"></use>
                                <use stroke="#C7C7C7" mask="url(#mask-4)" stroke-width="3.2" xlink:href="#path-3"></use>
                            </g>
                            <g id="Oval">
                                <use fill="#C7C7C7" fill-rule="evenodd" xlink:href="#path-5"></use>
                                <use stroke="#C7C7C7" mask="url(#mask-6)" stroke-width="3.2" xlink:href="#path-5"></use>
                            </g>
                            <g id="Oval">
                                <use fill="#C7C7C7" fill-rule="evenodd" xlink:href="#path-7"></use>
                                <use stroke="#C7C7C7" mask="url(#mask-8)" stroke-width="3.2" xlink:href="#path-7"></use>
                            </g>
                        </g>
                    </g>
                </g>
            </g>
        </g>
    </g>
</svg>