<?xml version="1.0" encoding="UTF-8" standalone="no"?>
<svg width="418px" height="309px" viewBox="0 0 418 309" version="1.1" xmlns="http://www.w3.org/2000/svg" xmlns:xlink="http://www.w3.org/1999/xlink">
    <!-- Generator: Sketch 39.1 (31720) - http://www.bohemiancoding.com/sketch -->
    <title>silhouette-sm</title>
    <desc>Created with Sketch.</desc>
    <defs>
        <filter x="-50%" y="-50%" width="200%" height="200%" filterUnits="objectBoundingBox" id="filter-1">
            <feOffset dx="0" dy="2" in="SourceAlpha" result="shadowOffsetOuter1"></feOffset>
            <feGaussianBlur stdDeviation="12" in="shadowOffsetOuter1" result="shadowBlurOuter1"></feGaussianBlur>
            <feColorMatrix values="0 0 0 0 0   0 0 0 0 0   0 0 0 0 0  0 0 0 0.65 0" type="matrix" in="shadowBlurOuter1" result="shadowMatrixOuter1"></feColorMatrix>
            <feMerge>
                <feMergeNode in="shadowMatrixOuter1"></feMergeNode>
                <feMergeNode in="SourceGraphic"></feMergeNode>
            </feMerge>
        </filter>
        <linearGradient x1="50%" y1="1.624756%" x2="50%" y2="100%" id="linearGradient-2">
            <stop stop-color="#F6F2F4" offset="0%"></stop>
            <stop stop-color="#E6E4E6" offset="2.187899%"></stop>
            <stop stop-color="#D3D1D3" offset="100%"></stop>
            <stop stop-color="#D3D1D3" offset="100%"></stop>
        </linearGradient>
        <ellipse id="path-3" cx="3.53420424" cy="3.27615063" rx="3.53420424" ry="3.27615063"></ellipse>
        <mask id="mask-4" maskContentUnits="userSpaceOnUse" maskUnits="objectBoundingBox" x="-1.6" y="-1.6" width="10.2684085" height="9.75230126">
            <rect x="-1.6" y="-1.6" width="10.2684085" height="9.75230126" fill="white"></rect>
            <use xlink:href="#path-3" fill="black"></use>
        </mask>
        <ellipse id="path-5" cx="18.5545723" cy="3.27615063" rx="3.53420424" ry="3.27615063"></ellipse>
        <mask id="mask-6" maskContentUnits="userSpaceOnUse" maskUnits="objectBoundingBox" x="-1.6" y="-1.6" width="10.2684085" height="9.75230126">
            <rect x="13.420368" y="-1.6" width="10.2684085" height="9.75230126" fill="white"></rect>
            <use xlink:href="#path-5" fill="black"></use>
        </mask>
        <ellipse id="path-7" cx="33.5749403" cy="3.27615063" rx="3.53420424" ry="3.27615063"></ellipse>
        <mask id="mask-8" maskContentUnits="userSpaceOnUse" maskUnits="objectBoundingBox" x="-1.6" y="-1.6" width="10.2684085" height="9.75230126">
            <rect x="28.4407361" y="-1.6" width="10.2684085" height="9.75230126" fill="white"></rect>
            <use xlink:href="#path-7" fill="black"></use>
        </mask>
    </defs>
    <g id="website-(blockstack)" stroke="none" stroke-width="1" fill="none" fill-rule="evenodd">
        <g id="blockstack-v2-Home" transform="translate(-628.000000, -273.000000)">
            <g id="hero" transform="translate(0.000000, 78.000000)">
                <g id="hero-pip-install-blockstack" transform="translate(562.000000, 198.000000)">
                    <g id="silhouette-sm" filter="url(#filter-1)" transform="translate(90.000000, 19.000000)">
                        <rect id="window" fill="#151515" x="0" y="0" width="370" height="261" rx="6"></rect>
                        <path d="M370,51 L0,51.3263598 L0,4.36820084 C0,1.96569038 1.96460177,0 4.36578171,0 L365.634218,0 C368.035398,0 370,1.96569038 370,4.36820084 L370,51 Z" id="Shape" fill="url(#linearGradient-2)"></path>
                        <rect id="line" fill="#C5C3C5" x="0" y="51" width="370" height="1"></rect>
                        <rect id="input" fill="#C7C7C7" x="120.058997" y="16.3807531" width="218.289086" height="19.6569038" rx="9.82845188"></rect>
                        <g id="nav-page" transform="translate(56.755162, 22.933054)" stroke-width="2" stroke="#C7C7C7">
                            <polyline id="icon-next-copy" points="39.8377581 0 43.3639664 3.54916318 39.8377581 7.09832636"></polyline>
                            <polyline id="icon-previous-copy" transform="translate(16.749489, 3.549163) scale(-1, 1) translate(-16.749489, -3.549163) " points="14.9863853 0 18.5125936 3.54916318 14.9863853 7.09832636"></polyline>
                        </g>
                        <path d="M86.9079882,145.972 L85.2639882,145.972 L85.2639882,145.228 L86.9439882,145.168 L87.0759882,143.536 L87.8919882,143.536 L87.8919882,145.168 L90.7599882,145.168 L90.7599882,145.972 L87.8919882,145.972 L87.8919882,148.744 C87.8919882,149.008001 87.915988,149.237999 87.9639882,149.434 C88.0119884,149.630001 88.0919876,149.795999 88.2039882,149.932 C88.3159888,150.068001 88.4679872,150.17 88.6599882,150.238 C88.8519892,150.306 89.0879868,150.34 89.3679882,150.34 C89.6479896,150.34 89.8999871,150.316 90.1239882,150.268 C90.3479893,150.22 90.5639872,150.156 90.7719882,150.076 L90.9879882,150.796 C90.7239869,150.892 90.4319898,150.974 90.1119882,151.042 C89.7919866,151.11 89.4719898,151.144 89.1519882,151.144 C88.7279861,151.144 88.3719896,151.086001 88.0839882,150.97 C87.7959868,150.853999 87.5659891,150.690001 87.3939882,150.478 C87.2219873,150.265999 87.0979886,150.012001 87.0219882,149.716 C86.9459878,149.419999 86.9079882,149.092002 86.9079882,148.732 L86.9079882,145.972 Z M92.7519882,142.456 L93.7359882,142.456 L93.7359882,144.784 L93.6879882,146.164 C93.9999898,145.835998 94.3319864,145.564001 94.6839882,145.348 C95.03599,145.131999 95.4399859,145.024 95.8959882,145.024 C96.5919917,145.024 97.1019866,145.221998 97.4259882,145.618 C97.7499898,146.014002 97.9119882,146.599996 97.9119882,147.376 L97.9119882,151 L96.9279882,151 L96.9279882,147.508 C96.9279882,146.955997 96.8239892,146.546001 96.6159882,146.278 C96.4079872,146.009999 96.0639906,145.876 95.5839882,145.876 C95.4079873,145.876 95.2459889,145.898 95.0979882,145.942 C94.9499875,145.986 94.8039889,146.052 94.6599882,146.14 C94.5159875,146.228 94.367989,146.337999 94.2159882,146.47 C94.0639874,146.602001 93.903989,146.755999 93.7359882,146.932 L93.7359882,151 L92.7519882,151 L92.7519882,142.456 Z M99.6639882,148.096 C99.6639882,147.615998 99.7479874,147.186002 99.9159882,146.806 C100.083989,146.425998 100.305987,146.104001 100.581988,145.84 C100.85799,145.575999 101.173986,145.374001 101.529988,145.234 C101.88599,145.093999 102.251986,145.024 102.627988,145.024 C103.04399,145.024 103.415987,145.089999 103.743988,145.222 C104.07199,145.354001 104.349987,145.539999 104.577988,145.78 C104.805989,146.020001 104.979988,146.307998 105.099988,146.644 C105.219989,146.980002 105.279988,147.351998 105.279988,147.76 C105.279988,147.864001 105.277988,147.966 105.273988,148.066 C105.269988,148.166 105.259988,148.252 105.243988,148.324 L100.683988,148.324 C100.691988,148.636002 100.753988,148.915999 100.869988,149.164 C100.985989,149.412001 101.141987,149.623999 101.337988,149.8 C101.533989,149.976001 101.765987,150.112 102.033988,150.208 C102.30199,150.304 102.595987,150.352 102.915988,150.352 C103.25999,150.352 103.573987,150.304 103.857988,150.208 C104.14199,150.112 104.419987,149.980001 104.691988,149.812 L105.039988,150.46 C104.751987,150.644001 104.42399,150.803999 104.055988,150.94 C103.687986,151.076001 103.267991,151.144 102.795988,151.144 C102.363986,151.144 101.95799,151.074001 101.577988,150.934 C101.197986,150.793999 100.86599,150.594001 100.581988,150.334 C100.297987,150.073999 100.073989,149.756002 99.9099882,149.38 C99.7459874,149.003998 99.6639882,148.576002 99.6639882,148.096 L99.6639882,148.096 Z M104.367988,147.616 C104.367988,147.031997 104.21599,146.584002 103.911988,146.272 C103.607987,145.959998 103.183991,145.804 102.639988,145.804 C102.399987,145.804 102.169989,145.844 101.949988,145.924 C101.729987,146.004 101.531989,146.121999 101.355988,146.278 C101.179987,146.434001 101.031989,146.623999 100.911988,146.848 C100.791988,147.072001 100.711988,147.327999 100.671988,147.616 L104.367988,147.616 Z M119.943988,143.392 C119.703987,143.279999 119.481989,143.206 119.277988,143.17 C119.073987,143.134 118.843989,143.116 118.587988,143.116 C118.059986,143.116 117.681989,143.249999 117.453988,143.518 C117.225987,143.786001 117.111988,144.159998 117.111988,144.64 L117.111988,145.168 L119.559988,145.168 L119.559988,145.972 L117.111988,145.972 L117.111988,151 L116.139988,151 L116.139988,145.972 L114.471988,145.972 L114.471988,145.228 L116.139988,145.168 L116.139988,144.676 C116.139988,143.963996 116.329986,143.392002 116.709988,142.96 C117.08999,142.527998 117.683984,142.312 118.491988,142.312 C119.067991,142.312 119.627985,142.423999 120.171988,142.648 L119.943988,143.392 Z M126.495988,151 L125.691988,151 L125.607988,149.98 L125.559988,149.98 C125.263987,150.324002 124.94199,150.603999 124.593988,150.82 C124.245986,151.036001 123.84399,151.144 123.387988,151.144 C122.683985,151.144 122.16999,150.946002 121.845988,150.55 C121.521987,150.153998 121.359988,149.568004 121.359988,148.792 L121.359988,145.168 L122.355988,145.168 L122.355988,148.66 C122.355988,149.212003 122.457987,149.621999 122.661988,149.89 C122.865989,150.158001 123.211986,150.292 123.699988,150.292 C124.03599,150.292 124.339987,150.206001 124.611988,150.034 C124.88399,149.861999 125.183987,149.588002 125.511988,149.212 L125.511988,145.168 L126.495988,145.168 L126.495988,151 Z M130.107988,145.972 L128.463988,145.972 L128.463988,145.228 L130.143988,145.168 L130.275988,143.536 L131.091988,143.536 L131.091988,145.168 L133.959988,145.168 L133.959988,145.972 L131.091988,145.972 L131.091988,148.744 C131.091988,149.008001 131.115988,149.237999 131.163988,149.434 C131.211988,149.630001 131.291988,149.795999 131.403988,149.932 C131.515989,150.068001 131.667987,150.17 131.859988,150.238 C132.051989,150.306 132.287987,150.34 132.567988,150.34 C132.84799,150.34 133.099987,150.316 133.323988,150.268 C133.547989,150.22 133.763987,150.156 133.971988,150.076 L134.187988,150.796 C133.923987,150.892 133.63199,150.974 133.311988,151.042 C132.991987,151.11 132.67199,151.144 132.351988,151.144 C131.927986,151.144 131.57199,151.086001 131.283988,150.97 C130.995987,150.853999 130.765989,150.690001 130.593988,150.478 C130.421987,150.265999 130.297989,150.012001 130.221988,149.716 C130.145988,149.419999 130.107988,149.092002 130.107988,148.732 L130.107988,145.972 Z M140.895988,151 L140.091988,151 L140.007988,149.98 L139.959988,149.98 C139.663987,150.324002 139.34199,150.603999 138.993988,150.82 C138.645986,151.036001 138.24399,151.144 137.787988,151.144 C137.083985,151.144 136.56999,150.946002 136.245988,150.55 C135.921987,150.153998 135.759988,149.568004 135.759988,148.792 L135.759988,145.168 L136.755988,145.168 L136.755988,148.66 C136.755988,149.212003 136.857987,149.621999 137.061988,149.89 C137.265989,150.158001 137.611986,150.292 138.099988,150.292 C138.43599,150.292 138.739987,150.206001 139.011988,150.034 C139.28399,149.861999 139.583987,149.588002 139.911988,149.212 L139.911988,145.168 L140.895988,145.168 L140.895988,151 Z M143.787988,145.168 L144.603988,145.168 L144.687988,146.548 L144.723988,146.548 C145.02799,146.075998 145.401986,145.704001 145.845988,145.432 C146.28999,145.159999 146.783985,145.024 147.327988,145.024 C147.543989,145.024 147.743987,145.042 147.927988,145.078 C148.111989,145.114 148.295987,145.176 148.479988,145.264 L148.251988,146.116 C148.043987,146.044 147.869989,145.992 147.729988,145.96 C147.589988,145.928 147.403989,145.912 147.171988,145.912 C146.731986,145.912 146.30999,146.037999 145.905988,146.29 C145.501986,146.542001 145.12399,146.971997 144.771988,147.58 L144.771988,151 L143.787988,151 L143.787988,145.168 Z M150.063988,148.096 C150.063988,147.615998 150.147987,147.186002 150.315988,146.806 C150.483989,146.425998 150.705987,146.104001 150.981988,145.84 C151.25799,145.575999 151.573986,145.374001 151.929988,145.234 C152.28599,145.093999 152.651986,145.024 153.027988,145.024 C153.44399,145.024 153.815987,145.089999 154.143988,145.222 C154.47199,145.354001 154.749987,145.539999 154.977988,145.78 C155.205989,146.020001 155.379988,146.307998 155.499988,146.644 C155.619989,146.980002 155.679988,147.351998 155.679988,147.76 C155.679988,147.864001 155.677988,147.966 155.673988,148.066 C155.669988,148.166 155.659988,148.252 155.643988,148.324 L151.083988,148.324 C151.091988,148.636002 151.153988,148.915999 151.269988,149.164 C151.385989,149.412001 151.541987,149.623999 151.737988,149.8 C151.933989,149.976001 152.165987,150.112 152.433988,150.208 C152.70199,150.304 152.995987,150.352 153.315988,150.352 C153.65999,150.352 153.973987,150.304 154.257988,150.208 C154.54199,150.112 154.819987,149.980001 155.091988,149.812 L155.439988,150.46 C155.151987,150.644001 154.82399,150.803999 154.455988,150.94 C154.087986,151.076001 153.667991,151.144 153.195988,151.144 C152.763986,151.144 152.35799,151.074001 151.977988,150.934 C151.597986,150.793999 151.26599,150.594001 150.981988,150.334 C150.697987,150.073999 150.473989,149.756002 150.309988,149.38 C150.145987,149.003998 150.063988,148.576002 150.063988,148.096 L150.063988,148.096 Z M154.767988,147.616 C154.767988,147.031997 154.61599,146.584002 154.311988,146.272 C154.007987,145.959998 153.583991,145.804 153.039988,145.804 C152.799987,145.804 152.569989,145.844 152.349988,145.924 C152.129987,146.004 151.931989,146.121999 151.755988,146.278 C151.579987,146.434001 151.431989,146.623999 151.311988,146.848 C151.191988,147.072001 151.111988,147.327999 151.071988,147.616 L154.767988,147.616 Z M164.715988,145.168 L168.411988,145.168 L168.411988,151 L167.427988,151 L167.427988,145.972 L164.715988,145.972 L164.715988,145.168 Z M167.811988,143.968 C167.579987,143.968 167.389989,143.900001 167.241988,143.764 C167.093987,143.627999 167.019988,143.444001 167.019988,143.212 C167.019988,142.979999 167.093987,142.794001 167.241988,142.654 C167.389989,142.513999 167.579987,142.444 167.811988,142.444 C168.035989,142.444 168.223987,142.513999 168.375988,142.654 C168.527989,142.794001 168.603988,142.979999 168.603988,143.212 C168.603988,143.444001 168.527989,143.627999 168.375988,143.764 C168.223987,143.900001 168.035989,143.968 167.811988,143.968 L167.811988,143.968 Z M172.179988,149.584 C172.50799,149.824001 172.859986,150.015999 173.235988,150.16 C173.61199,150.304001 174.063986,150.376 174.591988,150.376 C175.119991,150.376 175.511987,150.288001 175.767988,150.112 C176.023989,149.935999 176.151988,149.720001 176.151988,149.464 C176.151988,149.239999 176.01399,149.040001 175.737988,148.864 C175.461987,148.687999 174.967992,148.512001 174.255988,148.336 C173.951987,148.264 173.66599,148.176001 173.397988,148.072 C173.129987,147.967999 172.895989,147.846001 172.695988,147.706 C172.495987,147.565999 172.335989,147.412001 172.215988,147.244 C172.095988,147.075999 172.035988,146.888001 172.035988,146.68 C172.035988,146.447999 172.087988,146.230001 172.191988,146.026 C172.295989,145.821999 172.449987,145.646001 172.653988,145.498 C172.857989,145.349999 173.113987,145.234 173.421988,145.15 C173.72999,145.066 174.083986,145.024 174.483988,145.024 C174.92399,145.024 175.351986,145.097999 175.767988,145.246 C176.18399,145.394001 176.535987,145.567999 176.823988,145.768 L176.343988,146.404 C176.087987,146.219999 175.80399,146.072001 175.491988,145.96 C175.179987,145.847999 174.84399,145.792 174.483988,145.792 C174.211987,145.792 173.983989,145.814 173.799988,145.858 C173.615987,145.902 173.467989,145.962 173.355988,146.038 C173.243988,146.114 173.163988,146.203999 173.115988,146.308 C173.067988,146.412001 173.043988,146.519999 173.043988,146.632 C173.043988,146.872001 173.207987,147.069999 173.535988,147.226 C173.86399,147.382001 174.291986,147.527999 174.819988,147.664 C175.611992,147.864001 176.197986,148.091999 176.577988,148.348 C176.95799,148.604001 177.147988,148.955998 177.147988,149.404 C177.147988,149.644001 177.091989,149.867999 176.979988,150.076 C176.867988,150.284001 176.701989,150.467999 176.481988,150.628 C176.261987,150.788001 175.98999,150.914 175.665988,151.006 C175.341987,151.098 174.97199,151.144 174.555988,151.144 C173.979985,151.144 173.449991,151.054001 172.965988,150.874 C172.481986,150.693999 172.05999,150.480001 171.699988,150.232 L172.179988,149.584 Z M186.207988,149.488 C186.207988,149.159998 186.285987,148.874001 186.441988,148.63 C186.597989,148.385999 186.845987,148.176001 187.185988,148 C187.52599,147.823999 187.963986,147.680001 188.499988,147.568 C189.035991,147.455999 189.679984,147.368 190.431988,147.304 C190.423988,147.103999 190.391988,146.916001 190.335988,146.74 C190.279988,146.563999 190.191989,146.410001 190.071988,146.278 C189.951988,146.145999 189.793989,146.04 189.597988,145.96 C189.401987,145.88 189.16399,145.84 188.883988,145.84 C188.499986,145.84 188.13199,145.913999 187.779988,146.062 C187.427986,146.210001 187.11599,146.367999 186.843988,146.536 L186.459988,145.864 C186.603989,145.768 186.773987,145.670001 186.969988,145.57 C187.165989,145.47 187.373987,145.38 187.593988,145.3 C187.813989,145.22 188.047987,145.154 188.295988,145.102 C188.543989,145.05 188.795987,145.024 189.051988,145.024 C189.851992,145.024 190.445986,145.241998 190.833988,145.678 C191.22199,146.114002 191.415988,146.695996 191.415988,147.424 L191.415988,151 L190.611988,151 L190.527988,150.208 L190.491988,150.208 C190.163987,150.464001 189.80199,150.683999 189.405988,150.868 C189.009986,151.052001 188.60399,151.144 188.187988,151.144 C187.915987,151.144 187.659989,151.106 187.419988,151.03 C187.179987,150.954 186.969989,150.846001 186.789988,150.706 C186.609987,150.565999 186.467989,150.394001 186.363988,150.19 C186.259988,149.985999 186.207988,149.752001 186.207988,149.488 L186.207988,149.488 Z M187.167988,149.416 C187.167988,149.584001 187.203988,149.725999 187.275988,149.842 C187.347989,149.958001 187.441988,150.054 187.557988,150.13 C187.673989,150.206 187.809987,150.262 187.965988,150.298 C188.121989,150.334 188.283987,150.352 188.451988,150.352 C188.78799,150.352 189.117987,150.278001 189.441988,150.13 C189.76599,149.981999 190.095987,149.768001 190.431988,149.488 L190.431988,147.952 C189.807985,148 189.28599,148.068 188.865988,148.156 C188.445986,148.244 188.109989,148.349999 187.857988,148.474 C187.605987,148.598001 187.427989,148.737999 187.323988,148.894 C187.219988,149.050001 187.167988,149.223999 187.167988,149.416 L187.167988,149.416 Z M193.407988,142.456 L196.383988,142.456 L196.383988,149.116 C196.383988,149.548002 196.485987,149.857999 196.689988,150.046 C196.893989,150.234001 197.171986,150.328 197.523988,150.328 C197.84399,150.328 198.211986,150.236001 198.627988,150.052 L198.879988,150.796 C198.615987,150.892 198.367989,150.974 198.135988,151.042 C197.903987,151.11 197.62799,151.144 197.307988,151.144 C196.683985,151.144 196.20999,150.968002 195.885988,150.616 C195.561987,150.263998 195.399988,149.740003 195.399988,149.044 L195.399988,143.26 L193.407988,143.26 L193.407988,142.456 Z M200.355988,145.168 L201.123988,145.168 L201.207988,145.936 L201.243988,145.936 C201.387989,145.663999 201.557987,145.444001 201.753988,145.276 C201.949989,145.107999 202.215987,145.024 202.551988,145.024 C203.143991,145.024 203.511987,145.359997 203.655988,146.032 C203.831989,145.727998 204.023987,145.484001 204.231988,145.3 C204.439989,145.115999 204.707987,145.024 205.035988,145.024 C205.44399,145.024 205.757987,145.177998 205.977988,145.486 C206.197989,145.794002 206.307988,146.239997 206.307988,146.824 L206.307988,151 L205.359988,151 L205.359988,146.908 C205.359988,146.219997 205.14799,145.876 204.723988,145.876 C204.515987,145.876 204.335989,145.949999 204.183988,146.098 C204.031987,146.246001 203.879989,146.471998 203.727988,146.776 L203.727988,151 L202.935988,151 L202.935988,146.908 C202.935988,146.219997 202.71599,145.876 202.275988,145.876 C202.067987,145.876 201.891989,145.949999 201.747988,146.098 C201.603987,146.246001 201.455989,146.471998 201.303988,146.776 L201.303988,151 L200.355988,151 L200.355988,145.168 Z M207.555988,148.096 C207.555988,147.607998 207.633987,147.174002 207.789988,146.794 C207.945989,146.413998 208.155987,146.092001 208.419988,145.828 C208.68399,145.563999 208.989986,145.364001 209.337988,145.228 C209.68599,145.091999 210.051986,145.024 210.435988,145.024 C210.81999,145.024 211.185986,145.091999 211.533988,145.228 C211.88199,145.364001 212.187987,145.563999 212.451988,145.828 C212.71599,146.092001 212.925987,146.413998 213.081988,146.794 C213.237989,147.174002 213.315988,147.607998 213.315988,148.096 C213.315988,148.576002 213.237989,149.005998 213.081988,149.386 C212.925987,149.766002 212.71599,150.085999 212.451988,150.346 C212.187987,150.606001 211.88199,150.803999 211.533988,150.94 C211.185986,151.076001 210.81999,151.144 210.435988,151.144 C210.051986,151.144 209.68599,151.076001 209.337988,150.94 C208.989986,150.803999 208.68399,150.606001 208.419988,150.346 C208.155987,150.085999 207.945989,149.766002 207.789988,149.386 C207.633987,149.005998 207.555988,148.576002 207.555988,148.096 L207.555988,148.096 Z M208.575988,148.096 C208.575988,148.432002 208.619988,148.735999 208.707988,149.008 C208.795989,149.280001 208.921987,149.513999 209.085988,149.71 C209.249989,149.906001 209.445987,150.057999 209.673988,150.166 C209.901989,150.274001 210.155987,150.328 210.435988,150.328 C210.71599,150.328 210.969987,150.274001 211.197988,150.166 C211.425989,150.057999 211.621987,149.906001 211.785988,149.71 C211.949989,149.513999 212.075988,149.280001 212.163988,149.008 C212.251989,148.735999 212.295988,148.432002 212.295988,148.096 C212.295988,147.759998 212.251989,147.454001 212.163988,147.178 C212.075988,146.901999 211.949989,146.664001 211.785988,146.464 C211.621987,146.263999 211.425989,146.110001 211.197988,146.002 C210.969987,145.893999 210.71599,145.84 210.435988,145.84 C210.155987,145.84 209.901989,145.893999 209.673988,146.002 C209.445987,146.110001 209.249989,146.263999 209.085988,146.464 C208.921987,146.664001 208.795989,146.901999 208.707988,147.178 C208.619988,147.454001 208.575988,147.759998 208.575988,148.096 L208.575988,148.096 Z M215.379988,149.584 C215.70799,149.824001 216.059986,150.015999 216.435988,150.16 C216.81199,150.304001 217.263986,150.376 217.791988,150.376 C218.319991,150.376 218.711987,150.288001 218.967988,150.112 C219.223989,149.935999 219.351988,149.720001 219.351988,149.464 C219.351988,149.239999 219.21399,149.040001 218.937988,148.864 C218.661987,148.687999 218.167992,148.512001 217.455988,148.336 C217.151987,148.264 216.86599,148.176001 216.597988,148.072 C216.329987,147.967999 216.095989,147.846001 215.895988,147.706 C215.695987,147.565999 215.535989,147.412001 215.415988,147.244 C215.295988,147.075999 215.235988,146.888001 215.235988,146.68 C215.235988,146.447999 215.287988,146.230001 215.391988,146.026 C215.495989,145.821999 215.649987,145.646001 215.853988,145.498 C216.057989,145.349999 216.313987,145.234 216.621988,145.15 C216.92999,145.066 217.283986,145.024 217.683988,145.024 C218.12399,145.024 218.551986,145.097999 218.967988,145.246 C219.38399,145.394001 219.735987,145.567999 220.023988,145.768 L219.543988,146.404 C219.287987,146.219999 219.00399,146.072001 218.691988,145.96 C218.379987,145.847999 218.04399,145.792 217.683988,145.792 C217.411987,145.792 217.183989,145.814 216.999988,145.858 C216.815987,145.902 216.667989,145.962 216.555988,146.038 C216.443988,146.114 216.363988,146.203999 216.315988,146.308 C216.267988,146.412001 216.243988,146.519999 216.243988,146.632 C216.243988,146.872001 216.407987,147.069999 216.735988,147.226 C217.06399,147.382001 217.491986,147.527999 218.019988,147.664 C218.811992,147.864001 219.397986,148.091999 219.777988,148.348 C220.15799,148.604001 220.347988,148.955998 220.347988,149.404 C220.347988,149.644001 220.291989,149.867999 220.179988,150.076 C220.067988,150.284001 219.901989,150.467999 219.681988,150.628 C219.461987,150.788001 219.18999,150.914 218.865988,151.006 C218.541987,151.098 218.17199,151.144 217.755988,151.144 C217.179985,151.144 216.649991,151.054001 216.165988,150.874 C215.681986,150.693999 215.25999,150.480001 214.899988,150.232 L215.379988,149.584 Z M223.707988,145.972 L222.063988,145.972 L222.063988,145.228 L223.743988,145.168 L223.875988,143.536 L224.691988,143.536 L224.691988,145.168 L227.559988,145.168 L227.559988,145.972 L224.691988,145.972 L224.691988,148.744 C224.691988,149.008001 224.715988,149.237999 224.763988,149.434 C224.811988,149.630001 224.891988,149.795999 225.003988,149.932 C225.115989,150.068001 225.267987,150.17 225.459988,150.238 C225.651989,150.306 225.887987,150.34 226.167988,150.34 C226.44799,150.34 226.699987,150.316 226.923988,150.268 C227.147989,150.22 227.363987,150.156 227.571988,150.076 L227.787988,150.796 C227.523987,150.892 227.23199,150.974 226.911988,151.042 C226.591987,151.11 226.27199,151.144 225.951988,151.144 C225.527986,151.144 225.17199,151.086001 224.883988,150.97 C224.595987,150.853999 224.365989,150.690001 224.193988,150.478 C224.021987,150.265999 223.897989,150.012001 223.821988,149.716 C223.745988,149.419999 223.707988,149.092002 223.707988,148.732 L223.707988,145.972 Z M236.751988,142.456 L237.735988,142.456 L237.735988,144.784 L237.687988,146.164 C237.99999,145.835998 238.331986,145.564001 238.683988,145.348 C239.03599,145.131999 239.439986,145.024 239.895988,145.024 C240.591992,145.024 241.101987,145.221998 241.425988,145.618 C241.74999,146.014002 241.911988,146.599996 241.911988,147.376 L241.911988,151 L240.927988,151 L240.927988,147.508 C240.927988,146.955997 240.823989,146.546001 240.615988,146.278 C240.407987,146.009999 240.063991,145.876 239.583988,145.876 C239.407987,145.876 239.245989,145.898 239.097988,145.942 C238.949987,145.986 238.803989,146.052 238.659988,146.14 C238.515987,146.228 238.367989,146.337999 238.215988,146.47 C238.063987,146.602001 237.903989,146.755999 237.735988,146.932 L237.735988,151 L236.751988,151 L236.751988,142.456 Z M243.663988,148.096 C243.663988,147.615998 243.747987,147.186002 243.915988,146.806 C244.083989,146.425998 244.305987,146.104001 244.581988,145.84 C244.85799,145.575999 245.173986,145.374001 245.529988,145.234 C245.88599,145.093999 246.251986,145.024 246.627988,145.024 C247.04399,145.024 247.415987,145.089999 247.743988,145.222 C248.07199,145.354001 248.349987,145.539999 248.577988,145.78 C248.805989,146.020001 248.979988,146.307998 249.099988,146.644 C249.219989,146.980002 249.279988,147.351998 249.279988,147.76 C249.279988,147.864001 249.277988,147.966 249.273988,148.066 C249.269988,148.166 249.259988,148.252 249.243988,148.324 L244.683988,148.324 C244.691988,148.636002 244.753988,148.915999 244.869988,149.164 C244.985989,149.412001 245.141987,149.623999 245.337988,149.8 C245.533989,149.976001 245.765987,150.112 246.033988,150.208 C246.30199,150.304 246.595987,150.352 246.915988,150.352 C247.25999,150.352 247.573987,150.304 247.857988,150.208 C248.14199,150.112 248.419987,149.980001 248.691988,149.812 L249.039988,150.46 C248.751987,150.644001 248.42399,150.803999 248.055988,150.94 C247.687986,151.076001 247.267991,151.144 246.795988,151.144 C246.363986,151.144 245.95799,151.074001 245.577988,150.934 C245.197986,150.793999 244.86599,150.594001 244.581988,150.334 C244.297987,150.073999 244.073989,149.756002 243.909988,149.38 C243.745987,149.003998 243.663988,148.576002 243.663988,148.096 L243.663988,148.096 Z M248.367988,147.616 C248.367988,147.031997 248.21599,146.584002 247.911988,146.272 C247.607987,145.959998 247.183991,145.804 246.639988,145.804 C246.399987,145.804 246.169989,145.844 245.949988,145.924 C245.729987,146.004 245.531989,146.121999 245.355988,146.278 C245.179987,146.434001 245.031989,146.623999 244.911988,146.848 C244.791988,147.072001 244.711988,147.327999 244.671988,147.616 L248.367988,147.616 Z M251.787988,145.168 L252.603988,145.168 L252.687988,146.548 L252.723988,146.548 C253.02799,146.075998 253.401986,145.704001 253.845988,145.432 C254.28999,145.159999 254.783985,145.024 255.327988,145.024 C255.543989,145.024 255.743987,145.042 255.927988,145.078 C256.111989,145.114 256.295987,145.176 256.479988,145.264 L256.251988,146.116 C256.043987,146.044 255.869989,145.992 255.729988,145.96 C255.589988,145.928 255.403989,145.912 255.171988,145.912 C254.731986,145.912 254.30999,146.037999 253.905988,146.29 C253.501986,146.542001 253.12399,146.971997 252.771988,147.58 L252.771988,151 L251.787988,151 L251.787988,145.168 Z M258.063988,148.096 C258.063988,147.615998 258.147987,147.186002 258.315988,146.806 C258.483989,146.425998 258.705987,146.104001 258.981988,145.84 C259.25799,145.575999 259.573986,145.374001 259.929988,145.234 C260.28599,145.093999 260.651986,145.024 261.027988,145.024 C261.44399,145.024 261.815987,145.089999 262.143988,145.222 C262.47199,145.354001 262.749987,145.539999 262.977988,145.78 C263.205989,146.020001 263.379988,146.307998 263.499988,146.644 C263.619989,146.980002 263.679988,147.351998 263.679988,147.76 C263.679988,147.864001 263.677988,147.966 263.673988,148.066 C263.669988,148.166 263.659988,148.252 263.643988,148.324 L259.083988,148.324 C259.091988,148.636002 259.153988,148.915999 259.269988,149.164 C259.385989,149.412001 259.541987,149.623999 259.737988,149.8 C259.933989,149.976001 260.165987,150.112 260.433988,150.208 C260.70199,150.304 260.995987,150.352 261.315988,150.352 C261.65999,150.352 261.973987,150.304 262.257988,150.208 C262.54199,150.112 262.819987,149.980001 263.091988,149.812 L263.439988,150.46 C263.151987,150.644001 262.82399,150.803999 262.455988,150.94 C262.087986,151.076001 261.667991,151.144 261.195988,151.144 C260.763986,151.144 260.35799,151.074001 259.977988,150.934 C259.597986,150.793999 259.26599,150.594001 258.981988,150.334 C258.697987,150.073999 258.473989,149.756002 258.309988,149.38 C258.145987,149.003998 258.063988,148.576002 258.063988,148.096 L258.063988,148.096 Z M262.767988,147.616 C262.767988,147.031997 262.61599,146.584002 262.311988,146.272 C262.007987,145.959998 261.583991,145.804 261.039988,145.804 C260.799987,145.804 260.569989,145.844 260.349988,145.924 C260.129987,146.004 259.931989,146.121999 259.755988,146.278 C259.579987,146.434001 259.431989,146.623999 259.311988,146.848 C259.191988,147.072001 259.111988,147.327999 259.071988,147.616 L262.767988,147.616 Z M267.579988,144.088 L267.555988,142.96 L268.515988,142.96 L268.491988,144.088 L268.371988,148.216 L267.699988,148.216 L267.579988,144.088 Z M267.159988,150.208 C267.159988,149.927999 267.245987,149.706001 267.417988,149.542 C267.589989,149.377999 267.795987,149.296 268.035988,149.296 C268.275989,149.296 268.481987,149.377999 268.653988,149.542 C268.825989,149.706001 268.911988,149.927999 268.911988,150.208 C268.911988,150.496001 268.825989,150.723999 268.653988,150.892 C268.481987,151.060001 268.275989,151.144 268.035988,151.144 C267.795987,151.144 267.589989,151.060001 267.417988,150.892 C267.245987,150.723999 267.159988,150.496001 267.159988,150.208 L267.159988,150.208 Z M285.315988,151.828 L285.315988,152.68 L279.555988,152.68 L279.555988,151.828 L285.315988,151.828 Z" id="the-future-is-almost" fill="#FFFFFF" opacity="0.65"></path>
                        <g id="controls" transform="translate(14.188791, 22.933054)">
                            <g id="Oval">
                                <use fill="#C7C7C7" fill-rule="evenodd" xlink:href="#path-3"></use>
                                <use stroke="#C7C7C7" mask="url(#mask-4)" stroke-width="3.2" xlink:href="#path-3"></use>
                            </g>
                            <g id="Oval">
                                <use fill="#C7C7C7" fill-rule="evenodd" xlink:href="#path-5"></use>
                                <use stroke="#C7C7C7" mask="url(#mask-6)" stroke-width="3.2" xlink:href="#path-5"></use>
                            </g>
                            <g id="Oval">
                                <use fill="#C7C7C7" fill-rule="evenodd" xlink:href="#path-7"></use>
                                <use stroke="#C7C7C7" mask="url(#mask-8)" stroke-width="3.2" xlink:href="#path-7"></use>
                            </g>
                        </g>
                    </g>
                </g>
            </g>
        </g>
    </g>
</svg>