<?xml version="1.0" encoding="UTF-8"?>
<svg width="356px" height="118px" viewBox="0 0 356 118" version="1.1" xmlns="http://www.w3.org/2000/svg" xmlns:xlink="http://www.w3.org/1999/xlink">
    <!-- Generator: Sketch 47.1 (45422) - http://www.bohemiancoding.com/sketch -->
    <title>text-editor-identity</title>
    <desc>Created with Sketch.</desc>
    <defs>
        <rect id="path-1" x="0" y="0" width="344" height="105.347656" rx="6"></rect>
        <filter x="-2.9%" y="-7.6%" width="105.8%" height="119.0%" filterUnits="objectBoundingBox" id="filter-3">
            <feOffset dx="0" dy="2" in="SourceAlpha" result="shadowOffsetOuter1"></feOffset>
            <feGaussianBlur stdDeviation="3" in="shadowOffsetOuter1" result="shadowBlurOuter1"></feGaussianBlur>
            <feColorMatrix values="0 0 0 0 0   0 0 0 0 0   0 0 0 0 0  0 0 0 0.35 0" type="matrix" in="shadowBlurOuter1"></feColorMatrix>
        </filter>
    </defs>
    <g id="Page-1" stroke="none" stroke-width="1" fill="none" fill-rule="evenodd">
        <g id="Sections/Tutorials" transform="translate(-185.000000, -350.000000)">
            <g id="text-editor-identity" transform="translate(191.000000, 354.000000)">
                <mask id="mask-2" fill="white">
                    <use xlink:href="#path-1"></use>
                </mask>
                <g id="Rectangle">
                    <use fill="black" fill-opacity="1" filter="url(#filter-3)" xlink:href="#path-1"></use>
                    <use fill="#222528" fill-rule="evenodd" xlink:href="#path-1"></use>
                </g>
                <rect id="Rectangle-Copy" fill="#32363A" mask="url(#mask-2)" x="0" y="0" width="39" height="105.347656"></rect>
                <path d="M25.244,27.572 L25.244,29 L19.784,29 L19.784,27.572 L21.752,27.572 L21.752,23.168 L20.18,23.168 L20.18,22.076 C20.6280022,21.9959996 21.0099984,21.9000006 21.326,21.788 C21.6420016,21.6759994 21.9399986,21.5400008 22.22,21.38 L23.516,21.38 L23.516,27.572 L25.244,27.572 Z M19.496,46.992 C20.0400027,46.5359977 20.5359978,46.110002 20.984,45.714 C21.4320022,45.317998 21.8159984,44.9480017 22.136,44.604 C22.4560016,44.2599983 22.7039991,43.9360015 22.88,43.632 C23.0560009,43.3279985 23.144,43.0400014 23.144,42.768 C23.144,42.3919981 23.0360011,42.106001 22.82,41.91 C22.6039989,41.713999 22.296002,41.616 21.896,41.616 C21.5919985,41.616 21.3140013,41.6939992 21.062,41.85 C20.8099987,42.0060008 20.5760011,42.187999 20.36,42.396 L19.412,41.448 C19.612001,41.247999 19.809999,41.0720008 20.006,40.92 C20.202001,40.7679992 20.4099989,40.6420005 20.63,40.542 C20.8500011,40.4419995 21.0819988,40.3660003 21.326,40.314 C21.5700012,40.2619997 21.8399985,40.236 22.136,40.236 C22.536002,40.236 22.8999984,40.2939994 23.228,40.41 C23.5560016,40.5260006 23.8379988,40.6899989 24.074,40.902 C24.3100012,41.1140011 24.4939993,41.3679985 24.626,41.664 C24.7580007,41.9600015 24.824,42.2919982 24.824,42.66 C24.824,42.9800016 24.7480008,43.3059983 24.596,43.638 C24.4439992,43.9700017 24.2380013,44.3019983 23.978,44.634 C23.7179987,44.9660017 23.4200017,45.2979983 23.084,45.63 C22.7479983,45.9620017 22.3960018,46.2879984 22.028,46.608 C22.2440011,46.5839999 22.4779987,46.5620001 22.73,46.542 C22.9820013,46.5219999 23.207999,46.512 23.408,46.512 L25.22,46.512 L25.22,48 L19.496,48 L19.496,46.992 Z" id="1-2" fill="#7B7B7B" mask="url(#mask-2)"></path>
                <path d="M61,20.324 L62.392,20.324 L62.392,22.508 L62.344,23.54 C62.6000013,23.2999988 62.8879984,23.1100007 63.208,22.97 C63.5280016,22.8299993 63.8479984,22.76 64.168,22.76 C64.5520019,22.76 64.8919985,22.8299993 65.188,22.97 C65.4840015,23.1100007 65.735999,23.3099987 65.944,23.57 C66.152001,23.8300013 66.3099995,24.1439982 66.418,24.512 C66.5260005,24.8800018 66.58,25.2919977 66.58,25.748 C66.58,26.2520025 66.5080007,26.701998 66.364,27.098 C66.2199993,27.494002 66.0260012,27.8279986 65.782,28.1 C65.5379988,28.3720014 65.2580016,28.5799993 64.942,28.724 C64.6259984,28.8680007 64.3000017,28.94 63.964,28.94 C63.6839986,28.94 63.3920015,28.8720007 63.088,28.736 C62.7839985,28.5999993 62.5040013,28.4040013 62.248,28.148 L62.212,28.148 L62.092,28.796 L61,28.796 L61,20.324 Z M62.392,27.26 C62.6080011,27.460001 62.8319988,27.5999996 63.064,27.68 C63.2960012,27.7600004 63.5039991,27.8 63.688,27.8 C64.1040021,27.8 64.4519986,27.6300017 64.732,27.29 C65.0120014,26.9499983 65.152,26.4440034 65.152,25.772 C65.152,25.179997 65.0440011,24.7200016 64.828,24.392 C64.6119989,24.0639984 64.2640024,23.9 63.784,23.9 C63.5599989,23.9 63.3320012,23.9559994 63.1,24.068 C62.8679988,24.1800006 62.6320012,24.3599988 62.392,24.608 L62.392,27.26 Z M68.068,20.324 L71.308,20.324 L71.308,26.72 C71.308,27.120002 71.407999,27.4019992 71.608,27.566 C71.808001,27.7300008 72.0599985,27.812 72.364,27.812 C72.6520014,27.812 72.9879981,27.7360008 73.372,27.584 L73.696,28.604 C73.4159986,28.7000005 73.1540012,28.7799997 72.91,28.844 C72.6659988,28.9080003 72.3720017,28.94 72.028,28.94 C71.3319965,28.94 70.8080018,28.740002 70.456,28.34 C70.1039982,27.939998 69.928,27.3760036 69.928,26.648 L69.928,21.416 L68.068,21.416 L68.068,20.324 Z M75.052,25.856 C75.052,25.3679976 75.1339992,24.9320019 75.298,24.548 C75.4620008,24.1639981 75.6799986,23.8400013 75.952,23.576 C76.2240014,23.3119987 76.5399982,23.1100007 76.9,22.97 C77.2600018,22.8299993 77.6319981,22.76 78.016,22.76 C78.4000019,22.76 78.7719982,22.8299993 79.132,22.97 C79.4920018,23.1100007 79.8079986,23.3119987 80.08,23.576 C80.3520014,23.8400013 80.5699992,24.1639981 80.734,24.548 C80.8980008,24.9320019 80.98,25.3679976 80.98,25.856 C80.98,26.3440024 80.8980008,26.7799981 80.734,27.164 C80.5699992,27.5480019 80.3520014,27.8719987 80.08,28.136 C79.8079986,28.4000013 79.4920018,28.5999993 79.132,28.736 C78.7719982,28.8720007 78.4000019,28.94 78.016,28.94 C77.6319981,28.94 77.2600018,28.8720007 76.9,28.736 C76.5399982,28.5999993 76.2240014,28.4000013 75.952,28.136 C75.6799986,27.8719987 75.4620008,27.5480019 75.298,27.164 C75.1339992,26.7799981 75.052,26.3440024 75.052,25.856 Z M76.48,25.856 C76.48,26.448003 76.6159986,26.9219982 76.888,27.278 C77.1600014,27.6340018 77.5359976,27.812 78.016,27.812 C78.4960024,27.812 78.8719986,27.6340018 79.144,27.278 C79.4160014,26.9219982 79.552,26.448003 79.552,25.856 C79.552,25.255997 79.4160014,24.7780018 79.144,24.422 C78.8719986,24.0659982 78.4960024,23.888 78.016,23.888 C77.5359976,23.888 77.1600014,24.0659982 76.888,24.422 C76.6159986,24.7780018 76.48,25.255997 76.48,25.856 Z M82.492,25.856 C82.492,25.3679976 82.5819991,24.9320019 82.762,24.548 C82.9420009,24.1639981 83.1839985,23.8400013 83.488,23.576 C83.7920015,23.3119987 84.147998,23.1100007 84.556,22.97 C84.964002,22.8299993 85.3919978,22.76 85.84,22.76 C86.3200024,22.76 86.7419982,22.8399992 87.106,23 C87.4700018,23.1600008 87.7759988,23.3559988 88.024,23.588 L87.364,24.452 C87.1319988,24.2679991 86.8980012,24.1280005 86.662,24.032 C86.4259988,23.9359995 86.1760013,23.888 85.912,23.888 C85.319997,23.888 84.8400018,24.0659982 84.472,24.422 C84.1039982,24.7780018 83.92,25.255997 83.92,25.856 C83.92,26.1520015 83.9679995,26.4199988 84.064,26.66 C84.1600005,26.9000012 84.2939991,27.1059991 84.466,27.278 C84.6380009,27.4500009 84.8439988,27.5819995 85.084,27.674 C85.3240012,27.7660005 85.5879986,27.812 85.876,27.812 C86.2120017,27.812 86.5179986,27.7480006 86.794,27.62 C87.0700014,27.4919994 87.3239988,27.3400009 87.556,27.164 L88.132,28.052 C87.7959983,28.3480015 87.4200021,28.5699993 87.004,28.718 C86.5879979,28.8660007 86.1680021,28.94 85.744,28.94 C85.2799977,28.94 84.850002,28.8720007 84.454,28.736 C84.057998,28.5999993 83.7140015,28.4000013 83.422,28.136 C83.1299985,27.8719987 82.9020008,27.5480019 82.738,27.164 C82.5739992,26.7799981 82.492,26.3440024 82.492,25.856 Z M89.896,20.324 L91.288,20.324 L91.288,25.628 L91.336,25.628 L93.988,22.904 L95.524,22.904 L93.244,25.28 L95.776,28.796 L94.264,28.796 L92.416,26.132 L91.288,27.26 L91.288,28.796 L89.896,28.796 L89.896,20.324 Z M97.408,27.152 C97.7440017,27.3840012 98.0939982,27.5659993 98.458,27.698 C98.8220018,27.8300007 99.2319977,27.896 99.688,27.896 C100.152002,27.896 100.491999,27.8300007 100.708,27.698 C100.924001,27.5659993 101.032,27.396001 101.032,27.188 C101.032,26.979999 100.892001,26.8060007 100.612,26.666 C100.331999,26.5259993 99.892003,26.3760008 99.292,26.216 C99.0119986,26.1439996 98.7400013,26.0560005 98.476,25.952 C98.2119987,25.8479995 97.980001,25.7280007 97.78,25.592 C97.579999,25.4559993 97.4200006,25.3000009 97.3,25.124 C97.1799994,24.9479991 97.12,24.7480011 97.12,24.524 C97.12,24.0039974 97.3439978,23.5800016 97.792,23.252 C98.2400022,22.9239984 98.8839958,22.76 99.724,22.76 C100.204002,22.76 100.655998,22.8399992 101.08,23 C101.504002,23.1600008 101.867998,23.339999 102.172,23.54 L101.536,24.392 C101.271999,24.2159991 100.990002,24.0740005 100.69,23.966 C100.389999,23.8579995 100.072002,23.804 99.736,23.804 C99.2799977,23.804 98.9600009,23.8659994 98.776,23.99 C98.5919991,24.1140006 98.5,24.2679991 98.5,24.452 C98.5,24.5560005 98.5419996,24.6499996 98.626,24.734 C98.7100004,24.8180004 98.8259993,24.8939997 98.974,24.962 C99.1220007,25.0300003 99.295999,25.0959997 99.496,25.16 C99.696001,25.2240003 99.9159988,25.2839997 100.156,25.34 C100.500002,25.4280004 100.809999,25.5259995 101.086,25.634 C101.362001,25.7420005 101.597999,25.8639993 101.794,26 C101.990001,26.1360007 102.141999,26.2959991 102.25,26.48 C102.358001,26.6640009 102.412,26.8759988 102.412,27.116 C102.412,27.3720013 102.352001,27.6099989 102.232,27.83 C102.111999,28.0500011 101.936001,28.2419992 101.704,28.406 C101.471999,28.5700008 101.184002,28.6999995 100.84,28.796 C100.495998,28.8920005 100.100002,28.94 99.652,28.94 C99.0999972,28.94 98.5720025,28.8520009 98.068,28.676 C97.5639975,28.4999991 97.1280018,28.2840013 96.76,28.028 L97.408,27.152 Z M105.496,23.996 L103.924,23.996 L103.924,22.964 L105.556,22.904 L105.736,21.296 L106.876,21.296 L106.876,22.904 L109.564,22.904 L109.564,23.996 L106.876,23.996 L106.876,26.42 C106.876,26.9080024 106.975999,27.2659989 107.176,27.494 C107.376001,27.7220011 107.727997,27.836 108.232,27.836 C108.488001,27.836 108.719999,27.8140002 108.928,27.77 C109.136001,27.7259998 109.335999,27.6680004 109.528,27.596 L109.792,28.604 C109.527999,28.6920004 109.236002,28.7699997 108.916,28.838 C108.595998,28.9060003 108.256002,28.94 107.896,28.94 C107.447998,28.94 107.072002,28.8800006 106.768,28.76 C106.463998,28.6399994 106.218001,28.4700011 106.03,28.25 C105.841999,28.0299989 105.706,27.7640016 105.622,27.452 C105.538,27.1399984 105.496,26.7960019 105.496,26.42 L105.496,23.996 Z M111.268,27.212 C111.268,26.8839984 111.343999,26.5940013 111.496,26.342 C111.648001,26.0899987 111.887998,25.8760009 112.216,25.7 C112.544002,25.5239991 112.963997,25.3800006 113.476,25.268 C113.988003,25.1559994 114.607996,25.0760002 115.336,25.028 C115.312,24.6919983 115.192001,24.4160011 114.976,24.2 C114.759999,23.9839989 114.412002,23.876 113.932,23.876 C113.595998,23.876 113.266002,23.9379994 112.942,24.062 C112.617998,24.1860006 112.304002,24.3319992 112,24.5 L111.496,23.576 C111.856002,23.367999 112.267998,23.1800008 112.732,23.012 C113.196002,22.8439992 113.679997,22.76 114.184,22.76 C115.008004,22.76 115.635998,22.9779978 116.068,23.414 C116.500002,23.8500022 116.716,24.4799959 116.716,25.304 L116.716,28.796 L115.588,28.796 L115.48,28.064 L115.444,28.064 C115.131998,28.3040012 114.786002,28.5099991 114.406,28.682 C114.025998,28.8540009 113.636002,28.94 113.236,28.94 C112.947999,28.94 112.684001,28.8980004 112.444,28.814 C112.203999,28.7299996 111.996001,28.6120008 111.82,28.46 C111.643999,28.3079992 111.508,28.1260011 111.412,27.914 C111.316,27.7019989 111.268,27.4680013 111.268,27.212 Z M112.6,27.104 C112.6,27.3680013 112.701999,27.5599994 112.906,27.68 C113.110001,27.8000006 113.359999,27.86 113.656,27.86 C113.952001,27.86 114.237999,27.7940007 114.514,27.662 C114.790001,27.5299993 115.063999,27.3560011 115.336,27.14 L115.336,25.892 C114.807997,25.9320002 114.368002,25.9859997 114.016,26.054 C113.663998,26.1220003 113.384001,26.2079995 113.176,26.312 C112.967999,26.4160005 112.82,26.5339993 112.732,26.666 C112.644,26.7980007 112.6,26.9439992 112.6,27.104 Z M118.492,25.856 C118.492,25.3679976 118.581999,24.9320019 118.762,24.548 C118.942001,24.1639981 119.183998,23.8400013 119.488,23.576 C119.792002,23.3119987 120.147998,23.1100007 120.556,22.97 C120.964002,22.8299993 121.391998,22.76 121.84,22.76 C122.320002,22.76 122.741998,22.8399992 123.106,23 C123.470002,23.1600008 123.775999,23.3559988 124.024,23.588 L123.364,24.452 C123.131999,24.2679991 122.898001,24.1280005 122.662,24.032 C122.425999,23.9359995 122.176001,23.888 121.912,23.888 C121.319997,23.888 120.840002,24.0659982 120.472,24.422 C120.103998,24.7780018 119.92,25.255997 119.92,25.856 C119.92,26.1520015 119.968,26.4199988 120.064,26.66 C120.16,26.9000012 120.293999,27.1059991 120.466,27.278 C120.638001,27.4500009 120.843999,27.5819995 121.084,27.674 C121.324001,27.7660005 121.587999,27.812 121.876,27.812 C122.212002,27.812 122.517999,27.7480006 122.794,27.62 C123.070001,27.4919994 123.323999,27.3400009 123.556,27.164 L124.132,28.052 C123.795998,28.3480015 123.420002,28.5699993 123.004,28.718 C122.587998,28.8660007 122.168002,28.94 121.744,28.94 C121.279998,28.94 120.850002,28.8720007 120.454,28.736 C120.057998,28.5999993 119.714001,28.4000013 119.422,28.136 C119.129999,27.8719987 118.902001,27.5480019 118.738,27.164 C118.573999,26.7799981 118.492,26.3440024 118.492,25.856 Z M125.896,20.324 L127.288,20.324 L127.288,25.628 L127.336,25.628 L129.988,22.904 L131.524,22.904 L129.244,25.28 L131.776,28.796 L130.264,28.796 L128.416,26.132 L127.288,27.26 L127.288,28.796 L125.896,28.796 L125.896,20.324 Z M140.776,22.904 L141.916,22.904 L142.036,24.236 L142.072,24.236 C142.376002,23.7559976 142.741998,23.3900013 143.17,23.138 C143.598002,22.8859987 144.067997,22.76 144.58,22.76 C144.820001,22.76 145.025999,22.7779998 145.198,22.814 C145.370001,22.8500002 145.543999,22.9119996 145.72,23 L145.432,24.164 C145.239999,24.0999997 145.070001,24.0540001 144.922,24.026 C144.773999,23.9979999 144.588001,23.984 144.364,23.984 C143.955998,23.984 143.564002,24.0999988 143.188,24.332 C142.811998,24.5640012 142.472002,24.9679971 142.168,25.544 L142.168,28.796 L140.776,28.796 L140.776,22.904 Z M147.16,25.856 C147.16,25.3759976 147.245999,24.9440019 147.418,24.56 C147.590001,24.1759981 147.815999,23.8500013 148.096,23.582 C148.376001,23.3139987 148.697998,23.1100007 149.062,22.97 C149.426002,22.8299993 149.799998,22.76 150.184,22.76 C150.624002,22.76 151.013998,22.8299993 151.354,22.97 C151.694002,23.1100007 151.979999,23.3019988 152.212,23.546 C152.444001,23.7900012 152.619999,24.0839983 152.74,24.428 C152.860001,24.7720017 152.92,25.147998 152.92,25.556 C152.92,25.6920007 152.914,25.8199994 152.902,25.94 C152.89,26.0600006 152.876,26.1559996 152.86,26.228 L148.576,26.228 C148.624,26.7560026 148.831998,27.1619986 149.2,27.446 C149.568002,27.7300014 150.019997,27.872 150.556,27.872 C150.860002,27.872 151.143999,27.8300004 151.408,27.746 C151.672001,27.6619996 151.939999,27.5440008 152.212,27.392 L152.68,28.256 C152.359998,28.456001 152.004002,28.6199994 151.612,28.748 C151.219998,28.8760006 150.808002,28.94 150.376,28.94 C149.927998,28.94 149.508002,28.8700007 149.116,28.73 C148.723998,28.5899993 148.384001,28.3880013 148.096,28.124 C147.807999,27.8599987 147.580001,27.5380019 147.412,27.158 C147.243999,26.7779981 147.16,26.3440024 147.16,25.856 Z M151.648,25.292 C151.648,24.8359977 151.528001,24.4780013 151.288,24.218 C151.047999,23.9579987 150.692002,23.828 150.22,23.828 C149.819998,23.828 149.464002,23.9519988 149.152,24.2 C148.839998,24.4480012 148.644,24.8119976 148.564,25.292 L151.648,25.292 Z M154.252,25.856 C154.252,25.3759976 154.323999,24.9440019 154.468,24.56 C154.612001,24.1759981 154.805999,23.8520013 155.05,23.588 C155.294001,23.3239987 155.571998,23.1200007 155.884,22.976 C156.196002,22.8319993 156.519998,22.76 156.856,22.76 C157.208002,22.76 157.509999,22.8219994 157.762,22.946 C158.014001,23.0700006 158.259999,23.2399989 158.5,23.456 L158.44,22.46 L158.44,20.324 L159.832,20.324 L159.832,28.796 L158.692,28.796 L158.584,28.112 L158.548,28.112 C158.315999,28.3440012 158.046002,28.5399992 157.738,28.7 C157.429998,28.8600008 157.108002,28.94 156.772,28.94 C156.395998,28.94 156.052002,28.8700007 155.74,28.73 C155.427998,28.5899993 155.162001,28.3880013 154.942,28.124 C154.721999,27.8599987 154.552001,27.5380019 154.432,27.158 C154.311999,26.7779981 154.252,26.3440024 154.252,25.856 Z M155.68,25.844 C155.68,26.4840032 155.803999,26.9699983 156.052,27.302 C156.300001,27.6340017 156.651998,27.8 157.108,27.8 C157.596002,27.8 158.039998,27.5640024 158.44,27.092 L158.44,24.44 C158.231999,24.239999 158.024001,24.1000004 157.816,24.02 C157.607999,23.9399996 157.396001,23.9 157.18,23.9 C156.971999,23.9 156.778001,23.9439996 156.598,24.032 C156.417999,24.1200004 156.260001,24.2459992 156.124,24.41 C155.987999,24.5740008 155.88,24.7759988 155.8,25.016 C155.72,25.2560012 155.68,25.5319984 155.68,25.844 Z M161.824,22.904 L165.76,22.904 L165.76,28.796 L164.38,28.796 L164.38,23.996 L161.824,23.996 L161.824,22.904 Z M164.968,21.872 C164.687999,21.872 164.454001,21.7880008 164.266,21.62 C164.077999,21.4519992 163.984,21.2280014 163.984,20.948 C163.984,20.6679986 164.077999,20.4420009 164.266,20.27 C164.454001,20.0979991 164.687999,20.012 164.968,20.012 C165.256001,20.012 165.491999,20.0979991 165.676,20.27 C165.860001,20.4420009 165.952,20.6679986 165.952,20.948 C165.952,21.2280014 165.860001,21.4519992 165.676,21.62 C165.491999,21.7880008 165.256001,21.872 164.968,21.872 Z M169.576,22.904 L170.716,22.904 L170.836,24.236 L170.872,24.236 C171.176002,23.7559976 171.541998,23.3900013 171.97,23.138 C172.398002,22.8859987 172.867997,22.76 173.38,22.76 C173.620001,22.76 173.825999,22.7779998 173.998,22.814 C174.170001,22.8500002 174.343999,22.9119996 174.52,23 L174.232,24.164 C174.039999,24.0999997 173.870001,24.0540001 173.722,24.026 C173.573999,23.9979999 173.388001,23.984 173.164,23.984 C172.755998,23.984 172.364002,24.0999988 171.988,24.332 C171.611998,24.5640012 171.272002,24.9679971 170.968,25.544 L170.968,28.796 L169.576,28.796 L169.576,22.904 Z M175.96,25.856 C175.96,25.3759976 176.045999,24.9440019 176.218,24.56 C176.390001,24.1759981 176.615999,23.8500013 176.896,23.582 C177.176001,23.3139987 177.497998,23.1100007 177.862,22.97 C178.226002,22.8299993 178.599998,22.76 178.984,22.76 C179.424002,22.76 179.813998,22.8299993 180.154,22.97 C180.494002,23.1100007 180.779999,23.3019988 181.012,23.546 C181.244001,23.7900012 181.419999,24.0839983 181.54,24.428 C181.660001,24.7720017 181.72,25.147998 181.72,25.556 C181.72,25.6920007 181.714,25.8199994 181.702,25.94 C181.69,26.0600006 181.676,26.1559996 181.66,26.228 L177.376,26.228 C177.424,26.7560026 177.631998,27.1619986 178,27.446 C178.368002,27.7300014 178.819997,27.872 179.356,27.872 C179.660002,27.872 179.943999,27.8300004 180.208,27.746 C180.472001,27.6619996 180.739999,27.5440008 181.012,27.392 L181.48,28.256 C181.159998,28.456001 180.804002,28.6199994 180.412,28.748 C180.019998,28.8760006 179.608002,28.94 179.176,28.94 C178.727998,28.94 178.308002,28.8700007 177.916,28.73 C177.523998,28.5899993 177.184001,28.3880013 176.896,28.124 C176.607999,27.8599987 176.380001,27.5380019 176.212,27.158 C176.043999,26.7779981 175.96,26.3440024 175.96,25.856 Z M180.448,25.292 C180.448,24.8359977 180.328001,24.4780013 180.088,24.218 C179.847999,23.9579987 179.492002,23.828 179.02,23.828 C178.619998,23.828 178.264002,23.9519988 177.952,24.2 C177.639998,24.4480012 177.444,24.8119976 177.364,25.292 L180.448,25.292 Z M183.292,25.856 C183.292,25.3679976 183.381999,24.9320019 183.562,24.548 C183.742001,24.1639981 183.983998,23.8400013 184.288,23.576 C184.592002,23.3119987 184.947998,23.1100007 185.356,22.97 C185.764002,22.8299993 186.191998,22.76 186.64,22.76 C187.120002,22.76 187.541998,22.8399992 187.906,23 C188.270002,23.1600008 188.575999,23.3559988 188.824,23.588 L188.164,24.452 C187.931999,24.2679991 187.698001,24.1280005 187.462,24.032 C187.225999,23.9359995 186.976001,23.888 186.712,23.888 C186.119997,23.888 185.640002,24.0659982 185.272,24.422 C184.903998,24.7780018 184.72,25.255997 184.72,25.856 C184.72,26.1520015 184.768,26.4199988 184.864,26.66 C184.96,26.9000012 185.093999,27.1059991 185.266,27.278 C185.438001,27.4500009 185.643999,27.5819995 185.884,27.674 C186.124001,27.7660005 186.387999,27.812 186.676,27.812 C187.012002,27.812 187.317999,27.7480006 187.594,27.62 C187.870001,27.4919994 188.123999,27.3400009 188.356,27.164 L188.932,28.052 C188.595998,28.3480015 188.220002,28.5699993 187.804,28.718 C187.387998,28.8660007 186.968002,28.94 186.544,28.94 C186.079998,28.94 185.650002,28.8720007 185.254,28.736 C184.857998,28.5999993 184.514001,28.4000013 184.222,28.136 C183.929999,27.8719987 183.702001,27.5480019 183.538,27.164 C183.373999,26.7799981 183.292,26.3440024 183.292,25.856 Z M191.896,23.996 L190.324,23.996 L190.324,22.964 L191.956,22.904 L192.136,21.296 L193.276,21.296 L193.276,22.904 L195.964,22.904 L195.964,23.996 L193.276,23.996 L193.276,26.42 C193.276,26.9080024 193.375999,27.2659989 193.576,27.494 C193.776001,27.7220011 194.127997,27.836 194.632,27.836 C194.888001,27.836 195.119999,27.8140002 195.328,27.77 C195.536001,27.7259998 195.735999,27.6680004 195.928,27.596 L196.192,28.604 C195.927999,28.6920004 195.636002,28.7699997 195.316,28.838 C194.995998,28.9060003 194.656002,28.94 194.296,28.94 C193.847998,28.94 193.472002,28.8800006 193.168,28.76 C192.863998,28.6399994 192.618001,28.4700011 192.43,28.25 C192.241999,28.0299989 192.106,27.7640016 192.022,27.452 C191.938,27.1399984 191.896,26.7960019 191.896,26.42 L191.896,23.996 Z M197.68,20.948 L199.072,20.948 L199.072,25.904 C199.072,26.5520032 199.191999,27.0179986 199.432,27.302 C199.672001,27.5860014 200.003998,27.728 200.428,27.728 C200.860002,27.728 201.199999,27.5860014 201.448,27.302 C201.696001,27.0179986 201.82,26.5520032 201.82,25.904 L201.82,20.948 L203.152,20.948 L203.152,25.796 C203.152,26.8760054 202.916002,27.6699975 202.444,28.178 C201.971998,28.6860025 201.300004,28.94 200.428,28.94 C199.571996,28.94 198.900002,28.6840026 198.412,28.172 C197.923998,27.6599974 197.68,26.8680054 197.68,25.796 L197.68,20.948 Z M205.408,27.152 C205.744002,27.3840012 206.093998,27.5659993 206.458,27.698 C206.822002,27.8300007 207.231998,27.896 207.688,27.896 C208.152002,27.896 208.491999,27.8300007 208.708,27.698 C208.924001,27.5659993 209.032,27.396001 209.032,27.188 C209.032,26.979999 208.892001,26.8060007 208.612,26.666 C208.331999,26.5259993 207.892003,26.3760008 207.292,26.216 C207.011999,26.1439996 206.740001,26.0560005 206.476,25.952 C206.211999,25.8479995 205.980001,25.7280007 205.78,25.592 C205.579999,25.4559993 205.420001,25.3000009 205.3,25.124 C205.179999,24.9479991 205.12,24.7480011 205.12,24.524 C205.12,24.0039974 205.343998,23.5800016 205.792,23.252 C206.240002,22.9239984 206.883996,22.76 207.724,22.76 C208.204002,22.76 208.655998,22.8399992 209.08,23 C209.504002,23.1600008 209.867998,23.339999 210.172,23.54 L209.536,24.392 C209.271999,24.2159991 208.990002,24.0740005 208.69,23.966 C208.389998,23.8579995 208.072002,23.804 207.736,23.804 C207.279998,23.804 206.960001,23.8659994 206.776,23.99 C206.591999,24.1140006 206.5,24.2679991 206.5,24.452 C206.5,24.5560005 206.542,24.6499996 206.626,24.734 C206.71,24.8180004 206.825999,24.8939997 206.974,24.962 C207.122001,25.0300003 207.295999,25.0959997 207.496,25.16 C207.696001,25.2240003 207.915999,25.2839997 208.156,25.34 C208.500002,25.4280004 208.809999,25.5259995 209.086,25.634 C209.362001,25.7420005 209.597999,25.8639993 209.794,26 C209.990001,26.1360007 210.141999,26.2959991 210.25,26.48 C210.358001,26.6640009 210.412,26.8759988 210.412,27.116 C210.412,27.3720013 210.352001,27.6099989 210.232,27.83 C210.111999,28.0500011 209.936001,28.2419992 209.704,28.406 C209.471999,28.5700008 209.184002,28.6999995 208.84,28.796 C208.495998,28.8920005 208.100002,28.94 207.652,28.94 C207.099997,28.94 206.572003,28.8520009 206.068,28.676 C205.563997,28.4999991 205.128002,28.2840013 204.76,28.028 L205.408,27.152 Z M211.96,25.856 C211.96,25.3759976 212.045999,24.9440019 212.218,24.56 C212.390001,24.1759981 212.615999,23.8500013 212.896,23.582 C213.176001,23.3139987 213.497998,23.1100007 213.862,22.97 C214.226002,22.8299993 214.599998,22.76 214.984,22.76 C215.424002,22.76 215.813998,22.8299993 216.154,22.97 C216.494002,23.1100007 216.779999,23.3019988 217.012,23.546 C217.244001,23.7900012 217.419999,24.0839983 217.54,24.428 C217.660001,24.7720017 217.72,25.147998 217.72,25.556 C217.72,25.6920007 217.714,25.8199994 217.702,25.94 C217.69,26.0600006 217.676,26.1559996 217.66,26.228 L213.376,26.228 C213.424,26.7560026 213.631998,27.1619986 214,27.446 C214.368002,27.7300014 214.819997,27.872 215.356,27.872 C215.660002,27.872 215.943999,27.8300004 216.208,27.746 C216.472001,27.6619996 216.739999,27.5440008 217.012,27.392 L217.48,28.256 C217.159998,28.456001 216.804002,28.6199994 216.412,28.748 C216.019998,28.8760006 215.608002,28.94 215.176,28.94 C214.727998,28.94 214.308002,28.8700007 213.916,28.73 C213.523998,28.5899993 213.184001,28.3880013 212.896,28.124 C212.607999,27.8599987 212.380001,27.5380019 212.212,27.158 C212.043999,26.7779981 211.96,26.3440024 211.96,25.856 Z M216.448,25.292 C216.448,24.8359977 216.328001,24.4780013 216.088,24.218 C215.847999,23.9579987 215.492002,23.828 215.02,23.828 C214.619998,23.828 214.264002,23.9519988 213.952,24.2 C213.639998,24.4480012 213.444,24.8119976 213.364,25.292 L216.448,25.292 Z M219.976,22.904 L221.116,22.904 L221.236,24.236 L221.272,24.236 C221.576002,23.7559976 221.941998,23.3900013 222.37,23.138 C222.798002,22.8859987 223.267997,22.76 223.78,22.76 C224.020001,22.76 224.225999,22.7779998 224.398,22.814 C224.570001,22.8500002 224.743999,22.9119996 224.92,23 L224.632,24.164 C224.439999,24.0999997 224.270001,24.0540001 224.122,24.026 C223.973999,23.9979999 223.788001,23.984 223.564,23.984 C223.155998,23.984 222.764002,24.0999988 222.388,24.332 C222.011998,24.5640012 221.672002,24.9679971 221.368,25.544 L221.368,28.796 L219.976,28.796 L219.976,22.904 Z M228.52,22.124 L226.048,22.124 L226.048,20.948 L232.384,20.948 L232.384,22.124 L229.912,22.124 L229.912,28.796 L228.52,28.796 L228.52,22.124 Z M233.452,25.856 C233.452,25.3679976 233.533999,24.9320019 233.698,24.548 C233.862001,24.1639981 234.079999,23.8400013 234.352,23.576 C234.624001,23.3119987 234.939998,23.1100007 235.3,22.97 C235.660002,22.8299993 236.031998,22.76 236.416,22.76 C236.800002,22.76 237.171998,22.8299993 237.532,22.97 C237.892002,23.1100007 238.207999,23.3119987 238.48,23.576 C238.752001,23.8400013 238.969999,24.1639981 239.134,24.548 C239.298001,24.9320019 239.38,25.3679976 239.38,25.856 C239.38,26.3440024 239.298001,26.7799981 239.134,27.164 C238.969999,27.5480019 238.752001,27.8719987 238.48,28.136 C238.207999,28.4000013 237.892002,28.5999993 237.532,28.736 C237.171998,28.8720007 236.800002,28.94 236.416,28.94 C236.031998,28.94 235.660002,28.8720007 235.3,28.736 C234.939998,28.5999993 234.624001,28.4000013 234.352,28.136 C234.079999,27.8719987 233.862001,27.5480019 233.698,27.164 C233.533999,26.7799981 233.452,26.3440024 233.452,25.856 Z M234.88,25.856 C234.88,26.448003 235.015999,26.9219982 235.288,27.278 C235.560001,27.6340018 235.935998,27.812 236.416,27.812 C236.896002,27.812 237.271999,27.6340018 237.544,27.278 C237.816001,26.9219982 237.952,26.448003 237.952,25.856 C237.952,25.255997 237.816001,24.7780018 237.544,24.422 C237.271999,24.0659982 236.896002,23.888 236.416,23.888 C235.935998,23.888 235.560001,24.0659982 235.288,24.422 C235.015999,24.7780018 234.88,25.255997 234.88,25.856 Z M241.528,26.84 C241.824001,27.1040013 242.157998,27.3179992 242.53,27.482 C242.902002,27.6460008 243.279998,27.728 243.664,27.728 C244.144002,27.728 244.507999,27.6360009 244.756,27.452 C245.004001,27.2679991 245.128,27.0240015 245.128,26.72 C245.128,26.5599992 245.096,26.4240006 245.032,26.312 C244.968,26.1999994 244.878001,26.1020004 244.762,26.018 C244.645999,25.9339996 244.506001,25.8560004 244.342,25.784 C244.177999,25.7119996 244.000001,25.6400004 243.808,25.568 L242.74,25.1 C242.531999,25.0199996 242.328001,24.9200006 242.128,24.8 C241.927999,24.6799994 241.748001,24.5360008 241.588,24.368 C241.427999,24.1999992 241.3,24.0040011 241.204,23.78 C241.108,23.5559989 241.06,23.3000014 241.06,23.012 C241.06,22.6999984 241.127999,22.4100013 241.264,22.142 C241.400001,21.8739987 241.587999,21.640001 241.828,21.44 C242.068001,21.239999 242.353998,21.0840006 242.686,20.972 C243.018002,20.8599994 243.383998,20.804 243.784,20.804 C244.264002,20.804 244.721998,20.8939991 245.158,21.074 C245.594002,21.2540009 245.975998,21.4959985 246.304,21.8 L245.584,22.688 C245.319999,22.479999 245.044001,22.3160006 244.756,22.196 C244.467999,22.0759994 244.144002,22.016 243.784,22.016 C243.375998,22.016 243.054001,22.0979992 242.818,22.262 C242.581999,22.4260008 242.464,22.6519986 242.464,22.94 C242.464,23.0920008 242.5,23.2219995 242.572,23.33 C242.644,23.4380005 242.741999,23.5339996 242.866,23.618 C242.990001,23.7020004 243.133999,23.7759997 243.298,23.84 C243.462001,23.9040003 243.631999,23.9719996 243.808,24.044 L244.84,24.488 C245.088001,24.5840005 245.315999,24.6959994 245.524,24.824 C245.732001,24.9520006 245.911999,25.0999992 246.064,25.268 C246.216001,25.4360008 246.334,25.6299989 246.418,25.85 C246.502,26.0700011 246.544,26.3239986 246.544,26.612 C246.544,26.9320016 246.478001,27.2319986 246.346,27.512 C246.213999,27.7920014 246.024001,28.0379989 245.776,28.25 C245.527999,28.4620011 245.224002,28.6299994 244.864,28.754 C244.503998,28.8780006 244.096002,28.94 243.64,28.94 C243.087997,28.94 242.560003,28.840001 242.056,28.64 C241.551997,28.439999 241.104002,28.1560018 240.712,27.788 L241.528,26.84 Z M248.224,22.904 L252.16,22.904 L252.16,28.796 L250.78,28.796 L250.78,23.996 L248.224,23.996 L248.224,22.904 Z M251.368,21.872 C251.087999,21.872 250.854001,21.7880008 250.666,21.62 C250.477999,21.4519992 250.384,21.2280014 250.384,20.948 C250.384,20.6679986 250.477999,20.4420009 250.666,20.27 C250.854001,20.0979991 251.087999,20.012 251.368,20.012 C251.656001,20.012 251.891999,20.0979991 252.076,20.27 C252.260001,20.4420009 252.352,20.6679986 252.352,20.948 C252.352,21.2280014 252.260001,21.4519992 252.076,21.62 C251.891999,21.7880008 251.656001,21.872 251.368,21.872 Z M256.312,29.648 C256.312,29.9120013 256.457999,30.1199992 256.75,30.272 C257.042001,30.4240008 257.463997,30.5 258.016,30.5 C258.304001,30.5 258.563999,30.4740003 258.796,30.422 C259.028001,30.3699997 259.227999,30.3000004 259.396,30.212 C259.564001,30.1239996 259.692,30.0220006 259.78,29.906 C259.868,29.7899994 259.912,29.6680006 259.912,29.54 C259.912,29.3079988 259.812001,29.1540004 259.612,29.078 C259.411999,29.0019996 259.116002,28.964 258.724,28.964 L257.788,28.964 C257.595999,28.964 257.426001,28.9580001 257.278,28.946 C257.129999,28.9339999 257.000001,28.9080002 256.888,28.868 C256.679999,28.9960006 256.532,29.1239994 256.444,29.252 C256.356,29.3800006 256.312,29.5119993 256.312,29.648 Z M255.16,29.828 C255.16,29.5959988 255.239999,29.3720011 255.4,29.156 C255.560001,28.9399989 255.791998,28.7520008 256.096,28.592 L256.096,28.544 C255.935999,28.4559996 255.796001,28.3320008 255.676,28.172 C255.555999,28.0119992 255.496,27.8080012 255.496,27.56 C255.496,27.359999 255.559999,27.162001 255.688,26.966 C255.816001,26.769999 255.987999,26.5960008 256.204,26.444 L256.204,26.396 C255.995999,26.2519993 255.818001,26.0520013 255.67,25.796 C255.521999,25.5399987 255.448,25.2360018 255.448,24.884 C255.448,24.5479983 255.513999,24.2480013 255.646,23.984 C255.778001,23.7199987 255.953999,23.4980009 256.174,23.318 C256.394001,23.1379991 256.649999,23.0000005 256.942,22.904 C257.234001,22.8079995 257.543998,22.76 257.872,22.76 C258.224002,22.76 258.531999,22.8079995 258.796,22.904 L261.208,22.904 L261.208,23.924 L259.828,23.924 C259.932001,24.0440006 260.024,24.1899991 260.104,24.362 C260.184,24.5340009 260.224,24.723999 260.224,24.932 C260.224,25.2600016 260.164001,25.5479988 260.044,25.796 C259.923999,26.0440012 259.758001,26.2519992 259.546,26.42 C259.333999,26.5880008 259.084001,26.7139996 258.796,26.798 C258.507999,26.8820004 258.200002,26.924 257.872,26.924 C257.575999,26.924 257.276002,26.8720005 256.972,26.768 C256.731999,26.9200008 256.612,27.099999 256.612,27.308 C256.612,27.6840019 256.983996,27.872 257.728,27.872 L258.928,27.872 C259.696004,27.872 260.273998,27.9839989 260.662,28.208 C261.050002,28.4320011 261.244,28.7999974 261.244,29.312 C261.244,29.6000014 261.164001,29.8719987 261.004,30.128 C260.843999,30.3840013 260.618001,30.6059991 260.326,30.794 C260.033999,30.9820009 259.678002,31.1299995 259.258,31.238 C258.837998,31.3460005 258.368003,31.4 257.848,31.4 C257.439998,31.4 257.072002,31.3680003 256.744,31.304 C256.415998,31.2399997 256.134001,31.1420007 255.898,31.01 C255.661999,30.8779993 255.480001,30.714001 255.352,30.518 C255.223999,30.321999 255.16,30.0920013 255.16,29.828 Z M257.872,26.06 C258.176002,26.06 258.439999,25.958001 258.664,25.754 C258.888001,25.549999 259,25.2600019 259,24.884 C259,24.5239982 258.888001,24.2380011 258.664,24.026 C258.439999,23.8139989 258.176002,23.708 257.872,23.708 C257.567998,23.708 257.306001,23.8139989 257.086,24.026 C256.865999,24.2380011 256.756,24.5239982 256.756,24.884 C256.756,25.2600019 256.865999,25.549999 257.086,25.754 C257.306001,25.958001 257.567998,26.06 257.872,26.06 Z M262.6,22.904 L263.74,22.904 L263.848,23.792 L263.896,23.792 C264.176001,23.5119986 264.485998,23.270001 264.826,23.066 C265.166002,22.861999 265.563998,22.76 266.02,22.76 C266.700003,22.76 267.199998,22.9659979 267.52,23.378 C267.840002,23.7900021 268,24.3799962 268,25.148 L268,28.796 L266.608,28.796 L266.608,25.328 C266.608,24.8479976 266.526001,24.4980011 266.362,24.278 C266.197999,24.0579989 265.912002,23.948 265.504,23.948 C265.215999,23.948 264.960001,24.0159993 264.736,24.152 C264.511999,24.2880007 264.264001,24.4959986 263.992,24.776 L263.992,28.796 L262.6,28.796 L262.6,22.904 Z M269.824,27.62 L271.72,27.62 L271.72,22.124 L269.824,22.124 L269.824,20.948 L275.008,20.948 L275.008,22.124 L273.112,22.124 L273.112,27.62 L275.008,27.62 L275.008,28.796 L269.824,28.796 L269.824,27.62 Z M277,22.904 L278.14,22.904 L278.248,23.792 L278.296,23.792 C278.576001,23.5119986 278.885998,23.270001 279.226,23.066 C279.566002,22.861999 279.963998,22.76 280.42,22.76 C281.100003,22.76 281.599998,22.9659979 281.92,23.378 C282.240002,23.7900021 282.4,24.3799962 282.4,25.148 L282.4,28.796 L281.008,28.796 L281.008,25.328 C281.008,24.8479976 280.926001,24.4980011 280.762,24.278 C280.597999,24.0579989 280.312002,23.948 279.904,23.948 C279.615999,23.948 279.360001,24.0159993 279.136,24.152 C278.911999,24.2880007 278.664001,24.4959986 278.392,24.776 L278.392,28.796 L277,28.796 L277,22.904 Z M288.16,30.92 C287.351996,30.2479966 286.714002,29.4560046 286.246,28.544 C285.777998,27.6319954 285.544,26.6040057 285.544,25.46 C285.544,24.3159943 285.777998,23.2880046 286.246,22.376 C286.714002,21.4639954 287.351996,20.6720034 288.16,20 L288.928,20.636 C288.167996,21.3240034 287.612002,22.0559961 287.26,22.832 C286.907998,23.6080039 286.732,24.4839951 286.732,25.46 C286.732,26.4360049 286.907998,27.3119961 287.26,28.088 C287.612002,28.8640039 288.167996,29.5959966 288.928,30.284 L288.16,30.92 Z M291.904,30.284 C292.664004,29.5959966 293.219998,28.8640039 293.572,28.088 C293.924002,27.3119961 294.1,26.4360049 294.1,25.46 C294.1,24.4839951 293.924002,23.6080039 293.572,22.832 C293.219998,22.0559961 292.664004,21.3240034 291.904,20.636 L292.672,20 C293.480004,20.6720034 294.117998,21.4639954 294.586,22.376 C295.054002,23.2880046 295.288,24.3159943 295.288,25.46 C295.288,26.6040057 295.054002,27.6319954 294.586,28.544 C294.117998,29.4560046 293.480004,30.2479966 292.672,30.92 L291.904,30.284 Z M61,39.324 L62.392,39.324 L62.392,41.508 L62.344,42.54 C62.6000013,42.2999988 62.8879984,42.1100007 63.208,41.97 C63.5280016,41.8299993 63.8479984,41.76 64.168,41.76 C64.5520019,41.76 64.8919985,41.8299993 65.188,41.97 C65.4840015,42.1100007 65.735999,42.3099987 65.944,42.57 C66.152001,42.8300013 66.3099995,43.1439982 66.418,43.512 C66.5260005,43.8800018 66.58,44.2919977 66.58,44.748 C66.58,45.2520025 66.5080007,45.701998 66.364,46.098 C66.2199993,46.494002 66.0260012,46.8279986 65.782,47.1 C65.5379988,47.3720014 65.2580016,47.5799993 64.942,47.724 C64.6259984,47.8680007 64.3000017,47.94 63.964,47.94 C63.6839986,47.94 63.3920015,47.8720007 63.088,47.736 C62.7839985,47.5999993 62.5040013,47.4040013 62.248,47.148 L62.212,47.148 L62.092,47.796 L61,47.796 L61,39.324 Z M62.392,46.26 C62.6080011,46.460001 62.8319988,46.5999996 63.064,46.68 C63.2960012,46.7600004 63.5039991,46.8 63.688,46.8 C64.1040021,46.8 64.4519986,46.6300017 64.732,46.29 C65.0120014,45.9499983 65.152,45.4440034 65.152,44.772 C65.152,44.179997 65.0440011,43.7200016 64.828,43.392 C64.6119989,43.0639984 64.2640024,42.9 63.784,42.9 C63.5599989,42.9 63.3320012,42.9559994 63.1,43.068 C62.8679988,43.1800006 62.6320012,43.3599988 62.392,43.608 L62.392,46.26 Z M68.068,39.324 L71.308,39.324 L71.308,45.72 C71.308,46.120002 71.407999,46.4019992 71.608,46.566 C71.808001,46.7300008 72.0599985,46.812 72.364,46.812 C72.6520014,46.812 72.9879981,46.7360008 73.372,46.584 L73.696,47.604 C73.4159986,47.7000005 73.1540012,47.7799997 72.91,47.844 C72.6659988,47.9080003 72.3720017,47.94 72.028,47.94 C71.3319965,47.94 70.8080018,47.740002 70.456,47.34 C70.1039982,46.939998 69.928,46.3760036 69.928,45.648 L69.928,40.416 L68.068,40.416 L68.068,39.324 Z M75.052,44.856 C75.052,44.3679976 75.1339992,43.9320019 75.298,43.548 C75.4620008,43.1639981 75.6799986,42.8400013 75.952,42.576 C76.2240014,42.3119987 76.5399982,42.1100007 76.9,41.97 C77.2600018,41.8299993 77.6319981,41.76 78.016,41.76 C78.4000019,41.76 78.7719982,41.8299993 79.132,41.97 C79.4920018,42.1100007 79.8079986,42.3119987 80.08,42.576 C80.3520014,42.8400013 80.5699992,43.1639981 80.734,43.548 C80.8980008,43.9320019 80.98,44.3679976 80.98,44.856 C80.98,45.3440024 80.8980008,45.7799981 80.734,46.164 C80.5699992,46.5480019 80.3520014,46.8719987 80.08,47.136 C79.8079986,47.4000013 79.4920018,47.5999993 79.132,47.736 C78.7719982,47.8720007 78.4000019,47.94 78.016,47.94 C77.6319981,47.94 77.2600018,47.8720007 76.9,47.736 C76.5399982,47.5999993 76.2240014,47.4000013 75.952,47.136 C75.6799986,46.8719987 75.4620008,46.5480019 75.298,46.164 C75.1339992,45.7799981 75.052,45.3440024 75.052,44.856 Z M76.48,44.856 C76.48,45.448003 76.6159986,45.9219982 76.888,46.278 C77.1600014,46.6340018 77.5359976,46.812 78.016,46.812 C78.4960024,46.812 78.8719986,46.6340018 79.144,46.278 C79.4160014,45.9219982 79.552,45.448003 79.552,44.856 C79.552,44.255997 79.4160014,43.7780018 79.144,43.422 C78.8719986,43.0659982 78.4960024,42.888 78.016,42.888 C77.5359976,42.888 77.1600014,43.0659982 76.888,43.422 C76.6159986,43.7780018 76.48,44.255997 76.48,44.856 Z M82.492,44.856 C82.492,44.3679976 82.5819991,43.9320019 82.762,43.548 C82.9420009,43.1639981 83.1839985,42.8400013 83.488,42.576 C83.7920015,42.3119987 84.147998,42.1100007 84.556,41.97 C84.964002,41.8299993 85.3919978,41.76 85.84,41.76 C86.3200024,41.76 86.7419982,41.8399992 87.106,42 C87.4700018,42.1600008 87.7759988,42.3559988 88.024,42.588 L87.364,43.452 C87.1319988,43.2679991 86.8980012,43.1280005 86.662,43.032 C86.4259988,42.9359995 86.1760013,42.888 85.912,42.888 C85.319997,42.888 84.8400018,43.0659982 84.472,43.422 C84.1039982,43.7780018 83.92,44.255997 83.92,44.856 C83.92,45.1520015 83.9679995,45.4199988 84.064,45.66 C84.1600005,45.9000012 84.2939991,46.1059991 84.466,46.278 C84.6380009,46.4500009 84.8439988,46.5819995 85.084,46.674 C85.3240012,46.7660005 85.5879986,46.812 85.876,46.812 C86.2120017,46.812 86.5179986,46.7480006 86.794,46.62 C87.0700014,46.4919994 87.3239988,46.3400009 87.556,46.164 L88.132,47.052 C87.7959983,47.3480015 87.4200021,47.5699993 87.004,47.718 C86.5879979,47.8660007 86.1680021,47.94 85.744,47.94 C85.2799977,47.94 84.850002,47.8720007 84.454,47.736 C84.057998,47.5999993 83.7140015,47.4000013 83.422,47.136 C83.1299985,46.8719987 82.9020008,46.5480019 82.738,46.164 C82.5739992,45.7799981 82.492,45.3440024 82.492,44.856 Z M89.896,39.324 L91.288,39.324 L91.288,44.628 L91.336,44.628 L93.988,41.904 L95.524,41.904 L93.244,44.28 L95.776,47.796 L94.264,47.796 L92.416,45.132 L91.288,46.26 L91.288,47.796 L89.896,47.796 L89.896,39.324 Z M97.408,46.152 C97.7440017,46.3840012 98.0939982,46.5659993 98.458,46.698 C98.8220018,46.8300007 99.2319977,46.896 99.688,46.896 C100.152002,46.896 100.491999,46.8300007 100.708,46.698 C100.924001,46.5659993 101.032,46.396001 101.032,46.188 C101.032,45.979999 100.892001,45.8060007 100.612,45.666 C100.331999,45.5259993 99.892003,45.3760008 99.292,45.216 C99.0119986,45.1439996 98.7400013,45.0560005 98.476,44.952 C98.2119987,44.8479995 97.980001,44.7280007 97.78,44.592 C97.579999,44.4559993 97.4200006,44.3000009 97.3,44.124 C97.1799994,43.9479991 97.12,43.7480011 97.12,43.524 C97.12,43.0039974 97.3439978,42.5800016 97.792,42.252 C98.2400022,41.9239984 98.8839958,41.76 99.724,41.76 C100.204002,41.76 100.655998,41.8399992 101.08,42 C101.504002,42.1600008 101.867998,42.339999 102.172,42.54 L101.536,43.392 C101.271999,43.2159991 100.990002,43.0740005 100.69,42.966 C100.389999,42.8579995 100.072002,42.804 99.736,42.804 C99.2799977,42.804 98.9600009,42.8659994 98.776,42.99 C98.5919991,43.1140006 98.5,43.2679991 98.5,43.452 C98.5,43.5560005 98.5419996,43.6499996 98.626,43.734 C98.7100004,43.8180004 98.8259993,43.8939997 98.974,43.962 C99.1220007,44.0300003 99.295999,44.0959997 99.496,44.16 C99.696001,44.2240003 99.9159988,44.2839997 100.156,44.34 C100.500002,44.4280004 100.809999,44.5259995 101.086,44.634 C101.362001,44.7420005 101.597999,44.8639993 101.794,45 C101.990001,45.1360007 102.141999,45.2959991 102.25,45.48 C102.358001,45.6640009 102.412,45.8759988 102.412,46.116 C102.412,46.3720013 102.352001,46.6099989 102.232,46.83 C102.111999,47.0500011 101.936001,47.2419992 101.704,47.406 C101.471999,47.5700008 101.184002,47.6999995 100.84,47.796 C100.495998,47.8920005 100.100002,47.94 99.652,47.94 C99.0999972,47.94 98.5720025,47.8520009 98.068,47.676 C97.5639975,47.4999991 97.1280018,47.2840013 96.76,47.028 L97.408,46.152 Z M105.496,42.996 L103.924,42.996 L103.924,41.964 L105.556,41.904 L105.736,40.296 L106.876,40.296 L106.876,41.904 L109.564,41.904 L109.564,42.996 L106.876,42.996 L106.876,45.42 C106.876,45.9080024 106.975999,46.2659989 107.176,46.494 C107.376001,46.7220011 107.727997,46.836 108.232,46.836 C108.488001,46.836 108.719999,46.8140002 108.928,46.77 C109.136001,46.7259998 109.335999,46.6680004 109.528,46.596 L109.792,47.604 C109.527999,47.6920004 109.236002,47.7699997 108.916,47.838 C108.595998,47.9060003 108.256002,47.94 107.896,47.94 C107.447998,47.94 107.072002,47.8800006 106.768,47.76 C106.463998,47.6399994 106.218001,47.4700011 106.03,47.25 C105.841999,47.0299989 105.706,46.7640016 105.622,46.452 C105.538,46.1399984 105.496,45.7960019 105.496,45.42 L105.496,42.996 Z M111.268,46.212 C111.268,45.8839984 111.343999,45.5940013 111.496,45.342 C111.648001,45.0899987 111.887998,44.8760009 112.216,44.7 C112.544002,44.5239991 112.963997,44.3800006 113.476,44.268 C113.988003,44.1559994 114.607996,44.0760002 115.336,44.028 C115.312,43.6919983 115.192001,43.4160011 114.976,43.2 C114.759999,42.9839989 114.412002,42.876 113.932,42.876 C113.595998,42.876 113.266002,42.9379994 112.942,43.062 C112.617998,43.1860006 112.304002,43.3319992 112,43.5 L111.496,42.576 C111.856002,42.367999 112.267998,42.1800008 112.732,42.012 C113.196002,41.8439992 113.679997,41.76 114.184,41.76 C115.008004,41.76 115.635998,41.9779978 116.068,42.414 C116.500002,42.8500022 116.716,43.4799959 116.716,44.304 L116.716,47.796 L115.588,47.796 L115.48,47.064 L115.444,47.064 C115.131998,47.3040012 114.786002,47.5099991 114.406,47.682 C114.025998,47.8540009 113.636002,47.94 113.236,47.94 C112.947999,47.94 112.684001,47.8980004 112.444,47.814 C112.203999,47.7299996 111.996001,47.6120008 111.82,47.46 C111.643999,47.3079992 111.508,47.1260011 111.412,46.914 C111.316,46.7019989 111.268,46.4680013 111.268,46.212 Z M112.6,46.104 C112.6,46.3680013 112.701999,46.5599994 112.906,46.68 C113.110001,46.8000006 113.359999,46.86 113.656,46.86 C113.952001,46.86 114.237999,46.7940007 114.514,46.662 C114.790001,46.5299993 115.063999,46.3560011 115.336,46.14 L115.336,44.892 C114.807997,44.9320002 114.368002,44.9859997 114.016,45.054 C113.663998,45.1220003 113.384001,45.2079995 113.176,45.312 C112.967999,45.4160005 112.82,45.5339993 112.732,45.666 C112.644,45.7980007 112.6,45.9439992 112.6,46.104 Z M118.492,44.856 C118.492,44.3679976 118.581999,43.9320019 118.762,43.548 C118.942001,43.1639981 119.183998,42.8400013 119.488,42.576 C119.792002,42.3119987 120.147998,42.1100007 120.556,41.97 C120.964002,41.8299993 121.391998,41.76 121.84,41.76 C122.320002,41.76 122.741998,41.8399992 123.106,42 C123.470002,42.1600008 123.775999,42.3559988 124.024,42.588 L123.364,43.452 C123.131999,43.2679991 122.898001,43.1280005 122.662,43.032 C122.425999,42.9359995 122.176001,42.888 121.912,42.888 C121.319997,42.888 120.840002,43.0659982 120.472,43.422 C120.103998,43.7780018 119.92,44.255997 119.92,44.856 C119.92,45.1520015 119.968,45.4199988 120.064,45.66 C120.16,45.9000012 120.293999,46.1059991 120.466,46.278 C120.638001,46.4500009 120.843999,46.5819995 121.084,46.674 C121.324001,46.7660005 121.587999,46.812 121.876,46.812 C122.212002,46.812 122.517999,46.7480006 122.794,46.62 C123.070001,46.4919994 123.323999,46.3400009 123.556,46.164 L124.132,47.052 C123.795998,47.3480015 123.420002,47.5699993 123.004,47.718 C122.587998,47.8660007 122.168002,47.94 121.744,47.94 C121.279998,47.94 120.850002,47.8720007 120.454,47.736 C120.057998,47.5999993 119.714001,47.4000013 119.422,47.136 C119.129999,46.8719987 118.902001,46.5480019 118.738,46.164 C118.573999,45.7799981 118.492,45.3440024 118.492,44.856 Z M125.896,39.324 L127.288,39.324 L127.288,44.628 L127.336,44.628 L129.988,41.904 L131.524,41.904 L129.244,44.28 L131.776,47.796 L130.264,47.796 L128.416,45.132 L127.288,46.26 L127.288,47.796 L125.896,47.796 L125.896,39.324 Z M140.608,46.152 C140.944002,46.3840012 141.293998,46.5659993 141.658,46.698 C142.022002,46.8300007 142.431998,46.896 142.888,46.896 C143.352002,46.896 143.691999,46.8300007 143.908,46.698 C144.124001,46.5659993 144.232,46.396001 144.232,46.188 C144.232,45.979999 144.092001,45.8060007 143.812,45.666 C143.531999,45.5259993 143.092003,45.3760008 142.492,45.216 C142.211999,45.1439996 141.940001,45.0560005 141.676,44.952 C141.411999,44.8479995 141.180001,44.7280007 140.98,44.592 C140.779999,44.4559993 140.620001,44.3000009 140.5,44.124 C140.379999,43.9479991 140.32,43.7480011 140.32,43.524 C140.32,43.0039974 140.543998,42.5800016 140.992,42.252 C141.440002,41.9239984 142.083996,41.76 142.924,41.76 C143.404002,41.76 143.855998,41.8399992 144.28,42 C144.704002,42.1600008 145.067998,42.339999 145.372,42.54 L144.736,43.392 C144.471999,43.2159991 144.190002,43.0740005 143.89,42.966 C143.589999,42.8579995 143.272002,42.804 142.936,42.804 C142.479998,42.804 142.160001,42.8659994 141.976,42.99 C141.791999,43.1140006 141.7,43.2679991 141.7,43.452 C141.7,43.5560005 141.742,43.6499996 141.826,43.734 C141.91,43.8180004 142.025999,43.8939997 142.174,43.962 C142.322001,44.0300003 142.495999,44.0959997 142.696,44.16 C142.896001,44.2240003 143.115999,44.2839997 143.356,44.34 C143.700002,44.4280004 144.009999,44.5259995 144.286,44.634 C144.562001,44.7420005 144.797999,44.8639993 144.994,45 C145.190001,45.1360007 145.341999,45.2959991 145.45,45.48 C145.558001,45.6640009 145.612,45.8759988 145.612,46.116 C145.612,46.3720013 145.552001,46.6099989 145.432,46.83 C145.311999,47.0500011 145.136001,47.2419992 144.904,47.406 C144.671999,47.5700008 144.384002,47.6999995 144.04,47.796 C143.695998,47.8920005 143.300002,47.94 142.852,47.94 C142.299997,47.94 141.772003,47.8520009 141.268,47.676 C140.763997,47.4999991 140.328002,47.2840013 139.96,47.028 L140.608,46.152 Z M147.424,41.904 L151.36,41.904 L151.36,47.796 L149.98,47.796 L149.98,42.996 L147.424,42.996 L147.424,41.904 Z M150.568,40.872 C150.287999,40.872 150.054001,40.7880008 149.866,40.62 C149.677999,40.4519992 149.584,40.2280014 149.584,39.948 C149.584,39.6679986 149.677999,39.4420009 149.866,39.27 C150.054001,39.0979991 150.287999,39.012 150.568,39.012 C150.856001,39.012 151.091999,39.0979991 151.276,39.27 C151.460001,39.4420009 151.552,39.6679986 151.552,39.948 C151.552,40.2280014 151.460001,40.4519992 151.276,40.62 C151.091999,40.7880008 150.856001,40.872 150.568,40.872 Z M155.512,48.648 C155.512,48.9120013 155.657999,49.1199992 155.95,49.272 C156.242001,49.4240008 156.663997,49.5 157.216,49.5 C157.504001,49.5 157.763999,49.4740003 157.996,49.422 C158.228001,49.3699997 158.427999,49.3000004 158.596,49.212 C158.764001,49.1239996 158.892,49.0220006 158.98,48.906 C159.068,48.7899994 159.112,48.6680006 159.112,48.54 C159.112,48.3079988 159.012001,48.1540004 158.812,48.078 C158.611999,48.0019996 158.316002,47.964 157.924,47.964 L156.988,47.964 C156.795999,47.964 156.626001,47.9580001 156.478,47.946 C156.329999,47.9339999 156.200001,47.9080002 156.088,47.868 C155.879999,47.9960006 155.732,48.1239994 155.644,48.252 C155.556,48.3800006 155.512,48.5119993 155.512,48.648 Z M154.36,48.828 C154.36,48.5959988 154.439999,48.3720011 154.6,48.156 C154.760001,47.9399989 154.991998,47.7520008 155.296,47.592 L155.296,47.544 C155.135999,47.4559996 154.996001,47.3320008 154.876,47.172 C154.755999,47.0119992 154.696,46.8080012 154.696,46.56 C154.696,46.359999 154.759999,46.162001 154.888,45.966 C155.016001,45.769999 155.187999,45.5960008 155.404,45.444 L155.404,45.396 C155.195999,45.2519993 155.018001,45.0520013 154.87,44.796 C154.721999,44.5399987 154.648,44.2360018 154.648,43.884 C154.648,43.5479983 154.713999,43.2480013 154.846,42.984 C154.978001,42.7199987 155.153999,42.4980009 155.374,42.318 C155.594001,42.1379991 155.849999,42.0000005 156.142,41.904 C156.434001,41.8079995 156.743998,41.76 157.072,41.76 C157.424002,41.76 157.731999,41.8079995 157.996,41.904 L160.408,41.904 L160.408,42.924 L159.028,42.924 C159.132001,43.0440006 159.224,43.1899991 159.304,43.362 C159.384,43.5340009 159.424,43.723999 159.424,43.932 C159.424,44.2600016 159.364001,44.5479988 159.244,44.796 C159.123999,45.0440012 158.958001,45.2519992 158.746,45.42 C158.533999,45.5880008 158.284001,45.7139996 157.996,45.798 C157.707999,45.8820004 157.400002,45.924 157.072,45.924 C156.775999,45.924 156.476002,45.8720005 156.172,45.768 C155.931999,45.9200008 155.812,46.099999 155.812,46.308 C155.812,46.6840019 156.183996,46.872 156.928,46.872 L158.128,46.872 C158.896004,46.872 159.473998,46.9839989 159.862,47.208 C160.250002,47.4320011 160.444,47.7999974 160.444,48.312 C160.444,48.6000014 160.364001,48.8719987 160.204,49.128 C160.043999,49.3840013 159.818001,49.6059991 159.526,49.794 C159.233999,49.9820009 158.878002,50.1299995 158.458,50.238 C158.037998,50.3460005 157.568003,50.4 157.048,50.4 C156.639998,50.4 156.272002,50.3680003 155.944,50.304 C155.615998,50.2399997 155.334001,50.1420007 155.098,50.01 C154.861999,49.8779993 154.680001,49.714001 154.552,49.518 C154.423999,49.321999 154.36,49.0920013 154.36,48.828 Z M157.072,45.06 C157.376002,45.06 157.639999,44.958001 157.864,44.754 C158.088001,44.549999 158.2,44.2600019 158.2,43.884 C158.2,43.5239982 158.088001,43.2380011 157.864,43.026 C157.639999,42.8139989 157.376002,42.708 157.072,42.708 C156.767998,42.708 156.506001,42.8139989 156.286,43.026 C156.065999,43.2380011 155.956,43.5239982 155.956,43.884 C155.956,44.2600019 156.065999,44.549999 156.286,44.754 C156.506001,44.958001 156.767998,45.06 157.072,45.06 Z M161.8,41.904 L162.94,41.904 L163.048,42.792 L163.096,42.792 C163.376001,42.5119986 163.685998,42.270001 164.026,42.066 C164.366002,41.861999 164.763998,41.76 165.22,41.76 C165.900003,41.76 166.399998,41.9659979 166.72,42.378 C167.040002,42.7900021 167.2,43.3799962 167.2,44.148 L167.2,47.796 L165.808,47.796 L165.808,44.328 C165.808,43.8479976 165.726001,43.4980011 165.562,43.278 C165.397999,43.0579989 165.112002,42.948 164.704,42.948 C164.415999,42.948 164.160001,43.0159993 163.936,43.152 C163.711999,43.2880007 163.464001,43.4959986 163.192,43.776 L163.192,47.796 L161.8,47.796 L161.8,41.904 Z M168.88,39.948 L170.272,39.948 L170.272,44.904 C170.272,45.5520032 170.391999,46.0179986 170.632,46.302 C170.872001,46.5860014 171.203998,46.728 171.628,46.728 C172.060002,46.728 172.399999,46.5860014 172.648,46.302 C172.896001,46.0179986 173.02,45.5520032 173.02,44.904 L173.02,39.948 L174.352,39.948 L174.352,44.796 C174.352,45.8760054 174.116002,46.6699975 173.644,47.178 C173.171998,47.6860025 172.500004,47.94 171.628,47.94 C170.771996,47.94 170.100002,47.6840026 169.612,47.172 C169.123998,46.6599974 168.88,45.8680054 168.88,44.796 L168.88,39.948 Z M176.608,46.152 C176.944002,46.3840012 177.293998,46.5659993 177.658,46.698 C178.022002,46.8300007 178.431998,46.896 178.888,46.896 C179.352002,46.896 179.691999,46.8300007 179.908,46.698 C180.124001,46.5659993 180.232,46.396001 180.232,46.188 C180.232,45.979999 180.092001,45.8060007 179.812,45.666 C179.531999,45.5259993 179.092003,45.3760008 178.492,45.216 C178.211999,45.1439996 177.940001,45.0560005 177.676,44.952 C177.411999,44.8479995 177.180001,44.7280007 176.98,44.592 C176.779999,44.4559993 176.620001,44.3000009 176.5,44.124 C176.379999,43.9479991 176.32,43.7480011 176.32,43.524 C176.32,43.0039974 176.543998,42.5800016 176.992,42.252 C177.440002,41.9239984 178.083996,41.76 178.924,41.76 C179.404002,41.76 179.855998,41.8399992 180.28,42 C180.704002,42.1600008 181.067998,42.339999 181.372,42.54 L180.736,43.392 C180.471999,43.2159991 180.190001,43.0740005 179.89,42.966 C179.589999,42.8579995 179.272002,42.804 178.936,42.804 C178.479998,42.804 178.160001,42.8659994 177.976,42.99 C177.791999,43.1140006 177.7,43.2679991 177.7,43.452 C177.7,43.5560005 177.742,43.6499996 177.826,43.734 C177.91,43.8180004 178.025999,43.8939997 178.174,43.962 C178.322001,44.0300003 178.495999,44.0959997 178.696,44.16 C178.896001,44.2240003 179.115999,44.2839997 179.356,44.34 C179.700002,44.4280004 180.009999,44.5259995 180.286,44.634 C180.562001,44.7420005 180.797999,44.8639993 180.994,45 C181.190001,45.1360007 181.341999,45.2959991 181.45,45.48 C181.558001,45.6640009 181.612,45.8759988 181.612,46.116 C181.612,46.3720013 181.552001,46.6099989 181.432,46.83 C181.311999,47.0500011 181.136001,47.2419992 180.904,47.406 C180.671999,47.5700008 180.384002,47.6999995 180.04,47.796 C179.695998,47.8920005 179.300002,47.94 178.852,47.94 C178.299997,47.94 177.772003,47.8520009 177.268,47.676 C176.763997,47.4999991 176.328002,47.2840013 175.96,47.028 L176.608,46.152 Z M183.16,44.856 C183.16,44.3759976 183.245999,43.9440019 183.418,43.56 C183.590001,43.1759981 183.815999,42.8500013 184.096,42.582 C184.376001,42.3139987 184.697998,42.1100007 185.062,41.97 C185.426002,41.8299993 185.799998,41.76 186.184,41.76 C186.624002,41.76 187.013998,41.8299993 187.354,41.97 C187.694002,42.1100007 187.979999,42.3019988 188.212,42.546 C188.444001,42.7900012 188.619999,43.0839983 188.74,43.428 C188.860001,43.7720017 188.92,44.147998 188.92,44.556 C188.92,44.6920007 188.914,44.8199994 188.902,44.94 C188.89,45.0600006 188.876,45.1559996 188.86,45.228 L184.576,45.228 C184.624,45.7560026 184.831998,46.1619986 185.2,46.446 C185.568002,46.7300014 186.019997,46.872 186.556,46.872 C186.860002,46.872 187.143999,46.8300004 187.408,46.746 C187.672001,46.6619996 187.939999,46.5440008 188.212,46.392 L188.68,47.256 C188.359998,47.456001 188.004002,47.6199994 187.612,47.748 C187.219998,47.8760006 186.808002,47.94 186.376,47.94 C185.927998,47.94 185.508002,47.8700007 185.116,47.73 C184.723998,47.5899993 184.384001,47.3880013 184.096,47.124 C183.807999,46.8599987 183.580001,46.5380019 183.412,46.158 C183.243999,45.7779981 183.16,45.3440024 183.16,44.856 Z M187.648,44.292 C187.648,43.8359977 187.528001,43.4780013 187.288,43.218 C187.047999,42.9579987 186.692002,42.828 186.22,42.828 C185.819998,42.828 185.464002,42.9519988 185.152,43.2 C184.839998,43.4480012 184.644,43.8119976 184.564,44.292 L187.648,44.292 Z M191.176,41.904 L192.316,41.904 L192.436,43.236 L192.472,43.236 C192.776002,42.7559976 193.141998,42.3900013 193.57,42.138 C193.998002,41.8859987 194.467997,41.76 194.98,41.76 C195.220001,41.76 195.425999,41.7779998 195.598,41.814 C195.770001,41.8500002 195.943999,41.9119996 196.12,42 L195.832,43.164 C195.639999,43.0999997 195.470001,43.0540001 195.322,43.026 C195.173999,42.9979999 194.988001,42.984 194.764,42.984 C194.355998,42.984 193.964002,43.0999988 193.588,43.332 C193.211998,43.5640012 192.872002,43.9679971 192.568,44.544 L192.568,47.796 L191.176,47.796 L191.176,41.904 Z M197.824,46.62 L199.72,46.62 L199.72,41.124 L197.824,41.124 L197.824,39.948 L203.008,39.948 L203.008,41.124 L201.112,41.124 L201.112,46.62 L203.008,46.62 L203.008,47.796 L197.824,47.796 L197.824,46.62 Z M205,41.904 L206.14,41.904 L206.248,42.792 L206.296,42.792 C206.576001,42.5119986 206.885998,42.270001 207.226,42.066 C207.566002,41.861999 207.963998,41.76 208.42,41.76 C209.100003,41.76 209.599998,41.9659979 209.92,42.378 C210.240002,42.7900021 210.4,43.3799962 210.4,44.148 L210.4,47.796 L209.008,47.796 L209.008,44.328 C209.008,43.8479976 208.926001,43.4980011 208.762,43.278 C208.597999,43.0579989 208.312002,42.948 207.904,42.948 C207.615999,42.948 207.360001,43.0159993 207.136,43.152 C206.911999,43.2880007 206.664001,43.4959986 206.392,43.776 L206.392,47.796 L205,47.796 L205,41.904 Z M216.16,49.92 C215.351996,49.2479966 214.714002,48.4560046 214.246,47.544 C213.777998,46.6319954 213.544,45.6040057 213.544,44.46 C213.544,43.3159943 213.777998,42.2880046 214.246,41.376 C214.714002,40.4639954 215.351996,39.6720034 216.16,39 L216.928,39.636 C216.167996,40.3240034 215.612002,41.0559961 215.26,41.832 C214.907998,42.6080039 214.732,43.4839951 214.732,44.46 C214.732,45.4360049 214.907998,46.3119961 215.26,47.088 C215.612002,47.8640039 216.167996,48.5959966 216.928,49.284 L216.16,49.92 Z M278.944,47.964 C278.944,47.7479989 278.95,47.5500009 278.962,47.37 C278.974,47.1899991 278.988,47.0160008 279.004,46.848 C279.02,46.6799992 279.034,46.5100009 279.046,46.338 C279.058,46.1659991 279.064,45.980001 279.064,45.78 C279.064,45.6759995 279.04,45.5700005 278.992,45.462 C278.944,45.3539995 278.856001,45.2580004 278.728,45.174 C278.599999,45.0899996 278.426001,45.0200003 278.206,44.964 C277.985999,44.9079997 277.708002,44.88 277.372,44.88 L277.372,44.04 C277.708002,44.04 277.985999,44.0120003 278.206,43.956 C278.426001,43.8999997 278.599999,43.8300004 278.728,43.746 C278.856001,43.6619996 278.944,43.5680005 278.992,43.464 C279.04,43.3599995 279.064,43.2520006 279.064,43.14 C279.064,42.7639981 279.044,42.4100017 279.004,42.078 C278.964,41.7459983 278.944,41.3720021 278.944,40.956 C278.944,40.6359984 278.988,40.3700011 279.076,40.158 C279.164,39.9459989 279.299999,39.7760006 279.484,39.648 C279.668001,39.5199994 279.899999,39.4300003 280.18,39.378 C280.460001,39.3259997 280.791998,39.3 281.176,39.3 L282.004,39.3 L282.004,40.056 L281.452,40.056 C281.171999,40.056 280.944001,40.0719998 280.768,40.104 C280.591999,40.1360002 280.454,40.1899996 280.354,40.266 C280.253999,40.3420004 280.186,40.4419994 280.15,40.566 C280.114,40.6900006 280.096,40.8399991 280.096,41.016 C280.096,41.3520017 280.106,41.6879983 280.126,42.024 C280.146,42.3600017 280.156,42.7119982 280.156,43.08 C280.156,43.5040021 280.072001,43.817999 279.904,44.022 C279.735999,44.226001 279.440002,44.3639996 279.016,44.436 L279.016,44.484 C279.440002,44.5560004 279.735999,44.693999 279.904,44.898 C280.072001,45.102001 280.156,45.4159979 280.156,45.84 C280.156,46.2240019 280.146,46.5759984 280.126,46.896 C280.106,47.2160016 280.096,47.5519982 280.096,47.904 C280.096,48.0880009 280.114,48.2399994 280.15,48.36 C280.186,48.4800006 280.253999,48.5779996 280.354,48.654 C280.454,48.7300004 280.591999,48.7839998 280.768,48.816 C280.944001,48.8480002 281.171999,48.864 281.452,48.864 L282.004,48.864 L282.004,49.62 L281.176,49.62 C280.791998,49.62 280.460001,49.5940003 280.18,49.542 C279.899999,49.4899997 279.668001,49.4000006 279.484,49.272 C279.299999,49.1439994 279.164,48.9740011 279.076,48.762 C278.988,48.5499989 278.944,48.2840016 278.944,47.964 Z M284.992,48.864 C285.264001,48.864 285.487999,48.8480002 285.664,48.816 C285.840001,48.7839998 285.979999,48.7300004 286.084,48.654 C286.188001,48.5779996 286.258,48.4800006 286.294,48.36 C286.33,48.2399994 286.348,48.0880009 286.348,47.904 C286.348,47.5519982 286.338,47.2160016 286.318,46.896 C286.298,46.5759984 286.288,46.2240019 286.288,45.84 C286.288,45.4159979 286.369999,45.102001 286.534,44.898 C286.698001,44.693999 286.995998,44.5560004 287.428,44.484 L287.428,44.436 C286.995998,44.3639996 286.698001,44.226001 286.534,44.022 C286.369999,43.817999 286.288,43.5040021 286.288,43.08 C286.288,42.7119982 286.298,42.3600017 286.318,42.024 C286.338,41.6879983 286.348,41.3520017 286.348,41.016 C286.348,40.8399991 286.33,40.6900006 286.294,40.566 C286.258,40.4419994 286.188001,40.3420004 286.084,40.266 C285.979999,40.1899996 285.840001,40.1360002 285.664,40.104 C285.487999,40.0719998 285.264001,40.056 284.992,40.056 L284.44,40.056 L284.44,39.3 L285.268,39.3 C285.652002,39.3 285.981999,39.3259997 286.258,39.378 C286.534001,39.4300003 286.763999,39.5199994 286.948,39.648 C287.132001,39.7760006 287.268,39.9459989 287.356,40.158 C287.444,40.3700011 287.488,40.6359984 287.488,40.956 C287.488,41.3720021 287.468,41.7459983 287.428,42.078 C287.388,42.4100017 287.368,42.7639981 287.368,43.14 C287.368,43.2520006 287.392,43.3599995 287.44,43.464 C287.488,43.5680005 287.575999,43.6619996 287.704,43.746 C287.832001,43.8300004 288.005999,43.8999997 288.226,43.956 C288.446001,44.0120003 288.723998,44.04 289.06,44.04 L289.06,44.88 C288.723998,44.88 288.446001,44.9079997 288.226,44.964 C288.005999,45.0200003 287.832001,45.0899996 287.704,45.174 C287.575999,45.2580004 287.488,45.3539995 287.44,45.462 C287.392,45.5700005 287.368,45.6759995 287.368,45.78 C287.368,45.980001 287.374,46.1659991 287.386,46.338 C287.398,46.5100009 287.412,46.6799992 287.428,46.848 C287.444,47.0160008 287.458,47.1899991 287.47,47.37 C287.482,47.5500009 287.488,47.7479989 287.488,47.964 C287.488,48.2840016 287.444,48.5499989 287.356,48.762 C287.268,48.9740011 287.132001,49.1439994 286.948,49.272 C286.763999,49.4000006 286.534001,49.4899997 286.258,49.542 C285.981999,49.5940003 285.652002,49.62 285.268,49.62 L284.44,49.62 L284.44,48.864 L284.992,48.864 Z M291.904,49.284 C292.664004,48.5959966 293.219998,47.8640039 293.572,47.088 C293.924002,46.3119961 294.1,45.4360049 294.1,44.46 C294.1,43.4839951 293.924002,42.6080039 293.572,41.832 C293.219998,41.0559961 292.664004,40.3240034 291.904,39.636 L292.672,39 C293.480004,39.6720034 294.117998,40.4639954 294.586,41.376 C295.054002,42.2880046 295.288,43.3159943 295.288,44.46 C295.288,45.6040057 295.054002,46.6319954 294.586,47.544 C294.117998,48.4560046 293.480004,49.2479966 292.672,49.92 L291.904,49.284 Z" id="blockstack.redirectU" fill="#2C96FF" mask="url(#mask-2)"></path>
                <path d="M134.428,27.728 C134.428,27.3759982 134.539999,27.0860011 134.764,26.858 C134.988001,26.6299989 135.271998,26.516 135.616,26.516 C135.960002,26.516 136.243999,26.6299989 136.468,26.858 C136.692001,27.0860011 136.804,27.3759982 136.804,27.728 C136.804,28.0800018 136.692001,28.3699989 136.468,28.598 C136.243999,28.8260011 135.960002,28.94 135.616,28.94 C135.271998,28.94 134.988001,28.8260011 134.764,28.598 C134.539999,28.3699989 134.428,28.0800018 134.428,27.728 Z M134.428,46.728 C134.428,46.3759982 134.539999,46.0860011 134.764,45.858 C134.988001,45.6299989 135.271998,45.516 135.616,45.516 C135.960002,45.516 136.243999,45.6299989 136.468,45.858 C136.692001,46.0860011 136.804,46.3759982 136.804,46.728 C136.804,47.0800018 136.692001,47.3699989 136.468,47.598 C136.243999,47.8260011 135.960002,47.94 135.616,47.94 C135.271998,47.94 134.988001,47.8260011 134.764,47.598 C134.539999,47.3699989 134.428,47.0800018 134.428,46.728 Z M224.596,47.796 L223.468,47.796 L223.36,46.86 L223.312,46.86 C223.031999,47.1880016 222.724002,47.449999 222.388,47.646 C222.051998,47.842001 221.664002,47.94 221.224,47.94 C220.535997,47.94 220.036002,47.7340021 219.724,47.322 C219.411998,46.9099979 219.256,46.3200038 219.256,45.552 L219.256,41.904 L220.636,41.904 L220.636,45.372 C220.636,45.8520024 220.717999,46.2019989 220.882,46.422 C221.046001,46.6420011 221.331998,46.752 221.74,46.752 C222.020001,46.752 222.269999,46.6880006 222.49,46.56 C222.710001,46.4319994 222.951999,46.2040016 223.216,45.876 L223.216,41.904 L224.596,41.904 L224.596,47.796 Z M227.008,46.152 C227.344002,46.3840012 227.693998,46.5659993 228.058,46.698 C228.422002,46.8300007 228.831998,46.896 229.288,46.896 C229.752002,46.896 230.091999,46.8300007 230.308,46.698 C230.524001,46.5659993 230.632,46.396001 230.632,46.188 C230.632,45.979999 230.492001,45.8060007 230.212,45.666 C229.931999,45.5259993 229.492003,45.3760008 228.892,45.216 C228.611999,45.1439996 228.340001,45.0560005 228.076,44.952 C227.811999,44.8479995 227.580001,44.7280007 227.38,44.592 C227.179999,44.4559993 227.020001,44.3000009 226.9,44.124 C226.779999,43.9479991 226.72,43.7480011 226.72,43.524 C226.72,43.0039974 226.943998,42.5800016 227.392,42.252 C227.840002,41.9239984 228.483996,41.76 229.324,41.76 C229.804002,41.76 230.255998,41.8399992 230.68,42 C231.104002,42.1600008 231.467998,42.339999 231.772,42.54 L231.136,43.392 C230.871999,43.2159991 230.590002,43.0740005 230.29,42.966 C229.989999,42.8579995 229.672002,42.804 229.336,42.804 C228.879998,42.804 228.560001,42.8659994 228.376,42.99 C228.191999,43.1140006 228.1,43.2679991 228.1,43.452 C228.1,43.5560005 228.142,43.6499996 228.226,43.734 C228.31,43.8180004 228.425999,43.8939997 228.574,43.962 C228.722001,44.0300003 228.895999,44.0959997 229.096,44.16 C229.296001,44.2240003 229.515999,44.2839997 229.756,44.34 C230.100002,44.4280004 230.409999,44.5259995 230.686,44.634 C230.962001,44.7420005 231.197999,44.8639993 231.394,45 C231.590001,45.1360007 231.741999,45.2959991 231.85,45.48 C231.958001,45.6640009 232.012,45.8759988 232.012,46.116 C232.012,46.3720013 231.952001,46.6099989 231.832,46.83 C231.711999,47.0500011 231.536001,47.2419992 231.304,47.406 C231.071999,47.5700008 230.784002,47.6999995 230.44,47.796 C230.095998,47.8920005 229.700002,47.94 229.252,47.94 C228.699997,47.94 228.172003,47.8520009 227.668,47.676 C227.163997,47.4999991 226.728002,47.2840013 226.36,47.028 L227.008,46.152 Z M233.56,44.856 C233.56,44.3759976 233.645999,43.9440019 233.818,43.56 C233.990001,43.1759981 234.215999,42.8500013 234.496,42.582 C234.776001,42.3139987 235.097998,42.1100007 235.462,41.97 C235.826002,41.8299993 236.199998,41.76 236.584,41.76 C237.024002,41.76 237.413998,41.8299993 237.754,41.97 C238.094002,42.1100007 238.379999,42.3019988 238.612,42.546 C238.844001,42.7900012 239.019999,43.0839983 239.14,43.428 C239.260001,43.7720017 239.32,44.147998 239.32,44.556 C239.32,44.6920007 239.314,44.8199994 239.302,44.94 C239.29,45.0600006 239.276,45.1559996 239.26,45.228 L234.976,45.228 C235.024,45.7560026 235.231998,46.1619986 235.6,46.446 C235.968002,46.7300014 236.419997,46.872 236.956,46.872 C237.260002,46.872 237.543999,46.8300004 237.808,46.746 C238.072001,46.6619996 238.339999,46.5440008 238.612,46.392 L239.08,47.256 C238.759998,47.456001 238.404002,47.6199994 238.012,47.748 C237.619998,47.8760006 237.208002,47.94 236.776,47.94 C236.327998,47.94 235.908002,47.8700007 235.516,47.73 C235.123998,47.5899993 234.784001,47.3880013 234.496,47.124 C234.207999,46.8599987 233.980001,46.5380019 233.812,46.158 C233.643999,45.7779981 233.56,45.3440024 233.56,44.856 Z M238.048,44.292 C238.048,43.8359977 237.928001,43.4780013 237.688,43.218 C237.447999,42.9579987 237.092002,42.828 236.62,42.828 C236.219998,42.828 235.864002,42.9519988 235.552,43.2 C235.239998,43.4480012 235.044,43.8119976 234.964,44.292 L238.048,44.292 Z M241.576,41.904 L242.716,41.904 L242.836,43.236 L242.872,43.236 C243.176002,42.7559976 243.541998,42.3900013 243.97,42.138 C244.398002,41.8859987 244.867997,41.76 245.38,41.76 C245.620001,41.76 245.825999,41.7779998 245.998,41.814 C246.170001,41.8500002 246.343999,41.9119996 246.52,42 L246.232,43.164 C246.039999,43.0999997 245.870001,43.0540001 245.722,43.026 C245.573999,42.9979999 245.388001,42.984 245.164,42.984 C244.755998,42.984 244.364002,43.0999988 243.988,43.332 C243.611998,43.5640012 243.272002,43.9679971 242.968,44.544 L242.968,47.796 L241.576,47.796 L241.576,41.904 Z M255.352,41.988 L260.68,41.988 L260.68,42.996 L255.352,42.996 L255.352,41.988 Z M255.352,44.664 L260.68,44.664 L260.68,45.672 L255.352,45.672 L255.352,44.664 Z M267.4,44.304 L262.84,47.328 L262.84,46.044 L266.236,43.836 L266.236,43.788 L262.84,41.58 L262.84,40.296 L267.4,43.32 L267.4,44.304 Z" id="Path" fill="#E91E63" mask="url(#mask-2)"></path>
            </g>
        </g>
    </g>
</svg>