<?xml version="1.0" encoding="UTF-8"?>
<svg width="356px" height="118px" viewBox="0 0 356 118" version="1.1" xmlns="http://www.w3.org/2000/svg" xmlns:xlink="http://www.w3.org/1999/xlink">
    <!-- Generator: Sketch 44.1 (41455) - http://www.bohemiancoding.com/sketch -->
    <title>text-editor-identity</title>
    <desc>Created with Sketch.</desc>
    <defs>
        <rect id="path-1" x="0" y="0" width="344" height="105.347656" rx="6"></rect>
        <filter x="-2.9%" y="-7.6%" width="105.8%" height="119.0%" filterUnits="objectBoundingBox" id="filter-3">
            <feOffset dx="0" dy="2" in="SourceAlpha" result="shadowOffsetOuter1"></feOffset>
            <feGaussianBlur stdDeviation="3" in="shadowOffsetOuter1" result="shadowBlurOuter1"></feGaussianBlur>
            <feColorMatrix values="0 0 0 0 0   0 0 0 0 0   0 0 0 0 0  0 0 0 0.35 0" type="matrix" in="shadowBlurOuter1"></feColorMatrix>
        </filter>
    </defs>
    <g id="Symbols" stroke="none" stroke-width="1" fill="none" fill-rule="evenodd">
        <g id="Sections/Tutorials-Copy" transform="translate(-185.000000, -350.000000)">
            <g id="text-editor-identity" transform="translate(191.000000, 354.000000)">
                <mask id="mask-2" fill="white">
                    <use xlink:href="#path-1"></use>
                </mask>
                <g id="Rectangle">
                    <use fill="black" fill-opacity="1" filter="url(#filter-3)" xlink:href="#path-1"></use>
                    <use fill="#222528" fill-rule="evenodd" xlink:href="#path-1"></use>
                </g>
                <rect id="Rectangle-Copy" fill="#32363A" mask="url(#mask-2)" x="0" y="0" width="39" height="105.347656"></rect>
                <path d="M25.244,27.572 L25.244,29 L19.784,29 L19.784,27.572 L21.752,27.572 L21.752,23.168 L20.18,23.168 L20.18,22.076 C20.6280022,21.9959996 21.0099984,21.9000006 21.326,21.788 C21.6420016,21.6759994 21.9399986,21.5400008 22.22,21.38 L23.516,21.38 L23.516,27.572 L25.244,27.572 Z M19.496,46.992 C20.0400027,46.5359977 20.5359978,46.110002 20.984,45.714 C21.4320022,45.317998 21.8159984,44.9480017 22.136,44.604 C22.4560016,44.2599983 22.7039991,43.9360015 22.88,43.632 C23.0560009,43.3279985 23.144,43.0400014 23.144,42.768 C23.144,42.3919981 23.0360011,42.106001 22.82,41.91 C22.6039989,41.713999 22.296002,41.616 21.896,41.616 C21.5919985,41.616 21.3140013,41.6939992 21.062,41.85 C20.8099987,42.0060008 20.5760011,42.187999 20.36,42.396 L19.412,41.448 C19.612001,41.247999 19.809999,41.0720008 20.006,40.92 C20.202001,40.7679992 20.4099989,40.6420005 20.63,40.542 C20.8500011,40.4419995 21.0819988,40.3660003 21.326,40.314 C21.5700012,40.2619997 21.8399985,40.236 22.136,40.236 C22.536002,40.236 22.8999984,40.2939994 23.228,40.41 C23.5560016,40.5260006 23.8379988,40.6899989 24.074,40.902 C24.3100012,41.1140011 24.4939993,41.3679985 24.626,41.664 C24.7580007,41.9600015 24.824,42.2919982 24.824,42.66 C24.824,42.9800016 24.7480008,43.3059983 24.596,43.638 C24.4439992,43.9700017 24.2380013,44.3019983 23.978,44.634 C23.7179987,44.9660017 23.4200017,45.2979983 23.084,45.63 C22.7479983,45.9620017 22.3960018,46.2879984 22.028,46.608 C22.2440011,46.5839999 22.4779987,46.5620001 22.73,46.542 C22.9820013,46.5219999 23.207999,46.512 23.408,46.512 L25.22,46.512 L25.22,48 L19.496,48 L19.496,46.992 Z" id="1-2" fill="#7B7B7B" mask="url(#mask-2)"></path>
                <path d="M60.984,20.528 L62.376,20.528 L62.376,22.712 L62.328,23.744 C62.5840013,23.5039988 62.8719984,23.3140007 63.192,23.174 C63.5120016,23.0339993 63.8319984,22.964 64.152,22.964 C64.5360019,22.964 64.8759985,23.0339993 65.172,23.174 C65.4680015,23.3140007 65.719999,23.5139987 65.928,23.774 C66.136001,24.0340013 66.2939995,24.3479982 66.402,24.716 C66.5100005,25.0840018 66.564,25.4959977 66.564,25.952 C66.564,26.4560025 66.4920007,26.905998 66.348,27.302 C66.2039993,27.698002 66.0100012,28.0319986 65.766,28.304 C65.5219988,28.5760014 65.2420016,28.7839993 64.926,28.928 C64.6099984,29.0720007 64.2840017,29.144 63.948,29.144 C63.6679986,29.144 63.3760015,29.0760007 63.072,28.94 C62.7679985,28.8039993 62.4880013,28.6080013 62.232,28.352 L62.196,28.352 L62.076,29 L60.984,29 L60.984,20.528 Z M62.376,27.464 C62.5920011,27.664001 62.8159988,27.8039996 63.048,27.884 C63.2800012,27.9640004 63.4879991,28.004 63.672,28.004 C64.0880021,28.004 64.4359986,27.8340017 64.716,27.494 C64.9960014,27.1539983 65.136,26.6480034 65.136,25.976 C65.136,25.383997 65.0280011,24.9240016 64.812,24.596 C64.5959989,24.2679984 64.2480024,24.104 63.768,24.104 C63.5439989,24.104 63.3160012,24.1599994 63.084,24.272 C62.8519988,24.3840006 62.6160012,24.5639988 62.376,24.812 L62.376,27.464 Z M68.052,20.528 L71.292,20.528 L71.292,26.924 C71.292,27.324002 71.391999,27.6059992 71.592,27.77 C71.792001,27.9340008 72.0439985,28.016 72.348,28.016 C72.6360014,28.016 72.9719981,27.9400008 73.356,27.788 L73.68,28.808 C73.3999986,28.9040005 73.1380012,28.9839997 72.894,29.048 C72.6499988,29.1120003 72.3560017,29.144 72.012,29.144 C71.3159965,29.144 70.7920018,28.944002 70.44,28.544 C70.0879982,28.143998 69.912,27.5800036 69.912,26.852 L69.912,21.62 L68.052,21.62 L68.052,20.528 Z M75.036,26.06 C75.036,25.5719976 75.1179992,25.1360019 75.282,24.752 C75.4460008,24.3679981 75.6639986,24.0440013 75.936,23.78 C76.2080014,23.5159987 76.5239982,23.3140007 76.884,23.174 C77.2440018,23.0339993 77.6159981,22.964 78,22.964 C78.3840019,22.964 78.7559982,23.0339993 79.116,23.174 C79.4760018,23.3140007 79.7919986,23.5159987 80.064,23.78 C80.3360014,24.0440013 80.5539992,24.3679981 80.718,24.752 C80.8820008,25.1360019 80.964,25.5719976 80.964,26.06 C80.964,26.5480024 80.8820008,26.9839981 80.718,27.368 C80.5539992,27.7520019 80.3360014,28.0759987 80.064,28.34 C79.7919986,28.6040013 79.4760018,28.8039993 79.116,28.94 C78.7559982,29.0760007 78.3840019,29.144 78,29.144 C77.6159981,29.144 77.2440018,29.0760007 76.884,28.94 C76.5239982,28.8039993 76.2080014,28.6040013 75.936,28.34 C75.6639986,28.0759987 75.4460008,27.7520019 75.282,27.368 C75.1179992,26.9839981 75.036,26.5480024 75.036,26.06 Z M76.464,26.06 C76.464,26.652003 76.5999986,27.1259982 76.872,27.482 C77.1440014,27.8380018 77.5199976,28.016 78,28.016 C78.4800024,28.016 78.8559986,27.8380018 79.128,27.482 C79.4000014,27.1259982 79.536,26.652003 79.536,26.06 C79.536,25.459997 79.4000014,24.9820018 79.128,24.626 C78.8559986,24.2699982 78.4800024,24.092 78,24.092 C77.5199976,24.092 77.1440014,24.2699982 76.872,24.626 C76.5999986,24.9820018 76.464,25.459997 76.464,26.06 Z M82.476,26.06 C82.476,25.5719976 82.5659991,25.1360019 82.746,24.752 C82.9260009,24.3679981 83.1679985,24.0440013 83.472,23.78 C83.7760015,23.5159987 84.131998,23.3140007 84.54,23.174 C84.948002,23.0339993 85.3759978,22.964 85.824,22.964 C86.3040024,22.964 86.7259982,23.0439992 87.09,23.204 C87.4540018,23.3640008 87.7599988,23.5599988 88.008,23.792 L87.348,24.656 C87.1159988,24.4719991 86.8820012,24.3320005 86.646,24.236 C86.4099988,24.1399995 86.1600013,24.092 85.896,24.092 C85.303997,24.092 84.8240018,24.2699982 84.456,24.626 C84.0879982,24.9820018 83.904,25.459997 83.904,26.06 C83.904,26.3560015 83.9519995,26.6239988 84.048,26.864 C84.1440005,27.1040012 84.2779991,27.3099991 84.45,27.482 C84.6220009,27.6540009 84.8279988,27.7859995 85.068,27.878 C85.3080012,27.9700005 85.5719986,28.016 85.86,28.016 C86.1960017,28.016 86.5019986,27.9520006 86.778,27.824 C87.0540014,27.6959994 87.3079988,27.5440009 87.54,27.368 L88.116,28.256 C87.7799983,28.5520015 87.4040021,28.7739993 86.988,28.922 C86.5719979,29.0700007 86.1520021,29.144 85.728,29.144 C85.2639977,29.144 84.834002,29.0760007 84.438,28.94 C84.041998,28.8039993 83.6980015,28.6040013 83.406,28.34 C83.1139985,28.0759987 82.8860008,27.7520019 82.722,27.368 C82.5579992,26.9839981 82.476,26.5480024 82.476,26.06 Z M89.88,20.528 L91.272,20.528 L91.272,25.832 L91.32,25.832 L93.972,23.108 L95.508,23.108 L93.228,25.484 L95.76,29 L94.248,29 L92.4,26.336 L91.272,27.464 L91.272,29 L89.88,29 L89.88,20.528 Z M97.392,27.356 C97.7280017,27.5880012 98.0779982,27.7699993 98.442,27.902 C98.8060018,28.0340007 99.2159977,28.1 99.672,28.1 C100.136002,28.1 100.475999,28.0340007 100.692,27.902 C100.908001,27.7699993 101.016,27.600001 101.016,27.392 C101.016,27.183999 100.876001,27.0100007 100.596,26.87 C100.315999,26.7299993 99.876003,26.5800008 99.276,26.42 C98.9959986,26.3479996 98.7240013,26.2600005 98.46,26.156 C98.1959987,26.0519995 97.964001,25.9320007 97.764,25.796 C97.563999,25.6599993 97.4040006,25.5040009 97.284,25.328 C97.1639994,25.1519991 97.104,24.9520011 97.104,24.728 C97.104,24.2079974 97.3279978,23.7840016 97.776,23.456 C98.2240022,23.1279984 98.8679958,22.964 99.708,22.964 C100.188002,22.964 100.639998,23.0439992 101.064,23.204 C101.488002,23.3640008 101.851998,23.543999 102.156,23.744 L101.52,24.596 C101.255999,24.4199991 100.974001,24.2780005 100.674,24.17 C100.373998,24.0619995 100.056002,24.008 99.72,24.008 C99.2639977,24.008 98.9440009,24.0699994 98.76,24.194 C98.5759991,24.3180006 98.484,24.4719991 98.484,24.656 C98.484,24.7600005 98.5259996,24.8539996 98.61,24.938 C98.6940004,25.0220004 98.8099993,25.0979997 98.958,25.166 C99.1060007,25.2340003 99.279999,25.2999997 99.48,25.364 C99.680001,25.4280003 99.8999988,25.4879997 100.14,25.544 C100.484002,25.6320004 100.793999,25.7299995 101.07,25.838 C101.346001,25.9460005 101.581999,26.0679993 101.778,26.204 C101.974001,26.3400007 102.125999,26.4999991 102.234,26.684 C102.342001,26.8680009 102.396,27.0799988 102.396,27.32 C102.396,27.5760013 102.336001,27.8139989 102.216,28.034 C102.095999,28.2540011 101.920001,28.4459992 101.688,28.61 C101.455999,28.7740008 101.168002,28.9039995 100.824,29 C100.479998,29.0960005 100.084002,29.144 99.636,29.144 C99.0839972,29.144 98.5560025,29.0560009 98.052,28.88 C97.5479975,28.7039991 97.1120018,28.4880013 96.744,28.232 L97.392,27.356 Z M105.48,24.2 L103.908,24.2 L103.908,23.168 L105.54,23.108 L105.72,21.5 L106.86,21.5 L106.86,23.108 L109.548,23.108 L109.548,24.2 L106.86,24.2 L106.86,26.624 C106.86,27.1120024 106.959999,27.4699989 107.16,27.698 C107.360001,27.9260011 107.711997,28.04 108.216,28.04 C108.472001,28.04 108.703999,28.0180002 108.912,27.974 C109.120001,27.9299998 109.319999,27.8720004 109.512,27.8 L109.776,28.808 C109.511999,28.8960004 109.220002,28.9739997 108.9,29.042 C108.579998,29.1100003 108.240002,29.144 107.88,29.144 C107.431998,29.144 107.056002,29.0840006 106.752,28.964 C106.447998,28.8439994 106.202001,28.6740011 106.014,28.454 C105.825999,28.2339989 105.69,27.9680016 105.606,27.656 C105.522,27.3439984 105.48,27.0000019 105.48,26.624 L105.48,24.2 Z M111.252,27.416 C111.252,27.0879984 111.327999,26.7980013 111.48,26.546 C111.632001,26.2939987 111.871998,26.0800009 112.2,25.904 C112.528002,25.7279991 112.947997,25.5840006 113.46,25.472 C113.972003,25.3599994 114.591996,25.2800002 115.32,25.232 C115.296,24.8959983 115.176001,24.6200011 114.96,24.404 C114.743999,24.1879989 114.396002,24.08 113.916,24.08 C113.579998,24.08 113.250002,24.1419994 112.926,24.266 C112.601998,24.3900006 112.288002,24.5359992 111.984,24.704 L111.48,23.78 C111.840002,23.571999 112.251998,23.3840008 112.716,23.216 C113.180002,23.0479992 113.663997,22.964 114.168,22.964 C114.992004,22.964 115.619998,23.1819978 116.052,23.618 C116.484002,24.0540022 116.7,24.6839959 116.7,25.508 L116.7,29 L115.572,29 L115.464,28.268 L115.428,28.268 C115.115998,28.5080012 114.770002,28.7139991 114.39,28.886 C114.009998,29.0580009 113.620002,29.144 113.22,29.144 C112.931999,29.144 112.668001,29.1020004 112.428,29.018 C112.187999,28.9339996 111.980001,28.8160008 111.804,28.664 C111.627999,28.5119992 111.492,28.3300011 111.396,28.118 C111.3,27.9059989 111.252,27.6720013 111.252,27.416 Z M112.584,27.308 C112.584,27.5720013 112.685999,27.7639994 112.89,27.884 C113.094001,28.0040006 113.343999,28.064 113.64,28.064 C113.936001,28.064 114.221999,27.9980007 114.498,27.866 C114.774001,27.7339993 115.047999,27.5600011 115.32,27.344 L115.32,26.096 C114.791997,26.1360002 114.352002,26.1899997 114,26.258 C113.647998,26.3260003 113.368001,26.4119995 113.16,26.516 C112.951999,26.6200005 112.804,26.7379993 112.716,26.87 C112.628,27.0020007 112.584,27.1479992 112.584,27.308 Z M118.476,26.06 C118.476,25.5719976 118.565999,25.1360019 118.746,24.752 C118.926001,24.3679981 119.167998,24.0440013 119.472,23.78 C119.776002,23.5159987 120.131998,23.3140007 120.54,23.174 C120.948002,23.0339993 121.375998,22.964 121.824,22.964 C122.304002,22.964 122.725998,23.0439992 123.09,23.204 C123.454002,23.3640008 123.759999,23.5599988 124.008,23.792 L123.348,24.656 C123.115999,24.4719991 122.882001,24.3320005 122.646,24.236 C122.409999,24.1399995 122.160001,24.092 121.896,24.092 C121.303997,24.092 120.824002,24.2699982 120.456,24.626 C120.087998,24.9820018 119.904,25.459997 119.904,26.06 C119.904,26.3560015 119.952,26.6239988 120.048,26.864 C120.144,27.1040012 120.277999,27.3099991 120.45,27.482 C120.622001,27.6540009 120.827999,27.7859995 121.068,27.878 C121.308001,27.9700005 121.571999,28.016 121.86,28.016 C122.196002,28.016 122.501999,27.9520006 122.778,27.824 C123.054001,27.6959994 123.307999,27.5440009 123.54,27.368 L124.116,28.256 C123.779998,28.5520015 123.404002,28.7739993 122.988,28.922 C122.571998,29.0700007 122.152002,29.144 121.728,29.144 C121.263998,29.144 120.834002,29.0760007 120.438,28.94 C120.041998,28.8039993 119.698001,28.6040013 119.406,28.34 C119.113999,28.0759987 118.886001,27.7520019 118.722,27.368 C118.557999,26.9839981 118.476,26.5480024 118.476,26.06 Z M125.88,20.528 L127.272,20.528 L127.272,25.832 L127.32,25.832 L129.972,23.108 L131.508,23.108 L129.228,25.484 L131.76,29 L130.248,29 L128.4,26.336 L127.272,27.464 L127.272,29 L125.88,29 L125.88,20.528 Z M140.76,23.108 L141.9,23.108 L142.02,24.44 L142.056,24.44 C142.360002,23.9599976 142.725998,23.5940013 143.154,23.342 C143.582002,23.0899987 144.051997,22.964 144.564,22.964 C144.804001,22.964 145.009999,22.9819998 145.182,23.018 C145.354001,23.0540002 145.527999,23.1159996 145.704,23.204 L145.416,24.368 C145.223999,24.3039997 145.054001,24.2580001 144.906,24.23 C144.757999,24.2019999 144.572001,24.188 144.348,24.188 C143.939998,24.188 143.548002,24.3039988 143.172,24.536 C142.795998,24.7680012 142.456002,25.1719971 142.152,25.748 L142.152,29 L140.76,29 L140.76,23.108 Z M147.144,26.06 C147.144,25.5799976 147.229999,25.1480019 147.402,24.764 C147.574001,24.3799981 147.799999,24.0540013 148.08,23.786 C148.360001,23.5179987 148.681998,23.3140007 149.046,23.174 C149.410002,23.0339993 149.783998,22.964 150.168,22.964 C150.608002,22.964 150.997998,23.0339993 151.338,23.174 C151.678002,23.3140007 151.963999,23.5059988 152.196,23.75 C152.428001,23.9940012 152.603999,24.2879983 152.724,24.632 C152.844001,24.9760017 152.904,25.351998 152.904,25.76 C152.904,25.8960007 152.898,26.0239994 152.886,26.144 C152.874,26.2640006 152.86,26.3599996 152.844,26.432 L148.56,26.432 C148.608,26.9600026 148.815998,27.3659986 149.184,27.65 C149.552002,27.9340014 150.003997,28.076 150.54,28.076 C150.844002,28.076 151.127999,28.0340004 151.392,27.95 C151.656001,27.8659996 151.923999,27.7480008 152.196,27.596 L152.664,28.46 C152.343998,28.660001 151.988002,28.8239994 151.596,28.952 C151.203998,29.0800006 150.792002,29.144 150.36,29.144 C149.911998,29.144 149.492002,29.0740007 149.1,28.934 C148.707998,28.7939993 148.368001,28.5920013 148.08,28.328 C147.791999,28.0639987 147.564001,27.7420019 147.396,27.362 C147.227999,26.9819981 147.144,26.5480024 147.144,26.06 Z M151.632,25.496 C151.632,25.0399977 151.512001,24.6820013 151.272,24.422 C151.031999,24.1619987 150.676002,24.032 150.204,24.032 C149.803998,24.032 149.448002,24.1559988 149.136,24.404 C148.823998,24.6520012 148.628,25.0159976 148.548,25.496 L151.632,25.496 Z M154.236,26.06 C154.236,25.5799976 154.307999,25.1480019 154.452,24.764 C154.596001,24.3799981 154.789999,24.0560013 155.034,23.792 C155.278001,23.5279987 155.555998,23.3240007 155.868,23.18 C156.180002,23.0359993 156.503998,22.964 156.84,22.964 C157.192002,22.964 157.493999,23.0259994 157.746,23.15 C157.998001,23.2740006 158.243999,23.4439989 158.484,23.66 L158.424,22.664 L158.424,20.528 L159.816,20.528 L159.816,29 L158.676,29 L158.568,28.316 L158.532,28.316 C158.299999,28.5480012 158.030002,28.7439992 157.722,28.904 C157.413998,29.0640008 157.092002,29.144 156.756,29.144 C156.379998,29.144 156.036002,29.0740007 155.724,28.934 C155.411998,28.7939993 155.146001,28.5920013 154.926,28.328 C154.705999,28.0639987 154.536001,27.7420019 154.416,27.362 C154.295999,26.9819981 154.236,26.5480024 154.236,26.06 Z M155.664,26.048 C155.664,26.6880032 155.787999,27.1739983 156.036,27.506 C156.284001,27.8380017 156.635998,28.004 157.092,28.004 C157.580002,28.004 158.023998,27.7680024 158.424,27.296 L158.424,24.644 C158.215999,24.443999 158.008001,24.3040004 157.8,24.224 C157.591999,24.1439996 157.380001,24.104 157.164,24.104 C156.955999,24.104 156.762001,24.1479996 156.582,24.236 C156.401999,24.3240004 156.244001,24.4499992 156.108,24.614 C155.971999,24.7780008 155.864,24.9799988 155.784,25.22 C155.704,25.4600012 155.664,25.7359984 155.664,26.048 Z M161.808,23.108 L165.744,23.108 L165.744,29 L164.364,29 L164.364,24.2 L161.808,24.2 L161.808,23.108 Z M164.952,22.076 C164.671999,22.076 164.438001,21.9920008 164.25,21.824 C164.061999,21.6559992 163.968,21.4320014 163.968,21.152 C163.968,20.8719986 164.061999,20.6460009 164.25,20.474 C164.438001,20.3019991 164.671999,20.216 164.952,20.216 C165.240001,20.216 165.475999,20.3019991 165.66,20.474 C165.844001,20.6460009 165.936,20.8719986 165.936,21.152 C165.936,21.4320014 165.844001,21.6559992 165.66,21.824 C165.475999,21.9920008 165.240001,22.076 164.952,22.076 Z M169.56,23.108 L170.7,23.108 L170.82,24.44 L170.856,24.44 C171.160002,23.9599976 171.525998,23.5940013 171.954,23.342 C172.382002,23.0899987 172.851997,22.964 173.364,22.964 C173.604001,22.964 173.809999,22.9819998 173.982,23.018 C174.154001,23.0540002 174.327999,23.1159996 174.504,23.204 L174.216,24.368 C174.023999,24.3039997 173.854001,24.2580001 173.706,24.23 C173.557999,24.2019999 173.372001,24.188 173.148,24.188 C172.739998,24.188 172.348002,24.3039988 171.972,24.536 C171.595998,24.7680012 171.256002,25.1719971 170.952,25.748 L170.952,29 L169.56,29 L169.56,23.108 Z M175.944,26.06 C175.944,25.5799976 176.029999,25.1480019 176.202,24.764 C176.374001,24.3799981 176.599999,24.0540013 176.88,23.786 C177.160001,23.5179987 177.481998,23.3140007 177.846,23.174 C178.210002,23.0339993 178.583998,22.964 178.968,22.964 C179.408002,22.964 179.797998,23.0339993 180.138,23.174 C180.478002,23.3140007 180.763999,23.5059988 180.996,23.75 C181.228001,23.9940012 181.403999,24.2879983 181.524,24.632 C181.644001,24.9760017 181.704,25.351998 181.704,25.76 C181.704,25.8960007 181.698,26.0239994 181.686,26.144 C181.674,26.2640006 181.66,26.3599996 181.644,26.432 L177.36,26.432 C177.408,26.9600026 177.615998,27.3659986 177.984,27.65 C178.352002,27.9340014 178.803997,28.076 179.34,28.076 C179.644002,28.076 179.927999,28.0340004 180.192,27.95 C180.456001,27.8659996 180.723999,27.7480008 180.996,27.596 L181.464,28.46 C181.143998,28.660001 180.788002,28.8239994 180.396,28.952 C180.003998,29.0800006 179.592002,29.144 179.16,29.144 C178.711998,29.144 178.292002,29.0740007 177.9,28.934 C177.507998,28.7939993 177.168001,28.5920013 176.88,28.328 C176.591999,28.0639987 176.364001,27.7420019 176.196,27.362 C176.027999,26.9819981 175.944,26.5480024 175.944,26.06 Z M180.432,25.496 C180.432,25.0399977 180.312001,24.6820013 180.072,24.422 C179.831999,24.1619987 179.476002,24.032 179.004,24.032 C178.603998,24.032 178.248002,24.1559988 177.936,24.404 C177.623998,24.6520012 177.428,25.0159976 177.348,25.496 L180.432,25.496 Z M183.276,26.06 C183.276,25.5719976 183.365999,25.1360019 183.546,24.752 C183.726001,24.3679981 183.967998,24.0440013 184.272,23.78 C184.576002,23.5159987 184.931998,23.3140007 185.34,23.174 C185.748002,23.0339993 186.175998,22.964 186.624,22.964 C187.104002,22.964 187.525998,23.0439992 187.89,23.204 C188.254002,23.3640008 188.559999,23.5599988 188.808,23.792 L188.148,24.656 C187.915999,24.4719991 187.682001,24.3320005 187.446,24.236 C187.209999,24.1399995 186.960001,24.092 186.696,24.092 C186.103997,24.092 185.624002,24.2699982 185.256,24.626 C184.887998,24.9820018 184.704,25.459997 184.704,26.06 C184.704,26.3560015 184.752,26.6239988 184.848,26.864 C184.944,27.1040012 185.077999,27.3099991 185.25,27.482 C185.422001,27.6540009 185.627999,27.7859995 185.868,27.878 C186.108001,27.9700005 186.371999,28.016 186.66,28.016 C186.996002,28.016 187.301999,27.9520006 187.578,27.824 C187.854001,27.6959994 188.107999,27.5440009 188.34,27.368 L188.916,28.256 C188.579998,28.5520015 188.204002,28.7739993 187.788,28.922 C187.371998,29.0700007 186.952002,29.144 186.528,29.144 C186.063998,29.144 185.634002,29.0760007 185.238,28.94 C184.841998,28.8039993 184.498001,28.6040013 184.206,28.34 C183.913999,28.0759987 183.686001,27.7520019 183.522,27.368 C183.357999,26.9839981 183.276,26.5480024 183.276,26.06 Z M191.88,24.2 L190.308,24.2 L190.308,23.168 L191.94,23.108 L192.12,21.5 L193.26,21.5 L193.26,23.108 L195.948,23.108 L195.948,24.2 L193.26,24.2 L193.26,26.624 C193.26,27.1120024 193.359999,27.4699989 193.56,27.698 C193.760001,27.9260011 194.111997,28.04 194.616,28.04 C194.872001,28.04 195.103999,28.0180002 195.312,27.974 C195.520001,27.9299998 195.719999,27.8720004 195.912,27.8 L196.176,28.808 C195.911999,28.8960004 195.620002,28.9739997 195.3,29.042 C194.979998,29.1100003 194.640002,29.144 194.28,29.144 C193.831998,29.144 193.456002,29.0840006 193.152,28.964 C192.847998,28.8439994 192.602001,28.6740011 192.414,28.454 C192.225999,28.2339989 192.09,27.9680016 192.006,27.656 C191.922,27.3439984 191.88,27.0000019 191.88,26.624 L191.88,24.2 Z M197.664,21.152 L199.056,21.152 L199.056,26.108 C199.056,26.7560032 199.175999,27.2219986 199.416,27.506 C199.656001,27.7900014 199.987998,27.932 200.412,27.932 C200.844002,27.932 201.183999,27.7900014 201.432,27.506 C201.680001,27.2219986 201.804,26.7560032 201.804,26.108 L201.804,21.152 L203.136,21.152 L203.136,26 C203.136,27.0800054 202.900002,27.8739975 202.428,28.382 C201.955998,28.8900025 201.284004,29.144 200.412,29.144 C199.555996,29.144 198.884002,28.8880026 198.396,28.376 C197.907998,27.8639974 197.664,27.0720054 197.664,26 L197.664,21.152 Z M205.392,27.356 C205.728002,27.5880012 206.077998,27.7699993 206.442,27.902 C206.806002,28.0340007 207.215998,28.1 207.672,28.1 C208.136002,28.1 208.475999,28.0340007 208.692,27.902 C208.908001,27.7699993 209.016,27.600001 209.016,27.392 C209.016,27.183999 208.876001,27.0100007 208.596,26.87 C208.315999,26.7299993 207.876003,26.5800008 207.276,26.42 C206.995999,26.3479996 206.724001,26.2600005 206.46,26.156 C206.195999,26.0519995 205.964001,25.9320007 205.764,25.796 C205.563999,25.6599993 205.404001,25.5040009 205.284,25.328 C205.163999,25.1519991 205.104,24.9520011 205.104,24.728 C205.104,24.2079974 205.327998,23.7840016 205.776,23.456 C206.224002,23.1279984 206.867996,22.964 207.708,22.964 C208.188002,22.964 208.639998,23.0439992 209.064,23.204 C209.488002,23.3640008 209.851998,23.543999 210.156,23.744 L209.52,24.596 C209.255999,24.4199991 208.974001,24.2780005 208.674,24.17 C208.373998,24.0619995 208.056002,24.008 207.72,24.008 C207.263998,24.008 206.944001,24.0699994 206.76,24.194 C206.575999,24.3180006 206.484,24.4719991 206.484,24.656 C206.484,24.7600005 206.526,24.8539996 206.61,24.938 C206.694,25.0220004 206.809999,25.0979997 206.958,25.166 C207.106001,25.2340003 207.279999,25.2999997 207.48,25.364 C207.680001,25.4280003 207.899999,25.4879997 208.14,25.544 C208.484002,25.6320004 208.793999,25.7299995 209.07,25.838 C209.346001,25.9460005 209.581999,26.0679993 209.778,26.204 C209.974001,26.3400007 210.125999,26.4999991 210.234,26.684 C210.342001,26.8680009 210.396,27.0799988 210.396,27.32 C210.396,27.5760013 210.336001,27.8139989 210.216,28.034 C210.095999,28.2540011 209.920001,28.4459992 209.688,28.61 C209.455999,28.7740008 209.168002,28.9039995 208.824,29 C208.479998,29.0960005 208.084002,29.144 207.636,29.144 C207.083997,29.144 206.556003,29.0560009 206.052,28.88 C205.547997,28.7039991 205.112002,28.4880013 204.744,28.232 L205.392,27.356 Z M211.944,26.06 C211.944,25.5799976 212.029999,25.1480019 212.202,24.764 C212.374001,24.3799981 212.599999,24.0540013 212.88,23.786 C213.160001,23.5179987 213.481998,23.3140007 213.846,23.174 C214.210002,23.0339993 214.583998,22.964 214.968,22.964 C215.408002,22.964 215.797998,23.0339993 216.138,23.174 C216.478002,23.3140007 216.763999,23.5059988 216.996,23.75 C217.228001,23.9940012 217.403999,24.2879983 217.524,24.632 C217.644001,24.9760017 217.704,25.351998 217.704,25.76 C217.704,25.8960007 217.698,26.0239994 217.686,26.144 C217.674,26.2640006 217.66,26.3599996 217.644,26.432 L213.36,26.432 C213.408,26.9600026 213.615998,27.3659986 213.984,27.65 C214.352002,27.9340014 214.803997,28.076 215.34,28.076 C215.644002,28.076 215.927999,28.0340004 216.192,27.95 C216.456001,27.8659996 216.723999,27.7480008 216.996,27.596 L217.464,28.46 C217.143998,28.660001 216.788002,28.8239994 216.396,28.952 C216.003998,29.0800006 215.592002,29.144 215.16,29.144 C214.711998,29.144 214.292002,29.0740007 213.9,28.934 C213.507998,28.7939993 213.168001,28.5920013 212.88,28.328 C212.591999,28.0639987 212.364001,27.7420019 212.196,27.362 C212.027999,26.9819981 211.944,26.5480024 211.944,26.06 Z M216.432,25.496 C216.432,25.0399977 216.312001,24.6820013 216.072,24.422 C215.831999,24.1619987 215.476002,24.032 215.004,24.032 C214.603998,24.032 214.248002,24.1559988 213.936,24.404 C213.623998,24.6520012 213.428,25.0159976 213.348,25.496 L216.432,25.496 Z M219.96,23.108 L221.1,23.108 L221.22,24.44 L221.256,24.44 C221.560002,23.9599976 221.925998,23.5940013 222.354,23.342 C222.782002,23.0899987 223.251997,22.964 223.764,22.964 C224.004001,22.964 224.209999,22.9819998 224.382,23.018 C224.554001,23.0540002 224.727999,23.1159996 224.904,23.204 L224.616,24.368 C224.423999,24.3039997 224.254001,24.2580001 224.106,24.23 C223.957999,24.2019999 223.772001,24.188 223.548,24.188 C223.139998,24.188 222.748002,24.3039988 222.372,24.536 C221.995998,24.7680012 221.656002,25.1719971 221.352,25.748 L221.352,29 L219.96,29 L219.96,23.108 Z M228.504,22.328 L226.032,22.328 L226.032,21.152 L232.368,21.152 L232.368,22.328 L229.896,22.328 L229.896,29 L228.504,29 L228.504,22.328 Z M233.436,26.06 C233.436,25.5719976 233.517999,25.1360019 233.682,24.752 C233.846001,24.3679981 234.063999,24.0440013 234.336,23.78 C234.608001,23.5159987 234.923998,23.3140007 235.284,23.174 C235.644002,23.0339993 236.015998,22.964 236.4,22.964 C236.784002,22.964 237.155998,23.0339993 237.516,23.174 C237.876002,23.3140007 238.191999,23.5159987 238.464,23.78 C238.736001,24.0440013 238.953999,24.3679981 239.118,24.752 C239.282001,25.1360019 239.364,25.5719976 239.364,26.06 C239.364,26.5480024 239.282001,26.9839981 239.118,27.368 C238.953999,27.7520019 238.736001,28.0759987 238.464,28.34 C238.191999,28.6040013 237.876002,28.8039993 237.516,28.94 C237.155998,29.0760007 236.784002,29.144 236.4,29.144 C236.015998,29.144 235.644002,29.0760007 235.284,28.94 C234.923998,28.8039993 234.608001,28.6040013 234.336,28.34 C234.063999,28.0759987 233.846001,27.7520019 233.682,27.368 C233.517999,26.9839981 233.436,26.5480024 233.436,26.06 Z M234.864,26.06 C234.864,26.652003 234.999999,27.1259982 235.272,27.482 C235.544001,27.8380018 235.919998,28.016 236.4,28.016 C236.880002,28.016 237.255999,27.8380018 237.528,27.482 C237.800001,27.1259982 237.936,26.652003 237.936,26.06 C237.936,25.459997 237.800001,24.9820018 237.528,24.626 C237.255999,24.2699982 236.880002,24.092 236.4,24.092 C235.919998,24.092 235.544001,24.2699982 235.272,24.626 C234.999999,24.9820018 234.864,25.459997 234.864,26.06 Z M241.512,27.044 C241.808001,27.3080013 242.141998,27.5219992 242.514,27.686 C242.886002,27.8500008 243.263998,27.932 243.648,27.932 C244.128002,27.932 244.491999,27.8400009 244.74,27.656 C244.988001,27.4719991 245.112,27.2280015 245.112,26.924 C245.112,26.7639992 245.08,26.6280006 245.016,26.516 C244.952,26.4039994 244.862001,26.3060004 244.746,26.222 C244.629999,26.1379996 244.490001,26.0600004 244.326,25.988 C244.161999,25.9159996 243.984001,25.8440004 243.792,25.772 L242.724,25.304 C242.515999,25.2239996 242.312001,25.1240006 242.112,25.004 C241.911999,24.8839994 241.732001,24.7400008 241.572,24.572 C241.411999,24.4039992 241.284,24.2080011 241.188,23.984 C241.092,23.7599989 241.044,23.5040014 241.044,23.216 C241.044,22.9039984 241.111999,22.6140013 241.248,22.346 C241.384001,22.0779987 241.571999,21.844001 241.812,21.644 C242.052001,21.443999 242.337998,21.2880006 242.67,21.176 C243.002002,21.0639994 243.367998,21.008 243.768,21.008 C244.248002,21.008 244.705998,21.0979991 245.142,21.278 C245.578002,21.4580009 245.959998,21.6999985 246.288,22.004 L245.568,22.892 C245.303999,22.683999 245.028001,22.5200006 244.74,22.4 C244.451999,22.2799994 244.128002,22.22 243.768,22.22 C243.359998,22.22 243.038001,22.3019992 242.802,22.466 C242.565999,22.6300008 242.448,22.8559986 242.448,23.144 C242.448,23.2960008 242.484,23.4259995 242.556,23.534 C242.628,23.6420005 242.725999,23.7379996 242.85,23.822 C242.974001,23.9060004 243.117999,23.9799997 243.282,24.044 C243.446001,24.1080003 243.615999,24.1759996 243.792,24.248 L244.824,24.692 C245.072001,24.7880005 245.299999,24.8999994 245.508,25.028 C245.716001,25.1560006 245.895999,25.3039992 246.048,25.472 C246.200001,25.6400008 246.318,25.8339989 246.402,26.054 C246.486,26.2740011 246.528,26.5279986 246.528,26.816 C246.528,27.1360016 246.462001,27.4359986 246.33,27.716 C246.197999,27.9960014 246.008001,28.2419989 245.76,28.454 C245.511999,28.6660011 245.208002,28.8339994 244.848,28.958 C244.487998,29.0820006 244.080002,29.144 243.624,29.144 C243.071997,29.144 242.544003,29.044001 242.04,28.844 C241.535997,28.643999 241.088002,28.3600018 240.696,27.992 L241.512,27.044 Z M248.208,23.108 L252.144,23.108 L252.144,29 L250.764,29 L250.764,24.2 L248.208,24.2 L248.208,23.108 Z M251.352,22.076 C251.071999,22.076 250.838001,21.9920008 250.65,21.824 C250.461999,21.6559992 250.368,21.4320014 250.368,21.152 C250.368,20.8719986 250.461999,20.6460009 250.65,20.474 C250.838001,20.3019991 251.071999,20.216 251.352,20.216 C251.640001,20.216 251.875999,20.3019991 252.06,20.474 C252.244001,20.6460009 252.336,20.8719986 252.336,21.152 C252.336,21.4320014 252.244001,21.6559992 252.06,21.824 C251.875999,21.9920008 251.640001,22.076 251.352,22.076 Z M256.296,29.852 C256.296,30.1160013 256.441999,30.3239992 256.734,30.476 C257.026001,30.6280008 257.447997,30.704 258,30.704 C258.288001,30.704 258.547999,30.6780003 258.78,30.626 C259.012001,30.5739997 259.211999,30.5040004 259.38,30.416 C259.548001,30.3279996 259.676,30.2260006 259.764,30.11 C259.852,29.9939994 259.896,29.8720006 259.896,29.744 C259.896,29.5119988 259.796001,29.3580004 259.596,29.282 C259.395999,29.2059996 259.100002,29.168 258.708,29.168 L257.772,29.168 C257.579999,29.168 257.410001,29.1620001 257.262,29.15 C257.113999,29.1379999 256.984001,29.1120002 256.872,29.072 C256.663999,29.2000006 256.516,29.3279994 256.428,29.456 C256.34,29.5840006 256.296,29.7159993 256.296,29.852 Z M255.144,30.032 C255.144,29.7999988 255.223999,29.5760011 255.384,29.36 C255.544001,29.1439989 255.775998,28.9560008 256.08,28.796 L256.08,28.748 C255.919999,28.6599996 255.780001,28.5360008 255.66,28.376 C255.539999,28.2159992 255.48,28.0120012 255.48,27.764 C255.48,27.563999 255.543999,27.366001 255.672,27.17 C255.800001,26.973999 255.971999,26.8000008 256.188,26.648 L256.188,26.6 C255.979999,26.4559993 255.802001,26.2560013 255.654,26 C255.505999,25.7439987 255.432,25.4400018 255.432,25.088 C255.432,24.7519983 255.497999,24.4520013 255.63,24.188 C255.762001,23.9239987 255.937999,23.7020009 256.158,23.522 C256.378001,23.3419991 256.633999,23.2040005 256.926,23.108 C257.218001,23.0119995 257.527998,22.964 257.856,22.964 C258.208002,22.964 258.515999,23.0119995 258.78,23.108 L261.192,23.108 L261.192,24.128 L259.812,24.128 C259.916001,24.2480006 260.008,24.3939991 260.088,24.566 C260.168,24.7380009 260.208,24.927999 260.208,25.136 C260.208,25.4640016 260.148001,25.7519988 260.028,26 C259.907999,26.2480012 259.742001,26.4559992 259.53,26.624 C259.317999,26.7920008 259.068001,26.9179996 258.78,27.002 C258.491999,27.0860004 258.184002,27.128 257.856,27.128 C257.559999,27.128 257.260002,27.0760005 256.956,26.972 C256.715999,27.1240008 256.596,27.303999 256.596,27.512 C256.596,27.8880019 256.967996,28.076 257.712,28.076 L258.912,28.076 C259.680004,28.076 260.257998,28.1879989 260.646,28.412 C261.034002,28.6360011 261.228,29.0039974 261.228,29.516 C261.228,29.8040014 261.148001,30.0759987 260.988,30.332 C260.827999,30.5880013 260.602001,30.8099991 260.31,30.998 C260.017999,31.1860009 259.662002,31.3339995 259.242,31.442 C258.821998,31.5500005 258.352003,31.604 257.832,31.604 C257.423998,31.604 257.056002,31.5720003 256.728,31.508 C256.399998,31.4439997 256.118001,31.3460007 255.882,31.214 C255.645999,31.0819993 255.464001,30.918001 255.336,30.722 C255.207999,30.525999 255.144,30.2960013 255.144,30.032 Z M257.856,26.264 C258.160002,26.264 258.423999,26.162001 258.648,25.958 C258.872001,25.753999 258.984,25.4640019 258.984,25.088 C258.984,24.7279982 258.872001,24.4420011 258.648,24.23 C258.423999,24.0179989 258.160002,23.912 257.856,23.912 C257.551998,23.912 257.290001,24.0179989 257.07,24.23 C256.849999,24.4420011 256.74,24.7279982 256.74,25.088 C256.74,25.4640019 256.849999,25.753999 257.07,25.958 C257.290001,26.162001 257.551998,26.264 257.856,26.264 Z M262.584,23.108 L263.724,23.108 L263.832,23.996 L263.88,23.996 C264.160001,23.7159986 264.469998,23.474001 264.81,23.27 C265.150002,23.065999 265.547998,22.964 266.004,22.964 C266.684003,22.964 267.183998,23.1699979 267.504,23.582 C267.824002,23.9940021 267.984,24.5839962 267.984,25.352 L267.984,29 L266.592,29 L266.592,25.532 C266.592,25.0519976 266.510001,24.7020011 266.346,24.482 C266.181999,24.2619989 265.896002,24.152 265.488,24.152 C265.199999,24.152 264.944001,24.2199993 264.72,24.356 C264.495999,24.4920007 264.248001,24.6999986 263.976,24.98 L263.976,29 L262.584,29 L262.584,23.108 Z M269.808,27.824 L271.704,27.824 L271.704,22.328 L269.808,22.328 L269.808,21.152 L274.992,21.152 L274.992,22.328 L273.096,22.328 L273.096,27.824 L274.992,27.824 L274.992,29 L269.808,29 L269.808,27.824 Z M276.984,23.108 L278.124,23.108 L278.232,23.996 L278.28,23.996 C278.560001,23.7159986 278.869998,23.474001 279.21,23.27 C279.550002,23.065999 279.947998,22.964 280.404,22.964 C281.084003,22.964 281.583998,23.1699979 281.904,23.582 C282.224002,23.9940021 282.384,24.5839962 282.384,25.352 L282.384,29 L280.992,29 L280.992,25.532 C280.992,25.0519976 280.910001,24.7020011 280.746,24.482 C280.581999,24.2619989 280.296002,24.152 279.888,24.152 C279.599999,24.152 279.344001,24.2199993 279.12,24.356 C278.895999,24.4920007 278.648001,24.6999986 278.376,24.98 L278.376,29 L276.984,29 L276.984,23.108 Z M288.144,31.124 C287.335996,30.4519966 286.698002,29.6600046 286.23,28.748 C285.761998,27.8359954 285.528,26.8080057 285.528,25.664 C285.528,24.5199943 285.761998,23.4920046 286.23,22.58 C286.698002,21.6679954 287.335996,20.8760034 288.144,20.204 L288.912,20.84 C288.151996,21.5280034 287.596002,22.2599961 287.244,23.036 C286.891998,23.8120039 286.716,24.6879951 286.716,25.664 C286.716,26.6400049 286.891998,27.5159961 287.244,28.292 C287.596002,29.0680039 288.151996,29.7999966 288.912,30.488 L288.144,31.124 Z M291.888,30.488 C292.648004,29.7999966 293.203998,29.0680039 293.556,28.292 C293.908002,27.5159961 294.084,26.6400049 294.084,25.664 C294.084,24.6879951 293.908002,23.8120039 293.556,23.036 C293.203998,22.2599961 292.648004,21.5280034 291.888,20.84 L292.656,20.204 C293.464004,20.8760034 294.101998,21.6679954 294.57,22.58 C295.038002,23.4920046 295.272,24.5199943 295.272,25.664 C295.272,26.8080057 295.038002,27.8359954 294.57,28.748 C294.101998,29.6600046 293.464004,30.4519966 292.656,31.124 L291.888,30.488 Z M60.984,39.528 L62.376,39.528 L62.376,41.712 L62.328,42.744 C62.5840013,42.5039988 62.8719984,42.3140007 63.192,42.174 C63.5120016,42.0339993 63.8319984,41.964 64.152,41.964 C64.5360019,41.964 64.8759985,42.0339993 65.172,42.174 C65.4680015,42.3140007 65.719999,42.5139987 65.928,42.774 C66.136001,43.0340013 66.2939995,43.3479982 66.402,43.716 C66.5100005,44.0840018 66.564,44.4959977 66.564,44.952 C66.564,45.4560025 66.4920007,45.905998 66.348,46.302 C66.2039993,46.698002 66.0100012,47.0319986 65.766,47.304 C65.5219988,47.5760014 65.2420016,47.7839993 64.926,47.928 C64.6099984,48.0720007 64.2840017,48.144 63.948,48.144 C63.6679986,48.144 63.3760015,48.0760007 63.072,47.94 C62.7679985,47.8039993 62.4880013,47.6080013 62.232,47.352 L62.196,47.352 L62.076,48 L60.984,48 L60.984,39.528 Z M62.376,46.464 C62.5920011,46.664001 62.8159988,46.8039996 63.048,46.884 C63.2800012,46.9640004 63.4879991,47.004 63.672,47.004 C64.0880021,47.004 64.4359986,46.8340017 64.716,46.494 C64.9960014,46.1539983 65.136,45.6480034 65.136,44.976 C65.136,44.383997 65.0280011,43.9240016 64.812,43.596 C64.5959989,43.2679984 64.2480024,43.104 63.768,43.104 C63.5439989,43.104 63.3160012,43.1599994 63.084,43.272 C62.8519988,43.3840006 62.6160012,43.5639988 62.376,43.812 L62.376,46.464 Z M68.052,39.528 L71.292,39.528 L71.292,45.924 C71.292,46.324002 71.391999,46.6059992 71.592,46.77 C71.792001,46.9340008 72.0439985,47.016 72.348,47.016 C72.6360014,47.016 72.9719981,46.9400008 73.356,46.788 L73.68,47.808 C73.3999986,47.9040005 73.1380012,47.9839997 72.894,48.048 C72.6499988,48.1120003 72.3560017,48.144 72.012,48.144 C71.3159965,48.144 70.7920018,47.944002 70.44,47.544 C70.0879982,47.143998 69.912,46.5800036 69.912,45.852 L69.912,40.62 L68.052,40.62 L68.052,39.528 Z M75.036,45.06 C75.036,44.5719976 75.1179992,44.1360019 75.282,43.752 C75.4460008,43.3679981 75.6639986,43.0440013 75.936,42.78 C76.2080014,42.5159987 76.5239982,42.3140007 76.884,42.174 C77.2440018,42.0339993 77.6159981,41.964 78,41.964 C78.3840019,41.964 78.7559982,42.0339993 79.116,42.174 C79.4760018,42.3140007 79.7919986,42.5159987 80.064,42.78 C80.3360014,43.0440013 80.5539992,43.3679981 80.718,43.752 C80.8820008,44.1360019 80.964,44.5719976 80.964,45.06 C80.964,45.5480024 80.8820008,45.9839981 80.718,46.368 C80.5539992,46.7520019 80.3360014,47.0759987 80.064,47.34 C79.7919986,47.6040013 79.4760018,47.8039993 79.116,47.94 C78.7559982,48.0760007 78.3840019,48.144 78,48.144 C77.6159981,48.144 77.2440018,48.0760007 76.884,47.94 C76.5239982,47.8039993 76.2080014,47.6040013 75.936,47.34 C75.6639986,47.0759987 75.4460008,46.7520019 75.282,46.368 C75.1179992,45.9839981 75.036,45.5480024 75.036,45.06 Z M76.464,45.06 C76.464,45.652003 76.5999986,46.1259982 76.872,46.482 C77.1440014,46.8380018 77.5199976,47.016 78,47.016 C78.4800024,47.016 78.8559986,46.8380018 79.128,46.482 C79.4000014,46.1259982 79.536,45.652003 79.536,45.06 C79.536,44.459997 79.4000014,43.9820018 79.128,43.626 C78.8559986,43.2699982 78.4800024,43.092 78,43.092 C77.5199976,43.092 77.1440014,43.2699982 76.872,43.626 C76.5999986,43.9820018 76.464,44.459997 76.464,45.06 Z M82.476,45.06 C82.476,44.5719976 82.5659991,44.1360019 82.746,43.752 C82.9260009,43.3679981 83.1679985,43.0440013 83.472,42.78 C83.7760015,42.5159987 84.131998,42.3140007 84.54,42.174 C84.948002,42.0339993 85.3759978,41.964 85.824,41.964 C86.3040024,41.964 86.7259982,42.0439992 87.09,42.204 C87.4540018,42.3640008 87.7599988,42.5599988 88.008,42.792 L87.348,43.656 C87.1159988,43.4719991 86.8820012,43.3320005 86.646,43.236 C86.4099988,43.1399995 86.1600013,43.092 85.896,43.092 C85.303997,43.092 84.8240018,43.2699982 84.456,43.626 C84.0879982,43.9820018 83.904,44.459997 83.904,45.06 C83.904,45.3560015 83.9519995,45.6239988 84.048,45.864 C84.1440005,46.1040012 84.2779991,46.3099991 84.45,46.482 C84.6220009,46.6540009 84.8279988,46.7859995 85.068,46.878 C85.3080012,46.9700005 85.5719986,47.016 85.86,47.016 C86.1960017,47.016 86.5019986,46.9520006 86.778,46.824 C87.0540014,46.6959994 87.3079988,46.5440009 87.54,46.368 L88.116,47.256 C87.7799983,47.5520015 87.4040021,47.7739993 86.988,47.922 C86.5719979,48.0700007 86.1520021,48.144 85.728,48.144 C85.2639977,48.144 84.834002,48.0760007 84.438,47.94 C84.041998,47.8039993 83.6980015,47.6040013 83.406,47.34 C83.1139985,47.0759987 82.8860008,46.7520019 82.722,46.368 C82.5579992,45.9839981 82.476,45.5480024 82.476,45.06 Z M89.88,39.528 L91.272,39.528 L91.272,44.832 L91.32,44.832 L93.972,42.108 L95.508,42.108 L93.228,44.484 L95.76,48 L94.248,48 L92.4,45.336 L91.272,46.464 L91.272,48 L89.88,48 L89.88,39.528 Z M97.392,46.356 C97.7280017,46.5880012 98.0779982,46.7699993 98.442,46.902 C98.8060018,47.0340007 99.2159977,47.1 99.672,47.1 C100.136002,47.1 100.475999,47.0340007 100.692,46.902 C100.908001,46.7699993 101.016,46.600001 101.016,46.392 C101.016,46.183999 100.876001,46.0100007 100.596,45.87 C100.315999,45.7299993 99.876003,45.5800008 99.276,45.42 C98.9959986,45.3479996 98.7240013,45.2600005 98.46,45.156 C98.1959987,45.0519995 97.964001,44.9320007 97.764,44.796 C97.563999,44.6599993 97.4040006,44.5040009 97.284,44.328 C97.1639994,44.1519991 97.104,43.9520011 97.104,43.728 C97.104,43.2079974 97.3279978,42.7840016 97.776,42.456 C98.2240022,42.1279984 98.8679958,41.964 99.708,41.964 C100.188002,41.964 100.639998,42.0439992 101.064,42.204 C101.488002,42.3640008 101.851998,42.543999 102.156,42.744 L101.52,43.596 C101.255999,43.4199991 100.974001,43.2780005 100.674,43.17 C100.373998,43.0619995 100.056002,43.008 99.72,43.008 C99.2639977,43.008 98.9440009,43.0699994 98.76,43.194 C98.5759991,43.3180006 98.484,43.4719991 98.484,43.656 C98.484,43.7600005 98.5259996,43.8539996 98.61,43.938 C98.6940004,44.0220004 98.8099993,44.0979997 98.958,44.166 C99.1060007,44.2340003 99.279999,44.2999997 99.48,44.364 C99.680001,44.4280003 99.8999988,44.4879997 100.14,44.544 C100.484002,44.6320004 100.793999,44.7299995 101.07,44.838 C101.346001,44.9460005 101.581999,45.0679993 101.778,45.204 C101.974001,45.3400007 102.125999,45.4999991 102.234,45.684 C102.342001,45.8680009 102.396,46.0799988 102.396,46.32 C102.396,46.5760013 102.336001,46.8139989 102.216,47.034 C102.095999,47.2540011 101.920001,47.4459992 101.688,47.61 C101.455999,47.7740008 101.168002,47.9039995 100.824,48 C100.479998,48.0960005 100.084002,48.144 99.636,48.144 C99.0839972,48.144 98.5560025,48.0560009 98.052,47.88 C97.5479975,47.7039991 97.1120018,47.4880013 96.744,47.232 L97.392,46.356 Z M105.48,43.2 L103.908,43.2 L103.908,42.168 L105.54,42.108 L105.72,40.5 L106.86,40.5 L106.86,42.108 L109.548,42.108 L109.548,43.2 L106.86,43.2 L106.86,45.624 C106.86,46.1120024 106.959999,46.4699989 107.16,46.698 C107.360001,46.9260011 107.711997,47.04 108.216,47.04 C108.472001,47.04 108.703999,47.0180002 108.912,46.974 C109.120001,46.9299998 109.319999,46.8720004 109.512,46.8 L109.776,47.808 C109.511999,47.8960004 109.220002,47.9739997 108.9,48.042 C108.579998,48.1100003 108.240002,48.144 107.88,48.144 C107.431998,48.144 107.056002,48.0840006 106.752,47.964 C106.447998,47.8439994 106.202001,47.6740011 106.014,47.454 C105.825999,47.2339989 105.69,46.9680016 105.606,46.656 C105.522,46.3439984 105.48,46.0000019 105.48,45.624 L105.48,43.2 Z M111.252,46.416 C111.252,46.0879984 111.327999,45.7980013 111.48,45.546 C111.632001,45.2939987 111.871998,45.0800009 112.2,44.904 C112.528002,44.7279991 112.947997,44.5840006 113.46,44.472 C113.972003,44.3599994 114.591996,44.2800002 115.32,44.232 C115.296,43.8959983 115.176001,43.6200011 114.96,43.404 C114.743999,43.1879989 114.396002,43.08 113.916,43.08 C113.579998,43.08 113.250002,43.1419994 112.926,43.266 C112.601998,43.3900006 112.288002,43.5359992 111.984,43.704 L111.48,42.78 C111.840002,42.571999 112.251998,42.3840008 112.716,42.216 C113.180002,42.0479992 113.663997,41.964 114.168,41.964 C114.992004,41.964 115.619998,42.1819978 116.052,42.618 C116.484002,43.0540022 116.7,43.6839959 116.7,44.508 L116.7,48 L115.572,48 L115.464,47.268 L115.428,47.268 C115.115998,47.5080012 114.770002,47.7139991 114.39,47.886 C114.009998,48.0580009 113.620002,48.144 113.22,48.144 C112.931999,48.144 112.668001,48.1020004 112.428,48.018 C112.187999,47.9339996 111.980001,47.8160008 111.804,47.664 C111.627999,47.5119992 111.492,47.3300011 111.396,47.118 C111.3,46.9059989 111.252,46.6720013 111.252,46.416 Z M112.584,46.308 C112.584,46.5720013 112.685999,46.7639994 112.89,46.884 C113.094001,47.0040006 113.343999,47.064 113.64,47.064 C113.936001,47.064 114.221999,46.9980007 114.498,46.866 C114.774001,46.7339993 115.047999,46.5600011 115.32,46.344 L115.32,45.096 C114.791997,45.1360002 114.352002,45.1899997 114,45.258 C113.647998,45.3260003 113.368001,45.4119995 113.16,45.516 C112.951999,45.6200005 112.804,45.7379993 112.716,45.87 C112.628,46.0020007 112.584,46.1479992 112.584,46.308 Z M118.476,45.06 C118.476,44.5719976 118.565999,44.1360019 118.746,43.752 C118.926001,43.3679981 119.167998,43.0440013 119.472,42.78 C119.776002,42.5159987 120.131998,42.3140007 120.54,42.174 C120.948002,42.0339993 121.375998,41.964 121.824,41.964 C122.304002,41.964 122.725998,42.0439992 123.09,42.204 C123.454002,42.3640008 123.759999,42.5599988 124.008,42.792 L123.348,43.656 C123.115999,43.4719991 122.882001,43.3320005 122.646,43.236 C122.409999,43.1399995 122.160001,43.092 121.896,43.092 C121.303997,43.092 120.824002,43.2699982 120.456,43.626 C120.087998,43.9820018 119.904,44.459997 119.904,45.06 C119.904,45.3560015 119.952,45.6239988 120.048,45.864 C120.144,46.1040012 120.277999,46.3099991 120.45,46.482 C120.622001,46.6540009 120.827999,46.7859995 121.068,46.878 C121.308001,46.9700005 121.571999,47.016 121.86,47.016 C122.196002,47.016 122.501999,46.9520006 122.778,46.824 C123.054001,46.6959994 123.307999,46.5440009 123.54,46.368 L124.116,47.256 C123.779998,47.5520015 123.404002,47.7739993 122.988,47.922 C122.571998,48.0700007 122.152002,48.144 121.728,48.144 C121.263998,48.144 120.834002,48.0760007 120.438,47.94 C120.041998,47.8039993 119.698001,47.6040013 119.406,47.34 C119.113999,47.0759987 118.886001,46.7520019 118.722,46.368 C118.557999,45.9839981 118.476,45.5480024 118.476,45.06 Z M125.88,39.528 L127.272,39.528 L127.272,44.832 L127.32,44.832 L129.972,42.108 L131.508,42.108 L129.228,44.484 L131.76,48 L130.248,48 L128.4,45.336 L127.272,46.464 L127.272,48 L125.88,48 L125.88,39.528 Z M140.592,46.356 C140.928002,46.5880012 141.277998,46.7699993 141.642,46.902 C142.006002,47.0340007 142.415998,47.1 142.872,47.1 C143.336002,47.1 143.675999,47.0340007 143.892,46.902 C144.108001,46.7699993 144.216,46.600001 144.216,46.392 C144.216,46.183999 144.076001,46.0100007 143.796,45.87 C143.515999,45.7299993 143.076003,45.5800008 142.476,45.42 C142.195999,45.3479996 141.924001,45.2600005 141.66,45.156 C141.395999,45.0519995 141.164001,44.9320007 140.964,44.796 C140.763999,44.6599993 140.604001,44.5040009 140.484,44.328 C140.363999,44.1519991 140.304,43.9520011 140.304,43.728 C140.304,43.2079974 140.527998,42.7840016 140.976,42.456 C141.424002,42.1279984 142.067996,41.964 142.908,41.964 C143.388002,41.964 143.839998,42.0439992 144.264,42.204 C144.688002,42.3640008 145.051998,42.543999 145.356,42.744 L144.72,43.596 C144.455999,43.4199991 144.174002,43.2780005 143.874,43.17 C143.573999,43.0619995 143.256002,43.008 142.92,43.008 C142.463998,43.008 142.144001,43.0699994 141.96,43.194 C141.775999,43.3180006 141.684,43.4719991 141.684,43.656 C141.684,43.7600005 141.726,43.8539996 141.81,43.938 C141.894,44.0220004 142.009999,44.0979997 142.158,44.166 C142.306001,44.2340003 142.479999,44.2999997 142.68,44.364 C142.880001,44.4280003 143.099999,44.4879997 143.34,44.544 C143.684002,44.6320004 143.993999,44.7299995 144.27,44.838 C144.546001,44.9460005 144.781999,45.0679993 144.978,45.204 C145.174001,45.3400007 145.325999,45.4999991 145.434,45.684 C145.542001,45.8680009 145.596,46.0799988 145.596,46.32 C145.596,46.5760013 145.536001,46.8139989 145.416,47.034 C145.295999,47.2540011 145.120001,47.4459992 144.888,47.61 C144.655999,47.7740008 144.368002,47.9039995 144.024,48 C143.679998,48.0960005 143.284002,48.144 142.836,48.144 C142.283997,48.144 141.756003,48.0560009 141.252,47.88 C140.747997,47.7039991 140.312002,47.4880013 139.944,47.232 L140.592,46.356 Z M147.408,42.108 L151.344,42.108 L151.344,48 L149.964,48 L149.964,43.2 L147.408,43.2 L147.408,42.108 Z M150.552,41.076 C150.271999,41.076 150.038001,40.9920008 149.85,40.824 C149.661999,40.6559992 149.568,40.4320014 149.568,40.152 C149.568,39.8719986 149.661999,39.6460009 149.85,39.474 C150.038001,39.3019991 150.271999,39.216 150.552,39.216 C150.840001,39.216 151.075999,39.3019991 151.26,39.474 C151.444001,39.6460009 151.536,39.8719986 151.536,40.152 C151.536,40.4320014 151.444001,40.6559992 151.26,40.824 C151.075999,40.9920008 150.840001,41.076 150.552,41.076 Z M155.496,48.852 C155.496,49.1160013 155.641999,49.3239992 155.934,49.476 C156.226001,49.6280008 156.647997,49.704 157.2,49.704 C157.488001,49.704 157.747999,49.6780003 157.98,49.626 C158.212001,49.5739997 158.411999,49.5040004 158.58,49.416 C158.748001,49.3279996 158.876,49.2260006 158.964,49.11 C159.052,48.9939994 159.096,48.8720006 159.096,48.744 C159.096,48.5119988 158.996001,48.3580004 158.796,48.282 C158.595999,48.2059996 158.300002,48.168 157.908,48.168 L156.972,48.168 C156.779999,48.168 156.610001,48.1620001 156.462,48.15 C156.313999,48.1379999 156.184001,48.1120002 156.072,48.072 C155.863999,48.2000006 155.716,48.3279994 155.628,48.456 C155.54,48.5840006 155.496,48.7159993 155.496,48.852 Z M154.344,49.032 C154.344,48.7999988 154.423999,48.5760011 154.584,48.36 C154.744001,48.1439989 154.975998,47.9560008 155.28,47.796 L155.28,47.748 C155.119999,47.6599996 154.980001,47.5360008 154.86,47.376 C154.739999,47.2159992 154.68,47.0120012 154.68,46.764 C154.68,46.563999 154.743999,46.366001 154.872,46.17 C155.000001,45.973999 155.171999,45.8000008 155.388,45.648 L155.388,45.6 C155.179999,45.4559993 155.002001,45.2560013 154.854,45 C154.705999,44.7439987 154.632,44.4400018 154.632,44.088 C154.632,43.7519983 154.697999,43.4520013 154.83,43.188 C154.962001,42.9239987 155.137999,42.7020009 155.358,42.522 C155.578001,42.3419991 155.833999,42.2040005 156.126,42.108 C156.418001,42.0119995 156.727998,41.964 157.056,41.964 C157.408002,41.964 157.715999,42.0119995 157.98,42.108 L160.392,42.108 L160.392,43.128 L159.012,43.128 C159.116001,43.2480006 159.208,43.3939991 159.288,43.566 C159.368,43.7380009 159.408,43.927999 159.408,44.136 C159.408,44.4640016 159.348001,44.7519988 159.228,45 C159.107999,45.2480012 158.942001,45.4559992 158.73,45.624 C158.517999,45.7920008 158.268001,45.9179996 157.98,46.002 C157.691999,46.0860004 157.384002,46.128 157.056,46.128 C156.759999,46.128 156.460002,46.0760005 156.156,45.972 C155.915999,46.1240008 155.796,46.303999 155.796,46.512 C155.796,46.8880019 156.167996,47.076 156.912,47.076 L158.112,47.076 C158.880004,47.076 159.457998,47.1879989 159.846,47.412 C160.234002,47.6360011 160.428,48.0039974 160.428,48.516 C160.428,48.8040014 160.348001,49.0759987 160.188,49.332 C160.027999,49.5880013 159.802001,49.8099991 159.51,49.998 C159.217999,50.1860009 158.862002,50.3339995 158.442,50.442 C158.021998,50.5500005 157.552003,50.604 157.032,50.604 C156.623998,50.604 156.256002,50.5720003 155.928,50.508 C155.599998,50.4439997 155.318001,50.3460007 155.082,50.214 C154.845999,50.0819993 154.664001,49.918001 154.536,49.722 C154.407999,49.525999 154.344,49.2960013 154.344,49.032 Z M157.056,45.264 C157.360002,45.264 157.623999,45.162001 157.848,44.958 C158.072001,44.753999 158.184,44.4640019 158.184,44.088 C158.184,43.7279982 158.072001,43.4420011 157.848,43.23 C157.623999,43.0179989 157.360002,42.912 157.056,42.912 C156.751998,42.912 156.490001,43.0179989 156.27,43.23 C156.049999,43.4420011 155.94,43.7279982 155.94,44.088 C155.94,44.4640019 156.049999,44.753999 156.27,44.958 C156.490001,45.162001 156.751998,45.264 157.056,45.264 Z M161.784,42.108 L162.924,42.108 L163.032,42.996 L163.08,42.996 C163.360001,42.7159986 163.669998,42.474001 164.01,42.27 C164.350002,42.065999 164.747998,41.964 165.204,41.964 C165.884003,41.964 166.383998,42.1699979 166.704,42.582 C167.024002,42.9940021 167.184,43.5839962 167.184,44.352 L167.184,48 L165.792,48 L165.792,44.532 C165.792,44.0519976 165.710001,43.7020011 165.546,43.482 C165.381999,43.2619989 165.096002,43.152 164.688,43.152 C164.399999,43.152 164.144001,43.2199993 163.92,43.356 C163.695999,43.4920007 163.448001,43.6999986 163.176,43.98 L163.176,48 L161.784,48 L161.784,42.108 Z M168.864,40.152 L170.256,40.152 L170.256,45.108 C170.256,45.7560032 170.375999,46.2219986 170.616,46.506 C170.856001,46.7900014 171.187998,46.932 171.612,46.932 C172.044002,46.932 172.383999,46.7900014 172.632,46.506 C172.880001,46.2219986 173.004,45.7560032 173.004,45.108 L173.004,40.152 L174.336,40.152 L174.336,45 C174.336,46.0800054 174.100002,46.8739975 173.628,47.382 C173.155998,47.8900025 172.484004,48.144 171.612,48.144 C170.755996,48.144 170.084002,47.8880026 169.596,47.376 C169.107998,46.8639974 168.864,46.0720054 168.864,45 L168.864,40.152 Z M176.592,46.356 C176.928002,46.5880012 177.277998,46.7699993 177.642,46.902 C178.006002,47.0340007 178.415998,47.1 178.872,47.1 C179.336002,47.1 179.675999,47.0340007 179.892,46.902 C180.108001,46.7699993 180.216,46.600001 180.216,46.392 C180.216,46.183999 180.076001,46.0100007 179.796,45.87 C179.515999,45.7299993 179.076003,45.5800008 178.476,45.42 C178.195999,45.3479996 177.924001,45.2600005 177.66,45.156 C177.395999,45.0519995 177.164001,44.9320007 176.964,44.796 C176.763999,44.6599993 176.604001,44.5040009 176.484,44.328 C176.363999,44.1519991 176.304,43.9520011 176.304,43.728 C176.304,43.2079974 176.527998,42.7840016 176.976,42.456 C177.424002,42.1279984 178.067996,41.964 178.908,41.964 C179.388002,41.964 179.839998,42.0439992 180.264,42.204 C180.688002,42.3640008 181.051998,42.543999 181.356,42.744 L180.72,43.596 C180.455999,43.4199991 180.174002,43.2780005 179.874,43.17 C179.573999,43.0619995 179.256002,43.008 178.92,43.008 C178.463998,43.008 178.144001,43.0699994 177.96,43.194 C177.775999,43.3180006 177.684,43.4719991 177.684,43.656 C177.684,43.7600005 177.726,43.8539996 177.81,43.938 C177.894,44.0220004 178.009999,44.0979997 178.158,44.166 C178.306001,44.2340003 178.479999,44.2999997 178.68,44.364 C178.880001,44.4280003 179.099999,44.4879997 179.34,44.544 C179.684002,44.6320004 179.993999,44.7299995 180.27,44.838 C180.546001,44.9460005 180.781999,45.0679993 180.978,45.204 C181.174001,45.3400007 181.325999,45.4999991 181.434,45.684 C181.542001,45.8680009 181.596,46.0799988 181.596,46.32 C181.596,46.5760013 181.536001,46.8139989 181.416,47.034 C181.295999,47.2540011 181.120001,47.4459992 180.888,47.61 C180.655999,47.7740008 180.368002,47.9039995 180.024,48 C179.679998,48.0960005 179.284002,48.144 178.836,48.144 C178.283997,48.144 177.756003,48.0560009 177.252,47.88 C176.747997,47.7039991 176.312002,47.4880013 175.944,47.232 L176.592,46.356 Z M183.144,45.06 C183.144,44.5799976 183.229999,44.1480019 183.402,43.764 C183.574001,43.3799981 183.799999,43.0540013 184.08,42.786 C184.360001,42.5179987 184.681998,42.3140007 185.046,42.174 C185.410002,42.0339993 185.783998,41.964 186.168,41.964 C186.608002,41.964 186.997998,42.0339993 187.338,42.174 C187.678002,42.3140007 187.963999,42.5059988 188.196,42.75 C188.428001,42.9940012 188.603999,43.2879983 188.724,43.632 C188.844001,43.9760017 188.904,44.351998 188.904,44.76 C188.904,44.8960007 188.898,45.0239994 188.886,45.144 C188.874,45.2640006 188.86,45.3599996 188.844,45.432 L184.56,45.432 C184.608,45.9600026 184.815998,46.3659986 185.184,46.65 C185.552002,46.9340014 186.003997,47.076 186.54,47.076 C186.844002,47.076 187.127999,47.0340004 187.392,46.95 C187.656001,46.8659996 187.923999,46.7480008 188.196,46.596 L188.664,47.46 C188.343998,47.660001 187.988002,47.8239994 187.596,47.952 C187.203998,48.0800006 186.792002,48.144 186.36,48.144 C185.911998,48.144 185.492002,48.0740007 185.1,47.934 C184.707998,47.7939993 184.368001,47.5920013 184.08,47.328 C183.791999,47.0639987 183.564001,46.7420019 183.396,46.362 C183.227999,45.9819981 183.144,45.5480024 183.144,45.06 Z M187.632,44.496 C187.632,44.0399977 187.512001,43.6820013 187.272,43.422 C187.031999,43.1619987 186.676002,43.032 186.204,43.032 C185.803998,43.032 185.448002,43.1559988 185.136,43.404 C184.823998,43.6520012 184.628,44.0159976 184.548,44.496 L187.632,44.496 Z M191.16,42.108 L192.3,42.108 L192.42,43.44 L192.456,43.44 C192.760002,42.9599976 193.125998,42.5940013 193.554,42.342 C193.982002,42.0899987 194.451997,41.964 194.964,41.964 C195.204001,41.964 195.409999,41.9819998 195.582,42.018 C195.754001,42.0540002 195.927999,42.1159996 196.104,42.204 L195.816,43.368 C195.623999,43.3039997 195.454001,43.2580001 195.306,43.23 C195.157999,43.2019999 194.972001,43.188 194.748,43.188 C194.339998,43.188 193.948002,43.3039988 193.572,43.536 C193.195998,43.7680012 192.856002,44.1719971 192.552,44.748 L192.552,48 L191.16,48 L191.16,42.108 Z M197.808,46.824 L199.704,46.824 L199.704,41.328 L197.808,41.328 L197.808,40.152 L202.992,40.152 L202.992,41.328 L201.096,41.328 L201.096,46.824 L202.992,46.824 L202.992,48 L197.808,48 L197.808,46.824 Z M204.984,42.108 L206.124,42.108 L206.232,42.996 L206.28,42.996 C206.560001,42.7159986 206.869998,42.474001 207.21,42.27 C207.550002,42.065999 207.947998,41.964 208.404,41.964 C209.084003,41.964 209.583998,42.1699979 209.904,42.582 C210.224002,42.9940021 210.384,43.5839962 210.384,44.352 L210.384,48 L208.992,48 L208.992,44.532 C208.992,44.0519976 208.910001,43.7020011 208.746,43.482 C208.581999,43.2619989 208.296002,43.152 207.888,43.152 C207.599999,43.152 207.344001,43.2199993 207.12,43.356 C206.895999,43.4920007 206.648001,43.6999986 206.376,43.98 L206.376,48 L204.984,48 L204.984,42.108 Z M216.144,50.124 C215.335996,49.4519966 214.698002,48.6600046 214.23,47.748 C213.761998,46.8359954 213.528,45.8080057 213.528,44.664 C213.528,43.5199943 213.761998,42.4920046 214.23,41.58 C214.698002,40.6679954 215.335996,39.8760034 216.144,39.204 L216.912,39.84 C216.151996,40.5280034 215.596002,41.2599961 215.244,42.036 C214.891998,42.8120039 214.716,43.6879951 214.716,44.664 C214.716,45.6400049 214.891998,46.5159961 215.244,47.292 C215.596002,48.0680039 216.151996,48.7999966 216.912,49.488 L216.144,50.124 Z M248.688,49.488 C249.448004,48.7999966 250.003998,48.0680039 250.356,47.292 C250.708002,46.5159961 250.884,45.6400049 250.884,44.664 C250.884,43.6879951 250.708002,42.8120039 250.356,42.036 C250.003998,41.2599961 249.448004,40.5280034 248.688,39.84 L249.456,39.204 C250.264004,39.8760034 250.901998,40.6679954 251.37,41.58 C251.838002,42.4920046 252.072,43.5199943 252.072,44.664 C252.072,45.8080057 251.838002,46.8359954 251.37,47.748 C250.901998,48.6600046 250.264004,49.4519966 249.456,50.124 L248.688,49.488 Z M286.128,48.168 C286.128,47.9519989 286.134,47.7540009 286.146,47.574 C286.158,47.3939991 286.172,47.2200008 286.188,47.052 C286.204,46.8839992 286.218,46.7140009 286.23,46.542 C286.242,46.3699991 286.248,46.184001 286.248,45.984 C286.248,45.8799995 286.224,45.7740005 286.176,45.666 C286.128,45.5579995 286.040001,45.4620004 285.912,45.378 C285.783999,45.2939996 285.610001,45.2240003 285.39,45.168 C285.169999,45.1119997 284.892002,45.084 284.556,45.084 L284.556,44.244 C284.892002,44.244 285.169999,44.2160003 285.39,44.16 C285.610001,44.1039997 285.783999,44.0340004 285.912,43.95 C286.040001,43.8659996 286.128,43.7720005 286.176,43.668 C286.224,43.5639995 286.248,43.4560006 286.248,43.344 C286.248,42.9679981 286.228,42.6140017 286.188,42.282 C286.148,41.9499983 286.128,41.5760021 286.128,41.16 C286.128,40.8399984 286.172,40.5740011 286.26,40.362 C286.348,40.1499989 286.483999,39.9800006 286.668,39.852 C286.852001,39.7239994 287.083999,39.6340003 287.364,39.582 C287.644001,39.5299997 287.975998,39.504 288.36,39.504 L289.188,39.504 L289.188,40.26 L288.636,40.26 C288.355999,40.26 288.128001,40.2759998 287.952,40.308 C287.775999,40.3400002 287.638,40.3939996 287.538,40.47 C287.437999,40.5460004 287.37,40.6459994 287.334,40.77 C287.298,40.8940006 287.28,41.0439991 287.28,41.22 C287.28,41.5560017 287.29,41.8919983 287.31,42.228 C287.33,42.5640017 287.34,42.9159982 287.34,43.284 C287.34,43.7080021 287.256001,44.021999 287.088,44.226 C286.919999,44.430001 286.624002,44.5679996 286.2,44.64 L286.2,44.688 C286.624002,44.7600004 286.919999,44.897999 287.088,45.102 C287.256001,45.306001 287.34,45.6199979 287.34,46.044 C287.34,46.4280019 287.33,46.7799984 287.31,47.1 C287.29,47.4200016 287.28,47.7559982 287.28,48.108 C287.28,48.2920009 287.298,48.4439994 287.334,48.564 C287.37,48.6840006 287.437999,48.7819996 287.538,48.858 C287.638,48.9340004 287.775999,48.9879998 287.952,49.02 C288.128001,49.0520002 288.355999,49.068 288.636,49.068 L289.188,49.068 L289.188,49.824 L288.36,49.824 C287.975998,49.824 287.644001,49.7980003 287.364,49.746 C287.083999,49.6939997 286.852001,49.6040006 286.668,49.476 C286.483999,49.3479994 286.348,49.1780011 286.26,48.966 C286.172,48.7539989 286.128,48.4880016 286.128,48.168 Z M292.176,49.068 C292.448001,49.068 292.671999,49.0520002 292.848,49.02 C293.024001,48.9879998 293.163999,48.9340004 293.268,48.858 C293.372001,48.7819996 293.442,48.6840006 293.478,48.564 C293.514,48.4439994 293.532,48.2920009 293.532,48.108 C293.532,47.7559982 293.522,47.4200016 293.502,47.1 C293.482,46.7799984 293.472,46.4280019 293.472,46.044 C293.472,45.6199979 293.553999,45.306001 293.718,45.102 C293.882001,44.897999 294.179998,44.7600004 294.612,44.688 L294.612,44.64 C294.179998,44.5679996 293.882001,44.430001 293.718,44.226 C293.553999,44.021999 293.472,43.7080021 293.472,43.284 C293.472,42.9159982 293.482,42.5640017 293.502,42.228 C293.522,41.8919983 293.532,41.5560017 293.532,41.22 C293.532,41.0439991 293.514,40.8940006 293.478,40.77 C293.442,40.6459994 293.372001,40.5460004 293.268,40.47 C293.163999,40.3939996 293.024001,40.3400002 292.848,40.308 C292.671999,40.2759998 292.448001,40.26 292.176,40.26 L291.624,40.26 L291.624,39.504 L292.452,39.504 C292.836002,39.504 293.165999,39.5299997 293.442,39.582 C293.718001,39.6340003 293.947999,39.7239994 294.132,39.852 C294.316001,39.9800006 294.452,40.1499989 294.54,40.362 C294.628,40.5740011 294.672,40.8399984 294.672,41.16 C294.672,41.5760021 294.652,41.9499983 294.612,42.282 C294.572,42.6140017 294.552,42.9679981 294.552,43.344 C294.552,43.4560006 294.576,43.5639995 294.624,43.668 C294.672,43.7720005 294.759999,43.8659996 294.888,43.95 C295.016001,44.0340004 295.189999,44.1039997 295.41,44.16 C295.630001,44.2160003 295.907998,44.244 296.244,44.244 L296.244,45.084 C295.907998,45.084 295.630001,45.1119997 295.41,45.168 C295.189999,45.2240003 295.016001,45.2939996 294.888,45.378 C294.759999,45.4620004 294.672,45.5579995 294.624,45.666 C294.576,45.7740005 294.552,45.8799995 294.552,45.984 C294.552,46.184001 294.558,46.3699991 294.57,46.542 C294.582,46.7140009 294.596,46.8839992 294.612,47.052 C294.628,47.2200008 294.642,47.3939991 294.654,47.574 C294.666,47.7540009 294.672,47.9519989 294.672,48.168 C294.672,48.4880016 294.628,48.7539989 294.54,48.966 C294.452,49.1780011 294.316001,49.3479994 294.132,49.476 C293.947999,49.6040006 293.718001,49.6939997 293.442,49.746 C293.165999,49.7980003 292.836002,49.824 292.452,49.824 L291.624,49.824 L291.624,49.068 L292.176,49.068 Z M299.088,49.488 C299.848004,48.7999966 300.403998,48.0680039 300.756,47.292 C301.108002,46.5159961 301.284,45.6400049 301.284,44.664 C301.284,43.6879951 301.108002,42.8120039 300.756,42.036 C300.403998,41.2599961 299.848004,40.5280034 299.088,39.84 L299.856,39.204 C300.664004,39.8760034 301.301998,40.6679954 301.77,41.58 C302.238002,42.4920046 302.472,43.5199943 302.472,44.664 C302.472,45.8080057 302.238002,46.8359954 301.77,47.748 C301.301998,48.6600046 300.664004,49.4519966 299.856,50.124 L299.088,49.488 Z" id="blockstack-redirectU" fill="#2C96FF" mask="url(#mask-2)"></path>
                <path d="M134.412,27.932 C134.412,27.5799982 134.523999,27.2900011 134.748,27.062 C134.972001,26.8339989 135.255998,26.72 135.6,26.72 C135.944002,26.72 136.227999,26.8339989 136.452,27.062 C136.676001,27.2900011 136.788,27.5799982 136.788,27.932 C136.788,28.2840018 136.676001,28.5739989 136.452,28.802 C136.227999,29.0300011 135.944002,29.144 135.6,29.144 C135.255998,29.144 134.972001,29.0300011 134.748,28.802 C134.523999,28.5739989 134.412,28.2840018 134.412,27.932 Z M134.412,46.932 C134.412,46.5799982 134.523999,46.2900011 134.748,46.062 C134.972001,45.8339989 135.255998,45.72 135.6,45.72 C135.944002,45.72 136.227999,45.8339989 136.452,46.062 C136.676001,46.2900011 136.788,46.5799982 136.788,46.932 C136.788,47.2840018 136.676001,47.5739989 136.452,47.802 C136.227999,48.0300011 135.944002,48.144 135.6,48.144 C135.255998,48.144 134.972001,48.0300011 134.748,47.802 C134.523999,47.5739989 134.412,47.2840018 134.412,46.932 Z M224.58,48 L223.452,48 L223.344,47.064 L223.296,47.064 C223.015999,47.3920016 222.708002,47.653999 222.372,47.85 C222.035998,48.046001 221.648002,48.144 221.208,48.144 C220.519997,48.144 220.020002,47.9380021 219.708,47.526 C219.395998,47.1139979 219.24,46.5240038 219.24,45.756 L219.24,42.108 L220.62,42.108 L220.62,45.576 C220.62,46.0560024 220.701999,46.4059989 220.866,46.626 C221.030001,46.8460011 221.315998,46.956 221.724,46.956 C222.004001,46.956 222.253999,46.8920006 222.474,46.764 C222.694001,46.6359994 222.935999,46.4080016 223.2,46.08 L223.2,42.108 L224.58,42.108 L224.58,48 Z M226.992,46.356 C227.328002,46.5880012 227.677998,46.7699993 228.042,46.902 C228.406002,47.0340007 228.815998,47.1 229.272,47.1 C229.736002,47.1 230.075999,47.0340007 230.292,46.902 C230.508001,46.7699993 230.616,46.600001 230.616,46.392 C230.616,46.183999 230.476001,46.0100007 230.196,45.87 C229.915999,45.7299993 229.476003,45.5800008 228.876,45.42 C228.595999,45.3479996 228.324001,45.2600005 228.06,45.156 C227.795999,45.0519995 227.564001,44.9320007 227.364,44.796 C227.163999,44.6599993 227.004001,44.5040009 226.884,44.328 C226.763999,44.1519991 226.704,43.9520011 226.704,43.728 C226.704,43.2079974 226.927998,42.7840016 227.376,42.456 C227.824002,42.1279984 228.467996,41.964 229.308,41.964 C229.788002,41.964 230.239998,42.0439992 230.664,42.204 C231.088002,42.3640008 231.451998,42.543999 231.756,42.744 L231.12,43.596 C230.855999,43.4199991 230.574001,43.2780005 230.274,43.17 C229.973998,43.0619995 229.656002,43.008 229.32,43.008 C228.863998,43.008 228.544001,43.0699994 228.36,43.194 C228.175999,43.3180006 228.084,43.4719991 228.084,43.656 C228.084,43.7600005 228.126,43.8539996 228.21,43.938 C228.294,44.0220004 228.409999,44.0979997 228.558,44.166 C228.706001,44.2340003 228.879999,44.2999997 229.08,44.364 C229.280001,44.4280003 229.499999,44.4879997 229.74,44.544 C230.084002,44.6320004 230.393999,44.7299995 230.67,44.838 C230.946001,44.9460005 231.181999,45.0679993 231.378,45.204 C231.574001,45.3400007 231.725999,45.4999991 231.834,45.684 C231.942001,45.8680009 231.996,46.0799988 231.996,46.32 C231.996,46.5760013 231.936001,46.8139989 231.816,47.034 C231.695999,47.2540011 231.520001,47.4459992 231.288,47.61 C231.055999,47.7740008 230.768002,47.9039995 230.424,48 C230.079998,48.0960005 229.684002,48.144 229.236,48.144 C228.683997,48.144 228.156003,48.0560009 227.652,47.88 C227.147997,47.7039991 226.712002,47.4880013 226.344,47.232 L226.992,46.356 Z M233.544,45.06 C233.544,44.5799976 233.629999,44.1480019 233.802,43.764 C233.974001,43.3799981 234.199999,43.0540013 234.48,42.786 C234.760001,42.5179987 235.081998,42.3140007 235.446,42.174 C235.810002,42.0339993 236.183998,41.964 236.568,41.964 C237.008002,41.964 237.397998,42.0339993 237.738,42.174 C238.078002,42.3140007 238.363999,42.5059988 238.596,42.75 C238.828001,42.9940012 239.003999,43.2879983 239.124,43.632 C239.244001,43.9760017 239.304,44.351998 239.304,44.76 C239.304,44.8960007 239.298,45.0239994 239.286,45.144 C239.274,45.2640006 239.26,45.3599996 239.244,45.432 L234.96,45.432 C235.008,45.9600026 235.215998,46.3659986 235.584,46.65 C235.952002,46.9340014 236.403997,47.076 236.94,47.076 C237.244002,47.076 237.527999,47.0340004 237.792,46.95 C238.056001,46.8659996 238.323999,46.7480008 238.596,46.596 L239.064,47.46 C238.743998,47.660001 238.388002,47.8239994 237.996,47.952 C237.603998,48.0800006 237.192002,48.144 236.76,48.144 C236.311998,48.144 235.892002,48.0740007 235.5,47.934 C235.107998,47.7939993 234.768001,47.5920013 234.48,47.328 C234.191999,47.0639987 233.964001,46.7420019 233.796,46.362 C233.627999,45.9819981 233.544,45.5480024 233.544,45.06 Z M238.032,44.496 C238.032,44.0399977 237.912001,43.6820013 237.672,43.422 C237.431999,43.1619987 237.076002,43.032 236.604,43.032 C236.203998,43.032 235.848002,43.1559988 235.536,43.404 C235.223998,43.6520012 235.028,44.0159976 234.948,44.496 L238.032,44.496 Z M241.56,42.108 L242.7,42.108 L242.82,43.44 L242.856,43.44 C243.160002,42.9599976 243.525998,42.5940013 243.954,42.342 C244.382002,42.0899987 244.851997,41.964 245.364,41.964 C245.604001,41.964 245.809999,41.9819998 245.982,42.018 C246.154001,42.0540002 246.327999,42.1159996 246.504,42.204 L246.216,43.368 C246.023999,43.3039997 245.854001,43.2580001 245.706,43.23 C245.557999,43.2019999 245.372001,43.188 245.148,43.188 C244.739998,43.188 244.348002,43.3039988 243.972,43.536 C243.595998,43.7680012 243.256002,44.1719971 242.952,44.748 L242.952,48 L241.56,48 L241.56,42.108 Z M262.536,42.192 L267.864,42.192 L267.864,43.2 L262.536,43.2 L262.536,42.192 Z M262.536,44.868 L267.864,44.868 L267.864,45.876 L262.536,45.876 L262.536,44.868 Z M274.584,44.508 L270.024,47.532 L270.024,46.248 L273.42,44.04 L273.42,43.992 L270.024,41.784 L270.024,40.5 L274.584,43.524 L274.584,44.508 Z" id=".-.-user-=&gt;" fill="#E91E63" mask="url(#mask-2)"></path>
            </g>
        </g>
    </g>
</svg>