<svg xmlns="http://www.w3.org/2000/svg" viewBox="-245 217 300 180" enable-background="new -245 217 300 180"><path fill="#831CA8" d="M2.9 300.5c.7 1.2 2 2 3.4 2 2.2 0 4-1.8 4-4s-1.8-4-4-4c-2.1 0-3.8 1.6-4 3.7l-20.2 4.5c-.4-.6-.9-1.1-1.5-1.5l6.2-32.6c2-.2 3.5-1.9 3.5-4 0-2.2-1.8-4-4-4s-4 1.8-4 4c0 1.5.9 2.8 2.1 3.5l-6.2 32.6c-.8.1-1.6.5-2.2 1l-43.8-25.2c.1-.3.1-.6.1-.8 0-.4-.1-.9-.2-1.3l16.3-12.1c.7.5 1.5.8 2.3.8 2.2 0 4-1.8 4-4s-1.8-4-4-4-4 1.8-4 4c0 .4.1.9.2 1.3l-16.3 12.1c-.7-.5-1.5-.8-2.3-.8h-.3l-7.2-17.8c.9-.7 1.5-1.8 1.5-3.1 0-2.2-1.8-4-4-4s-4 1.8-4 4 1.8 4 4 4h.3l7.2 17.8c-.5.4-.8.8-1.1 1.4l-47.7-6c-.1-.7-.5-1.4-.9-1.9l6.4-10.7c.3.1.6.1.9.1 2.2 0 4-1.8 4-4s-1.8-4-4-4-4 1.8-4 4c0 1 .4 1.9 1 2.6l-6.4 10.7c-.3-.1-.6-.1-.9-.1-1.5 0-2.8.8-3.5 2l-33-7.3c-.2-2-1.9-3.6-4-3.6-2.2 0-4 1.8-4 4s1.8 4 4 4c1.5 0 2.8-.8 3.5-2l33 7.3c.1 1.1.6 2 1.3 2.6l-12.5 28.9h-.4c-2.2 0-4 1.8-4 4s1.8 4 4 4c.7 0 1.4-.2 1.9-.5l15.2 14.1c-.1.2-.1.3-.2.5l-47 .3c-.4-1.1-1.2-2-2.3-2.5l1.8-23.5c1.8-.4 3.1-2 3.1-3.9 0-2.2-1.8-4-4-4s-4 1.8-4 4c0 1.7 1 3.1 2.5 3.7l-1.8 23.5c-.8.2-1.6.7-2.1 1.3l-17.2-7.4v-.4c0-2.2-1.8-4-4-4s-4 1.8-4 4 1.8 4 4 4c1.2 0 2.3-.5 3-1.4l17.2 7.4v.4c0 .7.2 1.3.5 1.8l-12.6 12.6c-.6-.3-1.2-.5-1.8-.5-2.2 0-4 1.8-4 4s1.8 4 4 4 4-1.8 4-4c0-.7-.2-1.3-.5-1.8l12.6-12.6c.3.2.6.3.9.4l2.8 32.1c-1.4.6-2.5 2-2.5 3.7 0 2.2 1.8 4 4 4s4-1.8 4-4c0-1.9-1.3-3.5-3.1-3.9l-2.8-32.1c1.1-.5 1.9-1.4 2.3-2.5l47-.3c.2.5.4.9.7 1.3l-16.9 25.8c-.3-.1-.7-.2-1.1-.2-2.2 0-4 1.8-4 4s1.8 4 4 4 4-1.8 4-4c0-1-.3-1.8-.9-2.5l16.9-25.8c.3.1.6.1.9.1l4.9 18.2c-1.1.7-1.8 2-1.8 3.4 0 2.2 1.8 4 4 4s4-1.8 4-4-1.7-3.9-3.8-4l-4.9-18.2c.5-.3.9-.8 1.3-1.3l41.3 9.4c.1.7.3 1.4.7 2L-91 356.8c-.4-.1-.9-.2-1.3-.2-2.2 0-4 1.8-4 4s1.8 4 4 4 4-1.8 4-4c0-.9-.3-1.7-.7-2.3l14.7-19.5c.4.1.9.2 1.3.2.8 0 1.6-.3 2.3-.7l21.3 16.7c-.2.4-.3.9-.3 1.4 0 2.2 1.8 4 4 4s4-1.8 4-4-1.8-4-4-4c-.8 0-1.6.3-2.3.7l-21.3-16.7c0-.1.1-.2.1-.4l29.7-1.7c.6 1.5 2 2.6 3.7 2.6 2.2 0 4-1.8 4-4 0-1.1-.5-2.1-1.2-2.8l11-21.5c.2 0 .4.1.6.1.7 0 1.3-.2 1.9-.5l19.1 18.5c-.3.5-.4 1.1-.4 1.8 0 2.2 1.8 4 4 4s4-1.8 4-4-1.8-4-4-4c-.7 0-1.3.2-1.9.5l-19.1-18.5c.2-.4.4-.9.4-1.4l20.3-4.6zm3.4-4.2c1.2 0 2.2 1 2.2 2.2s-1 2.2-2.2 2.2-2.2-1-2.2-2.2c0-1.3 1-2.2 2.2-2.2zm-20-33.9c1.2 0 2.2 1 2.2 2.2 0 1.2-1 2.2-2.2 2.2s-2.2-1-2.2-2.2c0-1.2 1-2.2 2.2-2.2zm-35.6-5.5c1.2 0 2.2 1 2.2 2.2 0 1.2-1 2.2-2.2 2.2s-2.2-1-2.2-2.2c0-1.2 1-2.2 2.2-2.2zm-32.5-3.9c-1.2 0-2.2-1-2.2-2.2s1-2.2 2.2-2.2 2.2 1 2.2 2.2-1 2.2-2.2 2.2zm-34.9-3.7c1.2 0 2.2 1 2.2 2.2s-1 2.2-2.2 2.2-2.2-1-2.2-2.2c0-1.2 1-2.2 2.2-2.2zm-50.8 12.7c-1.2 0-2.2-1-2.2-2.2 0-1.2 1-2.2 2.2-2.2s2.2 1 2.2 2.2c0 1.2-.9 2.2-2.2 2.2zm-33.1 54.2c-1.2 0-2.2-1-2.2-2.2s1-2.2 2.2-2.2c1.2 0 2.2 1 2.2 2.2s-1 2.2-2.2 2.2zm6.2 28.3c-1.2 0-2.2-1-2.2-2.2 0-1.2 1-2.2 2.2-2.2 1.2 0 2.2 1 2.2 2.2 0 1.2-1 2.2-2.2 2.2zm23.6 19.6c0 1.2-1 2.2-2.2 2.2s-2.2-1-2.2-2.2 1-2.2 2.2-2.2 2.2 1 2.2 2.2zm-5.4-70.8c0-1.2 1-2.2 2.2-2.2s2.2 1 2.2 2.2c0 1.2-1 2.2-2.2 2.2s-2.2-1-2.2-2.2zm-.2 33.3c-1.2 0-2.2-1-2.2-2.2 0-1.2 1-2.2 2.2-2.2 1.2 0 2.2 1 2.2 2.2 0 1.2-1 2.2-2.2 2.2zm33.5 31.7c-1.2 0-2.2-1-2.2-2.2s1-2.2 2.2-2.2c1.2 0 2.2 1 2.2 2.2 0 1.3-1 2.2-2.2 2.2zm28-10.9c1.2 0 2.2 1 2.2 2.2 0 1.2-1 2.2-2.2 2.2s-2.2-1-2.2-2.2c0-1.2.9-2.2 2.2-2.2zm22.4 15.4c-1.2 0-2.2-1-2.2-2.2s1-2.2 2.2-2.2 2.2 1 2.2 2.2-1 2.2-2.2 2.2zm46.6-8.5c1.2 0 2.2 1 2.2 2.2s-1 2.2-2.2 2.2-2.2-1-2.2-2.2c0-1.2 1-2.2 2.2-2.2zm-25.9-80.8c1.2 0 2.2 1 2.2 2.2 0 1.2-1 2.2-2.2 2.2s-2.2-1-2.2-2.2c0-1.3 1-2.2 2.2-2.2zm-55.2-7c1.2 0 2.2 1 2.2 2.2 0 1.2-1 2.2-2.2 2.2s-2.2-1-2.2-2.2c0-1.2 1-2.2 2.2-2.2zm-15.6 40.4c-1.2 0-2.2-1-2.2-2.2 0-1.2 1-2.2 2.2-2.2 1.2 0 2.2 1 2.2 2.2 0 1.2-1 2.2-2.2 2.2zm20.7 19.3c-1.2 0-2.2-1-2.2-2.2s1-2.2 2.2-2.2 2.2 1 2.2 2.2c0 1.2-.9 2.2-2.2 2.2zm1.8-5.8c-.5-.3-1.1-.4-1.8-.4s-1.4.2-1.9.5l-15.2-14.1c.2-.5.4-1.1.4-1.7 0-1.2-.5-2.3-1.4-3l12.5-28.9h.4c.6 0 1.2-.1 1.7-.4l23.5 25.5c-.3.6-.5 1.2-.5 2 0 .7.2 1.3.5 1.9l-18.2 18.6zm47 16.9c-1.2 0-2.2-1-2.2-2.2s1-2.2 2.2-2.2 2.2 1 2.2 2.2c0 1.2-1 2.2-2.2 2.2zm.6-6.2c-.2 0-.4-.1-.6-.1-1.5 0-2.7.8-3.4 2l-41.3-9.4c0-.5-.2-1.1-.5-1.5l18.2-18.7c.5.3 1.1.4 1.8.4 2.2 0 4-1.8 4-4s-1.8-4-4-4c-.6 0-1.2.1-1.7.4l-23.5-25.5c.1-.1.1-.2.2-.3l47.7 6c.4 1.9 2 3.3 3.9 3.3h.3l9.9 24c-.9.7-1.4 1.8-1.4 3.1 0 1.1.5 2.1 1.2 2.9l-10.8 21.4zm-28.1-31.3c0-1.2 1-2.2 2.2-2.2s2.2 1 2.2 2.2c0 1.2-1 2.2-2.2 2.2s-2.2-1-2.2-2.2zm64.8 35.4c-1.2 0-2.2-1-2.2-2.2s1-2.2 2.2-2.2 2.2 1 2.2 2.2-1 2.2-2.2 2.2zm.6-6.2c-.2 0-.4-.1-.6-.1-1.9 0-3.4 1.3-3.9 3l-29.7 1.7c-.2-.5-.5-1-.9-1.4l10.7-21.5c.2 0 .4.1.6.1 2.2 0 4-1.8 4-4s-1.8-4-4-4h-.3l-9.9-24 .1-.1 43.8 25.2c-.1.3-.1.6-.1.8 0 1.1.5 2.1 1.2 2.8l-11 21.5zm-26-22.3c0-1.2 1-2.2 2.2-2.2s2.2 1 2.2 2.2c0 1.2-1 2.2-2.2 2.2s-2.2-.9-2.2-2.2zm39.9.2c-1.2 0-2.2-1-2.2-2.2 0-1.2 1-2.2 2.2-2.2s2.2 1 2.2 2.2c0 1.2-1 2.2-2.2 2.2zm24.5 19.4c1.2 0 2.2 1 2.2 2.2s-1 2.2-2.2 2.2-2.2-1-2.2-2.2 1-2.2 2.2-2.2z"/></svg>