<svg xmlns="http://www.w3.org/2000/svg" viewBox="0 0 63.9 69.2" enable-background="new 0 0 63.9 69.2"><g fill="#0C9BD3"><path d="M12 57.6c.9 0 1.8-.1 2.7-.1v-2.2c-.9 0-1.8 0-2.7.1v2.2zM8.7 57.8c.9 0 1.8-.1 2.7-.1v-2.2c-.9 0-1.8.1-2.7.1v2.2zM5.3 58c.9-.1 1.8-.1 2.7-.2v-2.2c-.9 0-1.8.1-2.7.2V58zM32.3 58c.9.1 1.8.1 2.7.2V56c-.9-.1-1.8-.1-2.7-.2V58zM18.8 57.5h2.7v-2.2h-2.7v2.2zM15.4 57.5h2.7v-2.2h-2.7v2.2zM45.7 59.6c.9.1 1.8.3 2.7.4v-2.4c-.9-.1-1.8-.3-2.7-.4v2.4zM5.3 21.8c.9 0 1.8.1 2.7.1v-2.2c-.9 0-1.8-.1-2.7-.1v2.2zM12 22h2.7v-2.2c-.9 0-1.8 0-2.7-.1V22zM18.1 36.3h-2.7v2.2h2.7v-2.2zM12 38.4h2.7v-2.2H12v2.2zM52.4 60.8c.9.2 1.8.4 2.6.5v-2.5c-.9-.2-1.8-.3-2.6-.5v2.5zM55 7.9c-.9.2-1.8.4-2.6.5v2.5c.9-.2 1.8-.3 2.6-.5V7.9zM49 60.2c.9.2 1.8.3 2.6.5v-2.4c-.9-.2-1.8-.3-2.6-.4v2.3zM48.4 9.2c-.9.2-1.8.3-2.7.4V12c.9-.1 1.8-.3 2.7-.4V9.2zM51.7 8.6c-.9.2-1.8.3-2.6.5v2.4c.9-.1 1.8-.3 2.6-.4V8.6zM18.1 11.7h-2.7v2.2h2.7v-2.2zM21.5 11.7h-2.7v2.2h2.7v-2.2zM12 60.4c.9 0 1.8-.1 2.7-.1v-2.2c-.9 0-1.8 0-2.7.1v2.2zM18.8 60.2h2.7V58h-2.7v2.2zM45.7 62.6c.9.2 1.8.3 2.7.5v-2.4c-.9-.2-1.8-.3-2.7-.4v2.3zM32.3 60.8l2.7.3v-2.2c-.9-.1-1.8-.2-2.7-.2v2.1zM12 32.9h2.7v-2.2H12v2.2zM18.1 30.8h-2.7V33h2.7v-2.2zM55 4.7c-.9.2-1.8.4-2.6.6v2.5c.9-.2 1.8-.4 2.6-.5V4.7zM48.4 6.1c-.9.2-1.8.3-2.7.5V9c.9-.1 1.8-.3 2.7-.4V6.1zM21.5 9h-2.7v2.2h2.7V9zM18.1 25.3h-2.7v2.2h2.7v-2.2zM8.7 27.4h2.7v-2.2c-.9 0-1.8 0-2.7-.1v2.3zM5.3 16.2c.9.1 1.8.1 2.7.1v-2.2c-.9 0-1.8-.1-2.7-.2v2.3zM12 16.5c.9 0 1.8 0 2.7.1v-2.2c-.9 0-1.8 0-2.7-.1v2.2zM8.7 16.4c.9 0 1.8.1 2.7.1v-2.2c-.9 0-1.8-.1-2.7-.1v2.2zM8.7 19.1c.9 0 1.8.1 2.7.1V17H8.7v2.1zM8.7 52.3c.9 0 1.8-.1 2.7-.1V50c-.9 0-1.8.1-2.7.1v2.2zM12 52.1c.9 0 1.8 0 2.7-.1v-2.2c-.9 0-1.8 0-2.7.1v2.2zM8.7 41.2h2.7V39H8.7v2.2zM12 41.2h2.7V39H12v2.2zM5.3 41.3c.9 0 1.8 0 2.7-.1V39H5.3v2.3zM12 30.2h2.7V28H12v2.2zM8.7 49.5c.9 0 1.8-.1 2.7-.1v-2.2c-.9 0-1.8 0-2.7.1v2.2zM8.7 30.2h2.7V28H8.7v2.2zM5.3 30.1H8v-2.2c-.9 0-1.8 0-2.7-.1v2.3zM5.3 55.2c.9-.1 1.8-.1 2.7-.2v-2.2c-.9 0-1.8.1-2.7.1v2.3zM12 54.9c.9 0 1.8-.1 2.7-.1v-2.2c-.9 0-1.8 0-2.7.1v2.2zM8.7 44c.9 0 1.8 0 2.7-.1v-2.2H8.7V44zM18.1 41.7h-2.7v2.2h2.7v-2.2zM5.3 44.1C6.2 44 7.1 44 8 44v-2.2c-.9 0-1.8 0-2.7.1v2.2zM18.1 44.4h-2.7v2.2h2.7v-2.2zM8.7 46.7c.9 0 1.8 0 2.7-.1v-2.2c-.9 0-1.8 0-2.7.1v2.2zM12 46.7h2.7v-2.2H12v2.2zM28.9 63.6c.9.1 1.8.1 2.7.2v-2.5c-.9-.1-1.8-.1-2.7-.2v2.5zM18.1 6h-2.7v2.4h2.7V6zM49 66.6c.9.2 1.8.4 2.6.6v-2.8c-.9-.2-1.8-.4-2.6-.6v2.8zM21.5 5.9h-2.7v2.4h2.7V5.9zM25.6 63.4c.9 0 1.8.1 2.7.2v-2.5c-.9-.1-1.8-.1-2.7-.1v2.4zM22.2 63.3c.9 0 1.8.1 2.7.1v-2.5c-.9 0-1.8-.1-2.7-.1v2.5zM45.7 65.9c.9.2 1.8.4 2.7.5v-2.7c-.9-.2-1.8-.3-2.7-.5v2.7zM28.3 5.6c-.9.1-1.8.1-2.7.2v2.5c.9 0 1.8-.1 2.7-.1V5.6zM51.7 2c-.9.2-1.8.4-2.6.6v2.7c.9-.2 1.8-.4 2.6-.6V2zM48.4 2.8c-.9.2-1.8.4-2.7.5V6c.9-.2 1.8-.3 2.7-.5V2.8zM45 3.5c-.9.2-1.7.3-2.6.5v2.6c.9-.1 1.8-.3 2.6-.4V3.5zM38.4 4.6c-.9.1-1.8.2-2.7.4v2.5l2.7-.3V4.6zM5.3 24.6c.9 0 1.8.1 2.7.1v-2.2c-.9 0-1.8-.1-2.7-.1v2.2zM35 5l-2.7.3v2.5l2.7-.3V5zM31.6 5.4c-.9.1-1.8.2-2.7.2v2.5c.9-.1 1.8-.1 2.7-.2V5.4zM18.1 22.6h-2.7v2.2h2.7v-2.2zM12 24.7h2.7v-2.2H12v2.2zM18.8 63.2h2.7v-2.4h-2.7v2.4zM8.7 35.7h2.7v-2.2H8.7v2.2zM18.1 33.5h-2.7v2.2h2.7v-2.2zM35.7 64.3c.9.1 1.8.2 2.7.4v-2.6l-2.7-.3v2.5zM39.1 64.7c.9.1 1.8.3 2.7.4v-2.6c-.9-.1-1.8-.3-2.7-.4v2.6zM58.3 46.4v-.7c0-.9-.1-1.8-.3-2.6 0-.2-.1-.5-.2-.7-.1-.4-.3-.8-.4-1.2-.2-.5-.4-1-.7-1.4-.1-.2-.4-.6-.4-.6H55s-1.7-.1-2.6-.1v-3s-.4-.2-1.1-.4c-.7-.3-1.5-.5-2.3-.6-.2 0-.5-.1-.7-.1-.4-.1-.9-.2-1.3-.2v-1.9c.4-.1.9-.3 1.3-.5.2-.1.4-.2.7-.3.3-.1.7-.3 1-.4.6-.2 1.1-.5 1.6-.8.2-.1.5-.3.7-.5v-.1h.2c.2-.2.5-.3.7-.5.1 0 .1-.1.2-.2.6-.5 1.1-1.2 1.6-1.9.3-.4.5-.8.7-1.2 0-.1.1-.1.1-.2.4-.8.6-1.6.8-2.6 0-.2.1-.5.1-.7 0-.5.1-1 .1-1.5v-1.1c0-.2 0-.5-.1-.7-.1-.9-.3-1.7-.5-2.5v-.1c-.1-.2-.1-.4-.2-.6h-.2v-.3c-.2-.4-.4-.7-.7-1l-.9-.9-.3-.3c-.1-.1-.3-.2-.4-.3-.3-.2-.6-.4-1-.5-.2-.1-.4-.2-.7-.3-.7-.2-1.4-.4-2.2-.5-.1 0-.3 0-.5-.1H47.1c-.4 0-.9 0-1.4.1H45v-.6c-.9.1-1.7.2-2.6.3V9.8c.9-.1 1.7-.2 2.6-.4V6.5c-.9.1-1.7.3-2.6.4-.2 0-.5.1-.7.1-.9.1-1.8.3-2.7.4-.2 0-.5.1-.7.1l-2.7.3v5.6c-.2 0-.5 0-.7.1-.9.1-4.4.2-5.2.2v-2.3c.4 0 1.7 0 2.5-.1V8.1c-.2 0-.5 0-.7.1-.9.1-1.8.1-2.7.2h-.7c-.9.1-1.8.1-2.7.1h-.7c-.9 0-1.8.1-2.7.1v5.6h-6.8V17c.9 0 1.8.1 2.7.1v2.2c-.9 0-1.8 0-2.7-.1V22H18.6v9h2.6v2.2h-2.6V36.6h2.6v2.2h-2.6v9H15.2V53.5c.9 0 1.7 0 2.6-.1v2.1H22V61.1c.9 0 1.8.1 2.7.1h.7c.9 0 1.8.1 2.7.1H28.9v-2.1c.9.1 1.8.1 2.6.2V55.9h.7c.9.1 1.8.1 2.7.2.2 0 .5 0 .7.1V61.8l2.7.3c.2 0 .5.1.7.1.9.1 1.8.2 2.7.4.2 0 .5.1.7.1.9.1 1.8.3 2.6.4V57.3c.2 0 .5 0 .7.1.9.1 1.8.1 2.7.1h.7c.3 0 .6 0 .9-.1.6-.1 1.2-.2 1.7-.3.2-.1.5-.1.7-.2.6-.2 1.1-.4 1.6-.7.3-.2.6-.3.8-.5.1 0 .1-.1.2-.2.2-.2.5-.4.7-.6.5-.4.9-.9 1.2-1.5l.3-.6.3-.6c.2-.6.4-1.2.5-1.8 0-.2.1-.4.1-.7.1-.8.2-1.6.2-2.5v-.8zm-5.9-29c.9-.1 1.7-.2 2.6-.4v2.6c-.9.1-1.7.2-2.6.3v-2.5zm0 6.3c.9-.1 1.7-.2 2.6-.2v2.6c-.9.1-1.7.1-2.6.2v-2.6zm-26.8-6.8c.9 0 1.8-.1 2.7-.1V19c-.9 0-1.8.1-2.7.1v-2.2zm1.7 8.4v2.2h-2.7v-2.2h2.7zm-5.1-8.2c.9 0 1.8-.1 2.7-.1v2.2c-.9 0-1.8.1-2.7.1v-2.2zm-1.4 7.7v-2.2h2.7v2.2h-2.7zm.7 27.3c-.9 0-1.8 0-2.7.1V50c.9 0 1.8 0 2.7-.1v2.2zm2.7-5.5h-2.7v-2.2h2.7v2.2zm0-2.7h-2.7v-2.2h2.7v2.2zm0-8.2v-2.2h2.7v2.2h-2.7zm4.1 21.8h-2.7v-2.2h2.7v2.2zm2.2-26.8V20.6h1.8c.9 0 1.8-.1 2.7-.1h1.5c.7 0 1.3-.1 1.9-.1h1.9c.6 0 1.1.1 1.5.2.3.1.5.2.7.3.1 0 .1.1.2.1s.2.1.2.2l.6.6c.1.2.3.4.4.6.2.5.3 1 .3 1.7v.6c0 .9-.1 1.7-.4 2.3l-.3.6s0 .1-.1.1c-.3.5-.6.9-1 1.2-.2.2-.4.4-.7.5-.1.1-.2.1-.2.2l-.6.3c-.7.3-1.4.5-2.3.7h-.2c-.2 0-.3 0-.5.1-.6.1-1.4.1-2.2.2H35c-.4 0-.8 0-1.1.1-.5 0-1.1 0-1.6.1h-1.8v-.4zm4.6 21.7c-.9-.1-1.8-.1-2.7-.1v-2.2c.9 0 1.8.1 2.7.1v2.2zm6.7.5c-.9-.1-1.8-.1-2.7-.2v-2.2c.9.1 1.8.1 2.7.2v2.2zM45 47c-.1.2-.3.4-.5.6-.2.2-.5.4-.8.6 0 0-.1 0-.1.1-.3.1-.7.3-1.2.4-.2 0-.4.1-.7.1-.8.1-1.6.2-2.7.2h-.7c-.5 0-1 0-1.6-.1-.4 0-.7 0-1.1-.1h-.7c-.7 0-1.3-.1-2-.1h-2.5V38.3H35.5c.9 0 1.9.1 2.7.1.2 0 .5 0 .7.1h.2c.4 0 .7.1 1 .2.9.2 1.7.4 2.3.7.1 0 .1 0 .2.1.6.3 1.1.6 1.5 1.1.2.2.4.5.6.7 0 .1.1.1.1.2.4.8.6 1.7.6 2.9.3 1 0 1.9-.4 2.6zm10 2c-.9-.1-1.7-.2-2.6-.3v-2.5c.9.1 1.7.2 2.6.3V49z"/></g></svg>