<svg xmlns="http://www.w3.org/2000/svg" viewBox="0 0 162 73.3" enable-background="new 0 0 162 73.3"><path fill="#4C4F54" d="M1 63.8h7.9V38.7H1.1v-7.4H18v32.6h7.8v7.8L1 71.6v-7.8zM23.5 31.2h7.7V8.1l9-6.9v30h9.9v7.4h-9.9v18.2c0 7.7 4.1 6.9 10 6.9v7.7c-7.9 0-19 1.4-19-14.6V38.6h-7.7v-7.4zM134.3 31.2h7.7V8.1l9-6.9v30h9.9v7.4H151v18.2c0 7.7 4.1 6.9 10 6.9v7.7c-7.9 0-19 1.4-19-14.6V38.6h-7.7v-7.4zM63.9 63.8V8.9H55V1s27.5.1 29.5.1c16.9 0 22.8 8.9 22.8 18.2 0 7.5-4.3 12.8-9.7 15.2 7.5 2.4 13.1 8.7 13.1 17.4 0 8.4-4.9 19.6-26.9 19.6H54.9v-7.7h9zm19.7-32.6c10.2 0 13.7-5.3 13.7-11.3 0-7.3-4.1-11-15.2-11-1.8 0-8.5.1-8.5.1v22.2h10zm.2 32.6c12.3 0 16.8-4.6 16.8-12.5 0-6.3-4-12.6-16.4-12.6H73.7c0 1.5.1 25.1.1 25.1h10z"/><circle fill="#FCB931" cx="11.9" cy="12.3" r="6"/><path fill="#4C4F54" d="M112 63.8h7.8V38.7H112v-7.4h16.8v32.6h7.8v7.8h-24.7v-7.9z"/><circle fill="#FCB931" cx="122.8" cy="12.3" r="6"/></svg>