<svg xmlns="http://www.w3.org/2000/svg" viewBox="-334 292.2 92 29.8" enable-background="new -334 292.2 92 29.8"><style type="text/css">.st0{fill:#FFFFFF;}</style><g id="XMLID_2218_"><path id="XMLID_2239_" class="st0" d="M-330.4 313.1c.1-.7.2-1.6.2-2.4v-8c0-.2 0-.3-.2-.3l-.9-.3.2-1.3h3.4v4.5h.1c.7-.6 1.5-.9 2.5-.9 1.8 0 3.2 1.1 3.2 4.2 0 3.4-1.4 4.7-3.4 4.7-1.1 0-1.9-.5-2.4-1h-.1l-.1.8h-2.5zm2.6-2.3c.4.3.9.6 1.5.6 1.1 0 1.6-1 1.6-2.6 0-1.3-.4-2.4-1.5-2.4-.6 0-1.2.3-1.6.6v3.8z"/><path id="XMLID_2237_" class="st0" d="M-321.2 313.1v-1.3l.8-.1c.2 0 .3-.1.3-.3v-8.6c0-.2 0-.3-.2-.3l-.9-.3.2-1.3h3.4v10.6c0 .3 0 .3.3.3l.8.1v1.3h-4.7v-.1z"/><path id="XMLID_2234_" class="st0" d="M-315.8 309c0-2.7 1.4-4.5 4.4-4.5s4.2 1.8 4.2 4.3c0 2.8-1.4 4.6-4.4 4.6-3.1-.1-4.2-1.9-4.2-4.4zm6-.1c0-1.9-.6-2.6-1.6-2.6-1.1 0-1.8.7-1.8 2.6 0 2 .6 2.8 1.7 2.8 1.1-.1 1.7-.8 1.7-2.8z"/><path id="XMLID_2232_" class="st0" d="M-298.9 312.5c-.8.5-1.9.8-3.1.8-3 0-4.3-1.8-4.3-4.3 0-3.1 1.9-4.5 4.5-4.5 1.3 0 2.4.4 2.9.7v2.6l-1.7-.1-.2-1.1c0-.1 0-.2-.2-.3-.3-.1-.6-.1-.9-.1-1 0-1.8.7-1.8 2.6 0 2.1.9 2.7 2.1 2.7.8 0 1.6-.3 2-.5l.7 1.5z"/><path id="XMLID_2230_" class="st0" d="M-291.8 313.1l-2.1-4.2-.9 1v1.5c0 .3 0 .3.3.3l1 .1v1.3h-4.8v-1.3l.8-.1c.2 0 .3-.1.3-.3v-8.6c0-.2 0-.3-.2-.3l-.9-.3.2-1.3h3.4v7l3-3.2h2.3v1.3l-.8.2c-.2 0-.3.1-.4.2l-1.2 1.2 2.1 3.9c.1.2.2.3.5.3l.7.1v1.3h-3.3v-.1z"/><path id="XMLID_2228_" class="st0" d="M-283 307.2l-.2-.8c0-.1 0-.2-.2-.2-.2-.1-.6-.1-1-.1-.8 0-1.3.3-1.3.8 0 .7.9.8 1.9 1 1.3.3 2.7.8 2.7 2.7 0 2-1.6 2.8-3.7 2.8-1.5 0-2.9-.4-3.2-.6v-2.4l1.7.1.2.9c0 .1 0 .2.2.2.2.1.6.2 1.3.2.9 0 1.4-.2 1.4-.8 0-.7-.7-.8-1.5-1-1.4-.2-3.2-.5-3.2-2.7 0-2 1.7-2.9 3.6-2.9 1.3 0 2.5.3 3 .5v2.4l-1.7-.1z"/><path id="XMLID_2226_" class="st0" d="M-273.8 312.7c-.7.3-1.7.6-2.7.6-1.9 0-2.7-.8-2.7-2.6v-4.3c0-.1 0-.2-.1-.2h-1.1v-1.5c1.4-.2 2-.9 2.2-2.7h1.6v2.3c0 .1 0 .2.1.2h2.3v1.6h-2.4v4.1c0 1 .2 1.3 1.1 1.3.5 0 .9-.1 1.3-.3l.4 1.5z"/><path id="XMLID_2223_" class="st0" d="M-267.8 313.1l-.2-.9h-.1c-.6.6-1.4 1.1-2.7 1.1-2.1 0-2.4-1.4-2.4-2.4 0-1.6 1-2.4 3.1-2.5l1.9-.1v-.9c0-.8-.1-1.3-1.1-1.3-.8 0-1.2.1-1.2 1.1l-2.3-.2c0-2.2 2-2.5 3.5-2.5 2.5 0 3.5.7 3.5 3v4c0 .3 0 .3.3.3l.8.1v1.3h-3.1v-.1zm-.5-3.5l-1.1.1c-1 .1-1.3.3-1.3 1s.4.9.9.9c.6 0 1.1-.3 1.5-.6v-1.4z"/><path id="XMLID_2221_" class="st0" d="M-256.8 312.5c-.8.5-1.9.8-3.1.8-3 0-4.3-1.8-4.3-4.3 0-3.1 1.9-4.5 4.5-4.5 1.3 0 2.4.4 2.9.7v2.6l-1.7-.1-.2-1.1c0-.1 0-.2-.2-.3s-.5-.1-.8-.1c-1 0-1.8.7-1.8 2.6 0 2.1.9 2.7 2.1 2.7.8 0 1.6-.3 2-.5l.6 1.5z"/><path id="XMLID_2219_" class="st0" d="M-249.7 313.1l-2.1-4.2-.9 1v1.5c0 .3 0 .3.3.3l1 .1v1.3h-4.8v-1.3l.8-.1c.2 0 .3-.1.3-.3v-8.6c0-.2 0-.3-.2-.3l-.9-.3.2-1.3h3.4v7l3-3.2h2.3v1.3l-.8.2c-.2 0-.3.1-.4.2l-1.2 1.2 2.1 3.9c.1.2.2.3.5.3l.7.1v1.3h-3.3v-.1z"/></g></svg>