<svg xmlns="http://www.w3.org/2000/svg" viewBox="0 0 87 35.8" enable-background="new 0 0 87 35.8"><path d="M56.8 34.6H43V1.4h13.3c6.5 0 10.3 3.6 10.3 9.3 0 3.7-2.4 6.1-4.1 6.9 2 .9 4.6 3 4.6 7.5-.1 6.2-4.3 9.5-10.3 9.5zM55 8h-3.8v6H55c2.2 0 3.4-1.2 3.4-3S57.1 8 55 8zm.3 13.5h-4.2V28h4.2c2.3 0 3.4-1.5 3.4-3.2s-1-3.3-3.4-3.3zM77.2 8.9h-4.7V1.4H86v33.2h-8.8V8.9zM18.8 1C9.3 1 1 8 1 18s8.3 17 17.8 17c9.6 0 17.8-7 17.8-17S28.4 1 18.8 1zm0 26.4c-5.2 0-9.4-4.2-9.4-9.4s4.2-9.4 9.4-9.4 9.4 4.2 9.4 9.4-4.2 9.4-9.4 9.4z"/></svg>