<svg xmlns="http://www.w3.org/2000/svg" viewBox="-245 217 300 180" enable-background="new -245 217 300 180"><path fill="#831CA8" d="M-43.6 304.9c0 21.1-13.6 40.4-33.4 47.6-20.1 7.3-43.1.9-56.6-15.6-13.3-16.3-15.1-39.9-4.2-58 10.8-18 32.1-27.7 52.8-23.9 23.7 4.4 41.4 25.8 41.4 49.9zm-34.1-15.1c.4-.5.7-1 .9-1.5.9-.8 1.9-1.3 3.1-1.5 1.5-.4 3.9-.9 5.1.4-.7-.8 3.5-2.3 3.6-2.4.8-1.7-1.3-1.5-1.5-3.3 0 .5-2 .3-2.6-.2-1.2-.9-1.2-2.6-2.5-3.7-1.8-1.5-.2-.6-1.9-.3-.6.1-2 .7-2.7 1.1 1.2-.4-.9-1-1.1-.9 1.5-.4-.6-1.7.3-1.7-.4-1.9-6.4-2.9-7.3-1.5v4c0 .3 1.2.6 1.2.9 0 1-.8 1.2-1 1.9-.1.4-1 .8-1.2 1.5-.2.8 1 1.5.6 2.2-1.1 1.8-2.5 0-3.1-.8-.5-.6-.3-1.5-.9-2.1-.9-.8-1.6 0-2.3-.4-2.3-1.1-3.4-2.4-6.5-2 .5-.1-.2-2.1-1.3-1.8.7-1.4.4-2.8 1.6-4.1 1.3-1.5 1.7-.7 3.5-1.7 1.6-.9 1.7-2.2 3.4-2.7 1.9-.7 2.4 1.5 2-1.5-.3-2.6-1.2-1.3-2.3-.6-.4.3-.7 1.2-1.2 1.4-1.4.4-.6-.4-1.4-.4-.6 0-.7-3-1.9-.5.4-.9-1.8-1.4-2.3-1.5 1.7-1.1-2.1-3-3.2-1.8-1.5 1.9 2.3 1.5 2.5 2.5.2.9-.8.4-.9.9.1-.8-1.4 2.7-.9 2.3-.4-.7-.8-1.5-1.1-2.2.1.1-4.9.4-5.6-.3-.7-.6.9-1.3-.8-2.1-1.4-.7-5.2 1.8-6.5 2.4 3.3.9 4.1-3.9 6.7 0-.5-.2-2.4-.3-2.8.2-.9.9.1.7-.3 1.7-2.3-1.6-3.1-2.1-5.7-.7-2.9 1.4-5.5 3.9-7.8 6.1-1.6 1.5-5.3 4.7-5.7 6.9 0 .1.5 3.2 1.5 2.4.5.4.4 1.2 1.2 1.8.7.5 1.8.9 2.3 1.5 2.4 3.3-.7 1.1-.9 1.4-.2.4 0 2.1.7 2-1.4.1-1.3 9.2 1.1 8.6-.5.1 5.3 7.4 5.5 7.9.4.9 3.3 7 4.2 6.7.2-2.3-2.5-5.8-3.4-8 2.1.5 3.7 4.6 5.3 6.4 1.9 2.2 2.9 6.4 5.8 8.3 2.3 1.6 4.2 1.2 6.4 1.8 1.7.5 2.3 1.8 3.9 2.6.8.4 2.6.1 3.1.5.2.1.3 1.2.6 1.5.5.5 3.3 5 3.8 2.9-.5 1.5 2.6 3.1 2.6-.1-1.6.8-3.1-.4-3.6-1.9-.4-1.1.8-1.5.7-1.8-.1-.9-.4-2.2-1-2.8-1.1-1.2-2.3.1-3-1.2.1.9-.3 1.1-1.2.7.2-1.4 2.1-5.4.6-5.9-2.7-.9-2.1 4-5.6 3.2-3-.7-2.9-3.9-2.9-6.3 0-1.5 0-2.7.4-3.9 0-.1 2.7-1.7 1.2-1.7.3.1 3.9.2 4.1.2 1.6-.8.1-.3.9-1.8.1.4 5.2 2.1 5.8 1.5.7 1 .9 3.9 2 4.5 1.4.8 1-1.7.9-2.2 0-.5 0-1.2-.1-1.7-.2-.8-1.2-.7-1.2-1.5-.1-2.4 4.2-4.1 5.2-6.4-3.7-1.1 3.5-4.7 4.5-5.5.3-.2.6-1.6 1.1-2.1.4-.3 1.5-.7 2-1.1 1.1-.7 4-2.6.5-3.3 0 0 2.5 0 1.8-.8-1.5-2.4-3.7 1.2-5 1.4zm13.9 44.2c-.4-.4-1.2-.3-1.6-.5-2.2-1-.9-.9-2.4-2-1.7-1.3-2.8-1.5-4.5-1.9-.3-.1-.7.6-.8.6-.6-.1-1.7-1.2-2.4-1.5-2.6-1.1-2.3-.9-3.4 1.4-1.2-1 1.7-2.1-.8-2.6-1.4-.3-3.3 2.8-3.7 3.6-.5-.3-.9-.5-1.4-.8.3 1.6 1 4.3.7 5.9-.4 1.7-2.1 2.5-2.4 4-.3 1.6.2 2 .2 3.4 0 1-.9 1.7-.6 2.9 8.7-1.6 16.9-6 23.1-12.5-.4-.4-6.1 6.4 0 0z"/></svg>