<svg xmlns="http://www.w3.org/2000/svg" viewBox="0 0 10.5 10.2" enable-background="new 0 0 10.5 10.2"><path fill="#fff" d="M10 5.1c0 2-1.3 3.9-3.3 4.6-.2 0-.3 0-.3-.2V8.1c0-.4-.1-.7-.3-.9.9-.1 1.7-.4 2-1.3.3-.8.3-1.7-.3-2.4.2-.4.1-.8 0-1.3-.4 0-.9.3-1.2.4l-.2.2c-.8-.2-1.6-.2-2.4 0-.3-.2-.9-.6-1.3-.5-.2.5-.2.9 0 1.3-.7.6-.7 1.5-.4 2.3.3.9 1.1 1.2 2 1.3-.1.2-.2.4-.3.7-.5.2-1.1.1-1.4-.4-.1-.3-.3-.5-.6-.5h-.1c-.3 0-.3.1-.1.2.2.1.4.3.5.6l.1.2c.2.6.9.7 1.5.6H4c0 .3.2 1.2-.3 1.1C.1 8.5-.7 3.6 2.3 1.3 5.4-1.1 10 1.2 10 5.1z"/></svg>