<svg xmlns="http://www.w3.org/2000/svg" viewBox="0 0 239.5 66" enable-background="new 0 0 239.5 66"><path fill="#0C9BD3" d="M26 23.8c2-.9 3.5-2.4 3.5-5v-.1c0-1.6-.6-2.7-1.5-3.7-1.3-1.3-3.3-2-6.2-2H10.3v22.6H22c5.4 0 8.6-2.4 8.6-6.2v-.1c-.1-3-1.8-4.5-4.6-5.5zm-9.6-5.7h4.1c1.9 0 2.8.7 2.8 1.9v.1c0 1.3-1.1 2-3 2h-3.9v-4zm7.9 10.5c0 1.3-1.1 2.1-3 2.1h-4.8v-4.2h4.8c2 0 3 .8 3 2.1zM39.6 13h-6.3v22.7h17.2v-5.5H39.6zM63.4 12.6c-7 0-12.2 5.3-12.2 11.8v.1c0 6.5 5.2 11.7 12.2 11.7s12.2-5.3 12.2-11.8v-.1c-.1-6.5-5.2-11.7-12.2-11.7zm5.7 11.8c0 3.3-2.3 6.1-5.8 6.1-3.4 0-5.8-2.8-5.8-6.1v-.1c0-3.3 2.3-6.1 5.7-6.1 3.5 0 5.9 2.9 5.9 6.2zM89.9 30.4c-3.2 0-5.4-2.6-5.4-6.1v-.1c0-3.3 2.2-6 5.4-6 2.2 0 3.6 1 5 2.6l4.7-3.6c-2-2.8-5-4.7-9.6-4.7-6.9 0-11.9 5.2-11.9 11.8v.1c0 6.7 5.2 11.7 11.7 11.7 5 0 7.9-2.2 10-5.1L95 27.7c-1.4 1.6-2.7 2.7-5.1 2.7M135.3 30.4c-3.2 0-5.4-2.6-5.4-6.1v-.1c0-3.3 2.2-6 5.4-6 2.2 0 3.6 1 5 2.6l4.7-3.6c-2-2.8-5-4.7-9.6-4.7-6.9 0-11.9 5.2-11.9 11.8v.1c0 1 .1 2 .4 2.9 1.2 5.2 5.8 8.8 11.3 8.8 5 0 7.9-2.2 10-5.1l-4.7-3.4c-1.4 1.7-2.8 2.8-5.2 2.8"/><path fill="#0C9BD3" d="M162.2 21.5h-8.1V13h-6.3v22.7h6.3v-8.6h8.1v8.6h6.2V13h-6.2zM186.3 12.9h-6.1l-9.6 22.8h6.6l1.6-4.1h8.7l1.6 4.1h6.7l-9.5-22.8zm-5.6 13.9l2.5-6.4 2.5 6.4h-5zM198.3 13h6.3v22.6h-6.3zM223.9 13v12l-9.3-12h-5.8v22.7h6.1V23.2l9.7 12.5h5.5V13zM123.9 13h-7.4l-7.8 9.2V13h-6.3v22.7h6.3v-5.9l2.3-2.5 5.7 8.4h6.2l-8.5-12.2z"/><text transform="translate(200.744 57.349)" fill="#0C9BD3" font-family="'ProximaNova-Regular'" font-size="18.869">info</text></svg>