<svg xmlns="http://www.w3.org/2000/svg" viewBox="0 0 184 26" enable-background="new 0 0 184 26"><path d="M13.1 23.9c-4.7 0-8.9-2.6-10.4-7.1-1.6-4.3-.4-9.5 3.2-12.4 3.6-2.9 9-3.2 13-.9 4 2.3 5.9 7.1 5 11.6-.9 5.3-5.5 8.8-10.8 8.8zM7.6 13c0 3.2 2.1 6.3 5.5 6.3 3.5 0 5.5-3.2 5.5-6.4s-2.1-6.3-5.5-6.3S7.6 9.8 7.6 13zM95.7 23.5h-5.4V11.6c0-1.7-.3-2.9-.9-3.7-2.4-3.2-7.1.4-7.9 3.2v12.3h-5.4v-21H81v3.9c.8-1.3 1.9-2.4 3.4-3.1 2.3-1.2 5.7-1.7 8.1-.5 2.7 1.5 3.3 4.8 3.3 7.6v13.2zM106.2 23.9c-4.5 0-8.5-4.1-6.9-8.7 1.6-4.5 7.4-5.3 11.4-4.5.9.2 1.7.4 2.4.7v-1.2c0-1.4-.4-2.5-1.2-3.2-1.7-1.6-4.8-1.3-6.8-.5-1.1.4-2.2 1-3.3 1.8l-1.7-3.4c2.7-1.8 5.6-2.7 8.8-2.7 3 0 5.4.7 7.1 2.2s2.5 3.6 2.5 6.5v6.6c0 .6.1 1 .3 1.2.2.2.6.4 1.1.4v4.6c-.5.1-1 .2-1.4.2-1.9.2-4.1-.2-4.5-2.4l-.1-1.2c-.9 1.2-2.1 2.2-3.4 2.8-1.3.5-2.8.8-4.3.8zm1.5-4c1.6 0 3.5-.5 4.6-1.7.5-.6.8-1 .8-1.6v-2.4c-.6-.2-1.3-.4-2.1-.6-2.1-.4-5.4-.4-6.6 1.8-1.3 2.3 1.1 4.5 3.3 4.5zM156.5 23.5h-5.4V11.6c0-1.7-.3-2.9-.9-3.7-1.1-1.4-3-1.4-4.4-.6-1.5.8-2.5 2.3-3 3.9v12.3h-5.4V11.6c0-1.7-.3-2.9-.9-3.7-1.4-1.8-3.9-1.2-5.4 0-1 .8-1.6 1.9-2 3.2v12.3h-5.4v-21h4.9v3.9c.8-1.4 1.8-2.4 3.2-3.2 3.8-2.1 9.5-1.5 10.6 3.4 1.9-3.2 5.4-5 9.1-4.4 4 .6 5 4.7 5 8.2v13.2zM70.1 5.5c-2-2.2-4.8-3.4-7.8-3.5-6.5-.2-11.7 4.5-11.7 11 0 1.5.3 2.8.8 4.2 1.8 4.6 6.5 7 11.4 6.6 2.1-.2 4.3-.8 5.9-2.1 1.4-1.1 3.2-2.8 3.6-4.5h-5.5c-1.9 4-8.1 3.2-9.9-.4-.3-.6-.5-1.4-.6-2.2h16.3c.1-.2.1-.5.1-.8.2-3-.5-6-2.6-8.3zm-13.8 5.6c.1-.7.2-1.5.5-2.1 1.1-2.4 3.8-3.6 6.4-2.9 2.4.6 3.8 2.7 4 5.1-3.6-.1-7.3-.1-10.9-.1zM179.3 5.5c-2-2.2-4.8-3.4-7.8-3.5-6.5-.2-11.7 4.5-11.7 11 0 1.5.3 2.8.8 4.2 1.8 4.6 6.5 7 11.4 6.6 2.1-.2 4.3-.8 5.9-2.1 1.4-1.1 3.2-2.8 3.6-4.5H176c-1.9 4-8.1 3.2-9.9-.4-.3-.6-.5-1.4-.6-2.2h16.3c.1-.2.1-.5.1-.8.2-3-.5-6-2.6-8.3zm-13.8 5.6c.1-.7.2-1.5.5-2.1 1.1-2.4 3.8-3.6 6.4-2.9 2.4.6 3.8 2.7 4 5.1-3.6-.1-7.3-.1-10.9-.1zM47.3 23.5h-5.4V11.6c0-1.7-.3-2.9-.9-3.7-2.4-3.2-7.1.4-7.9 3.2v12.3h-5.4v-21h4.9v3.9c.8-1.3 1.9-2.4 3.4-3.1 2.2-1.2 5.7-1.8 8-.5 2.7 1.5 3.3 4.8 3.3 7.6v13.2z"/></svg>