<svg xmlns="http://www.w3.org/2000/svg" viewBox="0 0 197 40.5" enable-background="new 0 0 197 40.5"><path fill="#424242" d="M76.1 16.3h-6.3v16.3h-2.3V16.3l-6.3.1v-2.1l15-.1v2.1zM84.9 32.6V14.2h2.3v18.4h-2.3zM110.3 30.5v2.1H97.9V14.2h12.2v2.1h-9.9v5.9h8.6v1.9h-8.6v6.3h10.1zM119.7 32.6V14.2h7.9c.8 0 1.6.2 2.2.5.7.3 1.3.8 1.8 1.3.5.6.9 1.2 1.2 1.9.3.7.4 1.4.4 2.1 0 .6-.1 1.3-.3 1.8-.2.6-.4 1.1-.8 1.6-.3.5-.7.9-1.2 1.2-.5.3-1 .6-1.6.8l4.4 7h-2.6l-4.2-6.6H122v6.6h-2.3zm2.3-8.7h5.6c.5 0 .9-.1 1.3-.3.4-.2.7-.5 1-.8.3-.4.5-.8.6-1.2.2-.5.2-.9.2-1.4 0-.5-.1-1-.3-1.5-.2-.5-.4-.9-.7-1.2-.3-.4-.7-.6-1.1-.8-.4-.2-.8-.3-1.3-.3H122v7.5zM142.9 32.6V14.2h2.3v18.4h-2.3zM161.8 32.7c-1.3 0-2.5-.3-3.5-.8-1.1-.5-2-1.2-2.7-2.1-.8-.9-1.3-1.9-1.8-3-.4-1.1-.6-2.3-.6-3.4 0-1.2.2-2.4.7-3.5.4-1.1 1-2.1 1.8-3 .8-.9 1.7-1.5 2.8-2.1 1.1-.5 2.2-.8 3.5-.8 1.3 0 2.5.3 3.5.8 1.1.5 2 1.3 2.7 2.1.8.9 1.3 1.9 1.8 3 .4 1.1.6 2.2.6 3.4 0 1.2-.2 2.4-.7 3.5-.4 1.1-1 2.1-1.8 3-.8.9-1.7 1.5-2.7 2-1.3.7-2.4.9-3.6.9zm-6.3-9.3c0 .9.2 1.8.5 2.7.3.9.7 1.6 1.3 2.3.6.7 1.2 1.2 2 1.6.8.4 1.6.6 2.6.6s1.9-.2 2.6-.6c.8-.4 1.4-1 2-1.7.5-.7 1-1.5 1.2-2.3.3-.9.4-1.7.4-2.6 0-.9-.2-1.8-.5-2.7-.3-.9-.7-1.6-1.3-2.3-.6-.7-1.2-1.2-2-1.6-.8-.4-1.6-.6-2.5-.6-1 0-1.9.2-2.6.6-.8.4-1.4 1-2 1.6-.5.7-1 1.4-1.3 2.3-.3 1-.4 1.8-.4 2.7zM180.6 18.6v14h-2.3V14.2h1.8l11.4 14.3V14.3h2.3v18.3h-2l-11.2-14z"/><g fill="#F50057"><path d="M33.8 25c-6.4-.4-12.6-.4-18.9 0l-.5-8c6.7-.5 13.2-.5 20 0-.3 3.2-.4 4.8-.6 8zM28.7 38.1c-3.4-.2-5.2-.2-8.6 0-.1-2.9-.1-4.3-.2-7.2 3.6-.2 5.4-.2 9.1 0-.2 2.9-.2 4.3-.3 7.2zM2.5 4c.6 3.9.9 5.9 1.5 9.7.8-1.4 1.2-2.1 2.1-3.5 12.5-1.8 24.6-1.8 37.1.1.7 1.4 1 2.1 1.6 3.5.6-3.9.8-5.8 1.4-9.7C31.4 1.6 17.3 1.6 2.5 4z"/></g></svg>