<svg xmlns="http://www.w3.org/2000/svg" xmlns:xlink="http://www.w3.org/1999/xlink" viewBox="0 0 432 432" enable-background="new 0 0 432 432"><defs><path id="a" d="M83.1 316.2c-.2.3-.5.4-.8.4h-6.7c-.3 0-.6-.1-.7-.4-.8-1.2-2-2-3.4-2.6-1.4-.6-3.1-.9-5-.9-7 0-10.6 3.9-10.6 11.7 0 7.8 3.5 11.7 10.6 11.7 1.9 0 3.6-.3 5-.9 1.4-.6 2.5-1.5 3.4-2.6.2-.2.4-.4.7-.4h6.7c.3 0 .6.1.8.4.2.3.2.6 0 .9-1.5 3.4-3.6 6-6.5 7.8-2.8 1.7-6.2 2.6-10.2 2.6-2.8 0-5.3-.4-7.6-1.3-2.2-.9-4.2-2.1-5.8-3.8-1.6-1.7-2.8-3.7-3.7-6.1-.9-2.4-1.3-5.1-1.3-8.2 0-3 .4-5.8 1.3-8.2.8-2.4 2.1-4.5 3.6-6.1 1.6-1.7 3.5-3 5.8-3.8 2.3-.9 4.8-1.3 7.6-1.3 4 0 7.4.9 10.3 2.6 2.9 1.7 5 4.3 6.4 7.7.4.2.3.5.1.8zm43.2 27.5c-.2.2-.4.3-.6.3h-5.9c-.2 0-.5-.1-.6-.3-.2-.2-.3-.4-.3-.6v-18.6c0-3.9-.9-6.9-2.7-8.8-1.8-1.9-4.4-2.9-7.9-2.9-2.1 0-3.8.3-5.2 1-1.4.7-2.4 1.6-3.2 2.7-.8 1.1-1.3 2.4-1.7 3.8-.3 1.4-.5 2.8-.5 4.2V343c0 .2-.1.5-.3.6-.2.2-.4.3-.6.3h-5.9c-.2 0-.5-.1-.6-.3-.2-.2-.3-.4-.3-.6v-51.4c0-.2.1-.5.3-.6.2-.2.4-.3.6-.3h5.9c.2 0 .5.1.6.3.2.2.3.4.3.6v16.2c2.9-1.9 6.4-2.8 10.5-2.8 2.8 0 5.4.5 7.7 1.4 2.3.9 4.2 2.2 5.8 3.9 1.6 1.7 2.8 3.7 3.6 6.1.8 2.4 1.3 5.1 1.3 8.1V343c-.1.3-.2.5-.3.7zm41.8 0c-.2.2-.4.3-.6.3h-5.9c-.2 0-.5-.1-.6-.3-.2-.2-.3-.4-.3-.6v-1.9c-2.9 1.9-6.4 2.9-10.5 2.9-2.8 0-5.3-.4-7.6-1.3-2.2-.9-4.2-2.1-5.8-3.8-1.6-1.7-2.8-3.7-3.7-6.1-.9-2.4-1.3-5.1-1.3-8.2 0-3 .4-5.8 1.3-8.2.8-2.4 2.1-4.5 3.7-6.1 1.6-1.7 3.5-3 5.8-3.8 2.3-.9 4.8-1.3 7.6-1.3 2 0 3.9.2 5.7.7 1.8.5 3.4 1.2 4.8 2.1v-1.9c0-.2.1-.5.3-.6.2-.2.4-.3.6-.3h5.9c.2 0 .5.1.6.3.2.2.3.4.3.6V343c0 .3-.1.5-.3.7zM158 315.6c-1.8-1.9-4.4-2.9-7.9-2.9-7 0-10.6 3.9-10.6 11.7 0 7.8 3.5 11.7 10.6 11.7 3.4 0 6-1 7.8-2.9 1.8-1.9 2.7-4.9 2.7-8.8 0-4-.9-6.9-2.6-8.8zm25.2 28.1c-.2.2-.4.3-.6.3h-5.9c-.2 0-.5-.1-.6-.3-.2-.2-.3-.4-.3-.6V306c0-.2.1-.5.3-.6.2-.2.4-.3.6-.3h5.9c.2 0 .5.1.6.3.2.2.3.4.3.6v37c0 .3-.1.5-.3.7zm44 0c-.2.2-.4.3-.6.3h-5.9c-.2 0-.5-.1-.6-.3-.2-.2-.3-.4-.3-.6v-18.6c0-3.9-.9-6.9-2.7-8.8-1.8-1.9-4.4-2.9-7.9-2.9-2.1 0-3.8.3-5.2 1-1.4.7-2.4 1.6-3.2 2.7-.8 1.1-1.3 2.4-1.7 3.8-.3 1.4-.5 2.8-.5 4.2V343c0 .2-.1.5-.3.6-.2.2-.4.3-.6.3h-5.9c-.2 0-.5-.1-.6-.3-.2-.2-.3-.4-.3-.6v-37.1c0-.2.1-.5.3-.6.2-.2.4-.3.6-.3h5.9c.2 0 .5.1.6.3.2.2.3.4.3.6v1.9c1.5-.9 3.1-1.6 4.8-2.1 1.8-.5 3.7-.7 5.7-.7 2.8 0 5.4.5 7.7 1.4 2.3.9 4.2 2.2 5.8 3.9 1.6 1.7 2.8 3.7 3.6 6.1.8 2.4 1.3 5.1 1.3 8.1V343c0 .3-.1.5-.3.7zm-44-45.5c-.2.2-.4.3-.6.3h-6c-.2 0-.5-.1-.6-.3-.2-.2-.3-.4-.3-.6v-5.9c0-.2.1-.5.3-.6.2-.2.4-.3.6-.3h6c.2 0 .5.1.6.3.2.2.3.4.3.6v5.9c0 .2-.1.5-.3.6zm0 0c-.2.2-.4.3-.6.3h-6c-.2 0-.5-.1-.6-.3-.2-.2-.3-.4-.3-.6v-5.9c0-.2.1-.5.3-.6.2-.2.4-.3.6-.3h6c.2 0 .5.1.6.3.2.2.3.4.3.6v5.9c0 .2-.1.5-.3.6zm59.2 45.5c-.2.2-.4.3-.6.3h-6c-.2 0-.5-.1-.6-.3-.2-.2-.3-.4-.3-.6v-5.9c0-.2.1-.5.3-.6.2-.2.4-.3.6-.3h6c.2 0 .5.1.6.3.2.2.3.4.3.6v5.9c0 .2-.1.4-.3.6z"/></defs><linearGradient id="b" gradientUnits="userSpaceOnUse" x1="145.453" y1="345.667" x2="145.453" y2="73.667"><stop offset="0" stop-color="#4EC3D1"/><stop offset="1" stop-color="#009BC5"/></linearGradient><use xlink:href="#a" overflow="visible" fill="url(#b)"/><clipPath><use xlink:href="#a" overflow="visible"/></clipPath><defs><path id="c" d="M281.5 316.1c-.2.3-.5.4-.8.4h-6.8c-.3 0-.6-.1-.7-.4-.8-1.2-2-2-3.4-2.6-1.4-.6-3.1-.9-5-.9-7.1 0-10.6 3.9-10.6 11.8 0 7.8 3.6 11.8 10.6 11.8 1.9 0 3.6-.3 5-.9 1.4-.6 2.6-1.5 3.4-2.6.2-.2.4-.4.7-.4h6.8c.3 0 .6.1.8.4.2.3.2.6 0 .9-1.5 3.5-3.7 6.1-6.5 7.8-2.9 1.7-6.3 2.6-10.3 2.6-2.8 0-5.4-.4-7.7-1.3s-4.2-2.2-5.8-3.8c-1.6-1.7-2.8-3.7-3.7-6.2-.9-2.4-1.3-5.2-1.3-8.3 0-3.1.4-5.8 1.3-8.2.8-2.4 2.1-4.5 3.7-6.2 1.6-1.7 3.5-3 5.8-3.9 2.3-.9 4.8-1.3 7.7-1.3 4 0 7.5.9 10.4 2.6 2.9 1.7 5 4.3 6.4 7.8.2.4.2.7 0 .9zm39.4 16.6c-.9 2.4-2.1 4.5-3.7 6.2-1.6 1.7-3.5 3-5.8 3.8-2.3.9-4.8 1.3-7.6 1.3s-5.4-.4-7.7-1.3-4.2-2.2-5.8-3.8c-1.6-1.7-2.8-3.7-3.7-6.2-.9-2.4-1.3-5.2-1.3-8.3 0-3.1.4-5.8 1.3-8.2.8-2.4 2.1-4.5 3.7-6.2 1.6-1.7 3.5-3 5.8-3.9 2.3-.9 4.8-1.3 7.7-1.3 2.9 0 5.4.4 7.7 1.3s4.2 2.2 5.8 3.9c1.6 1.7 2.8 3.7 3.7 6.2.8 2.4 1.3 5.2 1.3 8.2-.1 3.1-.5 5.9-1.4 8.3zm-9.2-17.1c-1.8-1.9-4.5-2.9-7.9-2.9-7.1 0-10.6 3.9-10.6 11.8 0 7.8 3.6 11.8 10.6 11.8 3.5 0 6.1-1 7.9-2.9 1.8-1.9 2.7-4.9 2.7-8.9 0-4.1-.9-7-2.7-8.9zm65.2 28.2c-.2.2-.4.3-.6.3h-6c-.2 0-.5-.1-.6-.3-.2-.2-.3-.4-.3-.6v-23.8c0-.9-.2-1.7-.5-2.5-.4-.8-.8-1.5-1.4-2.1-.6-.6-1.3-1.1-2.1-1.5-.8-.4-1.7-.6-2.6-.6-.9 0-1.8.2-2.6.5-.8.4-1.5.8-2.1 1.4-.6.6-1.1 1.3-1.4 2.1-.4.8-.5 1.7-.5 2.6v23.8c0 .2-.1.5-.3.6-.2.2-.4.3-.6.3h-6c-.2 0-.5-.1-.6-.3-.2-.2-.3-.4-.3-.6v-23.8c0-.9-.2-1.7-.5-2.5-.4-.8-.8-1.5-1.4-2.1-.6-.6-1.3-1.1-2.1-1.5-.8-.4-1.7-.6-2.6-.6-.9 0-1.8.2-2.6.5-.8.4-1.5.8-2.1 1.4-.6.6-1.1 1.3-1.4 2.1-.4.8-.5 1.7-.5 2.6V343c0 .2-.1.5-.3.6-.2.2-.4.3-.6.3h-6c-.2 0-.5-.1-.6-.3-.2-.2-.3-.4-.3-.6v-37.3c0-.2.1-.5.3-.6.2-.2.4-.3.6-.3h6c.2 0 .5.1.6.3.2.2.3.4.3.6v.7c1-.5 2-.9 3.2-1.2 1.1-.3 2.3-.4 3.5-.4 2.1 0 4.1.4 5.8 1.1 1.7.7 3.3 1.9 4.8 3.5 1.4-1.4 3-2.5 4.9-3.4s3.7-1.2 5.7-1.2 3.8.4 5.6 1.2c1.8.8 3.3 1.8 4.6 3.1 1.3 1.3 2.4 2.8 3.1 4.6.8 1.8 1.2 3.6 1.2 5.6v23.8c-.4.3-.5.5-.7.7z"/></defs><linearGradient id="d" gradientUnits="userSpaceOnUse" x1="311.746" y1="345.667" x2="311.746" y2="73.667"><stop offset="0" stop-color="#4EC3D1"/><stop offset="1" stop-color="#009BC5"/></linearGradient><use xlink:href="#c" overflow="visible" fill="url(#d)"/><clipPath><use xlink:href="#c" overflow="visible"/></clipPath><defs><path id="e" d="M223.1 247.6l-2.7 5.6h84.4c3.4 0 7.5-2.5 9-5.5l40.5-78.9c1.6-3 1.6-8 0-11.1L314 79c-1.6-3-5.6-5.5-9-5.5h-81.2c-3.4 0-7.5 2.5-9.1 5.5l-40.4 78.7c-1.6 3-1.6 8 0 11.1l14.4 28.1 3.3 6.4 7.1-13.1 4.1-7.6 3-5.5-2.7-5.3c0-.1-.1-.1-.1-.2l-1.4-2.7c-1.6-3-1.6-8 0-11.1l27.7-54c1.6-3 5.6-5.5 9.1-5.5H290c3.4 0 7.5 2.5 9.1 5.5l27.7 54c1.6 3 1.6 8 0 11.1l-27.7 54c-1.6 3-5.6 5.5-9.1 5.5h-57.4l-6.1 12.4-3.4 6.8zM70.9 168.9l40.4 78.7c1.6 3 5.6 5.5 9.1 5.5h81.2c3.4 0 7.5-2.5 9-5.5l40.4-78.7c1.6-3 1.6-8 0-11.1l-11.7-22.7-6-11.8-7.1 13.1-4.1 7.6-3 5.5 3 5.8 1.3 2.5c1.6 3 1.6 8 0 11.1l-27.7 54c-1.6 3-5.6 5.5-9.1 5.5h-51.2c-3.4 0-7.5-2.5-9.1-5.5l-27.7-54c-1.6-3-1.6-8 0-11.1l27.7-54c1.6-3 5.6-5.5 9.1-5.5h57.4l2.7-5.6 3.3-6.9 6.1-12.4h-84.4c-3.4 0-7.5 2.5-9 5.5L71 157.8c-1.7 3.1-1.7 8.1-.1 11.1z"/></defs><linearGradient id="f" gradientUnits="userSpaceOnUse" x1="212.598" y1="345.667" x2="212.598" y2="73.666"><stop offset="0" stop-color="#4EC3D1"/><stop offset="1" stop-color="#009BC5"/></linearGradient><use xlink:href="#e" overflow="visible" fill="url(#f)"/><clipPath><use xlink:href="#e" overflow="visible"/></clipPath></svg>