<svg xmlns="http://www.w3.org/2000/svg" viewBox="-343 298.5 104 16.5" enable-background="new -343 298.5 104 16.5"><g fill="#1B1E21"><path d="M-341 306.7c0-3.7 2.8-6.2 6.5-6.2 2.9 0 4.5 1.6 5.3 3.2l-2.7 1.3c-.4-1-1.4-1.8-2.6-1.8-2 0-3.4 1.5-3.4 3.5s1.4 3.5 3.4 3.5c1.2 0 2.2-.8 2.6-1.8l2.7 1.3c-.8 1.6-2.3 3.2-5.3 3.2-3.7.1-6.5-2.5-6.5-6.2zM-310.7 312.8V308h-5v4.8h-3.1v-12.1h3.1v4.5h5v-4.5h3.1v12.1h-3.1zM-297 306.7c0-3.7 2.8-6.2 6.4-6.2 3.7 0 6.4 2.6 6.4 6.2s-2.7 6.2-6.4 6.2c-3.7.1-6.4-2.5-6.4-6.2zm9.7 0c0-2-1.3-3.5-3.3-3.5-2 0-3.3 1.5-3.3 3.5s1.3 3.5 3.3 3.5c2 0 3.3-1.5 3.3-3.5zM-266.8 312.8l-2-4h-1.6v4h-3.1v-12.1h6c2.7 0 4.2 1.8 4.2 4 0 2.1-1.3 3.2-2.4 3.6l2.5 4.4h-3.6zm.3-8.1c0-.8-.7-1.3-1.5-1.3h-2.5v2.6h2.5c.8 0 1.5-.5 1.5-1.3zM-252.6 312.8v-12.1h5.1c3.8 0 6.5 2.3 6.5 6s-2.7 6-6.5 6h-5.1zm8.4-6.1c0-1.9-1.1-3.3-3.3-3.3h-2v6.6h2c2.1 0 3.3-1.5 3.3-3.3z"/></g></svg>