<?xml version="1.0" encoding="UTF-8"?>
<svg width="40px" height="40px" viewBox="0 0 40 40" version="1.1" xmlns="http://www.w3.org/2000/svg" xmlns:xlink="http://www.w3.org/1999/xlink">
    <!-- Generator: Sketch 43.2 (39069) - http://www.bohemiancoding.com/sketch -->
    <title>ic_destinations_norm</title>
    <desc>Created with Sketch.</desc>
    <defs></defs>
    <g id="ICONS" stroke="none" stroke-width="1" fill="none" fill-rule="evenodd">
        <g id="ic_destinations_norm" fill-rule="nonzero" fill="#E1D9F2">
            <path d="M26.503149,9.15123875 L0.499644188,9.15123875 C0.223501813,9.15123875 -0.000355811964,9.37509637 -0.000355811964,9.65123875 C-0.000355811964,9.92738112 0.223501813,10.1512387 0.499644188,10.1512387 L26.503149,10.1512387 C26.7792914,10.1512387 27.003149,9.92738112 27.003149,9.65123875 C27.003149,9.37509637 26.7792914,9.15123875 26.503149,9.15123875 Z" id="Shape"></path>
            <path d="M26.503149,29.1512387 L0.499644188,29.1512387 C0.223501813,29.1512387 -0.000355811964,29.3750964 -0.000355811964,29.6512387 C-0.000355811964,29.9273811 0.223501813,30.1512387 0.499644188,30.1512387 L26.503149,30.1512387 C26.7792914,30.1512387 27.003149,29.9273811 27.003149,29.6512387 C27.003149,29.3750964 26.7792914,29.1512387 26.503149,29.1512387 Z" id="Shape-Copy-2"></path>
            <path d="M39.517145,9.15123875 L34.497721,9.15123875 C34.2215786,9.15123875 33.997721,9.37509637 33.997721,9.65123875 C33.997721,9.92738112 34.2215786,10.1512387 34.497721,10.1512387 L39.517145,10.1512387 C39.7932874,10.1512387 40.017145,9.92738112 40.017145,9.65123875 C40.017145,9.37509637 39.7932874,9.15123875 39.517145,9.15123875 Z" id="Shape-Copy-3"></path>
            <path d="M39.517145,29.1512387 L34.497721,29.1512387 C34.2215786,29.1512387 33.997721,29.3750964 33.997721,29.6512387 C33.997721,29.9273811 34.2215786,30.1512387 34.497721,30.1512387 L39.517145,30.1512387 C39.7932874,30.1512387 40.017145,29.9273811 40.017145,29.6512387 C40.017145,29.3750964 39.7932874,29.1512387 39.517145,29.1512387 Z" id="Shape-Copy-5"></path>
            <path d="M9.53993182,19.1512387 L0.499644188,19.1512387 C0.223501813,19.1512387 -0.000355811964,19.3750964 -0.000355811964,19.6512387 C-0.000355811964,19.9273811 0.223501813,20.1512387 0.499644188,20.1512387 L9.53993182,20.1512387 C9.81607419,20.1512387 10.0399318,19.9273811 10.0399318,19.6512387 C10.0399318,19.3750964 9.81607419,19.1512387 9.53993182,19.1512387 Z" id="Shape-Copy"></path>
            <path d="M39.5005198,19.1512387 L17.4996442,19.1512387 C17.2235018,19.1512387 16.9996442,19.3750964 16.9996442,19.6512387 C16.9996442,19.9273811 17.2235018,20.1512387 17.4996442,20.1512387 L39.5005198,20.1512387 C39.7766622,20.1512387 40.0005198,19.9273811 40.0005198,19.6512387 C40.0005198,19.3750964 39.7766622,19.1512387 39.5005198,19.1512387 Z" id="Shape-Copy-4"></path>
            <path d="M30.5771123,13.6381768 C28.1935401,13.6381768 26.25,11.7669121 26.25,9.44408841 C26.25,7.12126474 28.1935401,5.25 30.5771123,5.25 C32.9606844,5.25 34.9042245,7.12126474 34.9042245,9.44408841 C34.9042245,11.7669121 32.9606844,13.6381768 30.5771123,13.6381768 Z M30.5771123,12.1381768 C32.1447092,12.1381768 33.4042245,10.9254997 33.4042245,9.44408841 C33.4042245,7.96267707 32.1447092,6.75 30.5771123,6.75 C29.0095153,6.75 27.75,7.96267707 27.75,9.44408841 C27.75,10.9254997 29.0095153,12.1381768 30.5771123,12.1381768 Z" id="Oval" stroke="#E1D9F2" stroke-width="0.5"></path>
            <path d="M30.5771123,33.6381768 C28.1935401,33.6381768 26.25,31.7669121 26.25,29.4440884 C26.25,27.1212647 28.1935401,25.25 30.5771123,25.25 C32.9606844,25.25 34.9042245,27.1212647 34.9042245,29.4440884 C34.9042245,31.7669121 32.9606844,33.6381768 30.5771123,33.6381768 Z M30.5771123,32.1381768 C32.1447092,32.1381768 33.4042245,30.9254997 33.4042245,29.4440884 C33.4042245,27.9626771 32.1447092,26.75 30.5771123,26.75 C29.0095153,26.75 27.75,27.9626771 27.75,29.4440884 C27.75,30.9254997 29.0095153,32.1381768 30.5771123,32.1381768 Z" id="Oval-Copy-2" stroke="#E1D9F2" stroke-width="0.5"></path>
            <path d="M13.5771123,23.6381768 C11.1935401,23.6381768 9.25,21.7669121 9.25,19.4440884 C9.25,17.1212647 11.1935401,15.25 13.5771123,15.25 C15.9606844,15.25 17.9042245,17.1212647 17.9042245,19.4440884 C17.9042245,21.7669121 15.9606844,23.6381768 13.5771123,23.6381768 Z M13.5771123,22.1381768 C15.1447092,22.1381768 16.4042245,20.9254997 16.4042245,19.4440884 C16.4042245,17.9626771 15.1447092,16.75 13.5771123,16.75 C12.0095153,16.75 10.75,17.9626771 10.75,19.4440884 C10.75,20.9254997 12.0095153,22.1381768 13.5771123,22.1381768 Z" id="Oval-Copy" stroke="#E1D9F2" stroke-width="0.5"></path>
        </g>
    </g>
</svg>