<?xml version="1.0" encoding="UTF-8"?>
<svg width="40px" height="40px" viewBox="0 0 40 40" version="1.1" xmlns="http://www.w3.org/2000/svg" xmlns:xlink="http://www.w3.org/1999/xlink">
    <!-- Generator: Sketch 43.2 (39069) - http://www.bohemiancoding.com/sketch -->
    <title>ic_anaylitics</title>
    <desc>Created with Sketch.</desc>
    <defs></defs>
    <g id="ICONS" stroke="none" stroke-width="1" fill="none" fill-rule="evenodd">
        <g id="ic_anaylitics" fill-rule="nonzero" fill="#817F97">
            <path d="M32,16 C27.581722,16 24,12.418278 24,8 C24,3.581722 27.581722,0 32,0 C36.418278,0 40,3.581722 40,8 C40,12.418278 36.418278,16 32,16 Z M32,14 C35.3137085,14 38,11.3137085 38,8 C38,4.6862915 35.3137085,2 32,2 C28.6862915,2 26,4.6862915 26,8 C26,11.3137085 28.6862915,14 32,14 Z" id="Oval"></path>
            <path d="M7,34 C3.13400675,34 0,30.8659932 0,27 C0,23.1340068 3.13400675,20 7,20 C10.8659932,20 14,23.1340068 14,27 C14,30.8659932 10.8659932,34 7,34 Z M7,32 C9.76142375,32 12,29.7614237 12,27 C12,24.2385763 9.76142375,22 7,22 C4.23857625,22 2,24.2385763 2,27 C2,29.7614237 4.23857625,32 7,32 Z" id="Oval"></path>
            <path d="M30,40 C26.6862915,40 24,37.3137085 24,34 C24,30.6862915 26.6862915,28 30,28 C33.3137085,28 36,30.6862915 36,34 C36,37.3137085 33.3137085,40 30,40 Z M30,38 C32.209139,38 34,36.209139 34,34 C34,31.790861 32.209139,30 30,30 C27.790861,30 26,31.790861 26,34 C26,36.209139 27.790861,38 30,38 Z" id="Oval"></path>
            <polygon id="Shape" points="25.2940858 33.044221 12.2940858 29.044221 11.7059142 30.955779 24.7059142 34.955779"></polygon>
            <polygon id="Shape" points="11.5144958 22.8574929 26.5144958 13.8574929 25.4855042 12.1425071 10.4855042 21.1425071"></polygon>
        </g>
    </g>
</svg>