<?xml version="1.0" encoding="UTF-8"?>
<svg width="40px" height="40px" viewBox="0 0 40 40" version="1.1" xmlns="http://www.w3.org/2000/svg" xmlns:xlink="http://www.w3.org/1999/xlink">
    <!-- Generator: Sketch 43.2 (39069) - http://www.bohemiancoding.com/sketch -->
    <title>ic_youtube_black</title>
    <desc>Created with Sketch.</desc>
    <defs></defs>
    <g id="ICONS" stroke="none" stroke-width="1" fill="none" fill-rule="evenodd">
        <g id="ic_youtube_black">
            <path d="M38.01,7.1633714 C36.48875,5.52054916 34.78375,5.51281823 34.0025,5.41747012 C28.405,5 20.00875,5 20.00875,5 C19.99125,5 11.595,5 5.9975,5.41747012 C5.215,5.51281823 3.51125,5.52054916 1.98875,7.1633714 C0.79,8.41449327 0.4,11.2556094 0.4,11.2556094 C0.4,11.2556094 0,14.5927934 0,17.9286889 L0,21.0571378 C0,24.3943218 0.4,27.7302173 0.4,27.7302173 C0.4,27.7302173 0.79,30.5713334 1.98875,31.8224552 C3.51125,33.4652775 5.51,33.4137379 6.4,33.5851069 C9.6,33.9020749 20,34 20,34 C20,34 28.405,33.9871151 34.0025,33.569645 C34.78375,33.4730084 36.48875,33.4652775 38.01,31.8224552 C39.20875,30.5713334 39.6,27.7302173 39.6,27.7302173 C39.6,27.7302173 40,24.3943218 40,21.0571378 L40,17.9286889 C40,14.5927934 39.6,11.2556094 39.6,11.2556094 C39.6,11.2556094 39.20875,8.41449327 38.01,7.1633714 Z" id="Youtube" fill="#000000"></path>
            <polygon id="Path" fill="#FFFFFF" points="16.0012723 25 16 14 27 19.5189634"></polygon>
        </g>
    </g>
</svg>