
<svg width="268px" height="53px" viewBox="0 0 268 53">
    <g stroke="none" stroke-width="1" fill="none" fill-rule="evenodd">
        <g id="Login" transform="translate(-802.000000, -76.000000)" fill-rule="nonzero">
            <g id="TL_FinalLogo-01" transform="translate(802.000000, 76.000000)">
                <path d="M26.5339463,52.9999786 C15.812809,53.0135565 6.13979271,46.5657495 2.0275794,36.664606 C-2.0846339,26.7634626 0.174269193,15.3600073 7.75045901,7.77421142 C15.3266488,0.188415547 26.727234,-2.08493662 36.6335821,2.01472541 C46.5399303,6.11438744 52.9999914,15.7792235 53,26.5003678 C52.9852442,41.1164867 41.1500367,52.9667003 26.5339463,52.9999786 Z M26.5339463,3.23601856 C17.1237836,3.23330356 8.6386967,8.89975861 5.03570197,17.5928349 C1.43270724,26.2859112 3.42144937,36.2934233 10.0744793,42.9483724 C16.7275093,49.6033215 26.7344486,51.594951 35.4285654,47.9944654 C44.1226822,44.3939798 49.7915863,35.9105295 49.7915867,26.5003678 C49.7767991,13.6605725 39.3737386,3.2545112 26.5339463,3.23601856 L26.5339463,3.23601856 Z" id="Shape" fill="#E1D9F2"></path>
                <path d="M26.5,15 C20.1487254,15 15,20.1487254 15,26.5 C15,32.8512746 20.1487254,38 26.5,38 C32.8512746,38 38,32.8512746 38,26.5 C37.9927655,20.1517244 32.8482756,15.0072345 26.5,15 L26.5,15 Z" id="Shape" fill="#000000"></path>
                <path d="M27.0002622,9 C19.7194445,9.00000049 13.1556679,13.3862142 10.37004,20.1130699 C7.58441209,26.8399256 9.12561,34.582454 14.2748749,39.7298204 C19.4241397,44.8771867 27.1672357,46.4155292 33.8930633,43.6274205 C40.618891,40.8393118 45.0026834,34.2739178 44.9999988,26.9931002 C44.9853693,17.0592607 36.934106,9.01096586 27.0002622,9 Z M27.0002622,43.0548127 C18.1341534,43.054812 10.9464102,35.8680578 10.945189,27.0019487 C10.9439677,18.1358397 18.1297309,10.9471057 26.9958393,10.9446625 C35.8619478,10.9422193 43.0516718,18.1269918 43.055337,26.9931002 C43.0443663,35.8555254 35.862687,43.037205 27.0002622,43.0481756 L27.0002622,43.0548127 Z" id="Shape" fill="#807F96"></path>
                <path d="M26,22.7328708 C24.8636992,22.7273326 23.7720363,23.1744578 22.9665881,23.9753008 C22.16114,24.7761438 21.7083198,25.8646712 21.7083333,27 L18,27 C18.0038216,22.5860125 21.5821859,19.0076482 26,19 L26,22.7328708 Z" id="Shape" fill="#FFFFFF"></path>
                <polygon id="Shape" fill="#000000" points="66.4104235 23.0728663 62 23.0728663 62 20 74 20 74 23.0728663 69.5895765 23.0728663 69.5895765 37 66.4104235 37"></polygon>
                <path d="M93,37 L89.1279269,37 L86.4483152,32.7020934 C86.1309496,32.7521041 85.8101561,32.7772746 85.4888635,32.7773752 L84.3443746,32.7773752 L84.3443746,37 L81,37 L81,20 L85.4957167,20 C90.0394061,20 92.7669903,22.2721417 92.7669903,26.4263285 C92.7669903,29.0748792 91.6430611,30.7516103 89.6350657,31.7028986 L93,37 Z M85.3929183,29.7250403 C88.134209,29.7250403 89.312964,28.8216586 89.312964,26.4263285 C89.312964,24.0309984 88.07253,23.0728663 85.3929183,23.0728663 L84.3375214,23.0728663 L84.3375214,29.7250403 L85.3929183,29.7250403 Z" id="Shape" fill="#000000"></path>
                <path d="M103.732381,20 L104.003224,20 L111,37 L107.691847,37 L106.969599,35.0945353 L100.759558,35.0945353 L100.03731,37 L97,37 L103.732381,20 Z M105.847536,32.2058237 L104.744818,29.283207 C104.293413,28.0965297 103.822662,26.2588751 103.822662,26.2588751 C103.570062,27.2822422 103.268746,28.2916241 102.919853,29.283207 L101.849378,32.2058237 L105.847536,32.2058237 Z" id="Shape" fill="#000000"></path>
                <path d="M122.690379,29.0917722 C122.017645,28.368797 121.388891,27.6052658 120.807574,26.8053797 C120.807574,26.8053797 121.04043,28.647943 121.04043,29.8516614 L121.04043,36.852057 L118,36.852057 L118,20 L118.325998,20 L126.309621,27.9149525 C126.975162,28.6369964 127.595117,29.4006345 128.165814,30.2013449 C128.165814,30.2013449 127.95957,28.3117089 127.95957,27.1550633 L127.95957,20.147943 L131,20.147943 L131,37 L130.674002,37 L122.690379,29.0917722 Z" id="Shape" fill="#000000"></path>
                <path d="M137,34.3342034 L139.589759,32.6286879 C140.237198,33.8954401 141.150088,34.8295813 142.703943,34.8295813 C143.998823,34.8295813 144.846969,34.0794376 144.846969,33.0462208 C144.846969,31.8077759 143.985874,31.3690126 142.542084,30.6400994 L141.752207,30.2508739 C139.47322,29.139812 137.958211,27.745677 137.958211,24.7946399 C137.958211,22.0771381 139.764567,20.0107045 142.587404,20.0107045 C144.481408,19.876286 146.259044,21.0174379 147.074161,22.8909733 L144.613891,24.7026411 C144.070041,23.5915792 143.487345,23.1528159 142.58093,23.1528159 C142.187379,23.1189792 141.798962,23.2676821 141.510735,23.562533 C141.222508,23.8573839 141.061067,24.271175 141.065921,24.7026411 C141.065921,25.7853957 141.655091,26.2312359 143.00824,26.9035345 L143.798117,27.29276 C146.484991,28.6090499 148,29.9536471 148,32.954222 C148,36.2095626 145.766333,38 142.762213,38 C139.758093,38 137.925839,36.4289443 137,34.3342034 Z" id="Shape" fill="#000000"></path>
                <path d="M154.006661,20 L154.259784,20 L162.046628,29.1095618 L169.720233,20 L170,20 L170,37 L166.862614,37 L166.862614,30.6673307 C166.862614,29.5294821 166.975853,27.7211155 166.975853,27.7211155 C166.975853,27.7211155 166.023314,29.2043825 165.277269,30.0984064 L162.139883,33.8370518 L161.840133,33.8370518 L158.702748,30.0984064 C157.956703,29.2043825 157.004163,27.7211155 157.004163,27.7211155 C157.004163,27.7211155 157.117402,29.5294821 157.117402,30.6673307 L157.117402,36.9796813 L154,36.9796813 L154.006661,20 Z" id="Shape" fill="#000000"></path>
                <polygon id="Shape" fill="#000000" points="177 20 180 20 180 37 177 37"></polygon>
                <polygon id="Shape" fill="#000000" points="190.410423 23.0728663 186 23.0728663 186 20 198 20 198 23.0728663 193.589577 23.0728663 193.589577 37 190.410423 37"></polygon>
                <path d="M201.001347,34.9266721 C201.041492,33.8325529 201.95391,32.974077 203.048446,33.0005983 C204.142983,33.0271196 205.012752,33.9287791 204.999858,35.0235586 C204.986965,36.1183381 204.096201,36.9992633 203.001344,36.9999995 C202.457958,37.000365 201.937814,36.7796153 201.56056,36.3885298 C201.183307,35.9974443 200.981422,35.469692 201.001347,34.9266721 L201.001347,34.9266721 Z" id="Shape" fill="#E1D9F2"></path>
                <polygon id="Shape" fill="#000000" points="211 20 214.434421 20 214.434421 33.9271337 222 33.9271337 222 37 211 37"></polygon>
                <polygon id="Shape" fill="#000000" points="228 20 231 20 231 37 228 37"></polygon>
                <path d="M236,20 L239.372639,20 L242.003685,26.4920192 C242.468148,27.7409231 242.866426,29.015958 243.196684,30.311253 C243.517503,29.0162003 243.907184,27.741116 244.363888,26.4920192 L246.943344,20 L250,20 L243.293413,37 L242.97743,37 L236,20 Z" id="Shape" fill="#000000"></path>
                <polygon id="Shape" fill="#000000" points="257 20 267.700865 20 267.700865 23.0716298 260.317676 23.0716298 260.317676 28.4692153 266.789864 28.4692153 266.789864 31.4792757 260.317676 31.4792757 260.317676 33.9283702 268 33.9283702 268 37 257 37"></polygon>
                <path d="M26,22.7328708 C24.8636992,22.7273326 23.7720363,23.1744578 22.9665881,23.9753008 C22.16114,24.7761438 21.7083198,25.8646712 21.7083333,27 L18,27 C18.0038216,22.5860125 21.5821859,19.0076482 26,19 L26,22.7328708 Z" id="Shape" fill="#FFFFFF"></path>
            </g>
        </g>
    </g>
</svg>