<?xml version="1.0" encoding="UTF-8"?>
<svg width="268px" height="53px" viewBox="0 0 268 53" version="1.1" xmlns="http://www.w3.org/2000/svg" xmlns:xlink="http://www.w3.org/1999/xlink">
    <!-- Generator: Sketch 43.2 (39069) - http://www.bohemiancoding.com/sketch -->
    <title>TL_FinalLogo_white</title>
    <desc>Created with Sketch.</desc>
    <defs></defs>
    <g id="Get-Started" stroke="none" stroke-width="1" fill="none" fill-rule="evenodd">
        <g id="Sign-Up-2" transform="translate(-33.000000, -30.000000)" fill-rule="nonzero">
            <g id="TL_FinalLogo_white" transform="translate(33.000000, 30.000000)">
                <path d="M27.0539651,52.9735 C16.378941,52.9869016 6.74752971,46.6228226 2.65300363,36.8502505 C-1.44152246,27.0776783 0.807664771,15.8223026 8.35126831,8.33501215 C15.8948718,0.847721648 27.2464214,-1.3961099 37.110161,2.65031596 C46.9739005,6.69674182 53.406176,16.2360752 53.4061845,26.818 C53.3914922,41.2443212 41.6071897,52.9406539 27.0539651,52.9735 Z M27.0539651,3.85575 C17.6842769,3.85307026 9.23568556,9.44594354 5.64818783,18.0261359 C2.0606901,26.6063282 4.04087836,36.4838877 10.6652927,43.0524189 C17.289707,49.6209502 27.253605,51.5867174 35.9103272,48.0329859 C44.5670494,44.4792544 50.2115707,36.105966 50.2115711,26.818 C50.1968471,14.1449359 39.8385317,3.87400251 27.0539651,3.85575 L27.0539651,3.85575 Z" id="Shape" fill="#E1D9F2"></path>
                <path d="M27.0539651,15.211 C20.5871927,15.211 15.3448379,20.4076309 15.3448379,26.818 C15.3448379,33.2283691 20.5871927,38.425 27.0539651,38.425 C33.5207375,38.425 38.7630923,33.2283691 38.7630923,26.818 C38.7557262,20.4106579 33.5176839,15.2183018 27.0539651,15.211 L27.0539651,15.211 Z" id="Shape" fill="#000000"></path>
                <path d="M27.0539651,8.857625 C19.7224435,8.85762549 13.1129566,13.2358617 10.3079295,19.9504828 C7.50290239,26.665104 9.05483326,34.3935505 14.2399577,39.531555 C19.4250822,44.6695596 27.2221014,46.2051041 33.9947679,43.4220664 C40.7674344,40.6390286 45.1817557,34.0855754 45.1790524,26.818 C45.164321,16.9022278 37.0569885,8.86857091 27.0539651,8.857625 Z M27.0539651,42.8505 C18.1261124,42.8504992 10.8883136,35.6768161 10.8870838,26.8268324 C10.8858541,17.9768487 18.1216591,10.8011894 27.0495114,10.7987506 C35.9773637,10.7963118 43.2171572,17.968017 43.2208479,26.818 C43.2098009,35.6643065 35.9781081,42.8329243 27.0539651,42.843875 L27.0539651,42.8505 Z" id="Shape" fill="#807F96"></path>
                <path d="M26.1249875,22.438875 C25.0314185,22.433587 23.9808086,22.8605147 23.2056501,23.6251821 C22.4304917,24.3898495 21.9947002,25.4292062 21.9947132,26.51325 L18.4258354,26.51325 C18.4295133,22.2986506 21.8733097,18.8819278 26.1249875,18.874625 L26.1249875,22.438875 Z" id="Shape" fill="#FFFFFF"></path>
                <polygon id="Shape" fill="#FFFFFF" points="67.7084289 22.578 63.1838404 22.578 63.1838404 19.603375 75.4944638 19.603375 75.4944638 22.578 70.9698753 22.578 70.9698753 36.059875 67.7084289 36.059875"></polygon>
                <path d="M93.1049377,36.059875 L89.3288778,36.059875 L86.7157107,31.899375 C86.4062146,31.9477868 86.0933756,31.9721526 85.7800499,31.97225 L84.6639401,31.97225 L84.6639401,36.059875 L81.4024938,36.059875 L81.4024938,19.603375 L85.7867332,19.603375 C90.2177556,19.603375 92.8777057,21.802875 92.8777057,25.82425 C92.8777057,28.388125 91.7816459,30.01125 89.8234414,30.932125 L93.1049377,36.059875 Z M85.6864838,29.0175 C88.3598005,29.0175 89.5093267,28.143 89.5093267,25.82425 C89.5093267,23.5055 88.2996509,22.578 85.6864838,22.578 L84.6572569,22.578 L84.6572569,29.0175 L85.6864838,29.0175 Z" id="Shape" fill="#FFFFFF"></path>
                <path d="M104.867531,19.457625 L105.148229,19.457625 L112.399601,36.0665 L108.971072,36.0665 L108.222544,34.204875 L101.786534,34.204875 L101.038005,36.0665 L97.8901746,36.0665 L104.867531,19.457625 Z M107.059651,31.382625 L105.916808,28.52725 C105.448978,27.367875 104.961097,25.5725 104.961097,25.5725 C104.699305,26.5723221 104.387025,27.5584808 104.025436,28.52725 L102.91601,31.382625 L107.059651,31.382625 Z" id="Shape" fill="#FFFFFF"></path>
                <path d="M122.778753,28.414625 C122.102959,27.7023669 121.471343,26.950154 120.887382,26.162125 C120.887382,26.162125 121.121297,27.977375 121.121297,29.16325 L121.121297,36.059875 L118.067032,36.059875 L118.067032,19.457625 L118.394514,19.457625 L126.414464,27.25525 C127.083033,27.9665906 127.705809,28.7189089 128.279102,29.50775 C128.279102,29.50775 128.07192,27.646125 128.07192,26.506625 L128.07192,19.603375 L131.126185,19.603375 L131.126185,36.205625 L130.798703,36.205625 L122.778753,28.414625 Z" id="Shape" fill="#FFFFFF"></path>
                <path d="M136.539651,32.82025 L139.212968,31.223625 C139.881297,32.4095 140.823641,33.284 142.427631,33.284 C143.764289,33.284 144.6398,32.58175 144.6398,31.6145 C144.6398,30.455125 143.750923,30.044375 142.260549,29.362 L141.445187,28.997625 C139.092668,27.9575 137.528778,26.652375 137.528778,23.88975 C137.528778,21.34575 139.393416,19.41125 142.307332,19.41125 C144.262445,19.2854135 146.097436,20.3537074 146.938853,22.107625 L144.399202,23.803625 C143.837805,22.7635 143.236309,22.35275 142.300648,22.35275 C141.8944,22.3210737 141.493451,22.4602824 141.195924,22.7363082 C140.898397,23.0123341 140.731747,23.3997063 140.736758,23.803625 C140.736758,24.81725 141.344938,25.234625 142.741746,25.864 L143.557107,26.228375 C146.330673,27.460625 147.894564,28.719375 147.894564,31.528375 C147.894564,34.575875 145.588828,36.252 142.487781,36.252 C139.386733,36.252 137.495362,34.78125 136.539651,32.82025 Z" id="Shape" fill="#FFFFFF"></path>
                <path d="M153.929576,19.457625 L154.183541,19.457625 L161.996309,28.36825 L169.695461,19.457625 L169.97616,19.457625 L169.97616,36.086375 L166.828329,36.086375 L166.828329,29.892 C166.828329,28.779 166.941945,27.010125 166.941945,27.010125 C166.941945,27.010125 165.986234,28.461 165.237706,29.3355 L162.089875,32.9925 L161.789127,32.9925 L158.641297,29.3355 C157.892768,28.461 156.937057,27.010125 156.937057,27.010125 C156.937057,27.010125 157.050673,28.779 157.050673,29.892 L157.050673,36.0665 L153.922893,36.0665 L153.929576,19.457625 Z" id="Shape" fill="#FFFFFF"></path>
                <polygon id="Shape" fill="#FFFFFF" points="176.846584 19.603375 180.10803 19.603375 180.10803 36.059875 176.846584 36.059875"></polygon>
                <polygon id="Shape" fill="#FFFFFF" points="190.580748 22.578 186.05616 22.578 186.05616 19.603375 198.366783 19.603375 198.366783 22.578 193.842195 22.578 193.842195 36.059875 190.580748 36.059875"></polygon>
                <path d="M200.97995,34.151875 C201.020195,33.0645909 201.93489,32.211478 203.032157,32.2378336 C204.129424,32.2641893 205.001364,33.1602159 204.988438,34.2481562 C204.975512,35.3360964 204.082526,36.2115184 202.984938,36.21225 C202.440196,36.2126131 201.918754,35.9932425 201.540559,35.6046002 C201.162364,35.2159579 200.959976,34.6915026 200.97995,34.151875 L200.97995,34.151875 Z" id="Shape" fill="#E1D9F2"></path>
                <polygon id="Shape" fill="#FFFFFF" points="211.004888 19.603375 214.266334 19.603375 214.266334 33.08525 221.450873 33.08525 221.450873 36.059875 211.004888 36.059875"></polygon>
                <polygon id="Shape" fill="#FFFFFF" points="227.652968 19.603375 230.914414 19.603375 230.914414 36.059875 227.652968 36.059875"></polygon>
                <path d="M236.608579,19.603375 L240.10394,19.603375 L242.830723,25.9435 C243.312087,27.1631832 243.724857,28.4083861 244.067132,29.673375 C244.399625,28.4086227 244.803486,27.1633717 245.276808,25.9435 L247.950125,19.603375 L251.118005,19.603375 L244.167382,36.205625 L243.8399,36.205625 L236.608579,19.603375 Z" id="Shape" fill="#FFFFFF"></path>
                <polygon id="Shape" fill="#FFFFFF" points="256.75202 19.603375 267.271521 19.603375 267.271521 22.578 260.013466 22.578 260.013466 27.805125 266.37596 27.805125 266.37596 30.720125 260.013466 30.720125 260.013466 33.091875 267.565586 33.091875 267.565586 36.0665 256.75202 36.0665"></polygon>
                <path d="M26.1249875,22.438875 C25.0314185,22.433587 23.9808086,22.8605147 23.2056501,23.6251821 C22.4304917,24.3898495 21.9947002,25.4292062 21.9947132,26.51325 L18.4258354,26.51325 C18.4295133,22.2986506 21.8733097,18.8819278 26.1249875,18.874625 L26.1249875,22.438875 Z" id="Shape" fill="#FFFFFF"></path>
            </g>
        </g>
    </g>
</svg>