<?xml version="1.0" encoding="utf-8"?>
<!-- Generator: Adobe Illustrator 19.1.0, SVG Export Plug-In . SVG Version: 6.00 Build 0)  -->
<svg version="1.1" id="Layer_1" xmlns="http://www.w3.org/2000/svg" xmlns:xlink="http://www.w3.org/1999/xlink" x="0px" y="0px"
	 viewBox="-343 298.5 104 16.5" enable-background="new -343 298.5 104 16.5" xml:space="preserve">
<g>
	<path fill="#1B1E21" d="M-341,306.7c0-3.7,2.8-6.2,6.5-6.2c2.9,0,4.5,1.6,5.3,3.2l-2.7,1.3c-0.4-1-1.4-1.8-2.6-1.8
		c-2,0-3.4,1.5-3.4,3.5s1.4,3.5,3.4,3.5c1.2,0,2.2-0.8,2.6-1.8l2.7,1.3c-0.8,1.6-2.3,3.2-5.3,3.2C-338.2,313-341,310.4-341,306.7z"
		/>
	<path fill="#1B1E21" d="M-310.7,312.8v-4.8h-5v4.8h-3.1v-12.1h3.1v4.5h5v-4.5h3.1v12.1H-310.7z"/>
	<path fill="#1B1E21" d="M-297,306.7c0-3.7,2.8-6.2,6.4-6.2c3.7,0,6.4,2.6,6.4,6.2s-2.7,6.2-6.4,6.2C-294.3,313-297,310.4-297,306.7
		z M-287.3,306.7c0-2-1.3-3.5-3.3-3.5c-2,0-3.3,1.5-3.3,3.5c0,2,1.3,3.5,3.3,3.5C-288.6,310.2-287.3,308.7-287.3,306.7z"/>
	<path fill="#1B1E21" d="M-266.8,312.8l-2-4h-1.6v4h-3.1v-12.1h6c2.7,0,4.2,1.8,4.2,4c0,2.1-1.3,3.2-2.4,3.6l2.5,4.4H-266.8z
		 M-266.5,304.7c0-0.8-0.7-1.3-1.5-1.3h-2.5v2.6h2.5C-267.2,306-266.5,305.5-266.5,304.7z"/>
	<path fill="#1B1E21" d="M-252.6,312.8v-12.1h5.1c3.8,0,6.5,2.3,6.5,6c0,3.7-2.7,6-6.5,6H-252.6z M-244.2,306.7
		c0-1.9-1.1-3.3-3.3-3.3h-2v6.6h2C-245.4,310-244.2,308.5-244.2,306.7z"/>
</g>
</svg>
