<svg width="270" height="265" viewBox="0 0 270 265" xmlns="http://www.w3.org/2000/svg" xmlns:xlink="http://www.w3.org/1999/xlink"><defs><rect id="b" width="210" height="210" rx="47.25"/><filter x="-26.2%" y="-16.7%" width="152.4%" height="152.4%" filterUnits="objectBoundingBox" id="a"><feOffset dy="20" in="SourceAlpha" result="shadowOffsetOuter1"/><feGaussianBlur stdDeviation="15" in="shadowOffsetOuter1" result="shadowBlurOuter1"/><feColorMatrix values="0 0 0 0 0 0 0 0 0 0 0 0 0 0 0 0 0 0 0.100911458 0" in="shadowBlurOuter1"/></filter></defs><g fill="none" fill-rule="evenodd"><g transform="translate(30 10)"><use fill="#000" filter="url(#a)" xlink:href="#b"/><use fill="#FFF" xlink:href="#b"/></g><path d="M62 132.75h69.177V150H62v-17.25zm0-8.625h69.177v-17.25H62v17.25zm129.705-43.124H157.09c-9.538.015-17.267 7.732-17.267 17.25H209c0-9.527-7.742-17.25-17.294-17.25zm-34.615 68.997h34.616c9.551 0 17.294-7.722 17.294-17.249h-69.177c0 9.518 7.728 17.234 17.267 17.25zm34.615-43.123h-51.884c0 9.527 7.743 17.25 17.294 17.25H209c0-9.527-7.742-17.25-17.294-17.25zM62 98.25h69.177V81H62v17.25z" fill="#FF756D" fill-rule="nonzero"/></g></svg>