<svg width="295" height="100" viewBox="0 0 295 100" xmlns="http://www.w3.org/2000/svg"><g fill="none" fill-rule="evenodd"><rect fill="#000" width="295" height="100" rx="12"/><path d="M64.58 47.71c-.064-7.152 5.85-10.632 6.12-10.794-3.349-4.89-8.54-5.558-10.364-5.61-4.36-.46-8.588 2.611-10.81 2.611-2.264 0-5.684-2.567-9.37-2.492-4.743.073-9.18 2.823-11.614 7.093-5.022 8.707-1.276 21.502 3.535 28.54 2.407 3.448 5.22 7.294 8.901 7.159 3.602-.147 4.947-2.3 9.294-2.3 4.306 0 5.57 2.3 9.324 2.211 3.865-.058 6.299-3.46 8.622-6.94 2.781-3.946 3.898-7.84 3.943-8.04-.09-.03-7.505-2.864-7.58-11.437m-7.093-21.035c1.937-2.426 3.263-5.726 2.895-9.076-2.804.125-6.31 1.942-8.33 4.315-1.786 2.09-3.382 5.517-2.97 8.74 3.15.235 6.384-1.591 8.405-3.98m59.259 47.047h-5.033l-2.757-8.676h-9.584l-2.626 8.676h-4.9l9.497-29.536h5.864l9.54 29.536zm-8.621-12.315l-2.494-7.71c-.263-.79-.76-2.646-1.487-5.567h-.088a237.71 237.71 0 0 1-1.401 5.567l-2.452 7.71h7.922zm32.997 1.405c0 3.622-.982 6.485-2.948 8.586-1.76 1.871-3.947 2.806-6.556 2.806-2.817 0-4.842-1.006-6.072-3.023v11.174h-4.726v-22.93c0-2.275-.06-4.608-.175-7h4.156l.264 3.378h.088c1.576-2.546 3.968-3.818 7.177-3.818 2.509 0 4.603.992 6.279 2.979 1.673 1.99 2.513 4.605 2.513 7.848zm-4.814.173c0-2.073-.465-3.782-1.4-5.127-1.022-1.4-2.394-2.104-4.114-2.104-1.166 0-2.225.39-3.172 1.163-.948.774-1.569 1.789-1.86 3.047-.146.584-.219 1.06-.219 1.438v3.556c0 1.544.475 2.852 1.423 3.921.949 1.066 2.181 1.6 3.697 1.6 1.78 0 3.165-.69 4.156-2.06.993-1.373 1.49-3.184 1.49-5.434zm29.276-.173c0 3.622-.981 6.485-2.947 8.586-1.762 1.871-3.948 2.806-6.559 2.806-2.814 0-4.84-1.006-6.073-3.023v11.174h-4.725v-22.93c0-2.275-.06-4.608-.175-7h4.156l.264 3.378h.088c1.574-2.546 3.965-3.818 7.177-3.818 2.507 0 4.603.992 6.281 2.979 1.671 1.99 2.513 4.605 2.513 7.848zm-4.816.173c0-2.073-.467-3.782-1.403-5.127-1.02-1.4-2.389-2.104-4.109-2.104-1.166 0-2.225.39-3.176 1.163-.946.774-1.567 1.789-1.857 3.047-.144.584-.222 1.06-.222 1.438v3.556c0 1.544.477 2.852 1.42 3.921.95 1.063 2.182 1.6 3.702 1.6 1.782 0 3.167-.69 4.156-2.06.993-1.373 1.49-3.184 1.49-5.434zm32.167 2.455c0 2.512-.876 4.556-2.622 6.134-1.92 1.722-4.6 2.585-8.035 2.585-3.174 0-5.718-.612-7.637-1.84l1.092-3.943c2.073 1.227 4.349 1.842 6.827 1.842 1.782 0 3.167-.404 4.155-1.206.993-.805 1.492-1.877 1.492-3.218 0-1.2-.412-2.208-1.228-3.027-.818-.814-2.17-1.578-4.067-2.275-5.164-1.928-7.748-4.751-7.748-8.46 0-2.424.913-4.408 2.732-5.96 1.822-1.548 4.238-2.323 7.244-2.323 2.684 0 4.92.469 6.695 1.403l-1.186 3.857c-1.67-.905-3.557-1.358-5.667-1.358-1.667 0-2.976.41-3.91 1.227-.786.73-1.188 1.62-1.188 2.677 0 1.165.455 2.133 1.361 2.89.785.7 2.217 1.462 4.287 2.279 2.54 1.025 4.404 2.22 5.6 3.59 1.204 1.372 1.803 3.083 1.803 5.125m15.663-9.463h-5.209v10.34c0 2.63.918 3.942 2.757 3.942.845 0 1.545-.071 2.1-.22l.13 3.593c-.93.348-2.157.524-3.673.524-1.868 0-3.324-.573-4.38-1.711-1.05-1.141-1.575-3.052-1.575-5.742V55.967h-3.1v-3.551h3.1v-3.9l4.641-1.402v5.302h5.209v3.56m23.453 6.922c0 3.274-.933 5.961-2.801 8.063-1.953 2.162-4.55 3.243-7.788 3.243-3.126 0-5.61-1.037-7.463-3.11-1.853-2.073-2.78-4.687-2.78-7.84 0-3.301.96-6.004 2.866-8.106 1.91-2.102 4.486-3.156 7.724-3.156 3.123 0 5.628 1.04 7.527 3.112 1.813 2.013 2.715 4.607 2.715 7.794zm-4.898.109c0-1.951-.42-3.624-1.265-5.025-.991-1.691-2.412-2.534-4.247-2.534-1.89 0-3.347.843-4.333 2.534-.849 1.4-1.268 3.103-1.268 5.114 0 1.953.42 3.63 1.268 5.024 1.022 1.694 2.447 2.54 4.295 2.54 1.804 0 3.22-.866 4.247-2.58.867-1.433 1.303-3.118 1.303-5.073zm20.265-6.421a8.216 8.216 0 0 0-1.49-.129c-1.662 0-2.948.624-3.852 1.885-.787 1.11-1.18 2.512-1.18 4.205v11.175h-4.724v-14.59c0-2.453-.047-4.692-.138-6.705h4.116l.173 4.075h.13c.502-1.4 1.286-2.53 2.363-3.374 1.055-.763 2.19-1.143 3.416-1.143a7.9 7.9 0 0 1 1.181.087l.005 4.514m21.133 5.48c0 .848-.056 1.562-.173 2.146h-14.174c.051 2.104.74 3.715 2.055 4.825 1.194.99 2.741 1.487 4.636 1.487 2.1 0 4.014-.333 5.736-1.008l.74 3.285c-2.012.877-4.39 1.316-7.13 1.316-3.297 0-5.886-.972-7.77-2.912-1.877-1.942-2.822-4.554-2.822-7.82 0-3.21.874-5.884 2.629-8.017 1.835-2.277 4.315-3.416 7.436-3.416 3.065 0 5.386 1.139 6.96 3.416 1.25 1.804 1.877 4.041 1.877 6.698zm-4.506-1.227c.033-1.405-.277-2.613-.918-3.638-.818-1.318-2.077-1.975-3.763-1.975-1.547 0-2.804.641-3.761 1.928-.787 1.023-1.255 2.255-1.399 3.68l9.84.005zM105.847 33.616h-2.475l-1.355-4.264h-4.71l-1.292 4.264h-2.409l4.668-14.517h2.881l4.692 14.517zm-4.237-6.053l-1.226-3.79c-.129-.389-.366-1.292-.731-2.735h-.045c-.15.624-.365 1.53-.69 2.735l-1.203 3.79h3.895zm15.909-4.414l-3.959 10.467h-2.258l-3.83-10.467h2.496l1.786 5.535c.301.926.559 1.809.751 2.648h.065c.172-.753.43-1.636.751-2.648l1.764-5.535h2.434m8.426 10.467l-.172-1.206h-.065c-.709.97-1.742 1.443-3.054 1.443-1.87 0-3.205-1.314-3.205-3.08 0-2.584 2.237-3.92 6.109-3.92v-.193c0-1.378-.732-2.068-2.172-2.068-1.033 0-1.938.26-2.731.776l-.472-1.529c.968-.604 2.172-.905 3.593-.905 2.73 0 4.109 1.442 4.109 4.33v3.855c0 1.056.044 1.875.15 2.499l-2.09-.002zm-.323-5.214c-2.582 0-3.872.626-3.872 2.11 0 1.1.667 1.637 1.591 1.637 1.184 0 2.28-.904 2.28-2.131v-1.616zm7.436-6.978c-.774 0-1.377-.603-1.377-1.4 0-.797.623-1.378 1.421-1.378.796 0 1.44.581 1.419 1.378 0 .841-.601 1.4-1.463 1.4zm-1.117 1.725h2.323v10.467h-2.323V23.149zm6.449-4.803h2.323v15.27h-2.323zm12.195 15.27l-.175-1.206h-.062c-.71.97-1.742 1.443-3.054 1.443-1.871 0-3.205-1.314-3.205-3.08 0-2.584 2.236-3.92 6.108-3.92v-.193c0-1.378-.731-2.068-2.172-2.068-1.033 0-1.937.26-2.73.776l-.475-1.531c.969-.604 2.172-.906 3.593-.906 2.73 0 4.111 1.443 4.111 4.33v3.856c0 1.056.045 1.875.147 2.499h-2.086zm-.324-5.214c-2.582 0-3.872.626-3.872 2.11 0 1.1.667 1.637 1.592 1.637 1.183 0 2.28-.904 2.28-2.131v-1.616zm11.672 5.451c-1.483 0-2.578-.626-3.29-1.853h-.044l-.133 1.616h-1.977c.062-.84.085-1.79.085-2.821V18.346h2.327v6.334h.042c.69-1.163 1.806-1.744 3.333-1.744 2.518 0 4.282 2.155 4.282 5.298 0 3.249-1.959 5.619-4.625 5.619zm-.472-9.09c-1.337 0-2.56 1.162-2.56 2.778v1.831c0 1.443 1.1 2.628 2.518 2.628 1.74 0 2.777-1.42 2.777-3.682-.002-2.11-1.08-3.556-2.735-3.556zm8.535-6.417h2.32v15.27h-2.32zm14.963 10.596h-6.973c.047 1.981 1.354 3.1 3.29 3.1 1.034 0 1.98-.173 2.818-.495l.362 1.616c-.989.43-2.15.646-3.504.646-3.272 0-5.207-2.069-5.207-5.276 0-3.21 1.982-5.622 4.947-5.622 2.664 0 4.347 1.982 4.347 4.976.006.409-.014.775-.08 1.055zm-2.128-1.658c0-1.616-.82-2.757-2.305-2.757-1.334 0-2.385 1.163-2.54 2.757h4.845zm16.206 6.569c-3.054 0-5.033-2.284-5.033-5.384 0-3.232 2.021-5.535 5.208-5.535 3.008 0 5.034 2.175 5.034 5.364 0 3.271-2.088 5.555-5.209 5.555zm.089-9.22c-1.678 0-2.753 1.572-2.753 3.77 0 2.154 1.097 3.726 2.73 3.726 1.634 0 2.731-1.68 2.731-3.771 0-2.13-1.075-3.724-2.708-3.724zm17.607 8.983h-2.319v-6.01c0-1.852-.711-2.78-2.11-2.78-1.376 0-2.325 1.186-2.325 2.564v6.226h-2.318V26.14c0-.926-.026-1.918-.089-2.994h2.044l.109 1.615h.066c.618-1.118 1.89-1.83 3.311-1.83 2.19 0 3.63 1.68 3.63 4.414v6.27m15.198-8.722h-2.555v5.083c0 1.294.45 1.94 1.352 1.94a4.56 4.56 0 0 0 1.033-.11l.064 1.767c-.452.173-1.057.26-1.804.26-1.833 0-2.923-1.012-2.923-3.662v-5.278h-1.523V23.15h1.523v-1.92l2.278-.69v2.606h2.555v1.746m12.301 8.724h-2.325V27.65c0-1.873-.711-2.821-2.107-2.821-1.204 0-2.32.819-2.32 2.477v6.31h-2.326v-15.27h2.325v6.288h.044c.73-1.141 1.787-1.703 3.141-1.703 2.214 0 3.568 1.723 3.568 4.46v6.225m11.869-4.674h-6.97c.044 1.981 1.352 3.1 3.289 3.1 1.037 0 1.981-.173 2.814-.495l.364 1.616c-.986.43-2.15.646-3.506.646-3.27 0-5.204-2.069-5.204-5.276 0-3.21 1.979-5.622 4.944-5.622 2.667 0 4.347 1.982 4.347 4.976.009.409-.014.775-.078 1.055zm-2.13-1.658c0-1.616-.815-2.757-2.3-2.757-1.335 0-2.387 1.163-2.54 2.757h4.84z" fill="#FFF"/></g></svg>