
<svg width="295px" height="100px" viewBox="0 0 295 100" version="1.1" xmlns="http://www.w3.org/2000/svg" xmlns:xlink="http://www.w3.org/1999/xlink">
    <!-- Generator: Sketch 49.3 (51167) - http://www.bohemiancoding.com/sketch -->
    <desc>Created with Sketch.</desc>
    <defs></defs>
    <g id="Page-1" stroke="none" stroke-width="1" fill="none" fill-rule="evenodd">
        <g id="Artboard-7">
            <g id="Group-5">
                <rect id="background" fill="#000000" x="0" y="0" width="295" height="100" rx="12"></rect>
                <path d="M64.5805864,47.710846 C64.5163114,40.5577716 70.4296097,37.0777776 70.7000079,36.9157626 C67.3510597,32.0264598 62.1603009,31.3584252 60.3362212,31.30516 C55.9766044,30.8457476 51.7477539,33.9173749 49.5269425,33.9173749 C47.2618035,33.9173749 43.8419312,31.3495477 40.1560935,31.4250068 C35.4130432,31.4982464 30.9758531,34.2480631 28.5422693,38.5181578 C23.5199553,47.2248009 27.2656352,60.0195492 32.0773933,67.0572156 C34.4843805,70.5061382 37.296965,74.3523306 40.97837,74.2169482 C44.5799853,74.0704688 45.9253272,71.9176664 50.2716457,71.9176664 C54.5780695,71.9176664 55.8414053,74.2169482 59.5959508,74.1281728 C63.4613151,74.0704688 65.8948989,70.6681533 68.2176638,67.1881593 C70.999219,63.2420947 72.1162738,59.3470759 72.1606014,59.1473313 C72.0719463,59.1184793 64.6559432,56.2843261 64.5805864,47.710846" id="Fill-2" fill="#FFFFFF"></path>
                <path d="M57.4881747,26.6755252 C59.4252896,24.2497385 60.750684,20.9495147 60.3827652,17.6004643 C57.5790462,17.7247498 54.0727351,19.5424252 52.0536142,21.9149467 C50.267213,24.0056063 48.6714203,27.4323351 49.0836668,30.6548805 C52.2331408,30.8901352 55.4668373,29.0635823 57.4881747,26.6755252" id="Fill-3" fill="#FFFFFF"></path>
                <path d="M116.747491,73.7220255 L111.714095,73.7220255 L108.95692,65.0464538 L99.3732986,65.0464538 L96.7468899,73.7220255 L91.8464767,73.7220255 L101.343659,44.1864643 L107.208197,44.1864643 L116.747491,73.7220255 L116.747491,73.7220255 Z M108.125778,61.4066642 L105.632352,53.6965244 C105.368603,52.9064237 104.872134,51.0510188 104.145162,48.1303095 L104.056507,48.1303095 C103.763945,49.3864808 103.296289,51.2418858 102.655755,53.6965244 L100.204441,61.4066642 L108.125778,61.4066642 L108.125778,61.4066642 Z" id="Fill-4" fill="#FFFFFF"></path>
                <path d="M141.123223,62.8115342 C141.123223,66.4335687 140.141368,69.296574 138.17544,71.3983306 C136.415635,73.2692712 134.228069,74.2036319 131.619392,74.2036319 C128.802375,74.2036319 126.776604,73.1982509 125.546514,71.180831 L125.546514,82.355429 L120.821195,82.355429 L120.821195,59.4247543 C120.821195,57.1498858 120.761353,54.8173133 120.646101,52.4248174 L124.801811,52.4248174 L125.06556,55.8027198 L125.154215,55.8027198 C126.73006,53.2570864 129.121533,51.9853794 132.330849,51.9853794 C134.83979,51.9853794 136.934268,52.977444 138.60985,54.9637926 C140.283216,56.95458 141.123223,59.5690143 141.123223,62.8115342 L141.123223,62.8115342 Z M136.309249,62.9846461 C136.309249,60.9117415 135.84381,59.2028159 134.908498,57.8578693 C133.886747,56.457438 132.514809,55.7538933 130.794899,55.7538933 C129.629084,55.7538933 128.569655,56.1445049 127.623261,56.9168505 C126.674651,57.6914155 126.054065,58.7056739 125.763719,59.9640646 C125.617438,60.5477626 125.544298,61.0249301 125.544298,61.4022254 L125.544298,64.9576784 C125.544298,66.5023696 126.018603,67.8095868 126.967213,68.8793298 C127.915823,69.9446341 129.14813,70.4795056 130.664133,70.4795056 C132.443885,70.4795056 133.829121,69.7892772 134.819843,68.4199174 C135.81278,67.0461187 136.309249,65.2351014 136.309249,62.9846461 L136.309249,62.9846461 Z" id="Fill-5" fill="#FFFFFF"></path>
                <path d="M165.585395,62.8115342 C165.585395,66.4335687 164.603539,69.296574 162.637611,71.3983306 C160.87559,73.2692712 158.690241,74.2036319 156.079347,74.2036319 C153.264546,74.2036319 151.238776,73.1982509 150.006469,71.180831 L150.006469,82.355429 L145.28115,82.355429 L145.28115,59.4247543 C145.28115,57.1498858 145.221308,54.8173133 145.106056,52.4248174 L149.261766,52.4248174 L149.525515,55.8027198 L149.61417,55.8027198 C151.187799,53.2570864 153.579272,51.9853794 156.790804,51.9853794 C159.297529,51.9853794 161.394223,52.977444 163.072021,54.9637926 C164.743171,56.95458 165.585395,59.5690143 165.585395,62.8115342 L165.585395,62.8115342 Z M160.769204,62.9846461 C160.769204,60.9117415 160.301548,59.2028159 159.366236,57.8578693 C158.346702,56.457438 156.97698,55.7538933 155.25707,55.7538933 C154.091255,55.7538933 153.031826,56.1445049 152.081,56.9168505 C151.134606,57.6914155 150.51402,58.7056739 150.223674,59.9640646 C150.07961,60.5477626 150.002036,61.0249301 150.002036,61.4022254 L150.002036,64.9576784 C150.002036,66.5023696 150.478558,67.8095868 151.422735,68.8793298 C152.371345,69.9424147 153.603652,70.4795056 155.124087,70.4795056 C156.906056,70.4795056 158.291293,69.7892772 159.279797,68.4199174 C160.272735,67.0461187 160.769204,65.2351014 160.769204,62.9846461 L160.769204,62.9846461 Z" id="Fill-6" fill="#FFFFFF"></path>
                <path d="M192.935507,65.4392847 C192.935507,67.9516273 192.060038,69.9956799 190.313532,71.5736619 C188.394148,73.2959038 185.714546,74.1592442 182.279159,74.1592442 C179.105305,74.1592442 176.560902,73.5466942 174.641518,72.3193749 L175.734193,68.3755297 C177.806507,69.602849 180.082728,70.2176183 182.560639,70.2176183 C184.342607,70.2176183 185.727844,69.8136905 186.716349,69.0124929 C187.709287,68.2068565 188.207972,67.1348941 188.207972,65.7943862 C188.207972,64.5936995 187.795725,63.5860992 186.980098,62.7671465 C186.162254,61.9526326 184.810263,61.1891645 182.913043,60.492278 C177.748881,58.5636334 175.164583,55.740577 175.164583,52.0319865 C175.164583,49.6084192 176.077731,47.62429 177.897378,46.0729406 C179.719242,44.5238107 182.135094,43.7492457 185.140504,43.7492457 C187.824538,43.7492457 190.060864,44.2175357 191.836184,45.1518963 L190.650421,49.0091856 C188.979272,48.1036769 187.093133,47.6509226 184.983141,47.6509226 C183.316424,47.6509226 182.006544,48.0615086 181.073449,48.8782419 C180.286634,49.6084192 179.88547,50.4983922 179.88547,51.5548189 C179.88547,52.7199955 180.339828,53.6876469 181.246326,54.4444568 C182.030924,55.1457821 183.462705,55.9070308 185.532803,56.7237641 C188.072773,57.7491195 189.936747,58.943148 191.133592,60.3147273 C192.337085,61.6863065 192.935507,63.3974515 192.935507,65.4392847" id="Fill-7" fill="#FFFFFF"></path>
                <path d="M208.598655,55.9758317 L203.390166,55.9758317 L203.390166,66.3159414 C203.390166,68.9459113 204.307746,70.2575672 206.147341,70.2575672 C206.991781,70.2575672 207.692157,70.186547 208.246251,70.0378482 L208.377018,73.6310308 C207.446139,73.9794741 206.220481,74.1548054 204.704478,74.1548054 C202.836071,74.1548054 201.37991,73.5822044 200.324914,72.4436604 C199.27435,71.3028971 198.749069,69.3920075 198.749069,66.7021142 L198.749069,55.9669542 L195.648355,55.9669542 L195.648355,52.4159399 L198.749069,52.4159399 L198.749069,48.5164823 L203.390166,47.1138317 L203.390166,52.4159399 L208.598655,52.4159399 L208.598655,55.9758317" id="Fill-8" fill="#FFFFFF"></path>
                <path d="M232.052375,62.8980902 C232.052375,66.1716814 231.119279,68.8593554 229.250872,70.9611119 C227.298242,73.1227919 224.700646,74.2036319 221.462517,74.2036319 C218.337423,74.2036319 215.852863,73.1671796 213.99997,71.094275 C212.147078,69.0213704 211.220631,66.4069361 211.220631,63.2531916 C211.220631,59.9529677 212.180323,57.2497581 214.086409,55.1480015 C215.996927,53.0462449 218.572359,51.9920376 221.810489,51.9920376 C224.933366,51.9920376 227.437874,53.0329286 229.337311,55.1036138 C231.150308,57.116595 232.052375,59.7110548 232.052375,62.8980902 L232.052375,62.8980902 Z M227.154178,63.00684 C227.154178,61.0560015 226.733066,59.382586 225.888625,57.9821548 C224.897904,56.2909842 223.477205,55.4476183 221.642044,55.4476183 C219.751473,55.4476183 218.295312,56.2909842 217.309024,57.9821548 C216.460151,59.382586 216.041255,61.0848535 216.041255,63.0956153 C216.041255,65.0486732 216.460151,66.7265274 217.309024,68.1203005 C218.330774,69.8136905 219.755906,70.6592757 221.604365,70.6592757 C223.408498,70.6592757 224.824764,69.793716 225.850947,68.0803516 C226.717551,66.6466296 227.154178,64.9621172 227.154178,63.00684 L227.154178,63.00684 Z" id="Fill-9" fill="#FFFFFF"></path>
                <path d="M247.418528,56.5861623 C246.950872,56.4996063 246.44997,56.457438 245.929121,56.457438 C244.266837,56.457438 242.981338,57.0810849 242.077055,58.341695 C241.290241,59.4513869 240.897942,60.8540376 240.897942,62.5474275 L240.897942,73.7220255 L236.172622,73.7220255 L236.172622,59.1317956 C236.172622,56.6793764 236.126078,54.440018 236.035207,52.4270368 L240.151022,52.4270368 L240.3239,56.5018257 L240.454666,56.5018257 C240.955568,55.1013944 241.740166,53.971728 242.817326,53.1283621 C243.872322,52.3648941 245.007108,51.9853794 246.232765,51.9853794 C246.669392,51.9853794 247.063907,52.0186702 247.414095,52.0719354 L247.418528,56.5861623" id="Fill-10" fill="#FFFFFF"></path>
                <path d="M268.551698,62.0658212 C268.551698,62.9136258 268.496289,63.6282675 268.378821,64.2119654 L254.205079,64.2119654 C254.256056,66.3159414 254.94535,67.9272141 256.259662,69.0369061 C257.45429,70.0267513 259.001323,70.5238933 260.896326,70.5238933 C262.995237,70.5238933 264.910188,70.1909857 266.632314,69.516293 L267.372585,72.8009812 C265.360113,73.6776379 262.981939,74.1170759 260.242495,74.1170759 C256.944523,74.1170759 254.355793,73.1449857 252.471871,71.2052442 C250.594598,69.2632832 249.650421,66.6510684 249.650421,63.3841352 C249.650421,60.1749061 250.523674,57.5005485 252.279046,55.3677205 C254.114208,53.0906326 256.594335,51.9520887 259.714997,51.9520887 C262.780248,51.9520887 265.100797,53.0906326 266.674426,55.3677205 C267.924463,57.1720796 268.551698,59.4092186 268.551698,62.0658212 L268.551698,62.0658212 Z M264.0458,60.8385019 C264.079046,59.4336319 263.768753,58.226287 263.12822,57.2009316 C262.310376,55.8826176 261.051473,55.2256799 259.364809,55.2256799 C257.817776,55.2256799 256.56109,55.8670819 255.603614,57.1543246 C254.8168,58.1774606 254.349144,59.4092186 254.205079,60.8340631 L264.0458,60.8385019 L264.0458,60.8385019 Z" id="Fill-11" fill="#FFFFFF"></path>
                <path d="M105.847341,33.6155387 L103.371646,33.6155387 L102.017438,29.3521022 L97.3076337,29.3521022 L96.0154849,33.6155387 L93.6062813,33.6155387 L98.2739748,19.0985485 L101.155267,19.0985485 L105.847341,33.6155387 L105.847341,33.6155387 Z M101.609625,27.5632787 L100.383967,23.772571 C100.255417,23.3841788 100.018265,22.4808896 99.6525623,21.03829 L99.6082348,21.03829 C99.457521,21.6619369 99.2425323,22.5674455 98.918941,23.772571 L97.7154474,27.5632787 L101.609625,27.5632787 L101.609625,27.5632787 Z" id="Fill-12" fill="#FFFFFF"></path>
                <path d="M117.518791,23.1489241 L113.560338,33.6155387 L111.301849,33.6155387 L107.471946,23.1489241 L109.967589,23.1489241 L111.75399,28.6840676 C112.055417,29.6095507 112.312517,30.4928655 112.505342,31.3317926 L112.569617,31.3317926 C112.742495,30.5794215 112.999595,29.6961067 113.32097,28.6840676 L115.085207,23.1489241 L117.518791,23.1489241" id="Fill-13" fill="#FFFFFF"></path>
                <path d="M125.945462,33.6155387 L125.772585,32.4104132 L125.70831,32.4104132 C124.999069,33.380284 123.966236,33.8530128 122.65414,33.8530128 C120.783516,33.8530128 119.449257,32.5391375 119.449257,30.7725079 C119.449257,28.189145 121.685583,26.8530759 125.557596,26.8530759 L125.557596,26.6599895 C125.557596,25.2817521 124.826191,24.5915237 123.385545,24.5915237 C122.352713,24.5915237 121.44843,24.8511916 120.654967,25.368308 L120.182878,23.8391525 C121.151435,23.2354801 122.354929,22.9336439 123.775628,22.9336439 C126.506206,22.9336439 127.884794,24.3762434 127.884794,27.2636619 L127.884794,31.1187318 C127.884794,32.1751585 127.929121,32.9941112 128.035507,33.6177581 L125.945462,33.6155387 L125.945462,33.6155387 Z M125.621871,28.4022059 C123.03979,28.4022059 121.749858,29.0280721 121.749858,30.51284 C121.749858,31.611435 122.416988,32.1485259 123.341217,32.1485259 C124.524764,32.1485259 125.621871,31.2452367 125.621871,30.0179174 L125.621871,28.4022059 L125.621871,28.4022059 Z" id="Fill-14" fill="#FFFFFF"></path>
                <path d="M133.057822,21.4244628 C132.284305,21.4244628 131.68145,20.8207904 131.68145,20.0240316 C131.68145,19.2272727 132.304253,18.6457941 133.102149,18.6457941 C133.897829,18.6457941 134.542795,19.2272727 134.520631,20.0240316 C134.520631,20.8651781 133.919993,21.4244628 133.057822,21.4244628 L133.057822,21.4244628 Z M131.940767,23.1489241 L134.263532,23.1489241 L134.263532,33.6155387 L131.940767,33.6155387 L131.940767,23.1489241 Z" id="Fill-15" fill="#FFFFFF"></path>
                <polygon id="Fill-16" fill="#FFFFFF" points="138.390429 18.3461773 140.713193 18.3461773 140.713193 33.6155387 138.390429 33.6155387"></polygon>
                <path d="M150.584944,33.6155387 L150.40985,32.4104132 L150.347791,32.4104132 C149.63855,33.380284 148.605718,33.8530128 147.293622,33.8530128 C145.422998,33.8530128 144.088738,32.5391375 144.088738,30.7725079 C144.088738,28.189145 146.325064,26.8530759 150.197078,26.8530759 L150.197078,26.6599895 C150.197078,25.2817521 149.465673,24.5915237 148.025027,24.5915237 C146.992194,24.5915237 146.087912,24.8511916 145.294448,25.368308 L144.820143,23.8369331 C145.788701,23.2332607 146.992194,22.9314245 148.412893,22.9314245 C151.143471,22.9314245 152.524275,24.374024 152.524275,27.2614425 L152.524275,31.1165124 C152.524275,32.1729391 152.568603,32.9918918 152.670556,33.6155387 L150.584944,33.6155387 L150.584944,33.6155387 Z M150.261353,28.4022059 C147.679272,28.4022059 146.389339,29.0280721 146.389339,30.51284 C146.389339,31.611435 147.056469,32.1485259 147.980699,32.1485259 C149.164245,32.1485259 150.261353,31.2452367 150.261353,30.0179174 L150.261353,28.4022059 L150.261353,28.4022059 Z" id="Fill-17" fill="#FFFFFF"></path>
                <path d="M161.932803,33.8530128 C160.450045,33.8530128 159.355154,33.2271465 158.643697,31.9998272 L158.599369,31.9998272 L158.466387,33.6155387 L156.489377,33.6155387 C156.551435,32.7766116 156.573599,31.8267153 156.573599,30.7947017 L156.573599,18.3461773 L158.900797,18.3461773 L158.900797,24.680299 L158.942908,24.680299 C159.632202,23.5173418 160.749257,22.9358633 162.276341,22.9358633 C164.794148,22.9358633 166.558385,25.090885 166.558385,28.2335327 C166.558385,31.4827107 164.599106,33.8530128 161.932803,33.8530128 L161.932803,33.8530128 Z M161.460714,24.7624162 C160.124238,24.7624162 158.900797,25.9253734 158.900797,27.5410849 L158.900797,29.3720766 C158.900797,30.8146762 160.000121,31.9998272 161.418603,31.9998272 C163.15846,31.9998272 164.195725,30.5794215 164.195725,28.3178693 C164.193509,26.2072352 163.116349,24.7624162 161.460714,24.7624162 L161.460714,24.7624162 Z" id="Fill-18" fill="#FFFFFF"></path>
                <polygon id="Fill-19" fill="#FFFFFF" points="169.995988 18.3461773 172.316537 18.3461773 172.316537 33.6155387 169.995988 33.6155387"></polygon>
                <path d="M184.958761,28.9415162 L177.986033,28.9415162 C178.032577,30.923426 179.340241,32.0419955 181.275139,32.0419955 C182.310188,32.0419955 183.256582,31.8688835 184.094373,31.5470729 L184.455643,33.1627844 C183.467138,33.5933449 182.305755,33.8086251 180.951548,33.8086251 C177.680173,33.8086251 175.745275,31.7401593 175.745275,28.5331495 C175.745275,25.3239204 177.726717,22.91145 180.692232,22.91145 C183.356319,22.91145 185.03855,24.8933599 185.03855,27.8873088 C185.045199,28.2956754 185.025252,28.6618738 184.958761,28.9415162 L184.958761,28.9415162 Z M182.831037,27.2836364 C182.831037,25.6679249 182.010977,24.5271615 180.526003,24.5271615 C179.191743,24.5271615 178.14118,25.6901187 177.986033,27.2836364 L182.831037,27.2836364 L182.831037,27.2836364 Z" id="Fill-20" fill="#FFFFFF"></path>
                <path d="M199.037198,33.8530128 C195.983028,33.8530128 194.003802,31.5692667 194.003802,28.4687874 C194.003802,25.2373644 196.025139,22.9336439 199.212292,22.9336439 C202.219918,22.9336439 204.245688,25.1086401 204.245688,28.2978948 C204.245688,31.5692667 202.157859,33.8530128 199.037198,33.8530128 L199.037198,33.8530128 Z M199.125853,24.633692 C197.448054,24.633692 196.373111,26.2050158 196.373111,28.4022059 C196.373111,30.5572276 197.470218,32.1285515 199.103689,32.1285515 C200.73716,32.1285515 201.834268,30.4484778 201.834268,28.3578182 C201.834268,26.2272096 200.759324,24.633692 199.125853,24.633692 L199.125853,24.633692 Z" id="Fill-21" fill="#FFFFFF"></path>
                <path d="M216.732765,33.6155387 L214.414433,33.6155387 L214.414433,27.605447 C214.414433,25.7544808 213.702976,24.8267784 212.304441,24.8267784 C210.928069,24.8267784 209.979459,26.0119294 209.979459,27.3901668 L209.979459,33.6155387 L207.661127,33.6155387 L207.661127,26.1406536 C207.661127,25.2151705 207.634531,24.2231059 207.572472,23.1467047 L209.615973,23.1467047 L209.724576,24.7624162 L209.791067,24.7624162 C210.409437,23.6438467 211.681638,22.9314245 213.102337,22.9314245 C215.292119,22.9314245 216.732765,24.6114981 216.732765,27.3457791 L216.732765,33.6155387" id="Fill-22" fill="#FFFFFF"></path>
                <path d="M231.930474,24.8933599 L229.374989,24.8933599 L229.374989,29.9757491 C229.374989,31.2696499 229.824914,31.9154906 230.72698,31.9154906 C231.134794,31.9154906 231.482765,31.8711029 231.759813,31.8067408 L231.824087,33.5733704 C231.371946,33.7464823 230.766875,33.8330383 230.019955,33.8330383 C228.18701,33.8330383 227.096552,32.8209992 227.096552,30.1710548 L227.096552,24.8933599 L225.5739,24.8933599 L225.5739,23.1489241 L227.096552,23.1489241 L227.096552,21.2313764 L229.374989,20.541148 L229.374989,23.1467047 L231.930474,23.1467047 L231.930474,24.8933599" id="Fill-23" fill="#FFFFFF"></path>
                <path d="M244.231375,33.6155387 L241.906394,33.6155387 L241.906394,27.6498347 C241.906394,25.7766747 241.194936,24.8289977 239.798618,24.8289977 C238.595124,24.8289977 237.478069,25.6479504 237.478069,27.3058302 L237.478069,33.6155387 L235.153088,33.6155387 L235.153088,18.3461773 L237.478069,18.3461773 L237.478069,24.633692 L237.522397,24.633692 C238.251586,23.4929286 239.308798,22.9314245 240.663006,22.9314245 C242.877168,22.9314245 244.231375,24.6536664 244.231375,27.3901668 L244.231375,33.6155387" id="Fill-24" fill="#FFFFFF"></path>
                <path d="M256.100083,28.9415162 L249.129572,28.9415162 C249.1739,30.923426 250.481563,32.0419955 252.418678,32.0419955 C253.455943,32.0419955 254.400121,31.8688835 255.233479,31.5470729 L255.596965,33.1627844 C254.610677,33.5933449 253.447078,33.8086251 252.090654,33.8086251 C248.821495,33.8086251 246.886597,31.7401593 246.886597,28.5331495 C246.886597,25.3239204 248.865823,22.91145 251.831338,22.91145 C254.497641,22.91145 256.177656,24.8933599 256.177656,27.8873088 C256.186522,28.2956754 256.164358,28.6618738 256.100083,28.9415162 L256.100083,28.9415162 Z M253.970143,27.2836364 C253.970143,25.6679249 253.154516,24.5271615 251.669542,24.5271615 C250.335282,24.5271615 249.282502,25.6901187 249.129572,27.2836364 L253.970143,27.2836364 L253.970143,27.2836364 Z" id="Fill-25" fill="#FFFFFF"></path>
            </g>
        </g>
    </g>
</svg>