
<svg width="244px" height="190px" viewBox="0 0 244 190" version="1.1" xmlns="http://www.w3.org/2000/svg" xmlns:xlink="http://www.w3.org/1999/xlink">
    <!-- Generator: Sketch 49.3 (51167) - http://www.bohemiancoding.com/sketch -->
    <desc>Created with Sketch.</desc>
    <defs></defs>
    <g id="Page-1" stroke="none" stroke-width="1" fill="none" fill-rule="evenodd">
        <g id="Artboard-4">
            <g id="Page-1">
                <polygon id="Fill-1" fill="#FEFEFE" points="140.2109 131.2287 195.2939 103.2377 119.5389 63.5617 63.1069 92.0027"></polygon>
                <polygon id="Stroke-2" stroke="#231F20" points="140.2109 131.2287 195.2939 103.2377 119.5389 63.5617 63.1069 92.0027"></polygon>
                <polygon id="Fill-3" fill="#FEFEFE" points="140.2109 122.2287 195.2939 94.2377 119.5389 54.5617 63.1069 83.0027"></polygon>
                <polygon id="Stroke-4" stroke="#231F20" points="140.2109 122.2287 195.2939 94.2377 119.5389 54.5617 63.1069 83.0027"></polygon>
                <polygon id="Fill-5" fill="#FEFEFE" points="140.2109 113.2287 195.2939 85.2377 119.5389 45.5617 63.1069 74.0027"></polygon>
                <polygon id="Stroke-6" stroke="#231F20" points="140.2109 113.2287 195.2939 85.2377 119.5389 45.5617 63.1069 74.0027"></polygon>
                <polygon id="Fill-7" fill="#FEFEFE" points="140.2109 104.2287 195.2939 76.2377 119.5389 36.5617 63.1069 65.0027"></polygon>
                <polygon id="Stroke-8" stroke="#231F20" points="140.2109 104.2287 195.2939 76.2377 119.5389 36.5617 63.1069 65.0027"></polygon>
                <polygon id="Fill-9" fill="#FEFEFE" points="140.2109 95.2287 195.2939 67.2377 119.5389 27.5617 63.1069 56.0027"></polygon>
                <polygon id="Stroke-10" stroke="#231F20" points="140.2109 95.2287 195.2939 67.2377 119.5389 27.5617 63.1069 56.0027"></polygon>
                <polygon id="Fill-11" fill="#FEFEFE" points="140.2109 86.2287 195.2939 58.2377 119.5389 18.5617 63.1069 47.0027"></polygon>
                <polygon id="Stroke-12" stroke="#231F20" points="140.2109 86.2287 195.2939 58.2377 119.5389 18.5617 63.1069 47.0027"></polygon>
                <polygon id="Fill-13" fill="#FEFEFE" points="140.2109 77.2287 195.2939 49.2377 119.5389 9.5617 63.1069 38.0027"></polygon>
                <polygon id="Stroke-14" stroke="#231F20" points="140.2109 77.2287 195.2939 49.2377 119.5389 9.5617 63.1069 38.0027"></polygon>
                <polygon id="Fill-15" fill="#FEFEFE" points="140.2109 68.2287 195.2939 40.2377 119.5389 0.5617 63.1069 29.0027"></polygon>
                <polygon id="Stroke-16" stroke="#231F20" points="140.2109 68.2287 195.2939 40.2377 119.5389 0.5617 63.1069 29.0027"></polygon>
                <polygon id="Fill-18" fill="#FEFEFE" points="77.2109 162.5621 132.2939 134.5711 56.5389 94.8951 0.1069 123.3361"></polygon>
                <polygon id="Stroke-19" stroke="#231F20" points="77.2109 162.5621 132.2939 134.5711 56.5389 94.8951 0.1069 123.3361"></polygon>
                <polygon id="Fill-21" fill="#FEFEFE" points="77.2109 153.5621 132.2939 125.5711 56.5389 85.8951 0.1069 114.3361"></polygon>
                <polygon id="Stroke-22" stroke="#231F20" points="77.2109 153.5621 132.2939 125.5711 56.5389 85.8951 0.1069 114.3361"></polygon>
                <polygon id="Fill-24" fill="#FEFEFE" points="77.2109 144.5621 132.2939 116.5711 56.5389 76.8951 0.1069 105.3361"></polygon>
                <polygon id="Stroke-25" stroke="#231F20" points="77.2109 144.5621 132.2939 116.5711 56.5389 76.8951 0.1069 105.3361"></polygon>
                <polygon id="Fill-27" fill="#FEFEFE" points="77.2109 135.5621 132.2939 107.5711 56.5389 67.8951 0.1069 96.3361"></polygon>
                <polygon id="Stroke-28" stroke="#231F20" points="77.2109 135.5621 132.2939 107.5711 56.5389 67.8951 0.1069 96.3361"></polygon>
                <polygon id="Fill-30" fill="#FEFEFE" points="77.2109 126.5621 132.2939 98.5711 56.5389 58.8951 0.1069 87.3361"></polygon>
                <polygon id="Stroke-31" stroke="#231F20" points="77.2109 126.5621 132.2939 98.5711 56.5389 58.8951 0.1069 87.3361"></polygon>
                <polygon id="Fill-33" fill="#FEFEFE" points="77.2109 117.5621 132.2939 89.5711 56.5389 49.8951 0.1069 78.3361"></polygon>
                <polygon id="Stroke-34" stroke="#231F20" points="77.2109 117.5621 132.2939 89.5711 56.5389 49.8951 0.1069 78.3361"></polygon>
                <polygon id="Fill-36" fill="#FEFEFE" points="110.9195 150.3358 188.0235 189.5628 243.1065 161.5708 167.3515 121.8958"></polygon>
                <polygon id="Stroke-37" stroke="#231F20" points="188.0233 189.5621 243.1063 161.5711 167.3513 121.8951 110.9193 150.3361"></polygon>
                <polygon id="Fill-39" fill="#FEFEFE" points="188.0233 180.5621 243.1063 152.5711 167.3513 112.8951 110.9193 141.3361"></polygon>
                <polygon id="Stroke-40" stroke="#231F20" points="188.0233 180.5621 243.1063 152.5711 167.3513 112.8951 110.9193 141.3361"></polygon>
                <polygon id="Fill-42" fill="#FEFEFE" points="188.0233 171.5621 243.1063 143.5711 167.3513 103.8951 110.9193 132.3361"></polygon>
                <polygon id="Stroke-43" stroke="#231F20" points="188.0233 171.5621 243.1063 143.5711 167.3513 103.8951 110.9193 132.3361"></polygon>
                <polygon id="Fill-45" fill="#FEFEFE" points="188.0233 162.5621 243.1063 134.5711 167.3513 94.8951 110.9193 123.3361"></polygon>
                <polygon id="Stroke-46" stroke="#231F20" points="188.0233 162.5621 243.1063 134.5711 167.3513 94.8951 110.9193 123.3361"></polygon>
            </g>
        </g>
    </g>
</svg>