<svg width="244" height="190" viewBox="0 0 244 190" xmlns="http://www.w3.org/2000/svg"><g fill="none" fill-rule="evenodd"><path fill="#FEFEFE" d="M140.21 131.229l55.084-27.991-75.755-39.676-56.432 28.44z"/><path stroke="#231F20" d="M140.21 131.229l55.084-27.991-75.755-39.676-56.432 28.44z"/><path fill="#FEFEFE" d="M140.21 122.229l55.084-27.991-75.755-39.676-56.432 28.44z"/><path stroke="#231F20" d="M140.21 122.229l55.084-27.991-75.755-39.676-56.432 28.44z"/><path fill="#FEFEFE" d="M140.21 113.229l55.084-27.991-75.755-39.676-56.432 28.44z"/><path stroke="#231F20" d="M140.21 113.229l55.084-27.991-75.755-39.676-56.432 28.44z"/><path fill="#FEFEFE" d="M140.21 104.229l55.084-27.991-75.755-39.676-56.432 28.44z"/><path stroke="#231F20" d="M140.21 104.229l55.084-27.991-75.755-39.676-56.432 28.44z"/><path fill="#FEFEFE" d="M140.21 95.229l55.084-27.991-75.755-39.676-56.432 28.44z"/><path stroke="#231F20" d="M140.21 95.229l55.084-27.991-75.755-39.676-56.432 28.44z"/><path fill="#FEFEFE" d="M140.21 86.229l55.084-27.991-75.755-39.676-56.432 28.44z"/><path stroke="#231F20" d="M140.21 86.229l55.084-27.991-75.755-39.676-56.432 28.44z"/><path fill="#FEFEFE" d="M140.21 77.229l55.084-27.991-75.755-39.676-56.432 28.44z"/><path stroke="#231F20" d="M140.21 77.229l55.084-27.991-75.755-39.676-56.432 28.44z"/><path fill="#FEFEFE" d="M140.21 68.229l55.084-27.991L119.539.562l-56.432 28.44z"/><path stroke="#231F20" d="M140.21 68.229l55.084-27.991L119.539.562l-56.432 28.44z"/><path fill="#FEFEFE" d="M77.21 162.562l55.084-27.99-75.755-39.677L.107 123.336z"/><path stroke="#231F20" d="M77.21 162.562l55.084-27.99-75.755-39.677L.107 123.336z"/><path fill="#FEFEFE" d="M77.21 153.562l55.084-27.99-75.755-39.677L.107 114.336z"/><path stroke="#231F20" d="M77.21 153.562l55.084-27.99-75.755-39.677L.107 114.336z"/><path fill="#FEFEFE" d="M77.21 144.562l55.084-27.99-75.755-39.677L.107 105.336z"/><path stroke="#231F20" d="M77.21 144.562l55.084-27.99-75.755-39.677L.107 105.336z"/><path fill="#FEFEFE" d="M77.21 135.562l55.084-27.99-75.755-39.677L.107 96.336z"/><path stroke="#231F20" d="M77.21 135.562l55.084-27.99-75.755-39.677L.107 96.336z"/><path fill="#FEFEFE" d="M77.21 126.562l55.084-27.99-75.755-39.677L.107 87.336z"/><path stroke="#231F20" d="M77.21 126.562l55.084-27.99-75.755-39.677L.107 87.336z"/><path fill="#FEFEFE" d="M77.21 117.562l55.084-27.99-75.755-39.677L.107 78.336z"/><path stroke="#231F20" d="M77.21 117.562l55.084-27.99-75.755-39.677L.107 78.336z"/><path fill="#FEFEFE" d="M110.92 150.336l77.104 39.227 55.083-27.992-75.756-39.675z"/><path stroke="#231F20" d="M188.023 189.562l55.083-27.99-75.755-39.677-56.432 28.441z"/><path fill="#FEFEFE" d="M188.023 180.562l55.083-27.99-75.755-39.677-56.432 28.441z"/><path stroke="#231F20" d="M188.023 180.562l55.083-27.99-75.755-39.677-56.432 28.441z"/><path fill="#FEFEFE" d="M188.023 171.562l55.083-27.99-75.755-39.677-56.432 28.441z"/><path stroke="#231F20" d="M188.023 171.562l55.083-27.99-75.755-39.677-56.432 28.441z"/><path fill="#FEFEFE" d="M188.023 162.562l55.083-27.99-75.755-39.677-56.432 28.441z"/><path stroke="#231F20" d="M188.023 162.562l55.083-27.99-75.755-39.677-56.432 28.441z"/></g></svg>