<svg style="width: 49px; height: 59px;" viewBox="0 0 49 59" fill="none" xmlns="http://www.w3.org/2000/svg">
	<path d="M4.192 17.76V-0.16H5.408V7.92H9.6V9.136H5.408V17.76H4.192ZM9.59375 9.136V7.92H19.1938V9.136H9.59375ZM23.3795 17.76V9.136H19.1875V7.92H28.7875V9.136H24.5955V17.76H23.3795ZM28.7812 9.136V7.92H38.3813V9.136H28.7812Z" transform="translate(15 39) rotate(-90)" fill="#211F6D"/>
	<path d="M4.192 9.12V-0.16H5.408V7.904H9.6V9.12H4.192ZM9.59375 9.136V7.92H19.1938V9.136H9.59375ZM19.1875 9.136V7.92H28.7875V9.136H19.1875Z" transform="translate(10 29.5) rotate(90)" fill="#211F6D"/>
	<path d="M4.192 9.12V-0.16H5.408V7.904H9.6V9.12H4.192ZM9.59375 9.136V7.92H19.1938V9.136H9.59375ZM19.1875 9.136V7.92H28.7875V9.136H19.1875Z" transform="translate(39 29.5) scale(-1 1) rotate(90)" fill="#211F6D"/>
</svg>