<svg style="width:49px;height:59px" viewBox="0 0 49 59" fill="none" xmlns="http://www.w3.org/2000/svg"><path d="M32.76 34.808H14.84v-1.216h8.08V29.4h1.216v4.192h8.624v1.216zm-8.624-5.402H22.92v-9.6h1.216v9.6zm8.624-13.785h-8.624v4.191H22.92v-9.6h1.216v4.192h8.624v1.216zm-8.624-5.402H22.92v-9.6h1.216v9.6zM.88 33.692h9.28v1.216H2.096V39.1H.88v-5.408zm-.016 5.402H2.08v9.6H.864v-9.6zm0 9.593H2.08v9.6H.864v-9.6zM48.12 33.692h-9.28v1.216h8.064V39.1h1.216v-5.408zm.016 5.402H46.92v9.6h1.216v-9.6zm0 9.593H46.92v9.6h1.216v-9.6z" fill="#211F6D"/></svg>