<svg style="width:141.602px;height:11.487px" viewBox="0 0 141.602 11.487"><path fill="#FFF" d="M5.471 7.791c0 .511-.16.875-.488 1.111-.352.256-.886.385-1.585.385H2.387V6.456h1.011c1.858 0 2.073.763 2.073 1.335zm-.917-3.568c-.264.225-.734.339-1.394.339h-.773V2.2h.821c.611 0 1.066.094 1.352.279.25.162.373.428.373.813 0 .412-.124.716-.379.931zm1.45 1.115c.325-.181.59-.418.79-.709a2.714 2.714 0 0 0 .493-1.562c0-.53-.105-.989-.313-1.362a2.415 2.415 0 0 0-.867-.9 3.883 3.883 0 0 0-1.252-.47A7.625 7.625 0 0 0 3.334.192H.274A.277.277 0 0 0 0 .471v10.545c0 .154.123.278.274.278h3.315a6.62 6.62 0 0 0 1.645-.194 3.937 3.937 0 0 0 1.345-.615c.388-.283.694-.641.91-1.067.213-.426.322-.93.322-1.498 0-.78-.226-1.413-.672-1.879-.292-.304-.672-.539-1.135-.703zm16.193 3.82h-4.595V.471a.277.277 0 0 0-.274-.278h-1.824a.276.276 0 0 0-.273.278v10.545c0 .154.122.278.273.278h6.693a.276.276 0 0 0 .274-.278v-1.58a.277.277 0 0 0-.274-.278zm12.879-3.463c0 .567-.051 1.086-.151 1.543-.1.45-.24.836-.416 1.149-.167.299-.37.53-.603.688-.461.312-1.061.3-1.505-.001a1.982 1.982 0 0 1-.604-.688 4.108 4.108 0 0 1-.407-1.146 7.598 7.598 0 0 1-.144-1.546c0-1.126.187-2.013.556-2.638.346-.587.791-.873 1.36-.873.568 0 1.012.285 1.359.873.368.626.555 1.513.555 2.639zm1.243-4.154A3.91 3.91 0 0 0 34.938.397c-1.076-.529-2.477-.529-3.553 0a3.902 3.902 0 0 0-1.381 1.144c-.373.487-.669 1.09-.879 1.792-.208.696-.313 1.49-.313 2.362 0 .882.105 1.685.313 2.386.21.706.504 1.318.876 1.821.378.511.844.908 1.382 1.179.538.27 1.136.407 1.779.407.642 0 1.24-.137 1.778-.408a3.889 3.889 0 0 0 1.382-1.178c.372-.503.667-1.115.876-1.821.208-.7.314-1.502.314-2.386 0-.873-.105-1.667-.314-2.363-.21-.701-.506-1.304-.879-1.791zM51.29 8.346a.27.27 0 0 0-.406 0 3.273 3.273 0 0 1-.871.715c-.602.33-1.469.308-2.099.002a2.419 2.419 0 0 1-.841-.681 3.314 3.314 0 0 1-.554-1.116 5.418 5.418 0 0 1-.203-1.539c0-.56.068-1.07.203-1.515.132-.437.316-.81.548-1.111.227-.293.504-.522.825-.68.614-.302 1.45-.317 2.02-.032.283.142.543.333.775.568.054.054.147.088.2.081a.274.274 0 0 0 .196-.092l1.03-1.161a.28.28 0 0 0-.01-.383 5.553 5.553 0 0 0-1.317-.968c-1.105-.597-2.643-.547-3.841-.044a4.548 4.548 0 0 0-1.618 1.149c-.451.498-.809 1.113-1.064 1.827-.253.71-.381 1.521-.381 2.408 0 .899.128 1.712.381 2.417.255.709.614 1.317 1.066 1.805.454.489.993.865 1.603 1.115a5.15 5.15 0 0 0 1.966.374c.695 0 1.333-.142 1.897-.423a4.847 4.847 0 0 0 1.513-1.204.281.281 0 0 0-.004-.368L51.29 8.346zm12.819-3.738L67.184.642a.28.28 0 0 0 .031-.293.272.272 0 0 0-.245-.157h-2.046a.272.272 0 0 0-.215.106l-3.254 4.218V.47a.276.276 0 0 0-.274-.277h-1.855a.276.276 0 0 0-.274.277v10.546c0 .153.122.278.274.278h1.855a.277.277 0 0 0 .274-.278V8.034l1.185-1.483 2.392 4.594a.274.274 0 0 0 .242.148h2.046a.273.273 0 0 0 .236-.138.283.283 0 0 0 .003-.276l-3.45-6.271zm16.897 1.48a3.595 3.595 0 0 0-.773-.647 5.728 5.728 0 0 0-.94-.47l-1.368-.598a62.536 62.536 0 0 0-.679-.276 2.624 2.624 0 0 1-.516-.27 1.152 1.152 0 0 1-.315-.311.654.654 0 0 1-.097-.369c0-.297.112-.514.351-.683.263-.187.64-.281 1.12-.281.437 0 .833.074 1.179.22.355.151.702.36 1.03.623a.27.27 0 0 0 .381-.044l.952-1.193a.283.283 0 0 0-.026-.38A5.314 5.314 0 0 0 79.708.381c-1.114-.467-2.435-.495-3.459-.144-.469.161-.88.389-1.221.678a3.254 3.254 0 0 0-.815 1.031 2.87 2.87 0 0 0-.299 1.296c0 .422.072.806.213 1.141.139.33.328.623.561.873.228.243.488.454.771.626.277.169.564.312.841.42l1.425.634c.249.095.479.19.692.285a2.7 2.7 0 0 1 .504.285c.122.09.216.193.281.308.06.107.091.246.091.411a.89.89 0 0 1-.381.76c-.278.21-.709.316-1.28.316-.467 0-.934-.103-1.388-.307a4.697 4.697 0 0 1-1.254-.814.27.27 0 0 0-.39.026L73.522 9.48a.283.283 0 0 0 .02.385 5.857 5.857 0 0 0 4.057 1.623c.63 0 1.205-.09 1.707-.265a3.942 3.942 0 0 0 1.294-.729 3.24 3.24 0 0 0 .823-1.085 3.13 3.13 0 0 0 .288-1.328c0-.419-.062-.797-.185-1.123a2.759 2.759 0 0 0-.52-.87zM96.557.192h-8.374a.275.275 0 0 0-.273.278v1.58c0 .154.122.278.273.278h2.994v8.687c0 .154.122.278.274.278h1.84a.275.275 0 0 0 .273-.278V2.328h2.994a.276.276 0 0 0 .274-.278V.47a.278.278 0 0 0-.275-.278zm10.586 2.71c.074.282.149.566.226.851l.725 2.664h-1.906l.265-.934c.159-.561.315-1.135.469-1.723.074-.287.149-.572.221-.858zm1.369-2.518a.276.276 0 0 0-.261-.192h-2.157a.274.274 0 0 0-.26.192l-3.362 10.546a.28.28 0 0 0 .261.364h1.871a.275.275 0 0 0 .263-.201l.752-2.653h3.044l.736 2.651c.034.12.141.203.263.203h1.951a.279.279 0 0 0 .26-.364L108.512.384zm16.79 7.962a.279.279 0 0 0-.406 0 3.305 3.305 0 0 1-.87.715c-.603.329-1.469.308-2.1.002a2.419 2.419 0 0 1-.841-.681 3.332 3.332 0 0 1-.554-1.116 5.404 5.404 0 0 1-.202-1.539c0-.561.068-1.071.202-1.515.132-.437.316-.811.549-1.111.226-.293.503-.522.823-.68.614-.302 1.45-.317 2.02-.032.283.142.544.332.775.567a.257.257 0 0 0 .2.082.27.27 0 0 0 .196-.092l1.031-1.161a.281.281 0 0 0-.01-.383 5.56 5.56 0 0 0-1.318-.968c-1.105-.597-2.644-.547-3.841-.044a4.548 4.548 0 0 0-1.618 1.149c-.451.498-.809 1.113-1.063 1.827-.254.71-.382 1.521-.382 2.409 0 .899.128 1.712.382 2.417.254.709.612 1.317 1.065 1.805.453.489.993.864 1.604 1.115a5.146 5.146 0 0 0 1.965.374c.695 0 1.333-.142 1.897-.423a4.874 4.874 0 0 0 1.514-1.204.281.281 0 0 0-.004-.368l-1.014-1.145zm16.265 2.534l-3.448-6.272 3.075-3.966a.28.28 0 0 0 .031-.293.272.272 0 0 0-.246-.157h-2.045a.27.27 0 0 0-.215.106l-3.254 4.217V.47a.275.275 0 0 0-.274-.277h-1.856a.276.276 0 0 0-.274.277v10.546c0 .153.123.278.274.278h1.856a.277.277 0 0 0 .274-.278V8.035l1.185-1.484 2.392 4.594a.273.273 0 0 0 .242.148h2.045a.278.278 0 0 0 .238-.413z"/></svg>