<svg width="35.409" height="36" viewBox="0 0 35.409 36"><path d="M35.409 24.647s.008 3.752-.393 5.378c-.402 1.626-1.14 2.76-1.957 3.592-.821.834-1.909 1.593-3.568 1.989-1.658.396-5.256.389-5.256.389L11.163 36s-3.691.008-5.29-.4c-1.6-.408-2.715-1.158-3.533-1.989-.821-.835-1.567-1.94-1.957-3.627C-.007 28.299 0 24.641 0 24.641V11.353s-.009-3.752.393-5.378c.402-1.627 1.14-2.761 1.957-3.592C3.172 1.549 4.26.79 5.918.394c1.659-.395 5.257-.389 5.257-.389L24.246 0s3.691-.008 5.29.4c1.6.409 2.715 1.159 3.533 1.99.821.835 1.568 1.94 1.957 3.627.389 1.685.382 5.343.382 5.343v13.287zM11.948 14.445c1.599 0 2.894-1.313 2.894-2.933 0-1.619-1.296-2.933-2.894-2.933-1.599 0-2.894 1.313-2.894 2.933 0 1.619 1.296 2.933 2.894 2.933zm11.577 0c1.599 0 2.894-1.313 2.894-2.933 0-1.619-1.296-2.933-2.894-2.933-1.599 0-2.894 1.313-2.894 2.933 0 1.619 1.296 2.933 2.894 2.933zm0 11.732c1.599 0 2.894-1.313 2.894-2.933s-1.296-2.933-2.894-2.933c-1.599 0-2.894 1.313-2.894 2.933s1.296 2.933 2.894 2.933zm-11.577 0c1.599 0 2.894-1.313 2.894-2.933s-1.296-2.933-2.894-2.933c-1.599 0-2.894 1.313-2.894 2.933s1.296 2.933 2.894 2.933z"/></svg>