
<svg width="211px" height="180px" viewBox="0 0 211 180" version="1.1" xmlns="http://www.w3.org/2000/svg" xmlns:xlink="http://www.w3.org/1999/xlink">
    <!-- Generator: Sketch 49.3 (51167) - http://www.bohemiancoding.com/sketch -->
    <desc>Created with Sketch.</desc>
    <defs></defs>
    <g id="Page-1" stroke="none" stroke-width="1" fill="none" fill-rule="evenodd">
        <g id="Artboard-3">
            <g id="Page-1">
                <polyline id="Stroke-3" stroke="#FF756D" stroke-width="3" points="32.6667 147.7876 32.6667 37.6286 177.9997 37.6286 177.9997 147.7876"></polyline>
                <path d="M71.1563,65.3732 C71.1563,71.3072 66.3453,76.1182 60.4113,76.1182 C54.4773,76.1182 49.6663,71.3072 49.6663,65.3732 C49.6663,59.4392 54.4773,54.6282 60.4113,54.6282 C66.3453,54.6282 71.1563,59.4392 71.1563,65.3732 Z" id="Stroke-5" stroke="#FF756D" stroke-width="3"></path>
                <path d="M92.6667,58.6284 L119.6667,58.6284" id="Stroke-7" stroke="#FF756D" stroke-width="3"></path>
                <path d="M92.8333,23.118 L104.8333,23.118" id="Stroke-9" stroke="#FF756D" stroke-width="3"></path>
                <path d="M92.8333,19.118 L104.8333,19.118" id="Stroke-11" stroke="#FF756D" stroke-width="3"></path>
                <path d="M92.8333,15.118 L104.8333,15.118" id="Stroke-13" stroke="#FF756D" stroke-width="3"></path>
                <path d="M105.8333,23.118 L117.8333,23.118" id="Stroke-15" stroke="#FF756D" stroke-width="3"></path>
                <path d="M105.8333,19.118 L117.8333,19.118" id="Stroke-17" stroke="#FF756D" stroke-width="3"></path>
                <path d="M105.8333,15.118 L117.8333,15.118" id="Stroke-19" stroke="#FF756D" stroke-width="3"></path>
                <path d="M92.6667,64.6284 L129.6667,64.6284" id="Stroke-21" stroke="#FF756D" stroke-width="3"></path>
                <path d="M92.6667,70.6284 L114.6667,70.6284" id="Stroke-23" stroke="#FF756D" stroke-width="3"></path>
                <path d="M49.6667,99.6284 L72.6667,99.6284" id="Stroke-25" stroke="#FF756D" stroke-width="3"></path>
                <path d="M49.6667,105.6284 L76.6667,105.6284" id="Stroke-27" stroke="#FF756D" stroke-width="3"></path>
                <path d="M49.6667,111.6284 L69.6667,111.6284" id="Stroke-29" stroke="#FF756D" stroke-width="3"></path>
                <polyline id="Fill-31" fill="#FF756D" points="93.6667 147.2876 93.6667 97.6286 164.9037 97.6286 164.9037 147.2876"></polyline>
                <path d="M153.7771,136.0961 L130.6261,112.9451" id="Stroke-33" stroke="#FEFEFE" stroke-width="2"></path>
                <path d="M155.3869,124.4411 L143.8909,112.9451" id="Stroke-35" stroke="#FEFEFE" stroke-width="2"></path>
                <path d="M140.776,136.3599 L117.361,112.9449" id="Stroke-37" stroke="#FEFEFE" stroke-width="2"></path>
                <path d="M127.5111,136.3599 L104.0961,112.9449" id="Stroke-39" stroke="#FEFEFE" stroke-width="2"></path>
                <path d="M113.9824,136.0961 L102.3274,124.4411" id="Stroke-41" stroke="#FEFEFE" stroke-width="2"></path>
                <path d="M155.3869,124.5516 L143.5789,136.3596" id="Stroke-43" stroke="#FEFEFE" stroke-width="2"></path>
                <path d="M153.7288,112.9448 L130.3138,136.3598" id="Stroke-45" stroke="#FEFEFE" stroke-width="2"></path>
                <path d="M140.4639,112.9448 L117.0489,136.3598" id="Stroke-47" stroke="#FEFEFE" stroke-width="2"></path>
                <path d="M127.1991,112.9448 L103.7841,136.3598" id="Stroke-49" stroke="#FEFEFE" stroke-width="2"></path>
                <path d="M113.9342,112.9448 L102.3272,124.5518" id="Stroke-51" stroke="#FEFEFE" stroke-width="2"></path>
                <path d="M155.4975,140.4695 L155.4975,108.5235" id="Stroke-53" stroke="#FEFEFE" stroke-width="2"></path>
                <path d="M102.4379,140.4695 L102.4379,108.5235" id="Stroke-55" stroke="#FEFEFE" stroke-width="2"></path>
                <path d="M155.3869,112.9448 L102.4379,112.9448" id="Stroke-57" stroke="#FEFEFE" stroke-width="2"></path>
                <path d="M155.3869,136.3599 L102.4379,136.3599" id="Stroke-59" stroke="#FEFEFE" stroke-width="2"></path>
                <g id="Group-2" stroke="#C3C9CD" stroke-width="3">
                    <path d="M199.0841,0.5004 C205.2051,0.5004 210.1671,5.4624 210.1671,11.5834 L210.1671,136.7054 C210.1671,142.8254 205.2051,147.7874 199.0841,147.7874 L11.5831,147.7874 C5.4621,147.7874 0.5001,142.8254 0.5001,136.7054 L0.5001,11.5834 C0.5001,5.4624 5.4621,0.5004 11.5831,0.5004 L199.0841,0.5004 Z" id="Stroke-1"></path>
                    <path d="M87.5098,147.144 C87.5098,147.144 85.0098,169.644 58.5098,179.144 L152.1568,179.144 C125.6568,169.644 123.1568,147.144 123.1568,147.144" id="Stroke-61" stroke-linejoin="round"></path>
                </g>
            </g>
        </g>
    </g>
</svg>