<svg width="182" height="172" viewBox="0 0 182 172" xmlns="http://www.w3.org/2000/svg"><g fill="none" fill-rule="evenodd"><path d="M.75 36.25l56 56m-56-26l26 26M4.5 10l82.25 82.25M34.5 10l82.25 82.25M64.5 10l82.25 82.25M94.5 10l82.25 82.25M124.5 10l56 56m-26-56l26 26M.75 66l56-56m-56 26l26-26M4.5 92.25L86.75 10M34.5 92.25L116.75 10M64.5 92.25L146.75 10M94.5 92.25L176.75 10M124.5 92.25l56-56m-26 56L180.75 66M.5 0v102.25M180.5 0v102.25M.75 10h180M.75 92.25h180" opacity=".3" stroke="#384B59" stroke-width="3"/><path d="M124.787 159.084c0 6.121-4.962 11.083-11.083 11.083H68.582c-6.12 0-11.082-4.962-11.082-11.083v-97.5c0-6.122 4.962-11.084 11.082-11.084h45.122c6.121 0 11.083 4.962 11.083 11.083v97.501z" fill="#FFF"/><path d="M124.787 159.084c0 6.121-4.962 11.083-11.083 11.083H68.582c-6.12 0-11.082-4.962-11.082-11.083v-97.5c0-6.122 4.962-11.084 11.082-11.084h45.122c6.121 0 11.083 4.962 11.083 11.083v97.501z" stroke="#FF756D" stroke-width="3"/><path d="M97.464 156.847a6.32 6.32 0 1 0-12.642 0 6.32 6.32 0 0 0 12.642 0zm18.544-39.79l-23.15-23.151m24.76 11.496l-11.496-11.496m-3.115 23.414L79.592 93.907m10.15 23.413L66.327 93.907m9.887 23.15l-11.655-11.655m53.059.11L105.81 117.32m10.15-23.414L92.545 117.32m10.15-23.414L79.28 117.32m10.15-23.414L66.015 117.32m10.15-23.414l-11.607 11.606m53.171 15.918V89.484M64.67 121.43V89.484m52.948 4.422H64.67m52.948 23.414H64.67M86.165 59.5h9.645m28.977 84.026H57.5M124.787 68.5H57.5" stroke="#FF756D" stroke-width="3"/></g></svg>