<svg width="211" height="180" viewBox="0 0 211 180" xmlns="http://www.w3.org/2000/svg"><g fill="none" fill-rule="evenodd"><path stroke="#FF756D" stroke-width="3" d="M32.667 147.788V37.628H178v110.16"/><path d="M71.156 65.373c0 5.934-4.81 10.745-10.745 10.745-5.934 0-10.745-4.81-10.745-10.745 0-5.934 4.811-10.745 10.745-10.745 5.934 0 10.745 4.811 10.745 10.745zm21.511-6.745h27m-26.834-35.51h12m-12-4h12m-12-4h12m1 8h12m-12-4h12m-12-4h12m-25.166 49.51h37m-37 6h22m-65 29h23m-23 6h27m-27 6h20" stroke="#FF756D" stroke-width="3"/><path fill="#FF756D" d="M93.667 147.288v-49.66h71.237v49.66"/><path d="M153.777 136.096l-23.15-23.15m24.76 11.495l-11.496-11.496m-3.115 23.415l-23.415-23.415m10.15 23.415l-23.415-23.415m9.886 23.151l-11.655-11.655m53.06.111l-11.808 11.808m10.15-23.415l-23.415 23.415m10.15-23.415l-23.415 23.415m10.151-23.415l-23.416 23.415m10.15-23.415l-11.607 11.607m53.171 15.918v-31.947m-53.06 31.947v-31.947m52.949 4.422h-52.95m52.95 23.415h-52.95" stroke="#FEFEFE" stroke-width="2"/><g stroke="#C3C9CD" stroke-width="3"><path d="M199.084.5c6.121 0 11.083 4.962 11.083 11.083v125.122c0 6.12-4.962 11.082-11.083 11.082h-187.5C5.461 147.787.5 142.825.5 136.705V11.583C.5 5.463 5.462.5 11.583.5h187.501z"/><path d="M87.51 147.144s-2.5 22.5-29 32h93.647c-26.5-9.5-29-32-29-32" stroke-linejoin="round"/></g></g></svg>