
<svg width="182px" height="172px" viewBox="0 0 182 172" version="1.1" xmlns="http://www.w3.org/2000/svg" xmlns:xlink="http://www.w3.org/1999/xlink">
    <!-- Generator: Sketch 49.3 (51167) - http://www.bohemiancoding.com/sketch -->
    <desc>Created with Sketch.</desc>
    <defs></defs>
    <g id="Page-1" stroke="none" stroke-width="1" fill="none" fill-rule="evenodd">
        <g id="Artboard-3" transform="translate(0.000000, -5.000000)">
            <g id="Group-8" transform="translate(0.000000, 5.000000)">
                <g id="Page-1" opacity="0.300000012" stroke="#384B59" stroke-width="3">
                    <path d="M0.75,36.25 L56.75,92.25" id="Stroke-1"></path>
                    <path d="M0.75,66.25 L26.75,92.25" id="Stroke-3"></path>
                    <path d="M4.5,10 L86.75,92.25" id="Stroke-5"></path>
                    <path d="M34.5,10 L116.75,92.25" id="Stroke-8"></path>
                    <path d="M64.5,10 L146.75,92.25" id="Stroke-9"></path>
                    <path d="M94.5,10 L176.75,92.25" id="Stroke-10"></path>
                    <path d="M124.5,10 L180.5,66" id="Stroke-12"></path>
                    <path d="M154.5,10 L180.5,36" id="Stroke-14"></path>
                    <path d="M0.75,66 L56.75,10" id="Stroke-16"></path>
                    <path d="M0.75,36 L26.75,10" id="Stroke-18"></path>
                    <path d="M4.5,92.25 L86.75,10" id="Stroke-20"></path>
                    <path d="M34.5,92.25 L116.75,10" id="Stroke-23"></path>
                    <path d="M64.5,92.25 L146.75,10" id="Stroke-24"></path>
                    <path d="M94.5,92.25 L176.75,10" id="Stroke-25"></path>
                    <path d="M124.5,92.25 L180.5,36.25" id="Stroke-27"></path>
                    <path d="M154.5,92.25 L180.75,66" id="Stroke-29"></path>
                    <path d="M0.5,0 L0.5,102.25" id="Stroke-31"></path>
                    <path d="M180.5,0 L180.5,102.25" id="Stroke-33"></path>
                    <path d="M0.75,10 L180.75,10" id="Stroke-35"></path>
                    <path d="M0.75,92.25 L180.75,92.25" id="Stroke-37"></path>
                </g>
                <g id="Page-1" transform="translate(57.000000, 50.000000)">
                    <path d="M67.7872,109.0844 C67.7872,115.2054 62.8252,120.1674 56.7042,120.1674 L11.5822,120.1674 C5.4622,120.1674 0.5002,115.2054 0.5002,109.0844 L0.5002,11.5834 C0.5002,5.4624 5.4622,0.5004 11.5822,0.5004 L56.7042,0.5004 C62.8252,0.5004 67.7872,5.4624 67.7872,11.5834 L67.7872,109.0844 Z" id="Stroke-1" fill="#FFFFFF"></path>
                    <path d="M67.7872,109.0844 C67.7872,115.2054 62.8252,120.1674 56.7042,120.1674 L11.5822,120.1674 C5.4622,120.1674 0.5002,115.2054 0.5002,109.0844 L0.5002,11.5834 C0.5002,5.4624 5.4622,0.5004 11.5822,0.5004 L56.7042,0.5004 C62.8252,0.5004 67.7872,5.4624 67.7872,11.5834 L67.7872,109.0844 Z" id="Stroke-1" stroke="#FF756D" stroke-width="3"></path>
                    <path d="M40.4639,106.8467 C40.4639,103.3557 37.6339,100.5267 34.1439,100.5267 C30.6529,100.5267 27.8229,103.3557 27.8229,106.8467 C27.8229,110.3377 30.6529,113.1667 34.1439,113.1667 C37.6339,113.1667 40.4639,110.3377 40.4639,106.8467 Z" id="Stroke-3" stroke="#FF756D" stroke-width="3"></path>
                    <path d="M59.0083,67.0568 L35.8573,43.9058" id="Stroke-5" stroke="#FF756D" stroke-width="3"></path>
                    <path d="M60.6181,55.4018 L49.1221,43.9058" id="Stroke-7" stroke="#FF756D" stroke-width="3"></path>
                    <path d="M46.0072,67.3206 L22.5922,43.9056" id="Stroke-9" stroke="#FF756D" stroke-width="3"></path>
                    <path d="M32.7423,67.3206 L9.3273,43.9056" id="Stroke-11" stroke="#FF756D" stroke-width="3"></path>
                    <path d="M19.2136,67.0568 L7.5586,55.4018" id="Stroke-13" stroke="#FF756D" stroke-width="3"></path>
                    <path d="M60.6181,55.5123 L48.8101,67.3203" id="Stroke-15" stroke="#FF756D" stroke-width="3"></path>
                    <path d="M58.96,43.9055 L35.545,67.3205" id="Stroke-17" stroke="#FF756D" stroke-width="3"></path>
                    <path d="M45.6951,43.9055 L22.2801,67.3205" id="Stroke-19" stroke="#FF756D" stroke-width="3"></path>
                    <path d="M32.4302,43.9055 L9.0152,67.3205" id="Stroke-21" stroke="#FF756D" stroke-width="3"></path>
                    <path d="M19.1653,43.9055 L7.5583,55.5125" id="Stroke-23" stroke="#FF756D" stroke-width="3"></path>
                    <path d="M60.7286,71.4302 L60.7286,39.4842" id="Stroke-25" stroke="#FF756D" stroke-width="3"></path>
                    <path d="M7.6691,71.4302 L7.6691,39.4842" id="Stroke-27" stroke="#FF756D" stroke-width="3"></path>
                    <path d="M60.6181,43.9055 L7.6691,43.9055" id="Stroke-29" stroke="#FF756D" stroke-width="3"></path>
                    <path d="M60.6181,67.3206 L7.6691,67.3206" id="Stroke-31" stroke="#FF756D" stroke-width="3"></path>
                    <path d="M29.1649,9.5003 L38.8099,9.5003" id="Stroke-33" stroke="#FF756D" stroke-width="3"></path>
                    <path d="M67.7872,93.5263 L0.5002,93.5263" id="Stroke-35" stroke="#FF756D" stroke-width="3"></path>
                    <path d="M67.7872,18.5003 L0.5002,18.5003" id="Stroke-37" stroke="#FF756D" stroke-width="3"></path>
                </g>
            </g>
        </g>
    </g>
</svg>