<svg width="244" height="161" viewBox="0 0 244 161" xmlns="http://www.w3.org/2000/svg"><g fill="none" fill-rule="evenodd"><path d="M16.01 3.99A8.501 8.501 0 0 1 3.99 16.01 8.501 8.501 0 0 1 16.01 3.99zm0 12.02l8.485 8.485M1 35h243" opacity=".3" stroke="#384B59" stroke-width="3"/><path d="M2.186 69.621l9.193 9.193M9.61 78.46l16.264-16.263" stroke="#FF756D" stroke-width="3"/><text font-family="Hind-Medium, Hind" font-size="20" font-weight="400" letter-spacing=".111" fill="#384B59" transform="translate(0 -1)"><tspan x="37" y="81">Raise fence to 10ft</tspan></text><text font-family="Hind-Medium, Hind" font-size="20" font-weight="400" letter-spacing=".111" fill="#384B59" transform="translate(0 -1)"><tspan x="37" y="21">Raise fe</tspan></text><path d="M102 23V0" stroke="#FF756D" stroke-width="3"/><path d="M2.186 110.621l9.193 9.193m-1.769-.354l16.264-16.263m23.645 12.188c6.259 0 7.042-6.885 13.066-6.885m13.067 6.885c-6.26 0-7.042-6.885-13.066-6.885m-12.52 6.885c-6.259 0-7.042-6.885-13.066-6.885m38.652 6.885c6.259 0 7.042-6.885 13.066-6.885m13.067 6.885c-6.26 0-7.042-6.885-13.066-6.885m13.066 6.885c6.259 0 7.042-6.885 13.066-6.885m13.067 6.885c-6.26 0-7.042-6.885-13.066-6.885m13.066 6.885c6.259 0 7.042-6.885 13.066-6.885m13.066 6.885c-6.258 0-7.041-6.885-13.065-6.885m13.065 6.885c6.26 0 7.043-6.885 13.067-6.885m13.067 6.885c-6.26 0-7.042-6.885-13.066-6.885M2.186 150.621l9.193 9.193m-1.769-.354l16.264-16.263m23.645 12.188c6.259 0 7.042-6.885 13.066-6.885m13.067 6.885c-6.26 0-7.042-6.885-13.066-6.885m-12.52 6.885c-6.259 0-7.042-6.885-13.066-6.885m38.652 6.885c6.259 0 7.042-6.885 13.066-6.885m13.067 6.885c-6.26 0-7.042-6.885-13.066-6.885m13.066 6.885c6.259 0 7.042-6.885 13.066-6.885m13.067 6.885c-6.26 0-7.042-6.885-13.066-6.885m13.066 6.885c6.259 0 7.042-6.885 13.066-6.885m13.066 6.885c-6.258 0-7.041-6.885-13.065-6.885m13.065 6.885c6.26 0 7.043-6.885 13.067-6.885m13.067 6.885c-6.26 0-7.042-6.885-13.066-6.885" opacity=".3" stroke="#384B59" stroke-width="3"/></g></svg>