<?xml version="1.0" encoding="utf-8"?>
<!-- Generator: Adobe Illustrator 15.0.2, SVG Export Plug-In . SVG Version: 6.00 Build 0)  -->
<!DOCTYPE svg PUBLIC "-//W3C//DTD SVG 1.1//EN" "http://www.w3.org/Graphics/SVG/1.1/DTD/svg11.dtd">
<svg version="1.1" id="engrave" xmlns="http://www.w3.org/2000/svg" xmlns:xlink="http://www.w3.org/1999/xlink" x="0px" y="0px"
	 width="600px" height="250.909px" viewBox="0 0 600 250.909" enable-background="new 0 0 600 250.909" xml:space="preserve">
<g>
	<g id="LINE_1199_">
		
			<polygon fill="#231F20" stroke="#26264C" stroke-width="0.001" stroke-linecap="round" stroke-linejoin="round" stroke-miterlimit="10" points="
			132.198,147.689 117.137,147.689 117.137,231.352 132.198,231.352 132.198,147.689 		"/>
	</g>
	<g id="LINE_1195_">
		
			<polygon fill="#231F20" stroke="#26264C" stroke-width="0.001" stroke-linecap="round" stroke-linejoin="round" stroke-miterlimit="10" points="
			132.198,112.551 117.137,112.551 117.137,127.609 132.198,127.609 132.198,112.551 		"/>
	</g>
	<g id="SPLINE_1357_">
		
			<path fill="#231F20" stroke="#26264C" stroke-width="0.001" stroke-linecap="round" stroke-linejoin="round" stroke-miterlimit="10" d="
			M531.254,120.175c0,0-0.003,0-0.027-0.019c0,0-0.002-0.003-0.005-0.032c0-0.006,0-0.011,0-0.032c0-0.011,0-0.021,0-0.035
			c0,0,0-0.003-0.003-0.027c-0.002-0.008-0.002-0.019-0.002-0.03c-0.002-0.008-0.005-0.019-0.005-0.029
			c-0.003-0.005-0.003-0.011-0.005-0.032c-21.973,5.887-40.004-22.975-43.562-29.101c5.476,4.345,8.967,3.088,11.671,2.433
			c7.249-1.703,12.421-3.145,17.711-3.078c-0.279-1.386-0.454-2.788-0.518-4.2c-7.418-0.843-14.038,1.071-24.004,3.419
			c-3.177,0.765-7.277,2.237-13.709-2.866c4.265,7.292,26.141,42.101,52.467,33.628"/>
	</g>
	
		<path fill="#231F20" stroke="#26264C" stroke-width="0.001" stroke-linecap="round" stroke-linejoin="round" stroke-miterlimit="10" d="
		M35.15,210.069v-43.007c5.733-5.492,13.221-9.432,21.331-9.335c17.563,0,24.012,16.178,23.845,31.399
		c-0.019,15.479-6.536,31.803-24.183,32.184C47.732,221.41,40.06,216.586,35.15,210.069C35.15,210.069,36.109,211.341,35.15,210.069
		z M35.411,156.081h-0.26v-51.898H20.09v127.168h10.457l2.954-9.362h0.264c5.61,8.017,14.319,10.976,23.791,11.035
		c24.822,0.306,37.829-22.508,37.829-44.892c0-21.611-11.868-42.169-35.946-42.118C50.227,145.975,41.775,149.391,35.411,156.081
		C35.411,156.081,36.888,154.529,35.411,156.081z"/>
	<g id="SPLINE_1351_">
		
			<path fill="#231F20" stroke="#26264C" stroke-width="0.001" stroke-linecap="round" stroke-linejoin="round" stroke-miterlimit="10" d="
			M177.374,207.925V159.4h25.072v-11.711h-25.072v-23.426h-15.058v23.426h-16.132V159.4h16.132v50.537
			c-0.15,15.646,13.086,23.144,27.347,23.088c3.83-0.051,9.966-0.325,14.013-1.987v-11.322c-3.725,1.007-7.514,1.539-11.374,1.595
			C183.715,221.179,177.441,216.979,177.374,207.925C177.374,207.925,177.388,209.722,177.374,207.925z"/>
	</g>
	<g id="SPLINE_1341_">
		
			<path fill="#231F20" stroke="#26264C" stroke-width="0.001" stroke-linecap="round" stroke-linejoin="round" stroke-miterlimit="10" d="
			M522.392,101.763c-0.701-0.918-1.351-1.872-1.95-2.86c-7.232-1.487-14.873-0.816-21.336-0.846
			C508.118,98.2,515.882,99.435,522.392,101.763z"/>
	</g>
	<g id="SPLINE_1326_">
		
			<path fill="#231F20" stroke="#26264C" stroke-width="0.001" stroke-linecap="round" stroke-linejoin="round" stroke-miterlimit="10" d="
			M271.075,162.747v-11.948c-7.557-3.142-15.638-4.871-23.818-4.783c-15.49,0.129-29.681,8.61-29.726,25.491
			c-0.382,15.305,12.369,19.701,25.126,22.72c7.313,1.767,16.916,4.394,16.707,13.645c-0.303,10.774-11.814,13.388-20.786,13.438
			c-7.536,0.073-14.128-1.925-21.046-5.019v11.816c7.036,3.762,15.213,4.864,23.087,4.917c16.258-0.092,33.575-7.243,33.803-25.833
			c0.04-15.759-10.463-20.689-24.339-24.105c-6.958-1.633-17.854-3.475-17.491-12.888c-0.017-9.622,9.49-12.576,17.464-12.472
			C257.385,158.052,264.391,159.725,271.075,162.747C271.075,162.747,267.724,161.355,271.075,162.747z"/>
	</g>
	
		<path fill="#231F20" stroke="#26264C" stroke-width="0.001" stroke-linecap="round" stroke-linejoin="round" stroke-miterlimit="10" d="
		M306.213,181.153c0.983-11.808,9.824-23.678,22.564-23.426c12.839-0.069,19.371,11.712,19.269,23.426H306.213
		C306.474,178.027,306.213,181.153,306.213,181.153z M363.208,187.663c0-21.764-9.971-41.145-33.674-41.647
		c-24.804,0.081-38.309,21.755-38.379,44.628c-0.118,26.246,17.722,42.786,43.635,42.381c8.365,0.091,17.778-1.063,25.333-4.941
		v-11.792c-7.651,3.231-15.286,5.122-23.555,5.019c-17.918-0.024-30.852-9.751-31.061-28.445h57.597
		C363.238,191.157,363.225,189.376,363.208,187.663C363.208,184.223,363.214,188.273,363.208,187.663z"/>
	
		<path fill="#231F20" stroke="#26264C" stroke-width="0.001" stroke-linecap="round" stroke-linejoin="round" stroke-miterlimit="10" d="
		M396.568,181.153c0.983-11.808,9.824-23.676,22.564-23.426c12.834-0.069,19.379,11.712,19.266,23.426H396.568
		C396.829,178.027,396.568,181.153,396.568,181.153z M453.563,187.663c0-21.764-9.971-41.145-33.674-41.647
		c-24.804,0.081-38.31,21.755-38.379,44.628c-0.118,26.246,17.722,42.786,43.635,42.381c8.365,0.091,17.778-1.063,25.333-4.941
		v-11.792c-7.651,3.231-15.286,5.122-23.555,5.019c-17.901-0.024-30.873-9.748-31.061-28.445h57.597
		C453.593,191.152,453.572,189.382,453.563,187.663C453.563,184.223,453.566,188.273,453.563,187.663z"/>
	<g>
		
			<path fill="#231F20" stroke="#26264C" stroke-width="0.001" stroke-linecap="round" stroke-linejoin="round" stroke-miterlimit="10" d="
			M578.385,17.88c-2.863,12.332-9.225,14.485-13.793,16.615c-15.85,7.2-26.241,11.196-35.006,21.063
			c-24.393,30.03-6.496,46.667-3.126,49.943c2.334,2.095,3.757,4.751,4.271,7.974c1.625,6.553,1.729,14.182,2.11,20.96
			c0.408,7.208-0.215,14.459-0.714,21.646h-0.288c-6.053-6.84-14.306-10.003-23.321-10.065
			c-24.702,0.277-36.521,22.384-36.652,44.55c0.202,22.454,12.354,42.056,36.575,42.459c9.99,0.019,17.574-3.22,23.869-11.035h0.341
			l3.11,9.362h11.43l-0.03-72.185c-0.008-7.415-2.229-14.066-3.534-21.272c-1.635-9.01-1.662-18.296-3.091-27.36
			C587.511,100.23,580.254,31.431,578.385,17.88z M532.103,210.069c-4.931,6.891-12.934,11.303-21.517,11.241
			c-17.161,0.255-23.576-16.352-23.662-30.98c0.207-15.165,6.056-32.267,23.923-32.603c8.15,0.043,15.568,3.591,21.256,9.335
			c-0.258-0.26-0.344-0.346-0.435-0.44c-0.156-0.155-0.183-0.185,0,0c0.18,0.183,0.435,0.44,0.435,0.44V210.069z M526.299,103.219
			c-2.924-2.876-18.425-17.483,3.014-43.522c1.38-1.565,2.814-2.97,4.31-4.249c-18.385,24.097-12.396,40.345-6.587,48.592
			C526.807,103.761,526.567,103.482,526.299,103.219z M539.077,123.003c-3.457-2.208-5.911-5.138-7.361-8.793
			c-10.753-39.378,19.1-56.794,38.054-72.539c-11.575,10.799-25.099,21.943-32.355,36.602c-2.97,6.002-4.888,12.595-4.724,19.381
			C532.221,109.24,536.367,118.604,539.077,123.003z M541.196,106.678c34.133-7.184,35.215-50.73,34.729-75.896
			c0.177-0.545,0.335-1.117,0.494-1.719C578.068,40.538,584.532,99.588,541.196,106.678z"/>
		
			<path fill="#231F20" stroke="#26264C" stroke-width="0.001" stroke-linecap="round" stroke-linejoin="round" stroke-miterlimit="10" d="
			M532.146,222.191C531.616,222.849,531.904,222.492,532.146,222.191L532.146,222.191z"/>
	</g>
	<g id="SPLINE_1298_">
		
			<path fill="#231F20" stroke="#26264C" stroke-width="0.001" stroke-linecap="round" stroke-linejoin="round" stroke-miterlimit="10" d="
			M541.958,117.114c2.626-0.473,4.155,2.594,4.058,5.081c-0.103,2.618-2.006,4.595-2.885,6.889c0.019,0.252,0.041,0.505,0.06,0.757
			c0.14,1.778,0.29,3.548,0.513,5.296c0.129,0.999,0.279,1.99,0.467,2.979c0.185,0.985,0.403,1.971,0.639,2.954
			c0.473,1.969,1.01,3.937,1.477,5.922c0.236,0.993,0.451,1.99,0.634,2.991c0.097,0.535,0.18,1.069,0.255,1.604
			c0.072,0.505,0.131,1.01,0.185,1.515c0.105,0.98,0.177,1.969,0.223,2.959c0.024,0.513,0.043,1.029,0.054,1.547
			s0.016,1.04,0.016,1.56c0.331-10.151,0.669-24.618,3.365-32.178c0.747-2.101,1.679-3.666,1.41-6
			c-0.508-4.404-5.28-11.537-7.141-11.23c-0.298,0.102-0.596,0.201-0.902,0.298c-0.526,0.167-1.066,0.319-1.614,0.465
			c-0.274,0.069-0.551,0.14-0.83,0.207c-0.279,0.064-0.564,0.129-0.846,0.188c0.279,1.81,0.534,3.625,0.765,5.443
			C541.894,116.609,541.926,116.861,541.958,117.114z"/>
	</g>
</g>
</svg>
