<?xml version="1.0" encoding="UTF-8"?>
<svg width="224px" height="78px" viewBox="0 0 224 78" version="1.1" xmlns="http://www.w3.org/2000/svg" xmlns:xlink="http://www.w3.org/1999/xlink">
    <!-- Generator: Sketch 46.1 (44463) - http://www.bohemiancoding.com/sketch -->
    <title>blockstack-summit-logo-landscape-rev</title>
    <desc>Created with Sketch.</desc>
    <defs></defs>
    <g id="Symbols" stroke="none" stroke-width="1" fill="none" fill-rule="evenodd">
        <g id="logo/RGB/logo/blockstack-summit-logo-landscape-rev" fill="#FFFFFF">
            <g>
                <g id="blockstack-summit-bug-rounded-rev-knockout" transform="translate(15.000000, 15.000000)">
                    <path d="M44.6312227,5.02563931 C45.098276,5.83112384 45.5512706,6.88082247 45.9647518,8.20652357 C47.1006336,11.8483812 47.7719106,16.9842869 47.7719106,23.8855339 C47.7719106,30.7867809 47.1006336,35.9226866 45.9647518,39.5645442 C45.5512706,40.8902453 45.098276,41.9399439 44.6312227,42.7454284 C44.3631721,43.2077111 44.1228354,43.5368036 43.9276124,43.751435 C43.7299469,43.9963834 43.4243697,44.2753372 42.9898007,44.5708305 C42.2641546,45.0642472 41.2763145,45.5337703 39.9832387,45.957199 C36.4944463,47.0996337 31.2550309,47.7710677 23.8863767,47.7710677 C16.5177225,47.7710677 11.2783072,47.0996337 7.78951475,45.957199 C6.4964389,45.5337703 5.50859886,45.0642472 4.78295273,44.5708305 C4.32025891,44.2562132 4.00379358,43.9603455 3.80811319,43.7043087 C3.62565625,43.482145 3.38727793,43.1243043 3.11388717,42.6107488 C2.65703104,41.7525597 2.21104362,40.6529328 1.80211742,39.2845425 C0.695127522,35.5802207 0.0287153777,30.521822 0.00085661741,23.8920926 C-0.027470223,17.1509711 0.648224643,12.0346924 1.80746826,8.31456007 C2.21832032,6.99609345 2.66669517,5.93478429 3.12624891,5.10500494 C3.38901568,4.63054806 3.61989502,4.29262382 3.80054311,4.07481192 C3.99297234,3.81452465 4.29567819,3.52186496 4.73036278,3.21535245 C5.43998716,2.71496952 6.41575667,2.24125546 7.70291744,1.81537132 C11.1602014,0.671456407 16.4209393,1.00821936e-15 23.8863767,0 C31.3518141,0 36.612552,0.671456407 40.069836,1.81537132 C41.3569968,2.24125546 42.3327663,2.71496952 43.0423906,3.21535245 C43.4577847,3.50826247 43.752654,3.78852191 43.9459378,4.03996897 C44.1377955,4.25484094 44.3714998,4.57771872 44.6312227,5.02563931 Z M6.06315789,20.2105263 L6.06315789,28.8187781 L9.16212855,28.8187781 C9.62123761,28.8187781 10.0538531,28.7702193 10.4599881,28.6731 C10.866123,28.5759808 11.2214857,28.4236825 11.5260869,28.2162005 C11.8306881,28.0087185 12.0690681,27.7438519 12.241234,27.4215926 C12.4133999,27.0993334 12.4994816,26.717484 12.4994816,26.276033 C12.4994816,25.7021467 12.3471832,25.2540806 12.042582,24.9318213 C11.7379808,24.6095621 11.2810859,24.3866327 10.6718835,24.2630264 L10.6718835,24.2100525 C10.919096,24.1482494 11.1354038,24.0511316 11.3208132,23.9186963 C11.5062227,23.786261 11.658521,23.6339627 11.7777128,23.4617968 C11.8969045,23.2896309 11.9851934,23.1086387 12.042582,22.9188148 C12.0999707,22.7289908 12.1286646,22.541377 12.1286646,22.3559675 C12.1286646,21.9321746 12.0447901,21.5812263 11.8770387,21.3031121 C11.7092874,21.024998 11.4797362,20.806483 11.1883786,20.6475606 C10.8970209,20.4886383 10.5549015,20.3760699 10.1620101,20.3098523 C9.7691187,20.2436347 9.3475393,20.2105263 8.89725926,20.2105263 L6.06315789,20.2105263 Z M13.2437045,27.9257902 C13.2437045,28.0620094 13.2676685,28.1893976 13.3155976,28.3079588 C13.3635265,28.42652 13.4303737,28.5312053 13.5161414,28.6220181 C13.6019091,28.7128309 13.7053331,28.783462 13.8264169,28.8339135 C13.9475006,28.8843651 14.0811951,28.9095905 14.2275047,28.9095905 C14.3738141,28.9095905 14.5075087,28.8843651 14.6285925,28.8339135 C14.7496761,28.783462 14.8531002,28.7128309 14.9388679,28.6220181 C15.0246355,28.5312053 15.0914827,28.42652 15.1394118,28.3079588 C15.1873407,28.1893976 15.2113049,28.0620094 15.2113049,27.9257902 C15.2113049,27.7895711 15.1873407,27.6621829 15.1394118,27.5436217 C15.0914827,27.4250605 15.0246355,27.3216365 14.9388679,27.2333463 C14.8531002,27.1450561 14.7496761,27.074425 14.6285925,27.0214508 C14.5075087,26.9684767 14.3738141,26.94199 14.2275047,26.94199 C14.0811951,26.94199 13.9475006,26.9684767 13.8264169,27.0214508 C13.7053331,27.074425 13.6019091,27.1450561 13.5161414,27.2333463 C13.4303737,27.3216365 13.3635265,27.4250605 13.3155976,27.5436217 C13.2676685,27.6621829 13.2437045,27.7895711 13.2437045,27.9257902 Z M16.1409362,27.5209186 L16.1409362,28.8187781 L22.6037468,28.8187781 L22.6037468,26.9117193 L20.9085834,26.9117193 C20.7055159,26.9117193 20.4605143,26.9227553 20.1735711,26.9448279 C19.886628,26.9669005 19.628383,26.99118 19.3988284,27.017667 C19.7431603,26.7263093 20.0808652,26.4172983 20.4119534,26.0906245 C20.7430418,25.7639507 21.0410167,25.428453 21.3058873,25.0841212 C21.5707579,24.7397894 21.7826512,24.3932555 21.9415736,24.0445092 C22.100496,23.6957629 22.1799559,23.3536435 22.1799559,23.0181408 C22.1799559,22.6031768 22.1049104,22.2257418 21.954817,21.8858246 C21.8047237,21.5459073 21.5950376,21.2567612 21.3257525,21.0183776 C21.0564673,20.7799941 20.734213,20.5945874 20.3589796,20.4621521 C19.9837463,20.3297168 19.5709957,20.2635002 19.1207157,20.2635002 C18.7852129,20.2635002 18.4806163,20.2899868 18.2069166,20.342961 C17.9332171,20.3959351 17.6727649,20.4776023 17.4255522,20.587965 C17.1783397,20.6983278 16.9421669,20.83959 16.7170269,21.0117559 C16.4918869,21.1839218 16.264543,21.384779 16.0349885,21.6143335 L17.2401437,22.8327323 C17.4696983,22.6296648 17.7102855,22.4464653 17.9619125,22.2831285 C18.2135397,22.1197916 18.4938568,22.0381244 18.8028725,22.0381244 C19.1736914,22.0381244 19.4694591,22.1286205 19.6901846,22.3096154 C19.9109101,22.4906103 20.0212712,22.7709276 20.0212712,23.1505754 C20.0212712,23.4331041 19.9241535,23.7354934 19.729915,24.0577527 C19.5356766,24.380012 19.2663956,24.7199241 18.9220637,25.0774995 C18.5777319,25.4350748 18.1671887,25.8169242 17.6904215,26.2230591 C17.2136544,26.6291941 16.6971645,27.0618095 16.1409362,27.5209186 Z M26.3258572,28.9776997 C26.8202824,28.9776997 27.2705557,28.8827892 27.6766906,28.6929652 C28.0828256,28.5031412 28.4315667,28.2228241 28.7229243,27.8520052 C29.0142819,27.4811863 29.2394186,27.0220842 29.398341,26.4746849 C29.5572633,25.9272856 29.6367233,25.2960202 29.6367233,24.5808695 C29.6367233,23.8657189 29.5572633,23.2366607 29.398341,22.6936759 C29.2394186,22.1506911 29.0142819,21.7004178 28.7229243,21.3428425 C28.4315667,20.9852672 28.0828256,20.7159861 27.6766906,20.5349912 C27.2705557,20.3539963 26.8202824,20.2635002 26.3258572,20.2635002 C25.8314321,20.2635002 25.3811588,20.3539963 24.9750239,20.5349912 C24.5688889,20.7159861 24.2201478,20.9852672 23.9287902,21.3428425 C23.6374326,21.7004178 23.4122959,22.1506911 23.2533735,22.6936759 C23.0944512,23.2366607 23.0149912,23.8657189 23.0149912,24.5808695 C23.0149912,25.2960202 23.0944512,25.9272856 23.2533735,26.4746849 C23.4122959,27.0220842 23.6374326,27.4811863 23.9287902,27.8520052 C24.2201478,28.2228241 24.5688889,28.5031412 24.9750239,28.6929652 C25.3811588,28.8827892 25.8314321,28.9776997 26.3258572,28.9776997 Z M36.418074,26.99118 L34.6169629,26.99118 L34.6169629,20.4224217 L32.9482864,20.4224217 C32.6127836,20.6254892 32.268457,20.7888237 31.9152962,20.9124299 C31.5621354,21.0360362 31.1339342,21.1463973 30.6306801,21.2435165 L30.6306801,22.6473238 L32.339087,22.6473238 L32.339087,26.99118 L30.2466197,26.99118 L30.2466197,28.8187781 L36.418074,28.8187781 L36.418074,26.99118 Z M38.5377252,28.8187781 L40.8156011,28.8187781 C40.8597462,27.9976793 40.917134,27.2781249 40.9877661,26.6600934 C41.0583983,26.042062 41.1797955,25.4703915 41.3519614,24.9450648 C41.5241273,24.4197381 41.7669217,23.9098698 42.0803519,23.4154447 C42.3937822,22.9210195 42.8109471,22.3912862 43.3318593,21.826229 L43.3318593,20.4224217 L36.935266,20.4224217 L36.935266,22.3294806 L40.9083053,22.3294806 C40.4845124,22.8680509 40.1313569,23.3845408 39.8488282,23.8789659 C39.5662996,24.3733911 39.3345412,24.8766377 39.1535463,25.3887209 C38.9725514,25.900804 38.8357036,26.4349518 38.7429989,26.99118 C38.6502942,27.5474083 38.5818703,28.1566016 38.5377252,28.8187781 Z" id="Combined-Shape" fill-rule="nonzero"></path>
                    <path d="M26.3258572,22.0116375 C26.5024377,22.0116375 26.6679793,22.0469531 26.8224872,22.1175852 C26.9769951,22.1882173 27.1138428,22.3184434 27.2330346,22.5082674 C27.3522263,22.6980913 27.4471369,22.9607508 27.517769,23.2962535 C27.5884012,23.6317562 27.6237168,24.0599574 27.6237168,24.5808695 C27.6237168,25.1017817 27.5884012,25.5343973 27.517769,25.878729 C27.4471369,26.2230608 27.3522263,26.4945491 27.2330346,26.6932021 C27.1138428,26.8918551 26.9769951,27.0309101 26.8224872,27.1103712 C26.6679793,27.1898324 26.5024377,27.2295624 26.3258572,27.2295624 C26.1492768,27.2295624 25.9837352,27.1898324 25.8292273,27.1103712 C25.6747195,27.0309101 25.5378717,26.8918551 25.4186799,26.6932021 C25.2994882,26.4945491 25.2045776,26.2230608 25.1339455,25.878729 C25.0633133,25.5343973 25.0279977,25.1017817 25.0279977,24.5808695 C25.0279977,24.0599574 25.0633133,23.6317562 25.1339455,23.2962535 C25.2045776,22.9607508 25.2994882,22.6980913 25.4186799,22.5082674 C25.5378717,22.3184434 25.6747195,22.1882173 25.8292273,22.1175852 C25.9837352,22.0469531 26.1492768,22.0116375 26.3258572,22.0116375 Z M26.3258572,25.6403467 C26.634873,25.6403467 26.8887034,25.543229 27.0873564,25.3489905 C27.2860094,25.154752 27.3853344,24.8987143 27.3853344,24.5808695 C27.3853344,24.2630248 27.2860094,24.0069871 27.0873564,23.8127486 C26.8887034,23.6185101 26.634873,23.5213924 26.3258572,23.5213924 C26.0168415,23.5213924 25.763011,23.6185101 25.564358,23.8127486 C25.365705,24.0069871 25.2663801,24.2630248 25.2663801,24.5808695 C25.2663801,24.8987143 25.365705,25.154752 25.564358,25.3489905 C25.763011,25.543229 26.0168415,25.6403467 26.3258572,25.6403467 Z" id="Combined-Shape"></path>
                    <path d="M8.8442854,23.6008532 C9.21510426,23.6008532 9.48438534,23.5169787 9.65213673,23.3492274 C9.81988811,23.181476 9.90376255,22.9651682 9.90376255,22.7002976 C9.90376255,22.435427 9.81988811,22.2456059 9.65213673,22.1308286 C9.48438534,22.0160514 9.21510426,21.9586636 8.8442854,21.9586636 L8.34103376,21.9586636 L8.34103376,23.6008532 L8.8442854,23.6008532 Z" id="B.2017-path"></path>
                    <path d="M9.00320697,27.0706408 C9.45348701,27.0706408 9.77794864,26.9867664 9.9766016,26.819015 C10.1752546,26.6512636 10.2745795,26.4084692 10.2745795,26.0906245 C10.2745795,25.7727797 10.1752546,25.5432287 9.9766016,25.4019643 C9.77794864,25.2607 9.45348701,25.1900689 9.00320697,25.1900689 L8.34103376,25.1900689 L8.34103376,27.0706408 L9.00320697,27.0706408 Z" id="B.2017-path"></path>
                </g>
                <path d="M75.6148632,42.9896283 L75.6148632,34.8061724 L78.6253865,34.8061724 C79.1907985,34.8061724 79.6719532,34.8585939 80.068865,34.9634386 C80.4657767,35.0682832 80.7896669,35.2161868 81.040545,35.4071537 C81.2914232,35.5981207 81.4739625,35.8302731 81.5881682,36.1036181 C81.7023739,36.376963 81.7594759,36.6821311 81.7594759,37.0191317 C81.7594759,37.2026098 81.7332652,37.3795324 81.6808429,37.5499049 C81.6284205,37.7202774 81.5460439,37.8803502 81.4337104,38.0301283 C81.3213769,38.1799063 81.1772176,38.3156406 81.0012285,38.4373352 C80.8252393,38.5590298 80.613681,38.664809 80.3665473,38.7546758 C80.9057482,38.8857316 81.3045262,39.098226 81.5628933,39.3921654 C81.8212604,39.6861048 81.950442,40.0633524 81.950442,40.5239199 C81.950442,40.8721538 81.8830429,41.1960439 81.7482426,41.4956 C81.6134424,41.795156 81.4159256,42.0563275 81.1556863,42.2791223 C80.895447,42.5019172 80.5743651,42.6760315 80.1924312,42.8014706 C79.8104973,42.9269097 79.3742753,42.9896283 78.8837523,42.9896283 L75.6148632,42.9896283 Z M77.5132902,39.5185399 L77.5132902,41.5573831 L78.8500524,41.5573831 C79.1009305,41.5573831 79.3059362,41.5255557 79.4650753,41.4619001 C79.6242145,41.3982445 79.7487156,41.3158677 79.8385824,41.2147676 C79.9284492,41.1136674 79.9902317,40.9994634 80.0239318,40.8721521 C80.0576318,40.7448407 80.0744816,40.6156591 80.0744816,40.4846034 C80.0744816,40.3348253 80.0548235,40.2000271 80.0155068,40.0802047 C79.9761901,39.9603823 79.908791,39.8592836 79.8133075,39.7769057 C79.717824,39.6945279 79.5914506,39.6308731 79.4341837,39.5859397 C79.2769169,39.5410063 79.0784639,39.5185399 78.8388191,39.5185399 L77.5132902,39.5185399 Z M77.5132902,38.2491775 L78.5018202,38.2491775 C78.7115094,38.2491775 78.9006014,38.2342 79.0691016,38.2042443 C79.2376019,38.1742887 79.380825,38.1218672 79.4987752,38.0469782 C79.6167254,37.9720892 79.7065909,37.8691183 79.7683743,37.7380626 C79.8301577,37.6070068 79.861049,37.4422535 79.861049,37.2437976 C79.861049,37.0490862 79.8367105,36.8871411 79.7880326,36.7579575 C79.7393547,36.628774 79.6644668,36.524867 79.5633666,36.4462336 C79.4622665,36.3676001 79.3340209,36.3114342 79.1786263,36.2777341 C79.0232316,36.2440341 78.8388201,36.2271843 78.6253865,36.2271843 L77.5132902,36.2271843 L77.5132902,38.2491775 Z M85.8184401,41.4731334 L88.8514299,41.4731334 L88.8514299,42.9896283 L83.9200131,42.9896283 L83.9200131,34.8061724 L85.8184401,34.8061724 L85.8184401,41.4731334 Z M98.3136093,38.895092 C98.3136093,39.4867153 98.2115745,40.0371412 98.007502,40.5463865 C97.8034294,41.0556317 97.5160472,41.4984064 97.1453465,41.8747237 C96.7746459,42.251041 96.3281269,42.5459121 95.805776,42.7593457 C95.2834252,42.9727794 94.7039801,43.0794946 94.0674235,43.0794946 C93.4308669,43.0794946 92.8504858,42.9727794 92.3262627,42.7593457 C91.8020396,42.5459121 91.3536484,42.251041 90.9810755,41.8747237 C90.6085027,41.4984064 90.3201844,41.0556317 90.1161118,40.5463865 C89.9120392,40.0371412 89.8100045,39.4867153 89.8100045,38.895092 C89.8100045,38.3034688 89.9120392,37.7530428 90.1161118,37.2437976 C90.3201844,36.7345523 90.6085027,36.2927137 90.9810755,35.9182687 C91.3536484,35.5438236 91.8020396,35.2498886 92.3262627,35.036455 C92.8504858,34.8230213 93.4308669,34.7163061 94.0674235,34.7163061 C94.7039801,34.7163061 95.2834252,34.8239574 95.805776,35.0392633 C96.3281269,35.2545693 96.7746459,35.5494403 97.1453465,35.9238853 C97.5160472,36.2983304 97.8034294,36.740169 98.007502,37.2494142 C98.2115745,37.7586595 98.3136093,38.3072133 98.3136093,38.895092 Z M96.3702491,38.895092 C96.3702491,38.4906913 96.3178276,38.126549 96.212983,37.802654 C96.1081383,37.4787591 95.9574265,37.2044822 95.7608428,36.9798151 C95.5642591,36.7551481 95.3236818,36.5829059 95.0391036,36.4630835 C94.7545254,36.3432611 94.4306352,36.2833508 94.0674235,36.2833508 C93.7004673,36.2833508 93.3737689,36.3432611 93.0873185,36.4630835 C92.800868,36.5829059 92.5593546,36.7551481 92.3627709,36.9798151 C92.1661873,37.2044822 92.0154754,37.4787591 91.9106308,37.802654 C91.8057861,38.126549 91.7533646,38.4906913 91.7533646,38.895092 C91.7533646,39.3032372 91.8057861,39.6692517 91.9106308,39.9931467 C92.0154754,40.3170416 92.1661873,40.5913185 92.3627709,40.8159856 C92.5593546,41.0406526 92.800868,41.2119587 93.0873185,41.3299089 C93.3737689,41.447859 93.7004673,41.5068333 94.0674235,41.5068333 C94.4306352,41.5068333 94.7545254,41.447859 95.0391036,41.3299089 C95.3236818,41.2119587 95.5642591,41.0406526 95.7608428,40.8159856 C95.9574265,40.5913185 96.1081383,40.3170416 96.212983,39.9931467 C96.3178276,39.6692517 96.3702491,39.3032372 96.3702491,38.895092 Z M105.658312,40.8721521 C105.703246,40.8721521 105.748179,40.8805769 105.793112,40.897427 C105.838045,40.914277 105.881106,40.9432961 105.922295,40.984485 L106.674926,41.7764324 C106.345414,42.2070442 105.932594,42.5318704 105.436455,42.7509208 C104.940315,42.9699711 104.353381,43.0794946 103.675636,43.0794946 C103.054057,43.0794946 102.497078,42.9737155 102.004683,42.762154 C101.512288,42.5505926 101.094788,42.2585298 100.752171,41.885957 C100.409553,41.5133841 100.14651,41.0715456 99.9630315,40.5604281 C99.7795534,40.0493106 99.6878158,39.4942041 99.6878158,38.895092 C99.6878158,38.2847465 99.7926588,37.7240235 100.002348,37.212906 C100.212037,36.7017885 100.505036,36.2608861 100.881353,35.8901854 C101.257671,35.5194848 101.707934,35.2311665 102.232157,35.0252217 C102.75638,34.8192769 103.334889,34.7163061 103.967701,34.7163061 C104.274746,34.7163061 104.564001,34.7434529 104.835473,34.7977474 C105.106946,34.852042 105.360629,34.9269299 105.596529,35.0224134 C105.83243,35.1178968 106.049605,35.2321009 106.24806,35.3650289 C106.446516,35.4979569 106.622503,35.6449243 106.776025,35.8059357 L106.135727,36.6652828 C106.094539,36.7177052 106.045861,36.7654462 105.989695,36.8085074 C105.933528,36.8515685 105.854896,36.8730988 105.753795,36.8730988 C105.686395,36.8730988 105.622741,36.8581213 105.562829,36.8281656 C105.502918,36.79821 105.439264,36.7617022 105.371863,36.718641 C105.304463,36.6755798 105.230511,36.6287749 105.150006,36.5782248 C105.0695,36.5276747 104.974018,36.4808698 104.863557,36.4378086 C104.753095,36.3947475 104.623914,36.3582396 104.476008,36.328284 C104.328102,36.2983283 104.154924,36.2833508 103.956468,36.2833508 C103.611979,36.2833508 103.29745,36.3441972 103.012871,36.4658918 C102.728293,36.5875864 102.483971,36.7617008 102.279899,36.9882401 C102.075826,37.2147793 101.916689,37.4890563 101.802484,37.811079 C101.688278,38.1331017 101.631176,38.4944358 101.631176,38.895092 C101.631176,39.3144705 101.688278,39.6870378 101.802484,40.0128049 C101.916689,40.3385721 102.072082,40.612849 102.268665,40.8356438 C102.465249,41.0584387 102.694593,41.2278725 102.956705,41.3439505 C103.218816,41.4600284 103.499646,41.5180666 103.799202,41.5180666 C103.971447,41.5180666 104.128711,41.5096417 104.271,41.4927916 C104.41329,41.4759416 104.545279,41.4469225 104.666974,41.4057336 C104.788669,41.3645447 104.904745,41.311187 105.015206,41.2456591 C105.125668,41.1801313 105.237063,41.0986907 105.349397,41.001335 C105.39433,40.9638905 105.443007,40.9329992 105.49543,40.9086603 C105.547852,40.8843214 105.602146,40.8721521 105.658312,40.8721521 Z M110.374424,38.1199946 L110.677723,38.1199946 C110.958558,38.1199946 111.160754,38.0320013 111.284321,37.8560122 L113.126582,35.1824878 C113.227682,35.0364542 113.342822,34.9372278 113.472006,34.8848055 C113.601189,34.8323832 113.75939,34.8061724 113.946612,34.8061724 L115.597907,34.8061724 L113.171515,38.114378 C113.085393,38.2342004 112.995528,38.3334269 112.901916,38.4120603 C112.808305,38.4906938 112.712823,38.5562207 112.615467,38.608643 C112.757756,38.6610653 112.887873,38.7331449 113.005824,38.8248839 C113.123774,38.916623 113.231425,39.0392519 113.328781,39.1927744 L115.800106,42.9896283 L114.103879,42.9896283 C113.995289,42.9896283 113.902615,42.9821395 113.825854,42.9671617 C113.749094,42.9521839 113.68263,42.9297176 113.626463,42.8997619 C113.570297,42.8698063 113.521619,42.8332984 113.480431,42.7902373 C113.439242,42.7471761 113.399925,42.6975629 113.362481,42.6413961 L111.508987,39.7937557 C111.441587,39.688911 111.356403,39.6149592 111.25343,39.5718981 C111.150457,39.5288369 111.010979,39.5073066 110.834989,39.5073066 L110.374424,39.5073066 L110.374424,42.9896283 L108.475997,42.9896283 L108.475997,34.8061724 L110.374424,34.8061724 L110.374424,38.1199946 Z M121.993396,36.4687002 C121.93723,36.558567 121.878255,36.6259661 121.816472,36.6708995 C121.754689,36.7158329 121.675121,36.7382993 121.577765,36.7382993 C121.491643,36.7382993 121.398969,36.7111524 121.29974,36.6568579 C121.200512,36.6025633 121.088181,36.541717 120.962742,36.4743168 C120.837302,36.4069167 120.69408,36.3460703 120.533068,36.2917758 C120.372057,36.2374812 120.188581,36.2103344 119.982637,36.2103344 C119.626914,36.2103344 119.361998,36.2861584 119.187881,36.4378086 C119.013764,36.5894588 118.926707,36.7944644 118.926707,37.0528315 C118.926707,37.2175874 118.979128,37.3542577 119.083973,37.4628468 C119.188818,37.5714359 119.326424,37.6650458 119.496797,37.7436792 C119.667169,37.8223127 119.861878,37.8943923 120.080928,37.9599202 C120.299978,38.0254481 120.523706,38.0984638 120.752117,38.1789694 C120.980529,38.2594751 121.204257,38.3540211 121.423307,38.4626101 C121.642357,38.5711992 121.837065,38.7097418 122.007438,38.8782421 C122.177811,39.0467424 122.315417,39.2517479 122.420262,39.493265 C122.525107,39.7347821 122.577528,40.0259088 122.577528,40.3666538 C122.577528,40.7448432 122.512001,41.0986885 122.380945,41.4282002 C122.249889,41.7577119 122.059861,42.0450941 121.810855,42.2903556 C121.56185,42.5356171 121.254809,42.7284534 120.889725,42.8688704 C120.524641,43.0092873 120.109949,43.0794946 119.645638,43.0794946 C119.391015,43.0794946 119.131715,43.0532839 118.867732,43.0008616 C118.603749,42.9484393 118.348193,42.8744875 118.10106,42.779004 C117.853926,42.6835205 117.621773,42.5702526 117.404595,42.4391968 C117.187417,42.308141 116.998325,42.1621097 116.837314,42.0010983 L117.398979,41.1136679 C117.440167,41.0462678 117.498206,40.9919741 117.573095,40.9507851 C117.647983,40.9095962 117.728489,40.889002 117.81461,40.889002 C117.926944,40.889002 118.040212,40.9245737 118.154418,40.9957183 C118.268624,41.0668629 118.397805,41.1454951 118.541966,41.2316175 C118.686128,41.3177399 118.851817,41.3963721 119.03904,41.4675167 C119.226262,41.5386613 119.447182,41.574233 119.701804,41.574233 C120.046294,41.574233 120.314018,41.498409 120.504985,41.3467588 C120.695952,41.1951086 120.791434,40.9545312 120.791434,40.6250196 C120.791434,40.4340526 120.739013,40.2786602 120.634168,40.1588378 C120.529323,40.0390154 120.391717,39.9397889 120.221344,39.8611555 C120.050971,39.782522 119.857199,39.7132507 119.640021,39.6533395 C119.422843,39.5934283 119.200051,39.5269653 118.97164,39.4539485 C118.743229,39.3809317 118.520437,39.2910663 118.303259,39.1843494 C118.086081,39.0776325 117.892308,38.9372177 117.721936,38.7631008 C117.551563,38.5889839 117.413957,38.371809 117.309112,38.1115697 C117.204267,37.8513303 117.151846,37.5302485 117.151846,37.1483146 C117.151846,36.8412696 117.213628,36.5417181 117.337195,36.2496509 C117.460763,35.9575837 117.642366,35.6973483 117.88201,35.4689369 C118.121655,35.2405254 118.41559,35.0579861 118.763824,34.9213137 C119.112058,34.7846413 119.510836,34.7163061 119.96017,34.7163061 C120.211048,34.7163061 120.45537,34.7359641 120.693142,34.7752809 C120.930915,34.8145976 121.156515,34.8726357 121.369949,34.9493969 C121.583382,35.0261582 121.782771,35.1178958 121.968122,35.2246127 C122.153472,35.3313295 122.319161,35.4520863 122.465195,35.5868865 L121.993396,36.4687002 Z M130.399646,34.8061724 L130.399646,36.311434 L128.09682,36.311434 L128.09682,42.9896283 L126.198393,42.9896283 L126.198393,36.311434 L123.895568,36.311434 L123.895568,34.8061724 L130.399646,34.8061724 Z M138.839595,42.9896283 L137.368034,42.9896283 C137.203278,42.9896283 137.067544,42.9512482 136.960827,42.874487 C136.85411,42.7977258 136.780158,42.6994354 136.738969,42.579613 L136.255937,41.1529844 L133.144315,41.1529844 L132.661283,42.579613 C132.623839,42.6844576 132.550823,42.7790036 132.442234,42.8632537 C132.333644,42.9475039 132.200719,42.9896283 132.043452,42.9896283 L130.560657,42.9896283 L133.728446,34.8061724 L135.671806,34.8061724 L138.839595,42.9896283 Z M133.582413,39.8611555 L135.817839,39.8611555 L135.065208,37.620113 C135.016531,37.4778238 134.959428,37.3102622 134.8939,37.117423 C134.828373,36.9245838 134.763781,36.7158338 134.700126,36.4911668 C134.640215,36.7195782 134.578432,36.9311366 134.514777,37.125848 C134.451121,37.3205594 134.39121,37.4890571 134.335044,37.6313463 L133.582413,39.8611555 Z M145.600167,40.8721521 C145.6451,40.8721521 145.690034,40.8805769 145.734967,40.897427 C145.7799,40.914277 145.822961,40.9432961 145.86415,40.984485 L146.61678,41.7764324 C146.287269,42.2070442 145.87445,42.5318704 145.37831,42.7509208 C144.88217,42.9699711 144.295236,43.0794946 143.617491,43.0794946 C142.995912,43.0794946 142.438933,42.9737155 141.946538,42.762154 C141.454142,42.5505926 141.036643,42.2585298 140.694025,41.885957 C140.351408,41.5133841 140.088364,41.0715456 139.904886,40.5604281 C139.721408,40.0493106 139.629671,39.4942041 139.629671,38.895092 C139.629671,38.2847465 139.734514,37.7240235 139.944203,37.212906 C140.153892,36.7017885 140.446891,36.2608861 140.823208,35.8901854 C141.199526,35.5194848 141.649789,35.2311665 142.174012,35.0252217 C142.698235,34.8192769 143.276744,34.7163061 143.909556,34.7163061 C144.216602,34.7163061 144.505856,34.7434529 144.777328,34.7977474 C145.048801,34.852042 145.302484,34.9269299 145.538384,35.0224134 C145.774284,35.1178968 145.991459,35.2321009 146.189915,35.3650289 C146.388371,35.4979569 146.564358,35.6449243 146.71788,35.8059357 L146.077582,36.6652828 C146.036394,36.7177052 145.987716,36.7654462 145.931549,36.8085074 C145.875383,36.8515685 145.796751,36.8730988 145.69565,36.8730988 C145.62825,36.8730988 145.564595,36.8581213 145.504684,36.8281656 C145.444773,36.79821 145.381118,36.7617022 145.313718,36.718641 C145.246318,36.6755798 145.172366,36.6287749 145.091861,36.5782248 C145.011355,36.5276747 144.915873,36.4808698 144.805412,36.4378086 C144.69495,36.3947475 144.565769,36.3582396 144.417863,36.328284 C144.269957,36.2983283 144.096779,36.2833508 143.898323,36.2833508 C143.553833,36.2833508 143.239305,36.3441972 142.954726,36.4658918 C142.670147,36.5875864 142.425826,36.7617008 142.221754,36.9882401 C142.017681,37.2147793 141.858545,37.4890563 141.744339,37.811079 C141.630132,38.1331017 141.573031,38.4944358 141.573031,38.895092 C141.573031,39.3144705 141.630132,39.6870378 141.744339,40.0128049 C141.858545,40.3385721 142.013937,40.612849 142.21052,40.8356438 C142.407104,41.0584387 142.636448,41.2278725 142.89856,41.3439505 C143.160671,41.4600284 143.4415,41.5180666 143.741057,41.5180666 C143.913302,41.5180666 144.070566,41.5096417 144.212855,41.4927916 C144.355145,41.4759416 144.487134,41.4469225 144.608829,41.4057336 C144.730524,41.3645447 144.846599,41.311187 144.957061,41.2456591 C145.067523,41.1801313 145.178918,41.0986907 145.291252,41.001335 C145.336185,40.9638905 145.384862,40.9329992 145.437284,40.9086603 C145.489706,40.8843214 145.544001,40.8721521 145.600167,40.8721521 Z M150.316279,38.1199946 L150.619578,38.1199946 C150.900412,38.1199946 151.102609,38.0320013 151.226176,37.8560122 L153.068437,35.1824878 C153.169537,35.0364542 153.284677,34.9372278 153.41386,34.8848055 C153.543044,34.8323832 153.701245,34.8061724 153.888467,34.8061724 L155.539762,34.8061724 L153.11337,38.114378 C153.027248,38.2342004 152.937382,38.3334269 152.843771,38.4120603 C152.75016,38.4906938 152.654678,38.5562207 152.557322,38.608643 C152.699611,38.6610653 152.829728,38.7331449 152.947679,38.8248839 C153.065629,38.916623 153.17328,39.0392519 153.270636,39.1927744 L155.741961,42.9896283 L154.045733,42.9896283 C153.937144,42.9896283 153.84447,42.9821395 153.767709,42.9671617 C153.690948,42.9521839 153.624485,42.9297176 153.568318,42.8997619 C153.512152,42.8698063 153.463474,42.8332984 153.422285,42.7902373 C153.381097,42.7471761 153.34178,42.6975629 153.304336,42.6413961 L151.450842,39.7937557 C151.383442,39.688911 151.298257,39.6149592 151.195285,39.5718981 C151.092312,39.5288369 150.952834,39.5073066 150.776844,39.5073066 L150.316279,39.5073066 L150.316279,42.9896283 L148.417852,42.9896283 L148.417852,34.8061724 L150.316279,34.8061724 L150.316279,38.1199946 Z M164.571331,36.4687002 C164.515165,36.558567 164.45619,36.6259661 164.394407,36.6708995 C164.332624,36.7158329 164.253056,36.7382993 164.155699,36.7382993 C164.069577,36.7382993 163.976904,36.7111524 163.877675,36.6568579 C163.778447,36.6025633 163.666116,36.541717 163.540676,36.4743168 C163.415237,36.4069167 163.272014,36.3460703 163.111003,36.2917758 C162.949991,36.2374812 162.766516,36.2103344 162.560571,36.2103344 C162.204849,36.2103344 161.939933,36.2861584 161.765816,36.4378086 C161.591699,36.5894588 161.504642,36.7944644 161.504642,37.0528315 C161.504642,37.2175874 161.557063,37.3542577 161.661908,37.4628468 C161.766753,37.5714359 161.904359,37.6650458 162.074731,37.7436792 C162.245104,37.8223127 162.439813,37.8943923 162.658863,37.9599202 C162.877913,38.0254481 163.101641,38.0984638 163.330052,38.1789694 C163.558463,38.2594751 163.782191,38.3540211 164.001242,38.4626101 C164.220292,38.5711992 164.415,38.7097418 164.585373,38.8782421 C164.755746,39.0467424 164.893352,39.2517479 164.998197,39.493265 C165.103042,39.7347821 165.155463,40.0259088 165.155463,40.3666538 C165.155463,40.7448432 165.089936,41.0986885 164.95888,41.4282002 C164.827824,41.7577119 164.637796,42.0450941 164.38879,42.2903556 C164.139785,42.5356171 163.832744,42.7284534 163.46766,42.8688704 C163.102576,43.0092873 162.687884,43.0794946 162.223573,43.0794946 C161.96895,43.0794946 161.70965,43.0532839 161.445667,43.0008616 C161.181683,42.9484393 160.926128,42.8744875 160.678994,42.779004 C160.431861,42.6835205 160.199708,42.5702526 159.98253,42.4391968 C159.765352,42.308141 159.57626,42.1621097 159.415249,42.0010983 L159.976913,41.1136679 C160.018102,41.0462678 160.076141,40.9919741 160.15103,40.9507851 C160.225918,40.9095962 160.306423,40.889002 160.392545,40.889002 C160.504879,40.889002 160.618146,40.9245737 160.732353,40.9957183 C160.846559,41.0668629 160.97574,41.1454951 161.119901,41.2316175 C161.264063,41.3177399 161.429752,41.3963721 161.616975,41.4675167 C161.804197,41.5386613 162.025117,41.574233 162.279739,41.574233 C162.624229,41.574233 162.891953,41.498409 163.08292,41.3467588 C163.273887,41.1951086 163.369369,40.9545312 163.369369,40.6250196 C163.369369,40.4340526 163.316948,40.2786602 163.212103,40.1588378 C163.107258,40.0390154 162.969652,39.9397889 162.799279,39.8611555 C162.628906,39.782522 162.435134,39.7132507 162.217956,39.6533395 C162.000778,39.5934283 161.777986,39.5269653 161.549575,39.4539485 C161.321164,39.3809317 161.098372,39.2910663 160.881194,39.1843494 C160.664016,39.0776325 160.470243,38.9372177 160.299871,38.7631008 C160.129498,38.5889839 159.991892,38.371809 159.887047,38.1115697 C159.782202,37.8513303 159.729781,37.5302485 159.729781,37.1483146 C159.729781,36.8412696 159.791563,36.5417181 159.91513,36.2496509 C160.038697,35.9575837 160.220301,35.6973483 160.459945,35.4689369 C160.69959,35.2405254 160.993525,35.0579861 161.341759,34.9213137 C161.689993,34.7846413 162.088771,34.7163061 162.538105,34.7163061 C162.788983,34.7163061 163.033305,34.7359641 163.271077,34.7752809 C163.50885,34.8145976 163.73445,34.8726357 163.947883,34.9493969 C164.161317,35.0261582 164.360706,35.1178958 164.546056,35.2246127 C164.731407,35.3313295 164.897096,35.4520863 165.04313,35.5868865 L164.571331,36.4687002 Z M170.204829,41.4899833 C170.459451,41.4899833 170.686924,41.4478589 170.887252,41.3636087 C171.08758,41.2793586 171.257014,41.1586018 171.395558,41.001335 C171.534103,40.8440681 171.639883,40.6521678 171.712899,40.4256286 C171.785915,40.1990893 171.822424,39.9416621 171.822424,39.6533395 L171.822424,34.8061724 L173.720851,34.8061724 L173.720851,39.6533395 C173.720851,40.1550959 173.63941,40.6156564 173.476526,41.0350348 C173.313643,41.4544133 173.080555,41.8157474 172.777254,42.1190479 C172.473953,42.4223484 172.10513,42.6582452 171.670774,42.8267455 C171.236418,42.9952458 170.747775,43.0794946 170.204829,43.0794946 C169.658139,43.0794946 169.167623,42.9952458 168.733267,42.8267455 C168.298911,42.6582452 167.930089,42.4223484 167.626788,42.1190479 C167.323487,41.8157474 167.091335,41.4544133 166.930323,41.0350348 C166.769312,40.6156564 166.688808,40.1550959 166.688808,39.6533395 L166.688808,34.8061724 L168.587235,34.8061724 L168.587235,39.6477228 C168.587235,39.9360455 168.623743,40.1934727 168.696759,40.4200119 C168.769776,40.6465512 168.875555,40.8393874 169.0141,40.9985266 C169.152645,41.1576657 169.322078,41.2793586 169.522406,41.3636087 C169.722734,41.4478589 169.950207,41.4899833 170.204829,41.4899833 Z M179.842997,39.2489408 C179.917885,39.39123 179.989966,39.5391336 180.059238,39.692656 C180.12851,39.8461785 180.194973,40.003443 180.258629,40.1644544 C180.322284,39.9996986 180.389684,39.8396257 180.460828,39.684231 C180.531972,39.5288364 180.604989,39.3781245 180.679877,39.2320909 L182.780504,35.0982381 C182.817948,35.0270935 182.856328,34.9718637 182.895645,34.932547 C182.934961,34.8932303 182.978958,34.8642112 183.027636,34.845489 C183.076314,34.8267667 183.131544,34.8155335 183.193327,34.8117891 C183.25511,34.8080446 183.327191,34.8061724 183.409568,34.8061724 L184.858663,34.8061724 L184.858663,42.9896283 L183.184902,42.9896283 L183.184902,38.2828774 C183.184902,38.0544659 183.196136,37.8073359 183.218602,37.5414799 L181.050576,41.7483491 C180.983176,41.8794049 180.892375,41.9786313 180.778169,42.0460315 C180.663963,42.1134316 180.533845,42.1471311 180.387812,42.1471311 L180.129446,42.1471311 C179.983412,42.1471311 179.853295,42.1134316 179.739089,42.0460315 C179.624883,41.9786313 179.534081,41.8794049 179.466681,41.7483491 L177.287422,37.5358633 C177.3024,37.666919 177.313633,37.7970367 177.321122,37.9262203 C177.328611,38.0554038 177.332355,38.1742883 177.332355,38.2828774 L177.332355,42.9896283 L175.658594,42.9896283 L175.658594,34.8061724 L177.107689,34.8061724 C177.190067,34.8061724 177.262147,34.8080446 177.32393,34.8117891 C177.385713,34.8155335 177.440944,34.8267667 177.489621,34.845489 C177.538299,34.8642112 177.582296,34.8932303 177.621613,34.932547 C177.660929,34.9718637 177.69931,35.0270935 177.736754,35.0982381 L179.842997,39.2489408 Z M191.093142,39.2489408 C191.168031,39.39123 191.240111,39.5391336 191.309383,39.692656 C191.378655,39.8461785 191.445119,40.003443 191.508774,40.1644544 C191.57243,39.9996986 191.639829,39.8396257 191.710974,39.684231 C191.782118,39.5288364 191.855134,39.3781245 191.930023,39.2320909 L194.030649,35.0982381 C194.068093,35.0270935 194.106474,34.9718637 194.14579,34.932547 C194.185107,34.8932303 194.229104,34.8642112 194.277782,34.845489 C194.326459,34.8267667 194.38169,34.8155335 194.443473,34.8117891 C194.505256,34.8080446 194.577336,34.8061724 194.659714,34.8061724 L196.108809,34.8061724 L196.108809,42.9896283 L194.435048,42.9896283 L194.435048,38.2828774 C194.435048,38.0544659 194.446281,37.8073359 194.468748,37.5414799 L192.300722,41.7483491 C192.233322,41.8794049 192.14252,41.9786313 192.028314,42.0460315 C191.914108,42.1134316 191.783991,42.1471311 191.637957,42.1471311 L191.379591,42.1471311 C191.233558,42.1471311 191.10344,42.1134316 190.989234,42.0460315 C190.875028,41.9786313 190.784227,41.8794049 190.716827,41.7483491 L188.537568,37.5358633 C188.552545,37.666919 188.563779,37.7970367 188.571267,37.9262203 C188.578756,38.0554038 188.582501,38.1742883 188.582501,38.2828774 L188.582501,42.9896283 L186.90874,42.9896283 L186.90874,34.8061724 L188.357835,34.8061724 C188.440212,34.8061724 188.512293,34.8080446 188.574076,34.8117891 C188.635859,34.8155335 188.691089,34.8267667 188.739767,34.845489 C188.788445,34.8642112 188.832442,34.8932303 188.871758,34.932547 C188.911075,34.9718637 188.949455,35.0270935 188.986899,35.0982381 L191.093142,39.2489408 Z M200.237045,42.9896283 L198.327385,42.9896283 L198.327385,34.8061724 L200.237045,34.8061724 L200.237045,42.9896283 Z M208.398034,34.8061724 L208.398034,36.311434 L206.095209,36.311434 L206.095209,42.9896283 L204.196782,42.9896283 L204.196782,36.311434 L201.893956,36.311434 L201.893956,34.8061724 L208.398034,34.8061724 Z" id="Blockstack-Summit" fill-rule="nonzero"></path>
            </g>
        </g>
    </g>
</svg>