<?xml version="1.0" encoding="UTF-8"?>
<svg width="272px" height="172px" viewBox="0 0 272 172" version="1.1" xmlns="http://www.w3.org/2000/svg" xmlns:xlink="http://www.w3.org/1999/xlink">
    <!-- Generator: Sketch 46.1 (44463) - http://www.bohemiancoding.com/sketch -->
    <title>blockstack-signature-fund-logo</title>
    <desc>Created with Sketch.</desc>
    <defs></defs>
    <g id="Page-1" stroke="none" stroke-width="1" fill="none" fill-rule="evenodd">
        <g id="blockstack-signature-fund-logo" fill="#FFFFFF">
            <g transform="translate(15.000000, 15.000000)">
                <path d="M40.3027,49.529 C41.8817,49.529 42.6707,48.934 42.6707,47.743 C42.6707,47.169 42.4807,46.75 42.0997,46.489 C41.7177,46.228 41.1187,46.097 40.3027,46.097 L39.0187,46.097 L39.0187,49.529 L40.3027,49.529 Z M40.0227,44.01 C40.7447,44.01 41.2667,43.867 41.5877,43.579 C41.9077,43.292 42.0697,42.901 42.0697,42.405 C42.0697,41.91 41.9057,41.555 41.5767,41.341 C41.2497,41.128 40.7377,41.02 40.0427,41.02 L39.0187,41.02 L39.0187,44.01 L40.0227,44.01 Z M36.0687,38.732 L40.1617,38.732 C40.8447,38.732 41.4767,38.783 42.0597,38.883 C42.6417,38.984 43.1457,39.161 43.5747,39.415 C44.0017,39.67 44.3397,40.004 44.5877,40.419 C44.8347,40.833 44.9597,41.355 44.9597,41.984 C44.9597,42.278 44.9157,42.572 44.8287,42.867 C44.7417,43.161 44.6037,43.435 44.4167,43.689 C44.2297,43.944 43.9957,44.171 43.7147,44.372 C43.4337,44.573 43.0997,44.719 42.7107,44.813 L42.7107,44.893 C43.6477,45.067 44.3577,45.402 44.8387,45.897 C45.3217,46.391 45.5617,47.081 45.5617,47.964 C45.5617,48.633 45.4347,49.209 45.1797,49.69 C44.9257,50.172 44.5717,50.569 44.1157,50.883 C43.6617,51.199 43.1287,51.433 42.5217,51.587 C41.9117,51.741 41.2537,51.817 40.5437,51.817 L36.0687,51.817 L36.0687,38.732 Z" id="Fill-1"></path>
                <polygon id="Fill-3" points="53.8486 38.7321 56.7996 38.7321 56.7996 49.3291 62.6186 49.3291 62.6186 51.8171 53.8486 51.8171"></polygon>
                <path d="M75.041,49.5095 C75.723,49.5095 76.265,49.1245 76.666,48.3555 C77.067,47.5865 77.269,46.5395 77.269,45.2155 C77.269,43.9035 77.067,42.8795 76.666,42.1445 C76.265,41.4085 75.723,41.0395 75.041,41.0395 C74.358,41.0395 73.817,41.4085 73.415,42.1445 C73.014,42.8795 72.812,43.9035 72.812,45.2155 C72.812,46.5395 73.014,47.5865 73.415,48.3555 C73.817,49.1245 74.358,49.5095 75.041,49.5095 M75.041,52.0585 C74.265,52.0585 73.553,51.9005 72.903,51.5865 C72.255,51.2725 71.699,50.8205 71.238,50.2325 C70.776,49.6435 70.418,48.9275 70.164,48.0845 C69.91,47.2405 69.783,46.2845 69.783,45.2155 C69.783,44.1445 69.91,43.1915 70.164,42.3555 C70.418,41.5185 70.776,40.8175 71.238,40.2475 C71.699,39.6795 72.255,39.2435 72.903,38.9435 C73.553,38.6425 74.265,38.4915 75.041,38.4915 C75.816,38.4915 76.529,38.6425 77.179,38.9435 C77.826,39.2435 78.382,39.6835 78.844,40.2575 C79.305,40.8325 79.662,41.5385 79.918,42.3745 C80.171,43.2105 80.298,44.1575 80.298,45.2155 C80.298,46.2845 80.171,47.2405 79.918,48.0845 C79.662,48.9275 79.305,49.6435 78.844,50.2325 C78.382,50.8205 77.826,51.2725 77.179,51.5865 C76.529,51.9005 75.816,52.0585 75.041,52.0585" id="Fill-5"></path>
                <path d="M87.4434,45.3552 C87.4434,44.2712 87.6034,43.3052 87.9244,42.4552 C88.2454,41.6062 88.6874,40.8872 89.2504,40.2972 C89.8114,39.7092 90.4734,39.2612 91.2354,38.9542 C91.9984,38.6462 92.8144,38.4922 93.6834,38.4922 C94.5274,38.4922 95.2724,38.6622 95.9224,39.0032 C96.5704,39.3442 97.1154,39.7292 97.5574,40.1582 L95.9314,41.9842 C95.6244,41.7022 95.2904,41.4752 94.9284,41.3012 C94.5674,41.1272 94.1524,41.0402 93.6834,41.0402 C93.2154,41.0402 92.7874,41.1372 92.3994,41.3322 C92.0114,41.5252 91.6734,41.8032 91.3854,42.1642 C91.0984,42.5252 90.8744,42.9662 90.7144,43.4892 C90.5524,44.0102 90.4734,44.5992 90.4734,45.2542 C90.4734,46.6062 90.7814,47.6522 91.3964,48.3952 C92.0114,49.1372 92.8144,49.5092 93.8044,49.5092 C94.2724,49.5092 94.6974,49.4022 95.0794,49.1882 C95.4604,48.9742 95.8114,48.6932 96.1324,48.3442 L97.7584,50.1312 C96.6614,51.4162 95.2824,52.0582 93.6244,52.0582 C92.7814,52.0582 91.9854,51.9142 91.2354,51.6262 C90.4864,51.3382 89.8314,50.9142 89.2684,50.3522 C88.7074,49.7902 88.2614,49.0912 87.9344,48.2542 C87.6064,47.4182 87.4434,46.4522 87.4434,45.3552" id="Fill-7"></path>
                <polygon id="Fill-9" points="105.0225 38.7321 108.0125 38.7321 108.0125 44.0901 108.0735 44.0901 111.9465 38.7321 115.1975 38.7321 111.2845 43.9511 115.5785 51.8171 112.3075 51.8171 109.5385 46.2981 108.0125 48.3051 108.0125 51.8171 105.0225 51.8171"></polygon>
                <path d="M123.6855,48.1442 C124.1805,48.5462 124.7185,48.8732 125.3005,49.1272 C125.8825,49.3822 126.4615,49.5092 127.0375,49.5092 C127.7185,49.5092 128.2175,49.3952 128.5325,49.1672 C128.8465,48.9412 129.0025,48.6332 129.0025,48.2452 C129.0025,48.0432 128.9565,47.8702 128.8635,47.7232 C128.7695,47.5762 128.6355,47.4452 128.4615,47.3322 C128.2885,47.2182 128.0775,47.1112 127.8295,47.0102 C127.5825,46.9102 127.2975,46.8002 126.9775,46.6792 L125.2905,45.9572 C124.9305,45.8232 124.5785,45.6492 124.2385,45.4352 C123.8955,45.2212 123.5985,44.9712 123.3445,44.6822 C123.0895,44.3952 122.8855,44.0612 122.7325,43.6792 C122.5785,43.2972 122.5015,42.8672 122.5015,42.3852 C122.5015,41.8492 122.6195,41.3442 122.8535,40.8702 C123.0855,40.3952 123.4145,39.9802 123.8355,39.6252 C124.2565,39.2712 124.7615,38.9932 125.3515,38.7922 C125.9395,38.5922 126.5885,38.4922 127.2975,38.4922 C128.1005,38.4922 128.8755,38.6392 129.6255,38.9332 C130.3745,39.2282 131.0495,39.6552 131.6525,40.2172 L130.1475,42.0842 C129.6925,41.7492 129.2445,41.4922 128.8025,41.3112 C128.3625,41.1302 127.8595,41.0402 127.2975,41.0402 C126.7215,41.0402 126.2775,41.1442 125.9625,41.3512 C125.6495,41.5592 125.4925,41.8492 125.4925,42.2242 C125.4925,42.6252 125.6925,42.9272 126.0935,43.1272 C126.4955,43.3282 127.0095,43.5422 127.6395,43.7702 L129.2245,44.4522 C130.0935,44.7732 130.7795,45.2152 131.2815,45.7772 C131.7835,46.3382 132.0335,47.0812 132.0335,48.0042 C132.0335,48.5532 131.9195,49.0712 131.6935,49.5592 C131.4645,50.0482 131.1365,50.4762 130.7095,50.8432 C130.2815,51.2112 129.7515,51.5052 129.1235,51.7272 C128.4945,51.9482 127.7725,52.0582 126.9565,52.0582 C126.0735,52.0582 125.2015,51.9002 124.3375,51.5862 C123.4745,51.2722 122.6885,50.8002 121.9795,50.1712 L123.6855,48.1442 Z" id="Fill-11"></path>
                <polygon id="Fill-13" points="142.8301 41.2204 138.9181 41.2204 138.9181 38.7324 149.7131 38.7324 149.7131 41.2204 145.8021 41.2204 145.8021 51.8174 142.8301 51.8174"></polygon>
                <path d="M162.959,46.3981 L162.658,45.1941 C162.484,44.5391 162.31,43.8431 162.136,43.1081 C161.962,42.3721 161.788,41.6631 161.614,40.9801 L161.533,40.9801 C161.374,41.6751 161.205,42.3891 161.031,43.1171 C160.857,43.8461 160.684,44.5391 160.51,45.1941 L160.209,46.3981 L162.959,46.3981 Z M163.561,48.7061 L159.606,48.7061 L158.805,51.8171 L155.794,51.8171 L159.868,38.7321 L163.399,38.7321 L167.475,51.8171 L164.344,51.8171 L163.561,48.7061 Z" id="Fill-15"></path>
                <path d="M174.0361,45.3552 C174.0361,44.2712 174.1961,43.3052 174.5161,42.4552 C174.8391,41.6062 175.2801,40.8872 175.8421,40.2972 C176.4041,39.7092 177.0671,39.2612 177.8291,38.9542 C178.5921,38.6462 179.4071,38.4922 180.2771,38.4922 C181.1201,38.4922 181.8661,38.6622 182.5151,39.0032 C183.1641,39.3442 183.7091,39.7292 184.1501,40.1582 L182.5241,41.9842 C182.2171,41.7022 181.8831,41.4752 181.5211,41.3012 C181.1601,41.1272 180.7451,41.0402 180.2771,41.0402 C179.8071,41.0402 179.3811,41.1372 178.9931,41.3322 C178.6051,41.5252 178.2661,41.8032 177.9781,42.1642 C177.6911,42.5252 177.4681,42.9662 177.3071,43.4892 C177.1461,44.0102 177.0671,44.5992 177.0671,45.2542 C177.0671,46.6062 177.3731,47.6522 177.9901,48.3952 C178.6051,49.1372 179.4071,49.5092 180.3981,49.5092 C180.8651,49.5092 181.2911,49.4022 181.6721,49.1882 C182.0541,48.9742 182.4041,48.6932 182.7241,48.3442 L184.3501,50.1312 C183.2541,51.4162 181.8761,52.0582 180.2171,52.0582 C179.3741,52.0582 178.5781,51.9142 177.8291,51.6262 C177.0791,51.3382 176.4241,50.9142 175.8621,50.3522 C175.3001,49.7902 174.8551,49.0912 174.5281,48.2542 C174.1991,47.4182 174.0361,46.4522 174.0361,45.3552" id="Fill-17"></path>
                <polygon id="Fill-19" points="191.6162 38.7321 194.6052 38.7321 194.6052 44.0901 194.6662 44.0901 198.5392 38.7321 201.7902 38.7321 197.8772 43.9511 202.1722 51.8171 198.9002 51.8171 196.1322 46.2981 194.6052 48.3051 194.6052 51.8171 191.6162 51.8171"></polygon>
                <path d="M37.0918,73.3269 C37.5878,73.7279 38.1258,74.0559 38.7078,74.3099 C39.2898,74.5639 39.8688,74.6909 40.4448,74.6909 C41.1258,74.6909 41.6248,74.5779 41.9388,74.3499 C42.2528,74.1229 42.4098,73.8149 42.4098,73.4269 C42.4098,73.2259 42.3628,73.0529 42.2698,72.9059 C42.1768,72.7579 42.0428,72.6279 41.8678,72.5149 C41.6948,72.3999 41.4848,72.2939 41.2368,72.1919 C40.9888,72.0929 40.7048,71.9819 40.3838,71.8609 L38.6978,71.1389 C38.3368,71.0059 37.9858,70.8319 37.6448,70.6179 C37.3028,70.4039 37.0048,70.1529 36.7518,69.8649 C36.4968,69.5769 36.2928,69.2429 36.1388,68.8609 C35.9858,68.4799 35.9078,68.0489 35.9078,67.5669 C35.9078,67.0319 36.0258,66.5269 36.2598,66.0529 C36.4928,65.5769 36.8208,65.1619 37.2428,64.8079 C37.6638,64.4539 38.1688,64.1759 38.7588,63.9749 C39.3468,63.7739 39.9958,63.6749 40.7048,63.6749 C41.5068,63.6749 42.2828,63.8219 43.0318,64.1159 C43.7808,64.4099 44.4568,64.8379 45.0598,65.3989 L43.5538,67.2659 C43.0998,66.9309 42.6518,66.6749 42.2088,66.4939 C41.7688,66.3129 41.2668,66.2229 40.7048,66.2229 C40.1288,66.2229 39.6838,66.3259 39.3698,66.5329 C39.0558,66.7419 38.8988,67.0319 38.8988,67.4059 C38.8988,67.8069 39.0998,68.1089 39.4998,68.3089 C39.9028,68.5109 40.4168,68.7249 41.0458,68.9519 L42.6308,69.6339 C43.5008,69.9559 44.1858,70.3969 44.6888,70.9589 C45.1908,71.5209 45.4408,72.2639 45.4408,73.1859 C45.4408,73.7349 45.3258,74.2539 45.0998,74.7409 C44.8728,75.2299 44.5438,75.6579 44.1158,76.0259 C43.6888,76.3939 43.1588,76.6879 42.5298,76.9089 C41.9018,77.1299 41.1798,77.2399 40.3628,77.2399 C39.4808,77.2399 38.6078,77.0829 37.7448,76.7679 C36.8818,76.4549 36.0948,75.9819 35.3868,75.3529 L37.0918,73.3269 Z" id="Fill-21"></path>
                <polygon id="Fill-23" points="53.1865 74.5105 56.2385 74.5105 56.2385 66.4035 53.1865 66.4035 53.1865 63.9145 62.2575 63.9145 62.2575 66.4035 59.2075 66.4035 59.2075 74.5105 62.2575 74.5105 62.2575 76.9985 53.1865 76.9985"></polygon>
                <path d="M69.9033,70.5368 C69.9033,69.4398 70.0603,68.4668 70.3743,67.6168 C70.6893,66.7678 71.1183,66.0528 71.6593,65.4708 C72.2023,64.8878 72.8393,64.4428 73.5763,64.1358 C74.3103,63.8278 75.1013,63.6748 75.9433,63.6748 C76.8273,63.6748 77.5803,63.8448 78.2023,64.1858 C78.8233,64.5258 79.3483,64.9108 79.7773,65.3398 L78.1513,67.1658 C77.8713,66.8848 77.5623,66.6568 77.2273,66.4828 C76.8923,66.3088 76.4653,66.2228 75.9433,66.2228 C75.5153,66.2228 75.1203,66.3198 74.7583,66.5138 C74.3973,66.7078 74.0843,66.9848 73.8173,67.3458 C73.5493,67.7068 73.3393,68.1488 73.1843,68.6708 C73.0303,69.1918 72.9543,69.7808 72.9543,70.4368 C72.9543,71.7888 73.2123,72.8348 73.7263,73.5768 C74.2413,74.3198 75.0203,74.6908 76.0643,74.6908 C76.3183,74.6908 76.5593,74.6578 76.7873,74.5908 C77.0133,74.5238 77.2013,74.4238 77.3483,74.2898 L77.3483,72.0418 L75.4423,72.0418 L75.4423,69.6338 L79.9973,69.6338 L79.9973,75.6538 C79.5563,76.0688 78.9733,76.4368 78.2513,76.7578 C77.5283,77.0798 76.7463,77.2398 75.9033,77.2398 C75.0603,77.2398 74.2753,77.0958 73.5463,76.8078 C72.8163,76.5198 72.1803,76.0958 71.6393,75.5338 C71.0963,74.9728 70.6733,74.2728 70.3653,73.4368 C70.0563,72.6008 69.9033,71.6348 69.9033,70.5368" id="Fill-25"></path>
                <path d="M87.6641,63.9147 L90.6741,63.9147 L93.4431,70.4367 L94.5671,73.3067 L94.6471,73.3067 C94.5801,72.6107 94.4931,71.8347 94.3871,70.9787 C94.2791,70.1227 94.2261,69.3127 94.2261,68.5507 L94.2261,63.9147 L97.0561,63.9147 L97.0561,76.9987 L94.0451,76.9987 L91.2751,70.4767 L90.1521,67.6277 L90.0721,67.6277 C90.1391,68.3497 90.2261,69.1257 90.3321,69.9557 C90.4391,70.7847 90.4931,71.5877 90.4931,72.3637 L90.4931,76.9987 L87.6641,76.9987 L87.6641,63.9147 Z" id="Fill-27"></path>
                <path d="M111.0029,71.5808 L110.7019,70.3768 C110.5279,69.7208 110.3549,69.0258 110.1799,68.2898 C110.0059,67.5548 109.8319,66.8448 109.6589,66.1628 L109.5769,66.1628 C109.4179,66.8578 109.2499,67.5708 109.0759,68.2998 C108.9019,69.0278 108.7289,69.7208 108.5539,70.3768 L108.2529,71.5808 L111.0029,71.5808 Z M111.6059,73.8888 L107.6509,73.8888 L106.8489,76.9988 L103.8379,76.9988 L107.9129,63.9148 L111.4439,63.9148 L115.5189,76.9988 L112.3879,76.9988 L111.6059,73.8888 Z" id="Fill-29"></path>
                <polygon id="Fill-31" points="125.5107 66.403 121.5987 66.403 121.5987 63.915 132.3947 63.915 132.3947 66.403 128.4827 66.403 128.4827 76.999 125.5107 76.999"></polygon>
                <path d="M139.5801,63.9147 L142.5291,63.9147 L142.5291,72.2637 C142.5291,73.0527 142.6771,73.6547 142.9721,74.0687 C143.2651,74.4837 143.7261,74.6907 144.3561,74.6907 C144.9841,74.6907 145.4491,74.4837 145.7501,74.0687 C146.0511,73.6547 146.2021,73.0527 146.2021,72.2637 L146.2021,63.9147 L149.0511,63.9147 L149.0511,71.9617 C149.0511,73.6747 148.6671,74.9817 147.8971,75.8847 C147.1281,76.7877 145.9471,77.2397 144.3561,77.2397 C142.7501,77.2397 141.5531,76.7877 140.7641,75.8847 C139.9741,74.9817 139.5801,73.6747 139.5801,71.9617 L139.5801,63.9147 Z" id="Fill-33"></path>
                <path d="M159.9678,69.9353 L161.4128,69.9353 C163.0048,69.9353 163.8008,69.2873 163.8008,67.9883 C163.8008,67.3453 163.6008,66.8983 163.1988,66.6443 C162.7978,66.3893 162.2018,66.2623 161.4128,66.2623 L159.9678,66.2623 L159.9678,69.9353 Z M164.0228,76.9983 L161.5138,72.2833 L159.9678,72.2833 L159.9678,76.9983 L157.0178,76.9983 L157.0178,63.9143 L161.6538,63.9143 C162.3498,63.9143 163.0018,63.9813 163.6108,64.1163 C164.2188,64.2483 164.7538,64.4733 165.2158,64.7883 C165.6768,65.1023 166.0418,65.5203 166.3098,66.0413 C166.5778,66.5633 166.7108,67.2123 166.7108,67.9883 C166.7108,68.9523 166.4958,69.7453 166.0688,70.3673 C165.6418,70.9883 165.0788,71.4543 164.3838,71.7613 L167.3328,76.9983 L164.0228,76.9983 Z" id="Fill-35"></path>
                <polygon id="Fill-37" points="174.8184 63.9147 183.4474 63.9147 183.4474 66.4027 177.7684 66.4027 177.7684 69.0317 182.5854 69.0317 182.5854 71.4997 177.7684 71.4997 177.7684 74.5107 183.6484 74.5107 183.6484 76.9987 174.8184 76.9987"></polygon>
                <polygon id="Fill-39" points="36.5508 89.0964 45.1798 89.0964 45.1798 91.5844 39.4998 91.5844 39.4998 94.6154 44.3368 94.6154 44.3368 97.1044 39.4998 97.1044 39.4998 102.1814 36.5508 102.1814"></polygon>
                <path d="M52.9863,89.0964 L55.9373,89.0964 L55.9373,97.4454 C55.9373,98.2344 56.0843,98.8364 56.3783,99.2504 C56.6723,99.6654 57.1333,99.8734 57.7623,99.8734 C58.3913,99.8734 58.8553,99.6654 59.1563,99.2504 C59.4583,98.8364 59.6083,98.2344 59.6083,97.4454 L59.6083,89.0964 L62.4593,89.0964 L62.4593,97.1434 C62.4593,98.8564 62.0733,100.1644 61.3043,101.0674 C60.5363,101.9704 59.3543,102.4224 57.7623,102.4224 C56.1563,102.4224 54.9593,101.9704 54.1703,101.0674 C53.3823,100.1644 52.9863,98.8564 52.9863,97.1434 L52.9863,89.0964 Z" id="Fill-41"></path>
                <path d="M70.3447,89.0964 L73.3557,89.0964 L76.1247,95.6184 L77.2487,98.4894 L77.3277,98.4894 C77.2617,97.7934 77.1747,97.0174 77.0677,96.1604 C76.9597,95.3054 76.9067,94.4944 76.9067,93.7334 L76.9067,89.0964 L79.7367,89.0964 L79.7367,102.1814 L76.7267,102.1814 L73.9567,95.6584 L72.8337,92.8104 L72.7527,92.8104 C72.8207,93.5324 72.9077,94.3084 73.0137,95.1374 C73.1207,95.9674 73.1737,96.7704 73.1737,97.5454 L73.1737,102.1814 L70.3447,102.1814 L70.3447,89.0964 Z" id="Fill-43"></path>
                <path d="M91.0352,99.7927 C91.5432,99.7927 92.0092,99.7207 92.4302,99.5727 C92.8512,99.4247 93.2132,99.1877 93.5142,98.8597 C93.8142,98.5317 94.0492,98.1017 94.2162,97.5647 C94.3842,97.0297 94.4672,96.3677 94.4672,95.5787 C94.4672,94.8027 94.3842,94.1507 94.2162,93.6217 C94.0492,93.0937 93.8142,92.6727 93.5142,92.3577 C93.2132,92.0437 92.8512,91.8187 92.4302,91.6857 C92.0092,91.5517 91.5432,91.4847 91.0352,91.4847 L90.6132,91.4847 L90.6132,99.7927 L91.0352,99.7927 Z M87.6432,89.0967 L91.1962,89.0967 C92.1452,89.0967 93.0082,89.2247 93.7842,89.4777 C94.5602,89.7317 95.2222,90.1237 95.7712,90.6517 C96.3192,91.1817 96.7442,91.8527 97.0452,92.6687 C97.3462,93.4847 97.4972,94.4547 97.4972,95.5787 C97.4972,96.7027 97.3462,97.6797 97.0452,98.5087 C96.7442,99.3377 96.3222,100.0237 95.7812,100.5657 C95.2392,101.1077 94.5942,101.5127 93.8452,101.7797 C93.0962,102.0477 92.2652,102.1817 91.3562,102.1817 L87.6432,102.1817 L87.6432,89.0967 Z" id="Fill-45"></path>
                <path d="M241.167,-0.0003 L231.966,-0.0003 L9.201,-0.0003 L0,-0.0003 L0,9.2007 L0,130.2697 L0,139.4707 L9.201,139.4707 L231.966,139.4707 L241.167,139.4707 L241.167,130.2697 L241.167,9.2007 L241.167,-0.0003 Z M9.201,130.2697 L231.966,130.2697 L231.966,9.2017 L9.201,9.2017 L9.201,130.2697 Z" id="border"></path>
            </g>
        </g>
    </g>
</svg>