<?xml version="1.0" encoding="UTF-8"?>
<svg width="425px" height="46px" viewBox="0 0 425 46" version="1.1" xmlns="http://www.w3.org/2000/svg" xmlns:xlink="http://www.w3.org/1999/xlink">
    <!-- Generator: Sketch 41.2 (35397) - http://www.bohemiancoding.com/sketch -->
    <title>bsk-logo-landscape-rev</title>
    <desc>Created with Sketch.</desc>
    <defs></defs>
    <g id="Symbols" stroke="none" stroke-width="1" fill="none" fill-rule="evenodd">
        <g id="bsk-logo-landscape-rev">
            <path d="M90.368076,12.3148203 L97.3577391,12.3148203 C98.5649409,12.3148203 99.6815857,12.4174309 100.707707,12.6226552 C101.733829,12.8278795 102.621109,13.1538191 103.369574,13.6004837 C104.118039,14.0471484 104.703523,14.6447043 105.126043,15.3931693 C105.548564,16.1416344 105.759821,17.059094 105.759821,18.1455755 C105.759821,19.2803452 105.42181,20.3305949 104.745777,21.2963563 C104.069744,22.2621177 103.031566,22.9260687 101.631212,23.2882292 L101.631212,23.4330927 C103.369582,23.7228211 104.691449,24.3324489 105.59685,25.2619942 C106.502251,26.1915396 106.954945,27.4530464 106.954945,29.0465527 C106.954945,30.2296105 106.731616,31.2557165 106.284951,32.1249018 C105.838287,32.994087 105.210551,33.7183972 104.401726,34.2978541 C103.592901,34.8773109 102.639226,35.3058611 101.540672,35.5835175 C100.442119,35.8611739 99.240971,36 97.9371931,36 L90.368076,36 L90.368076,12.3148203 Z M96.9593646,22.1293214 C98.625303,22.1293214 99.8204148,21.8275255 100.544736,21.2239246 C101.269057,20.6203237 101.631212,19.7632233 101.631212,18.6525977 C101.631212,17.5661162 101.250949,16.7814468 100.490412,16.2985661 C99.7298749,15.8156854 98.5890864,15.5742487 97.0680122,15.5742487 L94.5691171,15.5742487 L94.5691171,22.1293214 L96.9593646,22.1293214 Z M97.5026026,32.7405716 C99.2409731,32.7405716 100.568875,32.414632 101.486348,31.7627431 C102.403822,31.1108541 102.862552,30.1088917 102.862552,28.7568258 C102.862552,26.3424223 101.07592,25.1352387 97.5026026,25.1352387 L94.5691171,25.1352387 L94.5691171,32.7405716 L97.5026026,32.7405716 Z M125.147383,12.3148203 L129.312208,12.3148203 L129.312208,32.4508446 L140.430481,32.4508446 L140.430481,36 L125.147383,36 L125.147383,12.3148203 Z M165.467718,36.4345905 C164.091508,36.4345905 162.830002,36.1509023 161.68316,35.5835175 C160.536318,35.0161327 159.558499,34.1952478 158.749674,33.1208382 C157.940849,32.0464287 157.307078,30.7487063 156.848341,29.2276321 C156.389604,27.7065579 156.16024,25.9802853 156.16024,24.0487625 C156.16024,22.1413838 156.389604,20.4332189 156.848341,18.9242168 C157.307078,17.4152146 157.940849,16.1416359 158.749674,15.1034424 C159.558499,14.0652489 160.536318,13.2685077 161.68316,12.7131949 C162.830002,12.1578821 164.091508,11.8802298 165.467718,11.8802298 C166.843928,11.8802298 168.105435,12.1578821 169.252277,12.7131949 C170.399119,13.2685077 171.376937,14.0652489 172.185763,15.1034424 C172.994588,16.1416359 173.628359,17.4152146 174.087096,18.9242168 C174.545832,20.4332189 174.775197,22.1413838 174.775197,24.0487625 C174.775197,25.9802853 174.545832,27.7065579 174.087096,29.2276321 C173.628359,30.7487063 172.994588,32.0464287 172.185763,33.1208382 C171.376937,34.1952478 170.399119,35.0161327 169.252277,35.5835175 C168.105435,36.1509023 166.843928,36.4345905 165.467718,36.4345905 Z M165.467718,32.7767875 C166.216184,32.7767875 166.898242,32.5715663 167.513915,32.1611177 C168.129588,31.7506691 168.654713,31.165185 169.089306,30.4046479 C169.523898,29.6441108 169.86191,28.7266513 170.10335,27.6522417 C170.34479,26.5778322 170.465509,25.3766844 170.465509,24.0487625 C170.465509,21.3929187 170.012815,19.3105269 169.107413,17.8015248 C168.202012,16.2925226 166.988793,15.5380328 165.467718,15.5380328 C163.946644,15.5380328 162.733425,16.2925226 161.828023,17.8015248 C160.922622,19.3105269 160.469928,21.3929187 160.469928,24.0487625 C160.469928,25.3766844 160.584611,26.5778322 160.813979,27.6522417 C161.043347,28.7266513 161.375323,29.6441108 161.809915,30.4046479 C162.244508,31.165185 162.769633,31.7506691 163.385306,32.1611177 C164.000979,32.5715663 164.695109,32.7767875 165.467718,32.7767875 Z M190.577388,24.2298419 C190.577388,22.2983191 190.85504,20.5660106 191.410353,19.0328644 C191.965666,17.4997182 192.732227,16.2019958 193.710061,15.1396582 C194.687894,14.0773207 195.84679,13.2685077 197.186784,12.7131949 C198.526778,12.1578821 199.981435,11.8802298 201.550797,11.8802298 C202.999439,11.8802298 204.291125,12.1820257 205.425895,12.7856266 C206.560665,13.3892275 207.51434,14.0773222 208.286949,14.8499313 L205.932917,17.457474 C205.35346,16.8780172 204.707617,16.4132515 203.995368,16.0631629 C203.283119,15.7130744 202.46827,15.5380328 201.550797,15.5380328 C200.560891,15.5380328 199.655504,15.7372181 198.834607,16.1355947 C198.013709,16.5339713 197.313543,17.1013476 196.734086,17.8377406 C196.154629,18.5741337 195.701935,19.4734855 195.375991,20.535823 C195.050046,21.5981606 194.887077,22.7932724 194.887077,24.1211943 C194.887077,25.4732602 195.050046,26.6864798 195.375991,27.7608893 C195.701935,28.8352989 196.160665,29.7406866 196.752194,30.4770797 C197.343723,31.2134727 198.055961,31.780849 198.88893,32.1792256 C199.7219,32.5776022 200.645395,32.7767875 201.659444,32.7767875 C202.625206,32.7767875 203.488342,32.5715663 204.248879,32.1611177 C205.009416,31.7506691 205.727691,31.1712209 206.403724,30.4227558 L208.721539,32.9940827 C207.755778,34.1047083 206.669313,34.9557728 205.462111,35.5473016 C204.254909,36.1388305 202.902864,36.4345905 201.405933,36.4345905 C199.884859,36.4345905 198.466418,36.1690101 197.150569,35.6378413 C195.834719,35.1066725 194.687894,34.3220032 193.710061,33.2838097 C192.732227,32.2456162 191.965666,30.9660015 191.410353,29.4449273 C190.85504,27.9238531 190.577388,26.1855087 190.577388,24.2298419 Z M225.211831,12.3148203 L229.449088,12.3148203 L229.449088,23.070934 L229.557736,23.070934 L237.996034,12.3148203 L242.667881,12.3148203 L235.388491,21.5498674 L243.464631,36 L238.792783,36 L232.889596,24.8455117 L229.449088,29.0827686 L229.449088,36 L225.211831,36 L225.211831,12.3148203 Z M260.570592,30.096813 C261.463922,30.8935662 262.47192,31.5394094 263.594618,32.0343621 C264.717315,32.5293148 265.858104,32.7767875 267.017018,32.7767875 C268.46566,32.7767875 269.564197,32.4991352 270.312662,31.9438224 C271.061127,31.3885096 271.435354,30.6521276 271.435354,29.7346543 C271.435354,29.2517736 271.338779,28.8413312 271.145627,28.5033147 C270.952475,28.1652982 270.680858,27.8695382 270.33077,27.6160258 C269.980681,27.3625135 269.558167,27.1271127 269.063214,26.9098163 C268.568262,26.69252 268.031065,26.475227 267.451608,26.2579307 L264.228395,24.8455117 C263.600651,24.6040713 262.984987,24.3022754 262.381386,23.9401149 C261.777785,23.5779544 261.234553,23.1433683 260.751672,22.6363436 C260.268791,22.1293188 259.882492,21.5377988 259.592764,20.8617659 C259.303036,20.1857329 259.158174,19.4131354 259.158174,18.5439501 C259.158174,17.6023328 259.363395,16.7271246 259.773843,15.9182995 C260.184292,15.1094743 260.751668,14.4032719 261.475989,13.799671 C262.20031,13.1960701 263.063447,12.7252685 264.065424,12.387252 C265.067401,12.0492355 266.171975,11.8802298 267.379176,11.8802298 C268.827818,11.8802298 270.210044,12.1518462 271.525893,12.6950869 C272.841743,13.2383277 273.994604,13.9686738 274.984509,14.8861471 L272.811557,17.5661216 C272.014804,16.9383767 271.181847,16.4434314 270.312662,16.0812709 C269.443477,15.7191104 268.465658,15.5380328 267.379176,15.5380328 C266.14783,15.5380328 265.176048,15.7855055 264.463799,16.2804582 C263.75155,16.7754109 263.39543,17.4574696 263.39543,18.3266549 C263.39543,18.7853916 263.504077,19.1777262 263.721373,19.5036707 C263.93867,19.8296152 264.23443,20.1193392 264.608662,20.3728516 C264.982895,20.626364 265.417481,20.8496929 265.912433,21.0428452 C266.407386,21.2359975 266.920439,21.4412187 267.451608,21.658515 L270.566173,22.9985023 C271.314638,23.2882307 272.002733,23.6262421 272.630478,24.0125467 C273.258222,24.3988512 273.801455,24.8455092 274.260192,25.3525339 C274.718928,25.8595586 275.075048,26.4450427 275.32856,27.1090036 C275.582072,27.7729646 275.708827,28.5395262 275.708827,29.4087115 C275.708827,30.3744728 275.509641,31.2798606 275.111265,32.1249018 C274.712888,32.969943 274.139476,33.7123609 273.391011,34.3521779 C272.642546,34.9919948 271.725086,35.4990119 270.638605,35.8732445 C269.552123,36.247477 268.320796,36.4345905 266.944586,36.4345905 C265.278647,36.4345905 263.685165,36.1327945 262.164091,35.5291937 C260.643017,34.9255928 259.290971,34.0684924 258.107913,32.9578668 L260.570592,30.096813 Z M298.573112,15.8639757 L291.112643,15.8639757 L291.112643,12.3148203 L310.234623,12.3148203 L310.234623,15.8639757 L302.774153,15.8639757 L302.774153,36 L298.573112,36 L298.573112,15.8639757 Z M337.408597,26.2941465 L336.575632,23.3968769 C336.237615,22.141387 335.887532,20.8497006 335.525371,19.5217786 C335.163211,18.1938567 334.813128,16.8780266 334.475111,15.5742487 L334.330248,15.5742487 C333.992231,16.9021706 333.648184,18.2240367 333.298095,19.5398866 C332.948007,20.8557365 332.591888,22.141387 332.229727,23.3968769 L331.396762,26.2941465 L337.408597,26.2941465 Z M338.350209,29.5897908 L330.455149,29.5897908 L328.60814,36 L324.334667,36 L332.012432,12.3148203 L336.93779,12.3148203 L344.615555,36 L340.161003,36 L338.350209,29.5897908 Z M359.584781,24.2298419 C359.584781,22.2983191 359.862433,20.5660106 360.417746,19.0328644 C360.973058,17.4997182 361.73962,16.2019958 362.717453,15.1396582 C363.695287,14.0773207 364.854183,13.2685077 366.194177,12.7131949 C367.534171,12.1578821 368.988827,11.8802298 370.55819,11.8802298 C372.006832,11.8802298 373.298518,12.1820257 374.433288,12.7856266 C375.568057,13.3892275 376.521732,14.0773222 377.294342,14.8499313 L374.94031,17.457474 C374.360853,16.8780172 373.71501,16.4132515 373.002761,16.0631629 C372.290512,15.7130744 371.475663,15.5380328 370.55819,15.5380328 C369.568284,15.5380328 368.662896,15.7372181 367.841999,16.1355947 C367.021102,16.5339713 366.320936,17.1013476 365.741479,17.8377406 C365.162022,18.5741337 364.709328,19.4734855 364.383384,20.535823 C364.057439,21.5981606 363.894469,22.7932724 363.894469,24.1211943 C363.894469,25.4732602 364.057439,26.6864798 364.383384,27.7608893 C364.709328,28.8352989 365.168058,29.7406866 365.759587,30.4770797 C366.351115,31.2134727 367.063354,31.780849 367.896323,32.1792256 C368.729292,32.5776022 369.652788,32.7767875 370.666837,32.7767875 C371.632599,32.7767875 372.495735,32.5715663 373.256272,32.1611177 C374.016809,31.7506691 374.735083,31.1712209 375.411116,30.4227558 L377.728932,32.9940827 C376.763171,34.1047083 375.676705,34.9557728 374.469504,35.5473016 C373.262302,36.1388305 371.910256,36.4345905 370.413326,36.4345905 C368.892252,36.4345905 367.473811,36.1690101 366.157961,35.6378413 C364.842111,35.1066725 363.695287,34.3220032 362.717453,33.2838097 C361.73962,32.2456162 360.973058,30.9660015 360.417746,29.4449273 C359.862433,27.9238531 359.584781,26.1855087 359.584781,24.2298419 Z M394.219224,12.3148203 L398.456481,12.3148203 L398.456481,23.070934 L398.565129,23.070934 L407.003427,12.3148203 L411.675274,12.3148203 L404.395884,21.5498674 L412.472023,36 L407.800176,36 L401.896989,24.8455117 L398.456481,29.0827686 L398.456481,36 L394.219224,36 L394.219224,12.3148203 Z" id="BLOCKSTACK" fill="#FFFFFF"></path>
            <g id="bsk-bug-rev">
                <g id="stereocopy" transform="translate(0.000000, 0.820513)" opacity="0.75">
                    <path d="M11.9014978,14.3783141 C15.849794,14.3783141 19.0505204,11.1880227 19.0505204,7.25259878 C19.0505204,3.31717486 15.849794,0.126883426 11.9014978,0.126883426 C7.95320169,0.126883426 4.75247525,3.31717486 4.75247525,7.25259878 C4.75247525,11.1880227 7.95320169,14.3783141 11.9014978,14.3783141 Z M40.4975882,14.3783141 C44.4458844,14.3783141 47.6466108,11.1880227 47.6466108,7.25259878 C47.6466108,3.31717486 44.4458844,0.126883426 40.4975882,0.126883426 C36.5492921,0.126883426 33.3485656,3.31717486 33.3485656,7.25259878 C33.3485656,11.1880227 36.5492921,14.3783141 40.4975882,14.3783141 Z M40.4975882,42.8811756 C44.4458844,42.8811756 47.6466108,39.6908841 47.6466108,35.7554602 C47.6466108,31.8200363 44.4458844,28.6297449 40.4975882,28.6297449 C36.5492921,28.6297449 33.3485656,31.8200363 33.3485656,35.7554602 C33.3485656,39.6908841 36.5492921,42.8811756 40.4975882,42.8811756 Z M11.9014978,42.8811756 C15.849794,42.8811756 19.0505204,39.6908841 19.0505204,35.7554602 C19.0505204,31.8200363 15.849794,28.6297449 11.9014978,28.6297449 C7.95320169,28.6297449 4.75247525,31.8200363 4.75247525,35.7554602 C4.75247525,39.6908841 7.95320169,42.8811756 11.9014978,42.8811756 Z" id="4dots-electric-blue" fill="#2C96FF"></path>
                    <path d="M7.14902259,16.2731066 C11.0973187,16.2731066 14.2980452,13.0828152 14.2980452,9.14739128 C14.2980452,5.21196735 11.0973187,2.02167592 7.14902259,2.02167592 C3.20072644,2.02167592 0,5.21196735 0,9.14739128 C0,13.0828152 3.20072644,16.2731066 7.14902259,16.2731066 Z M35.745113,16.2731066 C39.6934091,16.2731066 42.8941356,13.0828152 42.8941356,9.14739128 C42.8941356,5.21196735 39.6934091,2.02167592 35.745113,2.02167592 C31.7968168,2.02167592 28.5960904,5.21196735 28.5960904,9.14739128 C28.5960904,13.0828152 31.7968168,16.2731066 35.745113,16.2731066 Z M35.745113,44.7759681 C39.6934091,44.7759681 42.8941356,41.5856766 42.8941356,37.6502527 C42.8941356,33.7148288 39.6934091,30.5245373 35.745113,30.5245373 C31.7968168,30.5245373 28.5960904,33.7148288 28.5960904,37.6502527 C28.5960904,41.5856766 31.7968168,44.7759681 35.745113,44.7759681 Z M7.14902259,44.7759681 C11.0973187,44.7759681 14.2980452,41.5856766 14.2980452,37.6502527 C14.2980452,33.7148288 11.0973187,30.5245373 7.14902259,30.5245373 C3.20072644,30.5245373 0,33.7148288 0,37.6502527 C0,41.5856766 3.20072644,44.7759681 7.14902259,44.7759681 Z" id="4dots-magenta" fill="#E91E63"></path>
                </g>
                <path d="M9.52526022,14.2514307 C13.4735564,14.2514307 16.6742828,11.0611393 16.6742828,7.12571536 C16.6742828,3.19029143 13.4735564,0 9.52526022,0 C5.57696406,0 2.37623762,3.19029143 2.37623762,7.12571536 C2.37623762,11.0611393 5.57696406,14.2514307 9.52526022,14.2514307 Z M38.1213506,14.2514307 C42.0696468,14.2514307 45.2703732,11.0611393 45.2703732,7.12571536 C45.2703732,3.19029143 42.0696468,0 38.1213506,0 C34.1730544,0 30.972328,3.19029143 30.972328,7.12571536 C30.972328,11.0611393 34.1730544,14.2514307 38.1213506,14.2514307 Z M38.1213506,42.7542921 C42.0696468,42.7542921 45.2703732,39.5640007 45.2703732,35.6285768 C45.2703732,31.6931529 42.0696468,28.5028614 38.1213506,28.5028614 C34.1730544,28.5028614 30.972328,31.6931529 30.972328,35.6285768 C30.972328,39.5640007 34.1730544,42.7542921 38.1213506,42.7542921 Z M9.52526022,42.7542921 C13.4735564,42.7542921 16.6742828,39.5640007 16.6742828,35.6285768 C16.6742828,31.6931529 13.4735564,28.5028614 9.52526022,28.5028614 C5.57696406,28.5028614 2.37623762,31.6931529 2.37623762,35.6285768 C2.37623762,39.5640007 5.57696406,42.7542921 9.52526022,42.7542921 Z" id="4dots-rev" fill="#FFFFFF"></path>
            </g>
        </g>
    </g>
</svg>