<?xml version="1.0" encoding="UTF-8"?>
<svg width="638px" height="98px" viewBox="0 0 638 98" version="1.1" xmlns="http://www.w3.org/2000/svg" xmlns:xlink="http://www.w3.org/1999/xlink">
    <!-- Generator: Sketch 46.2 (44496) - http://www.bohemiancoding.com/sketch -->
    <title>partner-logo-risingtide</title>
    <desc>Created with Sketch.</desc>
    <defs></defs>
    <g id="Page-1" stroke="none" stroke-width="1" fill="none" fill-rule="evenodd">
        <g id="partner-logo-risingtide" fill-rule="nonzero">
            <path d="M144.7,77.9 L144.7,16.1 L182.9,16.1 C192.4,16.1 198.9,17.4 202.5,20 C206.1,22.6 207.9,27.4 207.9,34.3 C207.9,40.5 207,44.8 205.2,47.1 C203.4,49.4 199.7,51 194.2,51.9 L194.2,52.3 C202.7,52.7 207,56.7 207,64.3 L207,77.9 L192.4,77.9 L192.4,66.6 C192.4,60.2 188.5,57.1 180.6,57.1 L159.4,57.1 L159.4,77.9 L144.7,77.9 L144.7,77.9 Z M159.3,47.2 L180.4,47.2 C185.4,47.2 188.8,46.5 190.4,45 C192,43.6 192.9,40.7 192.9,36.4 C192.9,32 192.2,29.1 190.8,27.9 C189.4,26.6 186.3,26 181.5,26 L159.3,26 L159.3,47.2 Z" id="Shape" fill="#084D81"></path>
            <path d="M232.1,24.7 L219.1,24.7 L219.1,16.1 L232.1,16.1 L232.1,24.7 Z M232.1,77.9 L219.1,77.9 L219.1,34.6 L232.1,34.6 L232.1,77.9 Z" id="Shape" fill="#084D81"></path>
            <path d="M290,46.5 L277.3,46.5 C277.2,46.1 277.2,45.9 277.1,45.7 C276.8,43.6 276.1,42.3 274.9,41.8 C273.7,41.3 270.7,41 266,41 C259.2,41 255.8,42.7 255.8,46.2 C255.8,48.6 256.4,50 257.6,50.5 C258.8,51 262.8,51.3 269.7,51.6 C279,52 285,52.9 287.8,54.5 C290.6,56.1 292,59.4 292,64.3 C292,69.6 290.1,73.2 286.4,75.3 C282.7,77.3 276,78.4 266.4,78.4 C257.2,78.4 250.8,77.5 247.4,75.7 C244,73.9 242.3,70.4 242.3,65.4 L242.3,64.3 L255.8,64.3 C255.6,64.9 255.5,65.4 255.5,65.7 C255,69.5 258.7,71.4 266.6,71.4 C274.8,71.4 278.9,69.5 278.9,65.7 C278.9,62 276.3,60.2 271.2,60.2 C259.6,60.2 252,59.3 248.3,57.6 C244.6,55.8 242.8,52.2 242.8,46.7 C242.8,41.8 244.5,38.4 247.8,36.7 C251.2,34.9 257.6,34.1 267.2,34.1 C276.2,34.1 282.3,34.9 285.4,36.6 C288.5,38.3 290,41.6 290,46.5" id="Shape" fill="#084D81"></path>
            <path d="M315.3,24.7 L302.3,24.7 L302.3,16.1 L315.3,16.1 L315.3,24.7 Z M315.3,77.9 L302.3,77.9 L302.3,34.6 L315.3,34.6 L315.3,77.9 Z" id="Shape" fill="#084D81"></path>
            <path d="M328,34.6 L340.9,34.6 L340.4,41.9 L340.7,41.9 C343.2,36.7 348.9,34.1 357.7,34.1 C370.5,34.1 376.9,38.8 376.9,48.3 L376.9,77.8 L363.9,77.8 L363.9,51.8 L363.9,50.2 L363.6,47.2 C363,44 359.8,42.4 354.1,42.4 C345.4,42.4 341.1,45.7 341.1,52.3 L341.1,78 L328.1,78 L328.1,34.6 L328,34.6 Z" id="Shape" fill="#084D81"></path>
            <path d="M438,34.6 L438,78.7 C438,85.7 436.2,90.6 432.6,93.2 C429,95.8 422.4,97.1 412.9,97.1 C403.6,97.1 397.4,96.1 394.3,94.1 C391.2,92.1 389.6,88.2 389.6,82.3 L402.2,82.3 C402.2,85.1 402.9,86.9 404.2,87.7 C405.5,88.5 408.5,88.9 413,88.9 C421,88.9 425.1,86.2 425.1,80.9 L425.1,71.2 L424.8,71.2 C422.5,75.8 417.2,78.1 408.9,78.1 C400.7,78.1 395.1,76.5 392.1,73.4 C389.1,70.2 387.6,64.3 387.6,55.7 C387.6,47.6 389.1,41.9 392.1,38.8 C395.1,35.7 400.6,34.1 408.4,34.1 C417,34.1 422.7,36.6 425.3,41.7 L425.6,41.7 L425,34.5 L438,34.5 L438,34.6 Z M412.4,42.3 C407.4,42.3 404.2,43.1 402.8,44.7 C401.4,46.3 400.7,50 400.7,55.7 C400.7,61.8 401.4,65.7 402.8,67.4 C404.2,69.1 407.5,69.9 412.6,69.9 C417.7,69.9 421,69 422.5,67.3 C424,65.6 424.8,61.7 424.8,55.8 C424.8,50.1 424,46.4 422.5,44.8 C421,43.1 417.6,42.3 412.4,42.3 L412.4,42.3 Z" id="Shape" fill="#084D81"></path>
            <polygon id="Shape" fill="#084D81" points="478.6 22.5 478.6 77.9 469.9 77.9 469.9 22.5 444.7 22.5 444.7 16.1 503.6 16.1 503.6 22.5"></polygon>
            <path d="M518.9,23.2 L511,23.2 L511,16.1 L518.9,16.1 L518.9,23.2 Z M518.9,77.9 L511,77.9 L511,34.6 L518.9,34.6 L518.9,77.9 Z" id="Shape" fill="#084D81"></path>
            <path d="M578.1,16.1 L578.1,77.9 L570.2,77.9 L570.6,72.3 L570.4,72.3 C567.9,76.5 562.1,78.6 553,78.6 C544.7,78.6 539,77 536,73.8 C533,70.6 531.4,64.6 531.4,55.8 C531.4,47.7 532.9,42.1 536,38.9 C539.1,35.7 544.5,34.2 552.4,34.2 C562.3,34.2 568.1,36.2 570,40.3 L570.2,40.2 L570.2,16.1 L578.1,16.1 Z M554.2,39.2 C548.3,39.2 544.5,40.3 542.5,42.4 C540.6,44.6 539.6,48.9 539.6,55.5 C539.6,62.7 540.6,67.5 542.5,69.8 C544.4,72.1 548.4,73.2 554.4,73.2 C560.9,73.2 565.2,72.1 567.1,69.8 C569.1,67.5 570,62.6 570,54.9 C570,48.7 568.9,44.5 566.7,42.4 C564.7,40.3 560.5,39.2 554.2,39.2 L554.2,39.2 Z" id="Shape" fill="#084D81"></path>
            <path d="M629.7,64.8 L637.8,64.8 L637.8,66.4 C637.8,70.9 636.1,74 632.7,75.8 C629.3,77.6 623.3,78.5 614.7,78.5 C604.7,78.5 598.2,77 595.1,74.1 C592,71.2 590.4,65.1 590.4,55.8 C590.4,47.2 592,41.4 595.1,38.4 C598.2,35.4 604.4,34 613.5,34 C623.5,34 630,35.3 633.1,37.9 C636.2,40.5 637.7,45.9 637.7,54.2 L637.7,57.6 L598.7,57.6 C598.7,64.4 599.6,68.7 601.4,70.6 C603.2,72.5 607.5,73.4 614.2,73.4 C620.6,73.4 624.7,73 626.6,72.1 C628.5,71.2 629.5,69.3 629.5,66.3 L629.5,64.8 L629.7,64.8 Z M629.7,52.5 L629.6,50.5 C629.6,45.8 628.6,42.7 626.7,41.3 C624.8,39.9 620.6,39.2 614.2,39.2 C607.8,39.2 603.6,40 601.7,41.7 C599.8,43.4 598.8,47 598.8,52.5 L629.7,52.5 Z" id="Shape" fill="#084D81"></path>
            <path d="M1.4,7.7 C6.6,8.7 11.5,10 16.1,11.5 C68.3,28.3 84.6,71.8 87.3,80.3 C87.3,80.3 87.3,80.3 87.3,80.4 L103.2,80.4 C95.2,66.2 86.4,54.7 77.5,45.5 C72.6,40.5 67.6,36.1 62.7,32.3 C32.1,8.7 3.5,7.7 1.4,7.7 L1.4,7.7 Z" id="SVGID_1_" fill="#C2C3C5"></path>
            <path d="M40.9,0 C40.9,0 159.3,1.1 0,78.5 C0,78.5 243.4,7.7 40.9,0" id="Shape" fill="#084D81"></path>
        </g>
    </g>
</svg>