<svg id="Layer_1" data-name="Layer 1" xmlns="http://www.w3.org/2000/svg" viewBox="0 0 656 116"><defs><style>.cls-1{fill:#084d81;}.cls-2{fill:#c2c3c5;}</style></defs><title>partner-logo-risingtide</title><g id="Page-1"><g id="partner-logo-risingtide"><path id="Shape" class="cls-1" d="M155.7,89.9V28.1h38.2c9.5,0,16,1.3,19.6,3.9s5.4,7.4,5.4,14.3c0,6.2-.9,10.5-2.7,12.8s-5.5,3.9-11,4.8v.4c8.5.4,12.8,4.4,12.8,12V89.9H203.4V78.6c0-6.4-3.9-9.5-11.8-9.5H170.4V89.9Zm14.6-30.7h21.1c5,0,8.4-.7,10-2.2s2.5-4.3,2.5-8.6-.7-7.3-2.1-8.5-4.5-1.9-9.3-1.9H170.3Z"/><path id="Shape-2" data-name="Shape" class="cls-1" d="M243.1,36.7h-13V28.1h13Zm0,53.2h-13V46.6h13Z"/><path id="Shape-3" data-name="Shape" class="cls-1" d="M301,58.5H288.3a4.53,4.53,0,0,0-.2-.8c-.3-2.1-1-3.4-2.2-3.9s-4.2-.8-8.9-.8c-6.8,0-10.2,1.7-10.2,5.2,0,2.4.6,3.8,1.8,4.3s5.2.8,12.1,1.1c9.3.4,15.3,1.3,18.1,2.9s4.2,4.9,4.2,9.8c0,5.3-1.9,8.9-5.6,11s-10.4,3.1-20,3.1c-9.2,0-15.6-.9-19-2.7s-5.1-5.3-5.1-10.3V76.3h13.5a5,5,0,0,0-.3,1.4q-.75,5.7,11.1,5.7,12.3,0,12.3-5.7c0-3.7-2.6-5.5-7.7-5.5-11.6,0-19.2-.9-22.9-2.6s-5.5-5.4-5.5-10.9c0-4.9,1.7-8.3,5-10s9.8-2.6,19.4-2.6c9,0,15.1.8,18.2,2.5s4.6,5,4.6,9.9"/><path id="Shape-4" data-name="Shape" class="cls-1" d="M326.3,36.7h-13V28.1h13Zm0,53.2h-13V46.6h13Z"/><path id="Shape-5" data-name="Shape" class="cls-1" d="M339,46.6h12.9l-.5,7.3h.3c2.5-5.2,8.2-7.8,17-7.8,12.8,0,19.2,4.7,19.2,14.2V89.8h-13V62.2l-.3-3c-.6-3.2-3.8-4.8-9.5-4.8-8.7,0-13,3.3-13,9.9V90h-13V46.6Z"/><path id="Shape-6" data-name="Shape" class="cls-1" d="M449,46.6V90.7c0,7-1.8,11.9-5.4,14.5s-10.2,3.9-19.7,3.9q-13.95,0-18.6-3c-3.1-2-4.7-5.9-4.7-11.8h12.6c0,2.8.7,4.6,2,5.4s4.3,1.2,8.8,1.2c8,0,12.1-2.7,12.1-8V83.2h-.3q-3.45,6.9-15.9,6.9c-8.2,0-13.8-1.6-16.8-4.7s-4.5-9.1-4.5-17.7c0-8.1,1.5-13.8,4.5-16.9s8.5-4.7,16.3-4.7c8.6,0,14.3,2.5,16.9,7.6h.3l-.6-7.2h13Zm-25.6,7.7q-7.5,0-9.6,2.4c-1.4,1.6-2.1,5.3-2.1,11q0,9.15,2.1,11.7c1.4,1.7,4.7,2.5,9.8,2.5s8.4-.9,9.9-2.6,2.3-5.6,2.3-11.5c0-5.7-.8-9.4-2.3-11s-4.9-2.5-10.1-2.5Z"/><polygon id="Shape-7" data-name="Shape" class="cls-1" points="489.6 34.5 489.6 89.9 480.9 89.9 480.9 34.5 455.7 34.5 455.7 28.1 514.6 28.1 514.6 34.5 489.6 34.5"/><path id="Shape-8" data-name="Shape" class="cls-1" d="M529.9,35.2H522V28.1h7.9Zm0,54.7H522V46.6h7.9Z"/><path id="Shape-9" data-name="Shape" class="cls-1" d="M589.1,28.1V89.9h-7.9l.4-5.6h-.2q-3.75,6.3-17.4,6.3c-8.3,0-14-1.6-17-4.8s-4.6-9.2-4.6-18c0-8.1,1.5-13.7,4.6-16.9s8.5-4.7,16.4-4.7c9.9,0,15.7,2,17.6,6.1l.2-.1V28.1ZM565.2,51.2c-5.9,0-9.7,1.1-11.7,3.2s-2.9,6.5-2.9,13.1c0,7.2,1,12,2.9,14.3s5.9,3.4,11.9,3.4c6.5,0,10.8-1.1,12.7-3.4s2.9-7.2,2.9-14.9c0-6.2-1.1-10.4-3.3-12.5-2-2.1-6.2-3.2-12.5-3.2Z"/><path id="Shape-10" data-name="Shape" class="cls-1" d="M640.7,76.8h8.1v1.6c0,4.5-1.7,7.6-5.1,9.4s-9.4,2.7-18,2.7c-10,0-16.5-1.5-19.6-4.4s-4.7-9-4.7-18.3c0-8.6,1.6-14.4,4.7-17.4s9.3-4.4,18.4-4.4c10,0,16.5,1.3,19.6,3.9s4.6,8,4.6,16.3v3.4h-39c0,6.8.9,11.1,2.7,13s6.1,2.8,12.8,2.8c6.4,0,10.5-.4,12.4-1.3s2.9-2.8,2.9-5.8V76.8Zm0-12.3-.1-2c0-4.7-1-7.8-2.9-9.2s-6.1-2.1-12.5-2.1-10.6.8-12.5,2.5-2.9,5.3-2.9,10.8Z"/><path id="SVGID" class="cls-2" d="M12.4,19.7a121.21,121.21,0,0,1,14.7,3.8C79.3,40.3,95.6,83.8,98.3,92.3v.1h15.9A169.79,169.79,0,0,0,88.5,57.5,146.42,146.42,0,0,0,73.7,44.3C43.1,20.7,14.5,19.7,12.4,19.7Z"/><path id="Shape-11" data-name="Shape" class="cls-1" d="M51.9,12S170.3,13.1,11,90.5c0,0,243.4-70.8,40.9-78.5"/></g></g></svg>