<?xml version="1.0" encoding="utf-8"?>
<!-- Generator: Adobe Illustrator 21.1.0, SVG Export Plug-In . SVG Version: 6.00 Build 0)  -->
<svg version="1.1" id="Layer_1" xmlns="http://www.w3.org/2000/svg" xmlns:xlink="http://www.w3.org/1999/xlink" x="0px" y="0px"
	 viewBox="0 0 527.2 46.6" style="enable-background:new 0 0 527.2 46.6;" xml:space="preserve">
<style type="text/css">
	.st0{fill:#000000;}
	.st1{fill:none;}
	.st2{fill:#F2F2F2;}
</style>
<g id="Layer_1_1_">
	<g>
		<g>
			<g>
				<g>
					<path class="st0" d="M268.5,37.3h-11v-0.5l1.1-0.1c0.7-0.1,1-0.2,1-1.1V21.9c0-1.3-0.7-2.2-2.1-2.2c-1.7,0-3.1,1.4-3.1,2.8
						v12.8c0,1.1,0.3,1.2,1.1,1.3l1,0.1v0.5h-10.8v-0.5l1-0.2c0.5-0.1,0.9-0.1,0.9-1.2V21.6c0-1.9-0.4-2.5-2.3-2.8v-0.5l9-2.2v3.6
						c1.7-1.6,3.8-3.6,6.8-3.6c3.7,0,5.4,2.3,5.4,5.2v14c0,1,0.4,1.1,1.1,1.2l1,0.1L268.5,37.3L268.5,37.3z"/>
					<path class="st0" d="M243,11.3c0,1.9-1.6,3.5-3.7,3.5c-2.1,0-3.6-1.5-3.6-3.5c0-1.9,1.5-3.5,3.6-3.5
						C241.5,7.8,243,9.3,243,11.3z"/>
					<path class="st0" d="M244.9,37.3H234v-0.5c0.3-0.1,1-0.1,1-0.1c0.7-0.1,1.1-0.2,1.1-1.2V21.7c0-1.9-0.4-2.6-2.3-2.8v-0.5
						l9.1-2.2v19c0,1.2,0.3,1.3,1.3,1.5l0.8,0.1L244.9,37.3L244.9,37.3z"/>
					<path class="st0" d="M233.2,37.3h-11v-0.5l1.1-0.1c0.7-0.1,1-0.4,1-1.2V22c0-1.6-0.8-2.3-2.1-2.3c-1.6,0-3.1,1.4-3.1,2.7v13
						c0,1.1,0.4,1.2,1.1,1.3l1,0.1v0.5h-11v-0.5l1.2-0.2c0.6-0.1,0.8-0.4,0.8-0.9V12.1c0-2.4-0.7-2.6-2.3-2.9V8.7l9.1-2.2v13.3
						c1.4-1.7,4.1-3.6,6.7-3.6c3,0,5.4,1.7,5.4,5.2v14c0,1.1,0.4,1.1,1.2,1.2l0.9,0.1L233.2,37.3L233.2,37.3z"/>
					<path class="st0" d="M209.4,32.5c-1.4,2.2-4.5,5.5-10.1,5.5c-9.7,0-14.9-5.7-14.9-14.5c0-10.8,7.1-15.3,14.8-15.3
						c3.9,0,6,1.3,7.5,1.3c0.5,0,1.2-0.1,1.7-0.3l0.1,7h-0.9l-2.7-5c-1.1-0.9-2.7-1.4-5.3-1.4c-4.8,0-7.6,5.4-7.6,12.6
						c0,8.2,3.8,12.7,8.6,12.7c5.2,0,7-2.1,8.1-3.3L209.4,32.5z"/>
					<path class="st0" d="M178.2,37.3h-11v-0.5l1.1-0.1c0.7-0.1,1-0.4,1-1.2V22c0-1.6-0.8-2.3-2.1-2.3c-1.6,0-3.1,1.4-3.1,2.7v13
						c0,1.1,0.4,1.2,1.1,1.3l1,0.1v0.5h-11v-0.5l1.3-0.2c0.6-0.1,0.8-0.4,0.8-0.9V12.1c0-2.4-0.7-2.6-2.3-2.9V8.7l9.1-2.2v13.3
						c1.4-1.7,4.1-3.6,6.7-3.6c3,0,5.4,1.7,5.4,5.2v14c0,1.1,0.4,1.1,1.2,1.2l0.9,0.1L178.2,37.3L178.2,37.3z"/>
					<path class="st0" d="M156.4,33.8c-1.1,1.9-3.6,3.9-7.4,3.9c-3.7,0-5.5-2.5-5.5-5.1V18.6H141v-0.5l8.9-7.1h0.5v5.9h5.1l-0.6,1.7
						h-4.5V32c0,1.8,1,2.6,2.3,2.6c1.2,0,2.5-0.8,3.4-1.5L156.4,33.8z"/>
					<path class="st0" d="M141.5,36.7l-8.8,0.8v-3.4c-1.4,1.6-4.1,3.6-6.8,3.6c-3.5,0-5.3-2.3-5.3-5.3v-11c0-1.9-0.7-2.5-2.3-2.7
						v-0.5l9.1-2.2v15.3c0,1.6,0.6,2.5,2.1,2.5c1,0,1.4-0.2,2.1-0.6c0.9-0.6,1-1,1-2.1v-9.7c0-1.9-0.6-2.4-2.3-2.7v-0.5l9.1-2.2
						v18.4c0,1.4,1.1,1.5,2.1,1.7V36.7z"/>
					<path class="st0" d="M96.5,28.1c0,5.9-4.8,9.7-11.5,9.7c-3.5,0-6.8-1-8.6-2.3V29h0.8l2.5,5.4c1.5,0.9,3,1.8,5.6,1.8
						c3.5,0,5.4-2.3,5.4-4.9c0-2.4-1.8-4.2-6.1-5.6c-5.4-1.7-8.4-4.1-8.4-8.8c0-5,5-8.7,10.6-8.7c3.5,0,6,1.5,6.8,1.5
						c0.3,0,0.8-0.1,1.1-0.1v6.5h-0.8l-2.7-4.8c-0.8-0.9-3-1.3-4.7-1.3c-3,0-5.2,1.7-5.2,4.1c0,2.4,1.6,3.6,6.6,5.2
						C93.8,21.2,96.5,23.5,96.5,28.1z"/>
					<path class="st0" d="M290.2,34.9c-0.5,0.9-2.5,2.8-5.5,2.8s-4.1-1.6-4.4-3.4c-1.2,1.8-2.8,3.4-6.3,3.4c-3.6,0-5.6-2.1-5.6-5.1
						c0-3.1,1.8-4.8,6.5-6.6c3.1-1.2,5.2-1.6,5.2-4.9c0-2.8-1.1-3.8-2.5-3.8c-1.9,0-3,1.2-3.2,1.5c0.3,0.2,1.6,0.7,1.6,2.5
						c0,1.8-1.5,2.9-3.3,2.9c-1.9,0-2.8-1.5-2.8-3.1c0-2.8,3.8-5,9.6-5c4.9,0,7.3,2.3,7.3,6.3v10.7c0,1.6,0.2,2.3,1.2,2.3
						c0.6,0,1.2-0.4,1.7-0.9L290.2,34.9z M280.1,31.9v-7.1c-1.9,2.3-5,2.4-5,7.1c0,1.7,0.8,2.9,2.3,2.9
						C278.8,34.8,280.1,33.1,280.1,31.9z"/>
					<path class="st0" d="M118.3,27c0,6.3-4.5,10.7-10.2,10.7c-5.7,0-10.2-4.4-10.2-10.8c0-6.3,4.6-10.8,10.2-10.8
						C113.8,16.2,118.3,20.6,118.3,27z M111.4,27c0-7.3-0.7-9.8-3.2-9.8c-2.6,0-3.2,2.5-3.2,9.7c0,6.8,0.6,9.7,3.2,9.7
						C110.7,36.7,111.4,33.8,111.4,27z"/>
					<path class="st0" d="M291.2,37.3"/>
				</g>
				<g>
					<path class="st0" d="M291.3,37.3"/>
					<path class="st0" d="M527.2,33.8c-1.1,1.9-3.5,4-7.4,4c-3.7,0-5.5-2.5-5.5-5.1V18.6h-2.5v-0.5l8.9-7.1h0.5v5.9h5.1l-0.6,1.7
						h-4.5v13.5c0,1.8,1,2.5,2.3,2.5c1.2,0,2.2-0.7,3.2-1.5L527.2,33.8z"/>
					<path class="st0" d="M511.8,30.4c0,4.5-4,7.3-9,7.3c-4.4,0-6.2-1.2-7.1-1.6v-5.4h0.5l2.4,4.5c1,0.7,2.8,1.3,4.3,1.3
						c2.4,0,4-1.2,4-3.2c0-2.2-2.7-2.9-5.5-3.8c-3.1-1.1-5.9-2.8-5.9-6.4c0-4.4,3.9-6.9,8.3-6.9c3.7,0,5.4,1.4,6.4,1.1v5.2h-0.5
						l-2.4-3.9c-0.8-0.6-2.1-1.1-3.5-1.1c-2.8,0-4.1,1-4.1,2.7c0,1.9,2.6,2.6,5.5,3.7C508.8,25,511.8,26.4,511.8,30.4z"/>
					<path class="st0" d="M423.9,37.3h-11v-0.5l1-0.1c0.7-0.1,1-0.2,1-1.1V21.9c0-1.3-0.7-2.4-2.1-2.4c-1.8,0-3.2,1.5-3.2,3v12.8
						c0,1.1,0.3,1.2,1.1,1.3l1,0.1v0.5H401v-0.5l1-0.2c0.5-0.1,0.9-0.1,0.9-1.2V21.7c0-1.9-0.4-2.5-2.3-2.8v-0.5l9-2.2v3.6
						c1.7-1.6,3.8-3.6,6.8-3.6c3.7,0,5.4,2.2,5.4,5.2v14c0,1,0.4,1.1,1.1,1.2l0.9,0.1V37.3z"/>
					<path class="st0" d="M398.5,11.3c0,1.9-1.6,3.5-3.7,3.5c-2.1,0-3.6-1.5-3.6-3.5c0-1.9,1.5-3.5,3.6-3.5
						C396.9,7.8,398.5,9.4,398.5,11.3z"/>
					<path class="st0" d="M400.4,37.3h-10.9v-0.5c0.4-0.1,1-0.1,1-0.1c0.7-0.1,1.1-0.2,1.1-1.2V21.7c0-1.9-0.5-2.6-2.3-2.8v-0.5
						l9.1-2.2v19c0,1.3,0.3,1.4,1.3,1.5l0.8,0.1L400.4,37.3L400.4,37.3z"/>
					<path class="st0" d="M388.9,37.3h-11v-0.5l1-0.1c0.7-0.1,1-0.2,1-1.1V21.9c0-1.3-0.7-2.2-2.1-2.2c-1.7,0-3.2,1.4-3.2,2.8v12.8
						c0,1.1,0.3,1.2,1.1,1.3l1,0.1v0.5H366v-0.5l1-0.2c0.5-0.1,0.9-0.1,0.9-1.2V21.7c0-1.9-0.4-2.6-2.3-2.8v-0.5l9-2.2v3.6
						c1.7-1.6,3.8-3.6,6.8-3.6c3.7,0,5.4,2.2,5.4,5.2v14c0,1,0.4,1.1,1.1,1.2l1,0.1L388.9,37.3L388.9,37.3z"/>
					<path class="st0" d="M365.9,19.1c0,1.9-1.1,3.2-3.1,3.2c-1.4,0-2.4-0.9-2.4-2.1c0-0.4,0.1-0.9,0.4-1.3c-1,0-3.3,1.6-3.3,3.3
						v13.2c0,1,0.4,1.2,1.2,1.3l1.1,0.1v0.5h-11.2v-0.5l0.9-0.1c0.9-0.1,1.2-0.2,1.2-1.4V21.5c0-1.9-0.7-2.4-2.3-2.6v-0.5l9-2.2v3.3
						c1.5-2,3.6-3.3,5.5-3.3C364.7,16.2,365.9,17.3,365.9,19.1z"/>
					<path class="st0" d="M328.7,37.3h-13.5v-0.5l1.6-0.2c1.2-0.1,1.5-0.3,1.5-1.6c0-0.2,0-0.4,0-0.5l-0.5-19.6h-0.1l-8.2,22.7h-1.3
						l-8-22.5h-0.1l-0.3,17.7c0,0.4,0,0.8,0,1.1c0,2.4,0.6,2.7,2.5,3v0.5h-7.3v-0.5c1.9-0.4,2.9-1.2,2.9-4.1l0.6-20
						c0-0.3,0-0.5,0-0.8c0-1.2-0.4-2.3-1.9-2.4c0,0-0.8-0.1-1.3-0.1V8.8h10.1l6,18.1h0.1l6.6-18.1h8.9v0.5c-1.6,0.1-2.4,0.6-2.4,1.7
						c0,0.3,0,1.3,0,1.7l0.8,22.2c0,1.2,0.5,1.6,1.7,1.7l1.6,0.2L328.7,37.3L328.7,37.3z"/>
					<path class="st0" d="M493.9,27c0,6.3-4.6,10.7-10.2,10.7c-5.7,0-10.2-4.4-10.2-10.8c0-6.3,4.6-10.8,10.2-10.8
						C489.4,16.2,493.9,20.7,493.9,27z M486.9,27c0-7.3-0.7-9.8-3.2-9.8c-2.6,0-3.2,2.5-3.2,9.7c0,6.8,0.6,9.7,3.2,9.7
						C486.3,36.7,486.9,33.8,486.9,27z"/>
					<path class="st0" d="M475.1,16.6c0,5.2-4.9,8.1-11.4,8.1c-1,0-1.5,0-2.7-0.1V35c0,0.9,0.4,1.4,2.1,1.6l1.2,0.1v0.6h-13.4v-0.6
						l1.7-0.2c1.1-0.1,1.4-0.4,1.4-1.4V11.7c0-1.7-0.9-2-3.1-2.3V8.8h11.6C470.6,8.8,475.1,10.7,475.1,16.6z M467.7,16.5
						c0-4.7-1.7-6.6-4.9-6.6c-0.8,0-1.4,0.1-1.9,0.2v13.3c0.3,0,0.6,0.1,1.8,0.1C466,23.6,467.7,21.7,467.7,16.5z"/>
					<path class="st0" d="M445.1,16.7l-1.3,2.5l-3.4-0.2c1.1,1,2,2.4,2,4.5c0,4.4-4.1,7.4-9.1,7.4c-1.2,0-2.5-0.2-3.5-0.4
						c-0.2,0.3-0.3,0.7-0.3,1.1c0,0.5,1,0.9,2.1,1.1l5.9,1.1c5.2,1,7.4,2.4,7.4,5.7c0,4.3-5.7,7-11.8,7c-5.6,0-10.5-1-10.5-4.1
						c0-2.6,2.8-3.7,5.2-4.3c-1.9-0.8-2.5-2.4-2.5-3.5c0-2.2,1.7-3.3,3.4-4.5c-2.8-1.2-4.4-3.5-4.4-6.5c0-4.4,4.1-7.5,9.1-7.5
						c2,0,3.2,0.4,4.1,0.8L445.1,16.7z M435.7,23.6c0-4.7-0.7-6.4-2.5-6.4c-1.9,0-2.4,1.7-2.4,6.4c0,4.6,0.6,6.2,2.4,6.2
						C435,29.8,435.7,28.2,435.7,23.6z M439.3,42.3c0-1.5-1.2-2-4.5-2.6l-5.6-1.1c-0.9,0.8-1.9,1.4-1.9,3.5c0,2.1,2.3,3.4,5.9,3.4
						C437.1,45.5,439.3,43.9,439.3,42.3z"/>
					<path class="st0" d="M348.1,27c0,6.3-4.6,10.7-10.2,10.7c-5.7,0-10.2-4.4-10.2-10.8c0-6.3,4.6-10.8,10.2-10.8
						C343.5,16.2,348.1,20.7,348.1,27z M341.1,27c0-7.3-0.7-9.8-3.2-9.8c-2.6,0-3.2,2.5-3.2,9.7c0,6.8,0.6,9.7,3.2,9.7
						C340.4,36.7,341.1,33.8,341.1,27z"/>
				</g>
			</g>
		</g>
	</g>
	<g>
		<rect y="0" class="st1" width="57.4" height="44.3"/>
		<rect x="5" y="5" class="st2" width="21.3" height="34.4"/>
		<rect x="31.2" y="5" class="st0" width="21.3" height="34.4"/>
	</g>
</g>
<g id="Layer_2">
</g>
</svg>
