<?xml version="1.0" encoding="utf-8"?>
<!-- Generator: Adobe Illustrator 19.0.1, SVG Export Plug-In . SVG Version: 6.00 Build 0)  -->
<svg version="1.1" id="Layer_1" xmlns="http://www.w3.org/2000/svg" xmlns:xlink="http://www.w3.org/1999/xlink" x="0px" y="0px"
	 viewBox="0 0 122.7 29.8" enable-background="new 0 0 122.7 29.8" xml:space="preserve">
<g id="XMLID_2192_">
	<g id="XMLID_2218_">
		<path id="XMLID_2239_" fill="#FFFFFF" d="M36.1,20.9c0.1-0.7,0.2-1.6,0.2-2.4v-8c0-0.2,0-0.3-0.2-0.3l-0.9-0.3l0.2-1.3h3.4v4.5
			l0.1,0c0.7-0.6,1.5-0.9,2.5-0.9c1.8,0,3.2,1.1,3.2,4.2c0,3.4-1.4,4.7-3.4,4.7c-1.1,0-1.9-0.5-2.4-1l-0.1,0l-0.1,0.8H36.1z
			 M38.8,18.6c0.4,0.3,0.9,0.6,1.5,0.6c1.1,0,1.6-1,1.6-2.6c0-1.3-0.4-2.4-1.5-2.4c-0.6,0-1.2,0.3-1.6,0.6V18.6z"/>
		<path id="XMLID_2237_" fill="#FFFFFF" d="M45.4,20.9v-1.3l0.8-0.1c0.2,0,0.3-0.1,0.3-0.3v-8.6c0-0.2,0-0.3-0.2-0.3l-0.9-0.3
			l0.2-1.3H49v10.6c0,0.3,0,0.3,0.3,0.3l0.8,0.1v1.3H45.4z"/>
		<path id="XMLID_2234_" fill="#FFFFFF" d="M50.7,16.8c0-2.7,1.4-4.5,4.4-4.5c3,0,4.2,1.8,4.2,4.3c0,2.8-1.4,4.6-4.4,4.6
			C51.9,21.1,50.7,19.3,50.7,16.8z M56.7,16.7c0-1.9-0.6-2.6-1.6-2.6c-1.1,0-1.8,0.7-1.8,2.6c0,2,0.6,2.8,1.7,2.8
			C56.1,19.4,56.7,18.7,56.7,16.7z"/>
		<path id="XMLID_2232_" fill="#FFFFFF" d="M67.6,20.3c-0.8,0.5-1.9,0.8-3.1,0.8c-3,0-4.3-1.8-4.3-4.3c0-3.1,1.9-4.5,4.5-4.5
			c1.3,0,2.4,0.4,2.9,0.7v2.6l-1.7-0.1l-0.2-1.1c0-0.1,0-0.2-0.2-0.3C65.2,14,64.9,14,64.6,14c-1,0-1.8,0.7-1.8,2.6
			c0,2.1,0.9,2.7,2.1,2.7c0.8,0,1.6-0.3,2-0.5L67.6,20.3z"/>
		<path id="XMLID_2230_" fill="#FFFFFF" d="M74.8,20.9l-2.1-4.2l-0.9,1v1.5c0,0.3,0,0.3,0.3,0.3l1,0.1v1.3h-4.8v-1.3l0.8-0.1
			c0.2,0,0.3-0.1,0.3-0.3v-8.6c0-0.2,0-0.3-0.2-0.3l-0.9-0.3l0.2-1.3h3.4v7l3-3.2h2.3v1.3l-0.8,0.2c-0.2,0-0.3,0.1-0.4,0.2l-1.2,1.2
			l2.1,3.9c0.1,0.2,0.2,0.3,0.5,0.3l0.7,0.1v1.3H74.8z"/>
		<path id="XMLID_2228_" fill="#FFFFFF" d="M83.5,15l-0.2-0.8c0-0.1,0-0.2-0.2-0.2c-0.2-0.1-0.6-0.1-1-0.1c-0.8,0-1.3,0.3-1.3,0.8
			c0,0.7,0.9,0.8,1.9,1c1.3,0.3,2.7,0.8,2.7,2.7c0,2-1.6,2.8-3.7,2.8c-1.5,0-2.9-0.4-3.2-0.6v-2.4l1.7,0.1l0.2,0.9
			c0,0.1,0,0.2,0.2,0.2c0.2,0.1,0.6,0.2,1.3,0.2c0.9,0,1.4-0.2,1.4-0.8c0-0.7-0.7-0.8-1.5-1c-1.4-0.2-3.2-0.5-3.2-2.7
			c0-2,1.7-2.9,3.6-2.9c1.3,0,2.5,0.3,3,0.5v2.4L83.5,15z"/>
		<path id="XMLID_2226_" fill="#FFFFFF" d="M92.7,20.5C92,20.8,91,21.1,90,21.1c-1.9,0-2.7-0.8-2.7-2.6v-4.3c0-0.1,0-0.2-0.1-0.2
			h-1.1v-1.5c1.4-0.2,2-0.9,2.2-2.7h1.6v2.3c0,0.1,0,0.2,0.1,0.2h2.3v1.6h-2.4V18c0,1,0.2,1.3,1.1,1.3c0.5,0,0.9-0.1,1.3-0.3
			L92.7,20.5z"/>
		<path id="XMLID_2223_" fill="#FFFFFF" d="M98.7,20.9l-0.2-0.9l-0.1,0c-0.6,0.6-1.4,1.1-2.7,1.1c-2.1,0-2.4-1.4-2.4-2.4
			c0-1.6,1-2.4,3.1-2.5l1.9-0.1v-0.9c0-0.8-0.1-1.3-1.1-1.3C96.4,13.9,96,14,96,15l-2.3-0.2c0-2.2,2-2.5,3.5-2.5
			c2.5,0,3.5,0.7,3.5,3v4c0,0.3,0,0.3,0.3,0.3l0.8,0.1v1.3H98.7z M98.3,17.4l-1.1,0.1c-1,0.1-1.3,0.3-1.3,1c0,0.7,0.4,0.9,0.9,0.9
			c0.6,0,1.1-0.3,1.5-0.6V17.4z"/>
		<path id="XMLID_2221_" fill="#FFFFFF" d="M109.7,20.3c-0.8,0.5-1.9,0.8-3.1,0.8c-3,0-4.3-1.8-4.3-4.3c0-3.1,1.9-4.5,4.5-4.5
			c1.3,0,2.4,0.4,2.9,0.7v2.6l-1.7-0.1l-0.2-1.1c0-0.1,0-0.2-0.2-0.3c-0.2-0.1-0.5-0.1-0.8-0.1c-1,0-1.8,0.7-1.8,2.6
			c0,2.1,0.9,2.7,2.1,2.7c0.8,0,1.6-0.3,2-0.5L109.7,20.3z"/>
		<path id="XMLID_2219_" fill="#FFFFFF" d="M116.9,20.9l-2.1-4.2l-0.9,1v1.5c0,0.3,0,0.3,0.3,0.3l1,0.1v1.3h-4.8v-1.3l0.8-0.1
			c0.2,0,0.3-0.1,0.3-0.3v-8.6c0-0.2,0-0.3-0.2-0.3l-0.9-0.3l0.2-1.3h3.4v7l3-3.2h2.3v1.3l-0.8,0.2c-0.2,0-0.3,0.1-0.4,0.2l-1.2,1.2
			l2.1,3.9c0.1,0.2,0.2,0.3,0.5,0.3l0.7,0.1v1.3H116.9z"/>
	</g>
	<g id="XMLID_2191_">
		<path id="XMLID_2198_" fill="#C566D8" d="M14.9,27.4C14.9,27.4,14.9,27.4,14.9,27.4c-0.5,0-0.8-0.2-1.2-0.3l-0.6-0.3
			c-0.3-0.1-0.4-0.4-0.3-0.7s0.4-0.4,0.7-0.3l0.6,0.3c0.3,0.1,0.5,0.2,0.8,0.2c0.3,0,0.5,0.3,0.5,0.6C15.4,27.2,15.2,27.4,14.9,27.4
			z M17.3,26.9c-0.2,0-0.4-0.1-0.5-0.3c-0.1-0.3,0-0.6,0.3-0.7l1.5-0.7c0.3-0.1,0.6,0,0.7,0.3c0.1,0.3,0,0.6-0.3,0.7l-1.5,0.7
			C17.4,26.8,17.4,26.9,17.3,26.9z M11.1,25.8c-0.1,0-0.1,0-0.2,0l-1.5-0.7C9.1,25,9,24.7,9.1,24.4c0.1-0.3,0.4-0.4,0.7-0.3l1.5,0.7
			c0.3,0.1,0.4,0.4,0.3,0.7C11.5,25.7,11.3,25.8,11.1,25.8z M21.1,25.2c-0.2,0-0.4-0.1-0.5-0.3c-0.1-0.3,0-0.6,0.3-0.7l1.5-0.7
			c0.3-0.1,0.6,0,0.7,0.3c0.1,0.3,0,0.6-0.3,0.7l-1.5,0.7C21.2,25.2,21.1,25.2,21.1,25.2z M7.3,24.1c-0.1,0-0.1,0-0.2,0l-1.5-0.7
			c-0.3-0.1-0.4-0.4-0.3-0.7s0.4-0.4,0.7-0.3l1.5,0.7c0.3,0.1,0.4,0.4,0.3,0.7C7.7,24,7.5,24.1,7.3,24.1z M24.8,23.5
			c-0.2,0-0.4-0.1-0.5-0.3c-0.1-0.3,0-0.6,0.3-0.7l1-0.4c0.2-0.1,0.3-0.2,0.4-0.2c0.2-0.2,0.6-0.1,0.7,0.1c0.2,0.2,0.1,0.6-0.1,0.7
			c-0.2,0.2-0.4,0.3-0.6,0.4L25,23.4C25,23.5,24.9,23.5,24.8,23.5z M3.8,22.1c-0.2,0-0.3-0.1-0.4-0.2c-0.3-0.5-0.5-1-0.5-1.6V20
			c0-0.3,0.2-0.5,0.5-0.5s0.5,0.2,0.5,0.5v0.2c0,0.4,0.1,0.8,0.3,1.1c0.2,0.2,0.1,0.6-0.2,0.7C4,22.1,3.9,22.1,3.8,22.1z M27.3,20.6
			c-0.3,0-0.5-0.2-0.5-0.5v-1.7c0-0.3,0.2-0.5,0.5-0.5s0.5,0.2,0.5,0.5V20C27.8,20.3,27.5,20.6,27.3,20.6z M3.4,18
			c-0.3,0-0.5-0.2-0.5-0.5v-1.7c0-0.3,0.2-0.5,0.5-0.5s0.5,0.2,0.5,0.5v1.7C3.9,17.8,3.7,18,3.4,18z M27.3,16.4
			c-0.3,0-0.5-0.2-0.5-0.5v-1.7c0-0.3,0.2-0.5,0.5-0.5s0.5,0.2,0.5,0.5v1.7C27.8,16.2,27.5,16.4,27.3,16.4z M3.4,13.9
			c-0.3,0-0.5-0.2-0.5-0.5v-1.7c0-0.3,0.2-0.5,0.5-0.5s0.5,0.2,0.5,0.5v1.7C3.9,13.7,3.7,13.9,3.4,13.9z M27.3,12.3
			c-0.3,0-0.5-0.2-0.5-0.5v-1.7c0-0.3,0.2-0.5,0.5-0.5s0.5,0.2,0.5,0.5v1.7C27.8,12,27.5,12.3,27.3,12.3z M3.4,9.9
			c-0.3,0-0.5-0.2-0.5-0.5c0,0,0,0,0-0.1c0-0.2,0-1.1,0.7-1.8c0.2-0.2,0.5-0.2,0.7,0c0.2,0.2,0.2,0.5,0,0.7C3.9,8.7,3.9,9.3,3.9,9.4
			C3.9,9.6,3.7,9.9,3.4,9.9C3.4,9.9,3.4,9.9,3.4,9.9z M26.6,8.3c-0.1,0-0.3-0.1-0.4-0.2c-0.3-0.3-0.6-0.4-0.6-0.4l-0.4-0.2l0,0
			l-0.2-0.1c-0.3-0.1-0.4-0.4-0.3-0.7c0.1-0.3,0.4-0.4,0.7-0.3c0.2,0.1,0.4,0.2,0.5,0.3l0,0c0.1,0,0.6,0.2,1,0.7
			c0.2,0.2,0.2,0.5,0,0.7C26.8,8.3,26.7,8.3,26.6,8.3z M6.1,7.2c-0.2,0-0.4-0.1-0.5-0.3c-0.1-0.3,0-0.6,0.3-0.7l1.5-0.7
			c0.3-0.1,0.6,0,0.7,0.3c0.1,0.3,0,0.6-0.3,0.7L6.3,7.2C6.3,7.2,6.2,7.2,6.1,7.2z M22.9,6.5c-0.1,0-0.1,0-0.2,0l-1.5-0.7
			c-0.3-0.1-0.4-0.4-0.3-0.7c0.1-0.3,0.4-0.4,0.7-0.3l1.5,0.7c0.3,0.1,0.4,0.4,0.3,0.7C23.3,6.4,23.1,6.5,22.9,6.5z M9.9,5.5
			c-0.2,0-0.4-0.1-0.5-0.3C9.3,5,9.4,4.7,9.7,4.5l1.5-0.7c0.3-0.1,0.6,0,0.7,0.3c0.1,0.3,0,0.6-0.3,0.7l-1.5,0.7
			C10,5.5,10,5.5,9.9,5.5z M19.1,4.8c-0.1,0-0.1,0-0.2,0l-1.5-0.7C17.1,4,17,3.6,17.1,3.4c0.1-0.3,0.4-0.4,0.7-0.3l1.5,0.7
			c0.3,0.1,0.4,0.4,0.3,0.7C19.5,4.7,19.3,4.8,19.1,4.8z M13.7,3.8c-0.2,0-0.4-0.1-0.5-0.3c-0.1-0.3,0-0.6,0.3-0.7l0.2-0.1
			c0,0,0.7-0.4,1.6-0.4c0,0,0,0,0,0c0.3,0,0.5,0.2,0.5,0.5c0,0.3-0.2,0.5-0.5,0.5c-0.7,0-1.2,0.3-1.2,0.3l-0.2,0.1
			C13.8,3.8,13.7,3.8,13.7,3.8z"/>
		<g id="XMLID_113_">
			<path id="XMLID_2245_" fill="#B049C1" d="M24,10.8C24,10.8,24,10.8,24,10.8C24,10.8,24,10.8,24,10.8c0-0.1,0-0.2-0.1-0.4
				c0,0,0,0,0,0c0-0.1-0.1-0.2-0.1-0.3c0,0-0.1-0.1-0.1-0.1c0-0.1-0.1-0.1-0.1-0.2c-0.1-0.1-0.2-0.2-0.3-0.2c0,0-0.1-0.1-0.2-0.1
				c0,0,0,0-0.1,0l0,0c0,0,0,0,0,0l-6.8-3c-0.2-0.1-0.6-0.2-0.9-0.2c-0.3,0-0.6,0-0.9,0.1l-0.1,0h0h0L7.6,9.4
				c-0.1,0-0.1,0.1-0.2,0.1c0,0-0.1,0-0.1,0.1C7.2,9.7,7.1,9.8,7,9.9c0,0,0,0,0,0.1c-0.2,0.2-0.3,0.5-0.3,0.8c0,0,0,0,0,0
				c0,0.1,0,0.1,0,0.2v8c0,0,0,0.1,0,0.1c0,0.3,0.1,0.6,0.3,0.9c0.1,0.1,0.2,0.3,0.3,0.4c0,0,0.1,0.1,0.1,0.1c0,0,0.1,0.1,0.2,0.1
				l6,2.7l0.8,0.4c0,0,0,0,0,0l0,0c0.1,0.1,0.3,0.1,0.4,0.1c0.5,0.1,1,0,1.3-0.1l0.1,0l6.8-3l0,0c0.1,0,0.1-0.1,0.2-0.1
				c0,0,0,0,0.1,0c0.3-0.2,0.5-0.5,0.6-0.8c0-0.1,0.1-0.2,0.1-0.3c0,0,0-0.1,0-0.1v0L24,10.8C24,10.8,24,10.8,24,10.8z"/>
			<g id="XMLID_2193_">
				<path id="XMLID_2197_" fill="#282828" d="M24,10.8C24,10.8,24,10.8,24,10.8c0-0.5-0.3-1-0.7-1.2c0,0-0.1-0.1-0.2-0.1
					c0,0,0,0-0.1,0l0,0c0,0,0,0,0,0l-6.8-3c-0.5-0.2-1.3-0.2-1.8,0l-0.1,0h0L7.6,9.4c-0.5,0.2-0.8,0.8-0.9,1.3c0,0,0,0,0,0
					c0,0.1,0,0.1,0,0.2v8c0,0,0,0.1,0,0.1c0,0.5,0.3,1,0.7,1.2c0.1,0.1,0.2,0.1,0.3,0.2l6,2.7l0.8,0.4c0,0,0,0,0,0l0,0
					c0.5,0.2,1.3,0.2,1.8,0l0.1,0l6.8-3l0,0c0.1,0,0.1-0.1,0.2-0.1c0,0,0,0,0.1,0c0.4-0.3,0.6-0.7,0.7-1.2c0,0,0-0.1,0-0.1v0
					L24,10.8C24,10.8,24,10.8,24,10.8z"/>
				<path id="XMLID_2196_" fill="#C566D8" d="M7.6,10.2l6.9,3.1c0.5,0.2,0.9,0.9,0.9,1.5v0c0-0.6,0.4-1.3,0.9-1.5l6.9-3.1
					c0.5-0.2,0.9,0.1,0.9,0.6c0-0.5-0.3-1-0.7-1.2c0,0-0.1-0.1-0.2-0.1c0,0,0,0-0.1,0l0,0c0,0,0,0,0,0l-6.8-3
					c-0.5-0.2-1.3-0.2-1.8,0l-0.1,0h0L7.6,9.4c-0.5,0.2-0.8,0.8-0.9,1.3C6.7,10.2,7.1,10,7.6,10.2z"/>
				<path id="XMLID_2195_" fill="#983CAF" d="M15.3,22.8V15v0v-0.3c0-0.6-0.4-1.3-0.9-1.5l-6.9-3.1c-0.5-0.2-0.8,0-0.9,0.5
					c0,0.1,0,0.1,0,0.2v8c0,0,0,0.1,0,0.1c0,0.5,0.3,1,0.7,1.2c0.1,0.1,0.2,0.1,0.3,0.2l6,2.7l0.8,0.4c0,0,0,0,0,0l0,0
					c0.5,0.2,1.3,0.2,1.8,0l0.1,0C15.7,23.7,15.3,23.4,15.3,22.8z"/>
				<path id="XMLID_2194_" fill="#B049C1" d="M24,10.8c0-0.5-0.4-0.8-0.9-0.6l-6.9,3.1c-0.5,0.2-0.9,0.9-0.9,1.5v0V15v0v7.7
					c0,0.6,0.4,0.9,0.9,0.7l6.8-3l0,0c0.1,0,0.1-0.1,0.2-0.1c0,0,0,0,0.1,0c0.4-0.3,0.6-0.7,0.7-1.2c0,0,0-0.1,0-0.1v0L24,10.8
					C24,10.8,24,10.8,24,10.8z"/>
			</g>
		</g>
	</g>
</g>
</svg>
