<?xml version="1.0" encoding="utf-8"?>
<!-- Generator: Adobe Illustrator 18.1.1, SVG Export Plug-In . SVG Version: 6.00 Build 0)  -->
<svg version="1.1" id="Layer_1" xmlns="http://www.w3.org/2000/svg" xmlns:xlink="http://www.w3.org/1999/xlink" x="0px" y="0px"
	 viewBox="0 0 63.9 69.2" enable-background="new 0 0 63.9 69.2" xml:space="preserve">
<g>
	<path fill="#0C9BD3" d="M12,57.6c0.9,0,1.8-0.1,2.7-0.1c0-0.7,0-1.4,0-2.2c-0.9,0-1.8,0-2.7,0.1C12,56.2,12,56.9,12,57.6z"/>
	<path fill="#0C9BD3" d="M8.7,57.8c0.9,0,1.8-0.1,2.7-0.1c0-0.7,0-1.4,0-2.2c-0.9,0-1.8,0.1-2.7,0.1C8.7,56.3,8.7,57,8.7,57.8z"/>
	<path fill="#0C9BD3" d="M5.3,58c0.9-0.1,1.8-0.1,2.7-0.2c0-0.7,0-1.5,0-2.2c-0.9,0-1.8,0.1-2.7,0.2C5.3,56.5,5.3,57.3,5.3,58z"/>
	<path fill="#0C9BD3" d="M32.3,58c0.9,0.1,1.8,0.1,2.7,0.2c0-0.7,0-1.5,0-2.2c-0.9-0.1-1.8-0.1-2.7-0.2C32.3,56.6,32.3,57.3,32.3,58
		z"/>
	<path fill="#0C9BD3" d="M18.8,57.5c0.9,0,1.8,0,2.7,0c0-0.7,0-1.4,0-2.2c-0.9,0-1.8,0-2.7,0C18.8,56.1,18.8,56.8,18.8,57.5z"/>
	<path fill="#0C9BD3" d="M15.4,57.5c0.9,0,1.8,0,2.7,0c0-0.7,0-1.4,0-2.2c-0.9,0-1.8,0-2.7,0C15.4,56.1,15.4,56.8,15.4,57.5z"/>
	<path fill="#0C9BD3" d="M45.7,59.6c0.9,0.1,1.8,0.3,2.7,0.4c0-0.8,0-1.6,0-2.4c-0.9-0.1-1.8-0.3-2.7-0.4
		C45.7,58,45.7,58.8,45.7,59.6z"/>
	<path fill="#0C9BD3" d="M5.3,21.8c0.9,0,1.8,0.1,2.7,0.1c0-0.7,0-1.5,0-2.2c-0.9,0-1.8-0.1-2.7-0.1C5.3,20.3,5.3,21,5.3,21.8z"/>
	<path fill="#0C9BD3" d="M12,22c0.9,0,1.8,0,2.7,0c0-0.7,0-1.4,0-2.2c-0.9,0-1.8,0-2.7-0.1C12,20.5,12,21.3,12,22z"/>
	<path fill="#0C9BD3" d="M18.1,36.3c-0.9,0-1.8,0-2.7,0c0,0.7,0,1.4,0,2.2c0.9,0,1.8,0,2.7,0C18.1,37.7,18.1,37,18.1,36.3z"/>
	<path fill="#0C9BD3" d="M12,38.4c0.9,0,1.8,0,2.7,0c0-0.7,0-1.4,0-2.2c-0.9,0-1.8,0-2.7,0C12,37,12,37.7,12,38.4z"/>
	<path fill="#0C9BD3" d="M52.4,60.8c0.9,0.2,1.8,0.4,2.6,0.5c0-0.8,0-1.7,0-2.5c-0.9-0.2-1.8-0.3-2.6-0.5
		C52.4,59.1,52.4,60,52.4,60.8z"/>
	<path fill="#0C9BD3" d="M55,7.9c-0.9,0.2-1.8,0.4-2.6,0.5c0,0.8,0,1.6,0,2.5c0.9-0.2,1.8-0.3,2.6-0.5C55,9.6,55,8.7,55,7.9z"/>
	<path fill="#0C9BD3" d="M49,60.2c0.9,0.2,1.8,0.3,2.6,0.5c0-0.8,0-1.6,0-2.4c-0.9-0.2-1.8-0.3-2.6-0.4C49,58.6,49,59.4,49,60.2z"/>
	<path fill="#0C9BD3" d="M48.4,9.2c-0.9,0.2-1.8,0.3-2.7,0.4c0,0.8,0,1.6,0,2.4c0.9-0.1,1.8-0.3,2.7-0.4C48.4,10.8,48.4,10,48.4,9.2
		z"/>
	<path fill="#0C9BD3" d="M51.7,8.6c-0.9,0.2-1.8,0.3-2.6,0.5c0,0.8,0,1.6,0,2.4c0.9-0.1,1.8-0.3,2.6-0.4
		C51.7,10.2,51.7,9.4,51.7,8.6z"/>
	<path fill="#0C9BD3" d="M18.1,11.7c-0.9,0-1.8,0-2.7,0c0,0.7,0,1.4,0,2.2c0.9,0,1.8,0,2.7,0C18.1,13.1,18.1,12.4,18.1,11.7z"/>
	<path fill="#0C9BD3" d="M21.5,11.7c-0.9,0-1.8,0-2.7,0c0,0.7,0,1.4,0,2.2c0.9,0,1.8,0,2.7,0C21.5,13.1,21.5,12.4,21.5,11.7z"/>
	<path fill="#0C9BD3" d="M12,60.4c0.9,0,1.8-0.1,2.7-0.1c0-0.7,0-1.4,0-2.2c-0.9,0-1.8,0-2.7,0.1C12,58.9,12,59.6,12,60.4z"/>
	<path fill="#0C9BD3" d="M18.8,60.2c0.9,0,1.8,0,2.7,0c0-0.7,0-1.4,0-2.2c-0.9,0-1.8,0-2.7,0C18.8,58.8,18.8,59.5,18.8,60.2z"/>
	<path fill="#0C9BD3" d="M45.7,62.6c0.9,0.2,1.8,0.3,2.7,0.5c0-0.8,0-1.6,0-2.4c-0.9-0.2-1.8-0.3-2.7-0.4
		C45.7,61,45.7,61.8,45.7,62.6z"/>
	<path fill="#0C9BD3" d="M32.3,60.8c0.9,0.1,1.8,0.2,2.7,0.3c0-0.7,0-1.5,0-2.2c-0.9-0.1-1.8-0.2-2.7-0.2
		C32.3,59.4,32.3,60.1,32.3,60.8z"/>
	<path fill="#0C9BD3" d="M12,32.9c0.9,0,1.8,0,2.7,0c0-0.7,0-1.4,0-2.2c-0.9,0-1.8,0-2.7,0C12,31.5,12,32.2,12,32.9z"/>
	<path fill="#0C9BD3" d="M18.1,30.8c-0.9,0-1.8,0-2.7,0c0,0.7,0,1.4,0,2.2c0.9,0,1.8,0,2.7,0C18.1,32.2,18.1,31.5,18.1,30.8z"/>
	<path fill="#0C9BD3" d="M55,4.7c-0.9,0.2-1.8,0.4-2.6,0.6c0,0.8,0,1.6,0,2.5c0.9-0.2,1.8-0.4,2.6-0.5C55,6.4,55,5.6,55,4.7z"/>
	<path fill="#0C9BD3" d="M48.4,6.1c-0.9,0.2-1.8,0.3-2.7,0.5c0,0.8,0,1.6,0,2.4c0.9-0.1,1.8-0.3,2.7-0.4C48.4,7.7,48.4,6.9,48.4,6.1
		z"/>
	<path fill="#0C9BD3" d="M21.5,9c-0.9,0-1.8,0-2.7,0c0,0.7,0,1.4,0,2.2c0.9,0,1.8,0,2.7,0C21.5,10.4,21.5,9.7,21.5,9z"/>
	<path fill="#0C9BD3" d="M18.1,25.3c-0.9,0-1.8,0-2.7,0c0,0.7,0,1.4,0,2.2c0.9,0,1.8,0,2.7,0C18.1,26.8,18.1,26.1,18.1,25.3z"/>
	<path fill="#0C9BD3" d="M8.7,27.4c0.9,0,1.8,0,2.7,0c0-0.7,0-1.4,0-2.2c-0.9,0-1.8,0-2.7-0.1C8.7,26,8.7,26.7,8.7,27.4z"/>
	<path fill="#0C9BD3" d="M5.3,16.2c0.9,0.1,1.8,0.1,2.7,0.1c0-0.7,0-1.5,0-2.2c-0.9,0-1.8-0.1-2.7-0.2C5.3,14.7,5.3,15.5,5.3,16.2z"
		/>
	<path fill="#0C9BD3" d="M12,16.5c0.9,0,1.8,0,2.7,0.1c0-0.7,0-1.4,0-2.2c-0.9,0-1.8,0-2.7-0.1C12,15.1,12,15.8,12,16.5z"/>
	<path fill="#0C9BD3" d="M8.7,16.4c0.9,0,1.8,0.1,2.7,0.1c0-0.7,0-1.4,0-2.2c-0.9,0-1.8-0.1-2.7-0.1C8.7,14.9,8.7,15.7,8.7,16.4z"/>
	<path fill="#0C9BD3" d="M8.7,19.1c0.9,0,1.8,0.1,2.7,0.1c0-0.7,0-1.4,0-2.2C10.5,17,9.6,17,8.7,17C8.7,17.7,8.7,18.4,8.7,19.1z"/>
	<path fill="#0C9BD3" d="M8.7,52.3c0.9,0,1.8-0.1,2.7-0.1c0-0.7,0-1.4,0-2.2c-0.9,0-1.8,0.1-2.7,0.1C8.7,50.8,8.7,51.5,8.7,52.3z"/>
	<path fill="#0C9BD3" d="M12,52.1c0.9,0,1.8,0,2.7-0.1c0-0.7,0-1.4,0-2.2c-0.9,0-1.8,0-2.7,0.1C12,50.7,12,51.4,12,52.1z"/>
	<path fill="#0C9BD3" d="M8.7,41.2c0.9,0,1.8,0,2.7,0c0-0.7,0-1.4,0-2.2c-0.9,0-1.8,0-2.7,0C8.7,39.8,8.7,40.5,8.7,41.2z"/>
	<path fill="#0C9BD3" d="M12,41.2c0.9,0,1.8,0,2.7,0c0-0.7,0-1.4,0-2.2c-0.9,0-1.8,0-2.7,0C12,39.7,12,40.5,12,41.2z"/>
	<path fill="#0C9BD3" d="M5.3,41.3c0.9,0,1.8,0,2.7-0.1c0-0.7,0-1.5,0-2.2c-0.9,0-1.8,0-2.7,0C5.3,39.8,5.3,40.5,5.3,41.3z"/>
	<path fill="#0C9BD3" d="M12,30.2c0.9,0,1.8,0,2.7,0c0-0.7,0-1.4,0-2.2c-0.9,0-1.8,0-2.7,0C12,28.8,12,29.5,12,30.2z"/>
	<path fill="#0C9BD3" d="M8.7,49.5c0.9,0,1.8-0.1,2.7-0.1c0-0.7,0-1.4,0-2.2c-0.9,0-1.8,0-2.7,0.1C8.7,48,8.7,48.8,8.7,49.5z"/>
	<path fill="#0C9BD3" d="M8.7,30.2c0.9,0,1.8,0,2.7,0c0-0.7,0-1.4,0-2.2c-0.9,0-1.8,0-2.7,0C8.7,28.7,8.7,29.4,8.7,30.2z"/>
	<path fill="#0C9BD3" d="M5.3,30.1c0.9,0,1.8,0,2.7,0c0-0.7,0-1.5,0-2.2c-0.9,0-1.8,0-2.7-0.1C5.3,28.7,5.3,29.4,5.3,30.1z"/>
	<path fill="#0C9BD3" d="M5.3,55.2C6.2,55.1,7.1,55.1,8,55c0-0.7,0-1.5,0-2.2c-0.9,0-1.8,0.1-2.7,0.1C5.3,53.7,5.3,54.5,5.3,55.2z"
		/>
	<path fill="#0C9BD3" d="M12,54.9c0.9,0,1.8-0.1,2.7-0.1c0-0.7,0-1.4,0-2.2c-0.9,0-1.8,0-2.7,0.1C12,53.4,12,54.2,12,54.9z"/>
	<path fill="#0C9BD3" d="M8.7,44c0.9,0,1.8,0,2.7-0.1c0-0.7,0-1.4,0-2.2c-0.9,0-1.8,0-2.7,0C8.7,42.5,8.7,43.3,8.7,44z"/>
	<path fill="#0C9BD3" d="M18.1,41.7c-0.9,0-1.8,0-2.7,0c0,0.7,0,1.4,0,2.2c0.9,0,1.8,0,2.7,0C18.1,43.2,18.1,42.4,18.1,41.7z"/>
	<path fill="#0C9BD3" d="M5.3,44.1C6.2,44,7.1,44,8,44c0-0.7,0-1.5,0-2.2c-0.9,0-1.8,0-2.7,0.1C5.3,42.6,5.3,43.3,5.3,44.1z"/>
	<path fill="#0C9BD3" d="M18.1,44.4c-0.9,0-1.8,0-2.7,0c0,0.7,0,1.4,0,2.2c0.9,0,1.8,0,2.7,0C18.1,45.9,18.1,45.2,18.1,44.4z"/>
	<path fill="#0C9BD3" d="M8.7,46.7c0.9,0,1.8,0,2.7-0.1c0-0.7,0-1.4,0-2.2c-0.9,0-1.8,0-2.7,0.1C8.7,45.3,8.7,46,8.7,46.7z"/>
	<path fill="#0C9BD3" d="M12,46.7c0.9,0,1.8,0,2.7,0c0-0.7,0-1.4,0-2.2c-0.9,0-1.8,0-2.7,0C12,45.2,12,45.9,12,46.7z"/>
	<path fill="#0C9BD3" d="M28.9,63.6c0.9,0.1,1.8,0.1,2.7,0.2c0-0.8,0-1.7,0-2.5c-0.9-0.1-1.8-0.1-2.7-0.2
		C28.9,62,28.9,62.8,28.9,63.6z"/>
	<path fill="#0C9BD3" d="M18.1,6c-0.9,0-1.8,0-2.7,0c0,0.8,0,1.6,0,2.4c0.9,0,1.8,0,2.7,0C18.1,7.6,18.1,6.8,18.1,6z"/>
	<path fill="#0C9BD3" d="M49,66.6c0.9,0.2,1.8,0.4,2.6,0.6c0-0.9,0-1.8,0-2.8c-0.9-0.2-1.8-0.4-2.6-0.6C49,64.7,49,65.7,49,66.6z"/>
	<path fill="#0C9BD3" d="M21.5,5.9c-0.9,0-1.8,0-2.7,0c0,0.8,0,1.6,0,2.4c0.9,0,1.8,0,2.7,0C21.5,7.6,21.5,6.7,21.5,5.9z"/>
	<path fill="#0C9BD3" d="M25.6,63.4c0.9,0,1.8,0.1,2.7,0.2c0-0.8,0-1.6,0-2.5c-0.9-0.1-1.8-0.1-2.7-0.1
		C25.6,61.8,25.6,62.6,25.6,63.4z"/>
	<path fill="#0C9BD3" d="M22.2,63.3c0.9,0,1.8,0.1,2.7,0.1c0-0.8,0-1.6,0-2.5c-0.9,0-1.8-0.1-2.7-0.1C22.2,61.7,22.2,62.5,22.2,63.3
		z"/>
	<path fill="#0C9BD3" d="M45.7,65.9c0.9,0.2,1.8,0.4,2.7,0.5c0-0.9,0-1.8,0-2.7c-0.9-0.2-1.8-0.3-2.7-0.5
		C45.7,64.1,45.7,65,45.7,65.9z"/>
	<path fill="#0C9BD3" d="M28.3,5.6c-0.9,0.1-1.8,0.1-2.7,0.2c0,0.8,0,1.6,0,2.5c0.9,0,1.8-0.1,2.7-0.1C28.3,7.3,28.3,6.5,28.3,5.6z"
		/>
	<path fill="#0C9BD3" d="M51.7,2c-0.9,0.2-1.8,0.4-2.6,0.6c0,0.9,0,1.8,0,2.7c0.9-0.2,1.8-0.4,2.6-0.6C51.7,3.9,51.7,3,51.7,2z"/>
	<path fill="#0C9BD3" d="M48.4,2.8c-0.9,0.2-1.8,0.4-2.7,0.5c0,0.9,0,1.8,0,2.7c0.9-0.2,1.8-0.3,2.7-0.5C48.4,4.6,48.4,3.7,48.4,2.8
		z"/>
	<path fill="#0C9BD3" d="M45,3.5c-0.9,0.2-1.7,0.3-2.6,0.5c0,0.9,0,1.7,0,2.6c0.9-0.1,1.8-0.3,2.6-0.4C45,5.2,45,4.4,45,3.5z"/>
	<path fill="#0C9BD3" d="M38.4,4.6c-0.9,0.1-1.8,0.2-2.7,0.4c0,0.8,0,1.7,0,2.5c0.9-0.1,1.8-0.2,2.7-0.3C38.4,6.3,38.4,5.4,38.4,4.6
		z"/>
	<path fill="#0C9BD3" d="M5.3,24.6c0.9,0,1.8,0.1,2.7,0.1c0-0.7,0-1.5,0-2.2c-0.9,0-1.8-0.1-2.7-0.1C5.3,23.1,5.3,23.8,5.3,24.6z"/>
	<path fill="#0C9BD3" d="M35,5c-0.9,0.1-1.8,0.2-2.7,0.3c0,0.8,0,1.7,0,2.5c0.9-0.1,1.8-0.2,2.7-0.3C35,6.7,35,5.8,35,5z"/>
	<path fill="#0C9BD3" d="M31.6,5.4c-0.9,0.1-1.8,0.2-2.7,0.2c0,0.8,0,1.6,0,2.5c0.9-0.1,1.8-0.1,2.7-0.2C31.6,7,31.6,6.2,31.6,5.4z"
		/>
	<path fill="#0C9BD3" d="M18.1,22.6c-0.9,0-1.8,0-2.7,0c0,0.7,0,1.4,0,2.2c0.9,0,1.8,0,2.7,0C18.1,24.1,18.1,23.3,18.1,22.6z"/>
	<path fill="#0C9BD3" d="M12,24.7c0.9,0,1.8,0,2.7,0c0-0.7,0-1.4,0-2.2c-0.9,0-1.8,0-2.7,0C12,23.3,12,24,12,24.7z"/>
	<path fill="#0C9BD3" d="M18.8,63.2c0.9,0,1.8,0,2.7,0c0-0.8,0-1.6,0-2.4c-0.9,0-1.8,0-2.7,0C18.8,61.6,18.8,62.4,18.8,63.2z"/>
	<path fill="#0C9BD3" d="M8.7,35.7c0.9,0,1.8,0,2.7,0c0-0.7,0-1.5,0-2.2c-0.9,0-1.8,0-2.7,0C8.7,34.2,8.7,35,8.7,35.7z"/>
	<path fill="#0C9BD3" d="M18.1,33.5c-0.9,0-1.8,0-2.7,0c0,0.7,0,1.4,0,2.2c0.9,0,1.8,0,2.7,0C18.1,35,18.1,34.2,18.1,33.5z"/>
	<path fill="#0C9BD3" d="M35.7,64.3c0.9,0.1,1.8,0.2,2.7,0.4c0-0.9,0-1.7,0-2.6c-0.9-0.1-1.8-0.2-2.7-0.3
		C35.7,62.6,35.7,63.4,35.7,64.3z"/>
	<path fill="#0C9BD3" d="M39.1,64.7c0.9,0.1,1.8,0.3,2.7,0.4c0-0.9,0-1.7,0-2.6c-0.9-0.1-1.8-0.3-2.7-0.4
		C39.1,63,39.1,63.9,39.1,64.7z"/>
	<path fill="#0C9BD3" d="M58.3,46.4c0-0.2,0-0.5,0-0.7c0-0.9-0.1-1.8-0.3-2.6c0-0.2-0.1-0.5-0.2-0.7c-0.1-0.4-0.3-0.8-0.4-1.2
		c-0.2-0.5-0.4-1-0.7-1.4c-0.1-0.2-0.4-0.6-0.4-0.6L55,39.2c0,0-1.7-0.1-2.6-0.1c0-0.8,0-2.5,0-2.5l0-0.5c0,0-0.4-0.2-1.1-0.4
		c-0.7-0.3-1.5-0.5-2.3-0.6c-0.2,0-0.5-0.1-0.7-0.1c-0.4-0.1-0.9-0.2-1.3-0.2c0-0.4,0-0.8,0-1.3c0-0.2,0-0.4,0-0.6c0,0,0,0,0,0
		c0.4-0.1,0.9-0.3,1.3-0.5c0.2-0.1,0.4-0.2,0.7-0.3c0.3-0.1,0.7-0.3,1-0.4c0.6-0.2,1.1-0.5,1.6-0.8c0.2-0.1,0.5-0.3,0.7-0.5
		c0,0,0-0.1,0-0.1c0.1,0,0.1,0,0.2,0c0.2-0.2,0.5-0.3,0.7-0.5c0.1,0,0.1-0.1,0.2-0.2c0.6-0.5,1.1-1.2,1.6-1.9
		c0.3-0.4,0.5-0.8,0.7-1.2c0-0.1,0.1-0.1,0.1-0.2c0.4-0.8,0.6-1.6,0.8-2.6c0-0.2,0.1-0.5,0.1-0.7c0-0.5,0.1-1,0.1-1.5
		c0-0.4,0-0.7,0-1.1c0-0.2,0-0.5-0.1-0.7c-0.1-0.9-0.3-1.7-0.5-2.5c0,0,0-0.1,0-0.1c-0.1-0.2-0.1-0.4-0.2-0.6c-0.1,0-0.1,0-0.2,0
		c0-0.1,0-0.2,0-0.3c-0.2-0.4-0.4-0.7-0.7-1c-0.3-0.3-0.6-0.6-0.9-0.9c-0.1-0.1-0.2-0.2-0.3-0.3c-0.1-0.1-0.3-0.2-0.4-0.3
		c-0.3-0.2-0.6-0.4-1-0.5c-0.2-0.1-0.4-0.2-0.7-0.3c-0.7-0.2-1.4-0.4-2.2-0.5c-0.1,0-0.3,0-0.5-0.1c-0.2,0-0.4,0-0.7,0
		c-0.2,0-0.4,0-0.6,0c-0.2,0-0.4,0-0.7,0c-0.4,0-0.9,0-1.4,0.1c-0.2,0-0.5,0-0.7,0c0-0.2,0-0.4,0-0.6c-0.9,0.1-1.7,0.2-2.6,0.3
		c0-0.8,0-1.5,0-2.3c0.9-0.1,1.7-0.2,2.6-0.4c0,0,0,0,0,0c0-0.2,0-0.4,0-0.6c0-0.8,0-1.6,0-2.3c-0.9,0.1-1.7,0.3-2.6,0.4
		c-0.2,0-0.5,0.1-0.7,0.1c-0.9,0.1-1.8,0.3-2.7,0.4c-0.2,0-0.5,0.1-0.7,0.1c-0.9,0.1-1.8,0.2-2.7,0.3c0,0.7,0,1.5,0,2.2
		c0,0.2,0,0.4,0,0.6c0,0.7,0,1.5,0,2.2c0,0.2,0,0.4,0,0.6c-0.2,0-0.5,0-0.7,0.1c-0.9,0.1-4.4,0.2-5.2,0.2c0-0.7,0-1.5,0-2.3
		c0.4,0,1.7,0,2.5-0.1c0-0.2,0-0.2,0-0.4c0-0.2,0-0.4,0-0.6c0-0.7,0-1.5,0-2.2c-0.2,0-0.5,0-0.7,0.1c-0.9,0.1-1.8,0.1-2.7,0.2
		c-0.2,0-0.5,0-0.7,0c-0.9,0.1-1.8,0.1-2.7,0.1c-0.2,0-0.5,0-0.7,0c-0.9,0-1.8,0.1-2.7,0.1c0,0.7,0,1.4,0,2.2c0,0.2,0,0.4,0,0.6
		c0,0.7,0,1.4,0,2.2c0,0.2,0,0.4,0,0.6c-0.2,0-0.5,0-0.7,0c-0.1,0-0.3,0-0.4,0c-0.8,0-1.5,0-2.3,0c-0.2,0-0.5,0-0.7,0
		c-0.9,0-1.8,0-2.7,0c0,0.7,0,1.4,0,2.2c0,0.2,0,0.4,0,0.6c0.9,0,1.8,0.1,2.7,0.1c0,0.7,0,1.4,0,2.2c-0.9,0-1.8,0-2.7-0.1
		c0,0.2,0,0.4,0,0.6c0,0.7,0,1.4,0,2.2c0.9,0,1.8,0,2.7,0c0.2,0,0.5,0,0.7,0c0,0.2,0,0.4,0,0.6c0,0.7,0,1.4,0,2.2c0,0.2,0,0.4,0,0.6
		c0,0.7,0,1.4,0,2.2c0,0.2,0,0.4,0,0.6c0,0.7,0,1.4,0,2.2c0,0.2,0,0.4,0,0.6c0.9,0,1.7,0,2.6,0c0,0.7,0,1.4,0,2.2
		c-0.9,0-1.8,0-2.6,0c0,0,0,0,0,0c0,0.2,0,0.4,0,0.6c0,0.7,0,1.4,0,2.2c0,0.2,0,0.4,0,0.6c0,0,0,0,0,0c0.9,0,1.7,0,2.6,0
		c0,0.7,0,1.4,0,2.2c-0.9,0-1.8,0-2.6,0c0,0.2,0,0.4,0,0.6c0,0.7,0,1.4,0,2.2c0,0.2,0,0.4,0,0.6c0,0.7,0,1.4,0,2.2
		c0,0.2,0,0.4,0,0.6c0,0.7,0,1.4,0,2.2c0,0.2,0,0.4,0,0.6c-0.2,0-0.5,0-0.7,0c-0.9,0-1.8,0-2.7,0c0,0.7,0,1.4,0,2.2
		c0,0.2,0,0.4,0,0.6c0,0.7,0,1.4,0,2.2c0,0.2,0,0.4,0,0.6c0,0,0,0,0,0.1c0.9,0,1.7,0,2.6-0.1c0,0.7,0,1.4,0,2.1c0,0,0,0,0.1,0
		c0.2,0,0.5,0,0.7,0c0.8,0,1.5,0,2.3,0c0.1,0,0.3,0,0.4,0c0.2,0,0.5,0,0.7,0c0,0.2,0,0.4,0,0.6c0,0.7,0,1.4,0,2.2c0,0.2,0,0.4,0,0.6
		c0,0.7,0,1.4,0,2.2c0.9,0,1.8,0.1,2.7,0.1c0.2,0,0.5,0,0.7,0c0.9,0,1.8,0.1,2.7,0.1c0.2,0,0.5,0,0.7,0c0,0,0,0,0.1,0
		c0-0.7,0-1.4,0-2.1c0.9,0.1,1.8,0.1,2.6,0.2c0,0,0-0.1,0-0.1c0-0.2,0-0.4,0-0.6c0-0.7,0-1.5,0-2.2c0-0.2,0-0.4,0-0.6
		c0.2,0,0.5,0,0.7,0c0.9,0.1,1.8,0.1,2.7,0.2c0.2,0,0.5,0,0.7,0.1c0,0.2,0,0.4,0,0.6c0,0.7,0,1.5,0,2.2c0,0.2,0,0.4,0,0.6
		c0,0.7,0,1.5,0,2.2c0.9,0.1,1.8,0.2,2.7,0.3c0.2,0,0.5,0.1,0.7,0.1c0.9,0.1,1.8,0.2,2.7,0.4c0.2,0,0.5,0.1,0.7,0.1
		c0.9,0.1,1.8,0.3,2.6,0.4c0-0.8,0-1.6,0-2.3c0-0.2,0-0.4,0-0.6c0-0.8,0-1.6,0-2.3c0-0.2,0-0.4,0-0.6c0.2,0,0.5,0,0.7,0.1
		c0.9,0.1,1.8,0.1,2.7,0.1c0.2,0,0.5,0,0.7,0c0.3,0,0.6,0,0.9-0.1c0.6-0.1,1.2-0.2,1.7-0.3c0.2-0.1,0.5-0.1,0.7-0.2
		c0.6-0.2,1.1-0.4,1.6-0.7c0.3-0.2,0.6-0.3,0.8-0.5c0,0,0,0,0,0c0.1,0,0.1-0.1,0.2-0.2c0.2-0.2,0.5-0.4,0.7-0.6
		c0.5-0.4,0.9-0.9,1.2-1.5c0.1-0.2,0.2-0.4,0.3-0.6c0.1-0.2,0.2-0.4,0.3-0.6c0.2-0.6,0.4-1.2,0.5-1.8c0-0.2,0.1-0.4,0.1-0.7
		c0.1-0.8,0.2-1.6,0.2-2.5C58.3,46.5,58.3,46.5,58.3,46.4C58.3,46.4,58.3,46.4,58.3,46.4z M52.4,17.4c0.9-0.1,1.7-0.2,2.6-0.4
		c0,0.9,0,1.7,0,2.6c-0.9,0.1-1.7,0.2-2.6,0.3C52.4,19,52.4,18.2,52.4,17.4z M52.4,23.7c0.9-0.1,1.7-0.2,2.6-0.2c0,0.9,0,1.7,0,2.6
		c-0.9,0.1-1.7,0.1-2.6,0.2C52.4,25.4,52.4,24.6,52.4,23.7z M25.6,16.9c0.9,0,1.8-0.1,2.7-0.1c0,0.7,0,1.5,0,2.2
		c-0.9,0-1.8,0.1-2.7,0.1C25.6,18.4,25.6,17.7,25.6,16.9z M27.3,25.3c0,0.7,0,1.4,0,2.2c-0.9,0-1.8,0-2.7,0c0-0.7,0-1.4,0-2.2
		C25.5,25.3,26.4,25.3,27.3,25.3z M22.2,17.1c0.9,0,1.8-0.1,2.7-0.1c0,0.7,0,1.5,0,2.2c-0.9,0-1.8,0.1-2.7,0.1
		C22.2,18.5,22.2,17.8,22.2,17.1z M20.8,24.8c0-0.7,0-1.4,0-2.2c0.9,0,1.8,0,2.7,0c0,0.7,0,1.4,0,2.2C22.6,24.8,21.7,24.8,20.8,24.8
		z M21.5,52.1c-0.9,0-1.8,0-2.7,0.1c0-0.7,0-1.4,0-2.2c0.9,0,1.8,0,2.7-0.1C21.5,50.6,21.5,51.4,21.5,52.1z M24.2,46.6
		c-0.9,0-1.8,0-2.7,0c0-0.7,0-1.4,0-2.2c0.9,0,1.8,0,2.7,0C24.2,45.2,24.2,45.9,24.2,46.6z M24.2,43.9c-0.9,0-1.8,0-2.7,0
		c0-0.7,0-1.4,0-2.2c0.9,0,1.8,0,2.7,0C24.2,42.4,24.2,43.2,24.2,43.9z M24.2,35.7c0-0.7,0-1.5,0-2.2c0.9,0,1.8,0,2.7,0
		c0,0.7,0,1.5,0,2.2C26,35.7,25.1,35.7,24.2,35.7z M28.3,57.5c-0.9,0-1.8,0-2.7,0c0-0.7,0-1.4,0-2.2c0.9,0,1.8,0,2.7,0
		C28.3,56.1,28.3,56.8,28.3,57.5z M30.5,30.7c0-0.2,0-0.4,0-0.6c0-0.7,0-1.5,0-2.2c0-0.2,0-0.4,0-0.6c0-0.7,0-1.5,0-2.2
		c0-0.2,0-0.4,0-0.6c0-0.7,0-1.5,0-2.2c0-0.2,0-0.4,0-0.6c0-0.4,0-0.7,0-1.1c0.4,0,0.7,0,1.1,0c0.2,0,0.5,0,0.7,0
		c0.9,0,1.8-0.1,2.7-0.1c0.2,0,0.5,0,0.7,0c0.3,0,0.5,0,0.8,0c0.7,0,1.3-0.1,1.9-0.1c0.2,0,0.5,0,0.7,0c0.4,0,0.8,0,1.2,0
		c0.6,0,1.1,0.1,1.5,0.2c0.3,0.1,0.5,0.2,0.7,0.3c0.1,0,0.1,0.1,0.2,0.1c0.1,0,0.2,0.1,0.2,0.2c0.2,0.2,0.4,0.4,0.6,0.6
		c0.1,0.2,0.3,0.4,0.4,0.6c0.2,0.5,0.3,1,0.3,1.7c0,0.2,0,0.4,0,0.6c0,0,0,0,0,0c0,0.9-0.1,1.7-0.4,2.3c-0.1,0.2-0.2,0.4-0.3,0.6
		c0,0,0,0.1-0.1,0.1c-0.3,0.5-0.6,0.9-1,1.2c-0.2,0.2-0.4,0.4-0.7,0.5c-0.1,0.1-0.2,0.1-0.2,0.2c-0.2,0.1-0.4,0.2-0.6,0.3
		c-0.7,0.3-1.4,0.5-2.3,0.7c-0.1,0-0.1,0-0.2,0c-0.2,0-0.3,0-0.5,0.1c-0.6,0.1-1.4,0.1-2.2,0.2c-0.2,0-0.5,0-0.7,0
		c-0.4,0-0.8,0-1.1,0.1c-0.5,0-1.1,0-1.6,0.1c-0.2,0-0.5,0-0.7,0c-0.4,0-0.7,0-1.1,0C30.5,31,30.5,30.9,30.5,30.7z M35.1,52.4
		c-0.9-0.1-1.8-0.1-2.7-0.1c0-0.7,0-1.5,0-2.2c0.9,0,1.8,0.1,2.7,0.1C35.1,51,35.1,51.7,35.1,52.4z M41.8,52.9
		c-0.9-0.1-1.8-0.1-2.7-0.2c0-0.7,0-1.5,0-2.2c0.9,0.1,1.8,0.1,2.7,0.2C41.8,51.4,41.8,52.1,41.8,52.9z M45,47
		c-0.1,0.2-0.3,0.4-0.5,0.6c-0.2,0.2-0.5,0.4-0.8,0.6c0,0-0.1,0-0.1,0.1c-0.3,0.1-0.7,0.3-1.2,0.4c-0.2,0-0.4,0.1-0.7,0.1
		c-0.8,0.1-1.6,0.2-2.7,0.2c-0.2,0-0.5,0-0.7,0c-0.5,0-1,0-1.6-0.1c-0.4,0-0.7,0-1.1-0.1c-0.2,0-0.5,0-0.7,0c-0.7,0-1.3-0.1-2-0.1
		c-0.2,0-0.4,0-0.7,0c-0.2,0-0.5,0-0.7,0c-0.4,0-0.7,0-1.1,0c0-0.4,0-0.7,0-1.1c0-0.2,0-0.4,0-0.6c0-0.7,0-1.5,0-2.2
		c0-0.2,0-0.4,0-0.6c0-0.7,0-1.5,0-2.2c0-0.2,0-0.4,0-0.6c0-0.7,0-1.5,0-2.2c0-0.2,0-0.4,0-0.6c0-0.1,0-0.2,0-0.3c0.4,0,0.7,0,1.1,0
		c0.2,0,0.5,0,0.7,0c0.3,0,0.7,0,1,0c0.5,0,1.1,0,1.6,0c0.2,0,0.5,0,0.7,0c0.9,0,1.9,0.1,2.7,0.1c0.2,0,0.5,0,0.7,0.1
		c0.1,0,0.2,0,0.2,0c0.4,0,0.7,0.1,1,0.2c0.9,0.2,1.7,0.4,2.3,0.7c0.1,0,0.1,0,0.2,0.1c0.6,0.3,1.1,0.6,1.5,1.1
		c0.2,0.2,0.4,0.5,0.6,0.7c0,0.1,0.1,0.1,0.1,0.2c0.4,0.8,0.6,1.7,0.6,2.9C45.7,45.4,45.4,46.3,45,47z M55,49
		c-0.9-0.1-1.7-0.2-2.6-0.3c0-0.8,0-1.7,0-2.5c0.9,0.1,1.7,0.2,2.6,0.3C55,47.3,55,48.1,55,49z"/>
</g>
</svg>
