<?xml version="1.0" encoding="utf-8"?>
<!-- Generator: Adobe Illustrator 18.1.1, SVG Export Plug-In . SVG Version: 6.00 Build 0)  -->
<svg version="1.1" id="Layer_1" xmlns="http://www.w3.org/2000/svg" xmlns:xlink="http://www.w3.org/1999/xlink" x="0px" y="0px"
	 viewBox="0 0 239.5 66" enable-background="new 0 0 239.5 66" xml:space="preserve">
<path fill="#0C9BD3" d="M26,23.8c2-0.9,3.5-2.4,3.5-5v-0.1c0-1.6-0.6-2.7-1.5-3.7c-1.3-1.3-3.3-2-6.2-2H10.3v22.6H22
	c5.4,0,8.6-2.4,8.6-6.2v-0.1C30.5,26.3,28.8,24.8,26,23.8z M16.4,18.1h4.1c1.9,0,2.8,0.7,2.8,1.9v0.1c0,1.3-1.1,2-3,2h-3.9V18.1z
	 M24.3,28.6c0,1.3-1.1,2.1-3,2.1h-4.8v-4.2h4.8C23.3,26.5,24.3,27.3,24.3,28.6L24.3,28.6z"/>
<polygon fill="#0C9BD3" points="39.6,13 33.3,13 33.3,35.7 50.5,35.7 50.5,30.2 39.6,30.2 "/>
<path fill="#0C9BD3" d="M63.4,12.6c-7,0-12.2,5.3-12.2,11.8v0.1c0,6.5,5.2,11.7,12.2,11.7s12.2-5.3,12.2-11.8v-0.1
	C75.5,17.8,70.4,12.6,63.4,12.6z M69.1,24.4c0,3.3-2.3,6.1-5.8,6.1c-3.4,0-5.8-2.8-5.8-6.1v-0.1c0-3.3,2.3-6.1,5.7-6.1
	C66.7,18.2,69.1,21.1,69.1,24.4L69.1,24.4L69.1,24.4z"/>
<path fill="#0C9BD3" d="M89.9,30.4c-3.2,0-5.4-2.6-5.4-6.1v-0.1c0-3.3,2.2-6,5.4-6c2.2,0,3.6,1,5,2.6l4.7-3.6c-2-2.8-5-4.7-9.6-4.7
	c-6.9,0-11.9,5.2-11.9,11.8v0.1c0,6.7,5.2,11.7,11.7,11.7c5,0,7.9-2.2,10-5.1L95,27.7C93.6,29.3,92.3,30.4,89.9,30.4"/>
<path fill="#0C9BD3" d="M135.3,30.4c-3.2,0-5.4-2.6-5.4-6.1v-0.1c0-3.3,2.2-6,5.4-6c2.2,0,3.6,1,5,2.6l4.7-3.6c-2-2.8-5-4.7-9.6-4.7
	c-6.9,0-11.9,5.2-11.9,11.8v0.1c0,1,0.1,2,0.4,2.9l0,0c1.2,5.2,5.8,8.8,11.3,8.8c5,0,7.9-2.2,10-5.1l-4.7-3.4
	C139.1,29.3,137.7,30.4,135.3,30.4"/>
<polygon fill="#0C9BD3" points="162.2,21.5 154.1,21.5 154.1,13 147.8,13 147.8,35.7 154.1,35.7 154.1,27.1 162.2,27.1 162.2,35.7 
	168.4,35.7 168.4,13 162.2,13 "/>
<path fill="#0C9BD3" d="M186.3,12.9h-6.1l-9.6,22.8h6.6l1.6-4.1h8.7l1.6,4.1h6.7L186.3,12.9z M180.7,26.8l2.5-6.4l2.5,6.4H180.7z"/>
<rect x="198.3" y="13" fill="#0C9BD3" width="6.3" height="22.6"/>
<polygon fill="#0C9BD3" points="223.9,13 223.9,25 214.6,13 208.8,13 208.8,35.7 214.9,35.7 214.9,23.2 224.6,35.7 230.1,35.7 
	230.1,13 "/>
<polygon fill="#0C9BD3" points="123.9,13 122.7,13 120.9,13 118.5,13 116.5,13 116.5,13 116.5,13 108.7,22.2 108.7,13 102.4,13 
	102.4,35.7 108.7,35.7 108.7,29.8 111,27.3 116.7,35.7 116.7,35.7 116.7,35.7 122.9,35.7 114.4,23.5 "/>
<text transform="matrix(1 0 0 1 200.7438 57.3495)" fill="#0C9BD3" font-family="'ProximaNova-Regular'" font-size="18.8694">info</text>
</svg>
