<?xml version="1.0" encoding="utf-8"?>
<!-- Generator: Adobe Illustrator 19.1.0, SVG Export Plug-In . SVG Version: 6.00 Build 0)  -->
<svg version="1.1" id="Layer_1" xmlns="http://www.w3.org/2000/svg" xmlns:xlink="http://www.w3.org/1999/xlink" x="0px" y="0px"
	 viewBox="0 0 432 432" enable-background="new 0 0 432 432" xml:space="preserve">
<g>
	<g>
		<g>
			<defs>
				<path id="SVGID_1_" d="M83.1,316.2c-0.2,0.3-0.5,0.4-0.8,0.4h-6.7c-0.3,0-0.6-0.1-0.7-0.4c-0.8-1.2-2-2-3.4-2.6
					c-1.4-0.6-3.1-0.9-5-0.9c-7,0-10.6,3.9-10.6,11.7c0,7.8,3.5,11.7,10.6,11.7c1.9,0,3.6-0.3,5-0.9c1.4-0.6,2.5-1.5,3.4-2.6
					c0.2-0.2,0.4-0.4,0.7-0.4h6.7c0.3,0,0.6,0.1,0.8,0.4c0.2,0.3,0.2,0.6,0,0.9c-1.5,3.4-3.6,6-6.5,7.8c-2.8,1.7-6.2,2.6-10.2,2.6
					c-2.8,0-5.3-0.4-7.6-1.3c-2.2-0.9-4.2-2.1-5.8-3.8c-1.6-1.7-2.8-3.7-3.7-6.1c-0.9-2.4-1.3-5.1-1.3-8.2c0-3,0.4-5.8,1.3-8.2
					c0.8-2.4,2.1-4.5,3.6-6.1c1.6-1.7,3.5-3,5.8-3.8c2.3-0.9,4.8-1.3,7.6-1.3c4,0,7.4,0.9,10.3,2.6c2.9,1.7,5,4.3,6.4,7.7
					C83.4,315.6,83.3,315.9,83.1,316.2L83.1,316.2z M126.3,343.7c-0.2,0.2-0.4,0.3-0.6,0.3h-5.9c-0.2,0-0.5-0.1-0.6-0.3
					c-0.2-0.2-0.3-0.4-0.3-0.6v-18.6c0-3.9-0.9-6.9-2.7-8.8c-1.8-1.9-4.4-2.9-7.9-2.9c-2.1,0-3.8,0.3-5.2,1
					c-1.4,0.7-2.4,1.6-3.2,2.7c-0.8,1.1-1.3,2.4-1.7,3.8c-0.3,1.4-0.5,2.8-0.5,4.2V343c0,0.2-0.1,0.5-0.3,0.6
					c-0.2,0.2-0.4,0.3-0.6,0.3h-5.9c-0.2,0-0.5-0.1-0.6-0.3c-0.2-0.2-0.3-0.4-0.3-0.6v-51.4c0-0.2,0.1-0.5,0.3-0.6
					c0.2-0.2,0.4-0.3,0.6-0.3h5.9c0.2,0,0.5,0.1,0.6,0.3c0.2,0.2,0.3,0.4,0.3,0.6l0,16.2c2.9-1.9,6.4-2.8,10.5-2.8
					c2.8,0,5.4,0.5,7.7,1.4c2.3,0.9,4.2,2.2,5.8,3.9c1.6,1.7,2.8,3.7,3.6,6.1c0.8,2.4,1.3,5.1,1.3,8.1V343
					C126.5,343.3,126.4,343.5,126.3,343.7L126.3,343.7z M168.1,343.7c-0.2,0.2-0.4,0.3-0.6,0.3h-5.9c-0.2,0-0.5-0.1-0.6-0.3
					c-0.2-0.2-0.3-0.4-0.3-0.6v-1.9c-2.9,1.9-6.4,2.9-10.5,2.9c-2.8,0-5.3-0.4-7.6-1.3c-2.2-0.9-4.2-2.1-5.8-3.8
					c-1.6-1.7-2.8-3.7-3.7-6.1c-0.9-2.4-1.3-5.1-1.3-8.2c0-3,0.4-5.8,1.3-8.2c0.8-2.4,2.1-4.5,3.7-6.1c1.6-1.7,3.5-3,5.8-3.8
					c2.3-0.9,4.8-1.3,7.6-1.3c2,0,3.9,0.2,5.7,0.7c1.8,0.5,3.4,1.2,4.8,2.1v-1.9c0-0.2,0.1-0.5,0.3-0.6c0.2-0.2,0.4-0.3,0.6-0.3h5.9
					c0.2,0,0.5,0.1,0.6,0.3c0.2,0.2,0.3,0.4,0.3,0.6V343C168.4,343.3,168.3,343.5,168.1,343.7L168.1,343.7z M158,315.6
					c-1.8-1.9-4.4-2.9-7.9-2.9c-7,0-10.6,3.9-10.6,11.7c0,7.8,3.5,11.7,10.6,11.7c3.4,0,6-1,7.8-2.9c1.8-1.9,2.7-4.9,2.7-8.8
					C160.6,320.4,159.7,317.5,158,315.6L158,315.6z M183.2,343.7c-0.2,0.2-0.4,0.3-0.6,0.3h-5.9c-0.2,0-0.5-0.1-0.6-0.3
					c-0.2-0.2-0.3-0.4-0.3-0.6v-37.1c0-0.2,0.1-0.5,0.3-0.6c0.2-0.2,0.4-0.3,0.6-0.3h5.9c0.2,0,0.5,0.1,0.6,0.3
					c0.2,0.2,0.3,0.4,0.3,0.6V343C183.5,343.3,183.4,343.5,183.2,343.7L183.2,343.7z M227.2,343.7c-0.2,0.2-0.4,0.3-0.6,0.3h-5.9
					c-0.2,0-0.5-0.1-0.6-0.3c-0.2-0.2-0.3-0.4-0.3-0.6v-18.6c0-3.9-0.9-6.9-2.7-8.8c-1.8-1.9-4.4-2.9-7.9-2.9c-2.1,0-3.8,0.3-5.2,1
					c-1.4,0.7-2.4,1.6-3.2,2.7c-0.8,1.1-1.3,2.4-1.7,3.8c-0.3,1.4-0.5,2.8-0.5,4.2V343c0,0.2-0.1,0.5-0.3,0.6
					c-0.2,0.2-0.4,0.3-0.6,0.3h-5.9c-0.2,0-0.5-0.1-0.6-0.3c-0.2-0.2-0.3-0.4-0.3-0.6v-37.1c0-0.2,0.1-0.5,0.3-0.6
					c0.2-0.2,0.4-0.3,0.6-0.3h5.9c0.2,0,0.5,0.1,0.6,0.3c0.2,0.2,0.3,0.4,0.3,0.6l0,1.9c1.5-0.9,3.1-1.6,4.8-2.1
					c1.8-0.5,3.7-0.7,5.7-0.7c2.8,0,5.4,0.5,7.7,1.4c2.3,0.9,4.2,2.2,5.8,3.9c1.6,1.7,2.8,3.7,3.6,6.1c0.8,2.4,1.3,5.1,1.3,8.1V343
					C227.5,343.3,227.4,343.5,227.2,343.7L227.2,343.7z M183.2,298.2c-0.2,0.2-0.4,0.3-0.6,0.3h-6c-0.2,0-0.5-0.1-0.6-0.3
					c-0.2-0.2-0.3-0.4-0.3-0.6v-5.9c0-0.2,0.1-0.5,0.3-0.6c0.2-0.2,0.4-0.3,0.6-0.3h6c0.2,0,0.5,0.1,0.6,0.3
					c0.2,0.2,0.3,0.4,0.3,0.6v5.9C183.5,297.8,183.4,298.1,183.2,298.2L183.2,298.2z M183.2,298.2c-0.2,0.2-0.4,0.3-0.6,0.3h-6
					c-0.2,0-0.5-0.1-0.6-0.3c-0.2-0.2-0.3-0.4-0.3-0.6v-5.9c0-0.2,0.1-0.5,0.3-0.6c0.2-0.2,0.4-0.3,0.6-0.3h6c0.2,0,0.5,0.1,0.6,0.3
					c0.2,0.2,0.3,0.4,0.3,0.6v5.9C183.5,297.8,183.4,298.1,183.2,298.2L183.2,298.2z M242.4,343.7c-0.2,0.2-0.4,0.3-0.6,0.3h-6
					c-0.2,0-0.5-0.1-0.6-0.3c-0.2-0.2-0.3-0.4-0.3-0.6v-5.9c0-0.2,0.1-0.5,0.3-0.6c0.2-0.2,0.4-0.3,0.6-0.3h6c0.2,0,0.5,0.1,0.6,0.3
					c0.2,0.2,0.3,0.4,0.3,0.6v5.9C242.7,343.3,242.6,343.5,242.4,343.7L242.4,343.7z"/>
			</defs>
			<linearGradient id="SVGID_2_" gradientUnits="userSpaceOnUse" x1="145.4531" y1="345.667" x2="145.4531" y2="73.6672">
				<stop  offset="0" style="stop-color:#4EC3D1"/>
				<stop  offset="1" style="stop-color:#009BC5"/>
			</linearGradient>
			<use xlink:href="#SVGID_1_"  overflow="visible" fill="url(#SVGID_2_)"/>
			<clipPath id="SVGID_3_">
				<use xlink:href="#SVGID_1_"  overflow="visible"/>
			</clipPath>
		</g>
		<g>
			<defs>
				<path id="SVGID_4_" d="M281.5,316.1c-0.2,0.3-0.5,0.4-0.8,0.4h-6.8c-0.3,0-0.6-0.1-0.7-0.4c-0.8-1.2-2-2-3.4-2.6
					c-1.4-0.6-3.1-0.9-5-0.9c-7.1,0-10.6,3.9-10.6,11.8c0,7.8,3.6,11.8,10.6,11.8c1.9,0,3.6-0.3,5-0.9c1.4-0.6,2.6-1.5,3.4-2.6
					c0.2-0.2,0.4-0.4,0.7-0.4h6.8c0.3,0,0.6,0.1,0.8,0.4c0.2,0.3,0.2,0.6,0,0.9c-1.5,3.5-3.7,6.1-6.5,7.8c-2.9,1.7-6.3,2.6-10.3,2.6
					c-2.8,0-5.4-0.4-7.7-1.3c-2.3-0.9-4.2-2.2-5.8-3.8c-1.6-1.7-2.8-3.7-3.7-6.2c-0.9-2.4-1.3-5.2-1.3-8.3c0-3.1,0.4-5.8,1.3-8.2
					c0.8-2.4,2.1-4.5,3.7-6.2c1.6-1.7,3.5-3,5.8-3.9c2.3-0.9,4.8-1.3,7.7-1.3c4,0,7.5,0.9,10.4,2.6c2.9,1.7,5,4.3,6.4,7.8
					C281.7,315.6,281.7,315.9,281.5,316.1L281.5,316.1z M320.9,332.7c-0.9,2.4-2.1,4.5-3.7,6.2c-1.6,1.7-3.5,3-5.8,3.8
					c-2.3,0.9-4.8,1.3-7.6,1.3c-2.8,0-5.4-0.4-7.7-1.3c-2.3-0.9-4.2-2.2-5.8-3.8c-1.6-1.7-2.8-3.7-3.7-6.2c-0.9-2.4-1.3-5.2-1.3-8.3
					c0-3.1,0.4-5.8,1.3-8.2c0.8-2.4,2.1-4.5,3.7-6.2c1.6-1.7,3.5-3,5.8-3.9c2.3-0.9,4.8-1.3,7.7-1.3c2.9,0,5.4,0.4,7.7,1.3
					c2.3,0.9,4.2,2.2,5.8,3.9c1.6,1.7,2.8,3.7,3.7,6.2c0.8,2.4,1.3,5.2,1.3,8.2C322.2,327.5,321.8,330.3,320.9,332.7L320.9,332.7z
					 M311.7,315.6c-1.8-1.9-4.5-2.9-7.9-2.9c-7.1,0-10.6,3.9-10.6,11.8c0,7.8,3.6,11.8,10.6,11.8c3.5,0,6.1-1,7.9-2.9
					c1.8-1.9,2.7-4.9,2.7-8.9C314.4,320.4,313.5,317.5,311.7,315.6L311.7,315.6z M376.9,343.8c-0.2,0.2-0.4,0.3-0.6,0.3h-6
					c-0.2,0-0.5-0.1-0.6-0.3c-0.2-0.2-0.3-0.4-0.3-0.6v-23.8c0-0.9-0.2-1.7-0.5-2.5c-0.4-0.8-0.8-1.5-1.4-2.1
					c-0.6-0.6-1.3-1.1-2.1-1.5c-0.8-0.4-1.7-0.6-2.6-0.6c-0.9,0-1.8,0.2-2.6,0.5c-0.8,0.4-1.5,0.8-2.1,1.4c-0.6,0.6-1.1,1.3-1.4,2.1
					c-0.4,0.8-0.5,1.7-0.5,2.6v23.8c0,0.2-0.1,0.5-0.3,0.6c-0.2,0.2-0.4,0.3-0.6,0.3h-6c-0.2,0-0.5-0.1-0.6-0.3
					c-0.2-0.2-0.3-0.4-0.3-0.6v-23.8c0-0.9-0.2-1.7-0.5-2.5c-0.4-0.8-0.8-1.5-1.4-2.1c-0.6-0.6-1.3-1.1-2.1-1.5
					c-0.8-0.4-1.7-0.6-2.6-0.6c-0.9,0-1.8,0.2-2.6,0.5c-0.8,0.4-1.5,0.8-2.1,1.4c-0.6,0.6-1.1,1.3-1.4,2.1c-0.4,0.8-0.5,1.7-0.5,2.6
					v23.8c0,0.2-0.1,0.5-0.3,0.6c-0.2,0.2-0.4,0.3-0.6,0.3h-6c-0.2,0-0.5-0.1-0.6-0.3c-0.2-0.2-0.3-0.4-0.3-0.6v-37.3
					c0-0.2,0.1-0.5,0.3-0.6c0.2-0.2,0.4-0.3,0.6-0.3h6c0.2,0,0.5,0.1,0.6,0.3c0.2,0.2,0.3,0.4,0.3,0.6v0.7c1-0.5,2-0.9,3.2-1.2
					c1.1-0.3,2.3-0.4,3.5-0.4c2.1,0,4.1,0.4,5.8,1.1c1.7,0.7,3.3,1.9,4.8,3.5c1.4-1.4,3-2.5,4.9-3.4s3.7-1.2,5.7-1.2
					c2,0,3.8,0.4,5.6,1.2c1.8,0.8,3.3,1.8,4.6,3.1c1.3,1.3,2.4,2.8,3.1,4.6c0.8,1.8,1.2,3.6,1.2,5.6v23.8
					C377.2,343.4,377.1,343.6,376.9,343.8L376.9,343.8z"/>
			</defs>
			<linearGradient id="SVGID_5_" gradientUnits="userSpaceOnUse" x1="311.7456" y1="345.667" x2="311.7456" y2="73.6671">
				<stop  offset="0" style="stop-color:#4EC3D1"/>
				<stop  offset="1" style="stop-color:#009BC5"/>
			</linearGradient>
			<use xlink:href="#SVGID_4_"  overflow="visible" fill="url(#SVGID_5_)"/>
			<clipPath id="SVGID_6_">
				<use xlink:href="#SVGID_4_"  overflow="visible"/>
			</clipPath>
		</g>
	</g>
	<g>
		<defs>
			<path id="SVGID_7_" d="M223.1,247.6l-2.7,5.6h84.4c3.4,0,7.5-2.5,9-5.5l40.5-78.9c1.6-3,1.6-8,0-11.1L314,79
				c-1.6-3-5.6-5.5-9-5.5h-81.2c-3.4,0-7.5,2.5-9.1,5.5l-40.4,78.7c-1.6,3-1.6,8,0,11.1l14.4,28.1l3.3,6.4l7.1-13.1l4.1-7.6l0,0
				l3-5.5l-2.7-5.3l0,0c0-0.1-0.1-0.1-0.1-0.2l-1.4-2.7c-1.6-3-1.6-8,0-11.1l27.7-54c1.6-3,5.6-5.5,9.1-5.5h51.2
				c3.4,0,7.5,2.5,9.1,5.5l27.7,54c1.6,3,1.6,8,0,11.1l-27.7,54c-1.6,3-5.6,5.5-9.1,5.5h-57.4l-6.1,12.4L223.1,247.6L223.1,247.6
				L223.1,247.6z M70.9,168.9l40.4,78.7c1.6,3,5.6,5.5,9.1,5.5h81.2c3.4,0,7.5-2.5,9-5.5l40.4-78.7c1.6-3,1.6-8,0-11.1l-11.7-22.7
				l0,0l-6-11.8l-7.1,13.1l-4.1,7.6l-3,5.5l3,5.8v0l1.3,2.5c1.6,3,1.6,8,0,11.1l-27.7,54c-1.6,3-5.6,5.5-9.1,5.5h-51.2
				c-3.4,0-7.5-2.5-9.1-5.5l-27.7-54c-1.6-3-1.6-8,0-11.1l27.7-54c1.6-3,5.6-5.5,9.1-5.5h57.4l2.7-5.6l0,0l3.3-6.9l6.1-12.4h-84.4
				c-3.4,0-7.5,2.5-9,5.5l-40.5,78.9C69.3,160.9,69.3,165.9,70.9,168.9L70.9,168.9z"/>
		</defs>
		<linearGradient id="SVGID_8_" gradientUnits="userSpaceOnUse" x1="212.5982" y1="345.6673" x2="212.5982" y2="73.6658">
			<stop  offset="0" style="stop-color:#4EC3D1"/>
			<stop  offset="1" style="stop-color:#009BC5"/>
		</linearGradient>
		<use xlink:href="#SVGID_7_"  overflow="visible" fill="url(#SVGID_8_)"/>
		<clipPath id="SVGID_9_">
			<use xlink:href="#SVGID_7_"  overflow="visible"/>
		</clipPath>
	</g>
</g>
</svg>
