<?xml version="1.0" encoding="utf-8"?>
<!-- Generator: Adobe Illustrator 19.0.1, SVG Export Plug-In . SVG Version: 6.00 Build 0)  -->
<svg version="1.1" id="Layer_1" xmlns="http://www.w3.org/2000/svg" xmlns:xlink="http://www.w3.org/1999/xlink" x="0px" y="0px"
	 viewBox="0 0 10.5 10.2" enable-background="new 0 0 10.5 10.2" xml:space="preserve">
<g>
	<path fill="#FFFFFF" d="M10,5.1c0,2-1.3,3.9-3.3,4.6c-0.2,0-0.3,0-0.3-0.2V8.1c0-0.4-0.1-0.7-0.3-0.9c0.9-0.1,1.7-0.4,2-1.3
		c0.3-0.8,0.3-1.7-0.3-2.4c0.2-0.4,0.1-0.8,0-1.3C7.4,2.2,6.9,2.5,6.6,2.6L6.4,2.8C5.6,2.6,4.8,2.6,4,2.8C3.7,2.6,3.1,2.2,2.7,2.3
		c-0.2,0.5-0.2,0.9,0,1.3C2,4.2,2,5.1,2.3,5.9c0.3,0.9,1.1,1.2,2,1.3C4.2,7.4,4.1,7.6,4,7.9C3.5,8.1,2.9,8,2.6,7.5
		C2.5,7.2,2.3,7,2,7L1.9,7C1.6,7,1.6,7.1,1.8,7.2l0,0c0.2,0.1,0.4,0.3,0.5,0.6L2.4,8c0.2,0.6,0.9,0.7,1.5,0.6l0.1,0
		c0,0.3,0.2,1.2-0.3,1.1C0.1,8.5-0.7,3.6,2.3,1.3C5.4-1.1,10,1.2,10,5.1z"/>
</g>
</svg>
