<svg xmlns="http://www.w3.org/2000/svg" xmlns:xlink="http://www.w3.org/1999/xlink" viewBox="0 0 442.61 327.68"><defs><style>.a{opacity:0.25;}.b{fill:#fff;}.c{fill:#151515;}.d{fill:url(#a);}.e{fill:#c5c3c5;}</style><linearGradient id="a" x1="271.75" y1="98.16" x2="271.75" y2="120.16" gradientUnits="userSpaceOnUse"><stop offset="0.03" stop-color="#e6e4e6"/><stop offset="1" stop-color="#d3d1d3"/></linearGradient></defs><title>hero-pip-install-blockstack-outline</title><g class="a"><path class="b" d="M65.48,168.22A3.5,3.5,0,1,1,69,164.72,3.5,3.5,0,0,1,65.48,168.22Zm0-6.2a2.71,2.71,0,1,0,2.71,2.71A2.71,2.71,0,0,0,65.48,162Z" transform="translate(-1 -1)"/><path class="b" d="M100.72,216.3l-0.2.12a3.17,3.17,0,0,1-.9.36l-0.22.05,7.68,19.07,0.2-.12a3.12,3.12,0,0,1,.9-0.36l0.22-.05Z" transform="translate(-1 -1)"/><path class="b" d="M119.81,266.92l0.2-.12a3.14,3.14,0,0,1,.89-0.37l0.22-.05-10.31-25.07-0.09-.21-0.2.12a3.17,3.17,0,0,1-.89.37l-0.22.05,10.31,25.07Z" transform="translate(-1 -1)"/><path class="b" d="M120.79,272.82l0.1-.21-0.22-.07a3.1,3.1,0,0,1-.86-0.44l-0.19-.14-11.34,22.71,0.22,0.07a3.16,3.16,0,0,1,.85.43l0.19,0.13Z" transform="translate(-1 -1)"/><path class="b" d="M105.91,237.41l-48.74-6.09-0.23,0v0.32a3.11,3.11,0,0,1-.12.87l-0.06.22,48.74,6.09,0.23,0V238.5a3.11,3.11,0,0,1,.12-0.87Z" transform="translate(-1 -1)"/><path class="b" d="M111.71,237l0.11,0.2L129,224.51l0.19-.14-0.16-.16a3.15,3.15,0,0,1-.58-0.77l-0.11-.2L111.15,236l-0.19.14,0.16,0.16A3.15,3.15,0,0,1,111.71,237Z" transform="translate(-1 -1)"/><path class="b" d="M111.94,239.43l-0.08.22a3.16,3.16,0,0,1-.47.84l-0.14.18L156,266.4l0.2,0.12,0.08-.22a3.18,3.18,0,0,1,.47-0.84l0.14-.18-44.73-25.74Z" transform="translate(-1 -1)"/><path class="b" d="M68.34,165.41l-0.05.23a3.16,3.16,0,0,1-.36.89l-0.12.2,40.62,17,0.21,0.09,0.05-.23a3.18,3.18,0,0,1,.36-0.9l0.12-.2-40.62-17Z" transform="translate(-1 -1)"/><path class="b" d="M7.68,287.09a2.74,2.74,0,0,1,0,.46l0,0.23,48.25-.31,0-.23a2.87,2.87,0,0,1,0-.5,2.76,2.76,0,0,1,0-.46l0-.23-48.25.3,0,0.23A2.71,2.71,0,0,1,7.68,287.09Z" transform="translate(-1 -1)"/><path class="b" d="M110.4,299.13l-0.11.2a3.19,3.19,0,0,1-.6.76l-0.17.16,22.34,17.53,0.11-.2a3.17,3.17,0,0,1,.6-0.76l0.17-.16-22.16-17.39Z" transform="translate(-1 -1)"/><path class="b" d="M60.22,289.64a3.11,3.11,0,0,1-.93.26l-0.23,0,5.21,19.29,0.06,0.23,0.21-.1a3.12,3.12,0,0,1,.93-0.26l0.23,0-5.27-19.51Z" transform="translate(-1 -1)"/><path class="b" d="M104.33,297.77l0-.23a3.06,3.06,0,0,1,.22-0.94l0.09-.22-42.31-9.6-0.22-.05,0,0.23a3.06,3.06,0,0,1-.22.94l-0.09.22,42.31,9.6Z" transform="translate(-1 -1)"/><path class="b" d="M105.25,300l-0.16-.17L89.67,320.18l-0.14.18,0.2,0.11a3.2,3.2,0,0,1,.76.59l0.16,0.17,15.41-20.38,0.14-.18-0.2-.11A3.18,3.18,0,0,1,105.25,300Z" transform="translate(-1 -1)"/><path class="b" d="M141.55,295.7c0-.1,0-0.21,0-0.31l0-.23-30.79,1.71h-0.23l0.05,0.23a2.9,2.9,0,0,1,.08.65c0,0.1,0,.21,0,0.31l0,0.23,30.79-1.71h0.23l-0.05-.23A2.9,2.9,0,0,1,141.55,295.7Z" transform="translate(-1 -1)"/><path class="b" d="M61.47,284.83L61.6,285l19-19.51,0.16-.16-0.19-.13a3.19,3.19,0,0,1-.69-0.67l-0.14-.18L60.58,284l0.19,0.13A3.15,3.15,0,0,1,61.47,284.83Z" transform="translate(-1 -1)"/><path class="b" d="M56.82,289.1l-0.17-.15L39,315.81l0.21,0.1a3.16,3.16,0,0,1,.81.53l0.17,0.15,17.62-26.87-0.21-.1A3.11,3.11,0,0,1,56.82,289.1Z" transform="translate(-1 -1)"/><path class="b" d="M40.88,269.23a3.18,3.18,0,0,1-.66.71l-0.18.14,16.15,15.07,0.13-.19a3.21,3.21,0,0,1,.66-0.71l0.18-.14L41,269Z" transform="translate(-1 -1)"/><path class="b" d="M53.77,235.11a3.5,3.5,0,1,1,3.5-3.5A3.5,3.5,0,0,1,53.77,235.11Zm0-6.2a2.71,2.71,0,1,0,2.71,2.71A2.71,2.71,0,0,0,53.77,228.91Z" transform="translate(-1 -1)"/><path class="b" d="M38.26,270.94a3.5,3.5,0,1,1,3.5-3.49A3.5,3.5,0,0,1,38.26,270.94Zm0-6.2A2.71,2.71,0,1,0,41,267.45,2.71,2.71,0,0,0,38.26,264.74Z" transform="translate(-1 -1)"/><path class="b" d="M4.5,290.58A3.5,3.5,0,1,1,8,287.09,3.5,3.5,0,0,1,4.5,290.58Zm0-6.2a2.71,2.71,0,1,0,2.71,2.71A2.71,2.71,0,0,0,4.5,284.38Z" transform="translate(-1 -1)"/><path class="b" d="M37.92,322.28a3.5,3.5,0,1,1,3.5-3.49A3.5,3.5,0,0,1,37.92,322.28Zm0-6.2a2.71,2.71,0,1,0,2.71,2.71A2.71,2.71,0,0,0,37.92,316.08Z" transform="translate(-1 -1)"/><path class="b" d="M58.94,290.24a3.5,3.5,0,1,1,3.5-3.5A3.5,3.5,0,0,1,58.94,290.24Zm0-6.2a2.71,2.71,0,1,0,2.71,2.71A2.71,2.71,0,0,0,58.94,284Z" transform="translate(-1 -1)"/><path class="b" d="M82.37,266.12a3.5,3.5,0,1,1,3.5-3.49A3.5,3.5,0,0,1,82.37,266.12Zm0-6.2a2.71,2.71,0,1,0,2.71,2.71A2.71,2.71,0,0,0,82.37,259.92Z" transform="translate(-1 -1)"/><path class="b" d="M108.9,242a3.5,3.5,0,1,1,3.5-3.5A3.5,3.5,0,0,1,108.9,242Zm0-6.2a2.71,2.71,0,1,0,2.71,2.71A2.71,2.71,0,0,0,108.9,235.8Z" transform="translate(-1 -1)"/><path class="b" d="M98.91,217.19a3.5,3.5,0,1,1,3.5-3.49A3.5,3.5,0,0,1,98.91,217.19Zm0-6.2a2.71,2.71,0,1,0,2.71,2.71A2.71,2.71,0,0,0,98.91,211Z" transform="translate(-1 -1)"/><path class="b" d="M131.3,225.46a3.5,3.5,0,1,1,3.5-3.49A3.5,3.5,0,0,1,131.3,225.46Zm0-6.2A2.71,2.71,0,1,0,134,222,2.71,2.71,0,0,0,131.3,219.26Z" transform="translate(-1 -1)"/><path class="b" d="M121.65,273a3.5,3.5,0,1,1,3.49-3.49A3.5,3.5,0,0,1,121.65,273Zm0-6.2a2.71,2.71,0,1,0,2.71,2.71A2.71,2.71,0,0,0,121.65,266.81Z" transform="translate(-1 -1)"/><path class="b" d="M107.52,301.26a3.5,3.5,0,1,1,3.5-3.49A3.5,3.5,0,0,1,107.52,301.26Zm0-6.2a2.71,2.71,0,1,0,2.71,2.71A2.71,2.71,0,0,0,107.52,295.06Z" transform="translate(-1 -1)"/><path class="b" d="M88.23,326.76a3.5,3.5,0,1,1,3.5-3.5A3.5,3.5,0,0,1,88.23,326.76Zm0-6.2a2.71,2.71,0,1,0,2.71,2.71A2.71,2.71,0,0,0,88.23,320.56Z" transform="translate(-1 -1)"/><path class="b" d="M65.83,315.74a3.5,3.5,0,1,1,3.5-3.49A3.5,3.5,0,0,1,65.83,315.74Zm0-6.2a2.71,2.71,0,1,0,2.71,2.71A2.71,2.71,0,0,0,65.83,309.53Z" transform="translate(-1 -1)"/><path class="b" d="M134.74,322.63a3.5,3.5,0,1,1,3.5-3.5A3.5,3.5,0,0,1,134.74,322.63Zm0-6.2a2.71,2.71,0,1,0,2.71,2.71A2.71,2.71,0,0,0,134.74,316.42Z" transform="translate(-1 -1)"/><path class="b" d="M144.74,299.2a3.5,3.5,0,1,1,3.49-3.5A3.5,3.5,0,0,1,144.74,299.2Zm0-6.2a2.71,2.71,0,1,0,2.71,2.71A2.71,2.71,0,0,0,144.74,293Z" transform="translate(-1 -1)"/><path class="b" d="M116.92,147.49h-0.23a3.09,3.09,0,0,1-1-.13l-0.22-.07-4.27,34,0,0.23h0.23a3.09,3.09,0,0,1,1,.13l0.22,0.07,4.27-34Z" transform="translate(-1 -1)"/><path class="b" d="M109.83,187.36l-0.2-.13L99.52,210.44l-0.09.21,0.22,0.06a3.18,3.18,0,0,1,.88.39l0.2,0.13L110.85,188l0.09-.21-0.22-.06A3.18,3.18,0,0,1,109.83,187.36Z" transform="translate(-1 -1)"/><path class="b" d="M114.4,183.34a3.08,3.08,0,0,1,.28.92l0,0.23,21.17-6.17-0.1-.21a3.08,3.08,0,0,1-.28-0.92l0-.23-21.17,6.17Z" transform="translate(-1 -1)"/><path class="b" d="M114.21,186.35a3.24,3.24,0,0,1-.63.74l-0.17.15,21.2,18.17,0.12-.2a3.24,3.24,0,0,1,.63-0.74l0.17-.15-21.2-18.17Z" transform="translate(-1 -1)"/><path class="b" d="M116.82,147.81a3.5,3.5,0,1,1,3.27-3.71A3.5,3.5,0,0,1,116.82,147.81Zm-0.39-6.19a2.71,2.71,0,1,0,2.87,2.53A2.71,2.71,0,0,0,116.43,141.62Z" transform="translate(-1 -1)"/><path class="b" d="M111.74,188.17a3.5,3.5,0,1,1,3.27-3.71A3.5,3.5,0,0,1,111.74,188.17ZM111.36,182a2.71,2.71,0,1,0,2.87,2.53A2.71,2.71,0,0,0,111.36,182Z" transform="translate(-1 -1)"/><path class="b" d="M137.64,210.38a3.5,3.5,0,1,1,3.27-3.71A3.5,3.5,0,0,1,137.64,210.38Zm-0.39-6.19a2.71,2.71,0,1,0,2.87,2.53A2.71,2.71,0,0,0,137.25,204.19Z" transform="translate(-1 -1)"/><path class="b" d="M232.77,7.1l-0.2.12a3.17,3.17,0,0,1-.9.36l-0.22.05,7.68,19.07,0.2-.12a3.12,3.12,0,0,1,.9-0.36l0.22-.05Z" transform="translate(-1 -1)"/><path class="b" d="M251.86,57.72l0.2-.12a3.14,3.14,0,0,1,.89-0.37l0.22-.05L242.87,32.11l-0.09-.21-0.2.12a3.17,3.17,0,0,1-.89.37l-0.22.05,10.31,25.07Z" transform="translate(-1 -1)"/><path class="b" d="M252.84,63.62l0.1-.21-0.22-.07a3.1,3.1,0,0,1-.86-0.44l-0.19-.14L240.33,85.48l0.22,0.07a3.16,3.16,0,0,1,.85.43l0.19,0.13Z" transform="translate(-1 -1)"/><path class="b" d="M243.76,27.83l0.11,0.2,17.23-12.72,0.19-.14L261.11,15a3.15,3.15,0,0,1-.58-0.77l-0.11-.2L243.2,26.76l-0.19.14,0.16,0.16A3.15,3.15,0,0,1,243.76,27.83Z" transform="translate(-1 -1)"/><path class="b" d="M299,21.47h-0.23a3.09,3.09,0,0,1-.95-0.19l-0.22-.08-6.38,33.65,0,0.23h0.23a3.09,3.09,0,0,1,.95.19l0.22,0.08,6.38-33.65Z" transform="translate(-1 -1)"/><path class="b" d="M244,30.23l-0.08.22a3.16,3.16,0,0,1-.47.84l-0.14.18L288,57.21l0.2,0.12,0.08-.22a3.18,3.18,0,0,1,.47-0.84l0.14-.18L244.18,30.35Z" transform="translate(-1 -1)"/><path class="b" d="M137.28,81a3,3,0,0,1-.95.09l-0.23,0L139,114.26l0,0.23,0.23-.06a2.75,2.75,0,0,1,1-.09l0.23,0-2.92-33.45Z" transform="translate(-1 -1)"/><path class="b" d="M289.4,60.82l-0.19-.14L277.67,83.21l-0.1.2,0.22,0.07a3.18,3.18,0,0,1,.86.45l0.19,0.14,11.54-22.53,0.1-.2-0.22-.07A3.18,3.18,0,0,1,289.4,60.82Z" transform="translate(-1 -1)"/><path class="b" d="M133.41,77.32l0.06-.22a3.19,3.19,0,0,1,.38-0.89L134,76l-18.22-7.81-0.21-.09-0.06.22a3.2,3.2,0,0,1-.38.89l-0.12.2,18.22,7.81Z" transform="translate(-1 -1)"/><path class="b" d="M134,79.76l-0.14-.18L120.47,93l-0.16.16,0.18,0.14a3.18,3.18,0,0,1,.68.68l0.14,0.18,13.38-13.38,0.16-.16-0.18-.14A3.21,3.21,0,0,1,134,79.76Z" transform="translate(-1 -1)"/><path class="b" d="M139.72,77.89a2.74,2.74,0,0,1,0,.46l0,0.23,48.25-.31,0-.23a2.87,2.87,0,0,1,0-.5,2.76,2.76,0,0,1,0-.46l0-.23-48.25.3,0,0.23A2.71,2.71,0,0,1,139.72,77.89Z" transform="translate(-1 -1)"/><path class="b" d="M242.45,89.93l-0.11.2a3.19,3.19,0,0,1-.6.76l-0.17.16,22.34,17.53,0.11-.2a3.17,3.17,0,0,1,.6-0.76l0.17-.16L242.63,90.07Z" transform="translate(-1 -1)"/><path class="b" d="M294.2,57.09a3.08,3.08,0,0,1,.22.94l0,0.23L316,53.42l-0.09-.22a3.08,3.08,0,0,1-.22-0.94l0-.23-21.51,4.84Z" transform="translate(-1 -1)"/><path class="b" d="M192.26,80.44a3.11,3.11,0,0,1-.93.26l-0.23,0L196.32,100l0.06,0.23,0.21-.1a3.12,3.12,0,0,1,.93-0.26l0.23,0-5.27-19.51Z" transform="translate(-1 -1)"/><path class="b" d="M236.38,88.58l0-.23a3.06,3.06,0,0,1,.22-0.94l0.09-.22-42.31-9.6-0.22-.05,0,0.23a3.06,3.06,0,0,1-.22.94l-0.09.22,42.31,9.6Z" transform="translate(-1 -1)"/><path class="b" d="M237.29,90.78l-0.16-.17-18.32,46.24-0.14.18,0.2,0.11a3.2,3.2,0,0,1,.76.59l0.16,0.17,18.31-46.25,0.14-.18-0.2-.11A3.18,3.18,0,0,1,237.29,90.78Z" transform="translate(-1 -1)"/><path class="b" d="M273.6,86.5c0-.1,0-0.21,0-0.31l0-.23-30.79,1.71h-0.23l0.05,0.23a2.9,2.9,0,0,1,.08.65c0,0.1,0,.21,0,0.31l0,0.23L273.5,87.4h0.23l-0.05-.23A2.9,2.9,0,0,1,273.6,86.5Z" transform="translate(-1 -1)"/><path class="b" d="M293.83,60.08a3.24,3.24,0,0,1-.67.7l-0.18.14,20,19.46,0.13-.19a3.24,3.24,0,0,1,.67-0.7l0.18-.14L294,59.9Z" transform="translate(-1 -1)"/><path class="b" d="M193.51,75.64l0.14,0.18,19-19.51,0.16-.16L212.58,56a3.19,3.19,0,0,1-.69-0.67l-0.14-.18L192.63,74.83,192.82,75A3.15,3.15,0,0,1,193.51,75.64Z" transform="translate(-1 -1)"/><path class="b" d="M188.86,79.9l-0.17-.15-17.62,26.87,0.21,0.1a3.16,3.16,0,0,1,.81.53l0.17,0.15,17.62-26.87-0.21-.1A3.11,3.11,0,0,1,188.86,79.9Z" transform="translate(-1 -1)"/><path class="b" d="M112.42,71a3.5,3.5,0,1,1,3.5-3.49A3.5,3.5,0,0,1,112.42,71Zm0-6.2a2.71,2.71,0,1,0,2.71,2.71A2.71,2.71,0,0,0,112.42,64.85Z" transform="translate(-1 -1)"/><path class="b" d="M237.93,29.82l0-.23a3.19,3.19,0,0,1,0-1l0-.23L218.08,29h-0.23l0,0.23a3.2,3.2,0,0,1,0,1l0,0.23,19.81-.56h0.23Z" transform="translate(-1 -1)"/><path class="b" d="M216.24,32.94a3.5,3.5,0,1,1,1.7-4.64A3.5,3.5,0,0,1,216.24,32.94Zm-2.6-5.63a2.71,2.71,0,1,0,3.59,1.32A2.71,2.71,0,0,0,213.64,27.31Z" transform="translate(-1 -1)"/><path class="b" d="M118.62,99.3a3.5,3.5,0,1,1,3.5-3.5A3.5,3.5,0,0,1,118.62,99.3Zm0-6.2a2.71,2.71,0,1,0,2.71,2.71A2.71,2.71,0,0,0,118.62,93.1Z" transform="translate(-1 -1)"/><path class="b" d="M136.54,81.38a3.5,3.5,0,1,1,3.5-3.49A3.5,3.5,0,0,1,136.54,81.38Zm0-6.2a2.71,2.71,0,1,0,2.71,2.71A2.71,2.71,0,0,0,136.54,75.18Z" transform="translate(-1 -1)"/><path class="b" d="M346.4,277.61l-0.23,0,2.78,32,0.22-.05a3.16,3.16,0,0,1,1-.09l0.23,0-2.78-32-0.22.06A3.11,3.11,0,0,1,346.4,277.61Z" transform="translate(-1 -1)"/><path class="b" d="M352.1,315.37a3.5,3.5,0,1,1,.58-4.91A3.5,3.5,0,0,1,352.1,315.37Zm-3.84-4.87a2.71,2.71,0,1,0,3.8.45A2.71,2.71,0,0,0,348.26,310.5Z" transform="translate(-1 -1)"/><path class="b" d="M191,81a3.5,3.5,0,1,1,3.5-3.5A3.5,3.5,0,0,1,191,81Zm0-6.2a2.71,2.71,0,1,0,2.71,2.71A2.71,2.71,0,0,0,191,74.84Z" transform="translate(-1 -1)"/><path class="b" d="M214.41,56.92a3.5,3.5,0,1,1,3.5-3.49A3.5,3.5,0,0,1,214.41,56.92Zm0-6.2a2.71,2.71,0,1,0,2.71,2.71A2.71,2.71,0,0,0,214.41,50.72Z" transform="translate(-1 -1)"/><path class="b" d="M240.94,32.8a3.5,3.5,0,1,1,3.5-3.5A3.5,3.5,0,0,1,240.94,32.8Zm0-6.2a2.71,2.71,0,1,0,2.71,2.71A2.71,2.71,0,0,0,240.94,26.6Z" transform="translate(-1 -1)"/><path class="b" d="M231,8a3.5,3.5,0,1,1,3.5-3.49A3.5,3.5,0,0,1,231,8Zm0-6.2a2.71,2.71,0,1,0,2.71,2.71A2.71,2.71,0,0,0,231,1.79Z" transform="translate(-1 -1)"/><path class="b" d="M263.34,16.26a3.5,3.5,0,1,1,3.5-3.49A3.5,3.5,0,0,1,263.34,16.26Zm0-6.2A2.71,2.71,0,1,0,266,12.77,2.71,2.71,0,0,0,263.34,10.06Z" transform="translate(-1 -1)"/><path class="b" d="M298.83,21.78a3.5,3.5,0,1,1,3.5-3.5A3.5,3.5,0,0,1,298.83,21.78Zm0-6.2a2.71,2.71,0,1,0,2.71,2.71A2.71,2.71,0,0,0,298.83,15.57Z" transform="translate(-1 -1)"/><path class="b" d="M318.82,55.54A3.5,3.5,0,1,1,322.31,52,3.5,3.5,0,0,1,318.82,55.54Zm0-6.2A2.71,2.71,0,1,0,321.52,52,2.71,2.71,0,0,0,318.82,49.34Z" transform="translate(-1 -1)"/><path class="b" d="M291.25,61.74a3.5,3.5,0,1,1,3.5-3.49A3.5,3.5,0,0,1,291.25,61.74Zm0-6.2A2.71,2.71,0,1,0,294,58.25,2.71,2.71,0,0,0,291.25,55.54Z" transform="translate(-1 -1)"/><path class="b" d="M253.69,63.81a3.5,3.5,0,1,1,3.49-3.49A3.5,3.5,0,0,1,253.69,63.81Zm0-6.2a2.71,2.71,0,1,0,2.71,2.71A2.71,2.71,0,0,0,253.69,57.61Z" transform="translate(-1 -1)"/><path class="b" d="M239.57,92.07a3.5,3.5,0,1,1,3.5-3.49A3.5,3.5,0,0,1,239.57,92.07Zm0-6.2a2.71,2.71,0,1,0,2.71,2.71A2.71,2.71,0,0,0,239.57,85.86Z" transform="translate(-1 -1)"/><path class="b" d="M197.87,106.54a3.5,3.5,0,1,1,3.5-3.49A3.5,3.5,0,0,1,197.87,106.54Zm0-6.2a2.71,2.71,0,1,0,2.71,2.71A2.71,2.71,0,0,0,197.87,100.34Z" transform="translate(-1 -1)"/><path class="b" d="M276.78,90a3.5,3.5,0,1,1,3.49-3.5A3.5,3.5,0,0,1,276.78,90Zm0-6.2a2.71,2.71,0,1,0,2.71,2.71A2.71,2.71,0,0,0,276.78,83.8Z" transform="translate(-1 -1)"/><path class="b" d="M315.72,85.52a3.5,3.5,0,1,1,3.5-3.49A3.5,3.5,0,0,1,315.72,85.52Zm0-6.2A2.71,2.71,0,1,0,318.42,82,2.71,2.71,0,0,0,315.72,79.32Z" transform="translate(-1 -1)"/><path class="b" d="M420.24,118H420a3.09,3.09,0,0,1-.95-0.19l-0.22-.08-6.38,33.65,0,0.23h0.23a3.09,3.09,0,0,1,.95.19l0.22,0.08,6.38-33.65Z" transform="translate(-1 -1)"/><path class="b" d="M321.68,52.73l-0.05.23a3.16,3.16,0,0,1-.36.89l-0.12.2,40.62,17L362,71.09l0.05-.23a3.18,3.18,0,0,1,.36-0.9l0.12-.2-40.62-17Z" transform="translate(-1 -1)"/><path class="b" d="M415.5,153.61a3.08,3.08,0,0,1,.22.94l0,0.23,21.51-4.84-0.09-.22a3.08,3.08,0,0,1-.22-0.94l0-.23-21.51,4.84Z" transform="translate(-1 -1)"/><path class="b" d="M415.13,156.6a3.24,3.24,0,0,1-.67.7l-0.18.14,20,19.46,0.13-.19a3.24,3.24,0,0,1,.67-0.7l0.18-.14-20-19.46Z" transform="translate(-1 -1)"/><path class="b" d="M317.45,105.2a3.5,3.5,0,1,1,3.5-3.49A3.5,3.5,0,0,1,317.45,105.2Zm0-6.2a2.71,2.71,0,1,0,2.71,2.71A2.71,2.71,0,0,0,317.45,99Z" transform="translate(-1 -1)"/><path class="b" d="M352.25,104.51a3.5,3.5,0,1,1,3.5-3.49A3.5,3.5,0,0,1,352.25,104.51Zm0-6.2A2.71,2.71,0,1,0,355,101,2.71,2.71,0,0,0,352.25,98.31Z" transform="translate(-1 -1)"/><path class="b" d="M420.13,118.3a3.5,3.5,0,1,1,3.5-3.5A3.5,3.5,0,0,1,420.13,118.3Zm0-6.2a2.71,2.71,0,1,0,2.71,2.71A2.71,2.71,0,0,0,420.13,112.09Z" transform="translate(-1 -1)"/><path class="b" d="M440.11,152.06a3.5,3.5,0,1,1,3.49-3.49A3.5,3.5,0,0,1,440.11,152.06Zm0-6.2a2.71,2.71,0,1,0,2.71,2.71A2.71,2.71,0,0,0,440.11,145.86Z" transform="translate(-1 -1)"/><path class="b" d="M412.55,158.26a3.5,3.5,0,1,1,3.5-3.49A3.5,3.5,0,0,1,412.55,158.26Zm0-6.2a2.71,2.71,0,1,0,2.71,2.71A2.71,2.71,0,0,0,412.55,152.06Z" transform="translate(-1 -1)"/><path class="b" d="M437,182a3.5,3.5,0,1,1,3.5-3.49A3.5,3.5,0,0,1,437,182Zm0-6.2a2.71,2.71,0,1,0,2.71,2.71A2.71,2.71,0,0,0,437,175.84Z" transform="translate(-1 -1)"/><path class="b" d="M370.26,34.82H370a3.09,3.09,0,0,1-1-.13l-0.22-.07-4.27,34,0,0.23h0.23a3.09,3.09,0,0,1,1,.13L366,69l4.27-34Z" transform="translate(-1 -1)"/><path class="b" d="M363.17,74.69l-0.2-.13L352.86,97.77l-0.09.21L353,98a3.18,3.18,0,0,1,.88.39l0.2,0.13,10.11-23.21,0.09-.21-0.22-.06A3.18,3.18,0,0,1,363.17,74.69Z" transform="translate(-1 -1)"/><path class="b" d="M367.74,70.67a3.08,3.08,0,0,1,.28.92l0,0.23,21.17-6.17-0.1-.21a3.08,3.08,0,0,1-.28-0.92l0-.23-21.17,6.17Z" transform="translate(-1 -1)"/><path class="b" d="M367.55,73.68a3.24,3.24,0,0,1-.63.74l-0.17.15L388,92.74l0.12-.2a3.24,3.24,0,0,1,.63-0.74l0.17-.15-21.2-18.17Z" transform="translate(-1 -1)"/><path class="b" d="M370.16,35.13a3.5,3.5,0,1,1,3.27-3.71A3.5,3.5,0,0,1,370.16,35.13Zm-0.39-6.19a2.71,2.71,0,1,0,2.87,2.53A2.71,2.71,0,0,0,369.77,28.94Z" transform="translate(-1 -1)"/><path class="b" d="M392.21,67.59a3.5,3.5,0,1,1,3.27-3.71A3.5,3.5,0,0,1,392.21,67.59Zm-0.39-6.19a2.71,2.71,0,1,0,2.87,2.53A2.71,2.71,0,0,0,391.82,61.4Z" transform="translate(-1 -1)"/><path class="b" d="M365.08,75.49a3.5,3.5,0,1,1,3.27-3.71A3.5,3.5,0,0,1,365.08,75.49ZM364.7,69.3a2.71,2.71,0,1,0,2.87,2.53A2.71,2.71,0,0,0,364.7,69.3Z" transform="translate(-1 -1)"/><path class="b" d="M391,97.7A3.5,3.5,0,1,1,394.25,94,3.5,3.5,0,0,1,391,97.7Zm-0.39-6.19A2.71,2.71,0,1,0,393.46,94,2.71,2.71,0,0,0,390.59,91.51Z" transform="translate(-1 -1)"/><path class="b" d="M307.13,322.19a3.5,3.5,0,1,1-4.8,1.19A3.5,3.5,0,0,1,307.13,322.19Zm-3.21,5.31a2.71,2.71,0,1,0-.92-3.72A2.71,2.71,0,0,0,303.93,327.5Z" transform="translate(-1 -1)"/><path class="b" d="M344.09,276.88l-0.16-.17-14.35,20.07-0.14.19,0.21,0.1a2.73,2.73,0,0,1,.78.57l0.16,0.17,14.34-20.08,0.14-.19-0.21-.1A2.84,2.84,0,0,1,344.09,276.88Z" transform="translate(-1 -1)"/><path class="b" d="M272.46,297.68l-0.08-.22-12.07,6.4-0.2.11,0.14,0.19a3.2,3.2,0,0,1,.46.85l0.08,0.22,12.27-6.5-0.14-.19A3.2,3.2,0,0,1,272.46,297.68Z" transform="translate(-1 -1)"/><path class="b" d="M278.19,298.27l-0.13.19a3.1,3.1,0,0,1-.67.69l-0.19.14,25.23,24.06,0.17,0.16,0.13-.19a3.1,3.1,0,0,1,.67-0.69l0.19-.14-25.23-24.06Z" transform="translate(-1 -1)"/><path class="b" d="M307.15,322.15a3.5,3.5,0,1,1-4.8,1.19A3.5,3.5,0,0,1,307.15,322.15Zm-3.2,5.31a2.71,2.71,0,1,0-.92-3.72A2.71,2.71,0,0,0,303.94,327.46Z" transform="translate(-1 -1)"/><path class="b" d="M259.51,303.06a3.5,3.5,0,1,1-4.8,1.19A3.5,3.5,0,0,1,259.51,303.06Zm-3.2,5.31a2.71,2.71,0,1,0-.92-3.72A2.71,2.71,0,0,0,256.3,308.37Z" transform="translate(-1 -1)"/><path class="b" d="M277.26,293.65a3.5,3.5,0,1,1-4.8,1.19A3.5,3.5,0,0,1,277.26,293.65Zm-3.2,5.31a2.71,2.71,0,1,0-.92-3.71A2.71,2.71,0,0,0,274.06,299Z" transform="translate(-1 -1)"/><path class="b" d="M330,296.92a3.5,3.5,0,1,1-4.8,1.19A3.5,3.5,0,0,1,330,296.92Zm-3.2,5.31a2.71,2.71,0,1,0-.92-3.71A2.71,2.71,0,0,0,326.82,302.23Z" transform="translate(-1 -1)"/><path class="b" d="M137.26,74.61a3,3,0,0,1,.86.42l0.19,0.14L153,45.23l0.1-.21L152.87,45a2.75,2.75,0,0,1-.86-0.42l-0.19-.14L137,74.55Z" transform="translate(-1 -1)"/><path class="b" d="M155.63,38.94a3.5,3.5,0,1,1-4.8,1.19A3.5,3.5,0,0,1,155.63,38.94Zm-3.2,5.31a2.71,2.71,0,1,0-.92-3.71A2.71,2.71,0,0,0,152.42,44.25Z" transform="translate(-1 -1)"/></g><path class="c" d="M131.75,120.55h280a0,0,0,0,1,0,0v173a4,4,0,0,1-4,4h-272a4,4,0,0,1-4-4v-173A0,0,0,0,1,131.75,120.55Z"/><path class="d" d="M135.75,98.16h272a4,4,0,0,1,4,4v18a0,0,0,0,1,0,0h-280a0,0,0,0,1,0,0v-18A4,4,0,0,1,135.75,98.16Z"/><path d="M247.07,116.42a2.21,2.21,0,0,1-1.66-.61,2.32,2.32,0,0,1-.59-1.69V109.6h-1v-1h1v-1.4l1.39-.13v1.53h2v1h-2v4.26a1.25,1.25,0,0,0,1.3,1.51,3,3,0,0,0,.67-0.09v1A4.3,4.3,0,0,1,247.07,116.42Z" transform="translate(-1 -1)"/><path d="M255.88,116a8.5,8.5,0,0,1-2.4.42,3.65,3.65,0,0,1-2.77-1.13,4.08,4.08,0,0,1-1.07-2.93,4.28,4.28,0,0,1,.95-2.87,3,3,0,0,1,2.42-1.12,2.56,2.56,0,0,1,2.16,1,4.54,4.54,0,0,1,.76,2.82v0.43h-4.85q0.3,2.74,2.68,2.74a6.41,6.41,0,0,0,2.14-.47V116Zm-4.76-4.42h3.39q0-2.15-1.6-2.15T251.12,111.57Z" transform="translate(-1 -1)"/><path d="M258.38,116.25v-7.69h1.39V110a2.61,2.61,0,0,1,2.41-1.61,2.94,2.94,0,0,1,.45,0v1.3a2,2,0,0,0-.64-0.12,2.58,2.58,0,0,0-2.22,1.57v5.07h-1.39Z" transform="translate(-1 -1)"/><path d="M264.37,116.25v-7.69h1.39V110a3,3,0,0,1,2.62-1.61,2.1,2.1,0,0,1,2.1,1.61,3,3,0,0,1,2.58-1.62,2.06,2.06,0,0,1,1.58.6,2.36,2.36,0,0,1,.56,1.67v5.59h-1.4v-5.37a1.06,1.06,0,0,0-1-1.32,3.17,3.17,0,0,0-2.27,1.54v5.15h-1.4v-5.37a1.07,1.07,0,0,0-1.06-1.32,3.2,3.2,0,0,0-2.26,1.54v5.15h-1.39Z" transform="translate(-1 -1)"/><path d="M278,107.16v-1.39h1.39v1.39H278Zm0,9.08v-7.69h1.39v7.69H278Z" transform="translate(-1 -1)"/><path d="M282.21,116.25v-7.69h1.39V110a3.22,3.22,0,0,1,2.71-1.61,2.08,2.08,0,0,1,1.59.63,2.39,2.39,0,0,1,.59,1.7v5.52h-1.39v-5.07a2.23,2.23,0,0,0-.25-1.22,0.94,0.94,0,0,0-.83-0.36,3.09,3.09,0,0,0-2.42,1.68v5h-1.39Z" transform="translate(-1 -1)"/><path d="M295.23,115.27a3.66,3.66,0,0,1-2.41,1.15,2.21,2.21,0,0,1-1.59-.6,2,2,0,0,1-.63-1.51,2.16,2.16,0,0,1,1.06-1.94,5.65,5.65,0,0,1,3-.68H295v-0.93a1.2,1.2,0,0,0-1.37-1.34,5.14,5.14,0,0,0-2.39.68V109a7,7,0,0,1,2.64-.57,2.68,2.68,0,0,1,1.9.58,2.38,2.38,0,0,1,.61,1.81v3.48q0,1.2.74,1.2l0.27,0,0.1,0.77a2.39,2.39,0,0,1-1,.23A1.25,1.25,0,0,1,295.23,115.27Zm-0.21-.76v-2h-0.47a3.5,3.5,0,0,0-1.86.44,1.3,1.3,0,0,0-.71,1.14,1.14,1.14,0,0,0,.35.85,1.19,1.19,0,0,0,.86.35A2.91,2.91,0,0,0,295,114.51Z" transform="translate(-1 -1)"/><path d="M299.34,116.25V105.07h1.39v11.18h-1.39Z" transform="translate(-1 -1)"/><path class="b" d="M154.58,149.55a5.67,5.67,0,0,0-1.06-.64,3.06,3.06,0,0,0-1.24-.22,1.76,1.76,0,0,0-1,.27,0.88,0.88,0,0,0-.38.75,0.71,0.71,0,0,0,.36.61,4.92,4.92,0,0,0,.9.46l1.18,0.45a6.49,6.49,0,0,1,1.18.57,3.18,3.18,0,0,1,.9.82,2,2,0,0,1,.36,1.22,2.34,2.34,0,0,1-.73,1.74,3.57,3.57,0,0,1-2,.9v2.35h-1.28v-2.32a5.6,5.6,0,0,1-1.65-.42,5.5,5.5,0,0,1-1.41-.84l0.83-1.26a7.7,7.7,0,0,0,1.39.75,4,4,0,0,0,1.54.29,2,2,0,0,0,1.16-.29,0.91,0.91,0,0,0,.39-0.77,0.83,0.83,0,0,0-.36-0.69,4.29,4.29,0,0,0-.9-0.5q-0.54-.23-1.17-0.46a6.57,6.57,0,0,1-1.17-.57,3.29,3.29,0,0,1-.9-0.81,1.91,1.91,0,0,1-.36-1.19,2.21,2.21,0,0,1,.7-1.7,3.36,3.36,0,0,1,1.9-.82v-2.1H153v2.08a3.82,3.82,0,0,1,1.45.43,5,5,0,0,1,1.1.83Z" transform="translate(-1 -1)"/><path class="b" d="M169.94,157.71v2.46h-1.86v-11h1.52l0.14,0.9h0a4.72,4.72,0,0,1,1.18-.78,3.11,3.11,0,0,1,1.34-.31,3.2,3.2,0,0,1,1.37.28,2.71,2.71,0,0,1,1,.81,3.81,3.81,0,0,1,.62,1.26,5.86,5.86,0,0,1,.22,1.65,5.23,5.23,0,0,1-.29,1.8,4,4,0,0,1-.78,1.33,3.44,3.44,0,0,1-1.12.82,3.11,3.11,0,0,1-1.3.29,2.85,2.85,0,0,1-1.11-.24,3.57,3.57,0,0,1-1-.69Zm0-2.69a2.58,2.58,0,0,0,.89.56,2.53,2.53,0,0,0,.82.16,1.75,1.75,0,0,0,1.41-.68,3.13,3.13,0,0,0,.56-2,3.33,3.33,0,0,0-.43-1.84,1.54,1.54,0,0,0-1.39-.66,2.09,2.09,0,0,0-.91.22,3.44,3.44,0,0,0-.94.72V155Z" transform="translate(-1 -1)"/><path class="b" d="M177.78,149.21H183v7.86h-1.84v-6.4h-3.41v-1.46Zm4.19-1.38a1.36,1.36,0,0,1-.94-0.34,1.14,1.14,0,0,1-.38-0.9,1.17,1.17,0,0,1,.38-0.9,1.46,1.46,0,0,1,1.88,0,1.18,1.18,0,0,1,.37.9,1.15,1.15,0,0,1-.37.9A1.35,1.35,0,0,1,182,147.83Z" transform="translate(-1 -1)"/><path class="b" d="M189.26,157.71v2.46h-1.86v-11h1.52l0.14,0.9h0a4.72,4.72,0,0,1,1.18-.78,3.11,3.11,0,0,1,1.34-.31,3.2,3.2,0,0,1,1.37.28,2.71,2.71,0,0,1,1,.81,3.81,3.81,0,0,1,.62,1.26,5.86,5.86,0,0,1,.22,1.65,5.23,5.23,0,0,1-.29,1.8,4,4,0,0,1-.78,1.33,3.44,3.44,0,0,1-1.12.82,3.11,3.11,0,0,1-1.3.29,2.85,2.85,0,0,1-1.11-.24,3.57,3.57,0,0,1-1-.69Zm0-2.69a2.58,2.58,0,0,0,.89.56,2.53,2.53,0,0,0,.82.16,1.75,1.75,0,0,0,1.41-.68,3.13,3.13,0,0,0,.56-2,3.33,3.33,0,0,0-.43-1.84,1.54,1.54,0,0,0-1.39-.66,2.09,2.09,0,0,0-.91.22,3.44,3.44,0,0,0-.94.72V155Z" transform="translate(-1 -1)"/><path class="b" d="M206.77,149.21H212v7.86h-1.84v-6.4h-3.41v-1.46Zm4.19-1.38a1.36,1.36,0,0,1-.94-0.34,1.14,1.14,0,0,1-.38-0.9,1.17,1.17,0,0,1,.38-0.9,1.46,1.46,0,0,1,1.88,0,1.18,1.18,0,0,1,.37.9,1.15,1.15,0,0,1-.37.9A1.35,1.35,0,0,1,211,147.83Z" transform="translate(-1 -1)"/><path class="b" d="M216.4,149.21h1.52l0.14,1.18h0.06a6.38,6.38,0,0,1,1.24-1A3,3,0,0,1,221,149a2.37,2.37,0,0,1,2,.82,3.78,3.78,0,0,1,.64,2.36v4.86h-1.85v-4.62a2.36,2.36,0,0,0-.33-1.4,1.34,1.34,0,0,0-1.14-.44,1.93,1.93,0,0,0-1,.27,5.21,5.21,0,0,0-1,.83v5.36H216.4v-7.86Z" transform="translate(-1 -1)"/><path class="b" d="M226.61,154.87a6.13,6.13,0,0,0,1.4.73,4.79,4.79,0,0,0,1.64.26,2.69,2.69,0,0,0,1.36-.26,0.78,0.78,0,0,0,.43-0.68,0.82,0.82,0,0,0-.56-0.7,10,10,0,0,0-1.76-.6,9.22,9.22,0,0,1-1.09-.35,4.7,4.7,0,0,1-.93-0.48,2.38,2.38,0,0,1-.64-0.62,1.39,1.39,0,0,1-.24-0.8,2,2,0,0,1,.9-1.7,4.31,4.31,0,0,1,2.58-.66,5.08,5.08,0,0,1,1.81.32,7.41,7.41,0,0,1,1.46.72l-0.85,1.14a5.24,5.24,0,0,0-1.13-.57,3.73,3.73,0,0,0-1.27-.22,2.41,2.41,0,0,0-1.28.25,0.73,0.73,0,0,0-.37.62,0.52,0.52,0,0,0,.17.38,1.57,1.57,0,0,0,.46.3,6.21,6.21,0,0,0,.7.26c0.27,0.09.56,0.17,0.88,0.24a10.63,10.63,0,0,1,1.24.39,4.6,4.6,0,0,1,.94.49,2,2,0,0,1,.61.64,1.64,1.64,0,0,1,.22.85,2,2,0,0,1-.24,1,2.28,2.28,0,0,1-.7.77,3.71,3.71,0,0,1-1.15.52,5.91,5.91,0,0,1-1.58.19,6.35,6.35,0,0,1-2.11-.35,7.18,7.18,0,0,1-1.74-.86Z" transform="translate(-1 -1)"/><path class="b" d="M237.46,150.67h-2.1v-1.38l2.18-.08,0.24-2.14h1.52v2.14h3.58v1.46H239.3v3.23a2.14,2.14,0,0,0,.4,1.43,1.81,1.81,0,0,0,1.41.46,4.47,4.47,0,0,0,.93-0.09,5.44,5.44,0,0,0,.8-0.23l0.35,1.34a10.84,10.84,0,0,1-1.17.31,6.55,6.55,0,0,1-1.36.14,4.12,4.12,0,0,1-1.5-.24,2.45,2.45,0,0,1-1-.68,2.69,2.69,0,0,1-.54-1.06,5.27,5.27,0,0,1-.17-1.38v-3.23Z" transform="translate(-1 -1)"/><path class="b" d="M245.22,155a2.2,2.2,0,0,1,.3-1.16,2.41,2.41,0,0,1,1-.86,6.54,6.54,0,0,1,1.68-.58,17.11,17.11,0,0,1,2.48-.32,1.67,1.67,0,0,0-.48-1.1,1.91,1.91,0,0,0-1.39-.43,3.67,3.67,0,0,0-1.32.25,9.9,9.9,0,0,0-1.26.58l-0.67-1.23a10.31,10.31,0,0,1,1.65-.75,5.64,5.64,0,0,1,1.94-.34,3.38,3.38,0,0,1,2.51.87,3.43,3.43,0,0,1,.86,2.52v4.66H251l-0.14-1h0a7,7,0,0,1-1.38.82,3.75,3.75,0,0,1-1.56.34,3.17,3.17,0,0,1-1.06-.17,2.53,2.53,0,0,1-.83-0.47,2.09,2.09,0,0,1-.54-0.73A2.24,2.24,0,0,1,245.22,155Zm1.78-.14a0.82,0.82,0,0,0,.41.77,1.94,1.94,0,0,0,1,.24,2.62,2.62,0,0,0,1.14-.26,5.75,5.75,0,0,0,1.1-.7v-1.66a15.91,15.91,0,0,0-1.76.22,4.42,4.42,0,0,0-1.12.34,1.49,1.49,0,0,0-.59.47A1,1,0,0,0,247,154.81Z" transform="translate(-1 -1)"/><path class="b" d="M254.88,145.77h4.32v8.53a1.38,1.38,0,0,0,.4,1.13,1.53,1.53,0,0,0,1,.33,3.73,3.73,0,0,0,1.34-.3l0.43,1.36q-0.56.19-1,.32a4.69,4.69,0,0,1-1.18.13,2.64,2.64,0,0,1-2.1-.8,3.3,3.3,0,0,1-.7-2.26v-7h-2.48v-1.46Z" transform="translate(-1 -1)"/><path class="b" d="M264.54,145.77h4.32v8.53a1.38,1.38,0,0,0,.4,1.13,1.53,1.53,0,0,0,1,.33,3.73,3.73,0,0,0,1.34-.3l0.43,1.36q-0.56.19-1,.32a4.69,4.69,0,0,1-1.18.13,2.64,2.64,0,0,1-2.1-.8,3.3,3.3,0,0,1-.7-2.26v-7h-2.48v-1.46Z" transform="translate(-1 -1)"/><path class="b" d="M284,145.77h1.86v2.91l-0.06,1.38a4,4,0,0,1,1.15-.76,3.25,3.25,0,0,1,2.64,0,2.83,2.83,0,0,1,1,.8,3.62,3.62,0,0,1,.63,1.26,5.86,5.86,0,0,1,.22,1.65,5.23,5.23,0,0,1-.29,1.8,4,4,0,0,1-.78,1.34,3.39,3.39,0,0,1-1.12.83,3.11,3.11,0,0,1-1.3.29,2.86,2.86,0,0,1-1.17-.27,3.75,3.75,0,0,1-1.12-.78h0l-0.16.86H284v-11.3ZM285.9,155a2.6,2.6,0,0,0,1.73.72,1.74,1.74,0,0,0,1.39-.68,3.13,3.13,0,0,0,.56-2,3.33,3.33,0,0,0-.43-1.84,1.54,1.54,0,0,0-1.39-.66,2.09,2.09,0,0,0-.91.22,3.44,3.44,0,0,0-.94.72V155Z" transform="translate(-1 -1)"/><path class="b" d="M293.53,145.77h4.32v8.53a1.38,1.38,0,0,0,.4,1.13,1.53,1.53,0,0,0,1,.33,3.73,3.73,0,0,0,1.34-.3l0.43,1.36q-0.56.19-1,.32a4.69,4.69,0,0,1-1.18.13,2.64,2.64,0,0,1-2.1-.8,3.3,3.3,0,0,1-.7-2.26v-7h-2.48v-1.46Z" transform="translate(-1 -1)"/><path class="b" d="M302.91,153.15a4.4,4.4,0,0,1,.33-1.74,3.94,3.94,0,0,1,.87-1.3,3.75,3.75,0,0,1,1.26-.81,4.1,4.1,0,0,1,3,0,3.75,3.75,0,0,1,1.26.81,3.94,3.94,0,0,1,.87,1.3,4.8,4.8,0,0,1,0,3.49,3.94,3.94,0,0,1-.87,1.3,3.64,3.64,0,0,1-1.26.8,4.21,4.21,0,0,1-3,0,3.64,3.64,0,0,1-1.26-.8,3.94,3.94,0,0,1-.87-1.3A4.4,4.4,0,0,1,302.91,153.15Zm1.9,0a3,3,0,0,0,.54,1.9,1.94,1.94,0,0,0,3,0,3.6,3.6,0,0,0,0-3.81,1.94,1.94,0,0,0-3,0A3.07,3.07,0,0,0,304.81,153.15Z" transform="translate(-1 -1)"/><path class="b" d="M312.89,153.15a4.06,4.06,0,0,1,.36-1.74,3.86,3.86,0,0,1,1-1.3,4.25,4.25,0,0,1,1.42-.81,5.24,5.24,0,0,1,1.71-.28,4.16,4.16,0,0,1,1.69.32,4.31,4.31,0,0,1,1.22.78l-0.88,1.15a3.85,3.85,0,0,0-.94-0.56,2.86,2.86,0,0,0-2.92.52,2.54,2.54,0,0,0-.74,1.91,2.86,2.86,0,0,0,.19,1.07,2.42,2.42,0,0,0,.54.82,2.32,2.32,0,0,0,.82.53,2.92,2.92,0,0,0,1.06.18,2.88,2.88,0,0,0,1.22-.26,5.51,5.51,0,0,0,1-.61l0.77,1.18a4.58,4.58,0,0,1-1.5.89,5,5,0,0,1-1.68.3,5.26,5.26,0,0,1-1.72-.27,3.91,3.91,0,0,1-1.38-.8,3.66,3.66,0,0,1-.91-1.3A4.4,4.4,0,0,1,312.89,153.15Z" transform="translate(-1 -1)"/><path class="b" d="M322.83,145.77h1.86v7.07h0.06l3.54-3.63h2l-3,3.17,3.38,4.69h-2l-2.46-3.55-1.5,1.5v2h-1.86v-11.3Z" transform="translate(-1 -1)"/><path class="b" d="M332.91,154.87a6.13,6.13,0,0,0,1.4.73,4.79,4.79,0,0,0,1.64.26,2.69,2.69,0,0,0,1.36-.26,0.78,0.78,0,0,0,.43-0.68,0.82,0.82,0,0,0-.56-0.7,10,10,0,0,0-1.76-.6,9.22,9.22,0,0,1-1.09-.35,4.7,4.7,0,0,1-.93-0.48,2.38,2.38,0,0,1-.64-0.62,1.39,1.39,0,0,1-.24-0.8,2,2,0,0,1,.9-1.7A4.31,4.31,0,0,1,336,149a5.08,5.08,0,0,1,1.81.32,7.41,7.41,0,0,1,1.46.72l-0.85,1.14a5.24,5.24,0,0,0-1.13-.57,3.73,3.73,0,0,0-1.27-.22,2.41,2.41,0,0,0-1.28.25,0.73,0.73,0,0,0-.37.62,0.52,0.52,0,0,0,.17.38,1.57,1.57,0,0,0,.46.3,6.21,6.21,0,0,0,.7.26c0.27,0.09.56,0.17,0.88,0.24a10.63,10.63,0,0,1,1.24.39,4.6,4.6,0,0,1,.94.49,2,2,0,0,1,.61.64,1.64,1.64,0,0,1,.22.85,2,2,0,0,1-.24,1,2.28,2.28,0,0,1-.7.77,3.71,3.71,0,0,1-1.15.52,5.91,5.91,0,0,1-1.58.19,6.35,6.35,0,0,1-2.11-.35A7.18,7.18,0,0,1,332,156Z" transform="translate(-1 -1)"/><path class="b" d="M343.76,150.67h-2.1v-1.38l2.18-.08,0.24-2.14h1.52v2.14h3.58v1.46H345.6v3.23a2.14,2.14,0,0,0,.4,1.43,1.81,1.81,0,0,0,1.41.46,4.47,4.47,0,0,0,.93-0.09,5.44,5.44,0,0,0,.8-0.23l0.35,1.34a10.84,10.84,0,0,1-1.17.31,6.55,6.55,0,0,1-1.36.14,4.12,4.12,0,0,1-1.5-.24,2.45,2.45,0,0,1-1-.68,2.69,2.69,0,0,1-.54-1.06,5.27,5.27,0,0,1-.17-1.38v-3.23Z" transform="translate(-1 -1)"/><path class="b" d="M351.52,155a2.2,2.2,0,0,1,.3-1.16,2.41,2.41,0,0,1,1-.86,6.54,6.54,0,0,1,1.68-.58,17.11,17.11,0,0,1,2.48-.32,1.67,1.67,0,0,0-.48-1.1,1.91,1.91,0,0,0-1.39-.43,3.67,3.67,0,0,0-1.32.25,9.9,9.9,0,0,0-1.26.58l-0.67-1.23a10.31,10.31,0,0,1,1.65-.75,5.64,5.64,0,0,1,1.94-.34,3.38,3.38,0,0,1,2.51.87,3.43,3.43,0,0,1,.86,2.52v4.66h-1.5l-0.14-1h0a7,7,0,0,1-1.38.82,3.75,3.75,0,0,1-1.56.34,3.17,3.17,0,0,1-1.06-.17,2.53,2.53,0,0,1-.83-0.47,2.09,2.09,0,0,1-.54-0.73A2.24,2.24,0,0,1,351.52,155Zm1.78-.14a0.82,0.82,0,0,0,.41.77,1.94,1.94,0,0,0,1,.24,2.62,2.62,0,0,0,1.14-.26,5.75,5.75,0,0,0,1.1-.7v-1.66a15.91,15.91,0,0,0-1.76.22,4.42,4.42,0,0,0-1.12.34,1.49,1.49,0,0,0-.59.47A1,1,0,0,0,353.29,154.81Z" transform="translate(-1 -1)"/><path class="b" d="M361.21,153.15a4.06,4.06,0,0,1,.36-1.74,3.86,3.86,0,0,1,1-1.3,4.25,4.25,0,0,1,1.42-.81,5.24,5.24,0,0,1,1.71-.28,4.16,4.16,0,0,1,1.69.32,4.31,4.31,0,0,1,1.22.78l-0.88,1.15a3.85,3.85,0,0,0-.94-0.56,2.86,2.86,0,0,0-2.92.52,2.54,2.54,0,0,0-.74,1.91,2.86,2.86,0,0,0,.19,1.07,2.42,2.42,0,0,0,.54.82,2.32,2.32,0,0,0,.82.53,2.92,2.92,0,0,0,1.06.18,2.88,2.88,0,0,0,1.22-.26,5.51,5.51,0,0,0,1-.61l0.77,1.18a4.58,4.58,0,0,1-1.5.89,5,5,0,0,1-1.68.3,5.26,5.26,0,0,1-1.72-.27,3.91,3.91,0,0,1-1.38-.8,3.66,3.66,0,0,1-.91-1.3A4.4,4.4,0,0,1,361.21,153.15Z" transform="translate(-1 -1)"/><path class="b" d="M371.15,145.77H373v7.07h0.06l3.54-3.63h2l-3,3.17,3.38,4.69h-2l-2.46-3.55L373,155v2h-1.86v-11.3Z" transform="translate(-1 -1)"/><rect class="e" x="131.75" y="119.58" width="280" height="1"/></svg>