<?xml version="1.0" encoding="utf-8"?>
<!-- Generator: Adobe Illustrator 19.2.1, SVG Export Plug-In . SVG Version: 6.00 Build 0)  -->
<svg version="1.1" id="Layer_1" xmlns="http://www.w3.org/2000/svg" xmlns:xlink="http://www.w3.org/1999/xlink" x="0px" y="0px"
	 viewBox="0 0 429 322" style="enable-background:new 0 0 429 322;" xml:space="preserve">
<style type="text/css">
	.st0{fill:#FFFFFF;}
	.st1{opacity:0.2;}
	.st2{fill:#151515;}
	.st3{fill:url(#SVGID_1_);}
	.st4{fill:#C5C3C5;}
</style>
<path class="st0" d="M381.5,232.6c-0.3,0.2-0.7,0.3-1.1,0.4l6.1,19.6c0.3-0.2,0.7-0.3,1.1-0.4L381.5,232.6z"/>
<path class="st0" d="M388,252.2c1.6,0,3,1.3,3.1,2.9c0.1,1.7-1.2,3.2-2.9,3.3c-0.1,0-0.1,0-0.2,0c-1.6,0-3-1.3-3.1-2.9
	c-0.1-1.7,1.2-3.2,2.9-3.3C387.9,252.2,387.9,252.2,388,252.2 M388,250.2c-0.1,0-0.2,0-0.3,0c-1.4,0.1-2.6,0.7-3.5,1.7
	s-1.4,2.4-1.3,3.7c0.2,2.7,2.4,4.8,5.1,4.8c0.1,0,0.2,0,0.3,0c1.4-0.1,2.6-0.7,3.5-1.7s1.4-2.4,1.3-3.7
	C393,252.4,390.7,250.2,388,250.2L388,250.2z"/>
<path class="st0" d="M361,144.1c0.2,0.3,0.4,0.7,0.4,1.1l17-6.4l23-8.7c-0.2-0.3-0.4-0.7-0.4-1.1l-23.5,8.9L361,144.1z"/>
<g class="st1">
	<path class="st0" d="M122.9,89.8l29.1,15.7c0.1-0.4,0.3-0.7,0.6-1.1l-56-30.2c-0.1,0.4-0.3,0.7-0.6,1.1L122.9,89.8z"/>
	<path class="st0" d="M65.9,81.8l24.8-7.1c-0.2-0.4-0.3-0.7-0.3-1.2l-24.4,7l-25,7.2c0.2,0.4,0.3,0.7,0.3,1.2l0,0L65.9,81.8z"/>
	<path class="st0" d="M381.6,226.2c0.2,0.3,0.3,0.7,0.3,1.2l18.1-5.3l18.4-5.4c-0.2-0.4-0.3-0.7-0.3-1.2l-17.3,5.1L381.6,226.2z"/>
	<path class="st0" d="M188.2,280.6l-32.3,17.6c0.3,0.3,0.4,0.7,0.6,1.1l32.3-17.6C188.5,281.3,188.4,280.9,188.2,280.6z"/>
	<path class="st0" d="M50.5,248v25.3c0.1,0,0.3-0.1,0.4-0.1c0.3,0,0.5,0,0.8,0.1V248c-0.1,0-0.3,0.1-0.4,0.1
		C51,248.1,50.7,248.1,50.5,248z"/>
	<path class="st0" d="M151,298l-13.6-8.2l-4.7-2.9c-0.1,0.4-0.3,0.7-0.6,1l5.6,3.4l12.7,7.6C150.6,298.6,150.8,298.3,151,298z"/>
	<path class="st0" d="M128.6,238.4c-0.4-0.2-0.7-0.4-1-0.6l-22.9,35.6l-2.2,3.3c0.4,0.2,0.7,0.4,1,0.7l2.2-3.5L128.6,238.4z"/>
	<path class="st0" d="M53.2,247.2l45.3,31.1c0.2-0.4,0.4-0.7,0.7-1l-45.3-31.2C53.7,246.6,53.5,246.9,53.2,247.2z"/>
	<path class="st0" d="M125.4,32.1c-0.2-0.4-0.3-0.7-0.3-1.1l0,0l-57,14.1c0.2,0.4,0.3,0.7,0.3,1.1l0,0L125.4,32.1z"/>
	<path class="st0" d="M349.5,42.9L285.6,8c-0.1,0.4-0.3,0.7-0.6,1.1l63.9,34.8C349,43.5,349.2,43.2,349.5,42.9z"/>
	<path class="st0" d="M89,69.7l1.9,1.8c0.2-0.3,0.5-0.6,0.8-0.9l-3-2.8L67.8,48.1c-0.2,0.3-0.5,0.6-0.8,0.9L89,69.7z"/>
	<path class="st0" d="M96,71.2l30.8-37.8c-0.4-0.2-0.7-0.5-0.9-0.8L95,70.4C95.4,70.6,95.7,70.9,96,71.2z"/>
	<path class="st0" d="M179.1,84.4c0.3-0.1,0.6-0.2,0.9-0.2c0.1,0,0.2,0,0.3,0L175,52.5c-0.3,0.1-0.6,0.2-0.9,0.2c-0.1,0-0.2,0-0.3,0
		L179.1,84.4z"/>
	<path class="st0" d="M413.2,183.2c-0.4,0.2-0.7,0.3-1.2,0.3l7.9,28.8c0.4-0.2,0.7-0.3,1.2-0.3L413.2,183.2z"/>
	<path class="st0" d="M62.6,286.6l-8.9-8.5c-0.2,0.3-0.5,0.6-0.8,0.9l27,25.6c0.2-0.3,0.5-0.6,0.8-0.9L62.6,286.6z"/>
	<path class="st0" d="M304.8,310.3c-0.1-0.2-0.1-0.4-0.1-0.6s0-0.4,0-0.6l-59.9,4.2c0.1,0.2,0.1,0.4,0.1,0.6s0,0.4,0,0.6
		L304.8,310.3z"/>
	<path class="st0" d="M49.4,242.3l-2-2.2l-34.8-37.5c-0.2,0.3-0.5,0.6-0.9,0.8L48.5,243C48.7,242.8,49,242.5,49.4,242.3z"/>
	<path class="st0" d="M106.9,280.3l-2.4-0.5c0,0.4-0.1,0.8-0.2,1.2l1.3,0.3l21.2,4.7c0-0.4,0.1-0.8,0.3-1.2L106.9,280.3z"/>
	<path class="st0" d="M119.7,118.4l1.8,3c0.3-0.3,0.6-0.5,1-0.6L95.6,75.6c-0.3,0.3-0.6,0.5-1,0.6L119.7,118.4z"/>
	<path class="st0" d="M68.9,188.3l-0.7-28.8L67.5,130c-0.1,0-0.1,0-0.2,0c-0.4,0-0.7,0-1-0.1l0.7,28.9l0.7,29.6
		c0.2,0,0.3-0.1,0.5-0.1C68.4,188.3,68.6,188.3,68.9,188.3z"/>
	<path class="st0" d="M255.8,72.1c0-0.1,0-0.2,0-0.3c0-0.3,0-0.6,0.1-0.9l-38-1.3c0,0.1,0,0.2,0,0.3c0,0.3,0,0.6-0.1,0.9L255.8,72.1
		z"/>
	<path class="st0" d="M64.6,124.9c0.2-0.3,0.5-0.6,0.9-0.8L40.6,90.9c-0.2,0.3-0.5,0.6-0.9,0.8L64.6,124.9z"/>
	<path class="st0" d="M132.7,203.3l25.7-5.9c-0.1-0.3-0.3-0.7-0.3-1.1v-0.1L102.7,209c0.1,0.3,0.3,0.7,0.3,1.1v0.1L132.7,203.3z"/>
	<path class="st0" d="M71.4,192.5c-0.1,0.4-0.3,0.7-0.6,1l13,7.8l13.2,7.9c0.1-0.4,0.3-0.7,0.6-1l-13-7.8L71.4,192.5z"/>
	<path class="st0" d="M68.8,124.2l24-47.9c-0.4-0.1-0.8-0.3-1.1-0.5l-24,47.9C68.1,123.8,68.4,123.9,68.8,124.2z"/>
	<path class="st0" d="M183.3,86.6L212.4,72c-0.2-0.3-0.4-0.7-0.5-1.1l-29.1,14.6C183,85.8,183.2,86.2,183.3,86.6z"/>
	<path class="st0" d="M389.9,93.2c-0.3,0.2-0.7,0.4-1.1,0.5l13.4,32.1c0.3-0.2,0.7-0.4,1.1-0.5l-6.1-14.6L389.9,93.2z"/>
	<path class="st0" d="M358.7,86c0.3-0.1,0.5-0.2,0.8-0.2c0.1,0,0.2,0,0.4,0l-6.8-38c-0.3,0.1-0.6,0.2-0.9,0.2c-0.1,0-0.2,0-0.2,0
		L358.7,86z"/>
	<path class="st0" d="M112.8,124.9l7.7-0.4c0-0.2-0.1-0.4-0.1-0.6s0-0.4,0-0.6l-8.8,0.5L70.2,126c0,0.2,0.1,0.4,0.1,0.6s0,0.4,0,0.6
		L112.8,124.9z"/>
	<path class="st0" d="M110.8,176.2c-0.1,0.4-0.2,0.8-0.4,1.1l44.2,16.9l3.5,1.4c0.1-0.4,0.2-0.8,0.4-1.1l-2.7-1L110.8,176.2z"/>
	<path class="st0" d="M147.2,160.4L110.4,174c0.2,0.3,0.3,0.7,0.4,1.1l36.8-13.6C147.4,161.1,147.3,160.8,147.2,160.4z"/>
	<path class="st0" d="M104.7,176.2l-33.6,13.4c0.2,0.3,0.4,0.7,0.4,1.1l33.6-13.4C104.9,177,104.7,176.6,104.7,176.2z"/>
	<path class="st0" d="M54.7,129.5l9.5-1.7c-0.1-0.3-0.2-0.6-0.2-0.9c0-0.1,0-0.2,0-0.3l-9.7,1.7l-11.3,2c0.1,0.3,0.2,0.6,0.2,0.9
		c0,0.1,0,0.2,0,0.2L54.7,129.5z"/>
	<path class="st0" d="M69.4,129c-0.3,0.3-0.6,0.5-1,0.7L90.5,156l14.8,17.6c0.3-0.3,0.6-0.6,0.9-0.8l-15-17.8L69.4,129z"/>
	<path class="st0" d="M123.1,126.8c-0.4,0-0.8-0.2-1.1-0.4l-14,46c0.4,0,0.8,0.2,1.1,0.4L123.1,126.8z"/>
	<path class="st0" d="M163.9,236l-32.8,47c0.4,0.2,0.7,0.4,1,0.7l32.8-47.1C164.5,236.4,164.2,236.2,163.9,236z"/>
	<path class="st0" d="M101.8,212.7l25.1,21.2c0.2-0.4,0.5-0.7,0.8-0.9l-25.1-21.2C102.4,212.2,102.1,212.5,101.8,212.7z"/>
	<path class="st0" d="M312,262.1l28.5,47.1c0.3-0.3,0.6-0.5,1-0.7l-28.5-47C312.7,261.7,312.4,261.9,312,262.1z"/>
	<path class="st0" d="M311.2,262.3c-0.3,0-0.7,0-1-0.1l-2.8,44.3c0.1,0,0.1,0,0.2,0c0.3,0,0.7,0,1,0.1l2.8-44.3
		C311.3,262.3,311.3,262.3,311.2,262.3z"/>
	<path class="st0" d="M308.4,261c-0.2-0.3-0.4-0.7-0.5-1.1l-3.5,1.7l-46,22.4c0.2,0.3,0.4,0.7,0.5,1.1l45.5-22.1L308.4,261z"/>
	<path class="st0" d="M97,211.6l-43.8,31.1c0.3,0.3,0.5,0.6,0.7,1l43.8-31.1C97.4,212.3,97.2,211.9,97,211.6z"/>
	<path class="st0" d="M37.6,133.6c-0.3-0.3-0.5-0.6-0.6-1l-23,14.1c0.3,0.3,0.5,0.6,0.6,1l6.2-3.7L37.6,133.6z"/>
	<path class="st0" d="M259.5,68.6c0.4,0.1,0.8,0.2,1.1,0.4l1.1-2.9l20.4-55.9c-0.4-0.1-0.8-0.2-1.1-0.4l-19.8,54.1L259.5,68.6z"/>
	<path class="st0" d="M257.2,69l-46-46c-0.2,0.3-0.5,0.6-0.8,0.8l46,46C256.6,69.5,256.9,69.2,257.2,69z"/>
	<path class="st0" d="M211.9,69.2c0.1-0.4,0.3-0.8,0.5-1.1L177,50.4c-0.1,0.4-0.3,0.8-0.5,1.1L211.9,69.2z"/>
	<path class="st0" d="M360.5,147.8l48.4,31.3c0.2-0.4,0.4-0.7,0.7-1l-48.4-31.3C361,147.2,360.8,147.6,360.5,147.8z"/>
	<path class="st0" d="M156.6,103.6l17-50.8c-0.4-0.1-0.8-0.2-1.1-0.4l-0.6,1.7l-16.4,49.1C155.9,103.3,156.2,103.4,156.6,103.6z"/>
	<path class="st0" d="M153.4,103.6c0.3-0.2,0.7-0.3,1.1-0.4l-24.7-69.8c-0.3,0.2-0.7,0.3-1.1,0.4L153.4,103.6z"/>
	<path class="st0" d="M384.2,254.9l-40.5,53.5c0.4,0.1,0.7,0.3,1.1,0.6l40.4-53.3C384.8,255.5,384.5,255.2,384.2,254.9z"/>
	<path class="st0" d="M10.7,197.7l1.4-45.8c-0.1,0-0.2,0-0.3,0.1c-0.3,0-0.6,0-0.9-0.1l-1.4,45.8c0.1,0,0.2,0,0.3-0.1
		C10.2,197.6,10.4,197.7,10.7,197.7z"/>
	<path class="st0" d="M389.2,251l29.4-32l1.1-1.2c-0.3-0.2-0.6-0.5-0.9-0.8l-30.5,33.2C388.6,250.4,388.9,250.6,389.2,251z"/>
	<path class="st0" d="M81,302.4l0.2,1.1c0.1,0,0.2-0.1,0.3-0.1L81,302.4z"/>
	<path class="st0" d="M98.2,279.8c0-0.3,0-0.7,0.1-1L54.1,276c0,0.1,0,0.1,0,0.2c0,0.3,0,0.7-0.1,1l44.2,2.8
		C98.2,280,98.2,279.9,98.2,279.8z"/>
	<path class="st0" d="M37.9,92.1l0.4,9.9l1,26.5c0.2,0,0.3-0.1,0.5-0.1s0.5,0,0.7,0l-1-25.2L39.1,92c-0.3,0.1-0.5,0.2-0.8,0.2
		C38.2,92.1,38,92.1,37.9,92.1z"/>
	<path class="st0" d="M252.7,286.2L252.7,286.2c0-0.5,0-0.8,0.1-1.2l-58.5-5.7v0.1c0,0.4,0,0.8-0.1,1.1L252.7,286.2z"/>
	<path class="st0" d="M236,256.6c-0.3,0.3-0.6,0.5-1,0.7l6.6,9.5l11.8,17c0.3-0.3,0.6-0.5,1-0.7l-11.7-16.8L236,256.6z"/>
	<path class="st0" d="M130.8,32.5l40,16.5c0.1-0.4,0.2-0.8,0.5-1.1l-39.9-16.6C131.2,31.8,131.1,32.1,130.8,32.5z"/>
	<path class="st0" d="M245.6,13.5L211.5,20c0.1,0.3,0.2,0.6,0.2,1c0,0.1,0,0.1,0,0.2l33.8-6.5l34.1-6.5c-0.1-0.3-0.2-0.6-0.2-1
		c0-0.1,0-0.1,0-0.2L245.6,13.5z"/>
	<path class="st0" d="M205.8,22.7l-14.3,11.8L176,47.3c0.3,0.3,0.6,0.6,0.8,0.9l15.6-12.7l14.2-11.7C206.2,23.4,206,23.1,205.8,22.7
		z"/>
	<path class="st0" d="M208.4,24.4l4.7,36.6l0.8,6.1c0.3-0.1,0.5-0.1,0.8-0.2c0.1,0,0.3,0,0.4,0l-0.7-5.5l-4.8-37.2
		c-0.3,0.1-0.5,0.1-0.8,0.2C208.6,24.4,208.5,24.4,208.4,24.4z"/>
	<path class="st0" d="M300.1,79.2l-4.2,2.9c0.3,0.3,0.5,0.6,0.7,1l5.2-3.5l47.9-32.3c-0.3-0.3-0.5-0.6-0.7-1L300.1,79.2z"/>
	<path class="st0" d="M282.5,10.2l10.2,71.1c0.3-0.1,0.5-0.2,0.8-0.2c0.1,0,0.2,0,0.4,0l-10.2-71c-0.3,0.1-0.5,0.2-0.8,0.2
		C282.7,10.3,282.6,10.2,282.5,10.2z"/>
	<path class="st0" d="M63.1,48.7L39.5,86.2c0.4,0.2,0.7,0.4,1,0.7l23.6-37.5C63.7,49.2,63.4,49,63.1,48.7z"/>
	<path class="st0" d="M107.6,178.8c-0.4,0-0.8-0.1-1.2-0.3l-6.5,28.6c0.4,0,0.8,0.1,1.2,0.3L107.6,178.8z"/>
	<path class="st0" d="M404.9,131.4c-0.3,0.1-0.6,0.2-0.9,0.2c-0.1,0-0.2,0-0.3,0l6.9,45.8c0.3-0.1,0.6-0.2,0.9-0.2
		c0.1,0,0.2,0,0.3,0L411,172L404.9,131.4z"/>
	<path class="st0" d="M67.6,188.4l-25.7-54.2c-0.3,0.2-0.7,0.4-1.1,0.5l25.7,54.2C66.8,188.7,67.2,188.5,67.6,188.4z"/>
	<path class="st0" d="M52.5,242.2l15.4-47.6c-0.4-0.1-0.8-0.2-1.1-0.4l-15.4,47.6C51.8,241.9,52.2,242,52.5,242.2z"/>
	<path class="st0" d="M408.8,181.4c-0.1-0.3-0.2-0.5-0.2-0.8c0-0.1,0-0.2,0-0.4l-26.9,3.7l-23.7,3.3c0.1,0.3,0.2,0.5,0.2,0.8
		c0,0.1,0,0.2,0,0.4L382,185L408.8,181.4z"/>
	<path class="st0" d="M166.9,236.7l22.4,40.5c0.3-0.3,0.7-0.5,1-0.6L168,236.1C167.6,236.4,167.3,236.6,166.9,236.7z"/>
	<path class="st0" d="M341.1,246.5c-0.2,0-0.5,0-0.7,0l1.5,61.9c0.2-0.1,0.5-0.1,0.8-0.2c0.1,0,0.3,0,0.4,0l-1.5-61.8
		C341.4,246.5,341.2,246.5,341.1,246.5z"/>
	<path class="st0" d="M381,225.4l20-28.5l9.6-13.7c-0.4-0.2-0.7-0.4-1-0.7l-8.9,12.7l-20.6,29.5C380.4,224.9,380.7,225.1,381,225.4z
		"/>
	<path class="st0" d="M304.8,308.8c0.1-0.4,0.3-0.8,0.5-1.1l-25.7-11.6l-20.6-9.4c-0.1,0.4-0.3,0.8-0.5,1.1l19.9,9.1L304.8,308.8z"
		/>
	<path class="st0" d="M339.7,311.6c0-0.4,0-0.8,0.2-1.2l-28.9-1.3c0,0.1,0,0.2,0,0.3c0,0.3,0,0.6-0.1,0.9L339.7,311.6z"/>
	<path class="st0" d="M65.4,192.5c-0.1-0.3-0.2-0.6-0.2-0.9c0-0.1,0-0.2,0-0.3L13,199.8c0.1,0.3,0.2,0.6,0.2,0.9c0,0.1,0,0.2,0,0.3
		L65.4,192.5z"/>
	<path class="st0" d="M231.4,256.5c-0.3-0.3-0.5-0.6-0.6-1l-37.2,22.1c0.3,0.3,0.5,0.6,0.6,1L231.4,256.5z"/>
	<path class="st0" d="M166.1,236.8c-0.4,0-0.8-0.1-1.2-0.2l-11.5,60.3c0.4,0,0.8,0.1,1.2,0.2L166.1,236.8z"/>
	<path class="st0" d="M130.4,282.8v-44.3c-0.1,0-0.3,0.1-0.4,0.1c-0.3,0-0.5,0-0.8-0.1v44.3c0.1,0,0.3-0.1,0.4-0.1
		C129.8,282.7,130.1,282.7,130.4,282.8z"/>
	<path class="st0" d="M66.2,189l-51.8-38.8c-0.2,0.4-0.4,0.7-0.7,1L65.5,190C65.7,189.6,65.9,189.3,66.2,189z"/>
	<path class="st0" d="M101.9,276.5l-1-42.5l-0.5-20.6c-0.2,0-0.3,0.1-0.5,0.1s-0.5,0-0.7,0l0.5,21l1,42.1c0.1,0,0.2-0.1,0.4-0.1
		C101.4,276.4,101.7,276.5,101.9,276.5z"/>
	<path class="st0" d="M84.8,304.2l6.3-9l9-12.7c-0.4-0.2-0.7-0.4-1-0.7L88.3,297l-4.6,6.5C84.2,303.7,84.6,303.9,84.8,304.2z"/>
	<path class="st0" d="M126.7,286.6l-41.6,18c0.2,0.3,0.4,0.7,0.5,1.1l41.6-18C127,287.4,126.8,287,126.7,286.6z"/>
	<path class="st0" d="M255,288.9c-0.4-0.1-0.8-0.3-1.1-0.5l-11.4,22.8c0.4,0.1,0.8,0.3,1.1,0.5L255,288.9z"/>
	<path class="st0" d="M193.4,281.8l45.4,31.2c0.2-0.4,0.4-0.7,0.7-1l-45.4-31.2C193.9,281.2,193.7,281.5,193.4,281.8z"/>
	<path class="st0" d="M40,128.4c1.6,0,3,1.3,3.1,2.9c0.1,1.7-1.2,3.2-2.9,3.3c-0.1,0-0.1,0-0.2,0c-1.6,0-3-1.3-3.1-2.9
		c-0.1-1.7,1.2-3.2,2.9-3.3C39.9,128.4,39.9,128.4,40,128.4 M40,126.4c-0.1,0-0.2,0-0.3,0c-1.4,0.1-2.6,0.7-3.5,1.7
		c-0.9,1-1.4,2.4-1.3,3.6c0.2,2.7,2.4,4.7,5,4.7c0.1,0,0.2,0,0.3,0c1.4-0.1,2.6-0.7,3.5-1.7s1.4-2.4,1.3-3.6
		C44.9,128.5,42.7,126.4,40,126.4L40,126.4z"/>
	<path class="st0" d="M11.6,145.8c1.6,0,3,1.3,3.1,2.9c0.1,1.7-1.2,3.2-2.9,3.3c-0.1,0-0.1,0-0.2,0c-1.6,0-3-1.3-3.1-2.9
		c-0.1-1.7,1.2-3.2,2.9-3.3C11.5,145.8,11.6,145.8,11.6,145.8 M11.6,143.8c-0.1,0-0.2,0-0.3,0c-1.4,0.1-2.6,0.7-3.5,1.7
		s-1.4,2.4-1.3,3.6c0.2,2.7,2.4,4.7,5,4.7c0.1,0,0.2,0,0.3,0c1.4-0.1,2.6-0.7,3.5-1.7s1.4-2.4,1.3-3.6
		C16.5,145.9,14.3,143.8,11.6,143.8L11.6,143.8z"/>
	<path class="st0" d="M38.1,85.9c1.6,0,3,1.3,3.1,2.9c0.1,1.7-1.2,3.2-2.9,3.3c-0.1,0-0.1,0-0.2,0c-1.6,0-3-1.3-3.1-2.9
		c-0.1-1.7,1.2-3.2,2.9-3.3C37.9,85.9,38,85.9,38.1,85.9 M38.1,83.9c-0.1,0-0.2,0-0.3,0c-2.8,0.2-4.9,2.6-4.7,5.4
		c0.2,2.7,2.4,4.7,5,4.7c0.1,0,0.2,0,0.3,0c2.8-0.2,4.9-2.6,4.7-5.4C43,86,40.8,83.9,38.1,83.9L38.1,83.9z"/>
	<path class="st0" d="M65.2,43.3c1.6,0,3,1.3,3.1,2.9c0.1,1.7-1.2,3.2-2.9,3.3c-0.1,0-0.1,0-0.2,0c-1.6,0-3-1.3-3.1-2.9
		c-0.1-1.7,1.2-3.2,2.9-3.3C65.1,43.3,65.2,43.3,65.2,43.3 M65.2,41.3c-0.1,0-0.2,0-0.3,0c-2.8,0.2-4.9,2.6-4.7,5.4
		c0.2,2.7,2.4,4.7,5,4.7c0.1,0,0.2,0,0.3,0c2.8-0.2,4.9-2.6,4.7-5.4C70.1,43.5,67.9,41.3,65.2,41.3L65.2,41.3z"/>
	<path class="st0" d="M93.5,70.1c1.6,0,3,1.3,3.1,2.9c0.1,1.7-1.2,3.2-2.9,3.3c-0.1,0-0.1,0-0.2,0c-1.6,0-3-1.3-3.1-2.9
		c-0.1-1.7,1.2-3.2,2.9-3.3C93.4,70.1,93.5,70.1,93.5,70.1 M93.5,68.2c-0.1,0-0.2,0-0.3,0c-2.8,0.2-4.9,2.6-4.7,5.4
		c0.2,2.7,2.4,4.7,5,4.7c0.1,0,0.2,0,0.3,0c2.8-0.2,4.9-2.6,4.7-5.4C98.5,70.2,96.2,68.2,93.5,68.2L93.5,68.2z"/>
	<path class="st0" d="M128.3,27.6c1.6,0,3,1.3,3.1,2.9c0.1,1.7-1.2,3.2-2.9,3.3c-0.1,0-0.1,0-0.2,0c-1.6,0-3-1.3-3.1-2.9
		c-0.1-1.7,1.2-3.2,2.9-3.3C128.1,27.6,128.2,27.6,128.3,27.6 M128.3,25.7c-0.1,0-0.2,0-0.3,0c-2.8,0.2-4.9,2.6-4.7,5.4
		c0.2,2.7,2.4,4.7,5,4.7c0.1,0,0.2,0,0.3,0c2.8-0.2,4.9-2.6,4.7-5.4C133.1,27.7,130.9,25.7,128.3,25.7L128.3,25.7z"/>
	<path class="st0" d="M342.8,308.4c1.6,0,3,1.3,3.1,2.9c0.1,1.7-1.2,3.2-2.9,3.3c-0.1,0-0.1,0-0.2,0c-1.6,0-3-1.3-3.1-2.9
		c-0.1-1.7,1.2-3.2,2.9-3.3C342.6,308.4,342.7,308.4,342.8,308.4 M342.8,306.4c-0.1,0-0.2,0-0.3,0c-2.8,0.2-4.9,2.6-4.7,5.4
		c0.2,2.7,2.4,4.7,5,4.7c0.1,0,0.2,0,0.3,0c1.4-0.1,2.6-0.7,3.5-1.7s1.4-2.4,1.3-3.6C347.6,308.5,345.5,306.4,342.8,306.4
		L342.8,306.4z"/>
	<path class="st0" d="M241.6,311.2c1.6,0,3,1.3,3.1,2.9c0.1,1.7-1.2,3.2-2.9,3.3c-0.1,0-0.1,0-0.2,0c-1.6,0-3-1.3-3.1-2.9
		c-0.1-1.7,1.2-3.2,2.9-3.3C241.5,311.2,241.5,311.2,241.6,311.2 M241.6,309.2c-0.1,0-0.2,0-0.3,0c-1.4,0.1-2.6,0.7-3.5,1.7
		s-1.4,2.4-1.3,3.6c0.2,2.7,2.4,4.7,5,4.7c0.1,0,0.2,0,0.3,0c1.4-0.1,2.6-0.7,3.5-1.7s1.4-2.4,1.3-3.6
		C246.6,311.3,244.3,309.2,241.6,309.2L241.6,309.2z"/>
	<path class="st0" d="M153.4,297c1.6,0,3,1.3,3.1,2.9c0.1,1.7-1.2,3.2-2.9,3.3c-0.1,0-0.1,0-0.2,0c-1.6,0-3-1.3-3.1-2.9
		c-0.1-1.7,1.2-3.2,2.9-3.3C153.3,297,153.4,297,153.4,297 M153.4,295c-0.1,0-0.2,0-0.3,0c-1.4,0.1-2.6,0.7-3.5,1.7
		s-1.4,2.4-1.3,3.6c0.2,2.7,2.4,4.7,5,4.7c0.1,0,0.2,0,0.3,0c2.8-0.2,4.9-2.6,4.7-5.4C158.3,297.1,156.1,295,153.4,295L153.4,295z"
		/>
	<path class="st0" d="M129.8,282.8c1.6,0,3,1.3,3.1,2.9c0.1,1.7-1.2,3.2-2.9,3.3c-0.1,0-0.1,0-0.2,0c-1.6,0-3-1.3-3.1-2.9
		c-0.1-1.7,1.2-3.2,2.9-3.3C129.6,282.8,129.7,282.8,129.8,282.8 M129.8,280.8c-0.1,0-0.2,0-0.3,0c-2.8,0.2-4.9,2.6-4.7,5.4
		c0.2,2.7,2.4,4.7,5,4.7c0.1,0,0.2,0,0.3,0c2.8-0.2,4.9-2.6,4.7-5.4C134.7,282.9,132.5,280.8,129.8,280.8L129.8,280.8z"/>
	<path class="st0" d="M101.3,276.5c1.6,0,3,1.3,3.1,2.9c0.1,1.7-1.2,3.2-2.9,3.3c-0.1,0-0.1,0-0.2,0c-1.6,0-3-1.3-3.1-2.9
		c-0.1-1.7,1.2-3.2,2.9-3.3C101.2,276.5,101.2,276.5,101.3,276.5 M101.3,274.5c-0.1,0-0.2,0-0.3,0c-2.8,0.2-4.9,2.6-4.7,5.4
		c0.2,2.7,2.4,4.7,5,4.7c0.1,0,0.2,0,0.3,0c1.4-0.1,2.6-0.7,3.5-1.7s1.4-2.4,1.3-3.6C106.3,276.6,104,274.5,101.3,274.5L101.3,274.5
		z"/>
	<path class="st0" d="M214.8,67c1.6,0,3,1.3,3.1,2.9c0.1,1.7-1.2,3.2-2.9,3.3c-0.1,0-0.1,0-0.2,0c-1.6,0-3-1.3-3.1-2.9
		c-0.1-1.7,1.2-3.2,2.9-3.3C214.7,67,214.8,67,214.8,67 M214.8,65c-0.1,0-0.2,0-0.3,0c-2.8,0.2-4.9,2.6-4.7,5.4
		c0.2,2.7,2.4,4.7,5,4.7c0.1,0,0.2,0,0.3,0c2.8-0.2,4.9-2.6,4.7-5.4C219.8,67.1,217.6,65,214.8,65L214.8,65z"/>
	<path class="st0" d="M208.6,18.2c1.6,0,3,1.3,3.1,2.9c0.1,1.7-1.2,3.2-2.9,3.3c-0.1,0-0.1,0-0.2,0c-1.6,0-3-1.3-3.1-2.9
		c-0.1-1.7,1.2-3.2,2.9-3.3C208.4,18.2,208.5,18.2,208.6,18.2 M208.6,16.2c-0.1,0-0.2,0-0.3,0c-2.8,0.2-4.9,2.6-4.7,5.4
		c0.2,2.7,2.4,4.7,5,4.7c0.1,0,0.2,0,0.3,0c2.8-0.2,4.9-2.6,4.7-5.4C213.4,18.3,211.3,16.2,208.6,16.2L208.6,16.2z"/>
	<path class="st0" d="M173.9,46.5c1.6,0,3,1.3,3.1,2.9c0.1,1.7-1.2,3.2-2.9,3.3c-0.1,0-0.1,0-0.2,0c-1.6,0-3-1.3-3.1-2.9
		c-0.1-1.7,1.2-3.2,2.9-3.3C173.8,46.5,173.8,46.5,173.9,46.5 M173.9,44.5c-0.1,0-0.2,0-0.3,0c-2.8,0.2-4.9,2.6-4.7,5.4
		c0.2,2.7,2.4,4.7,5,4.7c0.1,0,0.2,0,0.3,0c2.8-0.2,4.9-2.6,4.7-5.4C178.8,46.7,176.6,44.5,173.9,44.5L173.9,44.5z"/>
	<path class="st0" d="M123.5,120.5c1.6,0,3,1.3,3.1,2.9c0.1,1.7-1.2,3.2-2.9,3.3c-0.1,0-0.1,0-0.2,0c-1.6,0-3-1.3-3.1-2.9
		c-0.1-1.7,1.2-3.2,2.9-3.3C123.3,120.5,123.4,120.5,123.5,120.5 M123.5,118.5c-0.1,0-0.2,0-0.3,0c-2.8,0.2-4.9,2.6-4.7,5.4
		c0.2,2.7,2.4,4.7,5,4.7c0.1,0,0.2,0,0.3,0c2.8-0.2,4.9-2.6,4.7-5.4C128.4,120.6,126.2,118.5,123.5,118.5L123.5,118.5z"/>
	<path class="st0" d="M67.1,123.7c1.6,0,3,1.3,3.1,2.9c0.1,1.7-1.2,3.2-2.9,3.3c-0.1,0-0.1,0-0.2,0c-1.6,0-3-1.3-3.1-2.9
		c-0.1-1.7,1.2-3.2,2.9-3.3C66.9,123.7,67,123.7,67.1,123.7 M67.1,121.7c-0.1,0-0.2,0-0.3,0c-2.8,0.2-4.9,2.6-4.7,5.4
		c0.2,2.7,2.4,4.7,5,4.7c0.1,0,0.2,0,0.3,0c1.4-0.1,2.6-0.7,3.5-1.7s1.4-2.4,1.3-3.6C72,123.8,69.8,121.7,67.1,121.7L67.1,121.7z"/>
	<path class="st0" d="M68.4,188.3c1.6,0,3,1.3,3.1,2.9c0.1,1.7-1.2,3.2-2.9,3.3c-0.1,0-0.1,0-0.2,0c-1.6,0-3-1.3-3.1-2.9
		c-0.1-1.7,1.2-3.2,2.9-3.3C68.2,188.3,68.3,188.3,68.4,188.3 M68.4,186.3c-0.1,0-0.2,0-0.3,0c-1.4,0.1-2.6,0.7-3.5,1.7
		s-1.4,2.4-1.3,3.6c0.2,2.7,2.4,4.7,5,4.7c0.1,0,0.2,0,0.3,0c1.4-0.1,2.6-0.7,3.5-1.7s1.4-2.4,1.3-3.6
		C73.2,188.4,71.1,186.3,68.4,186.3L68.4,186.3z"/>
	<path class="st0" d="M107.7,172.6c1.6,0,3,1.3,3.1,2.9c0.1,1.7-1.2,3.2-2.9,3.3c-0.1,0-0.1,0-0.2,0c-1.6,0-3-1.3-3.1-2.9
		c-0.1-1.7,1.2-3.2,2.9-3.3C107.6,172.6,107.6,172.6,107.7,172.6 M107.7,170.6c-0.1,0-0.2,0-0.3,0c-1.4,0.1-2.6,0.7-3.5,1.7
		s-1.4,2.4-1.3,3.6c0.2,2.7,2.4,4.7,5,4.7c0.1,0,0.2,0,0.3,0c1.4-0.1,2.6-0.7,3.5-1.7s1.4-2.4,1.3-3.6
		C112.7,172.7,110.4,170.6,107.7,170.6L107.7,170.6z"/>
	<path class="st0" d="M10,197.7c1.6,0,3,1.3,3.1,2.9c0.1,1.7-1.2,3.2-2.9,3.3c-0.1,0-0.1,0-0.2,0c-1.6,0-3-1.3-3.1-2.9
		c-0.1-1.7,1.2-3.2,2.9-3.3C9.9,197.7,10,197.7,10,197.7 M10,195.8c-0.1,0-0.2,0-0.3,0c-1.4,0.1-2.6,0.7-3.5,1.7s-1.4,2.4-1.3,3.6
		c0.2,2.7,2.4,4.7,5,4.7c0.1,0,0.2,0,0.3,0c1.4-0.1,2.6-0.7,3.5-1.7c0.9-1,1.4-2.4,1.3-3.6C15,197.8,12.8,195.8,10,195.8L10,195.8z"
		/>
	<path class="st0" d="M51,241.9c1.6,0,3,1.3,3.1,2.9c0.1,1.7-1.2,3.2-2.9,3.3c-0.1,0-0.1,0-0.2,0c-1.6,0-3-1.3-3.1-2.9
		c-0.1-1.7,1.2-3.2,2.9-3.3C51,241.9,51,241.9,51,241.9 M51,239.9c-0.1,0-0.2,0-0.3,0c-1.4,0.1-2.6,0.7-3.5,1.7s-1.4,2.4-1.3,3.6
		c0.2,2.7,2.4,4.7,5,4.7c0.1,0,0.2,0,0.3,0c1.4-0.1,2.6-0.7,3.5-1.7s1.4-2.4,1.3-3.6C55.9,242,53.7,239.9,51,239.9L51,239.9z"/>
	<path class="st0" d="M51,273.4c1.6,0,3,1.3,3.1,2.9c0.1,1.7-1.2,3.2-2.9,3.3c-0.1,0-0.1,0-0.2,0c-1.6,0-3-1.3-3.1-2.9
		c-0.1-1.7,1.2-3.2,2.9-3.3C51,273.4,51,273.4,51,273.4 M51,271.4c-0.1,0-0.2,0-0.3,0c-1.4,0.1-2.6,0.7-3.5,1.7s-1.4,2.4-1.3,3.6
		c0.2,2.7,2.4,4.7,5,4.7c0.1,0,0.2,0,0.3,0c1.4-0.1,2.6-0.7,3.5-1.7s1.4-2.4,1.3-3.6C55.9,273.5,53.7,271.4,51,271.4L51,271.4z"/>
	<path class="st0" d="M82.5,303.3c1.6,0,3,1.3,3.1,2.9c0.1,1.7-1.2,3.2-2.9,3.3c-0.1,0-0.1,0-0.2,0c-1.6,0-3-1.3-3.1-2.9
		c-0.1-1.7,1.2-3.2,2.9-3.3C82.4,303.3,82.5,303.3,82.5,303.3 M82.5,301.4c-0.1,0-0.2,0-0.3,0c-1.4,0.1-2.6,0.7-3.5,1.7
		s-1.4,2.4-1.3,3.6c0.2,2.7,2.4,4.7,5,4.7c0.1,0,0.2,0,0.3,0c1.4-0.1,2.6-0.7,3.5-1.7s1.4-2.4,1.3-3.6
		C87.4,303.4,85.2,301.4,82.5,301.4L82.5,301.4z"/>
	<path class="st0" d="M99.9,207.2c1.6,0,3,1.3,3.1,2.9c0.1,1.7-1.2,3.2-2.9,3.3c-0.1,0-0.1,0-0.2,0c-1.6,0-3-1.3-3.1-2.9
		c-0.1-1.7,1.2-3.2,2.9-3.3C99.8,207.2,99.8,207.2,99.9,207.2 M99.9,205.2c-0.1,0-0.2,0-0.3,0c-1.4,0.1-2.6,0.7-3.5,1.7
		s-1.4,2.4-1.3,3.6c0.2,2.7,2.4,4.7,5,4.7c0.1,0,0.2,0,0.3,0c1.4-0.1,2.6-0.7,3.5-1.7s1.4-2.4,1.3-3.6
		C104.8,207.3,102.5,205.2,99.9,205.2L99.9,205.2z"/>
	<path class="st0" d="M191.3,276.5c1.6,0,3,1.3,3.1,2.9c0.1,1.7-1.2,3.2-2.9,3.3c-0.1,0-0.1,0-0.2,0c-1.6,0-3-1.3-3.1-2.9
		c-0.1-1.7,1.2-3.2,2.9-3.3C191.1,276.5,191.2,276.5,191.3,276.5 M191.3,274.5c-0.1,0-0.2,0-0.3,0c-2.8,0.2-4.9,2.6-4.7,5.4
		c0.2,2.7,2.4,4.7,5,4.7c0.1,0,0.2,0,0.3,0c2.8-0.2,4.9-2.6,4.7-5.4C196.1,276.6,193.9,274.5,191.3,274.5L191.3,274.5z"/>
	<path class="st0" d="M255.8,282.8c1.6,0,3,1.3,3.1,2.9c0.1,1.7-1.2,3.2-2.9,3.3c-0.1,0-0.1,0-0.2,0c-1.6,0-3-1.3-3.1-2.9
		c-0.1-1.7,1.2-3.2,2.9-3.3C255.7,282.8,255.7,282.8,255.8,282.8 M255.8,280.8c-0.1,0-0.2,0-0.3,0c-1.4,0.1-2.6,0.7-3.5,1.7
		s-1.4,2.4-1.3,3.6c0.2,2.7,2.4,4.7,5,4.7c0.1,0,0.2,0,0.3,0c1.4-0.1,2.6-0.7,3.5-1.7s1.4-2.4,1.3-3.6
		C260.7,282.9,258.5,280.8,255.8,280.8L255.8,280.8z"/>
	<path class="st0" d="M307.8,306.5c1.6,0,3,1.3,3.1,2.9c0.1,1.7-1.2,3.2-2.9,3.3c-0.1,0-0.1,0-0.2,0c-1.6,0-3-1.3-3.1-2.9
		c-0.1-1.7,1.2-3.2,2.9-3.3C307.7,306.5,307.7,306.5,307.8,306.5 M307.8,304.5c-0.1,0-0.2,0-0.3,0c-1.4,0.1-2.6,0.7-3.5,1.7
		s-1.4,2.4-1.3,3.6c0.2,2.7,2.4,4.7,5,4.7c0.1,0,0.2,0,0.3,0c1.4-0.1,2.6-0.7,3.5-1.7s1.4-2.4,1.3-3.6
		C312.7,306.6,310.5,304.5,307.8,304.5L307.8,304.5z"/>
	<path class="st0" d="M421.2,212c1.6,0,3,1.3,3.1,2.9c0.1,1.7-1.2,3.2-2.9,3.3c-0.1,0-0.1,0-0.2,0c-1.6,0-3-1.3-3.1-2.9
		c-0.1-1.7,1.2-3.2,2.9-3.3C421.1,212,421.2,212,421.2,212 M421.2,210.1c-0.1,0-0.2,0-0.3,0c-2.8,0.2-4.9,2.6-4.7,5.4
		c0.2,2.7,2.4,4.7,5,4.7c0.1,0,0.2,0,0.3,0c2.8-0.2,4.9-2.6,4.7-5.4C426.1,212.1,424,210.1,421.2,210.1L421.2,210.1z"/>
	<path class="st0" d="M411.8,177.2c1.6,0,3,1.3,3.1,2.9c0.1,1.7-1.2,3.2-2.9,3.3c-0.1,0-0.1,0-0.2,0c-1.6,0-3-1.3-3.1-2.9
		c-0.1-1.7,1.2-3.2,2.9-3.3C411.6,177.2,411.7,177.2,411.8,177.2 M411.8,175.2c-0.1,0-0.2,0-0.3,0c-1.4,0.1-2.6,0.7-3.5,1.7
		s-1.4,2.4-1.3,3.6c0.2,2.7,2.4,4.7,5,4.7c0.1,0,0.2,0,0.3,0c1.4-0.1,2.6-0.7,3.5-1.7s1.4-2.4,1.3-3.6
		C416.7,177.4,414.5,175.2,411.8,175.2L411.8,175.2z"/>
	<path class="st0" d="M403.9,125.3c1.6,0,3,1.3,3.1,2.9c0.1,1.7-1.2,3.2-2.9,3.3c-0.1,0-0.1,0-0.2,0c-1.6,0-3-1.3-3.1-2.9
		c-0.1-1.7,1.2-3.2,2.9-3.3C403.7,125.3,403.8,125.3,403.9,125.3 M403.9,123.3c-0.1,0-0.2,0-0.3,0c-2.8,0.2-4.9,2.6-4.7,5.4
		c0.2,2.7,2.4,4.7,5,4.7c0.1,0,0.2,0,0.3,0c1.4-0.1,2.6-0.7,3.5-1.7s1.4-2.4,1.3-3.6C408.8,125.4,406.6,123.3,403.9,123.3
		L403.9,123.3z"/>
	<path class="st0" d="M259,68.6c1.6,0,3,1.3,3.1,2.9c0.1,1.7-1.2,3.2-2.9,3.3c-0.1,0-0.1,0-0.2,0c-1.6,0-3-1.3-3.1-2.9
		c-0.1-1.7,1.2-3.2,2.9-3.3C258.8,68.6,258.9,68.6,259,68.6 M259,66.6c-0.1,0-0.2,0-0.3,0c-2.8,0.2-4.9,2.6-4.7,5.4
		c0.2,2.7,2.4,4.7,5,4.7c0.1,0,0.2,0,0.3,0c2.8-0.2,4.9-2.6,4.7-5.4C263.8,68.7,261.7,66.6,259,66.6L259,66.6z"/>
	<path class="st0" d="M351.9,41.7c1.6,0,3,1.3,3.1,2.9c0.1,1.7-1.2,3.2-2.9,3.3c-0.1,0-0.1,0-0.2,0c-1.6,0-3-1.3-3.1-2.9
		c-0.1-1.7,1.2-3.2,2.9-3.3C351.8,41.7,351.9,41.7,351.9,41.7 M351.9,39.8c-0.1,0-0.2,0-0.3,0c-2.8,0.2-4.9,2.6-4.7,5.4
		c0.2,2.7,2.4,4.7,5,4.7c0.1,0,0.2,0,0.3,0c2.8-0.2,4.9-2.6,4.7-5.4C356.8,41.9,354.6,39.8,351.9,39.8L351.9,39.8z"/>
	<path class="st0" d="M282.6,4c1.6,0,3,1.3,3.1,2.9c0.1,1.7-1.2,3.2-2.9,3.3c-0.1,0-0.1,0-0.2,0c-1.6,0-3-1.3-3.1-2.9
		c-0.1-1.7,1.2-3.2,2.9-3.3C282.5,4,282.6,4,282.6,4 M282.6,2c-0.1,0-0.2,0-0.3,0c-2.8,0.2-4.9,2.6-4.7,5.4c0.2,2.7,2.4,4.7,5,4.7
		c0.1,0,0.2,0,0.3,0c2.8-0.2,4.9-2.6,4.7-5.4C287.5,4.1,285.3,2,282.6,2L282.6,2z"/>
</g>
<path class="st2" d="M395.8,272.7h-272c-2.2,0-4-1.8-4-4v-173h280v173C399.8,270.9,398,272.7,395.8,272.7z"/>
<linearGradient id="SVGID_1_" gradientUnits="userSpaceOnUse" x1="259.8" y1="-37.3469" x2="259.8" y2="-59.3469" gradientTransform="matrix(1 0 0 -1 0 36)">
	<stop  offset="3.437899e-02" style="stop-color:#E6E4E6"/>
	<stop  offset="1" style="stop-color:#D3D1D3"/>
	<stop  offset="1" style="stop-color:#D3D1D3"/>
</linearGradient>
<path class="st3" d="M399.8,95.3h-280v-18c0-2.2,1.8-4,4-4h272c2.2,0,4,1.8,4,4V95.3z"/>
<path d="M234.1,90.6c-0.7,0-1.3-0.2-1.7-0.6s-0.6-1-0.6-1.7v-4.5h-1v-1h1v-1.4l1.4-0.1v1.5h2v1h-2v4.3c0,1,0.4,1.5,1.3,1.5
	c0.2,0,0.4,0,0.7-0.1v1C234.8,90.6,234.4,90.6,234.1,90.6z"/>
<path d="M242.9,90.2c-0.9,0.3-1.7,0.4-2.4,0.4c-1.1,0-2.1-0.4-2.8-1.1s-1.1-1.7-1.1-2.9c0-1.2,0.3-2.1,0.9-2.9
	c0.6-0.7,1.4-1.1,2.4-1.1c0.9,0,1.6,0.3,2.2,1c0.5,0.7,0.8,1.6,0.8,2.8v0.4h-4.8c0.2,1.8,1.1,2.7,2.7,2.7c0.6,0,1.3-0.2,2.1-0.5
	L242.9,90.2L242.9,90.2z M238.2,85.8h3.4c0-1.4-0.5-2.1-1.6-2.1C238.9,83.6,238.3,84.3,238.2,85.8z"/>
<path d="M245.4,90.4v-7.7h1.4v1.4c0.6-1.1,1.4-1.6,2.4-1.6c0.1,0,0.3,0,0.4,0v1.3c-0.2-0.1-0.5-0.1-0.6-0.1c-0.9,0-1.6,0.5-2.2,1.6
	v5.1C246.8,90.4,245.4,90.4,245.4,90.4z"/>
<path d="M251.4,90.4v-7.7h1.4v1.4c0.7-1.1,1.6-1.6,2.6-1.6s1.7,0.5,2.1,1.6c0.7-1.1,1.5-1.6,2.6-1.6c0.7,0,1.2,0.2,1.6,0.6
	s0.6,1,0.6,1.7v5.6h-1.4V85c0-0.9-0.3-1.3-1-1.3s-1.5,0.5-2.3,1.5v5.2h-1.4V85c0-0.9-0.4-1.3-1.1-1.3c-0.7,0-1.5,0.5-2.3,1.5v5.2
	L251.4,90.4L251.4,90.4z"/>
<path d="M265,81.4V80h1.4v1.4H265z M265,90.4v-7.7h1.4v7.7H265z"/>
<path d="M269.2,90.4v-7.7h1.4v1.4c0.7-1.1,1.6-1.6,2.7-1.6c0.7,0,1.2,0.2,1.6,0.6s0.6,1,0.6,1.7v5.5h-1.4v-5.1c0-0.6-0.1-1-0.3-1.2
	c-0.2-0.2-0.4-0.4-0.8-0.4c-0.9,0-1.7,0.6-2.4,1.7v5L269.2,90.4L269.2,90.4z"/>
<path d="M282.3,89.5c-0.8,0.8-1.6,1.2-2.4,1.2c-0.6,0-1.2-0.2-1.6-0.6s-0.6-0.9-0.6-1.5c0-0.8,0.4-1.5,1.1-1.9
	c0.7-0.5,1.7-0.7,3-0.7h0.3v-1c0-0.9-0.5-1.3-1.4-1.3c-0.7,0-1.5,0.2-2.4,0.7v-1.2c0.9-0.4,1.8-0.6,2.6-0.6c0.9,0,1.5,0.2,1.9,0.6
	s0.6,1,0.6,1.8v3.5c0,0.8,0.2,1.2,0.7,1.2c0.1,0,0.2,0,0.3,0l0.1,0.8c-0.3,0.2-0.7,0.2-1,0.2C282.9,90.6,282.4,90.2,282.3,89.5z
	 M282.1,88.7v-2h-0.5c-0.8,0-1.4,0.1-1.9,0.4s-0.7,0.7-0.7,1.1c0,0.3,0.1,0.6,0.4,0.8c0.2,0.2,0.5,0.3,0.9,0.3
	C280.8,89.5,281.4,89.2,282.1,88.7z"/>
<path d="M286.4,90.4V79.3h1.4v11.2L286.4,90.4L286.4,90.4z"/>
<path class="st0" d="M141.6,123.7c-0.4-0.3-0.7-0.5-1.1-0.6c-0.3-0.1-0.8-0.2-1.2-0.2s-0.8,0.1-1,0.3c-0.3,0.2-0.4,0.4-0.4,0.8
	c0,0.2,0.1,0.4,0.4,0.6c0.2,0.2,0.5,0.3,0.9,0.5s0.8,0.3,1.2,0.4c0.4,0.2,0.8,0.3,1.2,0.6c0.4,0.2,0.7,0.5,0.9,0.8s0.4,0.7,0.4,1.2
	c0,0.7-0.2,1.3-0.7,1.7s-1.2,0.8-2,0.9v2.4h-1.3v-2.3c-0.6-0.1-1.1-0.2-1.6-0.4s-1-0.5-1.4-0.8l0.8-1.3c0.5,0.3,0.9,0.6,1.4,0.8
	s1,0.3,1.5,0.3s0.9-0.1,1.2-0.3s0.4-0.4,0.4-0.8c0-0.3-0.1-0.5-0.4-0.7c-0.2-0.2-0.5-0.3-0.9-0.5s-0.8-0.3-1.2-0.5s-0.8-0.3-1.2-0.6
	c-0.4-0.2-0.7-0.5-0.9-0.8s-0.4-0.7-0.4-1.2c0-0.7,0.2-1.3,0.7-1.7s1.1-0.7,1.9-0.8v-2.1h1.3v2.1c0.6,0.1,1,0.2,1.4,0.4
	c0.4,0.2,0.8,0.5,1.1,0.8L141.6,123.7z"/>
<path class="st0" d="M157,131.9v2.5h-1.9v-11h1.5l0.1,0.9l0,0c0.3-0.3,0.7-0.6,1.2-0.8c0.4-0.2,0.9-0.3,1.3-0.3c0.5,0,1,0.1,1.4,0.3
	c0.4,0.2,0.7,0.5,1,0.8c0.3,0.4,0.5,0.8,0.6,1.3s0.2,1,0.2,1.6c0,0.7-0.1,1.3-0.3,1.8s-0.5,1-0.8,1.3c-0.3,0.4-0.7,0.6-1.1,0.8
	c-0.4,0.2-0.9,0.3-1.3,0.3c-0.4,0-0.7-0.1-1.1-0.2c-0.4-0.2-0.7-0.4-1-0.7L157,131.9z M157,129.2c0.3,0.3,0.6,0.5,0.9,0.6
	c0.3,0.1,0.6,0.2,0.8,0.2c0.6,0,1-0.2,1.4-0.7s0.6-1.1,0.6-2c0-0.8-0.1-1.4-0.4-1.8c-0.3-0.4-0.8-0.7-1.4-0.7
	c-0.3,0-0.6,0.1-0.9,0.2c-0.3,0.1-0.6,0.4-0.9,0.7v3.5H157z"/>
<path class="st0" d="M164.8,123.4h5.2v7.9h-1.8v-6.4h-3.4V123.4z M169,122c-0.4,0-0.7-0.1-0.9-0.3c-0.2-0.2-0.4-0.5-0.4-0.9
	s0.1-0.7,0.4-0.9c0.3-0.2,0.6-0.3,0.9-0.3c0.4,0,0.7,0.1,0.9,0.3c0.2,0.2,0.4,0.5,0.4,0.9s-0.1,0.7-0.4,0.9
	C169.7,121.9,169.4,122,169,122z"/>
<path class="st0" d="M176.3,131.9v2.5h-1.9v-11h1.5l0.1,0.9l0,0c0.3-0.3,0.7-0.6,1.2-0.8c0.4-0.2,0.9-0.3,1.3-0.3
	c0.5,0,1,0.1,1.4,0.3c0.4,0.2,0.7,0.5,1,0.8c0.3,0.4,0.5,0.8,0.6,1.3s0.2,1,0.2,1.6c0,0.7-0.1,1.3-0.3,1.8s-0.5,1-0.8,1.3
	c-0.3,0.4-0.7,0.6-1.1,0.8c-0.4,0.2-0.9,0.3-1.3,0.3c-0.4,0-0.7-0.1-1.1-0.2c-0.4-0.2-0.7-0.4-1-0.7L176.3,131.9z M176.3,129.2
	c0.3,0.3,0.6,0.5,0.9,0.6c0.3,0.1,0.6,0.2,0.8,0.2c0.6,0,1-0.2,1.4-0.7s0.6-1.1,0.6-2c0-0.8-0.1-1.4-0.4-1.8
	c-0.3-0.4-0.8-0.7-1.4-0.7c-0.3,0-0.6,0.1-0.9,0.2c-0.3,0.1-0.6,0.4-0.9,0.7v3.5H176.3z"/>
<path class="st0" d="M193.8,123.4h5.2v7.9h-1.8v-6.4h-3.4V123.4z M198,122c-0.4,0-0.7-0.1-0.9-0.3c-0.2-0.2-0.4-0.5-0.4-0.9
	s0.1-0.7,0.4-0.9c0.3-0.2,0.6-0.3,0.9-0.3c0.4,0,0.7,0.1,0.9,0.3c0.2,0.2,0.4,0.5,0.4,0.9s-0.1,0.7-0.4,0.9
	C198.7,121.9,198.4,122,198,122z"/>
<path class="st0" d="M203.4,123.4h1.5l0.1,1.2h0.1c0.4-0.4,0.8-0.7,1.2-1c0.5-0.3,1-0.4,1.6-0.4c0.9,0,1.6,0.3,2,0.8
	s0.6,1.3,0.6,2.4v4.9h-1.9v-4.6c0-0.6-0.1-1.1-0.3-1.4s-0.6-0.4-1.1-0.4c-0.4,0-0.7,0.1-1,0.3s-0.6,0.5-1,0.8v5.4h-1.9L203.4,123.4
	L203.4,123.4z"/>
<path class="st0" d="M213.6,129.1c0.4,0.3,0.9,0.6,1.4,0.7c0.5,0.2,1,0.3,1.6,0.3s1.1-0.1,1.4-0.3c0.3-0.2,0.4-0.4,0.4-0.7
	s-0.2-0.5-0.6-0.7s-1-0.4-1.8-0.6c-0.4-0.1-0.7-0.2-1.1-0.4c-0.4-0.1-0.7-0.3-0.9-0.5c-0.3-0.2-0.5-0.4-0.6-0.6
	c-0.2-0.2-0.2-0.5-0.2-0.8c0-0.7,0.3-1.3,0.9-1.7c0.6-0.4,1.5-0.7,2.6-0.7c0.6,0,1.2,0.1,1.8,0.3s1.1,0.5,1.5,0.7l-0.8,1.1
	c-0.4-0.2-0.7-0.4-1.1-0.6c-0.4-0.1-0.8-0.2-1.3-0.2c-0.6,0-1,0.1-1.3,0.2c-0.2,0.2-0.4,0.4-0.4,0.6c0,0.1,0.1,0.3,0.2,0.4
	c0.1,0.1,0.3,0.2,0.5,0.3c0.2,0.1,0.4,0.2,0.7,0.3c0.3,0.1,0.6,0.2,0.9,0.2c0.5,0.1,0.9,0.2,1.2,0.4s0.7,0.3,0.9,0.5
	c0.3,0.2,0.5,0.4,0.6,0.6c0.1,0.2,0.2,0.5,0.2,0.8c0,0.3-0.1,0.7-0.2,1c-0.2,0.3-0.4,0.5-0.7,0.8c-0.3,0.2-0.7,0.4-1.2,0.5
	s-1,0.2-1.6,0.2c-0.7,0-1.4-0.1-2.1-0.4c-0.7-0.2-1.3-0.5-1.7-0.9L213.6,129.1z"/>
<path class="st0" d="M224.5,124.9h-2.1v-1.4l2.2-0.1l0.2-2.1h1.5v2.1h3.6v1.5h-3.6v3.2c0,0.7,0.1,1.1,0.4,1.4
	c0.3,0.3,0.7,0.5,1.4,0.5c0.3,0,0.7,0,0.9-0.1c0.3-0.1,0.5-0.1,0.8-0.2l0.4,1.3c-0.4,0.1-0.7,0.2-1.2,0.3c-0.4,0.1-0.9,0.1-1.4,0.1
	c-0.6,0-1.1-0.1-1.5-0.2c-0.4-0.2-0.7-0.4-1-0.7s-0.4-0.6-0.5-1.1s-0.2-0.9-0.2-1.4v-3.1L224.5,124.9L224.5,124.9z"/>
<path class="st0" d="M232.2,129.1c0-0.4,0.1-0.8,0.3-1.2c0.2-0.3,0.5-0.6,1-0.9c0.4-0.2,1-0.4,1.7-0.6c0.7-0.1,1.5-0.3,2.5-0.3
	c0-0.4-0.2-0.8-0.5-1.1s-0.8-0.4-1.4-0.4c-0.4,0-0.9,0.1-1.3,0.2c-0.4,0.2-0.9,0.4-1.3,0.6l-0.7-1.2c0.5-0.3,1-0.5,1.6-0.8
	s1.3-0.3,1.9-0.3c1.1,0,1.9,0.3,2.5,0.9s0.9,1.4,0.9,2.5v4.7H238l-0.1-1l0,0c-0.4,0.3-0.9,0.6-1.4,0.8s-1,0.3-1.6,0.3
	c-0.4,0-0.7-0.1-1.1-0.2c-0.3-0.1-0.6-0.3-0.8-0.5s-0.4-0.4-0.5-0.7S232.2,129.5,232.2,129.1z M234,129c0,0.4,0.1,0.6,0.4,0.8
	c0.3,0.2,0.6,0.2,1,0.2s0.8-0.1,1.1-0.3c0.4-0.2,0.7-0.4,1.1-0.7v-1.7c-0.7,0.1-1.3,0.1-1.8,0.2s-0.8,0.2-1.1,0.3s-0.5,0.3-0.6,0.5
	C234.1,128.6,234,128.8,234,129z"/>
<path class="st0" d="M241.9,120h4.3v8.5c0,0.5,0.1,0.9,0.4,1.1c0.3,0.2,0.6,0.3,1,0.3s0.8-0.1,1.3-0.3l0.4,1.4
	c-0.4,0.1-0.7,0.2-1,0.3s-0.7,0.1-1.2,0.1c-0.9,0-1.6-0.3-2.1-0.8s-0.7-1.3-0.7-2.3v-7h-2.5V120H241.9z"/>
<path class="st0" d="M251.6,120h4.3v8.5c0,0.5,0.1,0.9,0.4,1.1c0.3,0.2,0.6,0.3,1,0.3s0.8-0.1,1.3-0.3l0.4,1.4
	c-0.4,0.1-0.7,0.2-1,0.3s-0.7,0.1-1.2,0.1c-0.9,0-1.6-0.3-2.1-0.8s-0.7-1.3-0.7-2.3v-7h-2.5V120H251.6z"/>
<path class="st0" d="M271.1,120h1.9v2.9l-0.1,1.4c0.3-0.3,0.7-0.6,1.2-0.8c0.4-0.2,0.9-0.3,1.3-0.3c0.5,0,1,0.1,1.4,0.3
	c0.4,0.2,0.7,0.5,1,0.8s0.5,0.8,0.6,1.3s0.2,1,0.2,1.6c0,0.7-0.1,1.3-0.3,1.8c-0.2,0.5-0.5,1-0.8,1.3c-0.3,0.4-0.7,0.6-1.1,0.8
	s-0.9,0.3-1.3,0.3s-0.8-0.1-1.2-0.3s-0.8-0.4-1.1-0.8l0,0l-0.2,0.9h-1.5V120z M272.9,129.2c0.3,0.3,0.6,0.5,0.9,0.6s0.6,0.2,0.8,0.2
	c0.6,0,1-0.2,1.4-0.7s0.6-1.1,0.6-2c0-0.8-0.1-1.4-0.4-1.8s-0.8-0.7-1.4-0.7c-0.3,0-0.6,0.1-0.9,0.2s-0.6,0.4-0.9,0.7v3.5H272.9z"/>
<path class="st0" d="M280.6,120h4.3v8.5c0,0.5,0.1,0.9,0.4,1.1c0.3,0.2,0.6,0.3,1,0.3s0.8-0.1,1.3-0.3l0.4,1.4
	c-0.4,0.1-0.7,0.2-1,0.3s-0.7,0.1-1.2,0.1c-0.9,0-1.6-0.3-2.1-0.8s-0.7-1.3-0.7-2.3v-7h-2.5V120H280.6z"/>
<path class="st0" d="M289.9,127.3c0-0.7,0.1-1.2,0.3-1.7c0.2-0.5,0.5-0.9,0.9-1.3s0.8-0.6,1.3-0.8c0.5-0.2,1-0.3,1.5-0.3
	s1,0.1,1.5,0.3c0.5,0.2,0.9,0.5,1.3,0.8s0.7,0.8,0.9,1.3c0.2,0.5,0.3,1.1,0.3,1.7c0,0.7-0.1,1.2-0.3,1.7c-0.2,0.5-0.5,0.9-0.9,1.3
	s-0.8,0.6-1.3,0.8s-1,0.3-1.5,0.3s-1-0.1-1.5-0.3s-0.9-0.4-1.3-0.8s-0.7-0.8-0.9-1.3C290.1,128.6,289.9,128,289.9,127.3z
	 M291.8,127.3c0,0.8,0.2,1.4,0.5,1.9s0.9,0.7,1.5,0.7s1.1-0.2,1.5-0.7s0.5-1.1,0.5-1.9c0-0.8-0.2-1.4-0.5-1.9s-0.9-0.7-1.5-0.7
	s-1.1,0.2-1.5,0.7S291.8,126.5,291.8,127.3z"/>
<path class="st0" d="M299.9,127.3c0-0.7,0.1-1.2,0.4-1.7c0.2-0.5,0.6-0.9,1-1.3s0.9-0.6,1.4-0.8c0.5-0.2,1.1-0.3,1.7-0.3
	s1.2,0.1,1.7,0.3s0.9,0.5,1.2,0.8l-0.9,1.2c-0.3-0.2-0.6-0.4-0.9-0.6c-0.3-0.1-0.6-0.2-1-0.2c-0.8,0-1.4,0.2-1.9,0.7
	s-0.7,1.1-0.7,1.9c0,0.4,0.1,0.8,0.2,1.1s0.3,0.6,0.5,0.8s0.5,0.4,0.8,0.5s0.7,0.2,1.1,0.2s0.9-0.1,1.2-0.3s0.7-0.4,1-0.6l0.8,1.2
	c-0.4,0.4-1,0.7-1.5,0.9s-1.1,0.3-1.7,0.3s-1.2-0.1-1.7-0.3s-1-0.4-1.4-0.8c-0.4-0.4-0.7-0.8-0.9-1.3
	C300,128.6,299.9,128,299.9,127.3z"/>
<path class="st0" d="M309.9,120h1.9v7.1h0.1l3.5-3.6h2l-3,3.2l3.4,4.7h-2l-2.5-3.6l-1.5,1.5v2h-1.9V120z"/>
<path class="st0" d="M319.9,129.1c0.4,0.3,0.9,0.6,1.4,0.7c0.5,0.2,1,0.3,1.6,0.3s1.1-0.1,1.4-0.3s0.4-0.4,0.4-0.7s-0.2-0.5-0.6-0.7
	s-1-0.4-1.8-0.6c-0.4-0.1-0.7-0.2-1.1-0.4c-0.4-0.1-0.7-0.3-0.9-0.5c-0.3-0.2-0.5-0.4-0.6-0.6c-0.2-0.2-0.2-0.5-0.2-0.8
	c0-0.7,0.3-1.3,0.9-1.7c0.6-0.4,1.5-0.7,2.6-0.7c0.6,0,1.2,0.1,1.8,0.3s1.1,0.5,1.5,0.7l-0.8,1.1c-0.4-0.2-0.7-0.4-1.1-0.6
	c-0.4-0.1-0.8-0.2-1.3-0.2c-0.6,0-1,0.1-1.3,0.2c-0.2,0.2-0.4,0.4-0.4,0.6c0,0.1,0.1,0.3,0.2,0.4s0.3,0.2,0.5,0.3
	c0.2,0.1,0.4,0.2,0.7,0.3c0.3,0.1,0.6,0.2,0.9,0.2c0.5,0.1,0.9,0.2,1.2,0.4s0.7,0.3,0.9,0.5c0.3,0.2,0.5,0.4,0.6,0.6
	c0.1,0.2,0.2,0.5,0.2,0.8c0,0.3-0.1,0.7-0.2,1c-0.2,0.3-0.4,0.5-0.7,0.8c-0.3,0.2-0.7,0.4-1.2,0.5s-1,0.2-1.6,0.2
	c-0.7,0-1.4-0.1-2.1-0.4c-0.7-0.2-1.3-0.5-1.7-0.9L319.9,129.1z"/>
<path class="st0" d="M330.8,124.9h-2.1v-1.4l2.2-0.1l0.2-2.1h1.5v2.1h3.6v1.5h-3.6v3.2c0,0.7,0.1,1.1,0.4,1.4
	c0.3,0.3,0.7,0.5,1.4,0.5c0.3,0,0.7,0,0.9-0.1c0.3-0.1,0.5-0.1,0.8-0.2l0.4,1.3c-0.4,0.1-0.7,0.2-1.2,0.3c-0.4,0.1-0.9,0.1-1.4,0.1
	c-0.6,0-1.1-0.1-1.5-0.2c-0.4-0.2-0.7-0.4-1-0.7s-0.4-0.6-0.5-1.1s-0.2-0.9-0.2-1.4v-3.1L330.8,124.9L330.8,124.9z"/>
<path class="st0" d="M338.6,129.1c0-0.4,0.1-0.8,0.3-1.2c0.2-0.3,0.5-0.6,1-0.9c0.4-0.2,1-0.4,1.7-0.6c0.7-0.1,1.5-0.3,2.5-0.3
	c0-0.4-0.2-0.8-0.5-1.1s-0.8-0.4-1.4-0.4c-0.4,0-0.9,0.1-1.3,0.2c-0.4,0.2-0.9,0.4-1.3,0.6l-0.7-1.2c0.5-0.3,1-0.5,1.6-0.8
	s1.3-0.3,1.9-0.3c1.1,0,1.9,0.3,2.5,0.9s0.9,1.4,0.9,2.5v4.7h-1.5l-0.1-1l0,0c-0.4,0.3-0.9,0.6-1.4,0.8s-1,0.3-1.6,0.3
	c-0.4,0-0.7-0.1-1.1-0.2c-0.3-0.1-0.6-0.3-0.8-0.5c-0.2-0.2-0.4-0.4-0.5-0.7S338.6,129.5,338.6,129.1z M340.3,129
	c0,0.4,0.1,0.6,0.4,0.8s0.6,0.2,1,0.2s0.8-0.1,1.1-0.3c0.4-0.2,0.7-0.4,1.1-0.7v-1.7c-0.7,0.1-1.3,0.1-1.8,0.2s-0.8,0.2-1.1,0.3
	s-0.5,0.3-0.6,0.5C340.4,128.6,340.3,128.8,340.3,129z"/>
<path class="st0" d="M348.2,127.3c0-0.7,0.1-1.2,0.4-1.7c0.2-0.5,0.6-0.9,1-1.3s0.9-0.6,1.4-0.8c0.5-0.2,1.1-0.3,1.7-0.3
	s1.2,0.1,1.7,0.3s0.9,0.5,1.2,0.8l-0.9,1.2c-0.3-0.2-0.6-0.4-0.9-0.6c-0.3-0.1-0.6-0.2-1-0.2c-0.8,0-1.4,0.2-1.9,0.7
	s-0.7,1.1-0.7,1.9c0,0.4,0.1,0.8,0.2,1.1s0.3,0.6,0.5,0.8s0.5,0.4,0.8,0.5s0.7,0.2,1.1,0.2s0.9-0.1,1.2-0.3s0.7-0.4,1-0.6l0.8,1.2
	c-0.4,0.4-1,0.7-1.5,0.9s-1.1,0.3-1.7,0.3s-1.2-0.1-1.7-0.3s-1-0.4-1.4-0.8c-0.4-0.4-0.7-0.8-0.9-1.3
	C348.4,128.6,348.2,128,348.2,127.3z"/>
<path class="st0" d="M358.2,120h1.9v7.1h0.1l3.5-3.6h2l-3,3.2l3.4,4.7h-2l-2.5-3.6l-1.5,1.5v2h-1.9V120z"/>
<rect x="119.8" y="94.8" class="st4" width="280" height="1"/>
</svg>
