<?xml version="1.0" encoding="utf-8"?>
<!-- Generator: Adobe Illustrator 19.0.1, SVG Export Plug-In . SVG Version: 6.00 Build 0)  -->
<svg version="1.1" id="Layer_1" xmlns="http://www.w3.org/2000/svg" xmlns:xlink="http://www.w3.org/1999/xlink" x="0px" y="0px"
	 viewBox="-245 217 300 180" enable-background="new -245 217 300 180" xml:space="preserve">
<g id="Layer_4">
</g>
<g id="Layer_1_1_">
	<path fill="#831CA8" d="M2.9,300.5c0.7,1.2,2,2,3.4,2c2.2,0,4-1.8,4-4s-1.8-4-4-4c-2.1,0-3.8,1.6-4,3.7l-20.2,4.5
		c-0.4-0.6-0.9-1.1-1.5-1.5l6.2-32.6c2-0.2,3.5-1.9,3.5-4c0-2.2-1.8-4-4-4s-4,1.8-4,4c0,1.5,0.9,2.8,2.1,3.5l-6.2,32.6
		c-0.8,0.1-1.6,0.5-2.2,1l-43.8-25.2c0.1-0.3,0.1-0.6,0.1-0.8c0-0.4-0.1-0.9-0.2-1.3l16.3-12.1c0.7,0.5,1.5,0.8,2.3,0.8
		c2.2,0,4-1.8,4-4c0-2.2-1.8-4-4-4s-4,1.8-4,4c0,0.4,0.1,0.9,0.2,1.3l-16.3,12.1c-0.7-0.5-1.5-0.8-2.3-0.8c-0.1,0-0.2,0-0.3,0
		l-7.2-17.8c0.9-0.7,1.5-1.8,1.5-3.1c0-2.2-1.8-4-4-4s-4,1.8-4,4c0,2.2,1.8,4,4,4c0.1,0,0.2,0,0.3,0l7.2,17.8
		c-0.5,0.4-0.8,0.8-1.1,1.4l-47.7-6c-0.1-0.7-0.5-1.4-0.9-1.9l6.4-10.7c0.3,0.1,0.6,0.1,0.9,0.1c2.2,0,4-1.8,4-4c0-2.2-1.8-4-4-4
		s-4,1.8-4,4c0,1,0.4,1.9,1,2.6l-6.4,10.7c-0.3-0.1-0.6-0.1-0.9-0.1c-1.5,0-2.8,0.8-3.5,2l-33-7.3c-0.2-2-1.9-3.6-4-3.6
		c-2.2,0-4,1.8-4,4c0,2.2,1.8,4,4,4c1.5,0,2.8-0.8,3.5-2l33,7.3c0.1,1.1,0.6,2,1.3,2.6l-12.5,28.9c-0.1,0-0.3,0-0.4,0
		c-2.2,0-4,1.8-4,4c0,2.2,1.8,4,4,4c0.7,0,1.4-0.2,1.9-0.5l15.2,14.1c-0.1,0.2-0.1,0.3-0.2,0.5l-47,0.3c-0.4-1.1-1.2-2-2.3-2.5
		l1.8-23.5c1.8-0.4,3.1-2,3.1-3.9c0-2.2-1.8-4-4-4c-2.2,0-4,1.8-4,4c0,1.7,1,3.1,2.5,3.7l-1.8,23.5c-0.8,0.2-1.6,0.7-2.1,1.3
		l-17.2-7.4c0-0.1,0-0.2,0-0.4c0-2.2-1.8-4-4-4c-2.2,0-4,1.8-4,4s1.8,4,4,4c1.2,0,2.3-0.5,3-1.4l17.2,7.4c0,0.1,0,0.2,0,0.4
		c0,0.7,0.2,1.3,0.5,1.8l-12.6,12.6c-0.6-0.3-1.2-0.5-1.8-0.5c-2.2,0-4,1.8-4,4c0,2.2,1.8,4,4,4s4-1.8,4-4c0-0.7-0.2-1.3-0.5-1.8
		l12.6-12.6c0.3,0.2,0.6,0.3,0.9,0.4l2.8,32.1c-1.4,0.6-2.5,2-2.5,3.7c0,2.2,1.8,4,4,4s4-1.8,4-4c0-1.9-1.3-3.5-3.1-3.9l-2.8-32.1
		c1.1-0.5,1.9-1.4,2.3-2.5l47-0.3c0.2,0.5,0.4,0.9,0.7,1.3l-16.9,25.8c-0.3-0.1-0.7-0.2-1.1-0.2c-2.2,0-4,1.8-4,4c0,2.2,1.8,4,4,4
		c2.2,0,4-1.8,4-4c0-1-0.3-1.8-0.9-2.5l16.9-25.8c0.3,0.1,0.6,0.1,0.9,0.1l4.9,18.2c-1.1,0.7-1.8,2-1.8,3.4c0,2.2,1.8,4,4,4
		c2.2,0,4-1.8,4-4c0-2.2-1.7-3.9-3.8-4l-4.9-18.2c0.5-0.3,0.9-0.8,1.3-1.3l41.3,9.4c0.1,0.7,0.3,1.4,0.7,2L-91,356.8
		c-0.4-0.1-0.9-0.2-1.3-0.2c-2.2,0-4,1.8-4,4c0,2.2,1.8,4,4,4s4-1.8,4-4c0-0.9-0.3-1.7-0.7-2.3l14.7-19.5c0.4,0.1,0.9,0.2,1.3,0.2
		c0.8,0,1.6-0.3,2.3-0.7l21.3,16.7c-0.2,0.4-0.3,0.9-0.3,1.4c0,2.2,1.8,4,4,4s4-1.8,4-4c0-2.2-1.8-4-4-4c-0.8,0-1.6,0.3-2.3,0.7
		l-21.3-16.7c0-0.1,0.1-0.2,0.1-0.4l29.7-1.7c0.6,1.5,2,2.6,3.7,2.6c2.2,0,4-1.8,4-4c0-1.1-0.5-2.1-1.2-2.8l11-21.5
		c0.2,0,0.4,0.1,0.6,0.1c0.7,0,1.3-0.2,1.9-0.5l19.1,18.5c-0.3,0.5-0.4,1.1-0.4,1.8c0,2.2,1.8,4,4,4s4-1.8,4-4c0-2.2-1.8-4-4-4
		c-0.7,0-1.3,0.2-1.9,0.5l-19.1-18.5c0.2-0.4,0.4-0.9,0.4-1.4L2.9,300.5z M6.3,296.3c1.2,0,2.2,1,2.2,2.2s-1,2.2-2.2,2.2
		s-2.2-1-2.2-2.2C4.1,297.2,5.1,296.3,6.3,296.3z M-13.7,262.4c1.2,0,2.2,1,2.2,2.2c0,1.2-1,2.2-2.2,2.2s-2.2-1-2.2-2.2
		C-15.9,263.4-14.9,262.4-13.7,262.4z M-49.3,256.9c1.2,0,2.2,1,2.2,2.2c0,1.2-1,2.2-2.2,2.2s-2.2-1-2.2-2.2
		C-51.5,257.9-50.5,256.9-49.3,256.9z M-81.8,253c-1.2,0-2.2-1-2.2-2.2s1-2.2,2.2-2.2s2.2,1,2.2,2.2S-80.6,253-81.8,253z
		 M-116.7,249.3c1.2,0,2.2,1,2.2,2.2s-1,2.2-2.2,2.2s-2.2-1-2.2-2.2C-118.9,250.3-117.9,249.3-116.7,249.3z M-167.5,262
		c-1.2,0-2.2-1-2.2-2.2c0-1.2,1-2.2,2.2-2.2s2.2,1,2.2,2.2C-165.3,261-166.2,262-167.5,262z M-200.6,316.2c-1.2,0-2.2-1-2.2-2.2
		s1-2.2,2.2-2.2c1.2,0,2.2,1,2.2,2.2S-199.4,316.2-200.6,316.2z M-194.4,344.5c-1.2,0-2.2-1-2.2-2.2c0-1.2,1-2.2,2.2-2.2
		c1.2,0,2.2,1,2.2,2.2C-192.2,343.5-193.2,344.5-194.4,344.5z M-170.8,364.1c0,1.2-1,2.2-2.2,2.2s-2.2-1-2.2-2.2s1-2.2,2.2-2.2
		S-170.8,362.9-170.8,364.1z M-176.2,293.3c0-1.2,1-2.2,2.2-2.2s2.2,1,2.2,2.2c0,1.2-1,2.2-2.2,2.2S-176.2,294.5-176.2,293.3z
		 M-176.4,326.6c-1.2,0-2.2-1-2.2-2.2c0-1.2,1-2.2,2.2-2.2c1.2,0,2.2,1,2.2,2.2C-174.2,325.6-175.2,326.6-176.4,326.6z
		 M-142.9,358.3c-1.2,0-2.2-1-2.2-2.2s1-2.2,2.2-2.2c1.2,0,2.2,1,2.2,2.2C-140.7,357.4-141.7,358.3-142.9,358.3z M-114.9,347.4
		c1.2,0,2.2,1,2.2,2.2c0,1.2-1,2.2-2.2,2.2s-2.2-1-2.2-2.2C-117.1,348.4-116.2,347.4-114.9,347.4z M-92.5,362.8
		c-1.2,0-2.2-1-2.2-2.2s1-2.2,2.2-2.2s2.2,1,2.2,2.2S-91.3,362.8-92.5,362.8z M-45.9,354.3c1.2,0,2.2,1,2.2,2.2s-1,2.2-2.2,2.2
		s-2.2-1-2.2-2.2C-48.1,355.3-47.1,354.3-45.9,354.3z M-71.8,273.5c1.2,0,2.2,1,2.2,2.2c0,1.2-1,2.2-2.2,2.2s-2.2-1-2.2-2.2
		C-74,274.4-73,273.5-71.8,273.5z M-127,266.5c1.2,0,2.2,1,2.2,2.2c0,1.2-1,2.2-2.2,2.2s-2.2-1-2.2-2.2
		C-129.2,267.5-128.2,266.5-127,266.5z M-142.6,306.9c-1.2,0-2.2-1-2.2-2.2c0-1.2,1-2.2,2.2-2.2c1.2,0,2.2,1,2.2,2.2
		C-140.4,305.9-141.4,306.9-142.6,306.9z M-121.9,326.2c-1.2,0-2.2-1-2.2-2.2s1-2.2,2.2-2.2s2.2,1,2.2,2.2
		C-119.7,325.2-120.6,326.2-121.9,326.2z M-120.1,320.4c-0.5-0.3-1.1-0.4-1.8-0.4c-0.7,0-1.4,0.2-1.9,0.5l-15.2-14.1
		c0.2-0.5,0.4-1.1,0.4-1.7c0-1.2-0.5-2.3-1.4-3l12.5-28.9c0.1,0,0.3,0,0.4,0c0.6,0,1.2-0.1,1.7-0.4l23.5,25.5
		c-0.3,0.6-0.5,1.2-0.5,2c0,0.7,0.2,1.3,0.5,1.9L-120.1,320.4z M-73.1,337.3c-1.2,0-2.2-1-2.2-2.2s1-2.2,2.2-2.2s2.2,1,2.2,2.2
		C-70.9,336.3-71.9,337.3-73.1,337.3z M-72.5,331.1c-0.2,0-0.4-0.1-0.6-0.1c-1.5,0-2.7,0.8-3.4,2l-41.3-9.4c0-0.5-0.2-1.1-0.5-1.5
		l18.2-18.7c0.5,0.3,1.1,0.4,1.8,0.4c2.2,0,4-1.8,4-4c0-2.2-1.8-4-4-4c-0.6,0-1.2,0.1-1.7,0.4l-23.5-25.5c0.1-0.1,0.1-0.2,0.2-0.3
		l47.7,6c0.4,1.9,2,3.3,3.9,3.3c0.1,0,0.2,0,0.3,0l9.9,24c-0.9,0.7-1.4,1.8-1.4,3.1c0,1.1,0.5,2.1,1.2,2.9L-72.5,331.1z
		 M-100.6,299.8c0-1.2,1-2.2,2.2-2.2s2.2,1,2.2,2.2c0,1.2-1,2.2-2.2,2.2S-100.6,301-100.6,299.8z M-35.8,335.2c-1.2,0-2.2-1-2.2-2.2
		s1-2.2,2.2-2.2s2.2,1,2.2,2.2S-34.6,335.2-35.8,335.2z M-35.2,329c-0.2,0-0.4-0.1-0.6-0.1c-1.9,0-3.4,1.3-3.9,3l-29.7,1.7
		c-0.2-0.5-0.5-1-0.9-1.4l10.7-21.5c0.2,0,0.4,0.1,0.6,0.1c2.2,0,4-1.8,4-4c0-2.2-1.8-4-4-4c-0.1,0-0.2,0-0.3,0l-9.9-24l0.1-0.1
		l43.8,25.2c-0.1,0.3-0.1,0.6-0.1,0.8c0,1.1,0.5,2.1,1.2,2.8L-35.2,329z M-61.2,306.7c0-1.2,1-2.2,2.2-2.2s2.2,1,2.2,2.2
		c0,1.2-1,2.2-2.2,2.2S-61.2,308-61.2,306.7z M-21.3,306.9c-1.2,0-2.2-1-2.2-2.2c0-1.2,1-2.2,2.2-2.2s2.2,1,2.2,2.2
		C-19.1,305.9-20.1,306.9-21.3,306.9z M3.2,326.3c1.2,0,2.2,1,2.2,2.2s-1,2.2-2.2,2.2s-2.2-1-2.2-2.2S2,326.3,3.2,326.3z"/>
</g>
</svg>
