<?xml version="1.0" encoding="utf-8"?>
<!-- Generator: Adobe Illustrator 19.2.1, SVG Export Plug-In . SVG Version: 6.00 Build 0)  -->
<svg version="1.1" id="Layer_1" xmlns="http://www.w3.org/2000/svg" xmlns:xlink="http://www.w3.org/1999/xlink" x="0px" y="0px"
	 viewBox="0 0 300 180" style="enable-background:new 0 0 300 180;" xml:space="preserve">
<style type="text/css">
	.st0{fill:#831CA8;}
</style>
<g id="Layer_4">
</g>
<path class="st0" d="M256.7,66c-0.1,0-0.2,0-0.3,0c-0.8,0-1.5,0.3-2.1,0.7L219.8,28c0.7-0.8,1.1-1.9,1-3c-0.1-2.2-2-4-4.2-4
	c-0.1,0-0.2,0-0.3,0c-2.3,0.1-4.1,2.2-4,4.5c0,0.6,0.2,1.1,0.5,1.6l-23.5,16.6l-13,9.1c-0.8-0.8-1.9-1.3-3.1-1.3c-0.1,0-0.2,0-0.3,0
	c-1.6,0.1-3,1.1-3.6,2.6L118,40.2c0-0.3,0-0.5,0-0.8c-0.1-2.2-2-4-4.2-4c-0.1,0-0.2,0-0.3,0c-2.2,0.1-3.8,1.9-3.9,4l-25.4,2.4
	c-0.5-1.9-2.1-3.2-4.1-3.2c-0.1,0-0.2,0-0.3,0c-1.1,0.1-2.2,0.6-2.9,1.4c-0.7,0.8-1.1,1.9-1,3.1c0.1,1,0.5,1.8,1.1,2.5L45.3,82.9
	c-0.7-0.5-1.6-0.8-2.5-0.8c-0.1,0-0.2,0-0.3,0c-1.1,0.1-2.2,0.6-2.9,1.4c-0.7,0.8-1.1,1.9-1,3.1c0.1,2.2,2,4,4.2,4
	c0.1,0,0.2,0,0.3,0c0.3,0,0.5-0.1,0.8-0.1l7.2,24.1c-0.5,0.2-1,0.6-1.4,1c-0.7,0.8-1.1,1.9-1,3.1c0.1,2.2,2,4,4.2,4
	c0.1,0,0.2,0,0.3,0c1-0.1,2-0.5,2.7-1.3l9,6.6L86,143.6c-0.4,0.7-0.6,1.5-0.5,2.3c0.1,2.2,2,4,4.2,4c0.1,0,0.2,0,0.3,0
	c1.1-0.1,2.2-0.6,2.9-1.4c0.7-0.8,1.1-1.9,1.1-3.1c0-0.2,0-0.3-0.1-0.5l40.2-13.4c0.7,1.4,2.1,2.3,3.8,2.3c0.1,0,0.2,0,0.3,0
	c1.1-0.1,2-0.5,2.8-1.3l28.6,20.8c-0.4,0.7-0.5,1.4-0.5,2.2c0.1,2.2,2,4,4.2,4c0.1,0,0.2,0,0.3,0c1.1-0.1,2.2-0.6,2.9-1.4
	c0.7-0.8,1.1-1.9,1.1-3.1c0-0.1,0-0.1,0-0.2l56.1-14c0.6,1.5,2.1,2.6,3.9,2.6c0.1,0,0.2,0,0.3,0c1.1-0.1,2.2-0.6,2.9-1.4
	c0.7-0.8,1.1-1.9,1.1-3.1c-0.1-1.7-1.2-3.1-2.7-3.7l4.6-21.2l1.6-7.5c0.1,0,0.2,0,0.3,0c0.1,0,0.2,0,0.3,0c1.1-0.1,2.2-0.6,2.9-1.4
	c0.7-0.8,1.1-1.9,1.1-3.1c-0.1-1.5-1-2.8-2.3-3.5l8.5-24.2c0.3,0.1,0.5,0.1,0.8,0.1c0.1,0,0.2,0,0.3,0c1.1-0.1,2.2-0.6,2.9-1.4
	c0.7-0.8,1.1-1.9,1.1-3.1C260.8,67.7,258.9,66,256.7,66z M173.2,151c-0.1,0-0.2,0-0.3,0c-1.1,0.1-2,0.6-2.8,1.3l-28.6-20.8
	c0.4-0.7,0.5-1.4,0.5-2.2c0-0.2,0-0.3-0.1-0.5l40.8-13.3l20.3-6.6c0.2,0.5,0.5,0.9,0.9,1.2l-10.7,15.2l-18.3,26.1
	C174.5,151.2,173.9,151,173.2,151z M134.4,127.2l-20.9-10.4L97,108.4c0.2-0.5,0.2-1,0.2-1.6c0-0.2-0.1-0.4-0.1-0.6l19.7-7.1l7.8-2.8
	c0.7,1.3,2.1,2.2,3.7,2.2c0.1,0,0.2,0,0.3,0c0.1,0,0.2,0,0.3,0l7.4,27.3C135.5,126,134.9,126.6,134.4,127.2z M93.1,109.5
	c-0.1,0-0.1,0-0.1,0c-1.2,0-2.3-1-2.4-2.2c-0.1-1.3,0.9-2.4,2.2-2.5c0.1,0,0.1,0,0.1,0c1.2,0,2.3,1,2.4,2.2
	C95.4,108.3,94.4,109.4,93.1,109.5z M46.1,83.7l31.7-37.2c0.7,0.4,1.4,0.7,2.2,0.7c0.1,0,0.2,0,0.2,0l11.2,56
	c-0.7,0.2-1.3,0.6-1.8,1.2c-0.2,0.2-0.3,0.4-0.5,0.6L46.9,87.2C47,86.8,47,86.4,47,86C46.9,85.2,46.6,84.4,46.1,83.7z M83.3,45.7
	c0.6-0.7,1-1.6,1-2.6l25.4-2.4c0.3,1.3,1.2,2.3,2.3,2.8l-2.4,7.8l-16,51.7c-0.2,0-0.4-0.1-0.7-0.1c-0.1,0-0.2,0-0.2,0l-11.2-56
	C82.2,46.6,82.8,46.2,83.3,45.7z M114.1,43.9c0.1,0,0.1,0,0.2,0l7.7,29.2l4.6,17.3c-1.6,0.7-2.7,2.3-2.6,4.1c0,0.2,0.1,0.4,0.1,0.6
	l-7.9,2.9l-19.6,7.1c-0.4-0.8-1.1-1.4-1.9-1.8l15.7-50.6l2.7-8.8c0.2,0,0.4,0.1,0.7,0.1C113.9,43.9,114,43.9,114.1,43.9z
	 M170.4,58.9c0.7,0.7,1.7,1.1,2.8,1.1c0.1,0,0.2,0,0.3,0c0.5,0,1.1-0.2,1.5-0.4l9.7,14.9l19.4,29.5c-0.6,0.5-1,1.1-1.2,1.9
	l-70.4-11.5c0-0.1,0-0.2,0-0.3c0-0.7-0.3-1.4-0.7-2L155,72.1L170.4,58.9z M130.6,94.1c0.1,1.3-0.9,2.4-2.2,2.5c-0.1,0-0.1,0-0.1,0
	c-1.2,0-2.3-1-2.4-2.2c-0.1-1.3,0.9-2.4,2.2-2.5c0.1,0,0.1,0,0.1,0C129.5,91.9,130.6,92.9,130.6,94.1z M137.6,125.4
	c-0.1,0-0.2,0-0.3,0l-7.4-27.3c0.6-0.2,1.1-0.6,1.5-1.1c0.4-0.5,0.7-1,0.9-1.5l70.4,11.5c0,0.1,0,0.2,0,0.3c0,0.2,0,0.3,0.1,0.5
	l-24.6,8l-36.5,11.9c-0.7-1.4-2.1-2.4-3.8-2.4C137.8,125.4,137.7,125.4,137.6,125.4z M204.6,107.3c-0.1-1.3,0.9-2.4,2.2-2.5
	c0.1,0,0.1,0,0.1,0c1.2,0,2.3,1,2.4,2.2c0.1,1.3-0.9,2.4-2.2,2.5c-0.1,0-0.1,0-0.1,0C205.7,109.5,204.6,108.5,204.6,107.3z M208,103
	l6.5-55.3l2.2-18.3c0.1,0,0.1,0,0.2,0c0.8,0,1.5-0.3,2.1-0.7l34.6,38.7c-0.7,0.8-1.1,1.8-1,3c0,0.6,0.2,1.2,0.5,1.7l-43.1,32
	C209.4,103.6,208.7,103.2,208,103z M216.4,22.9c0.1,0,0.1,0,0.1,0c1.2,0,2.3,1,2.4,2.2c0.1,1.3-0.9,2.4-2.2,2.5c-0.1,0-0.1,0-0.1,0
	c-1.2,0-2.3-1-2.4-2.2C214.1,24.1,215.1,23,216.4,22.9z M189.3,45.2l24.2-17c0.5,0.6,1.2,1,2,1.2l-1.6,13.8l-7,59.7
	c-0.1,0-0.1,0-0.2,0c-0.5,0-1.1,0.2-1.5,0.4l-19.3-29.4l-9.8-15c0.1-0.1,0.3-0.2,0.4-0.4c0.7-0.8,1.1-1.9,1.1-3.1
	c0-0.6-0.2-1.1-0.5-1.6L189.3,45.2z M175.6,55.6c0.1,1.3-0.9,2.4-2.2,2.5c-0.1,0-0.1,0-0.1,0c-1.2,0-2.3-1-2.4-2.2
	c-0.1-1.3,0.9-2.4,2.2-2.5c0.1,0,0.1,0,0.1,0C174.5,53.4,175.5,54.3,175.6,55.6z M169,55.2c0,0.3,0,0.5,0,0.8c0,0.7,0.3,1.4,0.7,2
	L154,71.5L131,91.1c-0.7-0.7-1.7-1.1-2.8-1.1c-0.1,0-0.2,0-0.3,0c-0.1,0-0.1,0-0.2,0l-4.7-17.9l-7.6-28.7c0.6-0.2,1.1-0.6,1.5-1.1
	c0.3-0.3,0.5-0.7,0.7-1.1L169,55.2z M113.7,37.3c0.1,0,0.1,0,0.1,0c1.2,0,2.3,1,2.4,2.2c0.1,1.3-0.9,2.4-2.2,2.5c-0.1,0-0.1,0-0.1,0
	c-1.2,0-2.3-1-2.4-2.2C111.4,38.5,112.4,37.4,113.7,37.3z M80,40.5c0.1,0,0.1,0,0.1,0c1.2,0,2.3,1,2.4,2.2c0.1,1.3-0.9,2.4-2.2,2.5
	c-0.1,0-0.1,0-0.1,0c-1.2,0-2.3-1-2.4-2.2C77.7,41.7,78.7,40.6,80,40.5z M42.9,88.7c-0.1,0-0.1,0-0.1,0c-1.2,0-2.3-1-2.4-2.2
	c-0.1-1.3,0.9-2.4,2.2-2.5c0.1,0,0.1,0,0.1,0c1.2,0,2.3,1,2.4,2.2C45.2,87.4,44.2,88.6,42.9,88.7z M44.9,89.9c0.4-0.2,0.7-0.5,1-0.8
	c0.2-0.2,0.4-0.5,0.5-0.8l42.4,17.8c-0.1,0.4-0.2,0.9-0.1,1.3c0,0.1,0,0.2,0,0.3l-32.1,9c-0.7-1.5-2.1-2.5-3.9-2.5
	c-0.1,0-0.2,0-0.3,0c-0.1,0-0.2,0-0.4,0.1L44.9,89.9z M53,120.7c-0.1,0-0.1,0-0.1,0c-1.2,0-2.3-1-2.4-2.2c-0.1-1.3,0.9-2.4,2.2-2.5
	c0.1,0,0.1,0,0.1,0c1.2,0,2.3,1,2.4,2.2C55.3,119.5,54.3,120.6,53,120.7z M56.5,120.3c0.4-0.7,0.6-1.5,0.5-2.3c0-0.1,0-0.2,0-0.3
	l32.1-9c0.5,1.2,1.6,2.1,2.9,2.4l-2.5,30.2c0,0,0,0,0,0c-1,0.1-2,0.5-2.7,1.3L65.5,127L56.5,120.3z M89.9,148c-0.1,0-0.1,0-0.1,0
	c-1.2,0-2.3-1-2.4-2.2c-0.1-1.3,0.9-2.4,2.2-2.5c0.1,0,0.1,0,0.1,0c1.2,0,2.3,1,2.4,2.2C92.2,146.8,91.2,147.9,89.9,148z
	 M93.5,143.8c-0.6-1.1-1.6-1.9-2.8-2.2l2.5-30.2c0,0,0,0,0,0c1.1-0.1,2.2-0.6,2.9-1.4c0.1-0.1,0.2-0.3,0.3-0.4l16.4,8.2l21.1,10.6
	c-0.2,0.5-0.2,1-0.2,1.6c0,0.2,0,0.3,0.1,0.5L93.5,143.8z M138,132c-0.1,0-0.1,0-0.1,0c-1.2,0-2.3-1-2.4-2.2
	c-0.1-1.3,0.9-2.4,2.2-2.5c0.1,0,0.1,0,0.1,0c1.2,0,2.3,1,2.4,2.2C140.4,130.8,139.4,131.9,138,132z M173.4,157.7
	c-0.1,0-0.1,0-0.1,0c-1.2,0-2.3-1-2.4-2.2c-0.1-1.3,0.9-2.4,2.2-2.5c0.1,0,0.1,0,0.1,0c1.2,0,2.3,1,2.4,2.2
	C175.7,156.4,174.7,157.6,173.4,157.7z M177.1,153.7c-0.2-0.6-0.6-1.1-1-1.5l19.1-27.2l9.9-14.1c0.6,0.3,1.2,0.5,1.9,0.5
	c0.1,0,0.2,0,0.3,0c0.8,0,1.5-0.3,2.2-0.8l24.8,26.1c-0.6,0.8-1,1.8-0.9,2.9c0,0.1,0,0.1,0,0.2L177.1,153.7z M239.8,139.1
	c0.1,1.3-0.9,2.4-2.2,2.5c-0.1,0-0.1,0-0.1,0c-1.2,0-2.3-1-2.4-2.2c-0.1-1.3,0.9-2.4,2.2-2.5c0.1,0,0.1,0,0.1,0
	C238.7,136.8,239.7,137.8,239.8,139.1z M242.3,113.9l-4.6,21.1c-0.1,0-0.2,0-0.3,0c-0.1,0-0.2,0-0.3,0c-0.8,0.1-1.6,0.3-2.2,0.8
	l-24.8-26.1c0.6-0.7,0.9-1.6,0.9-2.5l21.3-2.7l9-1.1c0.4,1.3,1.3,2.4,2.6,2.8L242.3,113.9z M245.6,104.7c-0.1,0-0.1,0-0.1,0
	c-1.2,0-2.3-1-2.4-2.2c-0.1-1.3,0.9-2.4,2.2-2.5c0.1,0,0.1,0,0.1,0c1.2,0,2.3,1,2.4,2.2C247.9,103.5,246.9,104.6,245.6,104.7z
	 M246.3,98.2c-0.3-0.1-0.5-0.1-0.8-0.1c-0.1,0-0.2,0-0.3,0c-2.2,0.1-3.9,2-3.9,4.1l-8.4,1.1L211,106c-0.1-0.3-0.2-0.6-0.4-0.9
	l43.1-32c0.3,0.3,0.7,0.6,1,0.8L246.3,98.2z M256.8,72.6c-0.1,0-0.1,0-0.1,0c-1.2,0-2.3-1-2.4-2.2c-0.1-1.3,0.9-2.4,2.2-2.5
	c0.1,0,0.1,0,0.1,0c1.2,0,2.3,1,2.4,2.2C259.1,71.4,258.1,72.5,256.8,72.6z"/>
</svg>
