<?xml version="1.0" encoding="utf-8"?>
<!-- Generator: Adobe Illustrator 19.2.1, SVG Export Plug-In . SVG Version: 6.00 Build 0)  -->
<svg version="1.1" id="Layer_1" xmlns="http://www.w3.org/2000/svg" xmlns:xlink="http://www.w3.org/1999/xlink" x="0px" y="0px"
	 viewBox="0 0 300 180" style="enable-background:new 0 0 300 180;" xml:space="preserve">
<style type="text/css">
	.st0{fill:#831CA8;}
</style>
<g id="Layer_4">
</g>
<path class="st0" d="M267.1,56.3c-0.1,0-0.2,0-0.3,0c-0.6,0-1.3,0.2-1.8,0.4l-38-42.6c0.5-0.9,0.9-1.8,0.8-2.9
	c-0.1-2.6-2.3-4.5-4.8-4.5c-0.1,0-0.2,0-0.3,0c-2.7,0.2-4.7,2.5-4.5,5.2c0,0.4,0.1,0.9,0.3,1.3l-40.2,28.3c-0.9-0.6-1.8-1.1-3-1.1
	c-0.1,0-0.2,0-0.3,0c-1.6,0.1-3,1-3.8,2.3l-56.6-15.2c0-0.1,0-0.1,0-0.2c-0.1-2.6-2.3-4.5-4.8-4.5c-0.1,0-0.2,0-0.3,0
	c-2.3,0.1-4,1.8-4.4,4L77,29.4c-0.8-1.8-2.5-3-4.5-3c-0.1,0-0.2,0-0.3,0c-1.3,0.1-2.5,0.6-3.3,1.6c-0.9,1-1.3,2.3-1.2,3.4
	c0.1,0.9,0.3,1.7,0.9,2.4L37.2,70.6l-3.4,4c-0.6-0.3-1.3-0.4-1.9-0.4c-0.1,0-0.2,0-0.3,0c-1.3,0.1-2.5,0.6-3.3,1.6
	c-0.9,1-1.3,2.3-1.2,3.4c0.1,2.6,2.3,4.5,4.8,4.5c0,0,0,0,0.1,0l8,26.5c-0.3,0.2-0.8,0.5-1.1,0.9c-0.9,1-1.3,2.3-1.2,3.4
	c0.1,2.6,2.3,4.5,4.8,4.5c0.1,0,0.2,0,0.3,0c1-0.1,1.9-0.4,2.7-1l12.7,9.4l20.5,15.2c-0.2,0.6-0.3,1.3-0.3,1.9
	c0.1,2.6,2.3,4.5,4.8,4.5c0.1,0,0.2,0,0.3,0c1.3-0.1,2.5-0.6,3.3-1.6c0.9-1,1.3-2.2,1.2-3.4l44.3-14.8c0.9,1.3,2.4,2.2,4,2.2
	c0.1,0,0.2,0,0.3,0c1-0.1,1.9-0.4,2.7-1l31.4,22.8c-0.2,0.6-0.3,1.3-0.3,1.9c0.1,2.6,2.3,4.5,4.8,4.5c0.1,0,0.2,0,0.3,0
	c1.3-0.1,2.5-0.6,3.3-1.6c0.8-0.9,1.2-1.9,1.2-3l61.7-15.4c0.9,1.4,2.4,2.5,4.2,2.5c0.1,0,0.2,0,0.3,0c1.3-0.1,2.5-0.6,3.3-1.6
	c0.9-1,1.3-2.3,1.2-3.4c-0.1-1.7-1.1-3.1-2.6-4l6.9-31.6c1.3-0.1,2.5-0.6,3.3-1.6c0.9-1,1.3-2.3,1.2-3.4c-0.1-1.5-0.9-2.8-2-3.7
	l4-11.5l5.3-15.1c0.1,0,0.2,0,0.3,0c0.1,0,0.2,0,0.3,0c1.3-0.1,2.5-0.6,3.3-1.6c0.9-1,1.3-2.3,1.2-3.4
	C271.8,58.3,269.6,56.3,267.1,56.3z M250.3,98.4c0.4,1,1.2,1.8,2.2,2.4l-6.9,31.6c-0.6,0-1.3,0.2-1.9,0.5l-27.3-28.7
	c0.3-0.5,0.5-1.1,0.6-1.7l15.9-1.9L250.3,98.4z M175.1,150c-0.1,0-0.2,0-0.3,0c-1,0.1-1.9,0.4-2.7,1l-31.4-22.8
	c0.2-0.5,0.3-1.2,0.3-1.8l67.2-21.9c0.1,0.1,0.2,0.2,0.2,0.3l-11,15.6l-20.8,30C176.2,150.1,175.7,150,175.1,150z M91.4,102.7
	c0.1-0.4,0.1-0.8,0.1-1.2l0,0l20.1-7.3l10-3.7c0.9,1.2,2.3,1.9,3.9,2l8.2,30c-0.4,0.2-0.8,0.5-1.1,0.9L91.4,102.7z M86.9,104.4
	c-0.1,0-0.1,0-0.2,0c-1.4,0-2.5-1.1-2.6-2.5s1-2.7,2.5-2.8c0.1,0,0.1,0,0.2,0c1.4,0,2.5,1.1,2.6,2.5
	C89.4,103.1,88.3,104.3,86.9,104.4z M109.6,32.3l13.5,51.2c-1.5,0.9-2.5,2.6-2.4,4.4l0,0l-10.3,3.8l-19.8,7.2
	c-0.3-0.4-0.8-0.9-1.3-1.2l17-55.1L109.6,32.3L109.6,32.3z M172.4,49.3c0.8,0.5,1.7,0.8,2.7,0.8c0.1,0,0.2,0,0.3,0
	c0.4,0,0.8-0.1,1.2-0.2l6,9.2l26.1,39.8c-0.3,0.3-0.5,0.8-0.6,1.1l-15.3-2.5l-62.4-10.2c-0.1-0.5-0.2-1-0.4-1.4L154.3,65L172.4,49.3
	z M212.4,104.4c-0.1,0-0.1,0-0.2,0c-1.4,0-2.5-1.1-2.6-2.5s1-2.7,2.5-2.8c0.1,0,0.1,0,0.2,0c1.4,0,2.5,1.1,2.6,2.5
	C215,103.1,213.9,104.3,212.4,104.4z M211.4,97.1c-0.2,0-0.4,0.1-0.6,0.1l-26.2-40l-5.8-8.9c0.9-1,1.3-2.2,1.2-3.4
	c0-0.4-0.1-0.9-0.3-1.3l40.2-28.2c0.3,0.3,0.8,0.5,1.2,0.8l-5.8,49.5L211.4,97.1z M128.3,87.5c0.1,1.4-1,2.7-2.5,2.8
	c-0.1,0-0.1,0-0.2,0c-1.4,0-2.5-1.1-2.6-2.5s1-2.7,2.5-2.8c0.1,0,0.1,0,0.2,0C127,85,128.2,86.1,128.3,87.5z M136.2,121.8l-8.2-30
	c0.4-0.2,0.8-0.5,1.1-1c0.3-0.3,0.5-0.8,0.8-1.2l76.7,12.5l-66.5,21.7C139.4,122.6,137.9,121.8,136.2,121.8z M210.7,106.4
	c0.5,0.2,1,0.3,1.6,0.3c0.1,0,0.2,0,0.3,0c0.6,0,1.3-0.2,1.9-0.5l27.3,28.7c-0.4,0.6-0.6,1.5-0.6,2.3l-61.8,15.4
	c-0.1-0.2-0.2-0.4-0.4-0.6L210.7,106.4z M215.2,98c-0.3-0.2-0.6-0.4-1.1-0.6l3.7-31.6l5.8-49.5c0.4-0.1,0.9-0.2,1.3-0.4l38,42.6
	c-0.5,0.9-0.9,1.8-0.8,2.9c0,0.5,0.1,1,0.3,1.4L215.2,98z M222.8,9c0.1,0,0.1,0,0.2,0c1.4,0,2.5,1.1,2.6,2.5s-1,2.7-2.5,2.8
	c-0.1,0-0.1,0-0.2,0c-1.4,0-2.5-1.1-2.6-2.5S221.3,9.1,222.8,9z M174.9,42.6c0.1,0,0.1,0,0.2,0c1.4,0,2.5,1.1,2.6,2.5
	s-1,2.7-2.5,2.8c-0.1,0-0.1,0-0.2,0c-1.4,0-2.5-1.1-2.6-2.5C172.4,44,173.5,42.7,174.9,42.6z M113.3,30.7c0.2-0.2,0.3-0.4,0.5-0.8
	l56.5,15.3c0,0.1,0,0.1,0,0.2c0,0.6,0.2,1.2,0.4,1.7l-18.9,16.2l-23.7,20.3c-0.8-0.5-1.6-0.8-2.6-0.8L112,31.6
	C112.5,31.4,113,31,113.3,30.7z M109.5,24.9c0.1,0,0.1,0,0.2,0c1.4,0,2.5,1.1,2.6,2.5s-1,2.7-2.5,2.8c-0.1,0-0.1,0-0.2,0
	c-1.4,0-2.5-1.1-2.6-2.5C106.9,26.2,108.1,25,109.5,24.9z M76.1,34.3c0.5-0.6,1-1.5,1.1-2.3l27.9-2.7c0.3,1,1,1.7,1.8,2.3l-5.5,17.8
	L87,96.4l-6.1-30.8l-6-30.3C75.3,35,75.8,34.7,76.1,34.3z M72.4,28.5c0.1,0,0.1,0,0.2,0c1.4,0,2.5,1.1,2.6,2.5
	c0.1,1.4-1,2.7-2.5,2.8c-0.1,0-0.1,0-0.2,0c-1.4,0-2.5-1.1-2.6-2.5C69.9,29.8,71,28.6,72.4,28.5z M39.7,71.7l30.8-36.2
	c0.5,0.2,1.1,0.3,1.6,0.4l6.2,31.2l6,30.4c-0.5,0.3-1,0.6-1.4,1.1c0,0.1-0.1,0.1-0.1,0.2l-21.2-8.9l-25-10.5c0-0.3,0-0.5,0-0.9
	c-0.1-0.9-0.3-1.7-0.9-2.4L39.7,71.7z M46.6,111.6c-0.9-1.4-2.4-2.3-4.1-2.3c0,0,0,0-0.1,0l-8-26.5c0.3-0.2,0.8-0.5,1-0.9
	c0-0.1,0.1-0.1,0.1-0.2L57.7,91l24.2,10.1c0,0.2,0,0.3,0,0.5L46.6,111.6z M29.3,79c-0.1-1.4,1-2.7,2.5-2.8c0.1,0,0.1,0,0.2,0
	c1.4,0,2.5,1.1,2.6,2.5s-1,2.7-2.5,2.8c-0.1,0-0.1,0-0.2,0C30.6,81.5,29.4,80.4,29.3,79z M42.6,116.8c-0.1,0-0.1,0-0.2,0
	c-1.4,0-2.5-1.1-2.6-2.5s1-2.7,2.5-2.8c0.1,0,0.1,0,0.2,0c1.4,0,2.5,1.1,2.6,2.5C45.2,115.5,44.1,116.7,42.6,116.8z M47,115.8
	c0.2-0.5,0.3-1.1,0.3-1.6l35.3-9.9c0.5,0.9,1.4,1.6,2.4,1.9l-2.8,33.3c-0.8,0.1-1.4,0.4-2,0.9l-20.1-14.9L47,115.8z M83.3,146.9
	c-0.1,0-0.1,0-0.2,0c-1.4,0-2.5-1.1-2.6-2.5s1-2.7,2.5-2.8c0.1,0,0.1,0,0.2,0c1.4,0,2.5,1.1,2.6,2.5
	C85.8,145.6,84.7,146.8,83.3,146.9z M84.9,139.8l2.8-33.2c1-0.2,1.9-0.6,2.6-1.5l41.3,20.6c-0.1,0.3-0.1,0.8-0.1,1.1l-44.3,14.8
	C86.6,140.7,85.8,140.1,84.9,139.8z M136.4,129.2c-0.1,0-0.1,0-0.2,0c-1.4,0-2.5-1.1-2.6-2.5c-0.1-1.4,1-2.7,2.5-2.8
	c0.1,0,0.1,0,0.2,0c1.4,0,2.5,1.1,2.6,2.5C138.9,127.8,137.9,129.1,136.4,129.2z M175.2,157.5c-0.1,0-0.1,0-0.2,0
	c-1.4,0-2.5-1.1-2.6-2.5s1-2.7,2.5-2.8c0.1,0,0.1,0,0.2,0c1.4,0,2.5,1.1,2.6,2.5S176.8,157.4,175.2,157.5z M246,139.8
	c-0.1,0-0.1,0-0.2,0c-1.4,0-2.5-1.1-2.6-2.5s1-2.7,2.5-2.8c0.1,0,0.1,0,0.2,0c1.4,0,2.5,1.1,2.6,2.5
	C248.6,138.5,247.4,139.8,246,139.8z M254.9,99.1c-0.1,0-0.1,0-0.2,0c-1.4,0-2.5-1.1-2.6-2.5s1-2.7,2.5-2.8c0.1,0,0.1,0,0.2,0
	c1.4,0,2.5,1.1,2.6,2.5S256.4,99,254.9,99.1z M258.1,82.8l-3.1,8.9c-0.1,0-0.2,0-0.3,0s-0.2,0-0.3,0c-2.3,0.1-4.1,1.9-4.4,4.1
	l-15.6,1.9l-17.2,2.2L264.1,65l0.1,0.1L258.1,82.8z M267.3,63.7c-0.1,0-0.1,0-0.2,0c-1.4,0-2.5-1.1-2.6-2.5s1-2.7,2.5-2.8
	c0.1,0,0.1,0,0.2,0c1.4,0,2.5,1.1,2.6,2.5C269.8,62.4,268.7,63.7,267.3,63.7z"/>
</svg>
