<?xml version="1.0" encoding="utf-8"?>
<!-- Generator: Adobe Illustrator 19.1.0, SVG Export Plug-In . SVG Version: 6.00 Build 0)  -->
<svg version="1.1" id="Layer_1" xmlns="http://www.w3.org/2000/svg" xmlns:xlink="http://www.w3.org/1999/xlink" x="0px" y="0px"
	 viewBox="0 0 162 73.3" enable-background="new 0 0 162 73.3" xml:space="preserve">
<g>
	<g>
		<path fill="#4C4F54" d="M1,63.8h7.9V38.7H1.1v-7.4H18v32.6h7.8v7.8L1,71.6V63.8z"/>
		<path fill="#4C4F54" d="M23.5,31.2h7.7V8.1l9-6.9v30h9.9v7.4h-9.9c0,0,0,17.3,0,18.2c0,7.7,4.1,6.9,10,6.9v7.7
			c-7.9,0-19,1.4-19-14.6l0-18.2h-7.7V31.2z"/>
		<path fill="#4C4F54" d="M134.3,31.2h7.7V8.1l9-6.9v30h9.9v7.4h-9.9c0,0,0,17.3,0,18.2c0,7.7,4.1,6.9,10,6.9v7.7
			c-7.9,0-19,1.4-19-14.6l0-18.2h-7.7V31.2z"/>
		<path fill="#4C4F54" d="M63.9,63.8V8.9l-8.9,0V1c0,0,27.5,0.1,29.5,0.1c16.9,0,22.8,8.9,22.8,18.2c0,7.5-4.3,12.8-9.7,15.2
			c7.5,2.4,13.1,8.7,13.1,17.4c0,8.4-4.9,19.6-26.9,19.6c-1.9,0-28.9,0-28.9,0v-7.7L63.9,63.8z M83.6,31.2
			c10.2,0,13.7-5.3,13.7-11.3c0-7.3-4.1-11-15.2-11c-1.8,0-8.5,0.1-8.5,0.1v22.2H83.6z M83.8,63.8c12.3,0,16.8-4.6,16.8-12.5
			c0-6.3-4-12.6-16.4-12.6H73.7c0,1.5,0.1,25.1,0.1,25.1S81.9,63.8,83.8,63.8z"/>
		<circle fill="#FCB931" cx="11.9" cy="12.3" r="6"/>
		<path fill="#4C4F54" d="M112,63.8h7.8V38.7h-7.8v-7.4h16.8v32.6h7.8v7.8l-24.7,0V63.8z"/>
		<circle fill="#FCB931" cx="122.8" cy="12.3" r="6"/>
	</g>
</g>
</svg>
