<?xml version="1.0" encoding="utf-8"?>
<!-- Generator: Adobe Illustrator 19.1.0, SVG Export Plug-In . SVG Version: 6.00 Build 0)  -->
<svg version="1.1" id="Layer_1" xmlns="http://www.w3.org/2000/svg" xmlns:xlink="http://www.w3.org/1999/xlink" x="0px" y="0px"
	 viewBox="0 0 87 35.8" enable-background="new 0 0 87 35.8" xml:space="preserve">
<g>
	<g>
		<path d="M56.8,34.6H43V1.4h13.3c6.5,0,10.3,3.6,10.3,9.3c0,3.7-2.4,6.1-4.1,6.9c2,0.9,4.6,3,4.6,7.5C67,31.3,62.8,34.6,56.8,34.6z
			 M55,8h-3.8v6H55c2.2,0,3.4-1.2,3.4-3S57.1,8,55,8z M55.3,21.5h-4.2V28h4.2c2.3,0,3.4-1.5,3.4-3.2S57.7,21.5,55.3,21.5z"/>
	</g>
	<path d="M77.2,8.9h-4.7V1.4H86v33.2h-8.8V8.9z"/>
	<path d="M18.8,1C9.3,1,1,8,1,18c0,10,8.3,17,17.8,17c9.6,0,17.8-7,17.8-17C36.6,8,28.4,1,18.8,1z M18.8,27.4
		c-5.2,0-9.4-4.2-9.4-9.4s4.2-9.4,9.4-9.4c5.2,0,9.4,4.2,9.4,9.4S24,27.4,18.8,27.4z"/>
</g>
</svg>
