<?xml version="1.0" encoding="UTF-8"?>
<svg width="97px" height="104px" viewBox="0 0 97 104" version="1.1" xmlns="http://www.w3.org/2000/svg" xmlns:xlink="http://www.w3.org/1999/xlink">
    <!-- Generator: Sketch 44.1 (41455) - http://www.bohemiancoding.com/sketch -->
    <title>icon-marketplace</title>
    <desc>Created with Sketch.</desc>
    <defs>
        <polygon id="path-1" points="0 104 97 104 97 0 0 0"></polygon>
    </defs>
    <g id="Symbols" stroke="none" stroke-width="1" fill="none" fill-rule="evenodd">
        <g id="Sections/Apps" transform="translate(-672.000000, -231.000000)">
            <g id="icon-marketplace" transform="translate(672.000000, 231.000000)">
                <path d="M97,51.147541 C97,77.5123934 75.666807,98.8852459 49.3508772,98.8852459 C23.0349474,98.8852459 1.70175439,77.5123934 1.70175439,51.147541 C1.70175439,24.7826885 23.0349474,3.40983607 49.3508772,3.40983607 C75.666807,3.40983607 97,24.7826885 97,51.147541 Z" id="Fill-1" fill="#E9EBEC"></path>
                <path d="M17.0175439,18.7540984 L17.0175439,68.1967213" id="Stroke-3" stroke="#2A5082" stroke-width="3.4"></path>
                <path d="M6.80701754,102.295082 L85.0877193,102.295082" id="Stroke-5" stroke="#2A5082" stroke-width="3.4"></path>
                <path d="M3.40350877,102.295082 L0,102.295082" id="Stroke-7" stroke="#2A5082" stroke-width="3.4"></path>
                <path d="M91.8947368,102.295082 L88.4912281,102.295082" id="Stroke-9" stroke="#2A5082" stroke-width="3.4"></path>
                <path d="M61.2631579,28.9836066 L61.2631579,42.6229508 L54.7675614,48.9822951 C53.4827368,50.3377049 51.6975965,51.147541 49.8324737,51.147541 L45.9473684,51.147541 L40.8421053,51.147541 C35.5547544,51.147541 28.9298246,55.9843934 28.9298246,63.0819672 L28.9298246,75.0163934 L57.8596491,75.0163934 L57.8596491,61.3770492 L67.2805614,51.9403279 C68.8751053,50.3394098 69.7719298,48.172459 69.7719298,45.9117377 L69.7719298,37.5081967 C69.7719298,32.7992131 65.9617018,28.9836066 61.2631579,28.9836066" id="Fill-11" fill="#FFFFFF"></path>
                <path d="M57.8596491,75.0163934 L57.8596491,61.3770492 L67.2805614,51.9403279 C68.8751053,50.3394098 69.7719298,48.172459 69.7719298,45.9117377 L69.7719298,37.5081967 C69.7719298,32.7992131 65.9617018,28.9836066 61.2631579,28.9836066 L61.2631579,42.6229508 L54.7675614,48.9822951 C53.4827368,50.3377049 51.6975965,51.147541 49.8324737,51.147541 L45.9473684,51.147541 L40.8421053,51.147541 C35.5547544,51.147541 28.9298246,55.9843934 28.9298246,63.0819672 L28.9298246,75.0163934" id="Stroke-13" stroke="#2A5082" stroke-width="3.4"></path>
                <path d="M45.9473684,45.9511213 C49.7116491,45.9511213 52.754386,42.7612197 52.754386,38.8245639 L52.754386,36.0421377 C52.754386,32.1071869 49.7116491,28.9155803 45.9473684,28.9155803 C42.1830877,28.9155803 39.1403509,32.1071869 39.1403509,36.0421377 L39.1403509,38.8245639 C39.1403509,42.7612197 42.1830877,45.9511213 45.9473684,45.9511213" id="Fill-15" fill="#FFFFFF"></path>
                <path d="M45.9473684,45.9511213 C49.7116491,45.9511213 52.754386,42.7612197 52.754386,38.8245639 L52.754386,36.0421377 C52.754386,32.1071869 49.7116491,28.9155803 45.9473684,28.9155803 C42.1830877,28.9155803 39.1403509,32.1071869 39.1403509,36.0421377 L39.1403509,38.8245639 C39.1403509,42.7612197 42.1830877,45.9511213 45.9473684,45.9511213 Z" id="Stroke-17" stroke="#2A5082" stroke-width="3.4"></path>
                <path d="M39.1403509,63.0819672 L39.1403509,75.0163934" id="Stroke-19" stroke="#2A5082" stroke-width="3.4"></path>
                <path d="M10.2105263,73.3114754 L78.2807018,73.3114754" id="Stroke-21" stroke="#2A5082" stroke-width="3.4"></path>
                <path d="M61.2631579,11.9344262 C61.2631579,19.0848525 71.9944211,25.4066885 77.3974912,14.8702951 C78.001614,13.6921967 78.2807018,12.3640656 78.2807018,11.0410492 L78.2807018,1.70491803 L10.2105263,1.70491803 L10.2105263,11.0410492 C10.2105263,12.3640656 10.489614,13.6921967 11.0937368,14.872 C16.4985088,25.4066885 27.2280702,19.0848525 27.2280702,11.9344262 C27.2280702,16.3552787 31.3292982,20.4590164 35.7368421,20.4590164 C40.144386,20.4590164 44.245614,16.3552787 44.245614,11.9344262 C44.245614,16.3552787 48.3468421,20.4590164 52.754386,20.4590164 C57.1619298,20.4590164 61.2631579,16.3552787 61.2631579,11.9344262" id="Fill-23" fill="#A3D4FF"></path>
                <path d="M61.2631579,11.9344262 C61.2631579,19.0848525 71.9944211,25.4066885 77.3974912,14.8702951 C78.001614,13.6921967 78.2807018,12.3640656 78.2807018,11.0410492 L78.2807018,1.70491803 L10.2105263,1.70491803 L10.2105263,11.0410492 C10.2105263,12.3640656 10.489614,13.6921967 11.0937368,14.872 C16.4985088,25.4066885 27.2280702,19.0848525 27.2280702,11.9344262 C27.2280702,16.3552787 31.3292982,20.4590164 35.7368421,20.4590164 C40.144386,20.4590164 44.245614,16.3552787 44.245614,11.9344262 C44.245614,16.3552787 48.3468421,20.4590164 52.754386,20.4590164 C57.1619298,20.4590164 61.2631579,16.3552787 61.2631579,11.9344262 Z" id="Stroke-25" stroke="#2A5082" stroke-width="3.4"></path>
                <path d="M27.2280702,8.52459016 L27.2280702,11.9344262" id="Stroke-27" stroke="#2A5082" stroke-width="3.4"></path>
                <path d="M44.245614,8.52459016 L44.245614,11.9344262" id="Stroke-29" stroke="#2A5082" stroke-width="3.4"></path>
                <path d="M61.2631579,8.52459016 L61.2631579,11.9344262" id="Stroke-31" stroke="#2A5082" stroke-width="3.4"></path>
                <mask id="mask-2" fill="white">
                    <use xlink:href="#path-1"></use>
                </mask>
                <g id="Clip-34"></g>
                <polygon id="Fill-33" fill="#E9EBEC" mask="url(#mask-2)" points="17.0175439 102.295082 71.4736842 102.295082 71.4736842 73.3114754 17.0175439 73.3114754"></polygon>
                <polygon id="Stroke-35" stroke="#2A5082" stroke-width="3.4" mask="url(#mask-2)" points="17.0175439 102.295082 71.4736842 102.295082 71.4736842 73.3114754 17.0175439 73.3114754"></polygon>
                <polygon id="Fill-36" fill="#FFFFFF" mask="url(#mask-2)" points="25.5263158 93.7704918 62.9649123 93.7704918 62.9649123 81.8360656 25.5263158 81.8360656"></polygon>
                <polygon id="Stroke-37" stroke="#2A5082" stroke-width="3.4" mask="url(#mask-2)" points="25.5263158 93.7704918 62.9649123 93.7704918 62.9649123 81.8360656 25.5263158 81.8360656"></polygon>
            </g>
        </g>
    </g>
</svg>