<?xml version="1.0" encoding="UTF-8" standalone="no"?>
<svg width="156px" height="81px" viewBox="0 0 156 81" version="1.1" xmlns="http://www.w3.org/2000/svg" xmlns:xlink="http://www.w3.org/1999/xlink">
    <!-- Generator: Sketch 39.1 (31720) - http://www.bohemiancoding.com/sketch -->
    <title>icon-white-house-lrg</title>
    <desc>Created with Sketch.</desc>
    <defs></defs>
    <g id="website-(blockstack)" stroke="none" stroke-width="1" fill="none" fill-rule="evenodd">
        <g id="blockstack-v2-Home" transform="translate(-311.000000, -1016.000000)" stroke-width="1.5">
            <g id="section-1,2,34" transform="translate(0.000000, 919.000000)">
                <g id="Group-1" transform="translate(153.000000, 60.000000)">
                    <g id="icon-white-house-lrg" transform="translate(159.000000, 37.000000)">
                        <polyline id="Shape" stroke="#53206F" points="85 80 154 80 154 32 102.25 32"></polyline>
                        <polyline id="Shape" stroke="#53206F" transform="translate(34.500000, 56.000000) scale(-1, 1) translate(-34.500000, -56.000000) " points="0 80 69 80 69 32 17.25 32"></polyline>
                        <polygon id="window-4" stroke="#53206F" points="143 70 143 61 137 61 137 70"></polygon>
                        <polygon id="window-3" stroke="#53206F" points="126 70 126 61 120 61 120 70"></polygon>
                        <polygon id="window-2" stroke="#53206F" points="143 52 143 43 137 43 137 52"></polygon>
                        <polygon id="window-1" stroke="#53206F" points="126 52 126 43 120 43 120 52"></polygon>
                        <polygon id="window-4" stroke="#53206F" points="34 70 34 61 28 61 28 70"></polygon>
                        <polygon id="window-3" stroke="#53206F" points="17 70 17 61 11 61 11 70"></polygon>
                        <polygon id="window-2" stroke="#53206F" points="34 52 34 43 28 43 28 52"></polygon>
                        <polygon id="window-1" stroke="#53206F" points="17 52 17 43 11 43 11 52"></polygon>
                        <path d="M100.75,80 L100.75,38" id="pillar-4" stroke="#555555"></path>
                        <path d="M84.75,80 L84.75,38" id="pillar-3" stroke="#555555"></path>
                        <path d="M68.75,80 L68.75,38" id="pillar-2" stroke="#555555"></path>
                        <path d="M52.75,80 L52.75,38" id="pillar-1" stroke="#555555"></path>
                        <path d="M45,32 L109,32" id="Shape" stroke="#555555"></path>
                        <path d="M77,16 L77,0" id="Shape" stroke="#53206F"></path>
                        <polyline id="Shape" stroke="#53206F" points="77 9.6 87 9.6 87 3.2 77 3.2"></polyline>
                        <polygon id="Shape" stroke="#555555" points="109 32 109 80 45 80 45 32 77 16"></polygon>
                        <path d="M45,37 L109,37" id="Shape" stroke="#555555"></path>
                    </g>
                </g>
            </g>
        </g>
    </g>
</svg>