<?xml version="1.0" encoding="UTF-8" standalone="no"?>
<svg width="145px" height="82px" viewBox="0 0 145 82" version="1.1" xmlns="http://www.w3.org/2000/svg" xmlns:xlink="http://www.w3.org/1999/xlink">
    <!-- Generator: Sketch 39.1 (31720) - http://www.bohemiancoding.com/sketch -->
    <title>icon-data-server-browse</title>
    <desc>Created with Sketch.</desc>
    <defs></defs>
    <g id="website-(blockstack)" stroke="none" stroke-width="1" fill="none" fill-rule="evenodd">
        <g id="blockstack-v2-Home" transform="translate(-799.000000, -1389.000000)" stroke-width="1.5">
            <g id="section-1,2,34" transform="translate(0.000000, 919.000000)">
                <g id="Group-4" transform="translate(626.000000, 418.000000)">
                    <g id="icon-data-server-browse" transform="translate(174.000000, 53.000000)">
                        <g id="icon-browser" transform="translate(56.000000, 5.000000)">
                            <path d="M6,6 L8,6" id="Shape" stroke="#53206F"></path>
                            <path d="M14,6 L16,6" id="Shape" stroke="#53206F"></path>
                            <path d="M30,6 L38,6" id="Shape" stroke="#53206F"></path>
                            <path d="M0,12 L44,12" id="Shape" stroke="#555555"></path>
                            <rect id="Rectangle-path" stroke="#555555" x="0" y="0" width="44" height="40"></rect>
                        </g>
                        <g id="icon-database" transform="translate(107.000000, 18.000000)">
                            <path d="M0,6 L0,38 C0,41.3 8.1,44 18,44 C27.9,44 36,41.3 36,38 L36,6" id="Shape" stroke="#555555" fill="#FFFFFF"></path>
                            <ellipse id="Oval" stroke="#53206F" fill="#FFFFFF" cx="18" cy="6" rx="18" ry="6"></ellipse>
                            <path d="M36,22 C36,25.3 27.9,28 18,28 C8.1,28 0,25.3 0,22" id="Shape" stroke="#555555"></path>
                        </g>
                        <g id="icon-database" transform="translate(74.000000, 36.000000)">
                            <path d="M0,6 L0,38 C0,41.3 8.1,44 18,44 C27.9,44 36,41.3 36,38 L36,6" id="Shape" stroke="#555555" fill="#FFFFFF"></path>
                            <ellipse id="Oval" stroke="#53206F" fill="#FFFFFF" cx="18" cy="6" rx="18" ry="6"></ellipse>
                            <path d="M36,22 C36,25.3 27.9,28 18,28 C8.1,28 0,25.3 0,22" id="Shape" stroke="#555555"></path>
                        </g>
                        <g id="icon-server">
                            <path d="M0,64 L44,64" id="Shape" stroke="#555555"></path>
                            <polygon id="Shape" stroke="#555555" points="44 64 44 80 0 80 0 64"></polygon>
                            <path d="M8,72 L36,72" id="Shape" stroke="#53206F"></path>
                            <path d="M0,48 L44,48" id="Shape" stroke="#555555"></path>
                            <polygon id="Shape" stroke="#555555" points="44 48 44 64 0 64 0 48"></polygon>
                            <path d="M8,56 L36,56" id="Shape" stroke="#53206F"></path>
                            <path d="M0,32 L44,32" id="Shape" stroke="#555555"></path>
                            <polygon id="Shape" stroke="#555555" points="44 32 44 48 0 48 0 32"></polygon>
                            <path d="M8,40 L36,40" id="Shape" stroke="#53206F"></path>
                            <path d="M0,16 L44,16" id="Shape" stroke="#555555"></path>
                            <polygon id="Shape" stroke="#555555" points="44 16 44 32 0 32 0 16 10 0 34 0"></polygon>
                            <path d="M8,24 L36,24" id="Shape" stroke="#53206F"></path>
                        </g>
                    </g>
                </g>
            </g>
        </g>
    </g>
</svg>