<?xml version="1.0" encoding="UTF-8"?>
<svg width="209px" height="240px" viewBox="0 0 209 240" version="1.1" xmlns="http://www.w3.org/2000/svg" xmlns:xlink="http://www.w3.org/1999/xlink">
    <!-- Generator: Sketch 46.2 (44496) - http://www.bohemiancoding.com/sketch -->
    <title>icon-whitepaper</title>
    <desc>Created with Sketch.</desc>
    <defs>
        <path d="M111.282895,53.2278837 L111.282895,0 L8.90263158,0 C3.98392763,0 0,3.96991299 0,8.87131395 L0,195.168907 C0,200.070308 3.98392763,204.040221 8.90263158,204.040221 L160.247368,204.040221 C165.166072,204.040221 169.15,200.070308 169.15,195.168907 L169.15,57.6635407 L115.734211,57.6635407 C113.277084,57.6635407 111.282895,55.6763663 111.282895,53.2278837 Z M40.0618421,62.0991976 L75.6723684,62.0991976 C78.1339461,62.0991976 80.1236842,64.086372 80.1236842,66.5348546 C80.1236842,68.9833373 78.1339461,70.9705116 75.6723684,70.9705116 L40.0618421,70.9705116 C37.6002645,70.9705116 35.6105263,68.9833373 35.6105263,66.5348546 C35.6105263,64.086372 37.6002645,62.0991976 40.0618421,62.0991976 Z M129.088158,159.683651 L40.0618421,159.683651 C37.6002645,159.683651 35.6105263,157.696477 35.6105263,155.247994 C35.6105263,152.799511 37.6002645,150.812337 40.0618421,150.812337 L129.088158,150.812337 C131.549736,150.812337 133.539474,152.799511 133.539474,155.247994 C133.539474,157.696477 131.549736,159.683651 129.088158,159.683651 Z M133.539474,110.891424 C133.539474,113.339907 131.549736,115.327081 129.088158,115.327081 L40.0618421,115.327081 C37.6002645,115.327081 35.6105263,113.339907 35.6105263,110.891424 C35.6105263,108.442942 37.6002645,106.455767 40.0618421,106.455767 L129.088158,106.455767 C131.549736,106.455767 133.539474,108.442942 133.539474,110.891424 Z" id="path-1"></path>
    </defs>
    <g id="Page-1" stroke="none" stroke-width="1" fill="none" fill-rule="evenodd">
        <g id="icon-whitepaper" transform="translate(12.000000, 0.000000)" fill-rule="nonzero">
            <g id="single-folded-content-copy" opacity="0.497678895" transform="translate(27.200000, 0.000000)" fill="#FFFFFF">
                <polygon id="Shape" points="120.482281 7.09705116 120.482281 48.8543259 162.386968 48.8543259"></polygon>
                <path d="M111.282895,53.2278837 L111.282895,0 L8.90263158,0 C3.98392763,0 0,3.96991299 0,8.87131395 L0,195.168907 C0,200.070308 3.98392763,204.040221 8.90263158,204.040221 L160.247368,204.040221 C165.166072,204.040221 169.15,200.070308 169.15,195.168907 L169.15,57.6635407 L115.734211,57.6635407 C113.277084,57.6635407 111.282895,55.6763663 111.282895,53.2278837 Z M40.0618421,62.0991976 L75.6723684,62.0991976 C78.1339461,62.0991976 80.1236842,64.086372 80.1236842,66.5348546 C80.1236842,68.9833373 78.1339461,70.9705116 75.6723684,70.9705116 L40.0618421,70.9705116 C37.6002645,70.9705116 35.6105263,68.9833373 35.6105263,66.5348546 C35.6105263,64.086372 37.6002645,62.0991976 40.0618421,62.0991976 Z M129.088158,159.683651 L40.0618421,159.683651 C37.6002645,159.683651 35.6105263,157.696477 35.6105263,155.247994 C35.6105263,152.799511 37.6002645,150.812337 40.0618421,150.812337 L129.088158,150.812337 C131.549736,150.812337 133.539474,152.799511 133.539474,155.247994 C133.539474,157.696477 131.549736,159.683651 129.088158,159.683651 Z M133.539474,110.891424 C133.539474,113.339907 131.549736,115.327081 129.088158,115.327081 L40.0618421,115.327081 C37.6002645,115.327081 35.6105263,113.339907 35.6105263,110.891424 C35.6105263,108.442942 37.6002645,106.455767 40.0618421,106.455767 L129.088158,106.455767 C131.549736,106.455767 133.539474,108.442942 133.539474,110.891424 Z" id="Shape"></path>
            </g>
            <g id="single-folded-content" transform="translate(0.000000, 24.650000)">
                <g id="Shape">
                    <use fill="#FFFFFF" fill-rule="evenodd" xlink:href="#path-1"></use>
                    <path stroke="#270F34" stroke-width="11.05" d="M116.807895,52.1385407 L174.675,52.1385407 L174.675,195.168907 C174.675,203.126048 168.213096,209.565221 160.247368,209.565221 L8.90263158,209.565221 C0.936904403,209.565221 -5.525,203.126048 -5.525,195.168907 L-5.525,8.87131395 C-5.525,0.91417275 0.936904403,-5.525 8.90263158,-5.525 L116.807895,-5.525 L116.807895,52.1385407 Z M40.0618421,67.6241976 L75.6723684,67.6241976 C75.0845343,67.6241976 74.5986842,67.1397221 74.5986842,66.5348546 C74.5986842,65.9299872 75.0845343,65.4455116 75.6723684,65.4455116 L40.0618421,65.4455116 C40.6496762,65.4455116 41.1355263,65.9299872 41.1355263,66.5348546 C41.1355263,67.1397221 40.6496762,67.6241976 40.0618421,67.6241976 Z M129.088158,154.158651 L40.0618421,154.158651 C40.6496762,154.158651 41.1355263,154.643127 41.1355263,155.247994 C41.1355263,155.852862 40.6496762,156.337337 40.0618421,156.337337 L129.088158,156.337337 C128.500324,156.337337 128.014474,155.852862 128.014474,155.247994 C128.014474,154.643127 128.500324,154.158651 129.088158,154.158651 Z M128.014474,110.891424 C128.014474,110.286557 128.500324,109.802081 129.088158,109.802081 L40.0618421,109.802081 C40.6496762,109.802081 41.1355263,110.286557 41.1355263,110.891424 C41.1355263,111.496292 40.6496762,111.980767 40.0618421,111.980767 L129.088158,111.980767 C128.500324,111.980767 128.014474,111.496292 128.014474,110.891424 Z"></path>
                </g>
            </g>
        </g>
    </g>
</svg>