<?xml version="1.0" encoding="UTF-8" standalone="no"?>
<svg width="148px" height="84px" viewBox="0 0 148 84" version="1.1" xmlns="http://www.w3.org/2000/svg" xmlns:xlink="http://www.w3.org/1999/xlink">
    <!-- Generator: Sketch 39.1 (31720) - http://www.bohemiancoding.com/sketch -->
    <title>icon-decentralized</title>
    <desc>Created with Sketch.</desc>
    <defs></defs>
    <g id="website-(blockstack)" stroke="none" stroke-width="1" fill="none" fill-rule="evenodd">
        <g id="blockstack-v2-Home" transform="translate(-789.000000, -1022.000000)" stroke-width="1.5">
            <g id="section-1,2,34" transform="translate(0.000000, 919.000000)">
                <g id="Group-2" transform="translate(626.000000, 60.000000)">
                    <g id="icon-decentralized" transform="translate(164.000000, 44.000000)">
                        <path d="M24.8681319,26.5294118 L74.6043956,53.0588235" id="Shape" stroke="#53206F"></path>
                        <path d="M39.3076923,57.8823529 L74.6043956,53.0588235" id="Shape" stroke="#53206F"></path>
                        <path d="M109.901099,30.5490196 L74.6043956,53.0588235" id="Shape" stroke="#53206F"></path>
                        <path d="M109.901099,29.75 L89.8461538,29.75" id="Shape" stroke="#555555"></path>
                        <path d="M109.901099,30.5490196 L95.4615385,12.8627451" id="Shape" stroke="#555555"></path>
                        <path d="M109.901099,30.5490196 L124.340659,3.21568627" id="Shape" stroke="#555555"></path>
                        <path d="M109.901099,30.5490196 L142.791209,29.745098" id="Shape" stroke="#555555"></path>
                        <path d="M109.901099,30.5490196 L128.351648,52.254902" id="Shape" stroke="#555555"></path>
                        <path d="M101.879121,61.0980392 L74.6043956,53.0588235" id="Shape" stroke="#555555"></path>
                        <path d="M82.6263736,71.5490196 L74.6043956,53.0588235" id="Shape" stroke="#555555"></path>
                        <path d="M67.3846154,27.3333333 L74.6043956,53.0588235" id="Shape" stroke="#555555"></path>
                        <path d="M24.8681319,26.5294118 L4.01098901,45.0196078" id="Shape" stroke="#555555"></path>
                        <path d="M24.8681319,26.5294118 L28.8791209,45.8235294" id="Shape" stroke="#555555"></path>
                        <path d="M39.3076923,57.8823529 L24.0659341,71.5490196" id="Shape" stroke="#555555"></path>
                        <path d="M39.3076923,57.8823529 L60.1648352,77.9803922" id="Shape" stroke="#555555"></path>
                        <path d="M24.8681319,26.5294118 L3.20879121,17.6862745" id="Shape" stroke="#555555"></path>
                        <path d="M24.8681319,26.5294118 L52.9450549,11.254902" id="Shape" stroke="#555555"></path>
                        <path d="M24.8681319,26.5294118 L25.6703297,6.43137255" id="Shape" stroke="#555555"></path>
                        <ellipse id="Oval-Copy-3" stroke="#53206F" fill="#FFFFFF" cx="74.6043956" cy="53.0588235" rx="4.01098901" ry="4.01960784"></ellipse>
                        <ellipse id="Oval-Copy-6" stroke="#53206F" fill="#FFFFFF" cx="109.901099" cy="30.5490196" rx="4.01098901" ry="4.01960784"></ellipse>
                        <ellipse id="Oval-Copy-4" stroke="#53206F" fill="#FFFFFF" cx="39.3076923" cy="57.8823529" rx="4.01098901" ry="4.01960784"></ellipse>
                        <ellipse id="Oval" stroke="#53206F" fill="#FFFFFF" cx="24.8681319" cy="26.5294118" rx="4.01098901" ry="4.01960784"></ellipse>
                        <ellipse id="Oval" stroke="#555555" fill="#FFFFFF" cx="4.01098901" cy="45.0196078" rx="4.01098901" ry="4.01960784"></ellipse>
                        <ellipse id="Oval-Copy-8" stroke="#555555" fill="#FFFFFF" cx="24.0659341" cy="71.5490196" rx="4.01098901" ry="4.01960784"></ellipse>
                        <ellipse id="Oval-Copy-9" stroke="#555555" fill="#FFFFFF" cx="60.1648352" cy="77.9803922" rx="4.01098901" ry="4.01960784"></ellipse>
                        <ellipse id="Oval-Copy-14" stroke="#555555" fill="#FFFFFF" cx="82.6263736" cy="71.5490196" rx="4.01098901" ry="4.01960784"></ellipse>
                        <ellipse id="Oval-Copy-15" stroke="#555555" fill="#FFFFFF" cx="101.879121" cy="61.0980392" rx="4.01098901" ry="4.01960784"></ellipse>
                        <ellipse id="Oval-Copy-18" stroke="#555555" fill="#FFFFFF" cx="128.351648" cy="52.254902" rx="4.01098901" ry="4.01960784"></ellipse>
                        <ellipse id="Oval-Copy" stroke="#555555" fill="#FFFFFF" cx="3.20879121" cy="17.6862745" rx="3.20879121" ry="3.21568627"></ellipse>
                        <ellipse id="Oval-Copy-5" stroke="#555555" fill="#FFFFFF" cx="28.8791209" cy="45.8235294" rx="3.20879121" ry="3.21568627"></ellipse>
                        <ellipse id="Oval-Copy-7" stroke="#555555" fill="#FFFFFF" cx="52.9450549" cy="11.254902" rx="3.20879121" ry="3.21568627"></ellipse>
                        <ellipse id="Oval-Copy-2" stroke="#555555" fill="#FFFFFF" cx="25.6703297" cy="6.43137255" rx="3.20879121" ry="3.21568627"></ellipse>
                        <ellipse id="Oval-Copy-10" stroke="#555555" fill="#FFFFFF" cx="95.4615385" cy="12.8627451" rx="3.20879121" ry="3.21568627"></ellipse>
                        <ellipse id="Oval-Copy-16" stroke="#555555" fill="#FFFFFF" cx="89.8461538" cy="30.5490196" rx="3.20879121" ry="3.21568627"></ellipse>
                        <ellipse id="Oval-Copy-17" stroke="#555555" fill="#FFFFFF" cx="124.340659" cy="3.21568627" rx="3.20879121" ry="3.21568627"></ellipse>
                        <ellipse id="Oval-Copy-11" stroke="#555555" fill="#FFFFFF" cx="142.791209" cy="29.745098" rx="3.20879121" ry="3.21568627"></ellipse>
                        <ellipse id="Oval-Copy-13" stroke="#555555" fill="#FFFFFF" cx="67.3846154" cy="27.3333333" rx="3.20879121" ry="3.21568627"></ellipse>
                    </g>
                </g>
            </g>
        </g>
    </g>
</svg>