<?xml version="1.0" encoding="utf-8"?>
<!-- Generator: Adobe Illustrator 19.0.1, SVG Export Plug-In . SVG Version: 6.00 Build 0)  -->
<svg version="1.1" id="Layer_1" xmlns="http://www.w3.org/2000/svg" xmlns:xlink="http://www.w3.org/1999/xlink" x="0px" y="0px"
	 viewBox="-245 217 300 180" enable-background="new -245 217 300 180" xml:space="preserve">
<g id="Layer_4">
</g>
<g id="Layer_1_1_">
	<g>
		<path fill="#831CA8" d="M-43.6,304.9c0,21.1-13.6,40.4-33.4,47.6c-20.1,7.3-43.1,0.9-56.6-15.6c-13.3-16.3-15.1-39.9-4.2-58
			c10.8-18,32.1-27.7,52.8-23.9C-61.3,259.4-43.6,280.8-43.6,304.9z M-77.7,289.8c0.4-0.5,0.7-1,0.9-1.5c0.9-0.8,1.9-1.3,3.1-1.5
			c1.5-0.4,3.9-0.9,5.1,0.4c-0.7-0.8,3.5-2.3,3.6-2.4c0.8-1.7-1.3-1.5-1.5-3.3c0,0.5-2,0.3-2.6-0.2c-1.2-0.9-1.2-2.6-2.5-3.7
			c-1.8-1.5-0.2-0.6-1.9-0.3c-0.6,0.1-2,0.7-2.7,1.1c1.2-0.4-0.9-1-1.1-0.9c1.5-0.4-0.6-1.7,0.3-1.7c-0.4-1.9-6.4-2.9-7.3-1.5
			c0,0.1,0,3.8,0,4c0,0.3,1.2,0.6,1.2,0.9c0,1-0.8,1.2-1,1.9c-0.1,0.4-1,0.8-1.2,1.5c-0.2,0.8,1,1.5,0.6,2.2c-1.1,1.8-2.5,0-3.1-0.8
			c-0.5-0.6-0.3-1.5-0.9-2.1c-0.9-0.8-1.6,0-2.3-0.4c-2.3-1.1-3.4-2.4-6.5-2c0.5-0.1-0.2-2.1-1.3-1.8c0.7-1.4,0.4-2.8,1.6-4.1
			c1.3-1.5,1.7-0.7,3.5-1.7c1.6-0.9,1.7-2.2,3.4-2.7c1.9-0.7,2.4,1.5,2-1.5c-0.3-2.6-1.2-1.3-2.3-0.6c-0.4,0.3-0.7,1.2-1.2,1.4
			c-1.4,0.4-0.6-0.4-1.4-0.4c-0.6,0-0.7-3-1.9-0.5c0.4-0.9-1.8-1.4-2.3-1.5c1.7-1.1-2.1-3-3.2-1.8c-1.5,1.9,2.3,1.5,2.5,2.5
			c0.2,0.9-0.8,0.4-0.9,0.9c0.1-0.8-1.4,2.7-0.9,2.3c-0.4-0.7-0.8-1.5-1.1-2.2c0.1,0.1-4.9,0.4-5.6-0.3c-0.7-0.6,0.9-1.3-0.8-2.1
			c-1.4-0.7-5.2,1.8-6.5,2.4c3.3,0.9,4.1-3.9,6.7,0c-0.5-0.2-2.4-0.3-2.8,0.2c-0.9,0.9,0.1,0.7-0.3,1.7c-2.3-1.6-3.1-2.1-5.7-0.7
			c-2.9,1.4-5.5,3.9-7.8,6.1c-1.6,1.5-5.3,4.7-5.7,6.9c0,0.1,0.5,3.2,1.5,2.4c0.5,0.4,0.4,1.2,1.2,1.8c0.7,0.5,1.8,0.9,2.3,1.5
			c2.4,3.3-0.7,1.1-0.9,1.4c-0.2,0.4,0,2.1,0.7,2c-1.4,0.1-1.3,9.2,1.1,8.6c-0.5,0.1,5.3,7.4,5.5,7.9c0.4,0.9,3.3,7,4.2,6.7
			c0.2-2.3-2.5-5.8-3.4-8c2.1,0.5,3.7,4.6,5.3,6.4c1.9,2.2,2.9,6.4,5.8,8.3c2.3,1.6,4.2,1.2,6.4,1.8c1.7,0.5,2.3,1.8,3.9,2.6
			c0.8,0.4,2.6,0.1,3.1,0.5c0.2,0.1,0.3,1.2,0.6,1.5c0.5,0.5,3.3,5,3.8,2.9c-0.5,1.5,2.6,3.1,2.6-0.1c-1.6,0.8-3.1-0.4-3.6-1.9
			c-0.4-1.1,0.8-1.5,0.7-1.8c-0.1-0.9-0.4-2.2-1-2.8c-1.1-1.2-2.3,0.1-3-1.2c0.1,0.9-0.3,1.1-1.2,0.7c0.2-1.4,2.1-5.4,0.6-5.9
			c-2.7-0.9-2.1,4-5.6,3.2c-3-0.7-2.9-3.9-2.9-6.3c0-1.5,0-2.7,0.4-3.9c0-0.1,2.7-1.7,1.2-1.7c0.3,0.1,3.9,0.2,4.1,0.2
			c1.6-0.8,0.1-0.3,0.9-1.8c0.1,0.4,5.2,2.1,5.8,1.5c0.7,1,0.9,3.9,2,4.5c1.4,0.8,1-1.7,0.9-2.2c0-0.5,0-1.2-0.1-1.7
			c-0.2-0.8-1.2-0.7-1.2-1.5c-0.1-2.4,4.2-4.1,5.2-6.4c-3.7-1.1,3.5-4.7,4.5-5.5c0.3-0.2,0.6-1.6,1.1-2.1c0.4-0.3,1.5-0.7,2-1.1
			c1.1-0.7,4-2.6,0.5-3.3c0,0,2.5,0,1.8-0.8C-74.2,286-76.4,289.6-77.7,289.8z M-63.8,334c-0.4-0.4-1.2-0.3-1.6-0.5
			c-2.2-1-0.9-0.9-2.4-2c-1.7-1.3-2.8-1.5-4.5-1.9c-0.3-0.1-0.7,0.6-0.8,0.6c-0.6-0.1-1.7-1.2-2.4-1.5c-2.6-1.1-2.3-0.9-3.4,1.4
			c-1.2-1,1.7-2.1-0.8-2.6c-1.4-0.3-3.3,2.8-3.7,3.6c-0.5-0.3-0.9-0.5-1.4-0.8c0.3,1.6,1,4.3,0.7,5.9c-0.4,1.7-2.1,2.5-2.4,4
			c-0.3,1.6,0.2,2,0.2,3.4c0,1-0.9,1.7-0.6,2.9C-78.2,344.9-70,340.5-63.8,334C-64.2,333.6-69.9,340.4-63.8,334z"/>
	</g>
</g>
</svg>
