<?xml version="1.0" encoding="UTF-8"?>
<svg width="104px" height="99px" viewBox="0 0 104 99" version="1.1" xmlns="http://www.w3.org/2000/svg" xmlns:xlink="http://www.w3.org/1999/xlink">
    <!-- Generator: Sketch 44.1 (41455) - http://www.bohemiancoding.com/sketch -->
    <title>icon-community-vote</title>
    <desc>Created with Sketch.</desc>
    <defs>
        <polygon id="path-1" points="0 99 104 99 104 0 0 0"></polygon>
    </defs>
    <g id="Symbols" stroke="none" stroke-width="1" fill="none" fill-rule="evenodd">
        <g id="Sections/Apps" transform="translate(-1022.000000, -234.000000)">
            <g id="icon-community-vote" transform="translate(1022.000000, 234.000000)">
                <path d="M81.8360656,40.9655172 C81.8360656,63.590431 63.5167213,81.9310345 40.9180328,81.9310345 C18.3193443,81.9327414 0,63.590431 0,40.9655172 C0,18.3406034 18.3193443,0 40.9180328,0 C63.5167213,0 81.8360656,18.3406034 81.8360656,40.9655172 Z" id="Fill-1" fill="#E9EBEC"></path>
                <path d="M97.1803279,39.2586207 L92.0655738,39.2586207 L92.0655738,51.2068966 L17.0491803,51.2068966 L17.0491803,39.2586207 L11.9344262,39.2586207 C9.10937705,39.2586207 6.81967213,41.5509828 6.81967213,44.3793103 L6.81967213,97.2931034 L102.295082,97.2931034 L102.295082,44.3793103 C102.295082,41.5509828 100.005377,39.2586207 97.1803279,39.2586207" id="Fill-3" fill="#A3D4FF"></path>
                <path d="M17.0491803,39.2586207 L11.9344262,39.2586207 C9.10937705,39.2586207 6.81967213,41.5509828 6.81967213,44.3793103 L6.81967213,97.2931034 L102.295082,97.2931034 L102.295082,44.3793103 C102.295082,41.5509828 100.005377,39.2586207 97.1803279,39.2586207 L92.0655738,39.2586207" id="Stroke-5" stroke="#2A5082" stroke-width="3.4"></path>
                <path d="M88.6557377,23.8965517 L98.8852459,23.8965517 L98.8852459,22.0138448 C98.8852459,18.3406034 95.9101639,15.362069 92.2411803,15.362069 L85.2459016,15.362069" id="Stroke-7" stroke="#2A5082" stroke-width="3.4"></path>
                <path d="M30.6885246,15.362069 C26.9223607,15.362069 23.8688525,18.4191207 23.8688525,22.1896552 L23.8688525,56.3275862 L85.2459016,56.3275862 L85.2459016,22.1896552 C85.2459016,18.1528448 88.0624262,15.362069 92.0655738,15.362069 L30.6885246,15.362069 Z" id="Fill-9" fill="#FFFFFF"></path>
                <path d="M30.6885246,15.362069 C26.9223607,15.362069 23.8688525,18.4191207 23.8688525,22.1896552 L23.8688525,56.3275862 L85.2459016,56.3275862 L85.2459016,22.1896552 C85.2459016,18.1528448 88.0624262,15.362069 92.0655738,15.362069 L30.6885246,15.362069 Z" id="Stroke-11" stroke="#2A5082" stroke-width="3.4"></path>
                <path d="M13.6393443,56.3275862 L95.4754098,56.3275862" id="Stroke-13" stroke="#2A5082" stroke-width="3.4"></path>
                <polyline id="Stroke-15" stroke="#2A5082" stroke-width="3.4" points="42.6229508 37.186619 48.1025574 42.6725845 57.9672131 27.3105155"></polyline>
                <mask id="mask-2" fill="white">
                    <use xlink:href="#path-1"></use>
                </mask>
                <g id="Clip-18"></g>
                <polygon id="Stroke-17" stroke="#2A5082" stroke-width="3.4" mask="url(#mask-2)" points="39.2131148 47.7931034 56.2622951 47.7931034 56.2622951 30.7241379 39.2131148 30.7241379"></polygon>
            </g>
        </g>
    </g>
</svg>