<?xml version="1.0" encoding="UTF-8"?>
<svg width="89px" height="103px" viewBox="0 0 89 103" version="1.1" xmlns="http://www.w3.org/2000/svg" xmlns:xlink="http://www.w3.org/1999/xlink">
    <!-- Generator: Sketch 44.1 (41455) - http://www.bohemiancoding.com/sketch -->
    <title>icon-decentralized-social</title>
    <desc>Created with Sketch.</desc>
    <defs></defs>
    <g id="Symbols" stroke="none" stroke-width="1" fill="none" fill-rule="evenodd">
        <g id="Sections/Apps" transform="translate(-322.000000, -229.000000)">
            <g id="icon-decentralized-social" transform="translate(324.000000, 231.000000)">
                <path d="M85,49.5 C85,73.0671207 65.9719,92.1724138 42.5,92.1724138 C19.0281,92.1724138 0,73.0671207 0,49.5 C0,25.9328793 19.0281,6.82758621 42.5,6.82758621 C65.9719,6.82758621 85,25.9328793 85,49.5" id="Fill-1" fill="#E9EBEC"></path>
                <path d="M42.5,85.3448276 L42.5,13.6551724" id="Stroke-3" stroke="#2A5082" stroke-width="3.4"></path>
                <path d="M73.41705,31.5775862 L11.58295,67.4224138" id="Stroke-5" stroke="#2A5082" stroke-width="3.4"></path>
                <path d="M11.58295,31.5775862 L73.41705,67.4224138" id="Stroke-7" stroke="#2A5082" stroke-width="3.4"></path>
                <path d="M69.7,49.5017069 C69.7,64.5838448 57.5212,76.8103448 42.5,76.8103448 C27.4788,76.8103448 15.3,64.5838448 15.3,49.5 C15.3,34.4161552 27.4788,22.1896552 42.5,22.1896552 C57.5212,22.1896552 69.7,34.4178621 69.7,49.5017069" id="Fill-9" fill="#FFFFFF"></path>
                <path d="M69.7,49.5017069 C69.7,64.5838448 57.5212,76.8103448 42.5,76.8103448 C27.4788,76.8103448 15.3,64.5838448 15.3,49.5 C15.3,34.4161552 27.4788,22.1896552 42.5,22.1896552 C57.5212,22.1896552 69.7,34.4178621 69.7,49.5017069 Z" id="Stroke-11" stroke="#2A5082" stroke-width="3.4"></path>
                <path d="M18.7,20.4827586 L30.6,13.6551724" id="Stroke-13" stroke="#2A5082" stroke-width="3.4"></path>
                <path d="M6.8,59.7413793 L6.8,39.2586207" id="Stroke-15" stroke="#2A5082" stroke-width="3.4"></path>
                <path d="M30.6,85.3448276 L18.7,78.5172414" id="Stroke-17" stroke="#2A5082" stroke-width="3.4"></path>
                <path d="M66.3,78.5172414 L54.4,85.3448276" id="Stroke-19" stroke="#2A5082" stroke-width="3.4"></path>
                <path d="M78.2,39.2586207 L78.2,59.7413793" id="Stroke-21" stroke="#2A5082" stroke-width="3.4"></path>
                <path d="M54.4,13.6551724 L66.3,20.4827586" id="Stroke-23" stroke="#2A5082" stroke-width="3.4"></path>
                <path d="M42.5,54.6206897 C37.4697,54.6206897 27.2,56.1108103 27.2,61.4482759 L27.2,64.862069 C31.3378,68.3543793 36.6707,70.4658103 42.5,70.4658103 C48.3293,70.4658103 53.6622,68.3543793 57.8,64.862069 L57.8,61.4482759 C57.8,56.1108103 47.5303,54.6206897 42.5,54.6206897" id="Fill-25" fill="#A3D4FF"></path>
                <path d="M42.5,47.7931034 C46.2502,47.7931034 49.3,44.8435862 49.3,41.2096034 L49.3,37.305931 C49.3,33.6719483 46.2502,30.7241379 42.5,30.7241379 C38.7481,30.7241379 35.7,33.6719483 35.7,37.305931 L35.7,41.2096034 C35.7,44.8452931 38.7481,47.7931034 42.5,47.7931034" id="Fill-27" fill="#FFFFFF"></path>
                <path d="M42.5,47.7931034 C46.2502,47.7931034 49.3,44.8435862 49.3,41.2096034 L49.3,37.305931 C49.3,33.6719483 46.2502,30.7241379 42.5,30.7241379 C38.7481,30.7241379 35.7,33.6719483 35.7,37.305931 L35.7,41.2096034 C35.7,44.8452931 38.7481,47.7931034 42.5,47.7931034 Z" id="Stroke-29" stroke="#2A5082" stroke-width="3.4"></path>
                <path d="M57.8,64.862069 L57.8,61.4482759 C57.8,56.1108103 47.5303,54.6206897 42.5,54.6206897 C37.4697,54.6206897 27.2,56.1108103 27.2,61.4482759 L27.2,64.862069" id="Stroke-31" stroke="#2A5082" stroke-width="3.4"></path>
                <path d="M49.3,6.82758621 C49.3,10.5981207 46.2553,13.6551724 42.5,13.6551724 C38.7447,13.6551724 35.7,10.5981207 35.7,6.82758621 C35.7,3.05705172 38.7447,0 42.5,0 C46.2553,0 49.3,3.05705172 49.3,6.82758621" id="Fill-33" fill="#FFFFFF"></path>
                <path d="M49.3,6.82758621 C49.3,10.5981207 46.2553,13.6551724 42.5,13.6551724 C38.7447,13.6551724 35.7,10.5981207 35.7,6.82758621 C35.7,3.05705172 38.7447,0 42.5,0 C46.2553,0 49.3,3.05705172 49.3,6.82758621 Z" id="Stroke-35" stroke="#2A5082" stroke-width="3.4"></path>
                <path d="M85,27.3103448 C85,31.0808793 81.9553,34.137931 78.2,34.137931 C74.4447,34.137931 71.4,31.0808793 71.4,27.3103448 C71.4,23.5398103 74.4447,20.4827586 78.2,20.4827586 C81.9553,20.4827586 85,23.5398103 85,27.3103448" id="Fill-37" fill="#FFFFFF"></path>
                <path d="M85,27.3103448 C85,31.0808793 81.9553,34.137931 78.2,34.137931 C74.4447,34.137931 71.4,31.0808793 71.4,27.3103448 C71.4,23.5398103 74.4447,20.4827586 78.2,20.4827586 C81.9553,20.4827586 85,23.5398103 85,27.3103448 Z" id="Stroke-39" stroke="#2A5082" stroke-width="3.4"></path>
                <path d="M85,71.6896552 C85,75.4601897 81.9553,78.5172414 78.2,78.5172414 C74.4447,78.5172414 71.4,75.4601897 71.4,71.6896552 C71.4,67.9191207 74.4447,64.862069 78.2,64.862069 C81.9553,64.862069 85,67.9191207 85,71.6896552" id="Fill-41" fill="#FFFFFF"></path>
                <path d="M85,71.6896552 C85,75.4601897 81.9553,78.5172414 78.2,78.5172414 C74.4447,78.5172414 71.4,75.4601897 71.4,71.6896552 C71.4,67.9191207 74.4447,64.862069 78.2,64.862069 C81.9553,64.862069 85,67.9191207 85,71.6896552 Z" id="Stroke-43" stroke="#2A5082" stroke-width="3.4"></path>
                <path d="M13.6,71.6896552 C13.6,75.4601897 10.5553,78.5172414 6.8,78.5172414 C3.0447,78.5172414 0,75.4601897 0,71.6896552 C0,67.9191207 3.0447,64.862069 6.8,64.862069 C10.5553,64.862069 13.6,67.9191207 13.6,71.6896552" id="Fill-45" fill="#FFFFFF"></path>
                <path d="M13.6,71.6896552 C13.6,75.4601897 10.5553,78.5172414 6.8,78.5172414 C3.0447,78.5172414 0,75.4601897 0,71.6896552 C0,67.9191207 3.0447,64.862069 6.8,64.862069 C10.5553,64.862069 13.6,67.9191207 13.6,71.6896552 Z" id="Stroke-47" stroke="#2A5082" stroke-width="3.4"></path>
                <path d="M13.6,27.3103448 C13.6,31.0808793 10.5553,34.137931 6.8,34.137931 C3.0447,34.137931 0,31.0808793 0,27.3103448 C0,23.5398103 3.0447,20.4827586 6.8,20.4827586 C10.5553,20.4827586 13.6,23.5398103 13.6,27.3103448" id="Fill-49" fill="#FFFFFF"></path>
                <path d="M13.6,27.3103448 C13.6,31.0808793 10.5553,34.137931 6.8,34.137931 C3.0447,34.137931 0,31.0808793 0,27.3103448 C0,23.5398103 3.0447,20.4827586 6.8,20.4827586 C10.5553,20.4827586 13.6,23.5398103 13.6,27.3103448 Z" id="Stroke-51" stroke="#2A5082" stroke-width="3.4"></path>
                <g id="Group-56" transform="translate(35.700000, 85.344828)">
                    <path d="M6.8,13.6551724 C3.0447,13.6551724 0,10.5981207 0,6.82758621 C0,3.05705172 3.0447,0 6.8,0 C10.5553,0 13.6,3.05705172 13.6,6.82758621 C13.6,10.5981207 10.5553,13.6551724 6.8,13.6551724" id="Fill-53" fill="#FFFFFF"></path>
                    <path d="M6.8,13.6551724 C3.0447,13.6551724 0,10.5981207 0,6.82758621 C0,3.05705172 3.0447,0 6.8,0 C10.5553,0 13.6,3.05705172 13.6,6.82758621 C13.6,10.5981207 10.5553,13.6551724 6.8,13.6551724" id="Stroke-55" stroke="#2A5082" stroke-width="3.4"></path>
                </g>
            </g>
        </g>
    </g>
</svg>