<?xml version="1.0" encoding="utf-8"?>
<!-- Generator: Adobe Illustrator 19.0.1, SVG Export Plug-In . SVG Version: 6.00 Build 0)  -->
<svg version="1.1" id="Layer_1" xmlns="http://www.w3.org/2000/svg" xmlns:xlink="http://www.w3.org/1999/xlink" x="0px" y="0px"
	 viewBox="-245 217 300 180" enable-background="new -245 217 300 180" xml:space="preserve">
<g id="Layer_4">
</g>
<g id="Layer_1_1_">
	<path fill="#831CA8" d="M-96.2,255.2c-28.3,0-51.3,22.9-51.3,51.1c0,21.2,13.4,40.4,33.3,47.8l2.3,0.9l13.1-34.3l-2.3-0.9
		c-5.4-2.2-8.9-7.3-8.9-13c0-7.7,6.3-14.1,14.1-14.1s14.1,6.3,14.1,14.1c0,5.6-3.4,10.7-8.6,12.9l-2.2,0.9l12.6,34.2l2.4-0.9
		c19.8-7.7,32.6-26.4,32.6-47.6C-44.9,278.1-67.9,255.2-96.2,255.2z"/>
</g>
</svg>
