<?xml version="1.0" encoding="UTF-8" standalone="no"?>
<svg width="815px" height="542px" viewBox="0 0 815 542" version="1.1" xmlns="http://www.w3.org/2000/svg" xmlns:xlink="http://www.w3.org/1999/xlink">
    <!-- Generator: Sketch 39.1 (31720) - http://www.bohemiancoding.com/sketch -->
    <title>blockstack-diagram</title>
    <desc>Created with Sketch.</desc>
    <defs>
        <rect id="path-1" x="0" y="0" width="129" height="196" rx="4"></rect>
        <mask id="mask-2" maskContentUnits="userSpaceOnUse" maskUnits="objectBoundingBox" x="0" y="0" width="129" height="196" fill="white">
            <use xlink:href="#path-1"></use>
        </mask>
        <rect id="path-3" x="0" y="0" width="101" height="28" rx="4"></rect>
        <mask id="mask-4" maskContentUnits="userSpaceOnUse" maskUnits="objectBoundingBox" x="0" y="0" width="101" height="28" fill="white">
            <use xlink:href="#path-3"></use>
        </mask>
        <rect id="path-5" x="0" y="0" width="101" height="28" rx="4"></rect>
        <mask id="mask-6" maskContentUnits="userSpaceOnUse" maskUnits="objectBoundingBox" x="0" y="0" width="101" height="28" fill="white">
            <use xlink:href="#path-5"></use>
        </mask>
        <rect id="path-7" x="0" y="0" width="101" height="28" rx="4"></rect>
        <mask id="mask-8" maskContentUnits="userSpaceOnUse" maskUnits="objectBoundingBox" x="0" y="0" width="101" height="28" fill="white">
            <use xlink:href="#path-7"></use>
        </mask>
        <rect id="path-9" x="0" y="0" width="101" height="28" rx="4"></rect>
        <mask id="mask-10" maskContentUnits="userSpaceOnUse" maskUnits="objectBoundingBox" x="0" y="0" width="101" height="28" fill="white">
            <use xlink:href="#path-9"></use>
        </mask>
        <rect id="path-11" x="0" y="0" width="80" height="60" rx="4"></rect>
        <mask id="mask-12" maskContentUnits="userSpaceOnUse" maskUnits="objectBoundingBox" x="0" y="0" width="80" height="60" fill="white">
            <use xlink:href="#path-11"></use>
        </mask>
        <rect id="path-13" x="0" y="0" width="80" height="60" rx="4"></rect>
        <mask id="mask-14" maskContentUnits="userSpaceOnUse" maskUnits="objectBoundingBox" x="0" y="0" width="80" height="60" fill="white">
            <use xlink:href="#path-13"></use>
        </mask>
        <rect id="path-15" x="0" y="0" width="80" height="60" rx="4"></rect>
        <mask id="mask-16" maskContentUnits="userSpaceOnUse" maskUnits="objectBoundingBox" x="0" y="0" width="80" height="60" fill="white">
            <use xlink:href="#path-15"></use>
        </mask>
        <rect id="path-17" x="0" y="0" width="80" height="60" rx="4"></rect>
        <mask id="mask-18" maskContentUnits="userSpaceOnUse" maskUnits="objectBoundingBox" x="0" y="0" width="80" height="60" fill="white">
            <use xlink:href="#path-17"></use>
        </mask>
        <rect id="path-19" x="0" y="0" width="80" height="60" rx="4"></rect>
        <mask id="mask-20" maskContentUnits="userSpaceOnUse" maskUnits="objectBoundingBox" x="0" y="0" width="80" height="60" fill="white">
            <use xlink:href="#path-19"></use>
        </mask>
        <rect id="path-21" x="0" y="52" width="107" height="29" rx="4"></rect>
        <mask id="mask-22" maskContentUnits="userSpaceOnUse" maskUnits="objectBoundingBox" x="0" y="0" width="107" height="29" fill="white">
            <use xlink:href="#path-21"></use>
        </mask>
        <rect id="path-23" x="102" y="52" width="128" height="29" rx="4"></rect>
        <mask id="mask-24" maskContentUnits="userSpaceOnUse" maskUnits="objectBoundingBox" x="0" y="0" width="128" height="29" fill="white">
            <use xlink:href="#path-23"></use>
        </mask>
        <rect id="path-25" x="225" y="52" width="128" height="29" rx="4"></rect>
        <mask id="mask-26" maskContentUnits="userSpaceOnUse" maskUnits="objectBoundingBox" x="0" y="0" width="128" height="29" fill="white">
            <use xlink:href="#path-25"></use>
        </mask>
        <rect id="path-27" x="0" y="26" width="107" height="29" rx="4"></rect>
        <mask id="mask-28" maskContentUnits="userSpaceOnUse" maskUnits="objectBoundingBox" x="0" y="0" width="107" height="29" fill="white">
            <use xlink:href="#path-27"></use>
        </mask>
        <rect id="path-29" x="102" y="26" width="128" height="29" rx="4"></rect>
        <mask id="mask-30" maskContentUnits="userSpaceOnUse" maskUnits="objectBoundingBox" x="0" y="0" width="128" height="29" fill="white">
            <use xlink:href="#path-29"></use>
        </mask>
        <rect id="path-31" x="225" y="26" width="128" height="29" rx="4"></rect>
        <mask id="mask-32" maskContentUnits="userSpaceOnUse" maskUnits="objectBoundingBox" x="0" y="0" width="128" height="29" fill="white">
            <use xlink:href="#path-31"></use>
        </mask>
        <rect id="path-33" x="0" y="0" width="107" height="29" rx="4"></rect>
        <mask id="mask-34" maskContentUnits="userSpaceOnUse" maskUnits="objectBoundingBox" x="0" y="0" width="107" height="29" fill="white">
            <use xlink:href="#path-33"></use>
        </mask>
        <rect id="path-35" x="102" y="0" width="128" height="29" rx="4"></rect>
        <mask id="mask-36" maskContentUnits="userSpaceOnUse" maskUnits="objectBoundingBox" x="0" y="0" width="128" height="29" fill="white">
            <use xlink:href="#path-35"></use>
        </mask>
        <rect id="path-37" x="225" y="0" width="128" height="29" rx="4"></rect>
        <mask id="mask-38" maskContentUnits="userSpaceOnUse" maskUnits="objectBoundingBox" x="0" y="0" width="128" height="29" fill="white">
            <use xlink:href="#path-37"></use>
        </mask>
        <rect id="path-39" x="277" y="223" width="130.584961" height="29" rx="4"></rect>
        <mask id="mask-40" maskContentUnits="userSpaceOnUse" maskUnits="objectBoundingBox" x="0" y="0" width="130.584961" height="29" fill="white">
            <use xlink:href="#path-39"></use>
        </mask>
        <rect id="path-41" x="399" y="223" width="87.9296875" height="29" rx="4"></rect>
        <mask id="mask-42" maskContentUnits="userSpaceOnUse" maskUnits="objectBoundingBox" x="0" y="0" width="87.9296875" height="29" fill="white">
            <use xlink:href="#path-41"></use>
        </mask>
        <rect id="path-43" x="277" y="197" width="130.584961" height="29" rx="4"></rect>
        <mask id="mask-44" maskContentUnits="userSpaceOnUse" maskUnits="objectBoundingBox" x="0" y="0" width="130.584961" height="29" fill="white">
            <use xlink:href="#path-43"></use>
        </mask>
        <rect id="path-45" x="399" y="197" width="87.9296875" height="29" rx="4"></rect>
        <mask id="mask-46" maskContentUnits="userSpaceOnUse" maskUnits="objectBoundingBox" x="0" y="0" width="87.9296875" height="29" fill="white">
            <use xlink:href="#path-45"></use>
        </mask>
        <rect id="path-47" x="277" y="171" width="130.584961" height="29" rx="4"></rect>
        <mask id="mask-48" maskContentUnits="userSpaceOnUse" maskUnits="objectBoundingBox" x="0" y="0" width="130.584961" height="29" fill="white">
            <use xlink:href="#path-47"></use>
        </mask>
        <rect id="path-49" x="399" y="171" width="87.9296875" height="29" rx="4"></rect>
        <mask id="mask-50" maskContentUnits="userSpaceOnUse" maskUnits="objectBoundingBox" x="0" y="0" width="87.9296875" height="29" fill="white">
            <use xlink:href="#path-49"></use>
        </mask>
    </defs>
    <g id="Page-1" stroke="none" stroke-width="1" fill="none" fill-rule="evenodd">
        <g id="color-cards" transform="translate(-1660.000000, -3898.000000)">
            <g id="blockstack-diagram" transform="translate(1662.000000, 3900.000000)">
                <g id="cards-vertical-copy" transform="translate(4.000000, 177.000000)">
                    <use id="card" stroke="#FFFFFF" mask="url(#mask-2)" stroke-width="6" fill="#491C62" xlink:href="#path-1"></use>
                    <g id="Point-90-left-2" transform="translate(86.000000, 235.500000) scale(-1, -1) translate(-86.000000, -235.500000) translate(59.000000, 154.000000)">
                        <g id="Path-3-+-Path-5" transform="translate(9.831380, 9.794156) rotate(-225.000000) translate(-9.831380, -9.794156) translate(3.331380, 3.294156)" fill="#FFFFFF">
                            <path d="M12.2689619,10.0627079 L12.2689619,2.1596911 C12.2689619,1.34370036 11.5973891,0.664145895 10.7689619,0.664145895 C9.93475918,0.664145895 9.26896194,1.33372429 9.26896194,2.1596911 L9.26896194,9.40678658 L2.02186647,9.40678658 C1.20587572,9.40678658 0.526321257,10.0783595 0.526321257,10.9067866 C0.526321257,11.7409893 1.19589965,12.4067866 2.02186647,12.4067866 L9.93131038,12.4067866 C10.1705129,12.5688528 10.4587397,12.6641459 10.7689619,12.6641459 C11.2581824,12.6641459 11.6894836,12.43386 11.9625435,12.0767969 C12.3046714,11.8018755 12.5263213,11.3799116 12.5263213,10.9067866 C12.5263213,10.5927058 12.4314049,10.3024973 12.2689619,10.0627079 Z" id="Rectangle-10"></path>
                        </g>
                        <path d="M4,10.0055503 L38.5966114,10.0055503 C38.5966114,10.0055503 48.1453836,9.45816291 47.8836932,19.2354683 C48.1453836,28.9939955 47.8836937,156.5 47.8836937,156.5" id="Path-5" stroke="#FFFFFF" stroke-width="3" stroke-linecap="round" stroke-linejoin="round"></path>
                        <circle id="Oval-2" fill="#FFFFFF" cx="48" cy="158" r="5"></circle>
                    </g>
                    <g id="Point-straight" transform="translate(147.500000, 140.500000) scale(-1, -1) translate(-147.500000, -140.500000) translate(109.000000, 109.000000)">
                        <g id="Path-3-+-Path-5" transform="translate(9.789749, 9.575902) rotate(-225.000000) translate(-9.789749, -9.575902) translate(3.289749, 3.075902)" fill="#FFFFFF">
                            <path d="M12.3938536,9.87894167 L12.3938536,1.97592492 C12.3938536,1.15993417 11.7222808,0.480379711 10.8938536,0.480379711 C10.0596509,0.480379711 9.39385363,1.14995811 9.39385363,1.97592492 L9.39385363,9.2230204 L2.14675815,9.2230204 C1.3307674,9.2230204 0.651212938,9.89459327 0.651212938,10.7230204 C0.651212938,11.5572232 1.32079134,12.2230204 2.14675815,12.2230204 L10.0562021,12.2230204 C10.2954046,12.3850866 10.5836314,12.4803797 10.8938536,12.4803797 C11.3830741,12.4803797 11.8143753,12.2500938 12.0874351,11.8930307 C12.4295631,11.6181093 12.6512129,11.1961454 12.6512129,10.7230204 C12.6512129,10.4089396 12.5562966,10.1187312 12.3938536,9.87894167 Z" id="Rectangle-10"></path>
                        </g>
                        <path d="M4,10.0055503 L30.5966114,10.0055503 C30.5966114,10.0055503 40.1453836,9.45816291 39.8836932,19.2354683 C40.1453836,28.9939955 39.8836937,45.5 39.8836937,45.5 C39.8836937,45.5 38,58 49.5,58 C61,58 71,58 71,58" id="Path-5" stroke="#FFFFFF" stroke-width="3" stroke-linecap="round" stroke-linejoin="round"></path>
                        <circle id="Oval-2" fill="#FFFFFF" cx="72" cy="58" r="5"></circle>
                    </g>
                    <g id="Point-straight-Copy" transform="translate(147.500000, 58.500000) scale(-1, 1) translate(-147.500000, -58.500000) translate(109.000000, 31.000000)">
                        <g id="Path-3-+-Path-5" transform="translate(9.789749, 9.575902) rotate(-225.000000) translate(-9.789749, -9.575902) translate(3.289749, 3.075902)" fill="#FFFFFF">
                            <path d="M12.3938536,9.87894167 L12.3938536,1.97592492 C12.3938536,1.15993417 11.7222808,0.480379711 10.8938536,0.480379711 C10.0596509,0.480379711 9.39385363,1.14995811 9.39385363,1.97592492 L9.39385363,9.2230204 L2.14675815,9.2230204 C1.3307674,9.2230204 0.651212938,9.89459327 0.651212938,10.7230204 C0.651212938,11.5572232 1.32079134,12.2230204 2.14675815,12.2230204 L10.0562021,12.2230204 C10.2954046,12.3850866 10.5836314,12.4803797 10.8938536,12.4803797 C11.3830741,12.4803797 11.8143753,12.2500938 12.0874351,11.8930307 C12.4295631,11.6181093 12.6512129,11.1961454 12.6512129,10.7230204 C12.6512129,10.4089396 12.5562966,10.1187312 12.3938536,9.87894167 Z" id="Rectangle-10"></path>
                        </g>
                        <path d="M4,10.0055503 L30.5966114,10.0055503 C30.5966114,10.0055503 40.1453836,9.45816291 39.8836932,19.2354683 C40.1453836,28.9939955 39.8836937,37.5 39.8836937,37.5 C39.8836937,37.5 38,50 49.5,50 C61,50 71,50 71,50" id="Path-5" stroke="#FFFFFF" stroke-width="3" stroke-linecap="round" stroke-linejoin="round"></path>
                        <circle id="Oval-2" fill="#FFFFFF" cx="72" cy="50" r="5"></circle>
                    </g>
                    <g id="Group-9" transform="translate(14.000000, 36.000000)">
                        <use id="cell" stroke="#FFFFFF" mask="url(#mask-4)" stroke-width="6" fill="#2C113A" xlink:href="#path-3"></use>
                        <text id="Web-server" font-family="AnonymousPro, Anonymous Pro" font-size="12" font-weight="normal" fill="#FFFFFF">
                            <tspan x="18.2460938" y="19">Web server</tspan>
                        </text>
                    </g>
                    <g id="Group-9-Copy" transform="translate(14.000000, 68.000000)">
                        <use id="cell" stroke="#FFFFFF" mask="url(#mask-6)" stroke-width="6" fill="#2C113A" xlink:href="#path-5"></use>
                        <text id="Zone-file-DB" font-family="AnonymousPro, Anonymous Pro" font-size="12" font-weight="normal" fill="#FFFFFF">
                            <tspan x="11.1953125" y="19">Zone file DB</tspan>
                        </text>
                    </g>
                    <g id="Group-9-Copy-2" transform="translate(14.000000, 100.000000)">
                        <use id="cell" stroke="#FFFFFF" mask="url(#mask-8)" stroke-width="6" fill="#2C113A" xlink:href="#path-7"></use>
                        <text id="Name-DB" font-family="AnonymousPro, Anonymous Pro" font-size="12" font-weight="normal" fill="#FFFFFF">
                            <tspan x="28.0722656" y="18">Name DB</tspan>
                        </text>
                    </g>
                    <g id="Group-9-Copy-3" transform="translate(14.000000, 132.000000)">
                        <use id="cell" stroke="#FFFFFF" mask="url(#mask-10)" stroke-width="6" fill="#2C113A" xlink:href="#path-9"></use>
                        <text id="Blockchain" font-family="AnonymousPro, Anonymous Pro" font-size="12" font-weight="normal" fill="#FFFFFF">
                            <tspan x="17.7460938" y="18">Blockchain</tspan>
                        </text>
                    </g>
                    <g id="top-graphics" transform="translate(14.000000, 12.000000)" fill="#FFFFFF">
                        <rect id="Price" x="93" y="7" width="7" height="3"></rect>
                        <polygon id="Product" points="0 7 14 7 14 10 0 10"></polygon>
                        <rect id="Date" x="0" y="0" width="28" height="3"></rect>
                    </g>
                </g>
                <g id="block-1" transform="translate(131.000000, 455.000000)">
                    <use id="card" stroke="#FFFFFF" mask="url(#mask-12)" stroke-width="6" fill="#491C62" xlink:href="#path-11"></use>
                    <g id="top-graphics" transform="translate(13.000000, 11.000000)" fill="#FFFFFF">
                        <polygon id="transaction-copy-4" points="0 35 53 35 53 38 0 38"></polygon>
                        <polygon id="transaction-copy-2" points="0 28 53 28 53 31 0 31"></polygon>
                        <polygon id="transaction-copy-3" points="0 21 53 21 53 24 0 24"></polygon>
                        <polygon id="transaction-copy" points="0 14 53 14 53 17 0 17"></polygon>
                        <polygon id="transaction" points="0 7 53 7 53 10 0 10"></polygon>
                        <polygon id="transaction" points="0 0 53 0 53 3 0 3"></polygon>
                    </g>
                    <text id="n" font-family="Raleway-SemiBold, Raleway" font-size="14" font-weight="500" fill="#FFFFFF">
                        <tspan x="35.842" y="81">n</tspan>
                    </text>
                    <path d="M78.5,12.0055503 L84.5966114,12.0055503 C84.5966114,12.0055503 94.1453836,11.4581629 93.8836932,21.2354683 C94.1453836,30.9939955 93.8836937,35.5 93.8836937,35.5 C93.8836937,35.5 92,48 103.5,48 C115,48 108.5,48 108.5,48" id="Path-5" stroke="#FFFFFF" stroke-width="3" stroke-linecap="round" stroke-linejoin="round" transform="translate(94.415035, 30.000000) scale(1, -1) translate(-94.415035, -30.000000) "></path>
                </g>
                <g id="block-2" transform="translate(240.000000, 455.000000)">
                    <use id="card" stroke="#FFFFFF" mask="url(#mask-14)" stroke-width="6" fill="#491C62" xlink:href="#path-13"></use>
                    <g id="top-graphics" transform="translate(13.000000, 11.000000)" fill="#FFFFFF">
                        <polygon id="transaction-copy-4" points="0 35 53 35 53 38 0 38"></polygon>
                        <polygon id="transaction-copy-2" points="0 28 53 28 53 31 0 31"></polygon>
                        <polygon id="transaction-copy-3" points="0 21 53 21 53 24 0 24"></polygon>
                        <polygon id="transaction-copy" points="0 14 53 14 53 17 0 17"></polygon>
                        <polygon id="transaction" points="0 7 53 7 53 10 0 10"></polygon>
                        <polygon id="transaction" points="0 0 53 0 53 3 0 3"></polygon>
                    </g>
                    <text id="n+1" font-family="Raleway-SemiBold, Raleway" font-size="14" font-weight="500" fill="#FFFFFF">
                        <tspan x="29.605" y="81">n+1</tspan>
                    </text>
                    <path d="M78.5,12.0055503 L84.5966114,12.0055503 C84.5966114,12.0055503 94.1453836,11.4581629 93.8836932,21.2354683 C94.1453836,30.9939955 93.8836937,35.5 93.8836937,35.5 C93.8836937,35.5 92,48 103.5,48 C115,48 108.5,48 108.5,48" id="Path-5" stroke="#FFFFFF" stroke-width="3" stroke-linecap="round" stroke-linejoin="round" transform="translate(94.415035, 30.000000) scale(1, -1) translate(-94.415035, -30.000000) "></path>
                </g>
                <g id="block-3" transform="translate(347.000000, 455.000000)">
                    <use id="card" stroke="#FFFFFF" mask="url(#mask-16)" stroke-width="6" fill="#491C62" xlink:href="#path-15"></use>
                    <g id="top-graphics" transform="translate(13.000000, 11.000000)" fill="#FFFFFF">
                        <polygon id="transaction-copy-4" points="0 35 53 35 53 38 0 38"></polygon>
                        <polygon id="transaction-copy-2" points="0 28 53 28 53 31 0 31"></polygon>
                        <polygon id="transaction-copy-3" points="0 21 53 21 53 24 0 24"></polygon>
                        <polygon id="transaction-copy" points="0 14 53 14 53 17 0 17"></polygon>
                        <polygon id="transaction" points="0 7 53 7 53 10 0 10"></polygon>
                        <polygon id="transaction" points="0 0 53 0 53 3 0 3"></polygon>
                    </g>
                    <text id="n+2" font-family="Raleway-SemiBold, Raleway" font-size="14" font-weight="500" fill="#FFFFFF">
                        <tspan x="28.996" y="81">n+2</tspan>
                    </text>
                    <path d="M78.5,12.0055503 L84.5966114,12.0055503 C84.5966114,12.0055503 94.1453836,11.4581629 93.8836932,21.2354683 C94.1453836,30.9939955 93.8836937,35.5 93.8836937,35.5 C93.8836937,35.5 92,48 103.5,48 C115,48 108.5,48 108.5,48" id="Path-5" stroke="#FFFFFF" stroke-width="3" stroke-linecap="round" stroke-linejoin="round" transform="translate(94.415035, 30.000000) scale(1, -1) translate(-94.415035, -30.000000) "></path>
                </g>
                <g id="block-4" transform="translate(456.000000, 455.000000)">
                    <use id="card" stroke="#FFFFFF" mask="url(#mask-18)" stroke-width="6" fill="#491C62" xlink:href="#path-17"></use>
                    <g id="top-graphics" transform="translate(13.000000, 11.000000)" fill="#FFFFFF">
                        <polygon id="transaction-copy-4" points="0 35 53 35 53 38 0 38"></polygon>
                        <polygon id="transaction-copy-2" points="0 28 53 28 53 31 0 31"></polygon>
                        <polygon id="transaction-copy-3" points="0 21 53 21 53 24 0 24"></polygon>
                        <polygon id="transaction-copy" points="0 14 53 14 53 17 0 17"></polygon>
                        <polygon id="transaction" points="0 7 53 7 53 10 0 10"></polygon>
                        <polygon id="transaction" points="0 0 53 0 53 3 0 3"></polygon>
                    </g>
                    <text id="n+3" font-family="Raleway-SemiBold, Raleway" font-size="14" font-weight="500" fill="#FFFFFF">
                        <tspan x="29.031" y="81">n+3</tspan>
                    </text>
                    <path d="M78.5,12.0055503 L84.5966114,12.0055503 C84.5966114,12.0055503 94.1453836,11.4581629 93.8836932,21.2354683 C94.1453836,30.9939955 93.8836937,35.5 93.8836937,35.5 C93.8836937,35.5 92,48 103.5,48 C115,48 108.5,48 108.5,48" id="Path-5" stroke="#FFFFFF" stroke-width="3" stroke-linecap="round" stroke-linejoin="round" transform="translate(94.415035, 30.000000) scale(1, -1) translate(-94.415035, -30.000000) "></path>
                </g>
                <g id="block-5" transform="translate(566.000000, 455.000000)">
                    <use id="card" stroke="#FFFFFF" mask="url(#mask-20)" stroke-width="6" fill="#491C62" xlink:href="#path-19"></use>
                    <g id="top-graphics" transform="translate(13.000000, 11.000000)" fill="#FFFFFF">
                        <polygon id="transaction-copy-4" points="0 35 53 35 53 38 0 38"></polygon>
                        <polygon id="transaction-copy-2" points="0 28 53 28 53 31 0 31"></polygon>
                        <polygon id="transaction-copy-3" points="0 21 53 21 53 24 0 24"></polygon>
                        <polygon id="transaction-copy" points="0 14 53 14 53 17 0 17"></polygon>
                        <polygon id="transaction" points="0 7 53 7 53 10 0 10"></polygon>
                        <polygon id="transaction" points="0 0 53 0 53 3 0 3"></polygon>
                    </g>
                    <text id="n+4" font-family="Raleway-SemiBold, Raleway" font-size="14" font-weight="500" fill="#FFFFFF">
                        <tspan x="28.989" y="81">n+4</tspan>
                    </text>
                </g>
                <text id="Blockstack-Node" font-family="AnonymousPro, Anonymous Pro" font-size="14" font-weight="normal" fill="#FFFFFF">
                    <tspan x="11.1806641" y="155">Blockstack Node</tspan>
                </text>
                <g id="Group-12" transform="translate(277.000000, 296.000000)">
                    <use id="cell" stroke="#FFFFFF" mask="url(#mask-22)" stroke-width="6" fill="#2C113A" xlink:href="#path-21"></use>
                    <use id="cell" stroke="#FFFFFF" mask="url(#mask-24)" stroke-width="6" fill="#2C113A" xlink:href="#path-23"></use>
                    <use id="cell-copy" stroke="#FFFFFF" mask="url(#mask-26)" stroke-width="6" fill="#2C113A" xlink:href="#path-25"></use>
                    <use id="cell" stroke="#FFFFFF" mask="url(#mask-28)" stroke-width="6" fill="#2C113A" xlink:href="#path-27"></use>
                    <use id="cell" stroke="#FFFFFF" mask="url(#mask-30)" stroke-width="6" fill="#2C113A" xlink:href="#path-29"></use>
                    <use id="cell-copy-2" stroke="#FFFFFF" mask="url(#mask-32)" stroke-width="6" fill="#2C113A" xlink:href="#path-31"></use>
                    <use id="header-cell" stroke="#FFFFFF" mask="url(#mask-34)" stroke-width="6" fill="#491C62" xlink:href="#path-33"></use>
                    <use id="header-cell" stroke="#FFFFFF" mask="url(#mask-36)" stroke-width="6" fill="#491C62" xlink:href="#path-35"></use>
                    <use id="header-cell-copy" stroke="#FFFFFF" mask="url(#mask-38)" stroke-width="6" fill="#491C62" xlink:href="#path-37"></use>
                    <text id="Domain-name" font-family="AnonymousPro, Anonymous Pro" font-size="14" font-weight="normal" fill="#FFFFFF">
                        <tspan x="11" y="19">Domain name</tspan>
                    </text>
                    <text id="Crypto-address" font-family="AnonymousPro, Anonymous Pro" font-size="14" font-weight="normal" fill="#FFFFFF">
                        <tspan x="112" y="19">Crypto address</tspan>
                    </text>
                    <text id="Zone-file-hash" font-family="AnonymousPro, Anonymous Pro" font-size="14" font-weight="normal" fill="#FFFFFF">
                        <tspan x="236" y="19">Zone file hash</tspan>
                    </text>
                </g>
                <use id="cell" stroke="#FFFFFF" mask="url(#mask-40)" stroke-width="6" fill="#2C113A" xlink:href="#path-39"></use>
                <use id="cell" stroke="#FFFFFF" mask="url(#mask-42)" stroke-width="6" fill="#2C113A" xlink:href="#path-41"></use>
                <use id="cell" stroke="#FFFFFF" mask="url(#mask-44)" stroke-width="6" fill="#2C113A" xlink:href="#path-43"></use>
                <use id="cell" stroke="#FFFFFF" mask="url(#mask-46)" stroke-width="6" fill="#2C113A" xlink:href="#path-45"></use>
                <use id="header-cell" stroke="#FFFFFF" mask="url(#mask-48)" stroke-width="6" fill="#491C62" xlink:href="#path-47"></use>
                <use id="header-cell" stroke="#FFFFFF" mask="url(#mask-50)" stroke-width="6" fill="#491C62" xlink:href="#path-49"></use>
                <text id="Zone-file-hash" font-family="AnonymousPro, Anonymous Pro" font-size="14" font-weight="normal" fill="#FFFFFF">
                    <tspan x="288.001953" y="190">Zone file hash</tspan>
                </text>
                <text id="Zone-file" font-family="AnonymousPro, Anonymous Pro" font-size="14" font-weight="normal" fill="#FFFFFF">
                    <tspan x="408.608398" y="190">Zone file</tspan>
                </text>
                <g id="Point-straight" transform="translate(325.000000, 255.000000)">
                    <g id="Path-3-+-Path-5" transform="translate(9.569403, 9.889610) rotate(-135.000000) translate(-9.569403, -9.889610) translate(3.069403, 3.389610)" fill="#FFFFFF">
                        <path d="M12.7233268,9.23785207 L12.7233268,1.33483532 C12.7233268,0.518844571 12.0517539,-0.160709892 11.2233268,-0.160709892 C10.389124,-0.160709892 9.72332677,0.508868505 9.72332677,1.33483532 L9.72332677,8.5819308 L2.47623129,8.5819308 C1.66024055,8.5819308 0.980686084,9.25350367 0.980686084,10.0819308 C0.980686084,10.9161336 1.65026448,11.5819308 2.47623129,11.5819308 L10.3856752,11.5819308 C10.6248777,11.743997 10.9131045,11.8392901 11.2233268,11.8392901 C11.7125472,11.8392901 12.1438485,11.6090042 12.4169083,11.2519411 C12.7590363,10.9770197 12.9806861,10.5550558 12.9806861,10.0819308 C12.9806861,9.76784998 12.8857697,9.47764156 12.7233268,9.23785207 Z" id="Rectangle-10"></path>
                    </g>
                    <path d="M233,30 C235.761424,30 238,27.7614237 238,25 C238,22.2385763 235.761424,20 233,20 C230.238576,20 228,22.2385763 228,25 C228,27.7614237 230.238576,30 233,30 Z" id="Oval-2" fill="#FFFFFF"></path>
                    <path d="M8.93538514,6.97003034 L222.935385,6.97003034 C222.935385,6.97003034 232.080769,6.42498712 231.935385,15.9700303 C232.080769,26.0764163 231.935385,24.9700303 231.935385,24.9700303" id="Path-5" stroke="#FFFFFF" stroke-width="3" stroke-linecap="round" stroke-linejoin="round" transform="translate(120.467693, 15.985015) scale(-1, -1) translate(-120.467693, -15.985015) "></path>
                </g>
                <g id="Point-straight-Copy-3" transform="translate(325.000000, 101.000000)">
                    <g id="Path-3-+-Path-5" transform="translate(9.569403, 9.889610) rotate(-135.000000) translate(-9.569403, -9.889610) translate(3.069403, 3.389610)" fill="#FFFFFF">
                        <path d="M12.7233268,9.23785207 L12.7233268,1.33483532 C12.7233268,0.518844571 12.0517539,-0.160709892 11.2233268,-0.160709892 C10.389124,-0.160709892 9.72332677,0.508868505 9.72332677,1.33483532 L9.72332677,8.5819308 L2.47623129,8.5819308 C1.66024055,8.5819308 0.980686084,9.25350367 0.980686084,10.0819308 C0.980686084,10.9161336 1.65026448,11.5819308 2.47623129,11.5819308 L10.3856752,11.5819308 C10.6248777,11.743997 10.9131045,11.8392901 11.2233268,11.8392901 C11.7125472,11.8392901 12.1438485,11.6090042 12.4169083,11.2519411 C12.7590363,10.9770197 12.9806861,10.5550558 12.9806861,10.0819308 C12.9806861,9.76784998 12.8857697,9.47764156 12.7233268,9.23785207 Z" id="Rectangle-10"></path>
                    </g>
                    <circle id="Oval-2" fill="#FFFFFF" cx="250" cy="25" r="5"></circle>
                    <path d="M8.93538514,6.97003034 L240.435385,6.97003034 C240.435385,6.97003034 249.580769,6.42498712 249.435385,15.9700303 C249.580769,26.0764163 249.435385,24.9700303 249.435385,24.9700303" id="Path-5" stroke="#FFFFFF" stroke-width="3" stroke-linecap="round" stroke-linejoin="round" transform="translate(129.217693, 15.985015) scale(-1, -1) translate(-129.217693, -15.985015) "></path>
                </g>
                <g id="Group-11" transform="translate(325.000000, 387.000000)">
                    <g id="Point-straight-Copy-2">
                        <g id="Path-3-+-Path-5" transform="translate(9.569403, 9.889610) rotate(-135.000000) translate(-9.569403, -9.889610) translate(3.069403, 3.389610)" fill="#FFFFFF">
                            <path d="M12.7233268,9.23785207 L12.7233268,1.33483532 C12.7233268,0.518844571 12.0517539,-0.160709892 11.2233268,-0.160709892 C10.389124,-0.160709892 9.72332677,0.508868505 9.72332677,1.33483532 L9.72332677,8.5819308 L2.47623129,8.5819308 C1.66024055,8.5819308 0.980686084,9.25350367 0.980686084,10.0819308 C0.980686084,10.9161336 1.65026448,11.5819308 2.47623129,11.5819308 L10.3856752,11.5819308 C10.6248777,11.743997 10.9131045,11.8392901 11.2233268,11.8392901 C11.7125472,11.8392901 12.1438485,11.6090042 12.4169083,11.2519411 C12.7590363,10.9770197 12.9806861,10.5550558 12.9806861,10.0819308 C12.9806861,9.76784998 12.8857697,9.47764156 12.7233268,9.23785207 Z" id="Rectangle-10"></path>
                        </g>
                        <circle id="Oval-2" fill="#FFFFFF" cx="279" cy="52" r="5"></circle>
                        <path d="M8.93538514,6.50572656 L269.435385,6.50572656 C269.435385,6.50572656 278.580769,5.96068333 278.435385,15.5057266 C278.580769,25.6121125 278.435385,52.0057262 278.435385,52.0057262" id="Path-5" stroke="#FFFFFF" stroke-width="3" stroke-linecap="round" stroke-linejoin="round" transform="translate(143.717693, 29.252863) scale(-1, -1) translate(-143.717693, -29.252863) "></path>
                    </g>
                    <text id="Transactions-are-par" font-family="AnonymousPro, Anonymous Pro" font-size="14" font-weight="normal" fill="#FFFFFF">
                        <tspan x="34.1103516" y="21.9942738">Transactions are parsed</tspan>
                        <tspan x="26.4677734" y="38.9942738">as updates to the name DB</tspan>
                    </text>
                </g>
                <g id="database" transform="translate(202.000000, 187.000000)" stroke="#FFFFFF" stroke-width="3">
                    <path d="M0,8 L0,52 C0,56.6 12.1,60 26,60 C39.9,60 52,56.6 52,52 L52,8" id="Shape"></path>
                    <path d="M52,8 C52,12.6 39.9,16 26,16 C12.1,16 0,12.6 0,8 C0,3.4 12.1,0 26,0 C39.9,0 52,3.4 52,8 L52,8 Z" id="Shape"></path>
                    <path d="M52,30 C52,34.6 39.9,38 26,38 C12.1,38 0,34.6 0,30" id="Shape"></path>
                </g>
                <g id="database" transform="translate(202.000000, 308.000000)" stroke="#FFFFFF" stroke-width="3">
                    <path d="M0,8 L0,52 C0,56.6 12.1,60 26,60 C39.9,60 52,56.6 52,52 L52,8" id="Shape"></path>
                    <path d="M52,8 C52,12.6 39.9,16 26,16 C12.1,16 0,12.6 0,8 C0,3.4 12.1,0 26,0 C39.9,0 52,3.4 52,8 L52,8 Z" id="Shape"></path>
                    <path d="M52,30 C52,34.6 39.9,38 26,38 C12.1,38 0,34.6 0,30" id="Shape"></path>
                </g>
                <g id="clouds" transform="translate(0.000000, 13.000000)">
                    <g id="amazon">
                        <path d="M91.5,73.5 C101.73095,72.57655 109.75,63.895025 109.75,53.425 C109.75,42.892925 101.63605,34.271625 91.319325,33.43395 C89.52535,14.948525 73.95445,0.5 55,0.5 C38.5312,0.5 24.62105,11.411675 20.0768,26.39675 C8.832975,28.260075 0.25,38.00375 0.25,49.775 C0.25,62.26165 9.902425,72.5656 22.15,73.5 L91.5,73.5 L91.5,73.5 Z" id="Shape" stroke="#FFFFFF" stroke-width="3"></path>
                        <text id="Amazon-S3" font-family="AnonymousPro, Anonymous Pro" font-size="14" font-weight="normal" fill="#FFFFFF">
                            <tspan x="21.1083984" y="50">Amazon S3</tspan>
                        </text>
                    </g>
                    <g id="dropbox" transform="translate(133.250000, 0.000000)">
                        <path d="M91.5,73.5 C101.73095,72.57655 109.75,63.895025 109.75,53.425 C109.75,42.892925 101.63605,34.271625 91.319325,33.43395 C89.52535,14.948525 73.95445,0.5 55,0.5 C38.5312,0.5 24.62105,11.411675 20.0768,26.39675 C8.832975,28.260075 0.25,38.00375 0.25,49.775 C0.25,62.26165 9.902425,72.5656 22.15,73.5 L91.5,73.5 L91.5,73.5 Z" id="Shape" stroke="#FFFFFF" stroke-width="3"></path>
                        <text id="Dropbox" font-family="AnonymousPro, Anonymous Pro" font-size="14" font-weight="normal" fill="#FFFFFF">
                            <tspan x="28.7509766" y="50">Dropbox</tspan>
                        </text>
                    </g>
                    <g id="microsoft-azure" transform="translate(266.500000, 0.000000)">
                        <path d="M91.5,73.5 C101.73095,72.57655 109.75,63.895025 109.75,53.425 C109.75,42.892925 101.63605,34.271625 91.319325,33.43395 C89.52535,14.948525 73.95445,0.5 55,0.5 C38.5312,0.5 24.62105,11.411675 20.0768,26.39675 C8.832975,28.260075 0.25,38.00375 0.25,49.775 C0.25,62.26165 9.902425,72.5656 22.15,73.5 L91.5,73.5 L91.5,73.5 Z" id="Shape" stroke="#FFFFFF" stroke-width="3"></path>
                        <text id="Microsoft" font-family="AnonymousPro, Anonymous Pro" font-size="14" font-weight="normal" fill="#FFFFFF">
                            <tspan x="20.1083984" y="43">Microsoft</tspan>
                            <tspan x="35.3935547" y="60">Azure</tspan>
                        </text>
                    </g>
                    <g id="personal-drive" transform="translate(399.750000, 0.000000)">
                        <path d="M91.5,73.5 C101.73095,72.57655 109.75,63.895025 109.75,53.425 C109.75,42.892925 101.63605,34.271625 91.319325,33.43395 C89.52535,14.948525 73.95445,0.5 55,0.5 C38.5312,0.5 24.62105,11.411675 20.0768,26.39675 C8.832975,28.260075 0.25,38.00375 0.25,49.775 C0.25,62.26165 9.902425,72.5656 22.15,73.5 L91.5,73.5 L91.5,73.5 Z" id="Shape" stroke="#FFFFFF" stroke-width="3"></path>
                        <text id="Personal" font-family="AnonymousPro, Anonymous Pro" font-size="14" font-weight="normal" fill="#FFFFFF">
                            <tspan x="23.9296875" y="43">Personal</tspan>
                            <tspan x="35.3935547" y="60">Drive</tspan>
                        </text>
                    </g>
                    <g id="ipfs" transform="translate(533.000000, 0.000000)">
                        <path d="M91.5,73.5 C101.73095,72.57655 109.75,63.895025 109.75,53.425 C109.75,42.892925 101.63605,34.271625 91.319325,33.43395 C89.52535,14.948525 73.95445,0.5 55,0.5 C38.5312,0.5 24.62105,11.411675 20.0768,26.39675 C8.832975,28.260075 0.25,38.00375 0.25,49.775 C0.25,62.26165 9.902425,72.5656 22.15,73.5 L91.5,73.5 L91.5,73.5 Z" id="Shape" stroke="#FFFFFF" stroke-width="3"></path>
                        <text id="IPFS" font-family="AnonymousPro, Anonymous Pro" font-size="14" font-weight="normal" fill="#FFFFFF">
                            <tspan x="39.2148438" y="50">IPFS</tspan>
                        </text>
                    </g>
                </g>
                <text id="URI’s-in-zone-files" font-family="AnonymousPro, Anonymous Pro" font-size="14" font-weight="normal" fill="#FFFFFF">
                    <tspan x="505.895508" y="152">URI’s in zone files</tspan>
                    <tspan x="502.074219" y="169">point to stored data</tspan>
                </text>
                <g id="Group" transform="translate(559.000000, 188.000000)" stroke-width="3" stroke="#FFFFFF">
                    <polyline id="Shape" points="25 0 25 13 38 13"></polyline>
                    <polygon id="Shape" points="25 0 0 0 0 48 38 48 38 13"></polygon>
                    <path d="M9.5,36.8 L28.5,36.8" id="Shape"></path>
                    <path d="M9.5,28.8 L28.5,28.8" id="Shape"></path>
                    <path d="M9.5,20.8 L28.5,20.8" id="Shape"></path>
                    <path d="M9.5,12.8 L15.8333333,12.8" id="Shape"></path>
                </g>
                <g id="Point-90-left-2" transform="translate(516.000000, 141.500000) scale(-1, -1) translate(-516.000000, -141.500000) translate(486.000000, 60.000000)" stroke="#FFFFFF" stroke-width="3" stroke-linecap="round" stroke-linejoin="round">
                    <path d="M0.5,10.0055503 L48.5,10.0055503" id="Path-5"></path>
                </g>
                <g id="Group-13" transform="translate(690.000000, 0.000000)">
                    <g id="Point-90-left-2" transform="translate(16.000000, 269.000000) scale(-1, -1) translate(-16.000000, -269.000000) " stroke="#FFFFFF" stroke-width="3" stroke-linecap="round" stroke-linejoin="round">
                        <path d="M0,0.00403660436 L25.1611718,0.00403660672 C25.1611718,0.00403660672 32.1057334,-0.394063337 31.9154131,6.71670422 C32.1057334,13.8138148 31.9154135,106.545454 31.9154135,106.545454" id="Path-5"></path>
                        <path d="M0,144.004037 L25.1611718,144.004037 C25.1611718,144.004037 32.1057334,143.605937 31.9154131,150.716704 C32.1057334,157.813815 31.9154135,250.545454 31.9154135,250.545454" id="Path-5-Copy"></path>
                        <path d="M0,287.004037 L25.1611718,287.004037 C25.1611718,287.004037 32.1057334,286.605937 31.9154131,293.716704 C32.1057334,300.813815 31.9154135,393.545454 31.9154135,393.545454" id="Path-5-Copy-2"></path>
                        <path d="M0,431.004037 L25.1611718,431.004037 C25.1611718,431.004037 32.1057334,430.605937 31.9154131,437.716704 C32.1057334,444.813815 31.9154135,537.545454 31.9154135,537.545454" id="Path-5-Copy-3"></path>
                    </g>
                    <text id="Storage-Layer" font-family="AnonymousPro, Anonymous Pro" font-size="14" font-weight="normal" fill="#FFFFFF">
                        <tspan x="24.3232422" y="59">Storage Layer</tspan>
                    </text>
                    <text id="Routing-Layer" font-family="AnonymousPro, Anonymous Pro" font-size="14" font-weight="normal" fill="#FFFFFF">
                        <tspan x="24.8232422" y="202">Routing Layer</tspan>
                    </text>
                    <text id="Virtualchain-" font-family="AnonymousPro, Anonymous Pro" font-size="14" font-weight="normal" fill="#FFFFFF">
                        <tspan x="29.1445312" y="338">Virtualchain </tspan>
                        <tspan x="55.8935547" y="355">Layer</tspan>
                    </text>
                    <text id="Blockchain-" font-family="AnonymousPro, Anonymous Pro" font-size="14" font-weight="normal" fill="#FFFFFF">
                        <tspan x="36.2871094" y="482">Blockchain </tspan>
                        <tspan x="55.3935547" y="499">Layer</tspan>
                    </text>
                </g>
            </g>
        </g>
    </g>
</svg>