<?xml version="1.0" encoding="UTF-8"?>
<svg width="40px" height="27px" viewBox="0 0 40 27" version="1.1" xmlns="http://www.w3.org/2000/svg" xmlns:xlink="http://www.w3.org/1999/xlink">
    <!-- Generator: Sketch 43.2 (39069) - http://www.bohemiancoding.com/sketch -->
    <title>ic_broadcaster_norm</title>
    <desc>Created with Sketch.</desc>
    <defs></defs>
    <g id="ICONS" stroke="none" stroke-width="1" fill="none" fill-rule="evenodd">
        <g id="ic_broadcaster_norm" fill="#E1D9F2" fill-rule="nonzero">
            <path d="M28.9664438,12.8931636 C28.4665489,13.1930231 27.8306452,12.8329327 27.8306452,12.25 L27.8306452,6.75 L1.75,6.75 L1.75,25.25 L27.8306452,25.25 L27.8306452,19.75 C27.8306452,19.1670673 28.4665489,18.8069769 28.9664438,19.1068364 L38.25,24.675533 L38.25,7.32446696 L28.9664438,12.8931636 Z M38.6142014,5.35683639 C39.1140962,5.05697687 39.75,5.41706727 39.75,6 L39.75,26 C39.75,26.5829327 39.1140962,26.9430231 38.6142014,26.6431636 L29.3306452,21.074467 L29.3306452,26 C29.3306452,26.4142136 28.9948587,26.75 28.5806452,26.75 L1,26.75 C0.585786438,26.75 0.25,26.4142136 0.25,26 L0.25,6 C0.25,5.58578644 0.585786438,5.25 1,5.25 L28.5806452,5.25 C28.9948587,5.25 29.3306452,5.58578644 29.3306452,6 L29.3306452,10.925533 L38.6142014,5.35683639 Z" id="Shape" stroke="#E1D9F2" stroke-width="0.5"></path>
            <path d="M20.6095656,6.31234752 C20.7820704,6.52797849 21.0967166,6.56293918 21.3123475,6.3904344 C21.5279785,6.21792963 21.5629392,5.90328344 21.3904344,5.68765248 L17.3904344,0.687652476 C17.2955483,0.56904486 17.1518919,0.5 17,0.5 L4,0.5 C3.72385763,0.5 3.5,0.723857625 3.5,1 C3.5,1.27614237 3.72385763,1.5 4,1.5 L16.7596876,1.5 L20.6095656,6.31234752 Z" id="Shape"></path>
        </g>
    </g>
</svg>