<svg style="width:14px; height:14px;" viewBox="0 0 16 16">
  <path d="M16,0.883050511 L16,15.1170094 C16,15.6046356 15.6045756,16.0000599 15.1169495,16.0000599 L11.0396901,16.0000599 L11.0396901,9.80401884 L13.1195048,9.80401884 L13.4308805,7.38926836 L11.0396901,7.38926836 L11.0396901,5.84755689 C11.0396901,5.14843027 11.2338653,4.67201463 12.2364543,4.67201463 L13.5151091,4.67141514 L13.5151091,2.5116882 C13.2938968,2.48231314 12.534881,2.41654895 11.6518305,2.41654895 C9.80827523,2.41654895 8.54610649,3.54185385 8.54610649,5.6084798 L8.54610649,7.38926836 L6.46101621,7.38926836 L6.46101621,9.80401884 L8.54610649,9.80401884 L8.54610649,16.0000599 L0.883050511,16.0000599 C0.395244536,16.0000599 0,15.6046356 0,15.1170094 L0,0.883050511 C0,0.395244536 0.395244536,0 0.883050511,0 L15.1169495,0 C15.6045756,0 16,0.395244536 16,0.883050511" id="path-1"></path>
</svg>