<?xml version="1.0" encoding="UTF-8"?>
<svg width="40px" height="40px" viewBox="0 0 40 40" version="1.1" xmlns="http://www.w3.org/2000/svg" xmlns:xlink="http://www.w3.org/1999/xlink">
    <!-- Generator: Sketch 43.2 (39069) - http://www.bohemiancoding.com/sketch -->
    <title>ic_cog</title>
    <desc>Created with Sketch.</desc>
    <defs></defs>
    <g id="ICONS" stroke="none" stroke-width="1" fill="none" fill-rule="evenodd">
        <g id="ic_cog" fill-rule="nonzero" fill="#817F97">
            <path d="M20.2107419,28.2338146 C24.6086734,28.2338146 28.1743416,24.6564632 28.1743416,20.242985 C28.1743416,15.8278649 24.6089427,12.250243 20.2107419,12.250243 C15.8125412,12.250243 12.2471423,15.8278649 12.2471423,20.242985 C12.2471423,24.6564632 15.8128105,28.2338146 20.2107419,28.2338146 Z M20.2107419,29.7338146 C14.9832829,29.7338146 10.7471423,25.4837938 10.7471423,20.242985 C10.7471423,15.0005847 14.9829627,10.750243 20.2107419,10.750243 C25.4385211,10.750243 29.6743416,15.0005847 29.6743416,20.242985 C29.6743416,25.4837938 25.438201,29.7338146 20.2107419,29.7338146 Z M36.8436189,14.6521698 C38.2918676,14.4069308 39.6623185,15.3829999 39.9063776,16.8333028 L39.9899931,17.3289444 C40.2368011,18.7771497 39.2629681,20.1538444 37.8175487,20.3990538 L36.2052085,20.6743523 C36.1555732,22.5306989 35.7859465,24.3425485 35.1217679,26.05299 L36.6129576,26.941586 C37.8737651,27.6924466 38.2879784,29.3256798 37.5388925,30.5913755 L37.2825781,31.0218005 C36.5337862,32.2870049 34.9041032,32.7033245 33.6415271,31.9514105 L32.0663144,31.0124483 C30.9287014,32.2702675 29.5920932,33.3424168 28.1095573,34.1868716 L28.7662138,36.0108779 C29.2650841,37.3923821 28.5512528,38.920091 27.173587,39.4180245 L26.7004127,39.5902774 C25.3204258,40.0917192 23.7951414,39.3745594 23.2987887,37.9926737 L22.6165947,36.1027697 C21.8128322,36.2270514 21.0107097,36.290871 20.2107419,36.290871 C19.2361551,36.290871 18.2607291,36.1953637 17.2816173,36.0100655 L16.5482196,37.9397908 C16.0253048,39.313736 14.4895167,40.0020134 13.1187762,39.4770522 L12.6471798,39.297017 C11.2770232,38.7722799 10.5919856,37.2341526 11.1145655,35.8610872 L11.8537898,33.9193224 C10.4545113,33.0574409 9.1954239,31.9833733 8.1194006,30.7360522 L6.33428656,31.7674559 C5.06267806,32.501316 3.4364791,32.0623471 2.70775535,30.7890664 L2.45477262,30.3507208 C1.72537156,29.0762665 2.16132799,27.4511176 3.4321997,26.7165525 L5.17191694,25.7120744 C4.5554548,24.0117351 4.22730183,22.2181146 4.21114029,20.3853335 L2.31771621,20.0195237 C0.877662571,19.7423399 -0.0647761755,18.3473223 0.211310708,16.903991 L0.306418049,16.4097997 C0.582257283,14.9651 1.97389676,14.0182342 3.41588199,14.2957901 L5.22049318,14.6448392 C5.81834242,13.0363083 6.67513574,11.5358363 7.75486182,10.1926 L6.63089123,8.83933812 C5.69414887,7.71066972 5.84579639,6.03486724 6.97127603,5.09226243 L7.35823874,4.76910449 C8.48528106,3.82785636 10.162269,3.98048622 11.0999864,5.11032949 L12.159983,6.3865751 C13.7594009,5.44940167 15.5169755,4.7981673 17.3657792,4.46487513 L17.3848644,2.87996492 C17.4034403,1.41054745 18.6066818,0.231558087 20.0725073,0.250205197 L20.5753932,0.25593776 C22.042187,0.271930994 23.216497,1.47791858 23.2005633,2.94832861 L23.1817271,4.48962661 C24.9780072,4.8284918 26.6860696,5.46789061 28.2463788,6.37843011 L29.2246482,5.22929824 C30.1777664,4.110745 31.8546863,3.97722714 32.97327,4.93367573 L33.3520232,5.26043099 C34.4668175,6.21362984 34.599714,7.89237153 33.6492002,9.01098372 L32.6553938,10.1783313 C33.8035053,11.6007232 34.7005481,13.1986709 35.3045083,14.9146765 L36.8436189,14.6521698 Z M38.427227,17.0825286 C38.3206125,16.4489798 37.7244386,16.0243701 37.0949348,16.1309665 L34.2691731,16.6129217 L34.076451,15.9815877 C33.4792264,14.0251536 32.4663273,12.2213279 31.1086236,10.6687829 L30.6826164,10.1816402 L31.1021179,9.68888414 L32.5065909,8.03915895 C32.9216168,7.5507355 32.8634732,6.81626873 32.3747134,6.39834773 L31.9959601,6.07159248 C31.5105949,5.65658355 30.7818162,5.71460957 30.3665956,6.2019009 L28.5487853,8.33720634 L27.9975486,7.98419047 C26.2856104,6.88785313 24.3578996,6.16466024 22.3150776,5.8649953 L21.6659704,5.76977668 L21.6739874,5.11377171 L21.7006634,2.93103724 C21.7076271,2.28837181 21.1958528,1.76279212 20.5586672,1.75584446 L20.0544187,1.7500958 C19.4176924,1.74199614 18.8928692,2.2562412 18.8847501,2.89847606 L18.8502961,5.75969004 L18.2114701,5.84857123 C16.1210075,6.13942161 14.148149,6.87348631 12.4046214,7.99651308 L11.8460503,8.35629529 L11.421541,7.84518214 L9.94590979,6.0685085 C9.53839708,5.57750187 8.80974879,5.51118446 8.31973652,5.92041766 L7.93357473,6.24290577 C7.44210594,6.65451813 7.37572519,7.38806797 7.78496629,7.8811572 L9.71546488,10.2054796 L9.29693656,10.686492 C8.00736055,12.1685948 7.03035948,13.8808098 6.42882633,15.7358122 L6.22421805,16.3667813 L5.57297337,16.2408172 L3.13169719,15.7686236 C2.50569659,15.64813 1.90029419,16.0600433 1.77959575,16.6921934 L1.68444057,17.1866351 C1.56381756,17.8172311 1.97511726,18.4260455 2.60174441,18.5466599 L5.74840327,19.1545946 L5.73317186,19.7886735 C5.73145653,19.8600821 5.72829755,19.9165699 5.72107025,20.0232925 C5.7128774,20.1441787 5.71051281,20.1910403 5.71051281,20.242985 C5.71051281,22.150643 6.08308678,24.0124472 6.79656131,25.7569761 L7.04441403,26.363005 L6.47738824,26.6903944 L4.18253111,28.0153992 C3.62782585,28.3360194 3.43704159,29.0472208 3.75528081,29.6032778 L4.00826354,30.0416234 C4.32575128,30.5963574 5.03217678,30.7870468 5.58419337,30.4684716 L8.47735317,28.7968608 L8.87975539,29.3029976 C10.05618,30.7826907 11.504763,32.0186639 13.1470622,32.9401393 L13.7111016,33.2566154 L13.4809931,33.8610553 L12.5164402,36.3947043 C12.2877211,36.9956581 12.5870507,37.6677484 13.1829018,37.8959455 L13.6544982,38.0759808 C14.2508185,38.3043571 14.9183626,38.0051912 15.1461948,37.4065682 L16.3388373,34.268472 L16.97513,34.4138891 C18.0630261,34.6625147 19.1395785,34.790871 20.2107419,34.790871 C21.1229887,34.790871 22.0414496,34.6986471 22.9656665,34.5196329 L23.5958081,34.397579 L23.8137333,35.0013042 L24.710085,37.4844992 C24.926244,38.0863019 25.5893041,38.3980602 26.1877163,38.1806171 L26.6620952,38.0079276 C27.2614258,37.791309 27.5733073,37.1238347 27.3551336,36.519653 L26.2574852,33.4706969 L26.8414671,33.1688804 C28.5705543,32.2752446 30.1002358,31.0492452 31.335271,29.5669313 L31.7452902,29.0748181 L32.2954964,29.4027882 L34.4092995,30.6627968 C34.9581939,30.9896851 35.6655086,30.8089941 35.9927451,30.2560808 L36.2490595,29.8256558 C36.5764236,29.2725215 36.3951386,28.5577187 35.8452749,28.2302532 L33.2302792,26.6719842 L33.4943485,26.0662464 C34.29251,24.2353764 34.7109711,22.2657273 34.7109711,20.242985 C34.7025076,20.1073984 34.7025076,20.1073984 34.7014397,20.0422002 L34.7014397,19.4094046 L35.325208,19.3028995 L37.5658748,18.920318 C38.194015,18.8137564 38.6190185,18.2129346 38.5111033,17.5797099 L38.427227,17.0825286 Z" id="Settings-Copy-6"></path>
        </g>
    </g>
</svg>