<?xml version="1.0" encoding="UTF-8"?>
<svg width="40px" height="40px" viewBox="0 0 40 40" version="1.1" xmlns="http://www.w3.org/2000/svg" xmlns:xlink="http://www.w3.org/1999/xlink">
    <!-- Generator: Sketch 43.2 (39069) - http://www.bohemiancoding.com/sketch -->
    <title>ic_charts</title>
    <desc>Created with Sketch.</desc>
    <defs></defs>
    <g id="ICONS" stroke="none" stroke-width="1" fill="none" fill-rule="evenodd">
        <g id="ic_charts" fill-rule="nonzero" fill="#817F97">
            <path d="M7.6,13.4 L2,13.4 L2,38 L7.6,38 L7.6,13.4 Z M8.6,40 L1,40 C0.44771525,40 8.8817842e-15,39.5522847 8.8817842e-15,39 L8.8817842e-15,12.4 C8.8817842e-15,11.8477153 0.44771525,11.4 1,11.4 L8.6,11.4 C9.15228475,11.4 9.6,11.8477153 9.6,12.4 L9.6,39 C9.6,39.5522847 9.15228475,40 8.6,40 Z M22.8,2 L17.2,2 L17.2,38 L22.8,38 L22.8,2 Z M23.8,40 L16.2,40 C15.6477153,40 15.2,39.5522847 15.2,39 L15.2,1 C15.2,0.44771525 15.6477153,-2.48689958e-14 16.2,-2.48689958e-14 L23.8,-2.48689958e-14 C24.3522847,-2.48689958e-14 24.8,0.44771525 24.8,1 L24.8,39 C24.8,39.5522847 24.3522847,40 23.8,40 Z M38,24.8 L32.4,24.8 L32.4,38 L38,38 L38,24.8 Z M39,40 L31.4,40 C30.8477153,40 30.4,39.5522847 30.4,39 L30.4,23.8 C30.4,23.2477153 30.8477153,22.8 31.4,22.8 L39,22.8 C39.5522847,22.8 40,23.2477153 40,23.8 L40,39 C40,39.5522847 39.5522847,40 39,40 Z" id="Shape"></path>
        </g>
    </g>
</svg>