<?xml version="1.0" encoding="UTF-8"?>
<svg width="40px" height="40px" viewBox="0 0 40 40" version="1.1" xmlns="http://www.w3.org/2000/svg" xmlns:xlink="http://www.w3.org/1999/xlink">
    <!-- Generator: Sketch 43.2 (39069) - http://www.bohemiancoding.com/sketch -->
    <title>ic_expand_dp</title>
    <desc>Created with Sketch.</desc>
    <defs></defs>
    <g id="ICONS" stroke="none" stroke-width="1" fill="none" fill-rule="evenodd">
        <g id="ic_expand_dp" fill-rule="nonzero" fill="#817F97">
            <path d="M11.0251038,24.8954999 C10.6244043,24.5154232 9.99146007,24.5321413 9.61138335,24.9328408 C9.23130662,25.3335404 9.24802473,25.9664846 9.64872428,26.3465613 L19.1508289,35.3596205 C19.8287474,36.0026485 20.904494,35.9830661 21.5514096,35.311897 L30.2776132,26.2585397 C30.6608868,25.8608968 30.6492382,25.227839 30.2515953,24.8445654 C29.8539525,24.4612919 29.2208947,24.4729405 28.8376211,24.8705833 L20.3177458,33.7098769 L11.0251038,24.8954999 Z" id="Path-4"></path>
            <path d="M28.8376211,17.0156798 C29.2208947,17.4133226 29.8539525,17.4249712 30.2515953,17.0416977 C30.6492382,16.6584241 30.6608868,16.0253663 30.2776132,15.6277235 L21.4649653,6.48468104 C20.8626041,5.8597367 19.8712912,5.84326031 19.2436371,6.43861096 L9.64872428,15.5397018 C9.24802473,15.9197785 9.23130662,16.5527228 9.61138335,16.9534223 C9.99146007,17.3541219 10.6244043,17.37084 11.0251038,16.9907632 L20.3177458,8.17638625 L28.8376211,17.0156798 Z" id="Path-4-Copy"></path>
        </g>
    </g>
</svg>