<?xml version="1.0" encoding="UTF-8"?>
<svg width="40px" height="40px" viewBox="0 0 40 40" version="1.1" xmlns="http://www.w3.org/2000/svg" xmlns:xlink="http://www.w3.org/1999/xlink">
    <!-- Generator: Sketch 43.2 (39069) - http://www.bohemiancoding.com/sketch -->
    <title>ic_original_active</title>
    <desc>Created with Sketch.</desc>
    <defs></defs>
    <g id="ICONS" stroke="none" stroke-width="1" fill="none" fill-rule="evenodd">
        <g id="ic_original_active" fill-rule="nonzero" fill="#000000">
            <path d="M37.25,37.25 L2.75,37.25 L2.75,5.91237109 L13.4785067,5.74991403 C13.8926728,5.74364249 14.2233367,5.40281046 14.2170651,4.98864438 C14.2107936,4.5744783 13.8699616,4.24381444 13.4557955,4.25008597 L1.98864438,4.423728 C1.57890569,4.42993249 1.25,4.76385636 1.25,5.17364203 L1.25,38 C1.25,38.4142136 1.58578644,38.75 2,38.75 L38,38.75 C38.4142136,38.75 38.75,38.4142136 38.75,38 L38.75,22.2345152 C38.75,21.8203017 38.4142136,21.4845152 38,21.4845152 C37.5857864,21.4845152 37.25,21.8203017 37.25,22.2345152 L37.25,37.25 Z" id="Path-7"></path>
            <path d="M37.25,10 C37.25,10.4142136 37.5857864,10.75 38,10.75 C38.4142136,10.75 38.75,10.4142136 38.75,10 L38.75,2 C38.75,1.58578644 38.4142136,1.25 38,1.25 L30,1.25 C29.5857864,1.25 29.25,1.58578644 29.25,2 C29.25,2.41421356 29.5857864,2.75 30,2.75 L37.25,2.75 L37.25,10 Z" id="Path-5"></path>
            <path d="M19.5138999,20.5009245 L37.1567571,3.90340915 C37.4584516,3.61959005 37.4729425,3.14493746 37.1891234,2.84324292 C36.9053043,2.54154838 36.4306517,2.52705747 36.1289572,2.81087657 L18.4861001,19.4083919 C18.1844055,19.692211 18.1699146,20.1668636 18.4537337,20.4685582 C18.7375528,20.7702527 19.2122054,20.7847436 19.5138999,20.5009245 Z" id="Path-4"></path>
        </g>
    </g>
</svg>