<?xml version="1.0" encoding="UTF-8"?>
<svg width="20px" height="20px" viewBox="0 0 20 20" version="1.1" xmlns="http://www.w3.org/2000/svg" xmlns:xlink="http://www.w3.org/1999/xlink">
    <!-- Generator: Sketch 43.2 (39069) - http://www.bohemiancoding.com/sketch -->
    <title>ic_trash</title>
    <desc>Created with Sketch.</desc>
    <defs></defs>
    <g id="SYMBOLS" stroke="none" stroke-width="1" fill="none" fill-rule="evenodd">
        <g id="ic_trash" fill-rule="nonzero" fill="#979797">
            <path d="M4.5,4.5 L4.5,13.5689258 C4.5,16.0645468 6.50934434,18.0770645 8.99306515,18.0770645 L12.0069348,18.0770645 C14.4884574,18.0770645 16.5,16.0601168 16.5,13.5689258 L16.5,4.5 L4.5,4.5 Z M3,3 L18,3 L18,13.5689258 C18,16.8871292 15.3183006,19.5770645 12.0069348,19.5770645 L8.99306515,19.5770645 C5.68318666,19.5770645 3,16.8952487 3,13.5689258 L3,3 Z" id="Rectangle-14"></path>
            <path d="M2.5,3.5 L18.867986,3.5 C19.2821996,3.5 19.617986,3.16421356 19.617986,2.75 C19.617986,2.33578644 19.2821996,2 18.867986,2 L2.5,2 C2.08578644,2 1.75,2.33578644 1.75,2.75 C1.75,3.16421356 2.08578644,3.5 2.5,3.5 Z" id="Path-19"></path>
            <path d="M12.3493946,2.34824712 L12.3493946,1.92412356 C12.3493946,1.68628968 12.1624099,1.5 11.9232289,1.5 L8.92616576,1.5 C8.69317492,1.5 8.5,1.69261736 8.5,1.92412356 L8.5,2.34824712 L12.3493946,2.34824712 Z M7,1.92412356 C7,0.861459462 7.86748056,0 8.92616576,0 L11.9232289,0 C12.9870209,0 13.8493946,0.854050763 13.8493946,1.92412356 L13.8493946,3.84824712 L7,3.84824712 L7,1.92412356 Z" id="Rectangle-15"></path>
            <path d="M13,7 L13,16.1661455 C13,16.4422879 13.2238576,16.6661455 13.5,16.6661455 C13.7761424,16.6661455 14,16.4422879 14,16.1661455 L14,7 C14,6.72385763 13.7761424,6.5 13.5,6.5 C13.2238576,6.5 13,6.72385763 13,7 Z" id="Path-20"></path>
            <path d="M7,7 L7,16.1661455 C7,16.4422879 7.22385763,16.6661455 7.5,16.6661455 C7.77614237,16.6661455 8,16.4422879 8,16.1661455 L8,7 C8,6.72385763 7.77614237,6.5 7.5,6.5 C7.22385763,6.5 7,6.72385763 7,7 Z" id="Path-20"></path>
            <path d="M10,9 L10,16.6846532 C10,16.9607956 10.2238576,17.1846532 10.5,17.1846532 C10.7761424,17.1846532 11,16.9607956 11,16.6846532 L11,9 C11,8.72385763 10.7761424,8.5 10.5,8.5 C10.2238576,8.5 10,8.72385763 10,9 Z" id="Path-20"></path>
        </g>
    </g>
</svg>