<svg viewBox="0 0 123.996 16">
<path fill-rule="evenodd" clip-rule="evenodd" fill="none" d="M0,16h15.999v-4H0V16z M0,10h15.999V6H0V10z M39.993,0
	c-2.207,0.004-3.994,1.793-3.994,4h16c0-2.209-1.791-4-4-4H39.993z M21.993,0C19.787,0.004,18,1.793,18,4h15.999
	c0-2.209-1.791-4-4-4H21.993z M47.999,16c2.209,0,4-1.791,4-4h-16c0,2.207,1.787,3.996,3.994,4H47.999z M35.999,6
	c0,2.209,1.791,4,4,4h12c0-2.209-1.791-4-4-4H35.999z M75.991,0c-2.206,0.004-3.993,1.793-3.993,4h15.999c0-2.209-1.79-4-3.999-4
	H75.991z M83.998,16c2.209,0,3.999-1.791,3.999-4H71.998c0,2.207,1.787,3.996,3.993,4H83.998z M71.998,6c0,2.209,1.79,4,4,4h11.999
	c0-2.209-1.79-4-3.999-4H71.998z M0,4h15.999V0H0V4z M89.997,16h16v-4h-16V16z M89.997,10h16V6h-16V10z M89.997,4h16V0h-16V4z
	 M17.999,16h6v-4h-6V16z M27.999,16h6v-4h-6V16z M17.999,10h16V6h-16V10z M66.004,10c2.207-0.004,3.994-1.793,3.994-4H53.999
	c0,2.209,1.79,4,3.999,4H66.004z M53.998,4h6V0h-6V4z M63.998,4h6V0h-6V4z M58.998,16h6v-4h-6V16z M107.996,4h16V0h-16V4z
	 M112.496,10h7V6h-7V10z M112.496,16h7v-4h-7V16z"/>
</svg>