<?xml version="1.0" encoding="UTF-8"?>
<svg width="40px" height="40px" viewBox="0 0 40 40" version="1.1" xmlns="http://www.w3.org/2000/svg" xmlns:xlink="http://www.w3.org/1999/xlink">
    <g id="ICONS" stroke="none" stroke-width="1" fill="none" fill-rule="evenodd">
        <g id="ic_transmitlive_light">
            <path d="M20.0738847,39.5138518 C9.25587655,39.5138518 0.486148232,30.7441235 0.486148232,19.9261153 C0.486148232,9.10810722 9.25587655,0.338378906 20.0738847,0.338378906 C30.8918928,0.338378906 39.6616211,9.10810722 39.6616211,19.9261153 C39.6616211,30.7441235 30.8918928,39.5138518 20.0738847,39.5138518 Z M20.0738847,37.0138518 C29.5111809,37.0138518 37.1616211,29.3634116 37.1616211,19.9261153 C37.1616211,10.4888191 29.5111809,2.83837891 20.0738847,2.83837891 C10.6365884,2.83837891 2.98614823,10.4888191 2.98614823,19.9261153 C2.98614823,29.3634116 10.6365884,37.0138518 20.0738847,37.0138518 Z" id="Oval-6" fill="#E1D9F2" fill-rule="nonzero"></path>
            <path d="M20.0058896,34.3062283 C12.1015251,34.3062283 5.69377166,27.8984749 5.69377166,19.9941104 C5.69377166,12.0897459 12.1015251,5.68199246 20.0058896,5.68199246 C27.9102541,5.68199246 34.3180075,12.0897459 34.3180075,19.9941104 C34.3180075,27.8984749 27.9102541,34.3062283 20.0058896,34.3062283 Z M20.0058896,32.8062283 C27.081827,32.8062283 32.8180075,27.0700478 32.8180075,19.9941104 C32.8180075,12.918173 27.081827,7.18199246 20.0058896,7.18199246 C12.9299522,7.18199246 7.19377166,12.918173 7.19377166,19.9941104 C7.19377166,27.0700478 12.9299522,32.8062283 20.0058896,32.8062283 Z" id="Oval-6-Copy" fill="#817F97" fill-rule="nonzero"></path>
            <circle id="Oval-7" fill="#817F97" cx="20.0058896" cy="19.7179322" r="9.6872271"></circle>
            <path d="M18.0684442,15.4761608 C16.6458075,15.4761608 15.4879135,16.6334557 15.4879135,18.056665 L13.2248306,18.056665 C13.2248306,15.3861715 15.3979091,13.2130514 18.0684442,13.2130514 L18.0684442,15.4761608 Z" id="Fill-1" fill="#FFFFFF"></path>
        </g>
    </g>
</svg>