<?xml version="1.0" encoding="UTF-8"?>
<svg class="logo" width="40px" height="40px" viewBox="0 0 40 40" version="1.1" xmlns="http://www.w3.org/2000/svg" xmlns:xlink="http://www.w3.org/1999/xlink">
    <!-- Generator: Sketch 43.2 (39069) - http://www.bohemiancoding.com/sketch -->
    <title>ic_transmitlive_dp</title>
    <desc>Created with Sketch.</desc>
    <defs></defs>
    <g id="ICONS" stroke="none" stroke-width="1" fill="none" fill-rule="evenodd">
        <g id="ic_transmitlive_dp">
            <path class="outter-ring" d="M19.8000488,39.8261719 C8.96078644,39.8261719 0.173828125,31.0392136 0.173828125,20.1999512 C0.173828125,9.36068878 8.96078644,0.573730469 19.8000488,0.573730469 C30.6393112,0.573730469 39.4262695,9.36068878 39.4262695,20.1999512 C39.4262695,31.0392136 30.6393112,39.8261719 19.8000488,39.8261719 Z M19.8000488,37.3261719 C29.2585993,37.3261719 36.9262695,29.6585017 36.9262695,20.1999512 C36.9262695,10.7414007 29.2585993,3.07373047 19.8000488,3.07373047 C10.3414983,3.07373047 2.67382812,10.7414007 2.67382812,20.1999512 C2.67382812,29.6585017 10.3414983,37.3261719 19.8000488,37.3261719 Z" id="Oval-6" fill="#817F97" fill-rule="nonzero"></path>
            <path class="inner-ring" d="M19.7319111,34.6086689 C11.8118275,34.6086689 5.39133115,28.1881725 5.39133115,20.2680889 C5.39133115,12.3480053 11.8118275,5.92750901 19.7319111,5.92750901 C27.6519947,5.92750901 34.072491,12.3480053 34.072491,20.2680889 C34.072491,28.1881725 27.6519947,34.6086689 19.7319111,34.6086689 Z M19.7319111,33.1086689 C26.8235675,33.1086689 32.572491,27.3597454 32.572491,20.2680889 C32.572491,13.1764325 26.8235675,7.42750901 19.7319111,7.42750901 C12.6402546,7.42750901 6.89133115,13.1764325 6.89133115,20.2680889 C6.89133115,27.3597454 12.6402546,33.1086689 19.7319111,33.1086689 Z" id="Oval-6-Copy" fill="#817F97" fill-rule="nonzero"></path>
            <circle id="Oval-7" fill="#000000" cx="19.7319111" cy="19.9913311" r="9.70755709"></circle>
            <path d="M17.7903997,15.7406578 C16.3647774,15.7406578 15.2044534,16.9003815 15.2044534,18.3265775 L12.9366211,18.3265775 C12.9366211,15.6504797 15.1142601,13.472799 17.7903997,13.472799 L17.7903997,15.7406578 Z" id="Fill-1" fill="#FFFFFF"></path>
        </g>
    </g>
</svg>