<?xml version="1.0" encoding="UTF-8"?>
<svg width="40px" height="40px" viewBox="0 0 40 40" version="1.1" xmlns="http://www.w3.org/2000/svg" xmlns:xlink="http://www.w3.org/1999/xlink">
    <!-- Generator: Sketch 43.2 (39069) - http://www.bohemiancoding.com/sketch -->
    <title>ic_notification_norm</title>
    <desc>Created with Sketch.</desc>
    <defs></defs>
    <g id="ICONS" stroke="none" stroke-width="1" fill="none" fill-rule="evenodd">
        <g id="ic_notification_norm" fill-rule="nonzero" fill="#E1D9F2">
            <path d="M20,39.75 C17.3721019,39.75 15.25,37.6205551 15.25,35 C15.25,34.5857864 15.5857864,34.25 16,34.25 L24,34.25 C24.4142136,34.25 24.75,34.5857864 24.75,35 C24.75,37.6142136 22.6142136,39.75 20,39.75 Z M20,38.25 C21.5279355,38.25 22.820458,37.1780972 23.161859,35.75 L16.8369086,35.75 C17.1750249,37.1824057 18.4604981,38.25 20,38.25 Z" id="Path"></path>
            <path d="M36.5135066,29.5745761 C36.6644103,29.7163341 36.75,29.914168 36.75,30.1212121 L36.75,32 C36.75,32.4142136 36.4142136,32.75 36,32.75 L4,32.75 C3.58578644,32.75 3.25,32.4142136 3.25,32 L3.25,30.1212121 C3.25,29.914168 3.33558969,29.7163341 3.4864934,29.5745761 L7.25,26.0391608 L7.25,16.969697 C7.25,10.8682095 10.6643775,6.01796795 16.25,4.50819616 L16.25,3.81818182 C16.25,1.83372952 17.9359056,0.25 20,0.25 C22.0640944,0.25 23.75,1.83372952 23.75,3.81818182 L23.75,4.5087542 C29.3198143,6.02072665 32.75,10.8898058 32.75,16.969697 L32.75,26.0391608 L36.5135066,29.5745761 Z M31.4864934,26.9102724 C31.3355897,26.7685144 31.25,26.5706805 31.25,26.3636364 L31.25,16.969697 C31.25,11.3572048 28.0389032,6.98968842 22.8365139,5.82772226 C22.4937382,5.75116248 22.25,5.44697914 22.25,5.09575758 L22.25,3.81818182 C22.25,2.68384623 21.2559056,1.75 20,1.75 C18.7440944,1.75 17.75,2.68384623 17.75,3.81818182 L17.75,5.09575758 C17.75,5.44718736 17.505979,5.7514924 17.1629434,5.82784327 C11.94353,6.98954989 8.75,11.335365 8.75,16.969697 L8.75,26.3636364 C8.75,26.5706805 8.66441031,26.7685144 8.5135066,26.9102724 L4.75,30.4456877 L4.75,31.25 L35.25,31.25 L35.25,30.4456877 L31.4864934,26.9102724 Z" id="Path" stroke="#E1D9F2" stroke-width="0.5"></path>
        </g>
    </g>
</svg>