<svg width="39px" height="50px" viewBox="0 0 39 50">
  <path d="M37.2435064,21.5533731 C39.5314083,23.0419356 39.5447843,25.8408671 37.2758148,27.3635934 L5.33107635,48.8020012 C2.95651035,50.3955943 0.5,49.0906824 0.5,46.2324176 L0.5,3.41128141 C0.5,0.567016994 2.94298509,-0.763348323 5.32769748,0.78820133 L37.2435064,21.5533731 Z M3.65932219,46.3109697 L35.6040607,24.8725618 C36.0898753,24.5465271 36.089086,24.3813579 35.6074396,24.0679874 L3.69163059,3.30281564 C3.62544339,3.25975271 3.56516924,3.22550005 3.51170633,3.19913525 C3.5043439,3.25957184 3.5,3.33038051 3.5,3.41128141 L3.5,46.2324176 C3.5,46.2958724 3.50262864,46.3530165 3.50723259,46.4037045 C3.55356638,46.3785462 3.60444073,46.3478012 3.65932219,46.3109697 Z" id="Path-10" fill="#E1D9F2" fill-rule="nonzero"></path>
</svg>