<svg style="width:16px; height:14px;" viewBox="0 0 16 14">
    <path d="M13.2382812,8.51171875 L13.2382812,7 L7.26171875,7 L7.26171875,8.51171875 L13.2382812,8.51171875 Z M14.0117188,2.5 C14.4335959,2.5 14.7851548,2.64648291 15.0664062,2.93945312 C15.3476577,3.23242334 15.4882812,3.58984164 15.4882812,4.01171875 L15.4882812,11.5 C15.4882812,11.9218771 15.3476577,12.2792954 15.0664062,12.5722656 C14.7851548,12.8652358 14.4335959,13.0117188 14.0117188,13.0117188 L1.98828125,13.0117188 C1.56640414,13.0117188 1.21484516,12.8652358 0.93359375,12.5722656 C0.652342344,12.2792954 0.51171875,11.9218771 0.51171875,11.5 L0.51171875,2.5 C0.51171875,2.07812289 0.652342344,1.72070459 0.93359375,1.42773438 C1.21484516,1.13476416 1.56640414,0.98828125 1.98828125,0.98828125 L6.48828125,0.98828125 L8,2.5 L14.0117188,2.5 Z" id="create_new_folder"></path>
</svg>