<svg style="width: 96px; height: 32px;" viewBox="0 0 288 96" version="1.1" xmlns="http://www.w3.org/2000/svg" xmlns:xlink="http://www.w3.org/1999/xlink">
    <!-- Generator: Sketch 44.1 (41455) - http://www.bohemiancoding.com/sketch -->
    <desc>Created with Sketch.</desc>
    <defs></defs>
    <g id="Page-1" stroke="none" stroke-width="1" fill="none" fill-rule="evenodd">
        <path d="M224,0 L209,15 L193,15 L184,23 L184,15 L170,15 L170,0 L114,0 L114,15 L46,15 L31,0 L0,0 L0,66.092 L15,81 L40,96 L61,96 L61,92.001 L69,96 L109,96 L116,87 L117,96 L143,96 L144,87 L153,96 L177,96 L178,87 L186,96 L212,96 L221,87 L221,96 L235,96 L247,87 L247,96 L263,96 L288,79 L288,30.001 L273,15 L256,15 L256,0 L224,0 Z M231,7 L248,7 L248,22.001 L270,22.001 L281,33 L281,74.001 L264,74.001 L264,40.001 L248,40.001 L248,74.001 L231,74.001 L231,7 Z M145,63 L145,7 L163,7 L163,22.001 L178,22.001 L178,40.001 L163,40.001 L163,56.001 L178,56.001 L178,74.001 L156,74.001 L145,63 Z M120,15 L138,15 L138,7 L120,7 L120,15 Z M7,63 L7,7 L24,7 L24,22.001 L40,22.001 L40,40.001 L24,40.001 L24,56.001 L40,56.001 L40,74.001 L18,74.001 L7,63 Z M185,63 L185,33 L196,22.001 L224,22.001 L224,40.001 L202,40.001 L202,56.001 L224,56.001 L224,74.001 L196,74.001 L185,63 Z M120,74.001 L138,74.001 L138,22.001 L120,22.001 L120,74.001 Z M96,56.001 L96,22.001 L114,22.001 L114,62 L102,74.001 L46,74.001 L46,22.001 L64,22.001 L64,56.001 L71,56.001 L71,22.001 L89,22.001 L89,56.001 L96,56.001 Z" fill="#FFFFFF"></path>
    </g>
</svg>