<svg style="width: 16px; height: 16px;" viewBox="-225 4101 16 16">
  <path d="M-223.925373,4101 L-225,4103.74627 L-225,4114.97015 L-221.179104,4114.97015 L-221.179104,4117 L-219.029851,4117 L-217,4114.97015 L-213.895522,4114.97015 L-209.716418,4110.79104 L-209.716418,4101 L-223.925373,4101 Z M-222.61194,4102.43284 L-211.149254,4102.43284 L-211.149254,4110.07463 L-213.537313,4112.46269 L-217.358209,4112.46269 L-219.38806,4114.49254 L-219.38806,4112.46269 L-222.61194,4112.46269 L-222.61194,4102.43284 Z M-214.970149,4109.35379 L-213.537194,4109.35379 L-213.537194,4105.1791 L-214.970149,4105.1791 L-214.970149,4109.35379 Z M-218.791045,4109.35379 L-217.358209,4109.35379 L-217.358209,4105.1791 L-218.791045,4105.1791 L-218.791045,4109.35379 Z" id="Page-1" stroke="none" fill="#000000" fill-rule="evenodd"></path>
</svg>