<svg style="width: 18px; height: 12px;" viewBox="-227 4055 18 12" version="1.1" xmlns="http://www.w3.org/2000/svg" xmlns:xlink="http://www.w3.org/1999/xlink">
    <!-- Generator: Sketch 41.1 (35376) - http://www.bohemiancoding.com/sketch -->
    <desc>Created with Sketch.</desc>
    <defs></defs>
    <path d="M-219.243608,4063.19166 L-219.244393,4058.39783 L-214.634296,4060.80309 L-219.243608,4063.19166 Z M-209.10886,4057.58875 C-209.10886,4057.58875 -209.275592,4056.41303 -209.787129,4055.89528 C-210.4359,4055.21574 -211.163126,4055.21237 -211.496623,4055.17259 C-213.884153,4055 -217.46553,4055 -217.46553,4055 L-217.472946,4055 C-217.472946,4055 -221.054257,4055 -223.441853,4055.17259 C-223.775367,4055.21237 -224.502343,4055.21574 -225.151364,4055.89528 C-225.662901,4056.41303 -225.829366,4057.58875 -225.829366,4057.58875 C-225.829366,4057.58875 -226.000006,4058.96944 -226.000006,4060.35012 L-226.000006,4061.6445 C-226.000006,4063.02516 -225.829366,4064.40583 -225.829366,4064.40583 C-225.829366,4064.40583 -225.662901,4065.58158 -225.151364,4066.09933 C-224.502343,4066.77888 -223.649809,4066.7574 -223.270094,4066.82861 C-221.905137,4066.95949 -217.469221,4067 -217.469221,4067 C-217.469221,4067 -213.884153,4066.9946 -211.496623,4066.82203 C-211.163126,4066.78224 -210.4359,4066.77888 -209.787129,4066.09933 C-209.275592,4065.58158 -209.10886,4064.40583 -209.10886,4064.40583 C-209.10886,4064.40583 -208.938487,4063.02516 -208.938487,4061.6445 L-208.938487,4060.35012 C-208.938487,4058.96944 -209.10886,4057.58875 -209.10886,4057.58875 L-209.10886,4057.58875 Z" id="Fill-1" stroke="none" fill="#282928" fill-rule="evenodd"></path>
</svg>