<svg version="1.1" id="YouTube_Logo" xmlns="http://www.w3.org/2000/svg" xmlns:xlink="http://www.w3.org/1999/xlink" x="0px"
	 y="0px" style="width: 78px; height: 32px;" viewBox="0 0 501.023 209.077" enable-background="new 0 0 501.023 209.077"
	 xml:space="preserve">
<g>
	<path id="u_2_" d="M187,169.196h-19v-11c-7.203,8.256-13.309,12.426-19.965,12.426c-5.84,0-9.896-2.755-11.926-7.732
		c-1.234-3.026-2.109-7.752-2.109-14.693v-80h19v75c0,4.242,0,6,0,7c0.443,2.807,1.635,3.832,4.051,3.832
		c3.637,0,6.928-3.16,10.949-8.832v-77h19V169.196z"/>
	<linearGradient id="lozenge_1_" gradientUnits="userSpaceOnUse" x1="351.7187" y1="-3.637979e-12" x2="351.7187" y2="209.0772">
		<stop  offset="0" style="stop-color:#E32E28"/>
		<stop  offset="1" style="stop-color:#BE2126"/>
	</linearGradient>
	<path id="lozenge_2_" fill="url(#lozenge_1_)" d="M498.041,45.104c0,0-2.918-20.485-11.871-29.506
		C474.816,3.759,462.086,3.699,456.25,3.007C414.465,0,351.785,0,351.785,0h-0.131c0,0-62.682,0-104.467,3.007
		c-5.838,0.692-18.562,0.752-29.92,12.591c-8.953,9.021-11.867,29.506-11.867,29.506s-2.986,24.055-2.986,48.112v22.553
		c0,24.055,2.986,48.109,2.986,48.109s2.914,20.484,11.867,29.506c11.357,11.842,26.281,11.465,32.926,12.705
		c23.889,2.283,101.525,2.988,101.525,2.988s62.746-0.094,104.531-3.1c5.836-0.693,18.566-0.752,29.92-12.594
		c8.953-9.021,11.871-29.506,11.871-29.506s2.982-24.055,2.982-48.109V93.216C501.023,69.159,498.041,45.104,498.041,45.104z"/>
	<path id="o_2_" d="M120,101.196c0-10.793-2.168-18.898-6-24c-5.062-6.908-13-9.736-21-9.736c-9.055,0-15.946,2.828-21,9.736
		c-3.893,5.102-5.981,13.294-5.981,24.088L66,137.196c0,10.732,1.857,18.148,5.75,23.201C76.805,167.284,85,170.933,93,170.933
		s16.339-3.648,21.4-10.535c3.832-5.053,5.6-12.469,5.6-23.201V101.196z M101,139.196c1,10-2.102,14.962-8.002,14.962
		S84,149.196,85,139.196v-40c-1-10,2.1-14.687,8-14.687c5.9,0,9.01,4.687,8.01,14.687L101,139.196z"/>
	<path id="y_2_" d="M45,114.196v55H25v-55c0,0-20.725-67.431-25-80h21l14.035,52.675L49,34.196h21L45,114.196z"/>
	<path id="e_1_" fill="#FFFFFF" d="M476.035,122.196l-0.004-20.443c0-10.68-2.104-18.493-5.889-23.547
		c-5.074-6.838-12.283-10.457-21.365-10.457c-9.242,0-16.451,3.619-21.688,10.457c-3.846,5.055-6.09,13.311-6.09,23.991v35
		c0,10.619,2.467,18.053,6.312,23.053c5.234,6.828,12.443,10.236,21.914,10.236c9.459,0,16.889-3.576,21.896-10.832
		c2.201-3.203,3.623-6.834,4.234-10.848c0.162-1.812,0.643-5.941,0.643-11.775v-2.834h-18.999c0,7.264,0.032,11.582-0.136,12.568
		c-1.033,4.84-3.631,7.264-8.088,7.264c-6.215,0-8.84-4.646-8.777-13.874v-17.958H476.035z M440,96.155
		c0-9.346,2.562-11.895,8.609-11.895c6.002,0,8.391,2.777,8.391,12.02v10.916l-17,0.019V96.155z"/>
	<path id="b_1_" fill="#FFFFFF" d="M392.107,67.592c-6.66,0-13.28,4.096-19.128,11.291L373,35.196h-18v134h18l0.025-10.068
		c6.049,7.484,12.645,11.357,19.082,11.357c7.209,0,12.477-3.859,14.893-11.289c1.209-4.236,2-10.758,2-20v-40
		c0-9.465-1.213-15.936-2.422-19.956C404.162,71.756,399.316,67.592,392.107,67.592z M390,140.196c0,10-2.357,13.832-7.578,13.832
		c-2.98,0-6.415-1.534-9.442-4.562L373,88.821c3.027-2.988,6.441-4.561,9.422-4.561c5.221,0,7.578,2.936,7.578,12.936V140.196z"/>
	<path id="u_1_" fill="#FFFFFF" d="M340,169.196h-19v-11c-7.203,8.256-13.309,12.426-19.965,12.426
		c-5.84,0-9.896-2.755-11.926-7.732c-1.234-3.026-2.109-7.752-2.109-14.693v-79h19v74c0,4.242,0,6,0,7
		c0.443,2.807,1.635,3.832,4.051,3.832c3.637,0,6.928-3.16,10.949-8.832v-76h19V169.196z"/>
	<polygon id="T" fill="#FFFFFF" points="268,169.196 248,169.196 248,54.196 227,54.196 227,35.217 290,35.196 290,54.196 
		268,54.196 	"/>
</g>
<g id="You">
</g>
<g id="Tube">
</g>
</svg>
