<?xml version="1.0" encoding="UTF-8"?>
<svg width="520px" height="114px" viewBox="0 0 520 114" version="1.1" xmlns="http://www.w3.org/2000/svg" xmlns:xlink="http://www.w3.org/1999/xlink">
    <!-- Generator: Sketch 42 (36781) - http://www.bohemiancoding.com/sketch -->
    <title>blockstack-logo-landscape</title>
    <desc>Created with Sketch.</desc>
    <defs></defs>
    <g id="Symbols" stroke="none" stroke-width="1" fill="none" fill-rule="evenodd">
        <g id="Logo/blockstack-logo-landscape">
            <g id="blockstack-logo-landscape">
                <rect id="Rectangle" x="0" y="0" width="520" height="114"></rect>
                <path d="M143.368076,46.3148203 L150.357739,46.3148203 C151.564941,46.3148203 152.681586,46.4174309 153.707707,46.6226552 C154.733829,46.8278795 155.621109,47.1538191 156.369574,47.6004837 C157.118039,48.0471484 157.703523,48.6447043 158.126043,49.3931693 C158.548564,50.1416344 158.759821,51.059094 158.759821,52.1455755 C158.759821,53.2803452 158.42181,54.3305949 157.745777,55.2963563 C157.069744,56.2621177 156.031566,56.9260687 154.631212,57.2882292 L154.631212,57.4330927 C156.369582,57.7228211 157.691449,58.3324489 158.59685,59.2619942 C159.502251,60.1915396 159.954945,61.4530464 159.954945,63.0465527 C159.954945,64.2296105 159.731616,65.2557165 159.284951,66.1249018 C158.838287,66.994087 158.210551,67.7183972 157.401726,68.2978541 C156.592901,68.8773109 155.639226,69.3058611 154.540672,69.5835175 C153.442119,69.8611739 152.240971,70 150.937193,70 L143.368076,70 L143.368076,46.3148203 Z M149.959365,56.1293214 C151.625303,56.1293214 152.820415,55.8275255 153.544736,55.2239246 C154.269057,54.6203237 154.631212,53.7632233 154.631212,52.6525977 C154.631212,51.5661162 154.250949,50.7814468 153.490412,50.2985661 C152.729875,49.8156854 151.589086,49.5742487 150.068012,49.5742487 L147.569117,49.5742487 L147.569117,56.1293214 L149.959365,56.1293214 Z M150.502603,66.7405716 C152.240973,66.7405716 153.568875,66.414632 154.486348,65.7627431 C155.403822,65.1108541 155.862552,64.1088917 155.862552,62.7568258 C155.862552,60.3424223 154.07592,59.1352387 150.502603,59.1352387 L147.569117,59.1352387 L147.569117,66.7405716 L150.502603,66.7405716 Z M178.147383,46.3148203 L182.312208,46.3148203 L182.312208,66.4508446 L193.430481,66.4508446 L193.430481,70 L178.147383,70 L178.147383,46.3148203 Z M218.467718,70.4345905 C217.091508,70.4345905 215.830002,70.1509023 214.68316,69.5835175 C213.536318,69.0161327 212.558499,68.1952478 211.749674,67.1208382 C210.940849,66.0464287 210.307078,64.7487063 209.848341,63.2276321 C209.389604,61.7065579 209.16024,59.9802853 209.16024,58.0487625 C209.16024,56.1413838 209.389604,54.4332189 209.848341,52.9242168 C210.307078,51.4152146 210.940849,50.1416359 211.749674,49.1034424 C212.558499,48.0652489 213.536318,47.2685077 214.68316,46.7131949 C215.830002,46.1578821 217.091508,45.8802298 218.467718,45.8802298 C219.843928,45.8802298 221.105435,46.1578821 222.252277,46.7131949 C223.399119,47.2685077 224.376937,48.0652489 225.185763,49.1034424 C225.994588,50.1416359 226.628359,51.4152146 227.087096,52.9242168 C227.545832,54.4332189 227.775197,56.1413838 227.775197,58.0487625 C227.775197,59.9802853 227.545832,61.7065579 227.087096,63.2276321 C226.628359,64.7487063 225.994588,66.0464287 225.185763,67.1208382 C224.376937,68.1952478 223.399119,69.0161327 222.252277,69.5835175 C221.105435,70.1509023 219.843928,70.4345905 218.467718,70.4345905 Z M218.467718,66.7767875 C219.216184,66.7767875 219.898242,66.5715663 220.513915,66.1611177 C221.129588,65.7506691 221.654713,65.165185 222.089306,64.4046479 C222.523898,63.6441108 222.86191,62.7266513 223.10335,61.6522417 C223.34479,60.5778322 223.465509,59.3766844 223.465509,58.0487625 C223.465509,55.3929187 223.012815,53.3105269 222.107413,51.8015248 C221.202012,50.2925226 219.988793,49.5380328 218.467718,49.5380328 C216.946644,49.5380328 215.733425,50.2925226 214.828023,51.8015248 C213.922622,53.3105269 213.469928,55.3929187 213.469928,58.0487625 C213.469928,59.3766844 213.584611,60.5778322 213.813979,61.6522417 C214.043347,62.7266513 214.375323,63.6441108 214.809915,64.4046479 C215.244508,65.165185 215.769633,65.7506691 216.385306,66.1611177 C217.000979,66.5715663 217.695109,66.7767875 218.467718,66.7767875 Z M243.577388,58.2298419 C243.577388,56.2983191 243.85504,54.5660106 244.410353,53.0328644 C244.965666,51.4997182 245.732227,50.2019958 246.710061,49.1396582 C247.687894,48.0773207 248.84679,47.2685077 250.186784,46.7131949 C251.526778,46.1578821 252.981435,45.8802298 254.550797,45.8802298 C255.999439,45.8802298 257.291125,46.1820257 258.425895,46.7856266 C259.560665,47.3892275 260.51434,48.0773222 261.286949,48.8499313 L258.932917,51.457474 C258.35346,50.8780172 257.707617,50.4132515 256.995368,50.0631629 C256.283119,49.7130744 255.46827,49.5380328 254.550797,49.5380328 C253.560891,49.5380328 252.655504,49.7372181 251.834607,50.1355947 C251.013709,50.5339713 250.313543,51.1013476 249.734086,51.8377406 C249.154629,52.5741337 248.701935,53.4734855 248.375991,54.535823 C248.050046,55.5981606 247.887077,56.7932724 247.887077,58.1211943 C247.887077,59.4732602 248.050046,60.6864798 248.375991,61.7608893 C248.701935,62.8352989 249.160665,63.7406866 249.752194,64.4770797 C250.343723,65.2134727 251.055961,65.780849 251.88893,66.1792256 C252.7219,66.5776022 253.645395,66.7767875 254.659444,66.7767875 C255.625206,66.7767875 256.488342,66.5715663 257.248879,66.1611177 C258.009416,65.7506691 258.727691,65.1712209 259.403724,64.4227558 L261.721539,66.9940827 C260.755778,68.1047083 259.669313,68.9557728 258.462111,69.5473016 C257.254909,70.1388305 255.902864,70.4345905 254.405933,70.4345905 C252.884859,70.4345905 251.466418,70.1690101 250.150569,69.6378413 C248.834719,69.1066725 247.687894,68.3220032 246.710061,67.2838097 C245.732227,66.2456162 244.965666,64.9660015 244.410353,63.4449273 C243.85504,61.9238531 243.577388,60.1855087 243.577388,58.2298419 Z M278.211831,46.3148203 L282.449088,46.3148203 L282.449088,57.070934 L282.557736,57.070934 L290.996034,46.3148203 L295.667881,46.3148203 L288.388491,55.5498674 L296.464631,70 L291.792783,70 L285.889596,58.8455117 L282.449088,63.0827686 L282.449088,70 L278.211831,70 L278.211831,46.3148203 Z M313.570592,64.096813 C314.463922,64.8935662 315.47192,65.5394094 316.594618,66.0343621 C317.717315,66.5293148 318.858104,66.7767875 320.017018,66.7767875 C321.46566,66.7767875 322.564197,66.4991352 323.312662,65.9438224 C324.061127,65.3885096 324.435354,64.6521276 324.435354,63.7346543 C324.435354,63.2517736 324.338779,62.8413312 324.145627,62.5033147 C323.952475,62.1652982 323.680858,61.8695382 323.33077,61.6160258 C322.980681,61.3625135 322.558167,61.1271127 322.063214,60.9098163 C321.568262,60.69252 321.031065,60.475227 320.451608,60.2579307 L317.228395,58.8455117 C316.600651,58.6040713 315.984987,58.3022754 315.381386,57.9401149 C314.777785,57.5779544 314.234553,57.1433683 313.751672,56.6363436 C313.268791,56.1293188 312.882492,55.5377988 312.592764,54.8617659 C312.303036,54.1857329 312.158174,53.4131354 312.158174,52.5439501 C312.158174,51.6023328 312.363395,50.7271246 312.773843,49.9182995 C313.184292,49.1094743 313.751668,48.4032719 314.475989,47.799671 C315.20031,47.1960701 316.063447,46.7252685 317.065424,46.387252 C318.067401,46.0492355 319.171975,45.8802298 320.379176,45.8802298 C321.827818,45.8802298 323.210044,46.1518462 324.525893,46.6950869 C325.841743,47.2383277 326.994604,47.9686738 327.984509,48.8861471 L325.811557,51.5661216 C325.014804,50.9383767 324.181847,50.4434314 323.312662,50.0812709 C322.443477,49.7191104 321.465658,49.5380328 320.379176,49.5380328 C319.14783,49.5380328 318.176048,49.7855055 317.463799,50.2804582 C316.75155,50.7754109 316.39543,51.4574696 316.39543,52.3266549 C316.39543,52.7853916 316.504077,53.1777262 316.721373,53.5036707 C316.93867,53.8296152 317.23443,54.1193392 317.608662,54.3728516 C317.982895,54.626364 318.417481,54.8496929 318.912433,55.0428452 C319.407386,55.2359975 319.920439,55.4412187 320.451608,55.658515 L323.566173,56.9985023 C324.314638,57.2882307 325.002733,57.6262421 325.630478,58.0125467 C326.258222,58.3988512 326.801455,58.8455092 327.260192,59.3525339 C327.718928,59.8595586 328.075048,60.4450427 328.32856,61.1090036 C328.582072,61.7729646 328.708827,62.5395262 328.708827,63.4087115 C328.708827,64.3744728 328.509641,65.2798606 328.111265,66.1249018 C327.712888,66.969943 327.139476,67.7123609 326.391011,68.3521779 C325.642546,68.9919948 324.725086,69.4990119 323.638605,69.8732445 C322.552123,70.247477 321.320796,70.4345905 319.944586,70.4345905 C318.278647,70.4345905 316.685165,70.1327945 315.164091,69.5291937 C313.643017,68.9255928 312.290971,68.0684924 311.107913,66.9578668 L313.570592,64.096813 Z M351.573112,49.8639757 L344.112643,49.8639757 L344.112643,46.3148203 L363.234623,46.3148203 L363.234623,49.8639757 L355.774153,49.8639757 L355.774153,70 L351.573112,70 L351.573112,49.8639757 Z M390.408597,60.2941465 L389.575632,57.3968769 C389.237615,56.141387 388.887532,54.8497006 388.525371,53.5217786 C388.163211,52.1938567 387.813128,50.8780266 387.475111,49.5742487 L387.330248,49.5742487 C386.992231,50.9021706 386.648184,52.2240367 386.298095,53.5398866 C385.948007,54.8557365 385.591888,56.141387 385.229727,57.3968769 L384.396762,60.2941465 L390.408597,60.2941465 Z M391.350209,63.5897908 L383.455149,63.5897908 L381.60814,70 L377.334667,70 L385.012432,46.3148203 L389.93779,46.3148203 L397.615555,70 L393.161003,70 L391.350209,63.5897908 Z M412.584781,58.2298419 C412.584781,56.2983191 412.862433,54.5660106 413.417746,53.0328644 C413.973058,51.4997182 414.73962,50.2019958 415.717453,49.1396582 C416.695287,48.0773207 417.854183,47.2685077 419.194177,46.7131949 C420.534171,46.1578821 421.988827,45.8802298 423.55819,45.8802298 C425.006832,45.8802298 426.298518,46.1820257 427.433288,46.7856266 C428.568057,47.3892275 429.521732,48.0773222 430.294342,48.8499313 L427.94031,51.457474 C427.360853,50.8780172 426.71501,50.4132515 426.002761,50.0631629 C425.290512,49.7130744 424.475663,49.5380328 423.55819,49.5380328 C422.568284,49.5380328 421.662896,49.7372181 420.841999,50.1355947 C420.021102,50.5339713 419.320936,51.1013476 418.741479,51.8377406 C418.162022,52.5741337 417.709328,53.4734855 417.383384,54.535823 C417.057439,55.5981606 416.894469,56.7932724 416.894469,58.1211943 C416.894469,59.4732602 417.057439,60.6864798 417.383384,61.7608893 C417.709328,62.8352989 418.168058,63.7406866 418.759587,64.4770797 C419.351115,65.2134727 420.063354,65.780849 420.896323,66.1792256 C421.729292,66.5776022 422.652788,66.7767875 423.666837,66.7767875 C424.632599,66.7767875 425.495735,66.5715663 426.256272,66.1611177 C427.016809,65.7506691 427.735083,65.1712209 428.411116,64.4227558 L430.728932,66.9940827 C429.763171,68.1047083 428.676705,68.9557728 427.469504,69.5473016 C426.262302,70.1388305 424.910256,70.4345905 423.413326,70.4345905 C421.892252,70.4345905 420.473811,70.1690101 419.157961,69.6378413 C417.842111,69.1066725 416.695287,68.3220032 415.717453,67.2838097 C414.73962,66.2456162 413.973058,64.9660015 413.417746,63.4449273 C412.862433,61.9238531 412.584781,60.1855087 412.584781,58.2298419 Z M447.219224,46.3148203 L451.456481,46.3148203 L451.456481,57.070934 L451.565129,57.070934 L460.003427,46.3148203 L464.675274,46.3148203 L457.395884,55.5498674 L465.472023,70 L460.800176,70 L454.896989,58.8455117 L451.456481,63.0827686 L451.456481,70 L447.219224,70 L447.219224,46.3148203 Z" id="BLOCKSTACK" fill="#270F34"></path>
                <path d="M64.9014978,49.198827 C60.9532017,49.198827 57.7524752,46.0085355 57.7524752,42.0731116 C57.7524752,38.1376877 60.9532017,34.9473962 64.9014978,34.9473962 C68.849794,34.9473962 72.0505204,38.1376877 72.0505204,42.0731116 C72.0505204,46.0085355 68.849794,49.198827 64.9014978,49.198827 Z M93.4975882,49.198827 C89.5492921,49.198827 86.3485656,46.0085355 86.3485656,42.0731116 C86.3485656,38.1376877 89.5492921,34.9473962 93.4975882,34.9473962 C97.4458844,34.9473962 100.646611,38.1376877 100.646611,42.0731116 C100.646611,46.0085355 97.4458844,49.198827 93.4975882,49.198827 Z M93.4975882,77.7016884 C89.5492921,77.7016884 86.3485656,74.511397 86.3485656,70.575973 C86.3485656,66.6405491 89.5492921,63.4502577 93.4975882,63.4502577 C97.4458844,63.4502577 100.646611,66.6405491 100.646611,70.575973 C100.646611,74.511397 97.4458844,77.7016884 93.4975882,77.7016884 Z M64.9014978,77.7016884 C60.9532017,77.7016884 57.7524752,74.511397 57.7524752,70.575973 C57.7524752,66.6405491 60.9532017,63.4502577 64.9014978,63.4502577 C68.849794,63.4502577 72.0505204,66.6405491 72.0505204,70.575973 C72.0505204,74.511397 68.849794,77.7016884 64.9014978,77.7016884 Z" id="4dots-electric-blue" fill="#2C96FF"></path>
                <path d="M60.1490226,51.0936195 C56.2007264,51.0936195 53,47.903328 53,43.9679041 C53,40.0324802 56.2007264,36.8421887 60.1490226,36.8421887 C64.0973187,36.8421887 67.2980452,40.0324802 67.2980452,43.9679041 C67.2980452,47.903328 64.0973187,51.0936195 60.1490226,51.0936195 Z M88.745113,51.0936195 C84.7968168,51.0936195 81.5960904,47.903328 81.5960904,43.9679041 C81.5960904,40.0324802 84.7968168,36.8421887 88.745113,36.8421887 C92.6934091,36.8421887 95.8941356,40.0324802 95.8941356,43.9679041 C95.8941356,47.903328 92.6934091,51.0936195 88.745113,51.0936195 Z M88.745113,79.5964809 C84.7968168,79.5964809 81.5960904,76.4061894 81.5960904,72.4707655 C81.5960904,68.5353416 84.7968168,65.3450502 88.745113,65.3450502 C92.6934091,65.3450502 95.8941356,68.5353416 95.8941356,72.4707655 C95.8941356,76.4061894 92.6934091,79.5964809 88.745113,79.5964809 Z M60.1490226,79.5964809 C56.2007264,79.5964809 53,76.4061894 53,72.4707655 C53,68.5353416 56.2007264,65.3450502 60.1490226,65.3450502 C64.0973187,65.3450502 67.2980452,68.5353416 67.2980452,72.4707655 C67.2980452,76.4061894 64.0973187,79.5964809 60.1490226,79.5964809 Z" id="4dots-magenta" fill="#E91E63"></path>
                <path d="M62.5252602,48.2514307 C58.5769641,48.2514307 55.3762376,45.0611393 55.3762376,41.1257154 C55.3762376,37.1902914 58.5769641,34 62.5252602,34 C66.4735564,34 69.6742828,37.1902914 69.6742828,41.1257154 C69.6742828,45.0611393 66.4735564,48.2514307 62.5252602,48.2514307 Z M91.1213506,48.2514307 C87.1730544,48.2514307 83.972328,45.0611393 83.972328,41.1257154 C83.972328,37.1902914 87.1730544,34 91.1213506,34 C95.0696468,34 98.2703732,37.1902914 98.2703732,41.1257154 C98.2703732,45.0611393 95.0696468,48.2514307 91.1213506,48.2514307 Z M91.1213506,76.7542921 C87.1730544,76.7542921 83.972328,73.5640007 83.972328,69.6285768 C83.972328,65.6931529 87.1730544,62.5028614 91.1213506,62.5028614 C95.0696468,62.5028614 98.2703732,65.6931529 98.2703732,69.6285768 C98.2703732,73.5640007 95.0696468,76.7542921 91.1213506,76.7542921 Z M62.5252602,76.7542921 C58.5769641,76.7542921 55.3762376,73.5640007 55.3762376,69.6285768 C55.3762376,65.6931529 58.5769641,62.5028614 62.5252602,62.5028614 C66.4735564,62.5028614 69.6742828,65.6931529 69.6742828,69.6285768 C69.6742828,73.5640007 66.4735564,76.7542921 62.5252602,76.7542921 Z" id="4dots-rev" fill="#270F34"></path>
            </g>
        </g>
    </g>
</svg>