<?xml version="1.0" encoding="UTF-8"?>
<svg width="36px" height="36px" viewBox="0 0 36 36" version="1.1" xmlns="http://www.w3.org/2000/svg" xmlns:xlink="http://www.w3.org/1999/xlink">
    <!-- Generator: Sketch 48.2 (47327) - http://www.bohemiancoding.com/sketch -->
    <title>Branding/blockstack-bug-rounded</title>
    <desc>Created with Sketch.</desc>
    <defs>
        <path d="M35.9999854,24.6467873 C35.9999854,24.6467873 36.0087047,28.3989161 35.6001967,30.0252007 C35.1916886,31.6514853 34.4415442,32.7853462 33.6102888,33.6164341 C32.7753418,34.4512131 31.6692866,35.2102724 29.9833251,35.605744 C28.2973987,36.0012156 24.6392141,35.9942553 24.6392141,35.9942553 L11.3492892,35.9999852 C11.3492892,35.9999852 7.59652787,36.0087383 5.97001958,35.6002953 C4.34347612,35.1918171 3.20943468,34.4417921 2.37821448,33.610669 C1.54326746,32.7758549 0.784122434,31.6699758 0.388587906,29.9843177 C-0.00694662247,28.2986597 1.47852276e-05,24.6410574 1.47852276e-05,24.6410574 L1.47852276e-05,11.3532125 C1.47852276e-05,11.3532125 -0.00873971233,7.6010837 0.399803507,5.97479913 C0.808311567,4.34851457 1.55845598,3.21468878 2.38971135,2.38360088 C3.22465837,1.54878675 4.33071354,0.789727402 6.01663991,0.394255829 C7.70260145,-0.00121574329 11.3607509,0.00574455639 11.3607509,0.00574455639 L24.650711,1.46127161e-05 C24.650711,1.46127161e-05 28.4034723,-0.0087033384 30.0299806,0.399739702 C31.656524,0.808182742 32.7905303,1.55820776 33.6217505,2.38933082 C34.4566976,3.22414494 35.2158777,4.33002407 35.6114123,6.0156821 C36.0069468,7.70137529 35.9999854,11.3589425 35.9999854,11.3589425 L35.9999854,24.6467873 Z" id="path-1"></path>
    </defs>
    <g id="design-system" stroke="none" stroke-width="1" fill="none" fill-rule="evenodd" transform="translate(-74.000000, -129.000000)">
        <g id="Group-2" transform="translate(74.000000, 129.000000)">
            <g id="Branding/blockstack-bug-rounded">
                <mask id="mask-2" fill="white">
                    <use xlink:href="#path-1"></use>
                </mask>
                <use id="Fill-1" fill="#270F34" fill-rule="evenodd" xlink:href="#path-1"></use>
                <path d="M13.1254701,14.8344816 C11.5002681,14.8344816 10.1827816,13.5212486 10.1827816,11.9012936 C10.1827816,10.2813386 11.5002681,8.96810567 13.1254701,8.96810567 C14.750672,8.96810567 16.0681586,10.2813386 16.0681586,11.9012936 C16.0681586,13.5212486 14.750672,14.8344816 13.1254701,14.8344816 Z M24.8962241,14.8344816 C23.2710221,14.8344816 21.9535356,13.5212486 21.9535356,11.9012936 C21.9535356,10.2813386 23.2710221,8.96810567 24.8962241,8.96810567 C26.521426,8.96810567 27.8389126,10.2813386 27.8389126,11.9012936 C27.8389126,13.5212486 26.521426,14.8344816 24.8962241,14.8344816 Z M24.8962241,26.5672333 C23.2710221,26.5672333 21.9535356,25.2540004 21.9535356,23.6340454 C21.9535356,22.0140904 23.2710221,20.7008575 24.8962241,20.7008575 C26.521426,20.7008575 27.8389126,22.0140904 27.8389126,23.6340454 C27.8389126,25.2540004 26.521426,26.5672333 24.8962241,26.5672333 Z M13.1254701,26.5672333 C11.5002681,26.5672333 10.1827816,25.2540004 10.1827816,23.6340454 C10.1827816,22.0140904 11.5002681,20.7008575 13.1254701,20.7008575 C14.750672,20.7008575 16.0681586,22.0140904 16.0681586,23.6340454 C16.0681586,25.2540004 14.750672,26.5672333 13.1254701,26.5672333 Z" id="4dots-electric-blue" fill="#2C96FF" fill-rule="evenodd" mask="url(#mask-2)"></path>
                <path d="M11.169251,15.6144429 C9.54404902,15.6144429 8.2265625,14.3012099 8.2265625,12.681255 C8.2265625,11.0613 9.54404902,9.74806701 11.169251,9.74806701 C12.794453,9.74806701 14.1119395,11.0613 14.1119395,12.681255 C14.1119395,14.3012099 12.794453,15.6144429 11.169251,15.6144429 Z M22.940005,15.6144429 C21.314803,15.6144429 19.9973165,14.3012099 19.9973165,12.681255 C19.9973165,11.0613 21.314803,9.74806701 22.940005,9.74806701 C24.565207,9.74806701 25.8826935,11.0613 25.8826935,12.681255 C25.8826935,14.3012099 24.565207,15.6144429 22.940005,15.6144429 Z M22.940005,27.3471947 C21.314803,27.3471947 19.9973165,26.0339617 19.9973165,24.4140067 C19.9973165,22.7940518 21.314803,21.4808188 22.940005,21.4808188 C24.565207,21.4808188 25.8826935,22.7940518 25.8826935,24.4140067 C25.8826935,26.0339617 24.565207,27.3471947 22.940005,27.3471947 Z M11.169251,27.3471947 C9.54404902,27.3471947 8.2265625,26.0339617 8.2265625,24.4140067 C8.2265625,22.7940518 9.54404902,21.4808188 11.169251,21.4808188 C12.794453,21.4808188 14.1119395,22.7940518 14.1119395,24.4140067 C14.1119395,26.0339617 12.794453,27.3471947 11.169251,27.3471947 Z" id="4dots-magenta" fill="#E91E63" fill-rule="evenodd" mask="url(#mask-2)"></path>
                <path d="M12.1473605,14.4445009 C10.5221585,14.4445009 9.20467203,13.1312679 9.20467203,11.5113129 C9.20467203,9.89135798 10.5221585,8.578125 12.1473605,8.578125 C13.7725625,8.578125 15.090049,9.89135798 15.090049,11.5113129 C15.090049,13.1312679 13.7725625,14.4445009 12.1473605,14.4445009 Z M23.9181145,14.4445009 C22.2929125,14.4445009 20.975426,13.1312679 20.975426,11.5113129 C20.975426,9.89135798 22.2929125,8.578125 23.9181145,8.578125 C25.5433165,8.578125 26.860803,9.89135798 26.860803,11.5113129 C26.860803,13.1312679 25.5433165,14.4445009 23.9181145,14.4445009 Z M23.9181145,26.1772527 C22.2929125,26.1772527 20.975426,24.8640197 20.975426,23.2440647 C20.975426,21.6241098 22.2929125,20.3108768 23.9181145,20.3108768 C25.5433165,20.3108768 26.860803,21.6241098 26.860803,23.2440647 C26.860803,24.8640197 25.5433165,26.1772527 23.9181145,26.1772527 Z M12.1473605,26.1772527 C10.5221585,26.1772527 9.20467203,24.8640197 9.20467203,23.2440647 C9.20467203,21.6241098 10.5221585,20.3108768 12.1473605,20.3108768 C13.7725625,20.3108768 15.090049,21.6241098 15.090049,23.2440647 C15.090049,24.8640197 13.7725625,26.1772527 12.1473605,26.1772527 Z" id="4dots-rev" fill="#FFFFFF" fill-rule="evenodd" mask="url(#mask-2)"></path>
            </g>
        </g>
    </g>
</svg>