<?xml version="1.0" encoding="UTF-8"?>
<svg width="206px" height="36px" viewBox="0 0 206 36" version="1.1" xmlns="http://www.w3.org/2000/svg" xmlns:xlink="http://www.w3.org/1999/xlink">
    <!-- Generator: Sketch 48.2 (47327) - http://www.bohemiancoding.com/sketch -->
    <title>Group 2</title>
    <desc>Created with Sketch.</desc>
    <defs>
        <path d="M35.9999854,24.6467873 C35.9999854,24.6467873 36.0087047,28.3989161 35.6001967,30.0252007 C35.1916886,31.6514853 34.4415442,32.7853462 33.6102888,33.6164341 C32.7753418,34.4512131 31.6692866,35.2102724 29.9833251,35.605744 C28.2973987,36.0012156 24.6392141,35.9942553 24.6392141,35.9942553 L11.3492892,35.9999852 C11.3492892,35.9999852 7.59652787,36.0087383 5.97001958,35.6002953 C4.34347612,35.1918171 3.20943468,34.4417921 2.37821448,33.610669 C1.54326746,32.7758549 0.784122434,31.6699758 0.388587906,29.9843177 C-0.00694662247,28.2986597 1.47852276e-05,24.6410574 1.47852276e-05,24.6410574 L1.47852276e-05,11.3532125 C1.47852276e-05,11.3532125 -0.00873971233,7.6010837 0.399803507,5.97479913 C0.808311567,4.34851457 1.55845598,3.21468878 2.38971135,2.38360088 C3.22465837,1.54878675 4.33071354,0.789727402 6.01663991,0.394255829 C7.70260145,-0.00121574329 11.3607509,0.00574455639 11.3607509,0.00574455639 L24.650711,1.46127161e-05 C24.650711,1.46127161e-05 28.4034723,-0.0087033384 30.0299806,0.399739702 C31.656524,0.808182742 32.7905303,1.55820776 33.6217505,2.38933082 C34.4566976,3.22414494 35.2158777,4.33002407 35.6114123,6.0156821 C36.0069468,7.70137529 35.9999854,11.3589425 35.9999854,11.3589425 L35.9999854,24.6467873 Z" id="path-1"></path>
    </defs>
    <g id="design-system" stroke="none" stroke-width="1" fill="none" fill-rule="evenodd" transform="translate(-74.000000, -129.000000)">
        <g id="Group-2" transform="translate(74.000000, 129.000000)">
            <g id="Branding/blockstack-logo-landscape" transform="translate(5.994318, 4.800000)">
                <path d="M47.7711623,8.0390237 L51.0651414,8.0390237 C51.6340526,8.0390237 52.1602875,8.08666434 52.643862,8.18194705 C53.1274365,8.27722976 53.5455799,8.42855885 53.8983049,8.63593887 C54.2510298,8.84331888 54.5269476,9.12075555 54.7260665,9.46825719 C54.9251854,9.81575883 55.0247433,10.2417222 55.0247433,10.7461601 C55.0247433,11.2730174 54.8654506,11.7606334 54.5468604,12.2090226 C54.2282701,12.6574118 53.7390138,12.9656748 53.0790769,13.1338207 L53.0790769,13.2010788 C53.898309,13.3355955 54.5212573,13.618637 54.9479407,14.0502116 C55.3746241,14.4817862 55.5879626,15.0674859 55.5879626,15.8073281 C55.5879626,16.3566049 55.4827156,16.8330112 55.2722185,17.2365615 C55.0617213,17.6401118 54.765892,17.9763987 54.3847215,18.2454322 C54.003551,18.5144658 53.5541179,18.7134355 53.0364088,18.8423474 C52.5186996,18.9712593 51.9526415,19.0357143 51.3382174,19.0357143 L47.7711623,19.0357143 L47.7711623,8.0390237 Z M50.8774017,12.5957563 C51.6624991,12.5957563 52.2257127,12.4556368 52.5670594,12.1753936 C52.9084061,11.8951503 53.0790769,11.4972108 53.0790769,10.9815632 C53.0790769,10.4771254 52.8998726,10.1128146 52.5414585,9.88861998 C52.1830445,9.66442537 51.6454315,9.55232975 50.9286034,9.55232975 L49.7509632,9.55232975 L49.7509632,12.5957563 L50.8774017,12.5957563 Z M51.1334104,17.5224082 C51.9526425,17.5224082 52.5784354,17.3710792 53.0108079,17.0684164 C53.4431804,16.7657537 53.6593634,16.3005569 53.6593634,15.672812 C53.6593634,14.5518389 52.8173875,13.9913608 51.1334104,13.9913608 L49.7509632,13.9913608 L49.7509632,17.5224082 L51.1334104,17.5224082 Z M64.1614104,8.0390237 L66.1241441,8.0390237 L66.1241441,17.3878921 L71.3637898,17.3878921 L71.3637898,19.0357143 L64.1614104,19.0357143 L64.1614104,8.0390237 Z M83.1629478,19.2374884 C82.514389,19.2374884 81.9198858,19.1057761 81.3794202,18.8423474 C80.8389546,18.5789187 80.3781434,18.1977936 79.996973,17.6989606 C79.6158025,17.2001276 79.3171286,16.5976136 79.1009424,15.8914006 C78.8847561,15.1851876 78.7766646,14.3837039 78.7766646,13.4869255 C78.7766646,12.6013568 78.8847561,11.8082802 79.1009424,11.1076721 C79.3171286,10.4070639 79.6158025,9.81575951 79.996973,9.3337411 C80.3781434,8.85172269 80.8389546,8.48180713 81.3794202,8.22398333 C81.9198858,7.96615953 82.514389,7.83724957 83.1629478,7.83724957 C83.8115065,7.83724957 84.4060097,7.96615953 84.9464753,8.22398333 C85.486941,8.48180713 85.9477521,8.85172269 86.3289226,9.3337411 C86.710093,9.81575951 87.0087669,10.4070639 87.2249532,11.1076721 C87.4411394,11.8082802 87.5492309,12.6013568 87.5492309,13.4869255 C87.5492309,14.3837039 87.4411394,15.1851876 87.2249532,15.8914006 C87.0087669,16.5976136 86.710093,17.2001276 86.3289226,17.6989606 C85.9477521,18.1977936 85.486941,18.5789187 84.9464753,18.8423474 C84.4060097,19.1057761 83.8115065,19.2374884 83.1629478,19.2374884 Z M83.1629478,17.5392228 C83.5156727,17.5392228 83.8371027,17.4439415 84.1272474,17.2533761 C84.4173921,17.0628106 84.6648647,16.7909788 84.8696727,16.4378722 C85.0744807,16.0847657 85.2337735,15.6588024 85.3475557,15.1599694 C85.4613379,14.6611364 85.5182282,14.1034606 85.5182282,13.4869255 C85.5182282,12.2538551 85.3048897,11.2870304 84.8782063,10.5864222 C84.451523,9.88581406 83.8797758,9.53551524 83.1629478,9.53551524 C82.4461197,9.53551524 81.8743726,9.88581406 81.4476892,10.5864222 C81.0210058,11.2870304 80.8076673,12.2538551 80.8076673,13.4869255 C80.8076673,14.1034606 80.8617131,14.6611364 80.9698062,15.1599694 C81.0778993,15.6588024 81.2343475,16.0847657 81.4391556,16.4378722 C81.6439636,16.7909788 81.8914362,17.0628106 82.1815809,17.2533761 C82.4717256,17.4439415 82.7988446,17.5392228 83.1629478,17.5392228 Z M94.9962403,13.570998 C94.9962403,12.6742196 95.1270879,11.8699335 95.388787,11.1581156 C95.6504862,10.4462977 96.0117393,9.84378375 96.4725574,9.35055561 C96.9333754,8.85732747 97.4795219,8.48180713 98.1110133,8.22398333 C98.7425047,7.96615953 99.4280324,7.83724957 100.167617,7.83724957 C100.85031,7.83724957 101.459036,7.97736909 101.993813,8.25761236 C102.528589,8.53785562 102.978022,8.85732814 103.342125,9.21603952 L102.232754,10.4266844 C101.959677,10.1576508 101.655314,9.94186675 101.319656,9.77932565 C100.983999,9.61678456 100.599989,9.53551524 100.167617,9.53551524 C99.7011097,9.53551524 99.2744328,9.62799413 98.8875732,9.81295468 C98.5007136,9.99791523 98.1707501,10.2613399 97.8976727,10.6032367 C97.6245953,10.9451335 97.4112569,11.3626897 97.2576508,11.8559178 C97.1040448,12.349146 97.027243,12.9040193 97.027243,13.5205545 C97.027243,14.1482994 97.1040448,14.7115799 97.2576508,15.2104129 C97.4112569,15.7092459 97.6274399,16.1296045 97.9062063,16.4715013 C98.1849728,16.813398 98.5206254,17.0768228 98.9131741,17.2617833 C99.3057228,17.4467439 99.7409333,17.5392228 100.218819,17.5392228 C100.673948,17.5392228 101.080713,17.4439415 101.439127,17.2533761 C101.797541,17.0628106 102.136038,16.7937811 102.454628,16.4462795 L103.546932,17.6401098 C103.091803,18.1557574 102.579791,18.5508945 102.01088,18.8255329 C101.441969,19.1001713 100.804798,19.2374884 100.099348,19.2374884 C99.3825198,19.2374884 98.7140592,19.1141832 98.0939461,18.8675692 C97.4738329,18.6209551 96.9333754,18.2566443 96.4725574,17.7746259 C96.0117393,17.2926075 95.6504862,16.6985007 95.388787,15.9922877 C95.1270879,15.2860747 94.9962403,14.4789862 94.9962403,13.570998 Z M111.318219,8.0390237 L113.315088,8.0390237 L113.315088,13.0329336 L113.366289,13.0329336 L117.342959,8.0390237 L119.544634,8.0390237 L116.114117,12.3267242 L119.920113,19.0357143 L117.718438,19.0357143 L114.936476,13.8568447 L113.315088,15.8241426 L113.315088,19.0357143 L111.318219,19.0357143 L111.318219,8.0390237 Z M127.981544,16.2949489 C128.402538,16.66487 128.877572,16.9647258 129.406659,17.1945253 C129.935746,17.4243247 130.473359,17.5392228 131.019514,17.5392228 C131.702207,17.5392228 132.219909,17.4103128 132.572634,17.152489 C132.925359,16.8946652 133.101718,16.5527735 133.101718,16.1268038 C133.101718,15.9026092 133.056206,15.7120466 132.96518,15.5551104 C132.874155,15.3981742 132.746152,15.260857 132.581167,15.1431549 C132.416183,15.0254527 132.217067,14.9161595 131.983814,14.8152719 C131.75056,14.7143843 131.497398,14.6134982 131.224321,14.5126107 L129.705336,13.8568447 C129.409502,13.7447474 129.119362,13.6046279 128.834906,13.4364819 C128.55045,13.268336 128.294444,13.0665638 128.06688,12.8311595 C127.839315,12.5957552 127.657267,12.3211209 127.520728,12.0072484 C127.384189,11.693376 127.315921,11.33467 127.315921,10.9311197 C127.315921,10.4939402 127.412634,10.0875936 127.606064,9.71206761 C127.799494,9.33654164 128.066878,9.00866194 128.408225,8.72841868 C128.749572,8.44817542 129.156337,8.22958895 129.628533,8.07265273 C130.100729,7.9157165 130.621275,7.83724957 131.190187,7.83724957 C131.87288,7.83724957 132.524273,7.96335714 133.144387,8.21557608 C133.7645,8.46779501 134.307802,8.80688427 134.774309,9.23285403 L133.750274,10.4771279 C133.374793,10.1856749 132.98225,9.95587887 132.572634,9.78773291 C132.163018,9.61958695 131.702207,9.53551524 131.190187,9.53551524 C130.609897,9.53551524 130.151931,9.65041325 129.816273,9.88021272 C129.480615,10.1100122 129.312789,10.4266823 129.312789,10.8302326 C129.312789,11.0432175 129.36399,11.2253729 129.466394,11.3767043 C129.568798,11.5280356 129.708179,11.6625504 129.884542,11.7802525 C130.060904,11.8979547 130.265709,12.0016432 130.498963,12.091321 C130.732216,12.1809988 130.974,12.2762801 131.224321,12.3771677 L132.692104,12.9993046 C133.044829,13.1338214 133.369104,13.2907553 133.664938,13.4701109 C133.960772,13.6494666 134.216778,13.8568435 134.432964,14.0922479 C134.64915,14.3276522 134.816976,14.5994841 134.936448,14.9077517 C135.055919,15.2160193 135.115654,15.5719229 135.115654,15.9754732 C135.115654,16.4238624 135.021785,16.844221 134.834044,17.2365615 C134.646304,17.6289021 134.376075,17.9735962 134.02335,18.270654 C133.670625,18.5677119 133.238259,18.8031127 132.726239,18.9768635 C132.214219,19.1506143 131.633938,19.2374884 130.98538,19.2374884 C130.200282,19.2374884 129.449331,19.0973689 128.732503,18.8171256 C128.015674,18.5368824 127.378504,18.1389429 126.820971,17.6232953 L127.981544,16.2949489 Z M145.890777,9.68684584 L142.374924,9.68684584 L142.374924,8.0390237 L151.386431,8.0390237 L151.386431,9.68684584 L147.870578,9.68684584 L147.870578,19.0357143 L145.890777,19.0357143 L145.890777,9.68684584 Z M164.192557,14.5294252 L163.80001,13.1842643 C163.640715,12.6013583 163.475733,12.0016467 163.30506,11.3851115 C163.134387,10.7685763 162.969405,10.1576552 162.81011,9.55232975 L162.741841,9.55232975 C162.582546,10.1688649 162.420408,10.7825885 162.255424,11.3935188 C162.09044,12.0044491 161.922614,12.6013583 161.75194,13.1842643 L161.359394,14.5294252 L164.192557,14.5294252 Z M164.636306,16.0595457 L160.915645,16.0595457 L160.045215,19.0357143 L158.03128,19.0357143 L161.649537,8.0390237 L163.970683,8.0390237 L167.58894,19.0357143 L165.489668,19.0357143 L164.636306,16.0595457 Z M174.643402,13.570998 C174.643402,12.6742196 174.77425,11.8699335 175.035949,11.1581156 C175.297648,10.4462977 175.658901,9.84378375 176.119719,9.35055561 C176.580537,8.85732747 177.126684,8.48180713 177.758175,8.22398333 C178.389667,7.96615953 179.075194,7.83724957 179.814779,7.83724957 C180.497472,7.83724957 181.106198,7.97736909 181.640975,8.25761236 C182.175751,8.53785562 182.625184,8.85732814 182.989287,9.21603952 L181.879916,10.4266844 C181.606839,10.1576508 181.302476,9.94186675 180.966818,9.77932565 C180.631161,9.61678456 180.247151,9.53551524 179.814779,9.53551524 C179.348272,9.53551524 178.921595,9.62799413 178.534735,9.81295468 C178.147876,9.99791523 177.817912,10.2613399 177.544835,10.6032367 C177.271757,10.9451335 177.058419,11.3626897 176.904813,11.8559178 C176.751207,12.349146 176.674405,12.9040193 176.674405,13.5205545 C176.674405,14.1482994 176.751207,14.7115799 176.904813,15.2104129 C177.058419,15.7092459 177.274602,16.1296045 177.553368,16.4715013 C177.832135,16.813398 178.167787,17.0768228 178.560336,17.2617833 C178.952885,17.4467439 179.388095,17.5392228 179.865981,17.5392228 C180.32111,17.5392228 180.727875,17.4439415 181.086289,17.2533761 C181.444703,17.0628106 181.7832,16.7937811 182.10179,16.4462795 L183.194094,17.6401098 C182.738965,18.1557574 182.226953,18.5508945 181.658042,18.8255329 C181.089131,19.1001713 180.45196,19.2374884 179.74651,19.2374884 C179.029682,19.2374884 178.361221,19.1141832 177.741108,18.8675692 C177.120995,18.6209551 176.580537,18.2566443 176.119719,17.7746259 C175.658901,17.2926075 175.297648,16.6985007 175.035949,15.9922877 C174.77425,15.2860747 174.643402,14.4789862 174.643402,13.570998 Z M190.965382,8.0390237 L192.96225,8.0390237 L192.96225,13.0329336 L193.013451,13.0329336 L196.990121,8.0390237 L199.191796,8.0390237 L195.761279,12.3267242 L199.567275,19.0357143 L197.3656,19.0357143 L194.583638,13.8568447 L192.96225,15.8241426 L192.96225,19.0357143 L190.965382,19.0357143 L190.965382,8.0390237 Z" id="BLOCKSTACK" fill="#270F34"></path>
                <path d="M10.7926599,9.3780268 C8.93196861,9.3780268 7.42358029,7.89682007 7.42358029,6.06965896 C7.42358029,4.24249785 8.93196861,2.76129111 10.7926599,2.76129111 C12.6533512,2.76129111 14.1617395,4.24249785 14.1617395,6.06965896 C14.1617395,7.89682007 12.6533512,9.3780268 10.7926599,9.3780268 Z M24.2689784,9.3780268 C22.4082871,9.3780268 20.8998987,7.89682007 20.8998987,6.06965896 C20.8998987,4.24249785 22.4082871,2.76129111 24.2689784,2.76129111 C26.1296696,2.76129111 27.638058,4.24249785 27.638058,6.06965896 C27.638058,7.89682007 26.1296696,9.3780268 24.2689784,9.3780268 Z M24.2689784,22.6114982 C22.4082871,22.6114982 20.8998987,21.1302914 20.8998987,19.3031303 C20.8998987,17.4759692 22.4082871,15.9947625 24.2689784,15.9947625 C26.1296696,15.9947625 27.638058,17.4759692 27.638058,19.3031303 C27.638058,21.1302914 26.1296696,22.6114982 24.2689784,22.6114982 Z M10.7926599,22.6114982 C8.93196861,22.6114982 7.42358029,21.1302914 7.42358029,19.3031303 C7.42358029,17.4759692 8.93196861,15.9947625 10.7926599,15.9947625 C12.6533512,15.9947625 14.1617395,17.4759692 14.1617395,19.3031303 C14.1617395,21.1302914 12.6533512,22.6114982 10.7926599,22.6114982 Z" id="4dots-electric-blue" fill="#2C96FF"></path>
                <path d="M8.55298766,10.2577519 C6.69229637,10.2577519 5.18390805,8.77654515 5.18390805,6.94938404 C5.18390805,5.12222294 6.69229637,3.6410162 8.55298766,3.6410162 C10.413679,3.6410162 11.9220673,5.12222294 11.9220673,6.94938404 C11.9220673,8.77654515 10.413679,10.2577519 8.55298766,10.2577519 Z M22.0293061,10.2577519 C20.1686148,10.2577519 18.6602265,8.77654515 18.6602265,6.94938404 C18.6602265,5.12222294 20.1686148,3.6410162 22.0293061,3.6410162 C23.8899974,3.6410162 25.3983857,5.12222294 25.3983857,6.94938404 C25.3983857,8.77654515 23.8899974,10.2577519 22.0293061,10.2577519 Z M22.0293061,23.4912233 C20.1686148,23.4912233 18.6602265,22.0100165 18.6602265,20.1828554 C18.6602265,18.3556943 20.1686148,16.8744876 22.0293061,16.8744876 C23.8899974,16.8744876 25.3983857,18.3556943 25.3983857,20.1828554 C25.3983857,22.0100165 23.8899974,23.4912233 22.0293061,23.4912233 Z M8.55298766,23.4912233 C6.69229637,23.4912233 5.18390805,22.0100165 5.18390805,20.1828554 C5.18390805,18.3556943 6.69229637,16.8744876 8.55298766,16.8744876 C10.413679,16.8744876 11.9220673,18.3556943 11.9220673,20.1828554 C11.9220673,22.0100165 10.413679,23.4912233 8.55298766,23.4912233 Z" id="4dots-magenta" fill="#E91E63"></path>
                <path d="M9.67282378,8.93816426 C7.81213249,8.93816426 6.30374417,7.45695752 6.30374417,5.62979642 C6.30374417,3.80263531 7.81213249,2.32142857 9.67282378,2.32142857 C11.5335151,2.32142857 13.0419034,3.80263531 13.0419034,5.62979642 C13.0419034,7.45695752 11.5335151,8.93816426 9.67282378,8.93816426 Z M23.1491422,8.93816426 C21.2884509,8.93816426 19.7800626,7.45695752 19.7800626,5.62979642 C19.7800626,3.80263531 21.2884509,2.32142857 23.1491422,2.32142857 C25.0098335,2.32142857 26.5182218,3.80263531 26.5182218,5.62979642 C26.5182218,7.45695752 25.0098335,8.93816426 23.1491422,8.93816426 Z M23.1491422,22.1716356 C21.2884509,22.1716356 19.7800626,20.6904289 19.7800626,18.8632678 C19.7800626,17.0361067 21.2884509,15.5548999 23.1491422,15.5548999 C25.0098335,15.5548999 26.5182218,17.0361067 26.5182218,18.8632678 C26.5182218,20.6904289 25.0098335,22.1716356 23.1491422,22.1716356 Z M9.67282378,22.1716356 C7.81213249,22.1716356 6.30374417,20.6904289 6.30374417,18.8632678 C6.30374417,17.0361067 7.81213249,15.5548999 9.67282378,15.5548999 C11.5335151,15.5548999 13.0419034,17.0361067 13.0419034,18.8632678 C13.0419034,20.6904289 11.5335151,22.1716356 9.67282378,22.1716356 Z" id="4dots" fill="#270F34"></path>
            </g>
            <g id="Branding/blockstack-bug-rounded">
                <mask id="mask-2" fill="white">
                    <use xlink:href="#path-1"></use>
                </mask>
                <use id="Fill-1" fill="#270F34" fill-rule="evenodd" xlink:href="#path-1"></use>
                <path d="M13.1254701,14.8344816 C11.5002681,14.8344816 10.1827816,13.5212486 10.1827816,11.9012936 C10.1827816,10.2813386 11.5002681,8.96810567 13.1254701,8.96810567 C14.750672,8.96810567 16.0681586,10.2813386 16.0681586,11.9012936 C16.0681586,13.5212486 14.750672,14.8344816 13.1254701,14.8344816 Z M24.8962241,14.8344816 C23.2710221,14.8344816 21.9535356,13.5212486 21.9535356,11.9012936 C21.9535356,10.2813386 23.2710221,8.96810567 24.8962241,8.96810567 C26.521426,8.96810567 27.8389126,10.2813386 27.8389126,11.9012936 C27.8389126,13.5212486 26.521426,14.8344816 24.8962241,14.8344816 Z M24.8962241,26.5672333 C23.2710221,26.5672333 21.9535356,25.2540004 21.9535356,23.6340454 C21.9535356,22.0140904 23.2710221,20.7008575 24.8962241,20.7008575 C26.521426,20.7008575 27.8389126,22.0140904 27.8389126,23.6340454 C27.8389126,25.2540004 26.521426,26.5672333 24.8962241,26.5672333 Z M13.1254701,26.5672333 C11.5002681,26.5672333 10.1827816,25.2540004 10.1827816,23.6340454 C10.1827816,22.0140904 11.5002681,20.7008575 13.1254701,20.7008575 C14.750672,20.7008575 16.0681586,22.0140904 16.0681586,23.6340454 C16.0681586,25.2540004 14.750672,26.5672333 13.1254701,26.5672333 Z" id="4dots-electric-blue" fill="#2C96FF" fill-rule="evenodd" mask="url(#mask-2)"></path>
                <path d="M11.169251,15.6144429 C9.54404902,15.6144429 8.2265625,14.3012099 8.2265625,12.681255 C8.2265625,11.0613 9.54404902,9.74806701 11.169251,9.74806701 C12.794453,9.74806701 14.1119395,11.0613 14.1119395,12.681255 C14.1119395,14.3012099 12.794453,15.6144429 11.169251,15.6144429 Z M22.940005,15.6144429 C21.314803,15.6144429 19.9973165,14.3012099 19.9973165,12.681255 C19.9973165,11.0613 21.314803,9.74806701 22.940005,9.74806701 C24.565207,9.74806701 25.8826935,11.0613 25.8826935,12.681255 C25.8826935,14.3012099 24.565207,15.6144429 22.940005,15.6144429 Z M22.940005,27.3471947 C21.314803,27.3471947 19.9973165,26.0339617 19.9973165,24.4140067 C19.9973165,22.7940518 21.314803,21.4808188 22.940005,21.4808188 C24.565207,21.4808188 25.8826935,22.7940518 25.8826935,24.4140067 C25.8826935,26.0339617 24.565207,27.3471947 22.940005,27.3471947 Z M11.169251,27.3471947 C9.54404902,27.3471947 8.2265625,26.0339617 8.2265625,24.4140067 C8.2265625,22.7940518 9.54404902,21.4808188 11.169251,21.4808188 C12.794453,21.4808188 14.1119395,22.7940518 14.1119395,24.4140067 C14.1119395,26.0339617 12.794453,27.3471947 11.169251,27.3471947 Z" id="4dots-magenta" fill="#E91E63" fill-rule="evenodd" mask="url(#mask-2)"></path>
                <path d="M12.1473605,14.4445009 C10.5221585,14.4445009 9.20467203,13.1312679 9.20467203,11.5113129 C9.20467203,9.89135798 10.5221585,8.578125 12.1473605,8.578125 C13.7725625,8.578125 15.090049,9.89135798 15.090049,11.5113129 C15.090049,13.1312679 13.7725625,14.4445009 12.1473605,14.4445009 Z M23.9181145,14.4445009 C22.2929125,14.4445009 20.975426,13.1312679 20.975426,11.5113129 C20.975426,9.89135798 22.2929125,8.578125 23.9181145,8.578125 C25.5433165,8.578125 26.860803,9.89135798 26.860803,11.5113129 C26.860803,13.1312679 25.5433165,14.4445009 23.9181145,14.4445009 Z M23.9181145,26.1772527 C22.2929125,26.1772527 20.975426,24.8640197 20.975426,23.2440647 C20.975426,21.6241098 22.2929125,20.3108768 23.9181145,20.3108768 C25.5433165,20.3108768 26.860803,21.6241098 26.860803,23.2440647 C26.860803,24.8640197 25.5433165,26.1772527 23.9181145,26.1772527 Z M12.1473605,26.1772527 C10.5221585,26.1772527 9.20467203,24.8640197 9.20467203,23.2440647 C9.20467203,21.6241098 10.5221585,20.3108768 12.1473605,20.3108768 C13.7725625,20.3108768 15.090049,21.6241098 15.090049,23.2440647 C15.090049,24.8640197 13.7725625,26.1772527 12.1473605,26.1772527 Z" id="4dots-rev" fill="#FFFFFF" fill-rule="evenodd" mask="url(#mask-2)"></path>
            </g>
        </g>
    </g>
</svg>