<?xml version="1.0" encoding="UTF-8"?>
<svg width="990px" height="191px" viewBox="0 0 990 191" version="1.1" xmlns="http://www.w3.org/2000/svg" xmlns:xlink="http://www.w3.org/1999/xlink">
    <!-- Generator: Sketch 48.2 (47327) - http://www.bohemiancoding.com/sketch -->
    <title>coindesk-logo-svg</title>
    <desc>Created with Sketch.</desc>
    <defs>
        <polygon id="path-1" points="0 0.2 190.861505 0.2 190.861505 190.999993 0 190.999993"></polygon>
        <polygon id="path-3" points="0 191.8 989.425 191.8 989.425 1 0 1"></polygon>
    </defs>
    <g id="Page-1" stroke="none" stroke-width="1" fill="none" fill-rule="evenodd">
        <g id="coindesk-logo-svg" transform="translate(0.000000, -1.000000)">
            <path d="M86.637,98.8748 C86.637,103.7328 90.589,107.6868 95.447,107.6868 C100.305,107.6868 104.258,103.7328 104.258,98.8748 C104.258,94.0178 100.305,90.0638 95.447,90.0638 C90.589,90.0638 86.637,94.0178 86.637,98.8748" id="Fill-1" fill="#F9C01A"></path>
            <path d="M165.908,89.4842 C161.05,89.4842 157.097,93.4372 157.097,98.2942 C157.097,103.1532 161.05,107.1062 165.908,107.1062 C170.766,107.1062 174.718,103.1532 174.718,98.2942 C174.718,93.4372 170.766,89.4842 165.908,89.4842" id="Fill-3" fill="#F9C01A"></path>
            <path d="M165.908,158.658 C161.05,158.658 157.097,162.611 157.097,167.469 C157.097,172.326 161.05,176.279 165.908,176.279 C170.766,176.279 174.718,172.326 174.718,167.469 C174.718,162.611 170.766,158.658 165.908,158.658" id="Fill-5" fill="#F9C01A"></path>
            <g id="Group-9" transform="translate(0.000000, 0.800000)">
                <mask id="mask-2" fill="white">
                    <use xlink:href="#path-1"></use>
                </mask>
                <g id="Clip-8"></g>
                <path d="M185.4559,9.6198 C176.1569,-1.9882 159.2879,-2.8682 148.8409,6.9798 C148.4779,7.3218 148.1079,7.6578 147.7199,7.9688 L145.4509,9.7838 C135.8299,17.4798 121.9399,16.6228 113.3389,7.8018 L113.0469,7.5018 C109.8729,4.3278 106.0559,2.1918 102.0149,1.0868 C102.0109,1.0858 102.0069,1.0858 102.0029,1.0838 C101.2019,0.8658 100.3919,0.6868 99.5759,0.5498 C99.3459,0.5118 99.1129,0.4988 98.8819,0.4668 C98.2899,0.3838 97.6989,0.2998 97.1029,0.2598 C96.7519,0.2358 96.3999,0.2468 96.0469,0.2388 C95.5709,0.2258 95.0949,0.2008 94.6189,0.2158 C94.1869,0.2298 93.7569,0.2818 93.3259,0.3178 C92.9309,0.3508 92.5349,0.3668 92.1419,0.4178 C91.6589,0.4818 91.1809,0.5858 90.7019,0.6778 C90.3649,0.7428 90.0249,0.7878 89.6899,0.8668 C89.1769,0.9878 88.6739,1.1488 88.1679,1.3018 C87.8739,1.3908 87.5759,1.4618 87.2839,1.5618 C86.7579,1.7428 86.2449,1.9648 85.7289,2.1828 C85.4679,2.2918 85.2019,2.3848 84.9429,2.5038 C84.4149,2.7478 83.9029,3.0338 83.3889,3.3168 C83.1569,3.4448 82.9179,3.5568 82.6889,3.6918 C82.1709,3.9998 81.6729,4.3488 81.1739,4.6968 C80.9639,4.8438 80.7459,4.9738 80.5389,5.1288 C80.0429,5.4978 79.5689,5.9088 79.0949,6.3208 C78.9029,6.4868 78.7029,6.6388 78.5149,6.8118 C78.4509,6.8708 78.3799,6.9198 78.3169,6.9798 C77.9539,7.3218 77.5839,7.6578 77.1949,7.9688 L74.9269,9.7838 C65.3819,17.4188 51.6439,16.6248 43.0279,7.9998 C42.8879,7.8518 42.7309,7.7128 42.5869,7.5678 L42.5219,7.5018 C42.5109,7.4908 42.4979,7.4808 42.4869,7.4698 C42.1189,7.1018 41.7669,6.7248 41.3709,6.3748 C37.8299,3.2468 33.5699,1.3148 29.1399,0.5628 C29.0649,0.5508 28.9899,0.5458 28.9139,0.5338 C28.2259,0.4228 27.5339,0.3378 26.8389,0.2848 C26.5619,0.2628 26.2859,0.2608 26.0089,0.2478 C25.5059,0.2258 25.0029,0.2088 24.4989,0.2178 C24.1829,0.2228 23.8669,0.2418 23.5499,0.2588 C23.0719,0.2848 22.5949,0.3188 22.1189,0.3718 C21.8149,0.4058 21.5139,0.4468 21.2109,0.4918 C20.6979,0.5668 20.1879,0.6598 19.6789,0.7668 C19.4299,0.8198 19.1819,0.8718 18.9349,0.9328 C18.3299,1.0798 17.7309,1.2538 17.1369,1.4468 C16.9929,1.4938 16.8479,1.5348 16.7049,1.5838 C13.7249,2.6098 10.9029,4.1948 8.4339,6.3748 C8.3029,6.4918 8.1919,6.6198 8.0639,6.7388 C8.0519,6.7498 8.0409,6.7618 8.0289,6.7728 C7.3869,7.3658 6.7809,7.9818 6.2149,8.6218 C6.2029,8.6358 6.1879,8.6478 6.1759,8.6618 C6.0989,8.7488 6.0359,8.8428 5.9599,8.9308 C4.0239,11.1958 2.5569,13.7178 1.5639,16.3838 C1.5569,16.4038 1.5479,16.4228 1.5409,16.4428 C1.2909,17.1178 1.0789,17.8008 0.8899,18.4908 C0.8809,18.5228 0.8709,18.5548 0.8619,18.5868 C0.6739,19.2828 0.5199,19.9838 0.3939,20.6918 C0.3909,20.7108 0.3869,20.7298 0.3829,20.7488 C-0.3061,24.6598 -0.0611,28.6928 1.1249,32.5088 C1.2799,33.0168 1.4379,33.5248 1.6259,34.0238 C1.6839,34.1738 1.7529,34.3198 1.8129,34.4688 C2.0699,35.1108 2.3519,35.7438 2.6639,36.3658 C2.6979,36.4338 2.7359,36.5008 2.7719,36.5688 C3.1349,37.2758 3.5349,37.9668 3.9699,38.6418 C3.9749,38.6488 3.9789,38.6568 3.9849,38.6628 C4.6409,39.6808 5.3559,40.6698 6.1759,41.5988 C6.5149,41.9818 6.8819,42.3228 7.2379,42.6808 C7.2509,42.6938 7.2619,42.7078 7.2739,42.7218 L7.3229,42.7668 C7.6249,43.0688 7.9209,43.3798 8.2349,43.6618 C17.6289,52.8928 17.5979,68.1018 8.0569,77.2098 C6.6119,78.5398 5.3699,79.9988 4.3129,81.5488 C4.2789,81.5988 4.2469,81.6498 4.2129,81.6998 C3.7559,82.3808 3.3359,83.0758 2.9539,83.7888 C2.8969,83.8928 2.8429,83.9988 2.7879,84.1048 C2.4459,84.7658 2.1339,85.4358 1.8549,86.1188 C1.7889,86.2778 1.7269,86.4368 1.6639,86.5968 C1.4209,87.2278 1.2059,87.8668 1.0159,88.5128 C0.9519,88.7268 0.8889,88.9408 0.8309,89.1568 C0.6749,89.7488 0.5439,90.3448 0.4319,90.9438 C0.3799,91.2168 0.3279,91.4868 0.2849,91.7608 C0.2019,92.3018 0.1439,92.8448 0.0969,93.3898 C0.0669,93.7218 0.0339,94.0528 0.0189,94.3848 C-0.0041,94.8618 -0.0021,95.3388 0.0029,95.8158 C0.0069,96.2148 0.0049,96.6108 0.0279,97.0088 C0.0509,97.4018 0.0979,97.7938 0.1389,98.1858 C0.1879,98.6618 0.2339,99.1378 0.3099,99.6098 C0.3559,99.8908 0.4239,100.1668 0.4789,100.4448 C0.5929,101.0208 0.7079,101.5978 0.8629,102.1658 C0.8919,102.2728 0.9329,102.3788 0.9629,102.4858 C2.1809,106.7388 4.5529,110.7208 8.0769,113.9598 C17.6959,123.2288 17.6639,138.7068 7.8899,147.8468 C7.7829,147.9468 7.6939,148.0588 7.5889,148.1618 C7.1079,148.6258 6.6269,149.0908 6.1759,149.6008 C6.1139,149.6728 6.0609,149.7498 5.9989,149.8218 C5.9149,149.9198 5.8409,150.0228 5.7579,150.1228 C5.2869,150.6868 4.8419,151.2658 4.4279,151.8628 C4.2889,152.0608 4.1629,152.2648 4.0299,152.4668 C3.7089,152.9598 3.4059,153.4598 3.1239,153.9708 C2.9689,154.2498 2.8189,154.5288 2.6749,154.8118 C2.4619,155.2358 2.2669,155.6648 2.0799,156.0978 C1.9209,156.4608 1.7609,156.8208 1.6209,157.1888 C1.5079,157.4878 1.4149,157.7918 1.3139,158.0938 C0.4579,160.6338 0.0219,163.2748 0.0069,165.9278 C0.0069,166.0048 0.0049,166.0818 0.0049,166.1578 C0.0069,166.8218 0.0369,167.4828 0.0919,168.1438 C0.1009,168.2538 0.1119,168.3608 0.1229,168.4698 C0.1849,169.1178 0.2649,169.7628 0.3769,170.4048 C0.3959,170.5148 0.4229,170.6238 0.4439,170.7328 C0.7639,172.4218 1.2579,174.0778 1.9289,175.6828 C2.1189,176.1418 2.3089,176.5998 2.5269,177.0488 C2.6559,177.3108 2.8019,177.5658 2.9399,177.8248 C3.2109,178.3338 3.4949,178.8358 3.8029,179.3278 C3.9399,179.5458 4.0839,179.7608 4.2289,179.9748 C4.5799,180.4978 4.9529,181.0078 5.3479,181.5068 C5.4939,181.6898 5.6369,181.8748 5.7879,182.0548 C5.9209,182.2138 6.0389,182.3828 6.1759,182.5388 C6.4449,182.8428 6.7369,183.1068 7.0169,183.3948 C7.2489,183.6358 7.4749,183.8788 7.7199,184.1118 C8.1609,184.5318 8.6199,184.9218 9.0839,185.3038 C9.2799,185.4658 9.4529,185.6438 9.6559,185.8028 C9.7349,185.8638 9.8199,185.9158 9.8999,185.9758 C10.0959,186.1248 10.2969,186.2608 10.4969,186.4018 C10.9819,186.7488 11.4749,187.0778 11.9799,187.3848 C12.1569,187.4928 12.3349,187.5978 12.5159,187.6998 C13.0709,188.0188 13.6359,188.3138 14.2099,188.5868 C14.3529,188.6548 14.4959,188.7268 14.6409,188.7928 C15.3469,189.1108 16.0629,189.4008 16.7919,189.6508 C16.8069,189.6558 16.8209,189.6618 16.8359,189.6678 C17.6039,189.9288 18.3829,190.1498 19.1689,190.3338 C19.2889,190.3618 19.4099,190.3798 19.5309,190.4058 C20.1549,190.5428 20.7839,190.6578 21.4159,190.7458 C21.6649,190.7798 21.9149,190.8048 22.1639,190.8318 C22.6799,190.8888 23.1959,190.9298 23.7129,190.9538 C23.9889,190.9668 24.2639,190.9778 24.5399,190.9818 C25.0659,190.9888 25.5919,190.9748 26.1189,190.9498 C26.3599,190.9378 26.6009,190.9338 26.8419,190.9148 C28.3909,190.7958 29.9289,190.5308 31.4349,190.1258 C31.5729,190.0878 31.7079,190.0418 31.8449,190.0018 C32.4769,189.8198 33.1019,189.6138 33.7209,189.3808 C33.8739,189.3228 34.0249,189.2628 34.1769,189.2008 C34.8039,188.9508 35.4209,188.6748 36.0289,188.3708 C36.1379,188.3158 36.2479,188.2648 36.3569,188.2088 C37.7729,187.4758 39.1379,186.6158 40.4129,185.5948 C40.4579,185.5578 40.4959,185.5168 40.5409,185.4798 C40.6339,185.4048 40.7189,185.3158 40.8109,185.2388 C41.4229,184.7278 42.0169,184.2038 42.5669,183.6518 L43.1739,183.0128 C52.4299,173.2688 68.0049,173.2668 77.1839,183.0828 C87.5789,194.1978 105.5459,193.6098 115.1399,181.3168 C122.1509,172.3328 122.0569,159.4538 114.9319,150.5598 C105.6329,138.9518 88.7639,138.0718 78.3169,147.9198 C77.9539,148.2618 77.5839,148.5978 77.1949,148.9088 L74.9269,150.7238 C65.3629,158.3748 51.5859,157.5648 42.9739,148.8908 C42.6609,148.5558 42.3509,148.2168 42.0639,147.8578 L40.2489,145.5898 C32.6049,136.0348 33.4079,122.2758 42.0589,113.6628 C47.1289,108.8378 49.7009,102.4328 49.7989,95.9848 C49.8059,95.5788 49.8309,95.1738 49.8179,94.7678 C49.8129,94.6258 49.7909,94.4848 49.7839,94.3438 C49.5029,88.5368 47.1999,82.8218 42.8789,78.3178 C42.5999,78.0158 42.3199,77.7148 42.0639,77.3938 L40.2489,75.1258 C32.5639,65.5198 33.4099,51.6598 42.1919,43.0558 C42.2999,42.9518 42.4159,42.8648 42.5219,42.7578 L43.1739,42.0728 C52.4299,32.3288 68.0049,32.3278 77.1839,42.1428 C77.4479,42.4248 77.7369,42.6658 78.0099,42.9328 C78.2879,43.2048 78.5619,43.4818 78.8499,43.7378 C79.2299,44.0768 79.6229,44.3908 80.0179,44.7018 C80.3289,44.9468 80.6389,45.1918 80.9569,45.4198 C81.3529,45.7028 81.7579,45.9638 82.1659,46.2208 C82.5069,46.4358 82.8489,46.6458 83.1979,46.8428 C83.6049,47.0718 84.0169,47.2848 84.4329,47.4888 C84.8019,47.6698 85.1709,47.8428 85.5459,48.0048 C85.9599,48.1828 86.3759,48.3488 86.7979,48.5038 C87.1909,48.6488 87.5869,48.7818 87.9859,48.9058 C88.4009,49.0358 88.8159,49.1568 89.2359,49.2638 C89.6549,49.3698 90.0749,49.4608 90.4979,49.5458 C90.9069,49.6278 91.3159,49.7058 91.7279,49.7668 C92.1719,49.8328 92.6159,49.8788 93.0619,49.9208 C93.4589,49.9588 93.8549,49.9968 94.2529,50.0158 C94.7219,50.0368 95.1899,50.0338 95.6599,50.0298 C96.0379,50.0258 96.4149,50.0278 96.7929,50.0068 C97.2889,49.9788 97.7799,49.9228 98.2739,49.8668 C98.6239,49.8258 98.9739,49.7958 99.3219,49.7408 C99.8539,49.6568 100.3799,49.5378 100.9059,49.4198 C101.2109,49.3508 101.5179,49.2968 101.8209,49.2158 C102.4099,49.0598 102.9899,48.8648 103.5679,48.6648 C103.8009,48.5848 104.0379,48.5208 104.2679,48.4328 C104.9849,48.1618 105.6879,47.8478 106.3819,47.5078 C106.4679,47.4658 106.5579,47.4338 106.6429,47.3908 C108.9519,46.2258 111.1189,44.6858 113.0469,42.7578 L113.6989,42.0728 C122.9539,32.3288 138.5289,32.3278 147.7079,42.1428 C158.1029,53.2588 176.0709,52.6698 185.6639,40.3768 C192.6749,31.3928 192.5809,18.5148 185.4559,9.6198" id="Fill-7" fill="#F9C01A" mask="url(#mask-2)"></path>
            </g>
            <path d="M317.0755,82.1912 C313.7855,78.7702 310.3315,76.1722 306.7155,74.3962 C303.0955,72.6202 298.7865,71.7312 293.7895,71.7312 C288.9195,71.7312 284.6765,72.6202 281.0595,74.3962 C277.4405,76.1722 274.4155,78.6082 271.9825,81.6982 C269.5465,84.7902 267.7055,88.3422 266.4565,92.3542 C265.2045,96.3692 264.5815,100.5452 264.5815,104.8852 C264.5815,109.2272 265.3035,113.3412 266.7525,117.2202 C268.1985,121.1012 270.2375,124.4902 272.8705,127.3822 C275.5005,130.2782 278.6585,132.5472 282.3435,134.1922 C286.0255,135.8382 290.1685,136.6592 294.7755,136.6592 C299.7745,136.6592 304.0505,135.7712 307.6035,133.9952 C311.1555,132.2182 314.4425,129.6222 317.4705,126.1992 L330.1005,138.8292 C325.4935,143.9602 320.1355,147.6462 314.0165,149.8812 C307.8985,152.1172 301.4175,153.2362 294.5785,153.2362 C287.3415,153.2362 280.7295,152.0512 274.7455,149.6832 C268.7575,147.3152 263.5945,143.9942 259.2535,139.7162 C254.9115,135.4432 251.5565,130.3122 249.1885,124.3252 C246.8205,118.3392 245.6365,111.7272 245.6365,104.4912 C245.6365,97.2572 246.8205,90.6122 249.1885,84.5582 C251.5565,78.5082 254.8785,73.3102 259.1555,68.9692 C263.4285,64.6272 268.5595,61.2412 274.5475,58.8042 C280.5325,56.3742 287.2085,55.1542 294.5785,55.1542 C301.4175,55.1542 307.9635,56.3742 314.2145,58.8042 C320.4615,61.2412 325.8885,64.9582 330.4955,69.9562 L317.0755,82.1912 Z" id="Fill-10" fill="#12181F"></path>
            <path d="M356.5975,104.0955 C356.5975,108.8335 357.3195,113.2085 358.7685,117.2205 C360.2145,121.2355 362.2525,124.6545 364.8865,127.4825 C367.5165,130.3125 370.7385,132.5475 374.5555,134.1925 C378.3695,135.8385 382.6465,136.6585 387.3835,136.6585 C392.1195,136.6585 396.3935,135.8385 400.2105,134.1925 C404.0255,132.5475 407.2475,130.3125 409.8805,127.4825 C412.5115,124.6545 414.5495,121.2355 415.9985,117.2205 C417.4445,113.2085 418.1695,108.8335 418.1695,104.0955 C418.1695,99.3605 417.4445,94.9885 415.9985,90.9735 C414.5495,86.9615 412.5115,83.5415 409.8805,80.7105 C407.2475,77.8845 404.0255,75.6485 400.2105,74.0005 C396.3935,72.3585 392.1195,71.5335 387.3835,71.5335 C382.6465,71.5335 378.3695,72.3585 374.5555,74.0005 C370.7385,75.6485 367.5165,77.8845 364.8865,80.7105 C362.2525,83.5415 360.2145,86.9615 358.7685,90.9735 C357.3195,94.9885 356.5975,99.3605 356.5975,104.0955 M337.6525,104.0955 C337.6525,97.2575 338.9355,90.8735 341.5005,84.9535 C344.0655,79.0335 347.5845,73.8365 352.0585,69.3645 C356.5305,64.8935 361.7935,61.3705 367.8465,58.8045 C373.8965,56.2405 380.4095,54.9565 387.3835,54.9565 C394.3555,54.9565 400.8675,56.2405 406.9205,58.8045 C412.9705,61.3705 418.2345,64.8935 422.7085,69.3645 C427.1795,73.8365 430.7015,79.0335 433.2665,84.9535 C435.8315,90.8735 437.1145,97.2575 437.1145,104.0955 C437.1145,110.9395 435.8315,117.3535 433.2665,123.3375 C430.7015,129.3255 427.1795,134.5215 422.7085,138.9285 C418.2345,143.3365 412.9705,146.8225 406.9205,149.3865 C400.8675,151.9525 394.3555,153.2365 387.3835,153.2365 C380.4095,153.2365 373.8965,151.9525 367.8465,149.3865 C361.7935,146.8225 356.5305,143.3365 352.0585,138.9285 C347.5845,134.5215 344.0655,129.3255 341.5005,123.3375 C338.9355,117.3535 337.6525,110.9395 337.6525,104.0955" id="Fill-12" fill="#12181F"></path>
            <mask id="mask-4" fill="white">
                <use xlink:href="#path-3"></use>
            </mask>
            <g id="Clip-15"></g>
            <path d="M454.032,150.868 L471.793,150.868 L471.793,57.326 L454.032,57.326 L454.032,150.868 Z M449.888,23.776 C449.888,20.224 451.17,17.166 453.736,14.599 C456.301,12.035 459.36,10.752 462.913,10.752 C466.465,10.752 469.523,12.035 472.09,14.599 C474.654,17.166 475.937,20.224 475.937,23.776 C475.937,27.329 474.654,30.389 472.09,32.953 C469.523,35.519 466.465,36.801 462.913,36.801 C459.36,36.801 456.301,35.519 453.736,32.953 C451.17,30.389 449.888,27.329 449.888,23.776 Z" id="Fill-14" fill="#12181F" mask="url(#mask-4)"></path>
            <path d="M496.908,57.326 L514.669,57.326 L514.669,71.731 L515.063,71.731 C517.299,66.734 521.18,62.688 526.705,59.596 C532.233,56.505 538.612,54.957 545.849,54.957 C550.32,54.957 554.631,55.647 558.774,57.03 C562.919,58.411 566.538,60.551 569.629,63.443 C572.719,66.339 575.185,70.055 577.029,74.594 C578.872,79.132 579.794,84.495 579.794,90.678 L579.794,150.868 L562.031,150.868 L562.031,95.611 C562.031,91.268 561.44,87.554 560.255,84.461 C559.071,81.371 557.492,78.87 555.518,76.961 C553.545,75.056 551.277,73.675 548.711,72.817 C546.144,71.963 543.481,71.534 540.718,71.534 C537.034,71.534 533.614,72.127 530.457,73.31 C527.3,74.494 524.536,76.37 522.167,78.934 C519.8,81.501 517.956,84.757 516.642,88.704 C515.325,92.65 514.669,97.322 514.669,102.715 L514.669,150.868 L496.908,150.868 L496.908,57.326 Z" id="Fill-16" fill="#12181F" mask="url(#mask-4)"></path>
            <path d="M643.2313,136.659 C647.9673,136.659 652.2433,135.839 656.0583,134.192 C659.8753,132.548 663.0953,130.312 665.7303,127.482 C668.3573,124.654 670.3973,121.235 671.8453,117.221 C673.2913,113.209 674.0163,108.834 674.0163,104.096 C674.0163,99.36 673.2913,94.988 671.8453,90.973 C670.3973,86.962 668.3573,83.542 665.7303,80.711 C663.0953,77.885 659.8753,75.648 656.0583,74.001 C652.2433,72.358 647.9673,71.534 643.2313,71.534 C638.4953,71.534 634.2163,72.358 630.4043,74.001 C626.5853,75.648 623.3633,77.885 620.7333,80.711 C618.1003,83.542 616.0623,86.962 614.6173,90.973 C613.1673,94.988 612.4463,99.36 612.4463,104.096 C612.4463,108.834 613.1673,113.209 614.6173,117.221 C616.0623,121.235 618.1003,124.654 620.7333,127.482 C623.3633,130.312 626.5853,132.548 630.4043,134.192 C634.2163,135.839 638.4953,136.659 643.2313,136.659 Z M691.7793,150.868 L674.0163,150.868 L674.0163,137.448 L673.6223,137.448 C670.2013,142.449 665.4993,146.329 659.5113,149.092 C653.5243,151.853 647.3773,153.236 641.0603,153.236 C633.8233,153.236 627.2773,151.983 621.4233,149.486 C615.5683,146.989 610.5703,143.501 606.4263,139.026 C602.2833,134.555 599.0903,129.356 596.8543,123.437 C594.6163,117.515 593.5003,111.071 593.5003,104.096 C593.5003,97.124 594.6163,90.645 596.8543,84.658 C599.0903,78.673 602.2833,73.477 606.4263,69.067 C610.5703,64.662 615.5683,61.208 621.4233,58.707 C627.2773,56.21 633.8233,54.957 641.0603,54.957 C647.7713,54.957 654.0863,56.374 660.0053,59.2 C665.9253,62.031 670.4643,65.88 673.6223,70.746 L674.0163,70.746 L674.0163,1.675 L691.7793,1.675 L691.7793,150.868 Z" id="Fill-17" fill="#12181F" mask="url(#mask-4)"></path>
            <path d="M783.1483,96.4002 C783.0163,92.4542 782.3903,88.8362 781.2723,85.5462 C780.1543,82.2582 778.4773,79.3972 776.2423,76.9612 C774.0033,74.5292 771.2093,72.6202 767.8523,71.2392 C764.4993,69.8572 760.5843,69.1672 756.1123,69.1672 C751.7703,69.1672 747.7903,69.9892 744.1733,71.6332 C740.5533,73.2802 737.4933,75.4182 734.9973,78.0462 C732.4953,80.6802 730.5543,83.6062 729.1733,86.8282 C727.7923,90.0542 727.1013,93.2422 727.1013,96.4002 L783.1483,96.4002 Z M727.1013,110.6082 C727.1013,114.6892 727.9913,118.4042 729.7673,121.7582 C731.5413,125.1142 733.8763,127.9752 736.7733,130.3422 C739.6643,132.7122 743.0203,134.5552 746.8363,135.8692 C750.6523,137.1862 754.5963,137.8422 758.6753,137.8422 C764.2043,137.8422 769.0053,136.5592 773.0853,133.9952 C777.1613,131.4282 780.9093,128.0432 784.3333,123.8312 L797.7523,134.0922 C787.8853,146.8552 774.0713,153.2362 756.3083,153.2362 C748.9403,153.2362 742.2623,151.9832 736.2783,149.4862 C730.2913,146.9892 725.2263,143.5352 721.0833,139.1262 C716.9393,134.7192 713.7463,129.5232 711.5103,123.5352 C709.2723,117.5492 708.1573,111.0712 708.1573,104.0952 C708.1573,97.1242 709.3723,90.6452 711.8063,84.6582 C714.2413,78.6722 717.5943,73.4772 721.8733,69.0672 C726.1443,64.6622 731.2453,61.2082 737.1683,58.7072 C743.0873,56.2102 749.5313,54.9572 756.5073,54.9572 C764.7943,54.9572 771.7993,56.4072 777.5243,59.2992 C783.2483,62.1952 787.9503,65.9772 791.6343,70.6462 C795.3153,75.3182 797.9813,80.5822 799.6263,86.4342 C801.2703,92.2902 802.0923,98.2442 802.0923,104.2942 L802.0923,110.6082 L727.1013,110.6082 Z" id="Fill-18" fill="#12181F" mask="url(#mask-4)"></path>
            <path d="M870.035,80.8104 C867.928,78.1794 865.33,75.9744 862.239,74.1984 C859.146,72.4224 855.362,71.5344 850.891,71.5344 C846.681,71.5344 843.028,72.4224 839.938,74.1984 C836.846,75.9744 835.301,78.5754 835.301,81.9944 C835.301,84.7564 836.19,86.9954 837.967,88.7044 C839.743,90.4144 841.844,91.7964 844.281,92.8474 C846.713,93.9024 849.311,94.6914 852.077,95.2164 C854.839,95.7434 857.206,96.2024 859.179,96.5974 C862.994,97.5194 866.579,98.6384 869.935,99.9524 C873.289,101.2694 876.182,102.9794 878.618,105.0834 C881.053,107.1894 882.96,109.7554 884.342,112.7794 C885.723,115.8084 886.413,119.4894 886.413,123.8314 C886.413,129.0944 885.296,133.5994 883.059,137.3494 C880.821,141.0984 877.927,144.1584 874.375,146.5264 C870.822,148.8934 866.778,150.6054 862.239,151.6584 C857.701,152.7074 853.127,153.2364 848.524,153.2364 C840.758,153.2364 833.951,152.0514 828.099,149.6834 C822.244,147.3154 817.012,142.9744 812.408,136.6594 L825.828,125.6064 C828.719,128.5024 831.947,131.0694 835.5,133.3044 C839.049,135.5424 843.391,136.6594 848.524,136.6594 C850.76,136.6594 853.027,136.4314 855.331,135.9684 C857.631,135.5074 859.673,134.7834 861.449,133.7974 C863.225,132.8094 864.671,131.5614 865.792,130.0474 C866.906,128.5364 867.469,126.7914 867.469,124.8184 C867.469,122.1874 866.646,120.0164 865.002,118.3054 C863.354,116.5964 861.382,115.2464 859.082,114.2604 C856.779,113.2724 854.345,112.4844 851.778,111.8914 C849.215,111.3004 846.944,110.8054 844.972,110.4124 C841.152,109.4924 837.536,108.4384 834.115,107.2544 C830.694,106.0694 827.669,104.4914 825.038,102.5174 C822.404,100.5444 820.304,98.0454 818.723,95.0184 C817.146,91.9934 816.356,88.2454 816.356,83.7704 C816.356,78.9044 817.374,74.6614 819.414,71.0404 C821.453,67.4244 824.151,64.4304 827.505,62.0624 C830.861,59.6934 834.674,57.9184 838.952,56.7334 C843.224,55.5494 847.535,54.9564 851.878,54.9564 C858.192,54.9564 864.244,56.1424 870.035,58.5094 C875.82,60.8784 880.426,64.8244 883.847,70.3504 L870.035,80.8104 Z" id="Fill-19" fill="#12181F" mask="url(#mask-4)"></path>
            <polygon id="Fill-20" fill="#12181F" mask="url(#mask-4)" points="902.9871 1.6746 920.7501 1.6746 920.7501 97.9786 961.0081 57.5236 985.6761 57.5236 942.0611 99.9516 989.4251 150.8676 964.1661 150.8676 920.7501 102.3206 920.7501 150.8676 902.9871 150.8676"></polygon>
        </g>
    </g>
</svg>