<?xml version="1.0" encoding="UTF-8" standalone="no"?>
<svg
   xmlns:dc="http://purl.org/dc/elements/1.1/"
   xmlns:cc="http://creativecommons.org/ns#"
   xmlns:rdf="http://www.w3.org/1999/02/22-rdf-syntax-ns#"
   xmlns:svg="http://www.w3.org/2000/svg"
   xmlns="http://www.w3.org/2000/svg"
   version="1.1"
   id="svg4490"
   viewBox="0 0 299.99999 142.7167"
   height="40.277824mm"
   width="84.666664mm">
  <defs
     id="defs4492" />
  <metadata
     id="metadata4495">
    <rdf:RDF>
      <cc:Work
         rdf:about="">
        <dc:format>image/svg+xml</dc:format>
        <dc:type
           rdf:resource="http://purl.org/dc/dcmitype/StillImage" />
        <dc:title></dc:title>
      </cc:Work>
    </rdf:RDF>
  </metadata>
  <g
     transform="translate(758.57148,610.4247)"
     id="layer1">
    <g
       transform="matrix(2.6016371,0,0,2.6016371,-3106.9064,-2307.6817)"
       id="g4439">
      <path
         id="path4336"
         style="fill:#000000;fill-opacity:1;fill-rule:nonzero;stroke:none"
         d="m 978.86564,695.18063 -3.5075,0 -1.78625,8.20125 -1.58875,-8.20125 -3.61625,0 -1.74375,8.13475 -1.61,-8.13475 -3.57375,0 3.15375,11.63387 3.7275,0 1.72125,-7.75637 1.7,7.75637 3.6825,0" />
      <path
         id="path4338"
         style="fill:#000000;fill-opacity:1;fill-rule:nonzero;stroke:none"
         d="m 955.41189,697.27538 c 1.40375,0 2.27125,1.00387 2.3175,2.295 l -4.76875,0 c 0.15625,-0.93513 0.825,-2.295 2.45125,-2.295 m 5.86,4.436 0,-0.15625 c 0,-3.23238 -1.47,-6.73088 -5.83875,-6.73088 -4.545,0 -5.97063,3.476 -5.97063,6.396 0,3.76513 2.33938,6.01663 5.88313,6.01663 2.40625,0 4.47875,-1.16025 5.79375,-3.36525 l -2.58625,-1.3375 c -0.35625,0.96 -1.31375,2.07237 -2.94125,2.07237 -1.5825,0 -2.65125,-1.20362 -2.65125,-2.76375 l 0,-0.13137" />
      <path
         id="path4340"
         style="fill:#000000;fill-opacity:1;fill-rule:nonzero;stroke:none"
         d="m 943.04451,695.18063 -3.52,0 -1.91649,7.88875 -2.07226,-7.88875 -3.63275,0 3.789,11.63387 3.58738,0" />
      <path
         id="path4342"
         style="fill:#000000;fill-opacity:1;fill-rule:nonzero;stroke:none"
         d="m 925.96501,697.27538 c 1.40375,0 2.27238,1.00387 2.31738,2.295 l -4.76763,0 c 0.15525,-0.93513 0.82426,-2.295 2.45025,-2.295 m 5.85988,4.436 0,-0.15625 c 0,-3.23238 -1.46975,-6.73088 -5.8375,-6.73088 -4.54638,0 -5.97113,3.476 -5.97113,6.396 0,3.76513 2.33888,6.01663 5.88225,6.01663 2.40625,0 4.479,-1.16025 5.794,-3.36525 l -2.585,-1.3375 c -0.35637,0.96 -1.31487,2.07237 -2.94137,2.07237 -1.5825,0 -2.65138,-1.20362 -2.65138,-2.76375 l 0,-0.13137" />
      <path
         id="path4344"
         style="fill:#000000;fill-opacity:1;fill-rule:nonzero;stroke:none"
         d="m 913.23839,698.27875 -3.09713,0 0,-4.27487 3.11863,0 c 0.65725,0 2.45112,0.0435 2.45112,2.09237 0,0.49013 -0.33,2.1825 -2.47262,2.1825 m 2.90625,2.25101 c 1.63525,-0.68351 3.07762,-1.75338 3.07762,-4.34375 0,-4.30363 -3.74512,-5.10101 -5.97262,-5.10101 l -6.64113,0 0,15.72601 3.55375,0 0,-5.61226 2.40375,0 2.99125,5.61226 4.04638,0" />
      <path
         id="path4346"
         style="fill:#000000;fill-opacity:1;fill-rule:nonzero;stroke:none"
         d="m 944.34926,692.96675 3.40382,0 0,-3.04882 -3.40382,0 0,3.04882 z" />
      <path
         id="path4348"
         style="fill:#000000;fill-opacity:1;fill-rule:nonzero;stroke:none"
         d="m 944.34926,706.8115 3.40382,0 0,-11.61377 -3.40382,0 0,11.61377 z" />
      <path
         id="path4350"
         style="fill:#000000;fill-opacity:1;fill-rule:nonzero;stroke:none"
         d="m 987.05189,685.07863 c -2.005,0 -2.83,-1.53763 -2.83,-3.47613 0,-2.43012 1.35875,-3.41012 2.65125,-3.41012 1.8725,0 2.91875,1.09275 2.91875,3.565 0,1.73775 -0.845,3.32125 -2.74,3.32125 m -0.15625,-9.605 c -4.34625,0 -6.1275,3.165 -6.1275,6.1065 0,4.58975 3.2075,6.23875 6.23875,6.23875 3.9,0 6.26125,-2.40625 6.26125,-6.17288 0,-2.78462 -1.4925,-6.17237 -6.3725,-6.17237" />
      <path
         id="path4352"
         style="fill:#000000;fill-opacity:1;fill-rule:nonzero;stroke:none"
         d="m 975.82939,687.46138 3.40869,0 0,-15.731 -3.40869,0 0,15.731 z" />
      <path
         id="path4354"
         style="fill:#000000;fill-opacity:1;fill-rule:nonzero;stroke:none"
         d="m 968.10564,685.07863 c -2.00625,0 -2.8325,-1.53763 -2.8325,-3.47613 0,-2.43012 1.36,-3.41012 2.6525,-3.41012 1.87125,0 2.91875,1.09275 2.91875,3.565 0,1.73775 -0.84625,3.32125 -2.73875,3.32125 m -0.15625,-9.605 c -4.3475,0 -6.12875,3.165 -6.12875,6.1065 0,4.58975 3.20875,6.23875 6.23875,6.23875 3.89875,0 6.26125,-2.40625 6.26125,-6.17288 0,-2.78462 -1.49375,-6.17237 -6.37125,-6.17237" />
      <path
         id="path4356"
         style="fill:#000000;fill-opacity:1;fill-rule:nonzero;stroke:none"
         d="m 960.30689,687.46288 0,-8.35638 c 0,-2.36237 -1.24875,-3.565 -3.61,-3.565 -1.6275,0 -2.71875,0.645 -3.275,1.314 l 0,-1.02537 -3.47688,0 0,11.63275 3.43188,0 0,-6.50775 c 0,-1.56013 0.2225,-2.67338 1.805,-2.67338 1.38125,0 1.69375,0.91363 1.69375,2.00588 l 0,7.17525" />
      <path
         id="path4358"
         style="fill:#000000;fill-opacity:1;fill-rule:nonzero;stroke:none"
         d="m 947.76914,687.46288 0,-7.955 c 0,-2.47375 -1.2925,-3.98888 -3.69875,-3.98888 -0.66887,0 -2.05025,0.15625 -3.31975,1.56013 l 0,-5.34763 -3.43163,0 0,15.73138 3.43163,0 0,-6.12738 c 0,-1.82762 0.42337,-2.8975 1.84862,-2.8975 1.69388,0 1.75975,1.53713 1.75975,2.74125 l 0,6.28363" />
      <path
         id="path4360"
         style="fill:#000000;fill-opacity:1;fill-rule:nonzero;stroke:none"
         d="m 936.22376,684.72125 -2.585,-1.3365 c -0.24512,0.73638 -0.9135,1.73775 -2.25137,1.73775 -1.89363,0 -2.585,-2.02775 -2.585,-3.499 0,-1.40375 0.6475,-3.4975 2.47413,-3.4975 1.33737,0 1.96087,0.98 2.27337,1.6265 l 2.54012,-1.44775 c -1.62599,-2.585 -3.92237,-2.80862 -4.96974,-2.80862 -2.62888,0 -5.83788,1.5825 -5.83788,6.24025 0,4.36612 3.05275,6.10487 5.7715,6.10487 1.78212,0 3.85488,-0.82362 5.16987,-3.12" />
      <path
         id="path4362"
         style="fill:#000000;fill-opacity:1;fill-rule:nonzero;stroke:none"
         d="m 918.34051,677.92525 c 1.40375,0 2.27238,1.0025 2.31738,2.295 l -4.76863,0 c 0.15625,-0.93612 0.82525,-2.295 2.45125,-2.295 m 5.85988,4.43513 0,-0.15625 c 0,-3.2315 -1.46975,-6.73 -5.8375,-6.73 -4.54638,0 -5.97213,3.47612 -5.97213,6.395 0,3.76612 2.33988,6.01612 5.88238,6.01612 2.40712,0 4.4785,-1.15862 5.79337,-3.36475 l -2.5835,-1.33637 c -0.35737,0.959 -1.31487,2.07125 -2.94237,2.07125 -1.5815,0 -2.65138,-1.20263 -2.65138,-2.76275 l 0,-0.13225" />
      <path
         id="path4364"
         style="fill:#000000;fill-opacity:1;fill-rule:nonzero;stroke:none"
         d="m 1002.4369,675.85988 0,1.06737 c -0.6225,-0.59962 -1.535,-1.26712 -3.22501,-1.26712 -2.78125,0 -4.805,2.20125 -4.805,5.67087 0,4.51425 2.91375,5.604 4.805,5.604 1.55621,0 2.26751,-0.48875 3.04621,-1 l 0,1.57863 c 0,1.3125 -0.7562,1.84625 -2.0237,1.84625 -1.78001,0 -2.11251,-0.895 -2.11251,-1.67388 l -3.53625,0 0,0.13925 c 0,2.53613 2.18,3.80363 5.31625,3.80363 3.78001,0 5.76001,-1.42288 5.76001,-4.44775 l 0,-11.32125 -3.225,0 z m -0.1788,5.44875 c 0,1.17862 -0.11,3.02487 -2.135,3.02487 -1.86871,0 -2.17996,-1.48975 -2.17996,-3.13625 0,-0.73337 0.11125,-2.98 2.09126,-2.98 2.0025,0 2.2237,1.624 2.2237,3.09138" />
      <path
         id="path4366"
         style="fill:#000000;fill-opacity:1;fill-rule:nonzero;stroke:none"
         d="m 1017.9494,675.855 -3.6475,0 -1.9125,8.31788 -1.9138,-8.31788 -3.6462,0 3.3812,10.91988 c 0.1763,0.55662 0.2438,0.80125 0.2438,1.11287 0,0.39988 -0.2213,0.84463 -1.2438,0.84463 l -1.8087,0 0,2.73537 2.8962,0 c 1.0225,0 1.7138,-0.13275 2.4238,-0.89012 0.6025,-0.6435 0.8687,-1.35638 1.1362,-2.17875" />
      <path
         id="path4368"
         style="fill:#000000;fill-opacity:1;fill-rule:nonzero;stroke:none"
         d="m 913.65001,674.82225 0.70363,-3.09125 -11.71625,0 0,3.09125 3.96775,0 0,12.63525 3.54975,0 0,-12.63525" />
      <path
         id="path4370"
         style="fill:#000000;fill-opacity:1;fill-rule:nonzero;stroke:none"
         d="m 924.72814,668.10788 3.40869,0 0,-15.7275 -3.40869,0 0,15.7275 z" />
      <path
         id="path4372"
         style="fill:#000000;fill-opacity:1;fill-rule:nonzero;stroke:none"
         d="m 922.15439,668.10738 0,-15.727 -5.39838,0 -2.35887,10.96587 -2.39988,-10.96587 -5.38924,0 0,15.727 3.55124,0 c 0,0 -0.021,-9.55663 -0.0859,-11.76325 l 2.78612,11.76325 3.05375,0 2.80763,-11.76325 c -0.0865,3.07575 -0.0865,11.76325 -0.0865,11.76325" />
      <path
         id="path4374"
         style="fill:#000000;fill-opacity:1;fill-rule:nonzero;stroke:none"
         d="m 940.93126,655.47163 0,-3.09125 -11.46387,0 0,3.09125 3.96637,0 0,12.63525 3.53363,0 0,-12.63525" />
    </g>
  </g>
</svg>
