<?xml version="1.0" encoding="UTF-8"?>
<svg width="300px" height="143px" viewBox="0 0 300 143" version="1.1" xmlns="http://www.w3.org/2000/svg" xmlns:xlink="http://www.w3.org/1999/xlink">
    <!-- Generator: Sketch 46.2 (44496) - http://www.bohemiancoding.com/sketch -->
    <title>mit-logo-BW-40</title>
    <desc>Created with Sketch.</desc>
    <defs></defs>
    <g id="Page-1" stroke="none" stroke-width="1" fill="none" fill-rule="evenodd">
        <g id="mit-logo-BW-40" fill-rule="nonzero" fill="#949494">
            <polyline id="path4336" points="198.318245 111.350718 189.193003 111.350718 184.545829 132.687394 180.412478 111.350718 171.004307 111.350718 166.467703 132.514386 162.279067 111.350718 152.981466 111.350718 161.186379 141.617826 170.883982 141.617826 175.36205 121.438566 179.784833 141.617826 189.365361 141.617826"></polyline>
            <path d="M137.300099,116.800498 C140.952147,116.800498 143.209067,119.412203 143.329393,122.771255 L130.922836,122.771255 C131.329342,120.338386 133.069186,116.800498 137.300099,116.800498 M152.545692,128.34136 L152.545692,127.934854 C152.545692,119.525374 148.721286,110.423547 137.355384,110.423547 C125.530943,110.423547 121.821971,119.466837 121.821971,127.063618 C121.821971,136.85912 127.908189,142.716705 137.12774,142.716705 C143.38793,142.716705 148.779823,139.698156 152.200975,133.961546 L145.472491,130.481857 C144.545658,132.979428 142.054591,135.873411 137.820426,135.873411 C133.703336,135.873411 130.922836,132.742029 130.922836,128.683137 L130.922836,128.34136" id="path4338"></path>
            <polyline id="path4340" points="105.124664 111.350718 95.9669016 111.350718 90.9808901 131.874383 85.5896216 111.350718 76.1385244 111.350718 85.9961274 141.617826 95.3291883 141.617826"></polyline>
            <path d="M60.6900033,116.800498 C64.3420514,116.800498 66.6019114,119.412203 66.7189851,122.771255 L54.315342,122.771255 C54.7192462,120.338386 56.4597674,116.800498 60.6900033,116.800498 M75.9352845,128.34136 L75.9352845,127.934854 C75.9352845,119.525374 72.1115284,110.423547 60.748228,110.423547 C48.9201971,110.423547 45.2135146,119.466837 45.2135146,127.063618 C45.2135146,136.85912 51.2984316,142.716705 60.5169945,142.716705 C66.7771837,142.716705 72.169727,139.698156 75.5908798,133.961546 L68.8656479,130.481857 C67.9385025,132.979428 65.4448333,135.873411 61.2132706,135.873411 C57.0961799,135.873411 54.315342,132.742029 54.315342,128.683137 L54.315342,128.34136" id="path4342"></path>
            <path d="M27.5799566,119.410902 L19.5223483,119.410902 L19.5223483,108.289242 L27.6358918,108.289242 C29.3458177,108.289242 34.0128165,108.402413 34.0128165,113.732829 C34.0128165,115.00797 33.1542763,119.410902 27.5799566,119.410902 M35.1409644,125.267213 C39.3952915,123.488968 43.1478148,120.705555 43.1478148,113.966352 C43.1478148,102.769869 33.4043716,100.695375 27.609225,100.695375 L10.3314148,100.695375 L10.3314148,141.608746 L19.5769826,141.608746 L19.5769826,127.007682 L25.8306678,127.007682 L33.6128148,141.608746 L44.1400271,141.608746" id="path4344"></path>
            <polygon id="path4346" points="108.51915 105.591006 117.374655 105.591006 117.374655 97.6590826 108.51915 97.6590826"></polygon>
            <polygon id="path4348" points="108.51915 141.610021 117.374655 141.610021 117.374655 111.395206 108.51915 111.395206"></polygon>
            <path d="M219.615897,85.0689802 C214.399614,85.0689802 212.253264,81.068625 212.253264,76.0253515 C212.253264,69.7030611 215.788238,67.1534567 219.150854,67.1534567 C224.022419,67.1534567 226.744382,69.9963957 226.744382,76.428293 C226.744382,80.9492879 224.545999,85.0689802 219.615897,85.0689802 M219.209391,60.0802559 C207.902026,60.0802559 203.26786,68.3144373 203.26786,75.9671528 C203.26786,87.9080167 211.612611,92.1981163 219.498823,92.1981163 C229.645208,92.1981163 235.788323,85.937927 235.788323,76.1385227 C235.788323,68.893952 231.90538,60.0802559 219.209391,60.0802559" id="path4350"></path>
            <polygon id="path4352" points="190.419024 91.268031 199.287199 91.268031 199.287199 50.3416778 190.419024 50.3416778"></polygon>
            <path d="M170.32463,85.0689802 C165.105095,85.0689802 162.955493,81.068625 162.955493,76.0253515 C162.955493,69.7030611 166.493719,67.1534567 169.856335,67.1534567 C174.724648,67.1534567 177.449863,69.9963957 177.449863,76.428293 C177.449863,80.9492879 175.248228,85.0689802 170.32463,85.0689802 M169.918124,60.0802559 C158.607507,60.0802559 153.973341,68.3144373 153.973341,75.9671528 C153.973341,87.9080167 162.321344,92.1981163 170.204304,92.1981163 C180.347437,92.1981163 186.493804,85.937927 186.493804,76.1385227 C186.493804,68.893952 182.607609,60.0802559 169.918124,60.0802559" id="path4354"></path>
            <path d="M150.035112,91.2719335 L150.035112,69.5316653 C150.035112,63.3856358 146.786318,60.256829 140.643202,60.256829 C136.409038,60.256829 133.570002,61.9348849 132.122841,63.6753801 L132.122841,61.0077395 L123.077261,61.0077395 L123.077261,91.2719335 L132.005767,91.2719335 L132.005767,74.3411296 C132.005767,70.2822376 132.584632,67.3859651 136.701722,67.3859651 C140.295234,67.3859651 141.108245,69.7628988 141.108245,72.6045369 L141.108245,91.2719335" id="path4356"></path>
            <path d="M117.416437,91.2719335 L117.416437,70.5759104 C117.416437,64.1401106 114.053821,60.1982922 107.793632,60.1982922 C106.053475,60.1982922 102.459625,60.604798 99.1568469,64.2571842 L99.1568469,50.3445916 L90.228991,50.3445916 L90.228991,91.2719335 L99.1568469,91.2719335 L99.1568469,75.3307143 C99.1568469,70.5759104 100.258302,67.7924708 103.966285,67.7924708 C108.373146,67.7924708 108.544516,71.7915253 108.544516,74.9242086 L108.544516,91.2719335" id="path4358"></path>
            <path d="M87.3795479,84.1392072 L80.654316,80.6621192 C80.0166027,82.5779127 78.2777205,85.183114 74.7970683,85.183114 C69.8705302,85.183114 68.0718364,79.9076444 68.0718364,76.0799858 C68.0718364,72.4279378 69.7563964,66.9807601 74.5086248,66.9807601 C77.9879762,66.9807601 79.6100969,69.5303644 80.4231085,71.2123228 L87.031579,67.4458027 C82.801343,60.7205708 76.8269956,60.1387927 74.102119,60.1387927 C67.2627273,60.1387927 58.9140738,64.2558834 58.9140738,76.3736586 C58.9140738,87.7327184 66.8562215,92.2563149 73.9294223,92.2563149 C78.5658518,92.2563149 83.9584211,90.1135546 87.3795479,84.1392072" id="path4360"></path>
            <path d="M40.8538212,66.4584814 C44.5058693,66.4584814 46.7657294,69.0666226 46.882803,72.4292386 L34.4765583,72.4292386 C34.8830641,69.993794 36.6235593,66.4584814 40.8538212,66.4584814 M56.0991025,77.9970802 L56.0991025,77.5905744 C56.0991025,69.1833841 52.2753463,60.0815567 40.9120459,60.0815567 C29.084015,60.0815567 25.3747309,69.1251595 25.3747309,76.719026 C25.3747309,86.5171035 31.4622495,92.3707869 40.678549,92.3707869 C46.9410017,92.3707869 52.3299807,89.3564782 55.7507953,83.6169285 L49.0294658,80.1401787 C48.0997188,82.6351487 45.6086513,85.5288196 41.3744869,85.5288196 C37.2599978,85.5288196 34.4765583,82.4000128 34.4765583,78.3411467 L34.4765583,77.9970802" id="path4362"></path>
            <path d="M259.642109,61.0851382 L259.642109,63.8620476 C258.02259,62.302054 255.648597,60.5654612 251.251804,60.5654612 C244.016001,60.5654612 238.750938,66.2923149 238.750938,75.319007 C238.750938,87.0634473 246.331458,89.8985813 251.251804,89.8985813 C255.300497,89.8985813 257.151042,88.6270312 259.176937,87.2969442 L259.176937,91.4039666 C259.176937,94.8186153 257.209579,96.2072391 253.912004,96.2072391 C249.281064,96.2072391 248.416019,93.8787739 248.416019,91.8524108 L239.21598,91.8524108 L239.21598,92.2146887 C239.21598,98.8127786 244.887549,102.110354 253.046933,102.110354 C262.881148,102.110354 268.032389,98.4085362 268.032389,90.5389222 L268.032389,61.0851382 L259.642109,61.0851382 L259.642109,61.0851382 Z M259.176937,75.2608084 C259.176937,78.3271499 258.890757,83.1304224 253.622442,83.1304224 C248.760736,83.1304224 247.950977,79.2546335 247.950977,74.971038 C247.950977,73.0630754 248.240409,67.2181595 253.391676,67.2181595 C258.601455,67.2181595 259.176937,71.4432181 259.176937,75.2608084 L259.176937,75.2608084 Z" id="path4364"></path>
            <path d="M300.000005,61.0724422 L290.510534,61.0724422 L285.534903,82.7125474 L280.55589,61.0724422 L271.0698,61.0724422 L279.866456,89.4820072 C280.325124,90.9301304 280.500735,91.5665689 280.500735,92.377291 C280.500735,93.4176337 279.924993,94.5747118 277.264819,94.5747118 L272.559238,94.5747118 L272.559238,101.691152 L280.094099,101.691152 C282.754273,101.691152 284.552785,101.345785 286.399947,99.3753826 C287.967433,97.7012292 288.659989,95.8465741 289.355927,93.7070658" id="path4366"></path>
            <polyline id="path4368" points="28.6508424 58.3856015 30.4814323 50.3432908 1.67116929e-06 50.3432908 1.67116929e-06 58.3856015 10.3226473 58.3856015 10.3226473 91.2579367 19.5578086 91.2579367 19.5578086 58.3856015"></polyline>
            <polygon id="path4370" points="57.4721164 40.9172474 66.3402908 40.9172474 66.3402908 -7.99018842e-08 57.4721164 -7.99018842e-08"></polygon>
            <path d="M50.776153,40.9159466 L50.776153,-7.99018807e-08 L36.7315273,-7.99018807e-08 L30.5946036,28.5292141 L24.3509867,-7.99018807e-08 L10.33014,-7.99018807e-08 L10.33014,40.9159466 L19.5691777,40.9159466 C19.5691777,40.9159466 19.5145433,16.0530634 19.3456971,10.312239 L26.5941703,40.9159466 L34.5389195,40.9159466 L41.8433539,10.312239 C41.6183123,18.3142243 41.6183123,40.9159466 41.6183123,40.9159466" id="path4372"></path>
            <polyline id="path4374" points="99.6267546 8.04231061 99.6267546 -7.99018807e-08 69.8019251 -7.99018807e-08 69.8019251 8.04231061 80.1209804 8.04231061 80.1209804 40.9146458 89.3142033 40.9146458 89.3142033 8.04231061"></polyline>
        </g>
    </g>
</svg>