<?xml version="1.0" encoding="UTF-8" standalone="no"?>
<!-- Created with Inkscape (http://www.inkscape.org/) -->

<svg
   xmlns:dc="http://purl.org/dc/elements/1.1/"
   xmlns:cc="http://creativecommons.org/ns#"
   xmlns:rdf="http://www.w3.org/1999/02/22-rdf-syntax-ns#"
   xmlns:svg="http://www.w3.org/2000/svg"
   xmlns="http://www.w3.org/2000/svg"
   xmlns:sodipodi="http://sodipodi.sourceforge.net/DTD/sodipodi-0.dtd"
   xmlns:inkscape="http://www.inkscape.org/namespaces/inkscape"
   width="49.071957mm"
   height="6.4597545mm"
   viewBox="0 0 49.071957 6.4597545"
   version="1.1"
   id="svg3696"
   inkscape:version="0.92.0 r15299"
   sodipodi:docname="logo_nyt_v1_edited.svg">
  <defs
     id="defs3690" />
  <sodipodi:namedview
     id="base"
     pagecolor="#ffffff"
     bordercolor="#ffffff"
     borderopacity="0"
     inkscape:pageopacity="0.0"
     inkscape:pageshadow="2"
     inkscape:zoom="44.8"
     inkscape:cx="84.531278"
     inkscape:cy="-2.8346481"
     inkscape:document-units="mm"
     inkscape:current-layer="layer1"
     showgrid="false"
     fit-margin-top="0"
     fit-margin-left="0"
     fit-margin-right="0"
     fit-margin-bottom="0"
     inkscape:showpageshadow="false"
     showborder="false"
     inkscape:pagecheckerboard="true"
     inkscape:window-width="1600"
     inkscape:window-height="838"
     inkscape:window-x="-8"
     inkscape:window-y="-8"
     inkscape:window-maximized="1" />
  <metadata
     id="metadata3693">
    <rdf:RDF>
      <cc:Work
         rdf:about="">
        <dc:format>image/svg+xml</dc:format>
        <dc:type
           rdf:resource="http://purl.org/dc/dcmitype/StillImage" />
        <dc:title></dc:title>
      </cc:Work>
    </rdf:RDF>
  </metadata>
  <g
     inkscape:label="Layer 1"
     inkscape:groupmode="layer"
     id="layer1"
     transform="translate(-79.785473,-114.60941)">
    <path
       id="path3698"
       d="m 83.468423,115.27136 c 0,-0.52705 -0.4953,-0.67945 -0.90805,-0.6604 v 0.0825 c 0.24765,0.006 0.43815,0.0889 0.43815,0.25373 0,0.11457 -0.0825,0.26035 -0.3302,0.26035 -0.19685,0 -0.57785,-0.1143 -0.88265,-0.2159 -0.33655,-0.1143 -0.65405,-0.22225 -0.92075,-0.22225 -0.5207,0 -0.9144,0.38762 -0.9144,0.8636 0,0.38762 0.2921,0.52705 0.41275,0.57812 l 0.0381,-0.0635 c -0.0762,-0.0511 -0.1524,-0.10795 -0.1524,-0.26035 0,-0.11457 0.1016,-0.29872 0.3683,-0.29872 0.2413,0 0.5588,0.10795 0.9779,0.2286 0.36195,0.1016 0.762,0.19685 0.9779,0.22252 v 0.82523 l -0.4064,0.33682 v 0.0318 l 0.4064,0.3556 v 1.13665 c -0.20955,0.12065 -0.45085,0.1524 -0.6604,0.1524 -0.38735,0 -0.75565,-0.1016 -1.04775,-0.42545 l 1.0922,-0.52705 v -1.82245 l -1.33985,0.5969 c 0.1397,-0.3556 0.4191,-0.59055 0.70485,-0.762 l -0.019,-0.0635 c -0.79375,0.2159 -1.51765,0.94588 -1.51765,1.84785 0,1.0795 0.8763,1.87933 1.87325,1.87933 1.0795,0 1.7653,-0.84428 1.7526,-1.73963 l -0.0635,-0.006 c -0.15875,0.3429 -0.38735,0.66675 -0.6858,0.8382 v -1.1049 l 0.4318,-0.3429 -0.006,-0.0381 -0.42545,-0.34317 v -0.82523 c 0.3937,0 0.80645,-0.2667 0.80645,-0.76835 z m -2.31775,2.95275 -0.32385,0.15875 c -0.18415,-0.2413 -0.3048,-0.56515 -0.3048,-1.016 0,-0.18415 0.019,-0.41302 0.0762,-0.5715 l 0.5588,-0.24765 z m 2.82575,0.59055 -0.3556,0.26696 0.0445,0.0505 0.17145,-0.12065 0.5969,0.54584 0.8001,-0.5334 -0.0381,-0.0571 -0.20955,0.13335 -0.26035,-0.26009 v -1.8288 l 0.2159,-0.15901 0.4572,0.3683 v 1.61951 c 0,1.00939 -0.22225,1.17449 -0.67945,1.33985 v 0.0701 c 0.75565,0.0315 1.4351,-0.22251 1.4351,-1.51765 v -1.74016 l 0.2413,-0.19077 -0.0445,-0.0569 -0.20955,0.16484 -0.65405,-0.56515 -0.762,0.5715 v -2.19684 h -0.0572 l -0.94615,0.635 v 0.0572 c 0.0952,0.0574 0.254,0.0952 0.254,0.41301 z m 4.8768,-0.28575 -0.65405,0.508 -0.67945,-0.53367 v -0.3175 l 1.26365,-0.84428 v -0.0384 l -0.62865,-0.9652 -1.37795,0.73686 v 1.75234 l -0.27305,0.20981 0.0445,0.0569 0.24765,-0.19685 0.9017,0.65431 1.2065,-0.9525 z m -1.3335,-0.43815 v -1.3081 l 0.0445,-0.0318 0.5842,0.92075 z m 6.43864,-3.0607 c 0,-0.0826 -0.0191,-0.1524 -0.0508,-0.24739 h -0.0635 c -0.0825,0.22225 -0.18415,0.34264 -0.4445,0.34264 -0.2286,0 -0.4064,-0.13944 -0.50165,-0.2413 0,0.006 -0.762,0.88265 -0.762,0.88265 l 0.0635,0.0574 0.2159,-0.24765 c 0.1651,0.127 0.28548,0.24765 0.65405,0.25373 v 2.2225 l -1.5621,-2.70536 c -0.12065,-0.2032 -0.32385,-0.508 -0.6985,-0.508 -0.4191,0 -0.80645,0.36221 -0.75565,0.97181 h 0.0762 c 0.0191,-0.1651 0.1016,-0.3429 0.28575,-0.3429 0.14605,0 0.2794,0.13944 0.34925,0.2667 v 0.86995 c -0.4826,0 -0.8001,0.22225 -0.8001,0.61569 0,0.20346 0.1016,0.5461 0.43815,0.60986 l 0.006,-0.0574 c -0.0445,-0.0444 -0.0892,-0.095 -0.0892,-0.18388 0,-0.14605 0.10795,-0.2413 0.3048,-0.2413 0.0318,0 0.12065,0.006 0.1397,0.0127 v 1.1303 c -0.56515,0.006 -1.0033,0.31723 -1.0033,0.8509 0,0.508 0.43815,0.7493 0.89535,0.72363 l 0.006,-0.0632 c -0.28575,-0.0318 -0.43815,-0.1651 -0.43815,-0.34925 0,-0.2286 0.1651,-0.34898 0.37465,-0.34898 0.2159,0 0.4064,0.13335 0.53975,0.28575 l 0.76835,-0.85725 -0.0635,-0.0574 -0.19685,0.22225 c -0.2921,-0.26009 -0.4572,-0.3556 -0.79375,-0.40614 v -2.67388 l 2.15265,3.75312 h 0.1524 v -3.74042 c 0.41301,-0.0251 0.80036,-0.33628 0.80036,-0.79983 z m 1.92405,3.49885 -0.65405,0.50826 -0.67945,-0.53366 v -0.3175 l 1.26365,-0.84429 v -0.0384 l -0.62865,-0.9652 -1.37795,0.73686 v 1.75234 l -0.27305,0.20981 0.0445,0.0569 0.24765,-0.19685 0.9017,0.65432 1.2065,-0.9525 -0.0508,-0.0701 z m -1.3335,-0.43815 v -1.3081 l 0.0445,-0.0318 0.5842,0.92075 z m 5.702027,-1.4605 -0.19685,0.14605 -0.507997,-0.4318 -0.59055,0.53366 0.2413,0.22834 v 2.01295 l -0.6477,-0.41275 v -1.6383 l 0.20955,-0.14605 -0.6223,-0.57812 -0.57785,0.53367 0.2413,0.22833 v 1.91162 l -0.0825,0.0505 -0.56515,-0.40005 v -1.60629 c 0,-0.3683 -0.1778,-0.47625 -0.41275,-0.6223 -0.19685,-0.12065 -0.28575,-0.22225 -0.28575,-0.4064 0,-0.1524 0.1524,-0.2413 0.2286,-0.28575 -0.006,-0.006 -0.006,-0.0635 -0.006,-0.0635 -0.2032,-0.006 -0.76835,0.2159 -0.78105,0.73051 -0.006,0.2667 0.12065,0.38074 0.254,0.508 0.13335,0.12674 0.254,0.24765 0.254,0.46964 v 1.54305 l -0.28575,0.22225 0.0445,0.0574 0.26035,-0.2032 0.70485,0.55245 0.66675,-0.45085 0.7366,0.45085 1.41605,-0.8255 v -1.79096 l 0.349247,-0.254 -0.0445,-0.0635 z m 4.94665,-1.46685 -0.2667,0.2413 -0.5969,-0.52097 -0.86995,0.64797 v -0.6096 h -0.0889 l 0.019,4.32435 c -0.0889,-0.0127 -0.31115,-0.0635 -0.51435,-0.095 l -0.019,-3.61342 c 0,-0.2667 -0.1905,-0.635 -0.66675,-0.635 -0.48895,0 -0.80645,0.37465 -0.80645,0.7493 h 0.0762 c 0.0254,-0.15875 0.10795,-0.29845 0.2667,-0.29845 0.1651,0 0.3048,0.1016 0.3048,0.4572 v 1.0414 c -0.48895,0.019 -0.76835,0.2921 -0.76835,0.62865 0,0.20955 0.0953,0.5334 0.43815,0.5461 l 0.0127,-0.0635 c -0.1143,-0.0505 -0.1397,-0.12065 -0.1397,-0.18415 0,-0.15213 0.14605,-0.21563 0.34925,-0.21563 h 0.0952 v 1.651 c -0.38735,0.13335 -0.56515,0.4191 -0.56515,0.74295 0,0.4445 0.3556,0.78105 0.8763,0.78105 0.3683,0 0.6858,-0.0635 1.02235,-0.1397 0.27305,-0.0572 0.60325,-0.12065 0.762,-0.12065 0.2032,0 0.2921,0.0952 0.2921,0.2413 0,0.18388 -0.0826,0.254 -0.1905,0.28575 l 0.0127,0.0635 c 0.43815,-0.0825 0.69215,-0.34317 0.69215,-0.7366 0,-0.4064 -0.38735,-0.6477 -0.81915,-0.6477 -0.22225,0 -0.6604,0.0699 -0.9906,0.14631 -0.3683,0.0823 -0.74295,0.12039 -0.85725,0.12039 -0.18415,0 -0.41275,-0.0889 -0.41275,-0.33655 0,-0.22225 0.18415,-0.40005 0.64135,-0.40005 0.24765,0 0.52705,0.0381 0.83185,0.10768 0.32385,0.0701 0.6096,0.15902 0.889,0.15902 0.38735,0 0.7366,-0.1397 0.7366,-0.70485 v -3.28957 l 0.31115,-0.26696 z m -1.0922,1.64465 c -0.0699,0.0762 -0.18415,0.1524 -0.3175,0.1524 -0.14605,0 -0.254,-0.0889 -0.32385,-0.1524 v -1.18745 l 0.27305,-0.18415 0.3683,0.33655 z m 0,0.79375 c -0.0635,-0.0632 -0.1778,-0.13335 -0.3175,-0.13335 -0.1397,0 -0.2667,0.0823 -0.32385,0.13335 v -0.6985 c 0.0572,0.0505 0.18415,0.13943 0.32385,0.13943 0.1397,0 0.254,-0.0759 0.3175,-0.13943 z m 0,1.2446 c 0,0.2159 -0.14605,0.42518 -0.42545,0.42518 -0.0445,0 -0.17145,-0.006 -0.2159,-0.0124 v -1.5621 c 0.0635,-0.0574 0.1778,-0.14631 0.32385,-0.14631 0.13335,0 0.2413,0.0765 0.3175,0.14631 z m 3.6449,-1.89257 -0.8636,-0.61595 -1.2954,0.74322 v 1.7399 l -0.2667,0.2159 0.0381,0.0569 0.20955,-0.17119 0.85725,0.62865 1.3208,-0.80645 z m -1.41605,1.68302 v -1.905 l 0.6731,0.4826 v 1.905 z m 3.9624,-2.22885 c 0,0.006 -0.0508,0 -0.0508,0 -0.0699,0.0632 -0.15875,0.10768 -0.23495,0.10768 -0.1016,0 -0.23495,-0.0632 -0.29845,-0.14578 h -0.0508 l -0.45085,0.49503 -0.46355,-0.49503 -0.7874,0.54583 0.0381,0.0632 0.20955,-0.13943 0.27305,0.2921 v 1.68275 l -0.3556,0.26696 0.0445,0.0505 0.17145,-0.12065 0.64135,0.54584 0.83185,-0.55245 -0.0381,-0.0572 -0.23495,0.1397 -0.31115,-0.27967 v -1.87325 c 0.13335,0.14632 0.2921,0.27332 0.47625,0.27332 0.3556,5.2e-4 0.55245,-0.39318 0.59055,-0.79957 z m 3.20675,2.55905 -0.90805,0.5969 -1.2319,-1.86055 0.86995,-1.35229 0.0572,-0.006 c 0.1016,0.1016 0.2794,0.20955 0.4445,0.20955 0.18415,0 0.31115,-0.1016 0.38735,-0.20955 0,0 0.0508,0.006 0.0508,0 -0.0317,0.53975 -0.3937,0.84455 -0.66675,0.84455 -0.2794,0 -0.41275,-0.127 -0.5588,-0.2159 l -0.0825,0.12065 1.3335,1.97485 0.2667,-0.1651 z m -2.9337,-0.1524 -0.3556,0.26696 0.0444,0.0505 0.17145,-0.12065 0.5969,0.54584 0.8001,-0.5334 -0.0445,-0.0571 -0.2032,0.13335 -0.26035,-0.26009 v -4.12115 h -0.0572 l -0.9652,0.64135 v 0.0572 c 0.0952,0.0571 0.27305,0.0825 0.27305,0.4064 z m 7.35939,-3.5433 c 0,-0.52705 -0.4953,-0.67945 -0.90805,-0.6604 v 0.0825 c 0.24765,0.006 0.43815,0.0889 0.43815,0.25373 0,0.11457 -0.0825,0.26035 -0.3302,0.26035 -0.19685,0 -0.57785,-0.1143 -0.88265,-0.2159 -0.33655,-0.1143 -0.65405,-0.22225 -0.92075,-0.22225 -0.5207,0 -0.9144,0.38762 -0.9144,0.8636 0,0.38762 0.2921,0.52705 0.41275,0.57812 l 0.0381,-0.0635 c -0.0762,-0.0508 -0.1524,-0.10769 -0.1524,-0.26009 0,-0.11456 0.1016,-0.29871 0.3683,-0.29871 0.2413,0 0.5588,0.10795 0.9779,0.2286 0.36195,0.1016 0.762,0.19685 0.9779,0.22251 v 0.82524 l -0.4064,0.33681 v 0.0318 l 0.4064,0.3556 v 1.13665 c -0.20955,0.12065 -0.45085,0.1524 -0.6604,0.1524 -0.38735,0 -0.75565,-0.1016 -1.04775,-0.42545 l 1.0922,-0.52705 v -1.82271 l -1.33985,0.59716 c 0.1397,-0.35586 0.4191,-0.59055 0.70485,-0.76226 l -0.019,-0.0635 c -0.79375,0.2159 -1.51765,0.94615 -1.51765,1.84785 0,1.0795 0.8763,1.87933 1.87325,1.87933 1.0795,0 1.7653,-0.84428 1.7526,-1.73963 l -0.0635,-0.006 c -0.15875,0.3429 -0.38735,0.66675 -0.6858,0.8382 v -1.1049 l 0.4318,-0.3429 -0.006,-0.0381 -0.42545,-0.34317 v -0.82523 c 0.3937,0 0.80645,-0.2667 0.80645,-0.76835 z m -2.31775,2.95275 -0.32385,0.15875 c -0.18415,-0.2413 -0.3048,-0.56515 -0.3048,-1.016 0,-0.18415 0.019,-0.41302 0.0762,-0.5715 l 0.5588,-0.24765 -0.006,1.6764 z m 3.23215,-3.20067 -0.0381,-0.006 -0.5334,0.45085 v 0.0381 l 0.45085,0.508 h 0.0445 l 0.5334,-0.4445 -0.006,-0.0318 -0.45085,-0.51461 z m 0.8128,3.94362 -0.2032,0.13335 -0.26035,-0.26009 v -1.84203 l 0.254,-0.1905 -0.0508,-0.0632 -0.19685,0.15214 -0.46355,-0.55245 -0.762,0.53366 0.0445,0.0699 0.1905,-0.12726 0.23495,0.2921 v 1.7272 l -0.3429,0.26008 0.0381,0.0508 0.1778,-0.127 0.5842,0.5334 0.8001,-0.5334 z m 4.445,-0.0318 -0.1905,0.127 -0.28575,-0.26035 v -1.80975 l 0.27305,-0.2032 -0.0445,-0.0574 -0.23495,0.1778 -0.6096,-0.56515 -0.7874,0.5588 -0.60325,-0.5588 -0.7747,0.55245 -0.47625,-0.55245 -0.762,0.53366 0.0381,0.0699 0.1905,-0.12726 0.26035,0.28575 v 1.7272 l -0.20955,0.20955 0.6096,0.51408 0.59055,-0.5334 -0.2413,-0.22833 v -1.80314 l 0.2286,-0.1524 0.41275,0.38074 v 1.61316 l -0.2032,0.20955 0.61595,0.51409 0.57785,-0.5334 -0.2413,-0.22834 v -1.81636 l 0.2032,-0.13335 0.43815,0.37465 v 1.5875 l -0.1778,0.18415 0.6223,0.56515 0.81915,-0.55854 z m 2.31775,-0.4064 -0.65405,0.50826 -0.67945,-0.53366 v -0.3175 l 1.26365,-0.84429 v -0.0384 l -0.62865,-0.9652 -1.37795,0.73686 v 1.80975 l 0.92075,0.66649 1.2065,-0.9525 z m -1.3335,-0.43815 v -1.3081 l 0.0445,-0.0318 0.5842,0.92075 z m 3.7719,-0.24871 -0.51435,-0.38735 c 0.3429,-0.29845 0.47625,-0.69877 0.47625,-0.97155 0,-0.0381 -0.006,-0.10795 -0.0127,-0.17145 h -0.0635 c -0.0508,0.1397 -0.1524,0.26035 -0.36195,0.26035 -0.2032,0 -0.34925,-0.1143 -0.47625,-0.25427 l -1.20015,0.65432 v 0.97155 l 0.4445,0.34925 c -0.45085,0.40005 -0.5334,0.67945 -0.5334,0.88265 0,0.2667 0.12065,0.45746 0.34925,0.5461 l 0.0317,-0.0574 c -0.0571,-0.0505 -0.10795,-0.0826 -0.10795,-0.2032 0,-0.0889 0.10795,-0.2159 0.31115,-0.2159 0.26035,0 0.4191,0.1778 0.50165,0.27305 0,-0.006 1.1557,-0.69215 1.1557,-0.69215 z m -0.28575,-0.80037 c -0.1778,0.3175 -0.59055,0.62892 -0.81915,0.80672 l -0.2921,-0.2286 v -0.94615 c 0.1143,0.254 0.3937,0.4699 0.6985,0.4699 0.1778,0 0.27305,-0.032 0.41275,-0.10187 z m -0.4699,2.12117 c -0.13335,-0.29845 -0.4445,-0.51435 -0.762,-0.51435 -0.0762,0 -0.29845,0 -0.50165,0.12726 0.12065,-0.20346 0.47625,-0.58446 0.93345,-0.85725 l 0.3302,0.254 z"
       inkscape:connector-curvature="0"
       style="stroke-width:0.26458332" />
  </g>
</svg>
