<?xml version="1.0" encoding="UTF-8"?>
<svg width="575px" height="79px" viewBox="0 0 575 79" version="1.1" xmlns="http://www.w3.org/2000/svg" xmlns:xlink="http://www.w3.org/1999/xlink">
    <!-- Generator: Sketch 46.2 (44496) - http://www.bohemiancoding.com/sketch -->
    <title>observer-logo-BW-40</title>
    <desc>Created with Sketch.</desc>
    <defs></defs>
    <g id="Page-1" stroke="none" stroke-width="1" fill="none" fill-rule="evenodd">
        <g id="observer-logo-BW-40" fill="#949494">
            <path d="M62.9992,39.2202 C62.9372,25.7832 52.7442,15.2712 39.9582,15.4572 C27.1072,15.6442 17.5022,25.8552 17.5862,39.2412 C17.6712,52.7392 27.7292,63.1072 40.6292,62.9942 C53.3702,62.8832 63.0612,52.5842 62.9992,39.2202 M39.9862,78.3802 C16.8802,78.3342 -0.0588,61.6462 0.0002,38.9852 C0.0572,16.7662 17.5602,-0.0308 40.6222,0.0002 C63.3052,0.0312 80.6682,16.8992 80.7382,38.9722 C80.8102,61.4572 63.2622,78.4262 39.9862,78.3802" id="Fill-6"></path>
            <path d="M105.9601,31.4126 C112.9871,31.4126 119.4501,31.8286 125.8291,31.2756 C130.5641,30.8656 133.0221,27.6286 132.9781,23.7926 C132.9341,19.9166 130.4561,16.8226 125.6581,16.4466 C119.1481,15.9366 112.5681,16.3196 105.9601,16.3196 L105.9601,31.4126 Z M105.9991,61.9386 C114.3611,61.9386 122.3001,62.1586 130.2171,61.8336 C133.5171,61.6976 136.1441,59.6086 136.9081,56.0666 C137.5431,53.1216 137.0631,50.2776 134.4581,48.4806 C132.8721,47.3876 130.8681,46.3456 129.0201,46.2856 C121.4371,46.0416 113.8421,46.1836 105.9991,46.1836 L105.9991,61.9386 Z M89.5461,1.1806 C95.4581,1.1806 101.0821,1.0866 106.7021,1.2026 C115.1761,1.3766 123.7301,1.0456 132.1011,2.1056 C145.2831,3.7746 152.5151,14.9846 148.8051,26.9546 C148.1361,29.1126 146.8171,31.1596 145.4311,32.9776 C144.1581,34.6456 142.3891,35.9336 140.6771,37.5416 C141.9251,38.2176 142.9351,38.7786 143.9561,39.3166 C151.2551,43.1586 154.2941,49.3666 153.8971,57.4066 C153.4941,65.5476 149.3741,71.2096 141.9011,74.2316 C138.8521,75.4656 135.5291,76.6646 132.3091,76.7256 C118.1811,76.9946 104.0441,76.8416 89.5461,76.8416 L89.5461,1.1806 Z" id="Fill-4"></path>
            <path d="M215.1584,10.3018 C212.4874,14.1578 209.7704,18.0788 206.8254,22.3298 C204.4834,21.0428 202.3894,19.7998 200.2154,18.7178 C194.9234,16.0848 189.4514,14.1778 183.4114,15.4818 C180.2594,16.1618 177.6884,17.8178 177.3444,21.2538 C177.0044,24.6598 178.9954,26.8668 182.1124,28.0578 C183.8204,28.7108 185.5254,29.3838 187.2704,29.9198 C189.6554,30.6528 192.1044,31.1828 194.4784,31.9468 C197.9554,33.0648 201.4844,34.0998 204.8254,35.5508 C213.0544,39.1208 217.8134,45.2548 217.7154,54.4978 C217.6154,63.9708 213.6454,71.1788 204.8424,75.2938 C192.2844,81.1638 169.3654,78.2438 157.7834,65.7698 C160.8974,62.0198 164.0484,58.2268 167.2444,54.3798 C170.0454,56.1708 172.4924,57.8838 175.0764,59.3568 C180.5704,62.4918 186.4914,63.8828 192.8134,63.0998 C194.2724,62.9198 195.7974,62.5588 197.0914,61.8918 C202.0874,59.3128 202.4144,53.5838 197.5094,50.8648 C194.3534,49.1158 190.7444,48.1518 187.2854,46.9928 C182.5614,45.4108 177.6764,44.2558 173.0594,42.4188 C165.2224,39.3018 160.9404,33.4638 160.6164,24.8348 C160.2904,16.1508 163.2714,9.1208 170.7524,4.4618 C182.9354,-3.1252 204.5104,-0.3332 215.1584,10.3018" id="Fill-17"></path>
            <polygon id="Fill-13" points="283.7453 62.2007 283.7453 76.7247 226.9833 76.7247 226.9833 1.4717 283.6473 1.4717 283.6473 15.9037 243.8423 15.9037 243.8423 31.4197 283.5893 31.4197 283.5893 46.1737 243.8503 46.1737 243.8503 62.2007"></polygon>
            <path d="M310.6315,37.5796 C311.5465,37.8006 311.8665,37.9436 312.1885,37.9456 C317.0075,37.9746 321.8285,38.0776 326.6445,37.9566 C328.7715,37.9036 330.9825,37.6796 332.9875,37.0236 C337.6525,35.4996 340.2155,31.5036 339.9805,26.7166 C339.7515,22.0586 337.0965,18.3526 332.4935,17.2716 C325.3345,15.5886 318.0795,16.5736 310.6315,16.3986 L310.6315,37.5796 Z M339.2755,76.6306 C334.0995,68.9336 328.8175,61.0776 323.4615,53.1136 L310.4335,53.1136 L310.4335,76.7656 L293.8515,76.7656 L293.8515,2.0086 C294.3305,1.6956 294.6095,1.3556 294.8835,1.3576 C308.0155,1.4616 321.1925,0.9626 334.2655,1.9076 C347.0185,2.8296 354.6875,9.9436 356.5345,21.1116 C358.4455,32.6606 354.9595,43.7586 342.8655,49.2796 C342.2875,49.5436 341.7975,50.0016 341.1345,50.4606 C346.9945,59.0586 352.7885,67.5616 358.9685,76.6306 L339.2755,76.6306 Z" id="Fill-11"></path>
            <path d="M359.0631,1.3765 L377.6481,1.3765 C384.1111,18.7185 390.5431,35.9785 397.3691,54.2895 C404.1891,35.9865 410.6121,18.7505 417.0661,1.4285 L435.2141,1.4285 C424.9571,26.9955 414.8811,52.1055 404.7181,77.4345 L389.6001,77.4345 C379.5801,52.4765 369.4441,27.2305 359.0631,1.3765" id="Fill-19"></path>
            <polygon id="Fill-15" points="441.8444 76.6714 441.8444 1.5124 498.5934 1.5124 498.5934 15.9594 458.7134 15.9594 458.7134 31.3394 498.5274 31.3394 498.5274 46.2404 458.7244 46.2404 458.7244 62.1014 498.5654 62.1014 498.5654 76.6714"></polygon>
            <path d="M526.1647,37.897 C532.8147,37.897 539.2347,37.957 545.6507,37.846 C546.9237,37.824 548.2407,37.272 549.4397,36.742 C553.5247,34.94 555.6957,31.303 555.4957,26.816 C555.2897,22.179 553.0187,18.712 548.6337,17.485 C541.2177,15.41 533.6807,16.607 526.1647,16.453 L526.1647,37.897 Z M574.7007,76.936 L555.1327,76.936 C549.8107,69.105 544.3177,61.025 538.8947,53.048 L526.1237,53.048 L526.1237,76.713 L509.5367,76.713 L509.5367,1.978 C509.8097,1.776 510.0707,1.414 510.3287,1.416 C523.8037,1.542 537.3237,1.064 550.7377,2.043 C562.5787,2.907 570.1467,10.353 571.9907,20.596 C574.3277,33.575 569.9917,42.972 558.8647,49.065 C558.2907,49.379 557.7427,49.745 556.7037,50.379 C562.5847,59.057 568.3947,67.631 574.7007,76.936 L574.7007,76.936 Z" id="Fill-9"></path>
        </g>
    </g>
</svg>