<svg id="Layer_1" data-name="Layer 1" xmlns="http://www.w3.org/2000/svg" xmlns:xlink="http://www.w3.org/1999/xlink" viewBox="0 0 1000 300"><defs><style>.cls-1{fill:url(#New_Gradient_Swatch_1);}</style><linearGradient id="New_Gradient_Swatch_1" x1="-18.16" y1="216.63" x2="1001.44" y2="63.03" gradientUnits="userSpaceOnUse"><stop offset="0" stop-color="#6e00f9"/><stop offset="0.04" stop-color="#6e00f9"/><stop offset="0.5" stop-color="#100edc"/><stop offset="0.99" stop-color="#372284"/><stop offset="1" stop-color="#372284"/></linearGradient></defs><title>Artboard 17</title><path class="cls-1" d="M477.46,135.42a38.76,38.76,0,1,0,38.76-38.76,38.76,38.76,0,0,0-38.76,38.76m38.76-63.27a63.27,63.27,0,1,1-63.27,63.27,63.27,63.27,0,0,1,63.27-63.27M75.33,96.66a38.76,38.76,0,1,1-38.76,38.76A38.76,38.76,0,0,1,75.33,96.66M12.06,135.42A63.27,63.27,0,1,0,75.33,72.15a63.27,63.27,0,0,0-63.27,63.27m395.15-36c-12,.23-21.08,4.53-27,12.77L377.31,102H359.37v94.22h21.52V143.5c0-7.21,2-12.78,6.09-16.54,3.76-3.59,8.68-5.41,14.64-5.41,13-.21,19.53,7.07,19.88,22.32v52.32H443V139.57c-.12-11.87-3.62-21.58-10.39-28.89A34.23,34.23,0,0,0,407.2,99.46m325.65,19.86a22.79,22.79,0,0,0-14.95,5.21c-4,3.21-6.86,7.86-8.58,13.83h48.1c-4.63-12.69-12.68-18.92-24.57-19m45.36,8.89c2.94,6.76,4.48,14.83,4.6,24v4.86H709.13A23,23,0,0,0,717.72,172a24.67,24.67,0,0,0,17.15,6.8c10-.12,18.3-4.74,24.71-13.72l.65-.91,18.35,10.57-.88,1.12c-11.31,14.44-25.5,22.11-42.19,22.8-15.9-.25-28.33-5.5-37-15.61a50.36,50.36,0,0,1,0-68.2c8.68-10,21.11-15.15,36.95-15.41,10.42,0,20.79,4.17,30.84,12.41a51.38,51.38,0,0,1,11.9,16.35m199.34-17.53a34.23,34.23,0,0,0-25.43-11.22c-12,.23-21.08,4.53-27,12.77L922.23,102H904.29v94.22h21.52V143.5c0-7.21,2-12.78,6.09-16.54,3.76-3.59,8.68-5.41,14.64-5.41,13.06-.23,19.53,7.07,19.88,22.32v52.32h21.52V139.57c-.12-11.87-3.62-21.58-10.39-28.89m-136.21,9.75a26.06,26.06,0,0,0-18.93,8.18A29,29,0,0,0,814.31,149c.12,8,2.84,14.83,8.09,20.13a25.1,25.1,0,0,0,37.72,0c5.16-5.33,7.81-12.11,7.93-20.17-.12-8.09-2.78-15-7.92-20.41a25.88,25.88,0,0,0-18.78-8.17M870.93,102h17.93v94.22H870.93l-3-10.09c-6.91,8.12-16.64,12.35-28.95,12.58-14.88-.44-26.59-5.76-34.86-15.82A51.69,51.69,0,0,1,791.68,149c0-12.23,4.44-23.52,13.21-33.58,8.49-10.22,20.28-15.61,35-16,13,.35,22.43,4.52,28.08,12.41ZM637.87,120.43A23.67,23.67,0,0,1,651.16,124a30.56,30.56,0,0,1,8.8,9.65l.63,1.07,18.92-11.52-.67-1.06a53.57,53.57,0,0,0-16.27-16.44c-6.61-4-14.9-6.14-24.68-6.27-15.83.25-28.23,5.44-36.83,15.4a50.12,50.12,0,0,0,0,68.2c8.62,10.11,21,15.37,36.9,15.62A47.84,47.84,0,0,0,662,192.06a44.49,44.49,0,0,0,16.86-16.16l.62-1-18.92-11.57-.63,1.12c-4.84,8.71-12.07,13.06-22.06,13.3-8-.11-14.65-3-19.68-8.54-5.14-5.31-7.8-12.09-7.91-20.13.12-8.13,2.78-15,7.92-20.45s11.62-8,19.66-8.17m-424,8.17a26.3,26.3,0,0,0-19.15-8.17,25.28,25.28,0,0,0-18.57,8.17,29,29,0,0,0-8.1,20.45c.11,8,2.84,14.8,8.09,20.12a24.78,24.78,0,0,0,18.63,8.55,25.68,25.68,0,0,0,19.1-8.52c5.21-5.33,7.9-12.11,8-20.16-.12-8.11-2.81-15-8-20.42m18.43-13.5A53.31,53.31,0,0,1,244.54,149c-.12,12-4.41,23.3-12.75,33.48-8.58,10.31-20.51,15.75-35.47,16.19-12.57-.39-21.79-4.24-27.52-11.45v40.62H147.28V102H165.2l3,10.12c7.22-8.26,17-12.5,29-12.62,15.19.25,27,5.52,35.17,15.64m53.73,9.43a22.79,22.79,0,0,1,15-5.21c11.89.11,19.94,6.35,24.57,19h-48.1c1.72-6,4.6-10.61,8.58-13.83m48.41-12.66c-10-8.23-20.41-12.41-30.84-12.41-15.83.25-28.27,5.44-36.94,15.41a50.35,50.35,0,0,0,0,68.2c8.68,10.11,21.11,15.36,37,15.61,16.69-.69,30.89-8.36,42.19-22.8l.88-1.12L328.4,164.2l-.65.91c-6.41,9-14.74,13.6-24.71,13.72a24.68,24.68,0,0,1-17.15-6.8,23,23,0,0,1-8.59-14.92H351v-4.86c-.12-9.19-1.67-17.26-4.6-24a51.39,51.39,0,0,0-11.9-16.35"/></svg>