<?xml version="1.0" encoding="UTF-8"?>
<svg width="199px" height="36px" viewBox="0 0 199 36" version="1.1" xmlns="http://www.w3.org/2000/svg" xmlns:xlink="http://www.w3.org/1999/xlink">
    <!-- Generator: Sketch 46.1 (44463) - http://www.bohemiancoding.com/sketch -->
    <title>partner-logo-compound</title>
    <desc>Created with Sketch.</desc>
    <defs></defs>
    <g id="Page-1" stroke="none" stroke-width="1" fill="none" fill-rule="evenodd">
        <g id="partner-logo-compound" fill-rule="nonzero" fill="#091D65">
            <path d="M18.8715888,14.9854495 L18.8715888,10.8845365 C18.4029542,10.0489198 15.9267578,6.25668856 9.62275623,6.25668856 C7.93553568,6.25668856 2.26169673,6.65001993 -3.39344434e-05,11.705195 L-3.39344434e-05,24.0888442 C0.588049972,25.3990423 2.97873151,29.5373506 9.62275623,29.5373506 C15.0227442,29.5373506 17.9689326,26.6177916 18.8715888,24.8724472 L18.8715888,20.5498816 L13.6012304,20.5498816 L13.5883353,23.0699902 L13.578155,23.0927673 C13.0959465,24.1911715 11.6859704,25.2994344 9.62275623,25.2994344 C7.547665,25.2994344 6.26426434,24.163975 5.75490835,23.1012662 L5.74913949,23.0890276 L5.7277608,22.9809211 L5.7423526,12.7209894 L5.75355097,12.6968524 C6.25272664,11.6120465 7.53137647,10.4527898 9.62275623,10.4527898 C11.6995442,10.4527898 13.1068055,11.58383 13.5798517,12.7046715 L13.5873173,12.7277886 L13.6019091,12.8127781 L13.6019091,14.9854495 L18.8715888,14.9854495 Z" id="Fill-1"></path>
            <path d="M36.9639748,23.0696502 L36.9537946,23.0927673 C36.5072172,24.1106016 35.2139756,25.2994344 33.0401353,25.2994344 C30.9341638,25.2994344 29.6399041,24.163975 29.130548,23.1012662 L29.1247791,23.0890276 L29.1034004,22.9809211 L29.1183317,12.7209894 L29.1291907,12.6968524 C29.6283663,11.6120465 30.9178752,10.4527898 33.0401353,10.4527898 C35.2282282,10.4527898 36.5170584,11.6657599 36.9558306,12.7046715 L36.9629569,12.7281286 L36.9775486,12.813118 L36.9639748,23.0696502 Z M33.0401353,6.25668856 C29.5428514,6.25668856 25.1710772,7.68825158 23.3756057,11.7048551 L23.3756057,24.089184 C24.5568636,26.7275979 27.7117489,29.5373506 33.0401353,29.5373506 C36.5380976,29.5373506 40.9098721,28.1057876 42.7053433,24.089184 L42.7053433,11.7048551 C41.5240855,9.0664412 38.3692001,6.25668856 33.0401353,6.25668856 L33.0401353,6.25668856 Z" id="Fill-4"></path>
            <path d="M69.0203506,10.5779284 C70.9871911,10.5779284 71.8155308,11.583864 72.1341752,12.1835499 L72.1413014,12.1968082 L72.1667523,12.2987956 L72.1667523,28.9125418 L77.894547,28.9125418 L77.894547,11.1524573 C77.3712778,9.7015167 75.676931,6.38114717 71.1419321,6.38114717 C67.982296,6.38114717 66.1467819,7.90857834 65.1633618,9.18987994 L64.9376977,9.48428356 L64.7194992,9.1837607 C63.7978397,7.90517877 62.0780422,6.38114717 59.1209948,6.38114717 C56.7992002,6.38114717 54.9518089,7.14877228 53.6304017,8.66226517 L53.1454786,9.21639667 L53.1454786,6.84009043 L47.8340596,6.84009043 L47.8340596,28.9125418 L53.5618543,28.9125418 L53.5618543,12.0057519 L53.6242937,11.9292613 C54.3504908,11.0450306 55.4740601,10.5779284 56.8745346,10.5779284 C58.9143341,10.5779284 59.7321541,11.7008096 59.9890377,12.1835499 L59.9958247,12.1964683 L60.0212757,12.2987956 L60.0212757,28.9125418 L65.748731,28.9125418 L65.748731,11.9595176 L65.8169393,11.8813272 C66.241459,11.3945074 67.2221646,10.5779284 69.0203506,10.5779284" id="Fill-6"></path>
            <path d="M88.9868003,23.7061875 L88.9168954,23.6273171 L88.9168954,12.1248391 L88.9871396,12.0459689 C89.8137827,11.1131242 91.1925392,10.5780303 92.7701513,10.5780303 C94.7481902,10.5780303 95.9959597,11.55201 96.4639157,12.3859269 L96.4992075,12.4488191 L96.4992075,23.3070767 L96.4608616,23.3726887 C96.0597563,24.0424059 94.8404919,25.174466 92.8118908,25.174466 C91.2078096,25.174466 89.8137827,24.639372 88.9868003,23.7061875 M95.0166116,29.3712471 C100.098295,29.3712471 101.899535,25.3383256 102.227002,24.4724526 L102.227002,11.2800436 C101.899535,10.4138307 100.098295,6.38124916 95.0166116,6.38124916 C91.8905707,6.38124916 90.0516633,7.60441794 89.0590808,8.63075106 L88.5836592,9.12199034 L88.5836592,6.83985247 L83.1891007,6.83985247 L83.1891007,35.4123004 L88.9168954,33.6611768 L88.9168954,27.0241773 L89.3790825,27.4419855 C90.7938096,28.7219273 92.6904055,29.3712471 95.0166116,29.3712471" id="Fill-8"></path>
            <path d="M120.693617,23.0696502 L120.683437,23.0927673 C120.23686,24.1106016 118.943957,25.2994344 116.769778,25.2994344 C114.664146,25.2994344 113.369546,24.163975 112.86019,23.1012662 L112.854421,23.0890276 L112.833043,22.9809211 L112.847974,12.7209894 L112.858833,12.6968524 C113.358009,11.6120465 114.647518,10.4527898 116.769778,10.4527898 C118.957871,10.4527898 120.246701,11.6657599 120.685473,12.7046715 L120.692599,12.7281286 L120.707191,12.813118 L120.693617,23.0696502 Z M116.769778,6.25668856 C113.272494,6.25668856 108.90072,7.68825158 107.105248,11.7048551 L107.105248,24.089184 C108.286506,26.7275979 111.441391,29.5373506 116.769778,29.5373506 C120.268419,29.5373506 124.640533,28.1057876 126.434307,24.089184 L126.434307,11.7048551 C125.254407,9.0664412 122.1002,6.25668856 116.769778,6.25668856 L116.769778,6.25668856 Z" id="Fill-10"></path>
            <path d="M150.268605,28.9124059 L150.268605,6.83995444 L144.54081,6.83995444 L144.54081,23.6692339 L144.470566,23.7481043 C143.895038,24.3984438 142.792847,25.174568 140.812433,25.174568 C138.441094,25.174568 137.481428,23.7905989 137.243547,23.3663314 L137.207916,23.3034391 L137.207916,6.83995444 L131.480461,6.83995444 L131.480461,24.5143696 C131.918215,25.6814453 133.693326,29.3713492 138.565973,29.3713492 C141.156528,29.3713492 143.185808,28.5612293 144.598159,26.9637668 L145.082064,26.4171143 L145.082064,28.9124059 L150.268605,28.9124059 Z" id="Fill-12"></path>
            <path d="M165.227688,10.5779284 C167.205727,10.5779284 168.453496,11.551908 168.921113,12.3861648 L168.956744,12.4487171 L168.956744,28.9125418 L174.684539,28.9125418 L174.684539,11.2799416 C174.356732,10.4137287 172.555831,6.38114717 167.474148,6.38114717 C164.889022,6.38114717 162.774228,7.22798247 161.358822,8.83020441 L160.874578,9.37685683 L160.874578,6.84009043 L155.646637,6.84009043 L155.646637,28.9125418 L161.374093,28.9125418 L161.374093,12.1250771 L161.444337,12.0458669 C162.271319,11.1130222 163.650076,10.5779284 165.227688,10.5779284" id="Fill-14"></path>
            <path d="M192.997431,23.7203297 L192.916328,23.8015798 C192.046248,24.6739118 190.686156,25.17433 189.185575,25.17433 C187.207536,25.17433 185.959767,24.2003503 185.49215,23.3664334 L185.456519,23.3035412 L185.456519,12.4452835 L185.495204,12.3793317 C185.896309,11.7099544 187.115234,10.5778944 189.143835,10.5778944 C191.267792,10.5778944 192.422581,11.4679044 192.921757,11.9982388 L192.997431,12.0781289 L192.997431,23.7203297 Z M198.725226,28.9125079 L198.725226,0.340059961 L192.997431,2.09118349 L192.997431,8.71492466 L192.538298,8.31377426 C191.075723,7.03145278 189.192022,6.38111316 186.939454,6.38111316 C181.857432,6.38111316 180.056531,10.4140346 179.728724,11.2799076 L179.728724,24.4723167 C180.056531,25.3385297 181.857432,29.3711112 186.939454,29.3711112 C189.402416,29.3711112 191.407941,28.6133448 192.900039,27.1185496 L193.372067,26.6453282 L193.372067,28.9125079 L198.725226,28.9125079 Z" id="Fill-16"></path>
        </g>
    </g>
</svg>