<?xml version="1.0" encoding="UTF-8"?>
<svg width="160px" height="156px" viewBox="0 0 160 156" version="1.1" xmlns="http://www.w3.org/2000/svg" xmlns:xlink="http://www.w3.org/1999/xlink">
    <!-- Generator: Sketch 46.2 (44496) - http://www.bohemiancoding.com/sketch -->
    <title>partner-logo-lux</title>
    <desc>Created with Sketch.</desc>
    <defs></defs>
    <g id="Page-1" stroke="none" stroke-width="1" fill="none" fill-rule="evenodd">
        <g id="partner-logo-lux" fill-rule="nonzero">
            <path d="M0,115.948 L40.948,156 L72,125.628 L64.824,118.612 L41.904,141.032 L8.12,108 L0,115.948 Z M92.752,74.908 C97.1,79.244 97.368,82.14 97.256,85.356 C97.196,88.892 95.016,92.656 91.76,95.908 L91.744,95.924 C88.48,99.18 84.844,101.22 81.296,101.276 C78.072,101.388 75.324,100.972 70.976,96.636 L47.656,73.364 L40,81.008 L62.728,103.688 C70.128,111.076 75.716,112.288 81.7,111.952 C87.188,111.632 93.212,108.608 98.84,103.016 C104.44,97.404 107.624,91.236 107.948,85.76 C108.28,79.788 107.22,74.064 99.82,66.68 L77.092,44 L69.432,51.64 L92.752,74.908 L92.752,74.908 Z" id="logo-path-1" fill="#96989B"></path>
            <polygon id="logo-path-2" fill="#373535" points="128.86 0 119.14 0 119.14 31.14 88 31.14 88 40.86 119.14 40.86 119.14 72 128.86 72 128.86 40.86 160 40.86 160 31.14 128.86 31.14"></polygon>
        </g>
    </g>
</svg>