<?xml version="1.0" encoding="UTF-8"?>
<svg width="241px" height="39px" viewBox="0 0 241 39" version="1.1" xmlns="http://www.w3.org/2000/svg" xmlns:xlink="http://www.w3.org/1999/xlink">
    <!-- Generator: Sketch 46.2 (44496) - http://www.bohemiancoding.com/sketch -->
    <title>versionone_newlogo</title>
    <desc>Created with Sketch.</desc>
    <defs></defs>
    <g id="Page-1" stroke="none" stroke-width="1" fill="none" fill-rule="evenodd">
        <g id="versionone_newlogo">
            <polyline id="Fill-1" fill="#4D4E4C" points="11.135 30.733 11.548 32.583 11.694 32.583 12.157 30.733 18.211 12.185 23.098 12.185 13.421 38.491 9.798 38.491 0 12.185 4.912 12.185 11.135 30.733"></polyline>
            <path d="M36.487,15.466 C34.817,15.466 33.435,16.11 32.341,17.398 C31.248,18.687 30.58,20.337 30.335,22.348 L30.385,22.467 L42.248,22.467 L42.248,22.078 C42.248,20.166 41.778,18.586 40.838,17.338 C39.898,16.09 38.447,15.466 36.487,15.466 Z M37.241,39 C33.464,39 30.518,37.793 28.402,35.377 C26.289,32.965 25.23,29.785 25.23,25.847 L25.23,24.777 C25.23,21.001 26.319,17.877 28.5,15.405 C30.68,12.934 33.343,11.698 36.487,11.698 C40.004,11.698 42.642,12.792 44.399,14.98 C46.158,17.168 47.037,20.078 47.037,23.708 L47.037,26.236 L30.213,26.236 L30.14,26.359 C30.14,28.999 30.724,31.142 31.892,32.787 C33.06,34.433 34.842,35.258 37.241,35.258 C38.861,35.258 40.283,35.026 41.507,34.564 C42.731,34.102 43.78,33.466 44.655,32.656 L46.526,35.767 C45.586,36.676 44.347,37.438 42.808,38.063 C41.268,38.687 39.412,39 37.241,39 L37.241,39 Z" id="Fill-2" fill="#4D4E4C"></path>
            <path d="M64.982,16.415 L62.527,16.269 C61.263,16.269 60.197,16.569 59.331,17.168 C58.463,17.768 57.794,18.61 57.325,19.696 L57.325,38.491 L52.534,38.491 L52.534,12.185 L56.814,12.185 L57.276,16.025 C58.02,14.664 58.941,13.603 60.036,12.84 C61.128,12.079 62.388,11.698 63.816,11.698 C64.17,11.698 64.512,11.727 64.835,11.783 C65.161,11.84 65.427,11.901 65.639,11.966 L64.982,16.415" id="Fill-3" fill="#4D4E4C"></path>
            <path d="M84.765,31.415 C84.765,30.363 84.364,29.504 83.562,28.837 C82.759,28.175 81.241,27.589 79.004,27.088 C75.907,26.425 73.529,25.49 71.869,24.29 C70.207,23.092 69.377,21.487 69.377,19.478 C69.377,17.338 70.289,15.507 72.111,13.983 C73.934,12.46 76.296,11.698 79.198,11.698 C82.181,11.698 84.596,12.509 86.443,14.129 C88.291,15.75 89.174,17.638 89.093,19.793 L89.044,19.939 L84.474,19.939 C84.474,18.805 83.975,17.776 82.979,16.852 C81.983,15.928 80.723,15.466 79.198,15.466 C77.512,15.466 76.252,15.847 75.418,16.608 C74.584,17.371 74.165,18.278 74.165,19.332 C74.165,20.369 74.526,21.171 75.248,21.738 C75.969,22.306 77.456,22.825 79.709,23.296 C82.935,23.974 85.382,24.939 87.05,26.189 C88.721,27.435 89.555,29.064 89.555,31.076 C89.555,33.408 88.611,35.311 86.723,36.787 C84.835,38.264 82.366,39 79.32,39 C75.965,39 73.323,38.148 71.395,36.448 C69.466,34.745 68.55,32.761 68.647,30.49 L68.695,30.344 L73.266,30.344 C73.346,32.048 73.98,33.292 75.164,34.078 C76.347,34.864 77.732,35.258 79.32,35.258 C81.021,35.258 82.354,34.896 83.32,34.175 C84.283,33.454 84.765,32.533 84.765,31.415" id="Fill-4" fill="#4D4E4C"></path>
            <path d="M95.507,38.492 L100.297,38.492 L100.297,12.185 L95.507,12.185 L95.507,38.492 Z M95.507,5.449 L100.297,5.449 L100.297,0.563 L95.507,0.563 L95.507,5.449 Z" id="Fill-5" fill="#4D4E4C"></path>
            <path d="M111.038,25.627 C111.038,28.417 111.625,30.718 112.801,32.533 C113.977,34.349 115.722,35.258 118.04,35.258 C120.326,35.258 122.06,34.349 123.242,32.533 C124.425,30.718 125.018,28.417 125.018,25.627 L125.018,25.094 C125.018,22.338 124.421,20.045 123.23,18.213 C122.041,16.382 120.293,15.466 117.992,15.466 C115.707,15.466 113.977,16.382 112.801,18.213 C111.625,20.045 111.038,22.338 111.038,25.094 L111.038,25.627 Z M106.25,25.094 C106.25,21.204 107.304,17.999 109.41,15.478 C111.516,12.958 114.377,11.698 117.992,11.698 C121.638,11.698 124.521,12.954 126.633,15.466 C128.749,17.978 129.809,21.187 129.809,25.094 L129.809,25.627 C129.809,29.55 128.752,32.761 126.649,35.258 C124.541,37.751 121.67,39 118.04,39 C114.41,39 111.537,37.747 109.421,35.242 C107.308,32.741 106.25,29.535 106.25,25.627 L106.25,25.094 L106.25,25.094 Z" id="Fill-6" fill="#4D4E4C"></path>
            <path d="M139.821,12.185 L140.16,16.098 C141.039,14.705 142.133,13.623 143.455,12.853 C144.777,12.083 146.28,11.698 147.967,11.698 C150.8,11.698 152.997,12.528 154.553,14.19 C156.111,15.851 156.889,18.416 156.889,21.885 L156.889,38.491 L152.099,38.491 L152.099,21.981 C152.099,19.665 151.64,18.019 150.727,17.047 C149.81,16.074 148.411,15.588 146.53,15.588 C145.058,15.588 143.805,15.884 142.777,16.476 C141.748,17.067 140.93,17.897 140.333,18.967 L140.333,38.491 L135.543,38.491 L135.543,12.185 L139.821,12.185" id="Fill-7" fill="#4D4E4C"></path>
            <path d="M167.228,25.627 C167.228,28.417 167.814,30.718 168.99,32.533 C170.166,34.349 171.911,35.258 174.231,35.258 C176.516,35.258 178.25,34.349 179.433,32.533 C180.617,30.718 181.207,28.417 181.207,25.627 L181.207,25.094 C181.207,22.338 180.613,20.045 179.421,18.213 C178.231,16.382 176.481,15.466 174.181,15.466 C171.895,15.466 170.166,16.382 168.99,18.213 C167.814,20.045 167.228,22.338 167.228,25.094 L167.228,25.627 Z M162.438,25.094 C162.438,21.204 163.495,17.999 165.598,15.478 C167.707,12.958 170.566,11.698 174.181,11.698 C177.827,11.698 180.708,12.954 182.825,15.466 C184.94,17.978 185.997,21.187 185.997,25.094 L185.997,25.627 C185.997,29.55 184.944,32.761 182.836,35.258 C180.728,37.751 177.861,39 174.231,39 C170.6,39 167.726,37.747 165.61,35.242 C163.499,32.741 162.438,29.535 162.438,25.627 L162.438,25.094 L162.438,25.094 Z" id="Fill-8" fill="#D8232A"></path>
            <path d="M196.012,12.185 L196.351,16.098 C197.226,14.705 198.325,13.623 199.646,12.853 C200.968,12.083 202.471,11.698 204.155,11.698 C206.992,11.698 209.188,12.528 210.745,14.19 C212.298,15.851 213.077,18.416 213.077,21.885 L213.077,38.491 L208.287,38.491 L208.287,21.981 C208.287,19.665 207.832,18.019 206.915,17.047 C205.998,16.074 204.602,15.588 202.721,15.588 C201.246,15.588 199.993,15.884 198.964,16.476 C197.935,17.067 197.122,17.897 196.521,18.967 L196.521,38.491 L191.731,38.491 L191.731,12.185 L196.012,12.185" id="Fill-9" fill="#D8232A"></path>
            <path d="M229.967,15.466 C228.298,15.466 226.916,16.11 225.821,17.398 C224.73,18.687 224.06,20.337 223.817,22.348 L223.867,22.467 L235.729,22.467 L235.729,22.078 C235.729,20.166 235.258,18.586 234.318,17.338 C233.378,16.09 231.929,15.466 229.967,15.466 Z M230.723,39 C226.946,39 223.998,37.793 221.882,35.377 C219.771,32.965 218.71,29.785 218.71,25.847 L218.71,24.777 C218.71,21.001 219.801,17.877 221.983,15.405 C224.16,12.934 226.823,11.698 229.967,11.698 C233.486,11.698 236.122,12.792 237.879,14.98 C239.64,17.168 240.519,20.078 240.519,23.708 L240.519,26.236 L223.694,26.236 L223.621,26.359 C223.621,28.999 224.207,31.142 225.374,32.787 C226.542,34.433 228.322,35.258 230.723,35.258 C232.341,35.258 233.763,35.026 234.989,34.564 C236.21,34.102 237.262,33.466 238.137,32.656 L240.006,35.767 C239.066,36.676 237.83,37.438 236.288,38.063 C234.75,38.687 232.892,39 230.723,39 L230.723,39 Z" id="Fill-10" fill="#D8232A"></path>
        </g>
    </g>
</svg>