<?xml version="1.0" encoding="UTF-8"?>
<svg width="72px" height="12px" viewBox="0 0 72 12" version="1.1" xmlns="http://www.w3.org/2000/svg" xmlns:xlink="http://www.w3.org/1999/xlink">
    <!-- Generator: Sketch 45.2 (43514) - http://www.bohemiancoding.com/sketch -->
    <title>stacks-logo</title>
    <desc>Created with Sketch.</desc>
    <defs></defs>
    <g id="Symbols" stroke="none" stroke-width="1" fill="none" fill-rule="evenodd">
        <g id="Hero/Hero-06" transform="translate(-683.000000, -186.000000)" fill="#FFFFFF">
            <path d="M689.9145,188.719 C689.863166,188.821667 689.803667,188.894 689.736,188.936 C689.668333,188.978 689.587834,188.999 689.4945,188.999 C689.401166,188.999 689.296167,188.962834 689.1795,188.8905 C689.062833,188.818166 688.925167,188.737667 688.7665,188.649 C688.607833,188.560333 688.422334,188.479834 688.21,188.4075 C687.997666,188.335166 687.746835,188.299 687.4575,188.299 C687.196165,188.299 686.968668,188.3305 686.775,188.3935 C686.581332,188.4565 686.418001,188.543999 686.285,188.656 C686.151999,188.768001 686.052834,188.902166 685.9875,189.0585 C685.922166,189.214834 685.8895,189.386332 685.8895,189.573 C685.8895,189.811001 685.955999,190.009333 686.089,190.168 C686.222001,190.326667 686.398166,190.461999 686.6175,190.574 C686.836834,190.686001 687.086499,190.786333 687.3665,190.875 C687.646501,190.963667 687.932332,191.058166 688.224,191.1585 C688.515668,191.258834 688.801499,191.375499 689.0815,191.5085 C689.361501,191.641501 689.611166,191.809499 689.8305,192.0125 C690.049834,192.215501 690.225999,192.463999 690.359,192.758 C690.492001,193.052001 690.5585,193.408998 690.5585,193.829 C690.5585,194.286336 690.480334,194.714498 690.324,195.1135 C690.167666,195.512502 689.939002,195.860165 689.638,196.1565 C689.336998,196.452835 688.969502,196.686166 688.5355,196.8565 C688.101498,197.026834 687.604503,197.112 687.0445,197.112 C686.722498,197.112 686.405168,197.0805 686.0925,197.0175 C685.779832,196.9545 685.480001,196.864667 685.193,196.748 C684.905999,196.631333 684.637668,196.491334 684.388,196.328 C684.138332,196.164666 683.915501,195.982668 683.7195,195.782 L684.2655,194.879 C684.316834,194.813666 684.378666,194.758834 684.451,194.7145 C684.523334,194.670166 684.603833,194.648 684.6925,194.648 C684.809167,194.648 684.935166,194.695833 685.0705,194.7915 C685.205834,194.887167 685.365666,194.993333 685.55,195.11 C685.734334,195.226667 685.951332,195.332833 686.201,195.4285 C686.450668,195.524167 686.750498,195.572 687.1005,195.572 C687.637169,195.572 688.052499,195.444835 688.3465,195.1905 C688.640501,194.936165 688.7875,194.571002 688.7875,194.095 C688.7875,193.828999 688.721001,193.612001 688.588,193.444 C688.454999,193.275999 688.278834,193.134834 688.0595,193.0205 C687.840166,192.906166 687.590501,192.809334 687.3105,192.73 C687.030499,192.650666 686.745835,192.564334 686.4565,192.471 C686.167165,192.377666 685.882501,192.265667 685.6025,192.135 C685.322499,192.004333 685.072834,191.834001 684.8535,191.624 C684.634166,191.413999 684.458001,191.151502 684.325,190.8365 C684.191999,190.521498 684.1255,190.133002 684.1255,189.671 C684.1255,189.302331 684.198999,188.943002 684.346,188.593 C684.493001,188.242998 684.707665,187.932668 684.99,187.662 C685.272335,187.391332 685.618831,187.174334 686.0295,187.011 C686.440169,186.847666 686.909164,186.766 687.4365,186.766 C688.033836,186.766 688.584497,186.859332 689.0885,187.046 C689.592503,187.232668 690.021832,187.493998 690.3765,187.83 L689.9145,188.719 Z M703.1335,186.878 L703.1335,188.425 L700.0885,188.425 L700.0885,197 L698.2055,197 L698.2055,188.425 L695.1465,188.425 L695.1465,186.878 L703.1335,186.878 Z M716.1985,197 L714.7425,197 C714.579166,197 714.445001,196.959167 714.34,196.8775 C714.234999,196.795833 714.159167,196.694334 714.1125,196.573 L713.3565,194.508 L709.1635,194.508 L708.4075,196.573 C708.370166,196.680334 708.296667,196.778333 708.187,196.867 C708.077333,196.955667 707.943167,197 707.7845,197 L706.3215,197 L710.2975,186.878 L712.2225,186.878 L716.1985,197 Z M709.6465,193.178 L712.8735,193.178 L711.6415,189.811 C711.5855,189.661666 711.523667,189.485501 711.456,189.2825 C711.388333,189.079499 711.321834,188.859001 711.2565,188.621 C711.191166,188.859001 711.127,189.080666 711.064,189.286 C711.001,189.491334 710.939167,189.670999 710.8785,189.825 L709.6465,193.178 Z M727.8425,194.613 C727.945167,194.613 728.033833,194.652666 728.1085,194.732 L728.8505,195.537 C728.439831,196.045669 727.93467,196.435332 727.335,196.706 C726.73533,196.976668 726.015504,197.112 725.1755,197.112 C724.424163,197.112 723.74867,196.983668 723.149,196.727 C722.54933,196.470332 722.037169,196.113336 721.6125,195.656 C721.187831,195.198664 720.862334,194.65267 720.636,194.018 C720.409666,193.38333 720.2965,192.690337 720.2965,191.939 C720.2965,191.17833 720.422499,190.481836 720.6745,189.8495 C720.926501,189.217164 721.281164,188.672336 721.7385,188.215 C722.195836,187.757664 722.742997,187.401835 723.38,187.1475 C724.017003,186.893165 724.720496,186.766 725.4905,186.766 C726.241837,186.766 726.898664,186.886165 727.461,187.1265 C728.023336,187.366835 728.505165,187.685331 728.9065,188.082 L728.2765,188.957 C728.239166,189.013 728.191334,189.062 728.133,189.104 C728.074666,189.146 727.994167,189.167 727.8915,189.167 C727.784166,189.167 727.674501,189.125 727.5625,189.041 C727.450499,188.957 727.308168,188.866 727.1355,188.768 C726.962832,188.67 726.744668,188.579 726.481,188.495 C726.217332,188.411 725.882502,188.369 725.4765,188.369 C725.000498,188.369 724.563002,188.451833 724.164,188.6175 C723.764998,188.783167 723.422001,189.019998 723.135,189.328 C722.847999,189.636002 722.624001,190.010498 722.463,190.4515 C722.301999,190.892502 722.2215,191.388331 722.2215,191.939 C722.2215,192.508336 722.301999,193.014664 722.463,193.458 C722.624001,193.901336 722.842165,194.274665 723.1175,194.578 C723.392835,194.881335 723.717165,195.113499 724.0905,195.2745 C724.463835,195.435501 724.865165,195.516 725.2945,195.516 C725.551168,195.516 725.783332,195.502 725.991,195.474 C726.198668,195.446 726.389999,195.401667 726.565,195.341 C726.740001,195.280333 726.905666,195.202167 727.062,195.1065 C727.218334,195.010833 727.373499,194.893001 727.5275,194.753 C727.574167,194.711 727.623166,194.677167 727.6745,194.6515 C727.725834,194.625833 727.781833,194.613 727.8425,194.613 Z M736.2175,191.12 L736.6585,191.12 C736.835834,191.12 736.982833,191.0955 737.0995,191.0465 C737.216167,190.9975 737.3165,190.919334 737.4005,190.812 L740.1935,187.277 C740.310167,187.127666 740.432666,187.023834 740.561,186.9655 C740.689334,186.907166 740.851499,186.878 741.0475,186.878 L742.6715,186.878 L739.2625,191.085 C739.155166,191.215667 739.0525,191.325333 738.9545,191.414 C738.8565,191.502667 738.751501,191.575 738.6395,191.631 C738.793501,191.687 738.932333,191.766333 739.056,191.869 C739.179667,191.971667 739.299833,192.102333 739.4165,192.261 L742.9305,197 L741.2645,197 C741.040499,197 740.873667,196.9685 740.764,196.9055 C740.654333,196.8425 740.562167,196.750334 740.4875,196.629 L737.6245,192.891 C737.531166,192.769666 737.426167,192.682167 737.3095,192.6285 C737.192833,192.574833 737.027168,192.548 736.8125,192.548 L736.2175,192.548 L736.2175,197 L734.3345,197 L734.3345,186.871 L736.2175,186.871 L736.2175,191.12 Z M753.4685,188.719 C753.417166,188.821667 753.357667,188.894 753.29,188.936 C753.222333,188.978 753.141834,188.999 753.0485,188.999 C752.955166,188.999 752.850167,188.962834 752.7335,188.8905 C752.616833,188.818166 752.479167,188.737667 752.3205,188.649 C752.161833,188.560333 751.976334,188.479834 751.764,188.4075 C751.551666,188.335166 751.300835,188.299 751.0115,188.299 C750.750165,188.299 750.522668,188.3305 750.329,188.3935 C750.135332,188.4565 749.972001,188.543999 749.839,188.656 C749.705999,188.768001 749.606834,188.902166 749.5415,189.0585 C749.476166,189.214834 749.4435,189.386332 749.4435,189.573 C749.4435,189.811001 749.509999,190.009333 749.643,190.168 C749.776001,190.326667 749.952166,190.461999 750.1715,190.574 C750.390834,190.686001 750.640499,190.786333 750.9205,190.875 C751.200501,190.963667 751.486332,191.058166 751.778,191.1585 C752.069668,191.258834 752.355499,191.375499 752.6355,191.5085 C752.915501,191.641501 753.165166,191.809499 753.3845,192.0125 C753.603834,192.215501 753.779999,192.463999 753.913,192.758 C754.046001,193.052001 754.1125,193.408998 754.1125,193.829 C754.1125,194.286336 754.034334,194.714498 753.878,195.1135 C753.721666,195.512502 753.493002,195.860165 753.192,196.1565 C752.890998,196.452835 752.523502,196.686166 752.0895,196.8565 C751.655498,197.026834 751.158503,197.112 750.5985,197.112 C750.276498,197.112 749.959168,197.0805 749.6465,197.0175 C749.333832,196.9545 749.034001,196.864667 748.747,196.748 C748.459999,196.631333 748.191668,196.491334 747.942,196.328 C747.692332,196.164666 747.469501,195.982668 747.2735,195.782 L747.8195,194.879 C747.870834,194.813666 747.932666,194.758834 748.005,194.7145 C748.077334,194.670166 748.157833,194.648 748.2465,194.648 C748.363167,194.648 748.489166,194.695833 748.6245,194.7915 C748.759834,194.887167 748.919666,194.993333 749.104,195.11 C749.288334,195.226667 749.505332,195.332833 749.755,195.4285 C750.004668,195.524167 750.304498,195.572 750.6545,195.572 C751.191169,195.572 751.606499,195.444835 751.9005,195.1905 C752.194501,194.936165 752.3415,194.571002 752.3415,194.095 C752.3415,193.828999 752.275001,193.612001 752.142,193.444 C752.008999,193.275999 751.832834,193.134834 751.6135,193.0205 C751.394166,192.906166 751.144501,192.809334 750.8645,192.73 C750.584499,192.650666 750.299835,192.564334 750.0105,192.471 C749.721165,192.377666 749.436501,192.265667 749.1565,192.135 C748.876499,192.004333 748.626834,191.834001 748.4075,191.624 C748.188166,191.413999 748.012001,191.151502 747.879,190.8365 C747.745999,190.521498 747.6795,190.133002 747.6795,189.671 C747.6795,189.302331 747.752999,188.943002 747.9,188.593 C748.047001,188.242998 748.261665,187.932668 748.544,187.662 C748.826335,187.391332 749.172831,187.174334 749.5835,187.011 C749.994169,186.847666 750.463164,186.766 750.9905,186.766 C751.587836,186.766 752.138497,186.859332 752.6425,187.046 C753.146503,187.232668 753.575832,187.493998 753.9305,187.83 L753.4685,188.719 Z" id="stacks-logo"></path>
        </g>
    </g>
</svg>