<?xml version="1.0" encoding="UTF-8"?>
<svg width="119px" height="16px" viewBox="0 0 119 16" version="1.1" xmlns="http://www.w3.org/2000/svg" xmlns:xlink="http://www.w3.org/1999/xlink">
    <!-- Generator: Sketch 48.2 (47327) - http://www.bohemiancoding.com/sketch -->
    <title>venturebeat-logo</title>
    <desc>Created with Sketch.</desc>
    <defs></defs>
    <g id="Page-1" stroke="none" stroke-width="1" fill="none" fill-rule="evenodd">
        <g id="venturebeat-logo">
            <path d="M14.3,0.8 L14.3,3.8 L13.7,3.8 C13.4,3.7 13.3,3.9 13.3,4.1 C12.4,7.2 11.4,10.2 10.4,13.3 C10.2,14 10,14.7 9.7,15.4 C9.7,15.5 9.5,15.6 9.4,15.6 L4.8,15.6 L4.7,15.3 C3.5,11.6 2.3,7.8 1.2,4.1 C1.1,3.8 1,3.8 0.7,3.8 L0.1,3.8 L0.1,0.8 L6.5,0.8 L6.5,3.8 L5.2,3.8 C5.9,6.6 6.6,9.4 7.3,12.1 L7.4,12.1 L9.7,3.8 L8.4,3.8 L8.4,0.8 L14.3,0.8 Z M23.7,10.9 L17,10.9 C17,11.5 17,12.1 17.3,12.6 C17.5,13 18,13.2 18.4,13.2 C18.8,13.2 19.3,13 19.5,12.5 C19.6,12.3 19.6,12.1 19.7,11.8 L23.4,11.8 C23.3,13 22.8,14 21.8,14.7 C21.1,15.2 20.3,15.5 19.5,15.6 C18.4,15.8 17.2,15.7 16.1,15.4 C14.6,14.9 13.6,13.9 13.2,12.5 C12.7,10.9 12.7,9.3 13.2,7.7 C13.8,5.8 15.2,4.7 17.2,4.4 C18.1,4.3 19,4.3 19.9,4.6 C21.9,5.2 23,6.5 23.4,8.6 C23.6,9.4 23.6,10.1 23.7,10.9 Z M17.1,8.8 L19.7,8.8 C19.7,8.2 19.7,7.7 19.1,7.4 C18.6,7.1 18.1,7.1 17.7,7.4 C17.1,7.7 17.1,8.2 17.1,8.8 Z M24.4,4.8 L28.7,4.8 L28.8,6.3 C29.1,6 29.3,5.7 29.5,5.5 C30.7,4.5 32.1,4.3 33.6,4.8 C34.7,5.2 35.2,6.1 35.2,7.3 L35.2,12.6 L36.1,12.6 L36.1,15.6 L31.3,15.6 L31.3,8.9 C31.3,8.3 31.1,8 30.7,7.9 C30.2,7.8 29.8,7.9 29.5,8.3 L29.3,8.6 L29.2,8.9 L29.2,12.6 L29.9,12.6 L29.9,15.6 L24.4,15.6 L24.4,12.6 L25.2,12.6 L25.2,7.8 L24.4,7.8 L24.4,4.8 Z M36.6,4.7 L37.8,4.7 L37.8,2.6 C37.8,2.2 37.9,2.1 38.3,2 L41.4,1.3 L41.4,4.7 L43.1,4.7 L43.1,7.7 L41.4,7.7 L41.4,11.9 C41.5,12.6 42,12.9 42.6,12.8 C42.7,12.8 42.8,12.8 43,12.7 L43,14.6 C43,15.5 43,15.5 42.1,15.6 C41.2,15.7 40.3,15.8 39.3,15.6 C38,15.3 37.4,14.5 37.4,13.2 L37.4,7.7 L36.5,7.7 C36.6,6.8 36.6,5.8 36.6,4.7 Z M50.6,7.7 L49.9,7.7 L49.9,4.7 L54.6,4.7 L54.6,12.6 L55.5,12.6 L55.5,15.6 L51.1,15.6 L51.1,14.5 C50.9,14.7 50.8,14.9 50.6,15 C49.5,16 47.6,16.2 46.3,15.6 C45.3,15.1 44.8,14.3 44.8,13.2 L44.7,8.2 L44.7,7.8 L43.8,7.8 L43.8,4.8 L48.6,4.8 L48.6,11.2 C48.6,11.5 48.6,11.8 48.7,12 C48.8,12.4 49.2,12.6 49.6,12.6 C50,12.6 50.3,12.4 50.5,12 C50.6,11.9 50.6,11.7 50.6,11.5 L50.6,7.7 Z M56.3,15.6 L56.3,12.6 L57.2,12.6 L57.2,7.8 L56.3,7.8 L56.3,4.8 L60.5,4.8 C60.5,5.3 60.6,5.9 60.6,6.5 C60.7,6.4 60.7,6.3 60.7,6.2 C61,5.3 61.7,4.8 62.6,4.7 L64,4.7 C64.1,4.7 64.2,4.8 64.2,4.9 L64.2,8.2 C63.7,8.2 63.1,8.1 62.6,8.2 C61.5,8.4 61,9 60.9,10.1 L60.9,12.5 L62.1,12.5 L62.1,15.5 C60.3,15.6 58.3,15.6 56.3,15.6 Z M75.8,10.9 L69.1,10.9 C69.1,11.5 69.1,12.1 69.4,12.6 C69.7,13.1 70.1,13.2 70.6,13.2 C71.1,13.2 71.5,12.9 71.7,12.5 L71.9,11.9 L75.6,11.9 C75.4,14.1 73.8,15.6 71.6,15.8 C70.5,15.9 69.5,15.9 68.5,15.5 C67,15 66,14 65.5,12.5 C65,10.9 65,9.4 65.5,7.8 C66.1,5.8 67.6,4.8 69.6,4.5 C70.5,4.4 71.5,4.4 72.4,4.7 C74.3,5.3 75.3,6.6 75.7,8.4 C75.8,9.3 75.8,10.1 75.8,10.9 Z M69.3,8.8 L71.9,8.8 C71.9,7.7 71.4,7.1 70.5,7.2 C69.7,7.3 69.2,7.9 69.3,8.8 Z" id="Shape" fill="#101010" fill-rule="nonzero"></path>
            <path d="M84.2,0.8 C84.8,0.9 85.4,0.9 85.9,1.1 C88.2,1.7 89.4,4.5 88.2,6.6 C87.9,7.1 87.5,7.4 87,7.7 C86.8,7.8 86.6,7.9 86.3,8.1 C86.4,8.2 86.5,8.2 86.6,8.2 C88.2,8.7 88.9,9.9 89,11.4 C89.2,13.6 87.8,15.2 85.6,15.4 C84.9,15.5 84.2,15.5 83.6,15.5 L76.7,15.5 L76.7,12.5 L78,12.5 L78,3.7 L76.7,3.7 L76.7,0.7 C79.3,0.8 81.7,0.8 84.2,0.8 Z M82,9.6 L82,12.5 C82,12.6 82.1,12.7 82.2,12.7 L83.9,12.7 C84.3,12.7 84.7,12.5 84.9,12.1 C85.4,11.2 84.9,10 83.9,9.8 C83.3,9.6 82.7,9.6 82,9.6 Z M82,6.8 C82.6,6.8 83.1,6.8 83.7,6.7 C84.4,6.6 84.8,6 84.8,5.3 C84.8,4.6 84.4,4 83.8,3.9 C83.2,3.8 82.6,3.8 82,3.8 L82,6.8 Z M100.4,10.9 L93.7,10.9 C93.7,11.6 93.7,12.2 94.1,12.7 C94.4,13.1 94.8,13.2 95.3,13.2 C95.8,13.2 96.1,12.9 96.3,12.5 L96.5,11.9 L100.2,11.9 C100.1,13.1 99.6,14.1 98.6,14.8 C97.4,15.7 96.1,15.9 94.7,15.8 C94.1,15.8 93.6,15.7 93,15.5 C91.5,15.1 90.6,14.1 90.1,12.7 C89.6,11 89.5,9.3 90.2,7.6 C90.9,5.8 92.3,4.8 94.2,4.6 C95.1,4.5 96.1,4.6 97,4.8 C98.9,5.4 99.9,6.8 100.3,8.7 C100.3,9.4 100.4,10.1 100.4,10.9 Z M96.5,8.9 C96.5,8.3 96.4,7.7 95.9,7.4 C95.4,7.1 94.9,7.1 94.4,7.5 C94,7.8 93.9,8.3 93.9,8.9 L96.5,8.9 Z M106.8,8.9 L106.8,7.9 C106.8,7.3 106.4,6.9 105.9,6.9 C105.4,6.9 104.9,7.3 104.9,7.8 L104.9,8.2 L101.3,8.2 C101.2,6.8 101.9,5.6 103.2,5 C105.1,4.2 107.1,4.2 109,5.1 C110.2,5.7 110.8,6.6 110.8,7.9 L110.8,12.4 L111.7,12.4 L111.7,15.4 L107.2,15.4 C107.2,15 107.1,14.7 107.1,14.2 C107,14.3 106.9,14.4 106.9,14.5 C105.7,15.9 103.5,15.9 102.3,15.3 C101.4,14.8 101,13.9 100.9,12.9 C100.8,10.7 101.9,9.3 104.2,8.9 L106.6,8.7 C106.5,8.9 106.6,8.9 106.8,8.9 Z M106.8,10.8 L105.9,10.8 C105,10.9 104.6,11.6 104.7,12.4 C104.8,13.1 105.4,13.5 106.1,13.2 C106.5,13.1 106.7,12.8 106.8,12.4 L106.8,10.8 Z M118.6,7.8 L117.1,7.8 C117,7.8 116.9,7.9 116.9,8 L116.9,11.8 C116.9,12.6 117.4,13 118.3,12.8 L118.5,12.8 L118.5,15.2 C118.5,15.4 118.5,15.5 118.3,15.5 C117.2,15.7 116.1,15.8 114.9,15.6 C113.6,15.3 113,14.6 113,13.3 L113,7.7 L112.6,7.7 C112,7.7 112.1,7.8 112.1,7.2 L112.1,4.7 L113.3,4.7 L113.3,2.7 C113.3,2 113.2,2.1 113.9,2 C114.9,1.8 115.8,1.6 116.9,1.3 L116.9,4.7 L118.7,4.7 C118.6,5.8 118.6,6.8 118.6,7.8 Z" id="Combined-Shape" fill="#FF0000"></path>
        </g>
    </g>
</svg>