<?xml version="1.0" encoding="UTF-8"?>
<svg width="284px" height="163px" viewBox="0 0 284 163" version="1.1" xmlns="http://www.w3.org/2000/svg" xmlns:xlink="http://www.w3.org/1999/xlink">
    <!-- Generator: Sketch 46.2 (44496) - http://www.bohemiancoding.com/sketch -->
    <title>wsj-logo-40g</title>
    <desc>Created with Sketch.</desc>
    <defs></defs>
    <g id="Page-1" stroke="none" stroke-width="1" fill="none" fill-rule="evenodd">
        <g id="wsj-logo-40g" fill-rule="nonzero" fill="#949494">
            <path d="M11.31,23.3 C8.31,9.59 7.62,7.3 3.23,6.11 L-1.13686838e-13,5.17 L-1.13686838e-13,1.91 L40.85,1.91 L40.85,5.17 L37.39,5.87 C30.01,7.5 30.71,14.93 32.78,24.93 L51,116 L64.39,43.5 L59.54,18.64 C57.7,9.81 57.01,7.02 52.39,5.86 L49.39,5.16 L49.39,1.9 L91.62,1.9 L91.62,5.16 L86.54,6.1 C78.93,7.49 80.08,15.85 81.93,24.92 L99.45,116 L116.76,29.79 C119.99,11.9 118.38,7.48 111.47,6.09 L106.61,5.15 L106.61,1.89 L135.91,1.89 L135.91,5.15 L132.68,6.31 C128.07,7.93 126.91,12.31 123.68,27.69 L95.53,163 L89.53,163 L67.84,57.46 L48.23,163 L40.62,163 L11.31,23.3 Z" id="Shape"></path>
            <path d="M172,163 C158.61,163 154,153.72 149.62,153.72 C147.09,153.72 144.09,154.4 141.78,162.08 L139,162.08 L139,109 L142.47,109 C145.24,139 156.31,157.8 171.77,157.8 C182.16,157.8 189.31,148.27 189.31,131.07 C189.31,94.82 137.85,79.25 137.85,39.07 C137.85,17.47 148.69,0.97 168.31,0.97 C181.01,0.97 183.54,9.33 188.85,9.33 C191.85,9.33 193.91,7.01 195.07,1.89 L197.85,1.89 L197.85,54.89 L194.39,54.89 C191.63,28.16 184.7,6.09 168.07,6.09 C156.55,6.09 154.47,17.71 154.47,25.6 C154.47,60.23 205.94,72.08 205.94,120.41 C205.94,145.04 192.55,162.93 172.01,162.93" id="Shape"></path>
            <path d="M271.87,125.08 C271.87,149.95 259.4,162.95 240.25,162.95 C223,163 212.8,148.78 213,133.22 C213.24,121.13 222,115.09 229.15,116.02 C234.23,116.71 239.3,120.43 238.61,128.57 C238,140.18 225.49,139.72 225,146.92 C224.53,151.34 230.31,157.85 237.69,157.85 C250.61,157.85 250.61,141.35 250.61,128.85 L250.61,16.09 C250.61,9.59 248.54,7.73 243.46,6.57 L237.69,5.17 L237.69,1.91 L283.14,1.91 L283.14,5.17 L278.07,6.57 C273.47,7.73 271.84,9.82 271.84,16.32 L271.84,125.08 L271.87,125.08 Z" id="Shape"></path>
        </g>
    </g>
</svg>