<?xml version="1.0" encoding="UTF-8"?>
<svg width="380px" height="100px" viewBox="0 0 380 100" version="1.1" xmlns="http://www.w3.org/2000/svg" xmlns:xlink="http://www.w3.org/1999/xlink">
    <!-- Generator: Sketch 48.2 (47327) - http://www.bohemiancoding.com/sketch -->
    <title>forbes-logo</title>
    <desc>Created with Sketch.</desc>
    <defs></defs>
    <g id="Page-1" stroke="none" stroke-width="1" fill="none" fill-rule="evenodd">
        <g id="forbes-logo" fill="#33629A">
            <path d="M134.8042,97.4103 C134.5552,97.2523 134.4742,96.6223 134.5312,95.3003 L134.6132,93.4153 L135.5672,93.2123 C136.0922,93.0993 137.2202,92.8783 138.0732,92.7193 C140.7142,92.2253 142.2322,90.7923 143.0852,87.9843 C143.7812,85.6973 144.0882,78.3813 144.1042,63.6873 C144.1232,45.7173 143.7492,41.4733 141.9322,39.0683 C140.9472,37.7643 140.2382,37.3933 137.8482,36.9353 C136.6692,36.7093 135.4282,36.4663 135.0902,36.3953 C134.5442,36.2813 134.4762,36.1033 134.4762,34.7673 C134.4762,33.4683 134.5592,33.2323 135.0902,33.0143 C135.9072,32.6793 162.9242,27.2783 163.7872,27.2783 L164.4602,27.2783 L164.3282,31.3013 C164.2562,33.5143 164.1402,36.7353 164.0712,38.4603 L163.9452,41.5973 L164.9232,39.8323 C168.0562,34.1813 171.5712,30.6743 176.2432,28.5323 C178.8082,27.3563 180.5192,27.0063 183.6892,27.0063 C187.4472,27.0063 191.2042,28.2323 191.2042,29.4593 C191.2042,30.2833 184.5822,47.7793 184.2172,47.9203 C184.0392,47.9883 182.7462,47.4933 181.3442,46.8203 C178.4202,45.4183 175.6772,44.7313 173.0132,44.7363 C169.6982,44.7443 165.9932,45.9663 164.5302,47.5343 C163.9052,48.2053 163.9022,48.2463 163.7462,58.2653 C163.5932,68.1893 163.9232,80.2933 164.4812,85.1613 C164.9572,89.3083 166.0582,91.3503 168.3342,92.3023 C169.0942,92.6183 173.8982,93.2763 175.4652,93.2783 C175.5842,93.2783 175.6452,94.2293 175.6012,95.3923 L175.5222,97.5063 L155.3402,97.5703 C144.2402,97.6063 134.9992,97.5343 134.8042,97.4103 M0.3632,97.4613 C0.1362,97.3703 0.0222,96.6903 0.0222,95.4313 C0.0222,93.1723 -0.1218,93.2733 4.2492,92.4623 C7.6012,91.8403 8.8012,91.2043 10.2822,89.2633 C13.1522,85.4993 13.7722,78.2533 13.7792,48.4143 C13.7852,20.3933 13.2452,14.4983 10.2762,10.1673 C8.9592,8.2463 6.7402,7.2023 3.0222,6.7583 L0.1582,6.4143 L0.0792,4.1793 L0.0002,1.9433 L0.8972,1.7843 C1.3902,1.6963 18.7272,1.6583 39.4232,1.7013 L77.0522,1.7783 L77.2292,2.8693 C77.3252,3.4693 77.4852,9.6233 77.5822,16.5453 L77.7602,29.1313 L75.8202,29.7213 C72.8992,30.6073 72.9172,30.6183 71.6032,27.1423 C68.3762,18.6033 64.6762,13.6833 59.6132,11.1993 C56.1202,9.4853 54.5062,9.2783 44.6442,9.2783 L36.0612,9.2783 L35.9132,10.7103 C35.6362,13.3953 35.1982,30.6673 35.2002,38.8013 L35.2032,46.9143 L37.7262,46.9003 C39.1142,46.8923 41.8502,46.7903 43.8062,46.6743 C46.7472,46.4983 47.6212,46.3423 48.8512,45.7713 C51.8752,44.3733 53.9312,41.2923 55.1922,36.2773 L55.8422,33.6873 L58.0682,33.6083 L60.2942,33.5293 L60.2942,49.9143 L60.2942,66.3013 L58.0682,66.2213 L55.8412,66.1423 L55.2082,63.5513 C54.0212,58.6833 51.7352,55.1973 48.9112,53.9493 C47.6062,53.3713 44.3792,53.0433 38.1352,52.8533 L35.2032,52.7643 L35.2032,58.9203 C35.2032,65.6293 35.5722,74.7033 36.0452,79.6293 C36.7042,86.4953 38.4582,90.2893 41.6102,91.6613 C42.2112,91.9243 44.1152,92.3493 45.8402,92.6073 C47.5652,92.8663 49.1912,93.1883 49.4532,93.3243 C50.1192,93.6683 50.1582,97.2233 49.4992,97.4763 C48.9842,97.6753 0.8542,97.6603 0.3632,97.4613 M344.3402,99.1003 C339.4822,98.5803 331.7482,96.8873 329.1742,95.7803 L327.9162,95.2393 L327.7442,89.0093 C327.6512,85.5823 327.5412,81.0003 327.5032,78.8273 L327.4332,74.8763 L328.1862,74.5143 C328.6022,74.3163 329.4382,74.1313 330.0452,74.1023 L331.1512,74.0513 L332.0932,76.3693 C335.7682,85.4133 340.0762,90.2893 345.7052,91.7723 C347.8532,92.3383 351.8782,92.3433 353.4682,91.7823 C357.9212,90.2103 360.3632,86.8393 360.3832,82.2323 C360.4082,76.7783 357.4102,74.1583 346.0842,69.7333 C339.0672,66.9923 336.6192,65.5813 333.7042,62.5973 C330.5602,59.3803 329.0512,55.7173 328.7682,50.6143 C328.4262,44.4493 330.3552,39.2523 334.6312,34.8223 C338.9342,30.3653 344.5202,27.9493 352.1292,27.2553 C358.8302,26.6423 369.1162,28.0643 374.5062,30.3473 L375.4892,30.7633 L375.6642,36.3163 C375.7612,39.3713 375.8612,43.4653 375.8862,45.4143 L375.9322,48.9603 L374.6122,49.4503 C372.5242,50.2243 372.3872,50.1283 371.2262,47.0513 C367.9712,38.4263 364.1892,34.3463 358.2962,33.0983 C354.7042,32.3393 351.7042,33.1563 349.5242,35.4873 C347.8232,37.3063 347.1582,38.9213 346.9982,41.6333 C346.8242,44.5713 347.3492,46.1603 349.1442,48.1243 C351.3572,50.5453 354.9832,52.6353 362.2042,55.6523 C371.0502,59.3493 375.2712,62.4873 377.5652,67.0743 C379.0552,70.0533 379.4772,72.4313 379.3262,77.0113 C379.2142,80.4473 379.1052,81.1533 378.3232,83.4613 C375.7742,90.9823 370.0202,95.9343 361.1312,98.2563 C358.1202,99.0433 357.6912,99.0833 351.7042,99.1483 C348.2542,99.1863 344.9412,99.1653 344.3402,99.1003 M298.3582,54.3813 L303.1042,54.2173 L302.9322,50.8463 C302.3302,38.9613 299.4222,32.4653 294.7032,32.4713 C289.5762,32.4763 285.4802,39.0683 283.7762,50.0513 C283.5672,51.4003 283.3932,53.0023 283.3912,53.6093 L283.3862,54.7123 L288.4992,54.6293 C291.3122,54.5843 295.7482,54.4723 298.3582,54.3813 M289.7952,98.8363 C276.2652,96.3953 266.5882,86.8013 263.4262,72.6893 C263.0202,70.8753 262.8402,68.8443 262.7392,64.9153 C262.5762,58.6993 263.0822,54.8413 264.6872,50.0473 C267.7662,40.8423 273.2872,34.3193 281.3052,30.4103 C289.7692,26.2843 301.3402,26.0143 308.8302,29.7673 C317.2642,33.9943 322.2262,42.4313 323.4852,54.6873 C323.6552,56.3383 323.7522,58.3013 323.7032,59.0513 L323.6142,60.4143 L303.4322,60.4843 L283.2492,60.5553 L283.3262,62.9393 C283.5042,68.4633 284.6922,73.3483 286.8892,77.5973 C287.8872,79.5273 288.6822,80.5803 290.6142,82.5293 C294.9752,86.9323 299.3142,88.6383 306.1582,88.6383 C311.1212,88.6383 314.6912,87.6473 318.4232,85.2343 C319.4692,84.5583 320.5282,84.0063 320.7782,84.0063 C321.3472,84.0063 322.6582,85.6943 322.6582,86.4283 C322.6582,87.6303 318.7452,91.5053 314.9292,94.0833 C311.8032,96.1953 306.8462,98.1063 302.5472,98.8593 C299.5372,99.3863 292.7742,99.3733 289.7952,98.8363 M222.3172,93.5473 C224.2972,93.1723 225.8362,92.3833 227.4902,90.8973 C231.6312,87.1733 234.7452,79.4853 235.9702,69.9613 C236.4692,66.0803 236.4022,57.2403 235.8482,54.0023 C234.3542,45.2443 231.1402,39.4883 226.4512,37.1723 C224.5072,36.2103 224.2072,36.1423 221.9012,36.1423 C220.2502,36.1423 218.8322,36.3183 217.6252,36.6743 L215.8192,37.2063 L215.6862,47.1743 C215.5142,59.9433 215.9302,91.9103 216.2792,92.8273 C216.5012,93.4123 216.7462,93.5363 217.8502,93.6233 C220.4502,93.8273 220.8792,93.8193 222.3172,93.5473 M211.3852,98.9713 C208.6802,98.6963 200.4122,97.3203 197.5242,96.6643 L195.5262,96.2103 L195.6822,85.5403 C196.0572,59.8493 196.1042,45.8263 195.8612,32.1873 C195.6232,18.8273 195.5542,17.4143 195.0392,15.4383 C194.3862,12.9343 193.4442,11.1873 192.3102,10.3803 C191.8702,10.0673 190.6742,9.6223 189.6532,9.3933 C186.2562,8.6303 186.4412,8.7523 186.3502,7.2033 C186.2982,6.3113 186.3952,5.7213 186.6232,5.5403 C186.9292,5.2983 214.7822,-0.0147 215.6692,0.0003 C215.9242,0.0043 215.9602,3.5653 215.8302,15.8243 C215.7372,24.5243 215.7252,31.6423 215.8032,31.6423 C215.8812,31.6423 216.8992,31.2013 218.0652,30.6623 C221.5782,29.0393 224.8182,28.3343 229.5222,28.1703 C232.6552,28.0613 234.1052,28.1303 235.7122,28.4633 C246.2182,30.6363 253.9922,39.2353 256.7102,51.6873 C257.4182,54.9353 257.6822,63.0093 257.2112,67.0533 C256.8112,70.4993 255.6662,75.1423 254.4752,78.1563 C249.9832,89.5273 240.3412,96.9453 227.5512,98.8733 C224.6062,99.3173 215.3542,99.3733 211.3852,98.9713 M104.1482,93.6793 C106.0802,93.1053 108.4632,90.8713 109.7332,88.4413 C112.3562,83.4263 113.5282,76.0103 113.5562,64.2323 C113.5932,49.4743 111.2792,40.0823 106.3952,35.1653 C104.3452,33.0993 102.8902,32.4593 100.2692,32.4633 C94.4502,32.4723 90.7562,38.5473 89.2972,50.5103 C88.6262,56.0083 88.6232,69.1073 89.2912,73.9153 C91.3582,88.7933 96.6952,95.8923 104.1482,93.6793 M94.2552,98.9743 C87.6412,98.0123 81.8582,95.2123 77.4412,90.8373 C73.7562,87.1883 71.3672,83.1753 69.6072,77.6763 C66.8572,69.0903 66.8572,58.0533 69.6042,49.6423 C72.2672,41.4923 78.2622,34.3963 85.6002,30.7133 C95.7622,25.6123 110.0652,25.9323 119.4762,31.4723 C127.9472,36.4573 133.0772,45.3163 134.5052,57.4203 C134.9412,61.1153 134.6582,68.9203 133.9712,72.1423 C131.1622,85.3293 122.9792,94.5413 110.9912,98.0143 C109.7002,98.3883 107.6962,98.8253 106.5402,98.9863 C104.0922,99.3263 96.6232,99.3193 94.2552,98.9743" id="Fill-1"></path>
        </g>
    </g>
</svg>